<svg xmlns="http://www.w3.org/2000/svg" width="236" height="100" viewBox="0 0 236 100" version="1.1">
	<rect x="0" y="0" width="100%" height="100%" fill="#bfbfbf" />
	<path d="M 0 2 C 0 3.973, 0.667 4, 50 4 L 100 4 100 52.007 L 100 100.014 168.072 99.757 L 236.144 99.500 236.322 49.750 L 236.500 0 118.250 0 C 0.667 0, 0 0.011, 0 2 M 0.079 2.583 C 0.127 3.748, 0.364 3.985, 0.683 3.188 C 0.972 2.466, 0.936 1.603, 0.604 1.271 C 0.272 0.939, 0.036 1.529, 0.079 2.583 M 43.371 7.941 C 36.225 11.549, 28.396 18.113, 27.456 21.286 C 27.095 22.504, 25.698 25.130, 24.352 27.123 C 19.489 34.320, 21.485 50.946, 27.994 57.455 L 31 60.462 31 52.462 L 31 44.463 37.558 36.981 C 41.164 32.867, 45.552 28.863, 47.308 28.084 C 49.063 27.305, 52.393 25.812, 54.706 24.766 C 58.728 22.948, 63.955 22.911, 70.267 24.657 C 73.251 25.482, 75.676 31.921, 76.328 40.751 C 76.664 45.299, 77.639 50.236, 78.501 51.751 L 80.065 54.500 79.453 51.250 C 79.042 49.066, 79.230 48, 80.028 48 C 80.680 48, 80.976 47.381, 80.686 46.624 C 80.396 45.868, 80.798 44.016, 81.579 42.510 C 83.653 38.513, 83.320 34.495, 80.162 25.424 C 78.016 19.260, 76.421 16.493, 73.425 13.736 C 67.909 8.661, 61.421 5.663, 55 5.223 C 50.388 4.907, 48.510 5.347, 43.371 7.941 M 110 18 C 110 21.664, 110.381 23, 111.427 23 C 112.211 23, 113.059 22.212, 113.311 21.250 C 113.746 19.583, 113.774 19.583, 113.884 21.250 C 114.048 23.723, 115.894 23.423, 116.969 20.750 L 117.873 18.500 117.937 20.750 C 118.067 25.375, 120 22.799, 120 18 C 120 12.119, 117.621 10.954, 116.425 16.250 L 115.691 19.500 114.343 16.250 C 112.216 11.124, 110 12.016, 110 18 M 122.410 17.375 C 121.211 20.498, 122.424 22.500, 125.514 22.500 C 128.165 22.500, 128.500 22.164, 128.500 19.500 C 128.500 16.969, 128.069 16.450, 125.744 16.183 C 123.986 15.981, 122.779 16.412, 122.410 17.375 M 129.880 17.776 C 130.442 18.826, 130.469 20.198, 129.945 21.133 C 129.197 22.471, 129.749 22.714, 133.530 22.714 C 137.794 22.714, 139.165 21.838, 136.997 20.498 C 136.330 20.086, 136.342 19.229, 137.032 17.939 C 137.989 16.152, 137.713 16, 133.500 16 C 129.432 16, 129.034 16.195, 129.880 17.776 M 139.410 17.375 C 137.838 21.469, 142.490 25.042, 145.365 21.949 C 146.242 21.006, 145.988 20.851, 144.251 21.270 C 143.014 21.568, 141.750 21.404, 141.442 20.906 C 141.134 20.408, 142.067 20, 143.514 20 C 145.481 20, 146.063 19.558, 145.815 18.250 C 145.383 15.973, 140.218 15.268, 139.410 17.375 M 147 19.438 C 147 22.378, 147.326 22.855, 149.250 22.736 C 150.488 22.659, 151.831 22.124, 152.235 21.548 C 152.715 20.862, 152.975 20.932, 152.985 21.750 C 152.993 22.438, 153.450 23, 154 23 C 154.550 23, 155 21.425, 155 19.500 C 155 15.694, 153.504 14.968, 151.392 17.750 C 150.127 19.417, 150.062 19.417, 150.032 17.750 C 150.014 16.788, 149.325 16, 148.500 16 C 147.458 16, 147 17.049, 147 19.438 M 161 19.500 C 161 21.425, 161.450 23, 162 23 C 162.550 23, 163 22.325, 163 21.500 C 163 20.675, 163.450 20, 164 20 C 164.550 20, 165 20.675, 165 21.500 C 165 22.325, 165.450 23, 166 23 C 166.550 23, 167 21.425, 167 19.500 C 167 17.575, 166.550 16, 166 16 C 165.450 16, 165 16.675, 165 17.500 C 165 18.325, 164.550 19, 164 19 C 163.450 19, 163 18.325, 163 17.500 C 163 16.675, 162.550 16, 162 16 C 161.450 16, 161 17.575, 161 19.500 M 169 17.107 C 169 17.716, 169.661 17.960, 170.468 17.651 C 171.275 17.341, 172.182 17.486, 172.483 17.972 C 172.784 18.459, 172.010 19.002, 170.765 19.179 C 167.217 19.682, 167.967 22.449, 171.750 22.813 C 174.867 23.114, 175 22.981, 175 19.563 C 175 16.271, 174.772 16, 172 16 C 170.350 16, 169 16.498, 169 17.107 M 176.535 16.943 C 176.176 17.524, 176.488 18, 177.228 18 C 177.969 18, 178.640 18.874, 178.721 19.943 C 178.819 21.250, 178.398 21.706, 177.434 21.336 C 176.645 21.034, 176 21.314, 176 21.959 C 176 22.650, 177.133 23.003, 178.750 22.816 C 181.069 22.550, 181.500 22.029, 181.500 19.500 C 181.500 17.189, 181.005 16.429, 179.344 16.193 C 178.159 16.024, 176.895 16.361, 176.535 16.943 M 183 19.500 C 183 22.722, 183.238 23, 186 23 C 188.762 23, 189 22.722, 189 19.500 C 189 16.278, 188.762 16, 186 16 C 183.238 16, 183 16.278, 183 19.500 M 190.345 17.252 C 189.924 17.932, 190.463 18.112, 191.843 17.751 C 193.028 17.441, 194.230 17.563, 194.514 18.022 C 194.798 18.481, 194.015 19.002, 192.775 19.179 C 191.535 19.355, 190.370 20.288, 190.187 21.250 C 189.920 22.652, 190.563 23, 193.427 23 C 196.730 23, 197 22.774, 197 20 C 197 18.350, 197.450 17, 198 17 C 198.550 17, 199 18.350, 199 20 C 199 22, 199.500 23, 200.500 23 C 201.500 23, 202 22, 202 20 C 202 18.350, 202.450 17, 203 17 C 203.550 17, 204 18.350, 204 20 C 204 22.762, 204.278 23, 207.500 23 C 210.333 23, 211 22.619, 211 21 C 211 19.667, 210.333 19, 209 19 C 207.894 19, 207 18.333, 207 17.508 C 207 16.303, 205.463 16.033, 199.001 16.102 C 194.523 16.150, 190.712 16.656, 190.345 17.252 M 124.400 18.400 C 124.034 19.354, 124.229 20.629, 124.834 21.234 C 125.634 22.034, 126.116 21.861, 126.600 20.600 C 126.966 19.646, 126.771 18.371, 126.166 17.766 C 125.366 16.966, 124.884 17.139, 124.400 18.400 M 141.500 18 C 141.160 18.550, 141.610 19, 142.500 19 C 143.390 19, 143.840 18.550, 143.500 18 C 143.160 17.450, 142.710 17, 142.500 17 C 142.290 17, 141.840 17.450, 141.500 18 M 185 18 C 185 18.550, 185.450 19, 186 19 C 186.550 19, 187 18.550, 187 18 C 187 17.450, 186.550 17, 186 17 C 185.450 17, 185 17.450, 185 18 M 185 21 C 185 21.550, 185.450 22, 186 22 C 186.550 22, 187 21.550, 187 21 C 187 20.450, 186.550 20, 186 20 C 185.450 20, 185 20.450, 185 21 M 193 21 C 192.099 21.582, 191.975 21.975, 192.691 21.985 C 193.346 21.993, 194.160 21.550, 194.500 21 C 195.267 19.758, 194.921 19.758, 193 21 M 207 21 C 207 21.550, 207.450 22, 208 22 C 208.550 22, 209 21.550, 209 21 C 209 20.450, 208.550 20, 208 20 C 207.450 20, 207 20.450, 207 21 M 161 35 C 161 38.778, 161.367 40, 162.500 40 C 163.611 40, 164 38.833, 164 35.500 C 164 32.167, 164.389 31, 165.500 31 C 166.611 31, 167 32.167, 167 35.500 C 167 38.833, 167.389 40, 168.500 40 C 169.633 40, 170 38.778, 170 35 L 170 30 165.500 30 L 161 30 161 35 M 110 36.433 C 110 39.588, 110.239 39.859, 112.954 39.782 C 115.361 39.714, 115.747 39.397, 115.039 38.073 C 114.531 37.123, 114.570 35.732, 115.134 34.724 C 115.955 33.258, 115.643 33, 113.050 33 C 110.242 33, 110 33.273, 110 36.433 M 117 34.067 C 117 34.680, 117.853 34.864, 119 34.500 C 120.100 34.151, 121 34.293, 121 34.816 C 121 35.339, 120.100 36.002, 119 36.290 C 117.900 36.577, 117 37.513, 117 38.369 C 117 39.625, 118.268 39.916, 123.557 39.876 L 130.114 39.825 129.807 36.671 C 129.474 33.250, 126.696 31.835, 124.644 34.042 C 123.756 34.997, 124.003 35.151, 125.750 34.730 C 128.105 34.162, 128.915 35.464, 126.750 36.338 C 125.750 36.741, 125.750 36.858, 126.750 36.921 C 129.124 37.071, 127.993 38.500, 125.500 38.500 C 123.439 38.500, 123 38.017, 123 35.750 C 123 33.361, 122.606 33, 120 33 C 118.350 33, 117 33.480, 117 34.067 M 131 33.935 C 131 34.449, 131.460 36.079, 132.021 37.557 C 132.747 39.465, 132.712 40.642, 131.899 41.622 C 131.012 42.691, 131.098 43, 132.284 43 C 133.209 43, 134.439 41.159, 135.403 38.330 C 137.155 33.190, 136.779 31.589, 134.521 34.573 C 133.198 36.323, 133.061 36.339, 133.032 34.750 C 133 32.990, 131 32.188, 131 33.935 M 138.667 33.667 C 138.300 34.033, 138 35.397, 138 36.698 C 138 39.368, 140.139 40.599, 142.750 39.431 C 144.285 38.744, 144.224 38.600, 142.250 38.255 C 139.763 37.820, 139.114 35, 141.500 35 C 142.325 35, 143 34.550, 143 34 C 143 32.883, 139.704 32.629, 138.667 33.667 M 149.545 34.859 C 149.220 35.882, 149.238 37.457, 149.584 38.359 C 150.283 40.180, 155 40.645, 155 38.893 C 155 38.284, 154.325 38.045, 153.500 38.362 C 152.480 38.753, 152 38.308, 152 36.969 C 152 35.852, 152.675 35, 153.559 35 C 154.416 35, 154.840 34.550, 154.500 34 C 153.460 32.318, 150.170 32.888, 149.545 34.859 M 171 33.935 C 171 34.449, 171.460 36.079, 172.021 37.557 C 172.747 39.465, 172.712 40.642, 171.899 41.622 C 171.011 42.691, 171.100 43, 172.294 43 C 173.216 43, 174.401 41.296, 175.250 38.750 C 177.002 33.492, 180 32.341, 180 36.927 C 180 38.617, 180.450 40, 181 40 C 181.550 40, 182 38.688, 182 37.083 C 182 35.479, 182.563 33.940, 183.250 33.662 C 183.938 33.385, 182.525 33.122, 180.110 33.079 C 177.034 33.024, 175.323 33.524, 174.392 34.750 C 173.127 36.417, 173.062 36.417, 173.032 34.750 C 173 32.990, 171 32.188, 171 33.935 M 185 36.500 C 185 40.164, 185.788 40.812, 187.800 38.800 C 188.733 37.867, 189 37.867, 189 38.800 C 189 39.460, 189.450 40, 190 40 C 190.550 40, 191 38.425, 191 36.500 C 191 32.719, 189.713 31.947, 188.080 34.750 C 187.109 36.417, 187.059 36.417, 187.030 34.750 C 187.014 33.788, 186.550 33, 186 33 C 185.450 33, 185 34.575, 185 36.500 M 192 36.500 C 192 38.944, 192.452 40, 193.500 40 C 194.325 40, 195 39.325, 195 38.500 C 195 37.675, 195.450 37, 196 37 C 196.550 37, 197 37.675, 197 38.500 C 197 39.325, 197.450 40, 198 40 C 198.550 40, 199 38.425, 199 36.500 C 199 34.575, 198.550 33, 198 33 C 197.450 33, 197 33.675, 197 34.500 C 197 35.325, 196.550 36, 196 36 C 195.450 36, 195 35.325, 195 34.500 C 195 33.675, 194.325 33, 193.500 33 C 192.452 33, 192 34.056, 192 36.500 M 201 36.500 C 201 39.917, 201.095 40, 205 40 C 208.905 40, 209 39.917, 209 36.500 C 209 34.575, 208.550 33, 208 33 C 207.450 33, 207 33.675, 207 34.500 C 207 35.333, 206.111 36, 205 36 C 203.889 36, 203 35.333, 203 34.500 C 203 33.675, 202.550 33, 202 33 C 201.450 33, 201 34.575, 201 36.500 M 211 36.500 C 211 39.534, 211.321 40, 213.417 40 C 214.746 40, 216.060 39.438, 216.338 38.750 C 216.741 37.750, 216.858 37.750, 216.921 38.750 C 217.108 41.717, 219 39.670, 219 36.500 C 219 32.723, 216.757 31.589, 215.540 34.750 C 214.898 36.417, 214.819 36.417, 213.883 34.750 C 212.303 31.935, 211 32.726, 211 36.500 M 203 38 C 203 38.550, 203.450 39, 204 39 C 204.550 39, 205 38.550, 205 38 C 205 37.450, 204.550 37, 204 37 C 203.450 37, 203 37.450, 203 38 M 65.250 43.031 C 64.013 43.529, 63 44.400, 63 44.968 C 63 46.253, 63.117 46.251, 68.640 44.860 C 71.751 44.077, 72.749 43.457, 71.833 42.876 C 70.167 41.819, 68.146 41.867, 65.250 43.031 M 38.500 47.454 C 35.602 48.771, 35.675 48.799, 40.666 48.279 C 46.514 47.670, 52.171 48.658, 50.114 49.930 C 49.107 50.552, 49.150 50.844, 50.318 51.292 C 52.857 52.266, 53.120 50.756, 50.835 48.324 C 48.314 45.641, 43.270 45.285, 38.500 47.454 M 63.559 49.468 C 66.036 51.342, 66.653 51.347, 67.362 49.500 C 67.798 48.362, 67.175 48, 64.777 48 C 61.784 48, 61.720 48.077, 63.559 49.468 M 40.750 50.662 C 41.438 50.940, 42.563 50.940, 43.250 50.662 C 43.938 50.385, 43.375 50.158, 42 50.158 C 40.625 50.158, 40.063 50.385, 40.750 50.662 M 110.410 51.375 C 108.838 55.469, 113.490 59.042, 116.365 55.949 C 117.242 55.006, 116.988 54.851, 115.251 55.270 C 114.014 55.568, 112.750 55.404, 112.442 54.906 C 112.134 54.408, 113.067 54, 114.514 54 C 116.481 54, 117.063 53.558, 116.815 52.250 C 116.383 49.973, 111.218 49.268, 110.410 51.375 M 118 53.500 C 118 56.981, 118.024 57, 122.500 57 C 125.833 57, 127 57.389, 127 58.500 C 127 59.325, 127.506 60, 128.125 60 C 128.852 60, 129.029 58.894, 128.625 56.875 C 128.281 55.156, 128 52.906, 128 51.875 C 128 50.844, 127.550 50, 127 50 C 126.450 50, 126 51.350, 126 53 C 126 54.650, 125.550 56, 125 56 C 124.450 56, 124 54.650, 124 53 C 124 48.970, 122.230 49.164, 121.723 53.250 L 121.320 56.500 121.160 53.250 C 120.929 48.554, 118 48.786, 118 53.500 M 129.410 51.375 C 127.838 55.469, 132.490 59.042, 135.365 55.949 C 136.242 55.006, 135.988 54.851, 134.251 55.270 C 133.014 55.568, 131.750 55.404, 131.442 54.906 C 131.134 54.408, 132.067 54, 133.514 54 C 135.481 54, 136.063 53.558, 135.815 52.250 C 135.383 49.973, 130.218 49.268, 129.410 51.375 M 141.545 51.859 C 140.635 54.725, 141.968 57, 144.557 57 C 147.452 57, 149.203 54.247, 147.880 51.776 C 146.610 49.403, 142.306 49.459, 141.545 51.859 M 150 52.014 C 150 53.121, 149.455 54.901, 148.788 55.968 C 148.121 57.036, 147.958 58.267, 148.425 58.705 C 148.892 59.142, 149.475 58.938, 149.720 58.250 C 150.249 56.770, 154 56.551, 154 58 C 154 58.550, 154.675 59, 155.500 59 C 156.325 59, 157 58.550, 157 58 C 157 57.450, 157.675 57, 158.500 57 C 159.325 57, 160 56.325, 160 55.500 C 160 54.675, 160.450 54, 161 54 C 161.550 54, 162 54.675, 162 55.500 C 162 56.325, 162.450 57, 163 57 C 163.550 57, 164 55.425, 164 53.500 C 164 51.575, 163.550 50, 163 50 C 162.450 50, 162 50.675, 162 51.500 C 162 52.325, 161.550 53, 161 53 C 160.450 53, 160 52.325, 160 51.500 C 160 48.472, 157.126 50.007, 156.723 53.250 L 156.320 56.500 156.160 53.250 C 156.017 50.341, 155.685 50, 153 50 C 150.660 50, 150 50.443, 150 52.014 M 165 53.500 C 165 57.356, 167.137 58.310, 168.920 55.250 C 169.891 53.583, 169.941 53.583, 169.970 55.250 C 169.986 56.212, 170.450 57, 171 57 C 171.550 57, 172 55.425, 172 53.500 C 172 50.007, 169.770 48.504, 168.662 51.250 C 168.259 52.250, 168.142 52.250, 168.079 51.250 C 168.036 50.563, 167.325 50, 166.500 50 C 165.452 50, 165 51.056, 165 53.500 M 173 53.500 C 173 55.425, 173.450 57, 174 57 C 174.550 57, 175.007 56.438, 175.015 55.750 C 175.025 54.932, 175.285 54.862, 175.765 55.548 C 176.169 56.124, 177.512 56.659, 178.750 56.736 C 180.674 56.855, 181 56.378, 181 53.438 C 181 51.049, 180.542 50, 179.500 50 C 178.675 50, 177.986 50.788, 177.968 51.750 C 177.938 53.417, 177.873 53.417, 176.608 51.750 C 174.496 48.968, 173 49.694, 173 53.500 M 112.500 52 C 112.160 52.550, 112.610 53, 113.500 53 C 114.390 53, 114.840 52.550, 114.500 52 C 114.160 51.450, 113.710 51, 113.500 51 C 113.290 51, 112.840 51.450, 112.500 52 M 131.500 52 C 131.160 52.550, 131.610 53, 132.500 53 C 133.390 53, 133.840 52.550, 133.500 52 C 133.160 51.450, 132.710 51, 132.500 51 C 132.290 51, 131.840 51.450, 131.500 52 M 144 53.500 C 144 54.991, 144.431 55.852, 145 55.500 C 145.550 55.160, 146 54.260, 146 53.500 C 146 52.740, 145.550 51.840, 145 51.500 C 144.431 51.148, 144 52.009, 144 53.500 M 151.755 53.500 C 151.492 54.875, 151.665 56, 152.139 56 C 152.612 56, 153 54.875, 153 53.500 C 153 52.125, 152.827 51, 152.617 51 C 152.406 51, 152.018 52.125, 151.755 53.500 M 50.694 62.639 C 49.628 63.706, 50.991 65, 53.181 65 C 54.902 65, 55.038 64.751, 54 63.500 C 52.656 61.880, 51.701 61.632, 50.694 62.639 M 29.250 63.820 C 28.012 63.995, 27 64.558, 27 65.070 C 27 65.581, 26.131 66, 25.068 66 C 24.006 66, 22.196 67.320, 21.047 68.934 C 18.561 72.425, 15.900 79.567, 16.763 80.430 C 17.427 81.094, 13.213 85.278, 5.745 91.370 C 2.499 94.018, 1 95.993, 1 97.620 L 1 100 27.085 100 L 53.170 100 49.073 95.345 C 44.811 90.504, 44.413 89.080, 47.832 90.910 C 49.638 91.877, 51.966 91.774, 58.680 90.433 C 59.879 90.193, 61.648 89.210, 62.611 88.248 C 64.587 86.275, 64.657 85.765, 61.660 95.106 L 60.182 99.713 67.591 99.909 C 73.121 100.055, 74.994 99.775, 74.978 98.803 C 74.930 95.975, 71.026 89.063, 68.566 87.451 C 66.389 86.025, 66.171 85.498, 67.233 84.219 C 68.251 82.991, 67.833 83.036, 65.105 84.446 C 62.398 85.845, 60.421 86.064, 55.365 85.522 C 51.876 85.149, 48.756 84.414, 48.432 83.890 C 48.108 83.365, 45.919 82.032, 43.568 80.927 C 41.217 79.822, 38.702 77.811, 37.978 76.459 C 37.254 75.107, 36.098 74, 35.409 74 C 34.222 74, 32.475 69.880, 31.806 65.500 C 31.586 64.062, 30.868 63.590, 29.250 63.820 M 110.818 66.500 C 109.061 70.357, 111.097 74, 115.010 74 C 116.839 74, 118.300 73.381, 118.655 72.457 C 119.572 70.066, 118.141 69.425, 116.598 71.535 C 115.425 73.140, 114.974 73.223, 113.608 72.090 C 111.589 70.414, 111.540 67.627, 113.500 66 C 114.698 65.006, 115.307 65.010, 116.524 66.020 C 118.201 67.412, 119.586 66.757, 118.541 65.067 C 118.179 64.480, 116.549 64, 114.920 64 C 112.730 64, 111.660 64.652, 110.818 66.500 M 120 70.500 C 120 74.356, 122.137 75.310, 123.920 72.250 C 124.891 70.583, 124.941 70.583, 124.970 72.250 C 124.986 73.213, 125.450 74, 126 74 C 126.550 74, 127 72.425, 127 70.500 C 127 67.007, 124.770 65.504, 123.662 68.250 C 123.259 69.250, 123.142 69.250, 123.079 68.250 C 123.036 67.563, 122.325 67, 121.500 67 C 120.452 67, 120 68.056, 120 70.500 M 128 70.500 C 128 72.944, 128.452 74, 129.500 74 C 130.325 74, 131 73.325, 131 72.500 C 131 71.675, 131.450 71, 132 71 C 132.550 71, 133 71.675, 133 72.500 C 133 73.325, 133.450 74, 134 74 C 134.550 74, 135 72.425, 135 70.500 C 135 68.575, 134.550 67, 134 67 C 133.450 67, 133 67.675, 133 68.500 C 133 69.325, 132.550 70, 132 70 C 131.450 70, 131 69.325, 131 68.500 C 131 67.675, 130.325 67, 129.500 67 C 128.452 67, 128 68.056, 128 70.500 M 136 70.524 C 136 72.436, 136.450 74, 137 74 C 137.550 74, 138 72.672, 138 71.048 C 138 68.233, 138.174 68.114, 141.750 68.490 C 146.776 69.019, 146.891 69.091, 144.005 69.894 C 142.633 70.275, 141.363 71.355, 141.182 72.294 C 140.921 73.650, 141.600 74, 144.490 74 C 147.991 74, 148.115 73.878, 147.813 70.750 C 147.503 67.527, 147.452 67.498, 141.750 67.274 L 136 67.048 136 70.524 M 149 70.500 C 149 72.425, 149.450 74, 150 74 C 150.550 74, 151 72.650, 151 71 C 151 69.350, 151.450 68, 152 68 C 152.550 68, 153 69.350, 153 71 C 153 75.338, 155.974 75.096, 156.076 70.750 L 156.152 67.500 157.445 71 C 158.314 73.350, 158.413 74.911, 157.747 75.750 C 157.049 76.630, 157.179 77, 158.187 77 C 159.025 77, 160.281 74.927, 161.217 72 C 162.752 67.201, 161.788 64.696, 160.131 69.176 L 159.325 71.353 158.756 69.176 C 158.276 67.340, 157.470 67, 153.594 67 C 149.010 67, 149 67.008, 149 70.500 M 164 72 C 164 74.750, 164.450 77, 165 77 C 165.550 77, 166 76.325, 166 75.500 C 166 74.675, 166.863 74, 167.917 74 C 168.971 74, 170.096 73.438, 170.417 72.750 C 170.883 71.750, 171.117 71.750, 171.583 72.750 C 172.304 74.294, 177 74.418, 177 72.893 C 177 72.284, 176.325 72.045, 175.500 72.362 C 174.480 72.753, 174 72.308, 174 70.969 C 174 69.852, 174.675 69, 175.559 69 C 176.416 69, 176.840 68.550, 176.500 68 C 175.626 66.586, 172.280 66.757, 171.583 68.250 C 171.117 69.250, 170.883 69.250, 170.417 68.250 C 170.096 67.563, 168.521 67, 166.917 67 C 164.083 67, 164 67.143, 164 72 M 179 70.664 C 179 73.960, 180.360 75.174, 181.338 72.750 C 181.741 71.750, 181.858 71.750, 181.921 72.750 C 181.965 73.446, 183.292 74, 184.917 74 C 186.521 74, 188.060 73.438, 188.338 72.750 C 188.741 71.750, 188.858 71.750, 188.921 72.750 C 188.964 73.438, 189.675 74, 190.500 74 C 191.548 74, 192 72.944, 192 70.500 C 192 66.644, 189.863 65.690, 188.080 68.750 C 187.114 70.409, 187.059 70.410, 187.030 68.757 C 187.006 67.369, 186.186 67.046, 183 67.171 C 179.164 67.321, 179 67.465, 179 70.664 M 193 70.500 C 193 72.425, 193.450 74, 194 74 C 194.550 74, 195.007 73.438, 195.015 72.750 C 195.025 71.932, 195.285 71.862, 195.765 72.548 C 196.169 73.124, 197.512 73.659, 198.750 73.736 C 200.674 73.855, 201 73.378, 201 70.438 C 201 68.049, 200.542 67, 199.500 67 C 198.675 67, 197.986 67.787, 197.968 68.750 C 197.938 70.417, 197.873 70.417, 196.608 68.750 C 194.496 65.968, 193 66.694, 193 70.500 M 166.336 69.567 C 166.005 70.429, 166.244 71.644, 166.867 72.267 C 167.711 73.111, 168 72.711, 168 70.700 C 168 67.691, 167.251 67.182, 166.336 69.567 M 183 69.941 C 183 71.009, 183.450 72.160, 184 72.500 C 184.567 72.851, 185 72.010, 185 70.559 C 185 69.152, 184.550 68, 184 68 C 183.450 68, 183 68.873, 183 69.941 M 46.500 71 C 46.840 71.550, 48.104 71.968, 49.309 71.930 C 51.421 71.862, 51.428 71.829, 49.500 71 C 46.748 69.817, 45.769 69.817, 46.500 71 M 144 72 C 143.099 72.582, 142.975 72.975, 143.691 72.985 C 144.346 72.993, 145.160 72.550, 145.500 72 C 146.267 70.758, 145.921 70.758, 144 72 M 110 86.094 C 110 87.346, 110.803 88.397, 112 88.710 C 113.100 88.998, 114 89.631, 114 90.117 C 114 90.602, 114.675 91, 115.500 91 C 116.510 91, 117.025 89.938, 117.076 87.750 L 117.152 84.500 118.445 88 C 119.314 90.350, 119.413 91.911, 118.747 92.750 C 118.049 93.630, 118.179 94, 119.187 94 C 120.025 94, 121.281 91.927, 122.217 89 C 123.752 84.201, 122.788 81.696, 121.131 86.176 L 120.325 88.353 119.756 86.176 C 118.948 83.086, 114.308 83.142, 113.697 86.250 L 113.254 88.500 112.510 86.250 C 111.574 83.417, 110 83.319, 110 86.094 M 124.973 88.101 C 124.365 90.356, 124.185 92.494, 124.571 92.851 C 124.958 93.208, 125.475 92.938, 125.720 92.250 C 125.966 91.563, 126.992 91, 128 91 C 129.008 91, 130.034 91.563, 130.280 92.250 C 131.204 94.837, 131.850 92.301, 131.304 88.231 C 130.821 84.629, 130.390 84, 128.407 84 C 126.525 84, 125.865 84.789, 124.973 88.101 M 133.120 85.776 C 131.797 88.247, 133.548 91, 136.443 91 C 139.032 91, 140.365 88.725, 139.455 85.859 C 138.694 83.459, 134.390 83.403, 133.120 85.776 M 141 87.500 C 141 90.534, 141.321 91, 143.417 91 C 144.746 91, 146.060 90.438, 146.338 89.750 C 146.741 88.750, 146.858 88.750, 146.921 89.750 C 147.108 92.717, 149 90.670, 149 87.500 C 149 83.723, 146.757 82.589, 145.540 85.750 C 144.898 87.417, 144.819 87.417, 143.883 85.750 C 142.303 82.935, 141 83.726, 141 87.500 M 127.622 86.825 C 127.179 88.104, 127.083 89.417, 127.409 89.742 C 128.445 90.779, 129.174 89.250, 128.794 86.836 L 128.426 84.500 127.622 86.825 M 135.336 86.567 C 135.005 87.429, 135.244 88.644, 135.867 89.267 C 136.711 90.111, 137 89.711, 137 87.700 C 137 84.691, 136.251 84.182, 135.336 86.567" stroke="none" fill="#3467df" fill-rule="evenodd"/>
</svg>