<svg xmlns="http://www.w3.org/2000/svg" width="240" height="100" viewBox="0 0 240 100" version="1.1">
	<rect x="0" y="0" width="100%" height="100%" fill="#bfbfbf" />
	<path d="M -0 50.004 L -0 100.008 120.250 99.754 L 240.500 99.500 240.759 49.750 L 241.019 0 120.509 0 L 0 0 -0 50.004 M 0.464 50.500 C 0.464 78, 0.592 89.106, 0.749 75.180 C 0.906 61.255, 0.906 38.755, 0.749 25.180 C 0.592 11.606, 0.464 23, 0.464 50.500 M 96.317 6.615 C 95.983 7.488, 96.147 8.494, 96.684 8.851 C 98.260 9.900, 96.818 39.881, 95.141 40.915 C 94.394 41.376, 93.543 43.879, 93.250 46.477 C 92.772 50.714, 92.912 51.164, 94.609 50.842 C 95.811 50.614, 96.615 49.484, 96.816 47.741 C 97.102 45.271, 97.522 45, 101.066 45 C 104.521 45, 105 45.284, 105 47.333 C 105 50.175, 105.746 51.035, 107.598 50.324 C 109.318 49.664, 109.534 41.448, 107.859 40.413 C 107.037 39.905, 106.900 35.342, 107.369 24.104 C 107.728 15.522, 107.679 8.007, 107.260 7.404 C 106.842 6.801, 104.346 6.020, 101.713 5.668 C 97.866 5.154, 96.807 5.340, 96.317 6.615 M 127.074 5.856 C 123.558 6.870, 123.355 8.930, 126.650 10.174 L 129.500 11.249 129.208 26.875 C 128.912 42.665, 129.474 45.799, 132.399 44.677 C 133.780 44.147, 134 41.725, 134 27.031 L 134 10 136.500 10 C 138.848 10, 140.041 7.734, 138.250 6.674 C 136.643 5.724, 129.377 5.192, 127.074 5.856 M 147.295 6.107 C 140.978 7.934, 139.263 13.782, 143.550 18.877 C 145.944 21.723, 146.010 22.081, 144.620 24.767 C 142.844 28.202, 141.501 38.876, 142.396 42.443 C 142.749 43.849, 143.652 45, 144.402 45 C 146.182 45, 146.969 41.860, 146.986 34.700 C 147 29.022, 149.079 23, 151.026 23 C 151.590 23, 152.006 27.098, 152.015 32.750 C 152.031 43.027, 152.781 45.682, 155.386 44.682 C 156.763 44.154, 156.954 41.705, 156.818 26.286 C 156.733 16.504, 156.273 7.713, 155.796 6.750 C 154.856 4.851, 152.306 4.658, 147.295 6.107 M 160.629 21.706 C 159.930 38.935, 160.420 45.359, 162.383 44.707 C 163.100 44.469, 163.601 40.080, 163.784 32.435 C 163.940 25.888, 164.502 20.098, 165.034 19.566 C 165.655 18.945, 166 19.028, 166 19.800 C 166 21.574, 168.085 21.256, 169.608 19.250 C 170.733 17.768, 170.941 19.613, 170.968 31.323 C 170.997 43.940, 171.153 45.117, 172.750 44.810 C 174.331 44.507, 174.526 42.652, 174.773 25.560 C 175.062 5.501, 174.426 2.274, 171.293 7.918 C 167.542 14.679, 167.409 14.727, 165.807 9.919 C 164.997 7.489, 163.654 5.368, 162.822 5.206 C 161.541 4.958, 161.205 7.490, 160.629 21.706 M 113.389 6.980 C 112.228 7.449, 111.060 8.433, 110.794 9.166 C 110.267 10.619, 111.770 39.060, 112.572 42.803 C 113.014 44.870, 113.551 45.076, 117.782 44.803 C 121.174 44.585, 122.500 44.078, 122.500 43 C 122.500 42.117, 121.398 41.373, 119.823 41.191 C 117.305 40.900, 117.104 40.488, 116.435 34.237 C 115.937 29.591, 116.066 27.478, 116.862 27.213 C 118.316 26.728, 118.345 24.282, 116.902 23.801 C 116.299 23.600, 115.565 20.448, 115.272 16.796 L 114.739 10.158 117.611 9.829 C 121.629 9.369, 122.271 5.975, 118.323 6.063 C 116.770 6.098, 114.550 6.511, 113.389 6.980 M 183 15 C 183 20.333, 183.407 24, 184 24 C 184.550 24, 185 22.200, 185 20 C 185 17.800, 185.450 16, 186 16 C 186.550 16, 187 17.800, 187 20 C 187 22.200, 187.450 24, 188 24 C 188.585 24, 189 20.626, 189 15.878 C 189 8.528, 189.153 7.882, 190.608 9.090 C 191.930 10.187, 192.097 11.634, 191.548 17.212 C 191.101 21.750, 191.231 24, 191.939 24 C 192.523 24, 193.001 23.887, 193.001 23.750 C 193.002 23.613, 193.670 19.706, 194.487 15.069 C 195.303 10.431, 195.763 6.430, 195.509 6.176 C 195.256 5.922, 194.403 6.251, 193.613 6.906 C 192.799 7.582, 191.934 7.702, 191.614 7.184 C 191.303 6.682, 190.026 6.322, 188.775 6.385 C 186.992 6.475, 186.366 7.258, 185.882 10 L 185.263 13.500 185.132 9.750 C 185.059 7.688, 184.550 6, 184 6 C 183.407 6, 183 9.667, 183 15 M 198.070 7.750 C 198.109 8.713, 198.501 10.400, 198.941 11.500 C 199.469 12.819, 199.105 14.763, 197.871 17.210 C 196.842 19.251, 196 21.613, 196 22.460 C 196 24.786, 197.764 24.306, 198.609 21.750 L 199.353 19.500 199.926 21.809 C 200.755 25.146, 202.391 24.984, 203.034 21.500 L 203.588 18.500 204.313 21.250 C 205.076 24.142, 207 25.052, 207 22.520 C 207 21.706, 206.292 19.272, 205.428 17.111 C 203.988 13.512, 203.994 12.913, 205.501 9.997 C 207.298 6.522, 206.874 5.029, 204.621 6.899 C 203.514 7.819, 203.078 7.795, 202.673 6.792 C 202.268 5.786, 201.918 5.832, 201.091 7 C 200.372 8.017, 200.026 8.097, 200.015 7.250 C 200.007 6.563, 199.550 6, 199 6 C 198.450 6, 198.032 6.787, 198.070 7.750 M 208 15 C 208 20.333, 208.407 24, 209 24 C 209.550 24, 210 22.200, 210 20 C 210 17.800, 210.450 16, 211 16 C 211.550 16, 212 17.800, 212 20 C 212 23.333, 212.333 24, 214 24 C 215.547 24, 216 23.333, 216 21.059 C 216 16.796, 217.668 16.419, 218.436 20.509 C 219.104 24.070, 221.050 25.424, 220.939 22.250 C 220.772 17.519, 218.380 6.782, 217.500 6.815 C 216.950 6.836, 215.974 8.799, 215.330 11.176 L 214.161 15.500 214.080 10.667 C 213.986 4.994, 211.871 4.606, 210.882 10.079 L 210.263 13.500 210.132 9.750 C 210.059 7.688, 209.550 6, 209 6 C 208.407 6, 208 9.667, 208 15 M 101.636 14.640 C 100.619 22.062, 100.876 40, 102 40 C 102.622 40, 103 34.333, 103 25 C 103 16.750, 102.836 10, 102.636 10 C 102.436 10, 101.986 12.088, 101.636 14.640 M 147.250 10.662 C 146.563 10.940, 146 12.427, 146 13.967 C 146 16.227, 146.531 16.869, 148.750 17.295 C 150.262 17.586, 151.549 17.751, 151.608 17.662 C 151.668 17.573, 151.977 15.813, 152.296 13.750 C 152.817 10.368, 152.659 10.008, 150.687 10.079 C 149.484 10.122, 147.938 10.385, 147.250 10.662 M 184.424 27.338 C 184.141 28.075, 184.043 32.237, 184.205 36.588 C 184.492 44.282, 184.569 44.500, 187 44.500 C 189.450 44.500, 189.502 44.338, 189.606 36.500 C 189.664 32.100, 189.271 27.938, 188.733 27.250 C 187.446 25.605, 185.070 25.654, 184.424 27.338 M 192.979 29.555 C 191.281 34.021, 190.482 45, 191.855 45 C 192.485 45, 193 43.677, 193 42.059 C 193 37.796, 194.668 37.419, 195.436 41.509 C 195.796 43.429, 196.520 45, 197.045 45 C 198.255 45, 198.243 44.420, 196.859 35.693 C 195.514 27.215, 194.487 25.590, 192.979 29.555 M 199 36 L 199 45 203 45 L 207 45 207 36 C 207 24.672, 205.200 24.074, 204.744 35.250 L 204.407 43.500 204.204 35.250 C 204.092 30.712, 203.568 27, 203.040 27 C 202.513 27, 201.929 30.712, 201.744 35.250 L 201.407 43.500 201.204 35.250 C 200.923 23.874, 199 24.528, 199 36 M 210.739 28.250 C 209.616 31.202, 207.736 44.069, 208.339 44.672 C 209.329 45.662, 210.145 44.475, 210.999 40.801 L 211.766 37.500 212.512 40.771 C 213.211 43.835, 214.621 45.713, 215.535 44.799 C 215.756 44.578, 215.218 40.483, 214.339 35.698 C 212.830 27.478, 211.824 25.397, 210.739 28.250 M 186 29.441 C 186 30.298, 186.450 31, 187 31 C 187.550 31, 188 30.577, 188 30.059 C 188 29.541, 187.550 28.840, 187 28.500 C 186.450 28.160, 186 28.584, 186 29.441 M 187.252 39.500 C 187.263 41.700, 187.468 42.482, 187.707 41.238 C 187.946 39.994, 187.937 38.194, 187.687 37.238 C 187.437 36.282, 187.241 37.300, 187.252 39.500 M 124.654 65.157 C 123.760 81.776, 123.854 88.231, 125.015 90 C 126.998 93.021, 127.969 88.652, 128.015 76.500 C 128.048 67.853, 128.346 64.989, 129.080 66.250 C 130.444 68.591, 132.488 68.463, 133.597 65.968 C 134.171 64.676, 134.380 68.894, 134.171 77.557 C 133.863 90.309, 133.958 91.155, 135.671 90.826 C 137.351 90.503, 137.522 88.991, 137.773 72.237 C 137.995 57.325, 137.795 54, 136.674 54 C 135.921 54, 134.485 55.815, 133.485 58.033 C 131.477 62.485, 130.815 62.294, 129.043 56.750 C 128.384 54.688, 127.274 53, 126.576 53 C 125.657 53, 125.127 56.346, 124.654 65.157 M 156.702 53.701 C 156.440 54.141, 156.062 62.600, 155.863 72.500 L 155.500 90.500 162.633 90.791 C 169.699 91.080, 169.772 91.112, 170.375 94.127 C 171.352 99.012, 173.511 97.092, 173.431 91.410 C 173.250 78.666, 171.607 53.875, 170.914 53.447 C 169.071 52.308, 168.500 56.437, 168.500 70.907 C 168.500 82.171, 168.171 86.427, 167.275 86.732 C 166.349 87.048, 165.983 83.171, 165.775 70.825 C 165.544 57.103, 165.261 54.500, 164 54.500 C 162.739 54.500, 162.456 57.094, 162.225 70.750 C 161.972 85.728, 161.245 89.688, 159.557 85.288 C 159.196 84.347, 159.208 77.252, 159.584 69.521 C 160.168 57.502, 160.043 55.281, 158.722 54.185 C 157.873 53.480, 156.964 53.262, 156.702 53.701 M 177.719 53.695 C 177.027 54.889, 178.612 88.564, 179.423 89.875 C 179.805 90.494, 181.655 91, 183.533 91 C 186.304 91, 187.237 90.443, 188.474 88.050 C 190.281 84.556, 190.503 74.197, 188.848 70.566 C 187.664 67.966, 184.759 66.413, 183.053 67.467 C 182.477 67.823, 181.970 65.137, 181.794 60.792 C 181.558 54.965, 181.171 53.458, 179.843 53.205 C 178.932 53.031, 177.976 53.252, 177.719 53.695 M 95.141 56.250 C 94.696 57.487, 94.536 65.813, 94.785 74.750 C 95.127 87.006, 95.552 91, 96.512 91 C 98.646 91, 99 88.428, 99 72.918 C 99 60.436, 99.241 58, 100.475 58 C 101.704 58, 101.996 60.718, 102.225 74.250 C 102.456 87.906, 102.739 90.500, 104 90.500 C 105.269 90.500, 105.542 87.684, 105.773 72.250 L 106.045 54 100.998 54 C 96.670 54, 95.835 54.321, 95.141 56.250 M 110.596 56.166 C 108.297 59.448, 108.266 85.507, 110.557 88.777 C 112.590 91.680, 116.523 91.657, 118.440 88.732 C 120.583 85.461, 121.646 60.475, 119.790 57 C 117.922 53.503, 112.788 53.037, 110.596 56.166 M 142.596 56.166 C 140.297 59.448, 140.266 85.507, 142.557 88.777 C 144.590 91.680, 148.523 91.657, 150.440 88.732 C 152.583 85.461, 153.646 60.475, 151.790 57 C 149.922 53.503, 144.788 53.037, 142.596 56.166 M 112.809 71.192 C 112.425 85.683, 112.568 87, 114.522 87 C 116.107 87, 117.300 75.859, 116.823 65.510 C 116.565 59.938, 116.162 58.456, 114.831 58.203 C 113.353 57.921, 113.121 59.413, 112.809 71.192 M 144.809 71.192 C 144.425 85.683, 144.568 87, 146.522 87 C 148.107 87, 149.300 75.859, 148.823 65.510 C 148.565 59.938, 148.162 58.456, 146.831 58.203 C 145.353 57.921, 145.121 59.413, 144.809 71.192 M 182.358 74.750 C 182.699 76.813, 182.983 80.693, 182.989 83.372 C 182.999 87.590, 183.202 88.077, 184.500 87 C 185.518 86.155, 186 83.891, 186 79.959 C 186 73.143, 185.345 71, 183.262 71 C 182.058 71, 181.868 71.786, 182.358 74.750" stroke="none" fill="#3467df" fill-rule="evenodd"/>
</svg>