<svg xmlns="http://www.w3.org/2000/svg" width="236" height="100" viewBox="0 0 236 100" version="1.1">
	<rect x="0" y="0" width="100%" height="100%" fill="#bfbfbf" />
	<path d="M 0.086 7.878 L 0.276 15.756 5.857 15.424 C 8.927 15.240, 11.714 15.538, 12.052 16.084 C 12.457 16.739, 13.548 16.742, 15.256 16.093 C 17.989 15.054, 19.057 15.731, 20.338 19.313 C 20.694 20.311, 21.391 20.876, 21.887 20.570 C 22.949 19.913, 26 27.072, 26 30.220 C 26 33.043, 27.713 31.349, 28.165 28.078 C 28.596 24.965, 30.565 24.319, 31.919 26.848 C 32.740 28.382, 32.406 30.109, 30.407 34.659 C 26.163 44.318, 25.556 45.466, 24.252 46.300 C 23.563 46.740, 23 47.925, 23 48.935 C 23 52.801, 19.564 61.150, 16.493 64.746 C 11.970 70.043, 8.757 82, 11.857 82 C 12.211 82, 12.582 83.575, 12.683 85.500 C 12.952 90.621, 13.251 91.963, 14.019 91.488 C 14.397 91.255, 15.559 91.688, 16.602 92.451 C 18.250 93.656, 18.346 94.244, 17.337 96.919 C 16.300 99.667, 16.373 100, 18.017 100 C 19.131 100, 20.036 99.110, 20.303 97.750 L 20.746 95.500 21.490 97.750 L 22.233 100 56.247 100 L 90.262 100 89.693 96.498 C 89.167 93.253, 89.270 93.074, 91.100 94.054 C 92.187 94.635, 93.959 94.831, 95.038 94.488 C 96.697 93.961, 97 94.340, 97 96.939 L 97 100.014 166.498 99.757 L 235.996 99.500 236.251 49.750 L 236.506 0 118.201 0 L -0.104 0 0.086 7.878 M 0.193 7.250 C 0.038 12.669, 0.296 14, 1.500 14 C 2.325 14, 3 13.523, 3 12.941 C 3 12.359, 2.572 12.147, 2.048 12.470 C 1.498 12.810, 0.947 10.414, 0.741 6.779 L 0.385 0.500 0.193 7.250 M 26 4.882 C 26 5.432, 26.450 6.160, 27 6.500 C 27.550 6.840, 28 6.668, 28 6.118 C 28 5.568, 27.550 4.840, 27 4.500 C 26.450 4.160, 26 4.332, 26 4.882 M 46.500 5.279 C 45.400 5.918, 42.755 7.511, 40.621 8.819 C 37.892 10.494, 35.892 11.028, 33.871 10.624 C 31.255 10.101, 31 10.299, 31 12.859 C 31 15.140, 32.040 16.384, 36.534 19.479 C 41.843 23.136, 42.124 23.213, 43.452 21.396 C 44.767 19.598, 44.873 19.645, 45.546 22.328 C 46.161 24.779, 46.602 25.066, 48.878 24.497 C 50.320 24.136, 51.861 23.199, 52.303 22.415 C 53.948 19.493, 58.152 15.535, 58.584 16.500 C 60.248 20.210, 60.926 20.525, 62.487 18.309 C 63.507 16.862, 65.563 15.888, 68.543 15.441 C 71.376 15.016, 73.417 14.089, 74.028 12.948 C 75.480 10.234, 75.294 10, 71.674 10 C 69.420 10, 67.592 10.805, 66 12.500 C 64.708 13.875, 62.605 15, 61.326 15 C 59.459 15, 58.997 14.457, 58.985 12.250 C 58.970 9.548, 57.047 5.155, 57.015 7.750 C 57.007 8.438, 56.334 9, 55.519 9 C 54.705 9, 53.753 10.137, 53.404 11.527 C 52.930 13.416, 52.452 13.790, 51.512 13.010 C 49.987 11.745, 46.755 12.796, 47.318 14.373 C 47.539 14.993, 48.716 15.387, 49.934 15.249 C 51.534 15.067, 52.057 15.460, 51.824 16.666 C 51.358 19.065, 49.843 19.216, 47.133 17.134 C 45.382 15.788, 44.944 14.752, 45.450 13.157 C 45.827 11.971, 46.615 11, 47.203 11 C 48.430 11, 52.377 6.826, 52.750 5.135 C 53.071 3.678, 49.099 3.770, 46.500 5.279 M 84.897 6.879 C 83.465 8.321, 81.972 10.513, 81.579 11.751 C 81.187 12.988, 80.221 14, 79.433 14 C 77.494 14, 77.611 15.914, 79.596 16.675 C 80.776 17.128, 81.035 18.075, 80.589 20.307 C 80.178 22.358, 80.497 23.892, 81.584 25.093 C 83.073 26.738, 82.909 27.032, 79.192 29.379 C 76.997 30.765, 75.013 32.461, 74.784 33.149 C 74.551 33.848, 72.742 34.400, 70.683 34.400 C 68.657 34.400, 67 34.760, 67 35.200 C 67 35.640, 66.406 36, 65.680 36 C 64.955 36, 63.336 37.178, 62.085 38.618 C 60.395 40.561, 59.941 42.042, 60.323 44.368 C 60.606 46.090, 60.986 48.400, 61.169 49.500 C 61.436 51.114, 60.921 51.517, 58.500 51.591 C 54.687 51.706, 51 52.963, 51 54.149 C 51 55.315, 53.777 62, 54.262 62 C 54.462 62, 57.072 60.809, 60.063 59.353 C 68.318 55.335, 76.809 52.977, 79.431 53.974 C 82.483 55.134, 83.506 54.128, 83.469 50 C 83.452 48.075, 83.633 45.884, 83.872 45.131 C 84.560 42.959, 88.992 51.100, 88.973 54.500 L 88.956 57.500 87.074 55.052 L 85.193 52.605 84.526 58.552 C 84.160 61.824, 83.382 65.749, 82.798 67.276 C 81.942 69.513, 82.063 70.412, 83.422 71.914 C 84.349 72.938, 85.127 74.839, 85.151 76.138 C 85.252 81.713, 85.945 83.004, 88.769 82.884 C 90.875 82.795, 91.042 82.654, 89.500 82.268 C 87.293 81.717, 86.039 80.227, 86.015 78.128 C 86.003 77.035, 86.457 77.081, 88.250 78.358 C 89.487 79.238, 92.638 81.075, 95.250 82.438 C 100.300 85.074, 101.322 84.339, 98.900 79.814 C 98.101 78.319, 98.101 77.944, 98.900 78.438 C 100.711 79.558, 100.324 67.513, 98.500 66 C 97.675 65.315, 97 64.336, 97 63.823 C 97 63.311, 95.652 61.453, 94.005 59.696 C 92.357 57.938, 91.007 55.712, 91.005 54.750 C 90.999 52.617, 93.762 52.506, 96.441 54.532 C 97.509 55.339, 98.746 56, 99.191 56 C 100.628 56, 100.049 45.696, 98.364 41.283 C 96.994 37.695, 96.288 37, 94.019 37 C 92.529 37, 90.495 36.100, 89.500 35 C 88.505 33.900, 87.034 33, 86.231 33 C 85.063 33, 84.911 32.077, 85.470 28.353 C 85.853 25.797, 86.680 22.883, 87.308 21.878 C 88.174 20.491, 88.154 19.754, 87.225 18.825 C 85.042 16.642, 85.763 10.435, 88.589 7.077 C 90.842 4.399, 90.939 4.017, 89.339 4.129 C 88.328 4.199, 86.328 5.437, 84.897 6.879 M 94.762 4.707 C 96.006 4.946, 97.806 4.937, 98.762 4.687 C 99.718 4.437, 98.700 4.241, 96.500 4.252 C 94.300 4.263, 93.518 4.468, 94.762 4.707 M 76.607 7.582 C 75.733 9.859, 75.804 10, 77.833 10 C 80.374 10, 81.190 8.934, 79.869 7.342 C 78.398 5.570, 77.350 5.647, 76.607 7.582 M 90.763 11.212 C 90.540 11.879, 90.541 13.380, 90.764 14.547 C 91.166 16.648, 91.200 16.644, 94.034 14.157 C 95.609 12.775, 96.669 11.274, 96.390 10.822 C 95.603 9.549, 91.216 9.853, 90.763 11.212 M 75.500 13 C 75.840 13.550, 76.316 14, 76.559 14 C 76.802 14, 77 13.550, 77 13 C 77 12.450, 76.523 12, 75.941 12 C 75.359 12, 75.160 12.450, 75.500 13 M 111.267 16.250 C 111.538 18.038, 111.349 20.288, 110.845 21.250 C 109.524 23.775, 112.176 23.549, 113.768 21 C 114.455 19.900, 115.463 19, 116.008 19 C 116.554 19, 117 19.900, 117 21 C 117 22.100, 117.450 23, 118 23 C 118.550 23, 119 20.750, 119 18 L 119 13 114.887 13 C 110.811 13, 110.778 13.030, 111.267 16.250 M 113.500 15 C 112.663 16.354, 113.792 18, 115.559 18 C 116.352 18, 117 17.100, 117 16 C 117 13.930, 114.587 13.240, 113.500 15 M 74.813 15.683 C 75.534 15.972, 76.397 15.936, 76.729 15.604 C 77.061 15.272, 76.471 15.036, 75.417 15.079 C 74.252 15.127, 74.015 15.364, 74.813 15.683 M 129 19.438 C 129 22.378, 129.326 22.855, 131.250 22.736 C 132.488 22.659, 133.831 22.124, 134.235 21.548 C 134.715 20.862, 134.975 20.932, 134.985 21.750 C 134.993 22.438, 135.450 23, 136 23 C 136.550 23, 137 21.425, 137 19.500 C 137 15.694, 135.504 14.968, 133.392 17.750 C 132.127 19.417, 132.062 19.417, 132.032 17.750 C 132.014 16.788, 131.325 16, 130.500 16 C 129.458 16, 129 17.049, 129 19.438 M 139 17.107 C 139 17.716, 139.661 17.960, 140.468 17.651 C 141.275 17.341, 142.182 17.486, 142.483 17.972 C 142.784 18.459, 142.010 19.002, 140.765 19.179 C 137.217 19.682, 137.967 22.449, 141.750 22.813 C 144.778 23.105, 145 22.917, 145 20.063 C 145 18.007, 145.493 17, 146.500 17 C 147.500 17, 148 18, 148 20 C 148 21.650, 148.450 23, 149 23 C 149.550 23, 150 21.650, 150 20 C 150 18.350, 150.450 17, 151 17 C 151.550 17, 152 18.350, 152 20 C 152 22.762, 152.278 23, 155.500 23 C 158.333 23, 159 22.619, 159 21 C 159 19.667, 158.333 19, 157 19 C 155.889 19, 155 18.333, 155 17.500 C 155 16.292, 153.444 16, 147 16 C 141.818 16, 139 16.390, 139 17.107 M 62.607 21.582 C 61.548 24.341, 61.910 25.320, 63.500 24 C 64.650 23.045, 65.329 23.028, 66.411 23.926 C 68.313 25.505, 69.611 23.441, 67.964 21.456 C 66.364 19.529, 63.368 19.600, 62.607 21.582 M 155 21 C 155 21.550, 155.450 22, 156 22 C 156.550 22, 157 21.550, 157 21 C 157 20.450, 156.550 20, 156 20 C 155.450 20, 155 20.450, 155 21 M 75 23.059 C 75 23.641, 75.450 23.840, 76 23.500 C 76.550 23.160, 77 22.684, 77 22.441 C 77 22.198, 76.550 22, 76 22 C 75.450 22, 75 22.477, 75 23.059 M 121 23.500 C 121 24.325, 121.450 25, 122 25 C 122.550 25, 123 24.325, 123 23.500 C 123 22.675, 122.550 22, 122 22 C 121.450 22, 121 22.675, 121 23.500 M 71.725 28.149 C 69.258 33.243, 71.590 35.081, 74.631 30.440 C 76.122 28.164, 76.142 27.713, 74.808 26.380 C 73.475 25.046, 73.132 25.243, 71.725 28.149 M 67 27 C 67 27.550, 67 28.225, 67 28.500 C 67 29.742, 68.399 28.891, 68.599 27.527 C 68.722 26.687, 68.413 26, 67.912 26 C 67.410 26, 67 26.450, 67 27 M 29.015 30.750 C 29.027 32.893, 29.245 33.169, 30 32 C 31.264 30.043, 31.264 28, 30 28 C 29.450 28, 29.007 29.238, 29.015 30.750 M 10.465 29.678 C 9.345 29.900, 7.849 31.012, 7.140 32.147 C 6.030 33.926, 6.133 34.475, 7.883 36.106 C 9.695 37.793, 13.303 38.969, 11.675 37.342 C 10.245 35.912, 13.238 34.098, 16.087 34.667 C 18.348 35.120, 19 34.886, 19 33.625 C 19 32.627, 18.131 31.973, 16.750 31.930 C 14.689 31.865, 14.662 31.796, 16.427 31.105 C 18.215 30.404, 18.227 30.301, 16.595 29.675 C 14.785 28.980, 13.964 28.981, 10.465 29.678 M 110 36.500 C 110 41.124, 112.708 41.331, 113.277 36.750 L 113.680 33.500 113.840 36.750 C 114.071 41.446, 117 41.214, 117 36.500 C 117 33.167, 116.833 33, 113.500 33 C 110.167 33, 110 33.167, 110 36.500 M 118.384 34.442 C 116.691 38.853, 121.951 42.156, 124.694 38.404 C 125.883 36.778, 126 36.769, 126 38.309 C 126 39.446, 126.819 40, 128.500 40 C 129.875 40, 131 39.502, 131 38.893 C 131 38.284, 130.325 38.045, 129.500 38.362 C 128.420 38.776, 128 38.256, 128 36.500 C 128 34.744, 128.420 34.224, 129.500 34.638 C 130.325 34.955, 131 34.716, 131 34.107 C 131 33.498, 129.875 33, 128.500 33 C 126.797 33, 125.990 33.558, 125.970 34.750 C 125.941 36.417, 125.891 36.417, 124.920 34.750 C 123.690 32.639, 119.158 32.425, 118.384 34.442 M 133.250 33.689 C 134.414 33.993, 135 35.127, 135 37.073 C 135 38.683, 135.450 40, 136 40 C 136.550 40, 137 38.688, 137 37.083 C 137 35.479, 137.563 33.940, 138.250 33.662 C 138.938 33.385, 137.700 33.175, 135.500 33.195 C 133.300 33.215, 132.287 33.438, 133.250 33.689 M 140 38 C 140 40.750, 140.450 43, 141 43 C 141.550 43, 142 42.325, 142 41.500 C 142 40.675, 142.653 40, 143.450 40 C 144.248 40, 145.335 39.224, 145.866 38.276 C 147.247 35.807, 145.437 33, 142.465 33 C 140.174 33, 140 33.352, 140 38 M 148 34.107 C 148 34.716, 148.661 34.960, 149.468 34.651 C 150.275 34.341, 151.182 34.486, 151.483 34.972 C 151.784 35.459, 151.010 36.002, 149.765 36.179 C 146.217 36.682, 146.967 39.449, 150.750 39.813 C 152.537 39.986, 154 40.548, 154 41.063 C 154 41.579, 154.675 42, 155.500 42 C 156.325 42, 157 41.550, 157 41 C 157 39.551, 160.751 39.770, 161.280 41.250 C 162.204 43.837, 162.850 41.301, 162.304 37.231 C 161.787 33.372, 161.485 33, 158.868 33 C 156.494 33, 156 33.420, 156 35.441 C 156 36.784, 155.550 38.160, 155 38.500 C 154.417 38.861, 154 37.844, 154 36.059 C 154 33.327, 153.680 33, 151 33 C 149.350 33, 148 33.498, 148 34.107 M 164 34.107 C 164 34.716, 164.661 34.960, 165.468 34.651 C 166.275 34.341, 167.182 34.486, 167.483 34.972 C 167.784 35.459, 167.010 36.002, 165.765 36.179 C 162.217 36.682, 162.967 39.449, 166.750 39.813 C 169.867 40.114, 170 39.981, 170 36.563 C 170 33.271, 169.772 33, 167 33 C 165.350 33, 164 33.498, 164 34.107 M 171 36.437 C 171 39.854, 171.146 40, 174.563 40 C 177.981 40, 178.114 39.867, 177.813 36.750 C 177.538 33.892, 177.108 33.462, 174.250 33.187 C 171.133 32.886, 171 33.019, 171 36.437 M 179 36.500 L 179 40 184 40 L 189 40 189 36.500 C 189 34.575, 188.550 33, 188 33 C 187.450 33, 187 34.350, 187 36 C 187 37.650, 186.550 39, 186 39 C 185.450 39, 185 37.650, 185 36 C 185 34.350, 184.550 33, 184 33 C 183.450 33, 183 34.350, 183 36 C 183 37.650, 182.550 39, 182 39 C 181.450 39, 181 37.650, 181 36 C 181 34.350, 180.550 33, 180 33 C 179.450 33, 179 34.575, 179 36.500 M 190.410 34.375 C 188.838 38.469, 193.490 42.042, 196.365 38.949 C 197.242 38.006, 196.988 37.851, 195.251 38.270 C 194.014 38.568, 192.750 38.404, 192.442 37.906 C 192.134 37.408, 193.067 37, 194.514 37 C 196.481 37, 197.063 36.558, 196.815 35.250 C 196.383 32.973, 191.218 32.268, 190.410 34.375 M 198 36.524 C 198 38.436, 198.450 40, 199 40 C 199.550 40, 200 38.650, 200 37 C 200 33.120, 202.741 32.905, 203.184 36.750 C 203.450 39.069, 203.971 39.500, 206.500 39.500 C 209.167 39.500, 209.500 39.167, 209.500 36.500 C 209.500 33.541, 209.422 33.497, 203.750 33.274 L 198 33.048 198 36.524 M 120.400 35.400 C 120.034 36.354, 120.229 37.629, 120.834 38.234 C 121.634 39.034, 122.116 38.861, 122.600 37.600 C 122.966 36.646, 122.771 35.371, 122.166 34.766 C 121.366 33.966, 120.884 34.139, 120.400 35.400 M 158 36.500 C 158 37.875, 158.450 39, 159 39 C 159.550 39, 160 37.875, 160 36.500 C 160 35.125, 159.550 34, 159 34 C 158.450 34, 158 35.125, 158 36.500 M 192.500 35 C 192.160 35.550, 192.610 36, 193.500 36 C 194.390 36, 194.840 35.550, 194.500 35 C 194.160 34.450, 193.710 34, 193.500 34 C 193.290 34, 192.840 34.450, 192.500 35 M 205.400 35.400 C 205.034 36.354, 205.229 37.629, 205.834 38.234 C 206.634 39.034, 207.116 38.861, 207.600 37.600 C 207.966 36.646, 207.771 35.371, 207.166 34.766 C 206.366 33.966, 205.884 34.139, 205.400 35.400 M 142 36.500 C 142 37.325, 142.450 38, 143 38 C 143.550 38, 144 37.325, 144 36.500 C 144 35.675, 143.550 35, 143 35 C 142.450 35, 142 35.675, 142 36.500 M 174 38 C 174 38.550, 174.450 39, 175 39 C 175.550 39, 176 38.550, 176 38 C 176 37.450, 175.550 37, 175 37 C 174.450 37, 174 37.450, 174 38 M 126.398 48.405 C 126.102 49.177, 126.003 51.315, 126.180 53.155 C 126.448 55.953, 126.944 56.551, 129.215 56.813 C 131.404 57.065, 132.052 56.640, 132.559 54.620 C 133.354 51.452, 132.468 50, 129.741 50 C 127.252 50, 128.447 48.448, 131.500 47.713 C 132.783 47.404, 132.324 47.190, 130.219 47.116 C 128.236 47.046, 126.724 47.556, 126.398 48.405 M 136.269 48.693 C 137.242 48.947, 138.592 48.930, 139.269 48.656 C 139.946 48.382, 139.150 48.175, 137.500 48.195 C 135.850 48.215, 135.296 48.439, 136.269 48.693 M 110 54.937 C 110 58.771, 110.364 60, 111.500 60 C 112.325 60, 113 59.377, 113 58.617 C 113 57.856, 113.933 56.989, 115.074 56.691 C 116.666 56.275, 117.072 55.493, 116.824 53.324 C 116.552 50.951, 115.981 50.450, 113.250 50.187 L 110 49.873 110 54.937 M 118.410 51.375 C 116.838 55.469, 121.490 59.042, 124.365 55.949 C 125.242 55.006, 124.988 54.851, 123.251 55.270 C 122.014 55.568, 120.750 55.404, 120.442 54.906 C 120.134 54.408, 121.067 54, 122.514 54 C 124.481 54, 125.063 53.558, 124.815 52.250 C 124.383 49.973, 119.218 49.268, 118.410 51.375 M 134.384 51.442 C 132.835 55.478, 137.521 59.009, 140.365 55.949 C 141.242 55.006, 140.988 54.851, 139.251 55.270 C 138.014 55.568, 136.750 55.404, 136.442 54.906 C 136.134 54.408, 137.082 54, 138.548 54 C 140.568 54, 141.067 53.617, 140.607 52.418 C 140.273 51.548, 140 50.648, 140 50.418 C 140 49.263, 134.861 50.200, 134.384 51.442 M 142 53.500 C 142 55.425, 142.450 57, 143 57 C 143.550 57, 144 56.325, 144 55.500 C 144 54.675, 144.450 54, 145 54 C 145.550 54, 146 54.675, 146 55.500 C 146 56.325, 146.450 57, 147 57 C 147.550 57, 148 55.425, 148 53.500 C 148 51.575, 147.550 50, 147 50 C 146.450 50, 146 50.675, 146 51.500 C 146 52.325, 145.550 53, 145 53 C 144.450 53, 144 52.325, 144 51.500 C 144 50.675, 143.550 50, 143 50 C 142.450 50, 142 51.575, 142 53.500 M 150 53.639 C 150 56.956, 151.357 58.181, 152.338 55.750 C 152.741 54.750, 152.858 54.750, 152.921 55.750 C 152.973 56.575, 154.721 57, 158.063 57 L 163.127 57 162.813 53.750 L 162.500 50.500 156.250 50.389 L 150 50.278 150 53.639 M 113 53.500 C 113 54.991, 113.431 55.852, 114 55.500 C 114.550 55.160, 115 54.260, 115 53.500 C 115 52.740, 114.550 51.840, 114 51.500 C 113.431 51.148, 113 52.009, 113 53.500 M 120.500 52 C 120.160 52.550, 120.610 53, 121.500 53 C 122.390 53, 122.840 52.550, 122.500 52 C 122.160 51.450, 121.710 51, 121.500 51 C 121.290 51, 120.840 51.450, 120.500 52 M 128.400 52.400 C 128.034 53.354, 128.229 54.629, 128.834 55.234 C 129.634 56.034, 130.116 55.861, 130.600 54.600 C 130.966 53.646, 130.771 52.371, 130.166 51.766 C 129.366 50.966, 128.884 51.139, 128.400 52.400 M 136.500 52 C 136.160 52.550, 136.610 53, 137.500 53 C 138.390 53, 138.840 52.550, 138.500 52 C 138.160 51.450, 137.710 51, 137.500 51 C 137.290 51, 136.840 51.450, 136.500 52 M 154 53.057 C 154 55.431, 155.625 56.419, 156.364 54.494 C 156.679 53.672, 157.926 53, 159.135 53 C 162.317 53, 160.590 51.751, 157.021 51.470 C 154.677 51.286, 154 51.641, 154 53.057 M 169.750 53.706 C 170.988 53.944, 173.012 53.944, 174.250 53.706 C 175.488 53.467, 174.475 53.272, 172 53.272 C 169.525 53.272, 168.512 53.467, 169.750 53.706 M 159 55 C 158.099 55.582, 157.975 55.975, 158.691 55.985 C 159.346 55.993, 160.160 55.550, 160.500 55 C 161.267 53.758, 160.921 53.758, 159 55 M 1.322 60.288 C 0.488 61.638, 1.175 61.721, 7 60.981 C 10.025 60.596, 12.275 60.160, 12 60.010 C 10.708 59.310, 1.783 59.542, 1.322 60.288 M 1 65.059 C 1 65.641, 1.450 65.840, 2 65.500 C 2.550 65.160, 3 64.684, 3 64.441 C 3 64.198, 2.550 64, 2 64 C 1.450 64, 1 64.477, 1 65.059 M 110 70.500 C 110 73.989, 110.123 74.115, 113.250 73.813 C 116.125 73.536, 116.500 73.154, 116.500 70.500 C 116.500 67.846, 116.125 67.464, 113.250 67.187 C 110.123 66.885, 110 67.011, 110 70.500 M 122 70.500 C 122 72.944, 122.452 74, 123.500 74 C 124.325 74, 125.007 73.438, 125.015 72.750 C 125.027 71.761, 125.195 71.758, 125.816 72.737 C 126.292 73.487, 128.453 73.893, 131.301 73.770 C 136.168 73.558, 136.757 73.157, 134.913 71.313 C 134.130 70.530, 134.130 70.038, 134.913 69.554 C 136.897 68.328, 136.040 67.333, 133 67.333 C 129.834 67.333, 129.329 67.929, 131.042 69.642 C 131.766 70.366, 131.612 71.077, 130.542 71.965 C 129.209 73.072, 129 72.823, 129 70.122 C 129 66.621, 126.774 65.842, 125.080 68.750 C 124.109 70.417, 124.059 70.417, 124.030 68.750 C 124.014 67.787, 123.550 67, 123 67 C 122.450 67, 122 68.575, 122 70.500 M 142 70.500 C 142 72.425, 142.450 74, 143 74 C 143.550 74, 144 72.650, 144 71 C 144 69.350, 144.450 68, 145 68 C 145.550 68, 146 69.350, 146 71 C 146 72.650, 146.450 74, 147 74 C 147.550 74, 148 72.425, 148 70.500 C 148 67.278, 147.762 67, 145 67 C 142.238 67, 142 67.278, 142 70.500 M 149.410 68.375 C 148.211 71.498, 149.424 73.500, 152.514 73.500 C 155.165 73.500, 155.500 73.164, 155.500 70.500 C 155.500 67.969, 155.069 67.450, 152.744 67.183 C 150.986 66.981, 149.779 67.412, 149.410 68.375 M 157 70.500 C 157 72.425, 157.450 74, 158 74 C 158.550 74, 159 73.325, 159 72.500 C 159 71.675, 159.450 71, 160 71 C 160.550 71, 161 71.675, 161 72.500 C 161 73.325, 161.675 74, 162.500 74 C 163.548 74, 164 72.944, 164 70.500 C 164 68.056, 163.548 67, 162.500 67 C 161.675 67, 161 67.675, 161 68.500 C 161 69.325, 160.550 70, 160 70 C 159.450 70, 159 69.325, 159 68.500 C 159 67.675, 158.550 67, 158 67 C 157.450 67, 157 68.575, 157 70.500 M 165 70.500 C 165 74.164, 165.788 74.812, 167.800 72.800 C 168.733 71.867, 169 71.867, 169 72.800 C 169 73.460, 169.450 74, 170 74 C 170.550 74, 171 72.425, 171 70.500 C 171 66.719, 169.713 65.947, 168.080 68.750 C 167.109 70.417, 167.059 70.417, 167.030 68.750 C 167.014 67.787, 166.550 67, 166 67 C 165.450 67, 165 68.575, 165 70.500 M 173 70.438 C 173 73.378, 173.326 73.855, 175.250 73.736 C 176.488 73.659, 177.831 73.124, 178.235 72.548 C 178.715 71.862, 178.975 71.932, 178.985 72.750 C 178.993 73.438, 179.450 74, 180 74 C 180.550 74, 181 72.425, 181 70.500 C 181 66.694, 179.504 65.968, 177.392 68.750 C 176.127 70.417, 176.062 70.417, 176.032 68.750 C 176.014 67.787, 175.325 67, 174.500 67 C 173.458 67, 173 68.049, 173 70.438 M 182.438 68.100 C 181.906 68.962, 182.314 69.151, 183.843 68.751 C 185.028 68.441, 186.230 68.563, 186.514 69.022 C 186.798 69.481, 186.015 70.002, 184.775 70.179 C 183.535 70.355, 182.370 71.287, 182.187 72.250 C 181.919 73.657, 182.566 74, 185.490 74 C 188.991 74, 189.115 73.878, 188.813 70.750 C 188.555 68.074, 188.031 67.446, 185.844 67.193 C 184.384 67.024, 182.851 67.432, 182.438 68.100 M 190 70.500 C 190 72.944, 190.452 74, 191.500 74 C 192.325 74, 193 73.325, 193 72.500 C 193 71.675, 193.450 71, 194 71 C 194.550 71, 195 71.675, 195 72.500 C 195 73.325, 195.450 74, 196 74 C 196.550 74, 197 72.425, 197 70.500 C 197 68.575, 196.550 67, 196 67 C 195.450 67, 195 67.675, 195 68.500 C 195 69.325, 194.550 70, 194 70 C 193.450 70, 193 69.325, 193 68.500 C 193 67.675, 192.325 67, 191.500 67 C 190.452 67, 190 68.056, 190 70.500 M 198 70.500 C 198 73.993, 200.230 75.496, 201.338 72.750 C 201.741 71.750, 201.858 71.750, 201.921 72.750 C 201.964 73.438, 202.675 74, 203.500 74 C 204.548 74, 205 72.944, 205 70.500 C 205 66.644, 202.863 65.690, 201.080 68.750 C 200.109 70.417, 200.059 70.417, 200.030 68.750 C 200.014 67.787, 199.550 67, 199 67 C 198.450 67, 198 68.575, 198 70.500 M 206 70.500 C 206 73.993, 208.230 75.496, 209.338 72.750 C 209.741 71.750, 209.858 71.750, 209.921 72.750 C 209.964 73.438, 210.675 74, 211.500 74 C 212.548 74, 213 72.944, 213 70.500 C 213 66.644, 210.863 65.690, 209.080 68.750 C 208.109 70.417, 208.059 70.417, 208.030 68.750 C 208.014 67.787, 207.550 67, 207 67 C 206.450 67, 206 68.575, 206 70.500 M 151.400 69.400 C 151.034 70.354, 151.229 71.629, 151.834 72.234 C 152.634 73.034, 153.116 72.861, 153.600 71.600 C 153.966 70.646, 153.771 69.371, 153.166 68.766 C 152.366 67.966, 151.884 68.139, 151.400 69.400 M 95 71.941 C 95 73.073, 95.450 74, 96 74 C 96.550 74, 97 73.352, 97 72.559 C 97 71.766, 96.550 70.840, 96 70.500 C 95.450 70.160, 95 70.809, 95 71.941 M 185 72 C 184.099 72.582, 183.975 72.975, 184.691 72.985 C 185.346 72.993, 186.160 72.550, 186.500 72 C 187.267 70.758, 186.921 70.758, 185 72 M 87.010 75.512 C 87.783 76.443, 88.695 76.687, 89.383 76.147 C 89.997 75.664, 91.175 75.019, 92 74.713 C 92.825 74.408, 91.757 74.122, 89.628 74.079 C 86.281 74.011, 85.925 74.205, 87.010 75.512 M 12.079 79.583 C 12.127 80.748, 12.364 80.985, 12.683 80.188 C 12.972 79.466, 12.936 78.603, 12.604 78.271 C 12.272 77.939, 12.036 78.529, 12.079 79.583 M 86 84.859 C 86 86.877, 87.257 89, 88.452 89 C 89.133 89, 90.505 89.900, 91.500 91 C 92.623 92.241, 94.580 93, 96.655 93 C 99.805 93, 100 92.798, 100 89.535 C 100 85.701, 97.553 83.630, 93.698 84.199 C 91.738 84.489, 91.852 84.685, 94.750 86.006 C 96.537 86.821, 98 87.879, 98 88.358 C 98 88.836, 96.537 88.933, 94.750 88.573 C 92.963 88.213, 90.713 87.840, 89.750 87.745 C 88.787 87.650, 88 87.019, 88 86.345 C 88 85.670, 87.550 84.840, 87 84.500 C 86.450 84.160, 86 84.322, 86 84.859 M 110 87.500 C 110 90.981, 110.024 91, 114.500 91 C 118.976 91, 119 90.981, 119 87.500 C 119 83.457, 116.458 82.588, 115.131 86.176 L 114.325 88.353 113.756 86.176 C 112.792 82.490, 110 83.474, 110 87.500 M 120 85.067 C 120 85.680, 120.853 85.864, 122 85.500 C 123.100 85.151, 124 85.293, 124 85.816 C 124 86.339, 123.100 87.002, 122 87.290 C 118.566 88.188, 119.550 91, 123.299 91 C 126.481 91, 126.584 90.875, 126.190 87.500 C 125.828 84.401, 125.450 84, 122.891 84 C 121.301 84, 120 84.480, 120 85.067 M 128 89 C 128 91.750, 128.450 94, 129 94 C 129.550 94, 130 93.325, 130 92.500 C 130 91.675, 130.852 91, 131.893 91 C 134.084 91, 135.308 88.545, 134.455 85.859 C 134.057 84.604, 132.913 84, 130.933 84 C 128.080 84, 128 84.137, 128 89 M 136 87.500 C 136 89.425, 136.450 91, 137 91 C 137.550 91, 138 89.650, 138 88 C 138 86, 138.500 85, 139.500 85 C 140.500 85, 141 86, 141 88 C 141 91.050, 143.322 92.267, 144.338 89.750 C 144.741 88.750, 144.858 88.750, 144.921 89.750 C 144.964 90.438, 145.675 91, 146.500 91 C 147.548 91, 148 89.944, 148 87.500 C 148 83.644, 145.863 82.690, 144.080 85.750 C 143.109 87.417, 143.059 87.417, 143.030 85.750 C 143.007 84.422, 142.155 84, 139.500 84 C 136.167 84, 136 84.167, 136 87.500 M 149 87.500 C 149 89.425, 149.450 91, 150 91 C 150.550 91, 151 90.325, 151 89.500 C 151 88.675, 151.450 88, 152 88 C 152.550 88, 153 88.675, 153 89.500 C 153 90.325, 153.675 91, 154.500 91 C 155.548 91, 156 89.944, 156 87.500 C 156 85.056, 155.548 84, 154.500 84 C 153.675 84, 153 84.675, 153 85.500 C 153 86.325, 152.550 87, 152 87 C 151.450 87, 151 86.325, 151 85.500 C 151 84.675, 150.550 84, 150 84 C 149.450 84, 149 85.575, 149 87.500 M 157 85.067 C 157 85.680, 157.853 85.864, 159 85.500 C 160.100 85.151, 161 85.293, 161 85.816 C 161 86.339, 160.100 87.002, 159 87.290 C 157.900 87.577, 157 88.530, 157 89.406 C 157 90.652, 158.092 91, 162 91 C 166.889 91, 167 90.933, 167 88 C 167 86.350, 167.450 85, 168 85 C 168.550 85, 169 86.350, 169 88 C 169 90, 169.500 91, 170.500 91 C 171.548 91, 172 89.944, 172 87.500 C 172 84.167, 171.833 84, 168.500 84 C 165.278 84, 165 84.238, 165 87 C 165 88.650, 164.550 90, 164 90 C 163.450 90, 163 88.650, 163 87 C 163 84.333, 162.667 84, 160 84 C 158.350 84, 157 84.480, 157 85.067 M 130.336 86.567 C 130.005 87.429, 130.244 88.644, 130.867 89.267 C 131.711 90.111, 132 89.711, 132 87.700 C 132 84.691, 131.251 84.182, 130.336 86.567" stroke="none" fill="#3467df" fill-rule="evenodd"/>
</svg>