<svg xmlns="http://www.w3.org/2000/svg" width="60" height="60" viewBox="0 0 60 60" version="1.1">
	<rect x="0" y="0" width="100%" height="100%" fill="#bfbfbf" />
	<path d="M 0 2.985 L 0 5.969 5.750 5.406 C 8.912 5.097, 12.850 4.757, 14.500 4.651 C 16.839 4.500, 17.525 3.967, 17.613 2.229 C 17.723 0.083, 17.398 0, 8.863 0 L 0 0 0 2.985 M 21.700 1.341 C 21.083 2.947, 22.315 5.218, 23.592 4.830 C 25.115 4.367, 31 7.410, 31 8.661 C 31 9.306, 31.563 10.042, 32.250 10.297 C 32.953 10.558, 32.296 11.241, 30.750 11.856 C 29.236 12.459, 28 13.726, 28 14.675 C 28 15.915, 28.305 16.095, 29.084 15.316 C 30.418 13.982, 34 14.791, 34 16.426 C 34 17.081, 33.396 18.444, 32.658 19.453 C 31.371 21.214, 31.253 21.199, 29.782 19.099 C 28.375 17.090, 28.192 17.056, 27.567 18.686 C 27.192 19.663, 27.358 20.619, 27.935 20.812 C 28.658 21.053, 28.665 21.757, 27.957 23.081 C 27.252 24.399, 27.254 25, 27.965 25 C 28.534 25, 29 25.450, 29 26 C 29 26.550, 28.325 27, 27.500 27 C 24.833 27, 25.907 28.988, 29.500 30.701 C 33.874 32.787, 34.105 35.885, 30.428 43.142 L 27.856 48.218 30.071 50.575 C 32.163 52.802, 32.924 52.926, 43.799 52.820 C 53.897 52.722, 55.478 52.934, 56.657 54.545 C 58.653 57.275, 58.318 58, 55.059 58 C 53.441 58, 51.824 58.476, 51.464 59.059 C 51.029 59.763, 52.433 60.014, 55.655 59.809 L 60.500 59.500 60.500 38.832 C 60.500 27.464, 60.165 17.829, 59.756 17.421 C 59.347 17.013, 56.647 17.189, 53.756 17.813 C 50.865 18.437, 46.067 19.251, 43.094 19.623 C 37.729 20.294, 37.694 20.281, 38.450 17.899 C 38.869 16.580, 39.438 12.496, 39.714 8.825 L 40.217 2.150 47.859 1.516 C 59.746 0.530, 59.463 0.241, 46.482 0.116 L 34.463 0 32.713 2.750 L 30.963 5.500 31.590 2.750 C 32.209 0.033, 32.157 -0, 27.215 -0 C 23.956 -0, 22.035 0.467, 21.700 1.341 M 17.661 6.823 C 15.561 9.143, 15.521 14.030, 17.582 16.559 C 18.702 17.934, 19.022 18.039, 18.679 16.921 C 18.412 16.053, 18.601 13.166, 19.098 10.505 C 20.148 4.883, 19.928 4.317, 17.661 6.823 M 21.813 14.683 C 22.534 14.972, 23.397 14.936, 23.729 14.604 C 24.061 14.272, 23.471 14.036, 22.417 14.079 C 21.252 14.127, 21.015 14.364, 21.813 14.683 M 8.250 21.743 L 1 22.088 1 41.044 L 1 60 7.117 60 C 12.741 60, 13.191 59.839, 12.710 58 C 12.114 55.720, 12.332 55.661, 16.704 56.915 C 18.923 57.551, 20.187 57.475, 20.853 56.665 C 22.181 55.047, 22.607 49.792, 21.549 48.079 C 20.902 47.032, 21.077 46.816, 22.218 47.253 C 23.384 47.701, 23.908 46.956, 24.353 44.214 C 24.677 42.217, 24.519 40.321, 24.003 40.002 C 22.625 39.150, 22.555 33.930, 23.877 30.652 C 24.898 28.119, 24.719 27.434, 22.263 24.474 C 20.672 22.557, 18.651 21.198, 17.500 21.271 C 16.400 21.340, 12.238 21.553, 8.250 21.743 M 19.374 52.467 C 19.065 53.274, 19.004 54.511, 19.240 55.217 C 19.476 55.923, 19.906 55.263, 20.196 53.750 C 20.762 50.797, 20.295 50.068, 19.374 52.467 M 20.500 59 C 20.113 59.627, 22.050 59.963, 25.691 59.900 C 30.110 59.824, 30.902 59.609, 29 59 C 25.385 57.842, 21.215 57.842, 20.500 59 M 34 59 C 34 59.550, 36.138 59.947, 38.750 59.882 C 42.990 59.776, 43.178 59.681, 40.500 59 C 36.077 57.874, 34 57.874, 34 59" stroke="none" fill="#3467df" fill-rule="evenodd"/>
</svg>