<svg xmlns="http://www.w3.org/2000/svg" width="147" height="145" viewBox="0 0 147 145" version="1.1">
	<rect x="0" y="0" width="100%" height="100%" fill="#bfbfbf" />
	<path d="M 66.464 2.086 C 50.786 3.277, 35.648 10.354, 23.908 21.981 C -11.095 56.646, -2.055 113.830, 41.906 135.833 C 52.448 141.109, 61.926 143.165, 74 142.793 C 82.333 142.536, 83.483 142.285, 83.361 140.750 C 83.224 139.024, 83.994 138.809, 90.850 138.668 C 92.998 138.623, 93.051 138.510, 91.462 137.348 C 90.454 136.612, 89.046 136.404, 88.112 136.855 C 85.559 138.086, 83.712 137.648, 83.433 135.745 C 83.291 134.780, 83.593 134.249, 84.104 134.564 C 84.615 134.880, 84.731 135.627, 84.362 136.224 C 83.916 136.946, 84.161 137.011, 85.095 136.420 C 85.868 135.931, 86.950 135.520, 87.500 135.506 C 88.050 135.493, 88.407 134.234, 88.294 132.709 C 88.150 130.775, 88.453 130.155, 89.294 130.660 C 90.188 131.197, 90.179 130.987, 89.259 129.850 C 88.576 129.006, 88.351 127.948, 88.759 127.498 C 89.166 127.048, 88.969 126.984, 88.319 127.356 C 87.670 127.728, 86.886 127.625, 86.578 127.126 C 86.270 126.628, 82.301 126.446, 77.759 126.721 C 66.786 127.387, 59.203 125.860, 49.313 120.994 C 26.707 109.871, 14.405 83.599, 20.585 59.644 C 25.150 41.952, 36.961 28.638, 54.500 21.415 C 60.895 18.782, 62.538 18.534, 73.500 18.551 C 82.928 18.566, 86.690 18.997, 91.054 20.564 C 96.305 22.448, 96.615 22.460, 96.742 20.779 C 96.815 19.800, 96.427 19, 95.879 19 C 95.331 19, 95.203 19.520, 95.595 20.155 C 96.041 20.876, 95.869 21.037, 95.138 20.585 C 94.494 20.187, 94.226 19.443, 94.543 18.931 C 94.859 18.419, 94.416 18, 93.559 18 C 92.702 18, 92 18.388, 92 18.861 C 92 19.335, 90.834 19.500, 89.408 19.227 C 87.670 18.895, 87.228 18.477, 88.067 17.958 C 88.756 17.533, 89.967 17.434, 90.760 17.738 C 91.931 18.187, 91.885 17.678, 90.518 15.036 C 89.592 13.245, 89.322 12.081, 89.917 12.449 C 90.576 12.856, 90.994 12.214, 90.985 10.809 C 90.974 9.163, 90.727 8.883, 90.124 9.834 C 89.425 10.937, 89.186 10.928, 88.747 9.784 C 88.385 8.840, 88.987 8.400, 90.638 8.400 C 91.971 8.400, 92.884 8.873, 92.667 9.450 C 90.918 14.123, 90.967 14.912, 93.073 16.039 C 94.560 16.835, 95.028 16.854, 94.562 16.100 C 94.188 15.495, 94.359 15, 94.941 15 C 95.523 15, 96.032 14.213, 96.070 13.250 C 96.131 11.733, 96.242 11.759, 96.902 13.446 C 97.629 15.304, 97.690 15.292, 98.239 13.195 C 98.555 11.986, 98.405 11.249, 97.907 11.558 C 97.408 11.866, 96.993 11.529, 96.985 10.809 C 96.972 9.749, 96.808 9.754, 96.124 10.834 C 95.449 11.898, 95.149 11.831, 94.639 10.502 C 94.288 9.586, 94 8.688, 94 8.507 C 94 8.004, 96.367 8.473, 97.542 9.209 C 98.133 9.579, 98.656 8.922, 98.748 7.693 C 98.838 6.501, 98.594 5.985, 98.206 6.546 C 96.955 8.355, 88.371 6.827, 89.502 4.997 C 90.216 3.842, 89.204 3.317, 84.598 2.452 C 81.423 1.857, 80.864 1.978, 81.547 3.112 C 82.205 4.202, 82.075 4.261, 80.942 3.384 C 78.788 1.717, 75.365 1.410, 66.464 2.086 M 91.577 4.875 C 91.280 5.356, 92.201 5.750, 93.625 5.750 C 95.454 5.750, 95.816 5.498, 94.857 4.890 C 93.117 3.788, 92.251 3.784, 91.577 4.875 M 85.813 6.683 C 86.534 6.972, 87.397 6.936, 87.729 6.604 C 88.061 6.272, 87.471 6.036, 86.417 6.079 C 85.252 6.127, 85.015 6.364, 85.813 6.683 M 92.686 12.092 C 91.969 14.836, 92.601 15.799, 94.120 14.280 C 94.838 13.562, 94.882 12.612, 94.250 11.482 C 93.400 9.963, 93.225 10.030, 92.686 12.092 M 96 16.833 C 96 17.292, 96.655 17.667, 97.456 17.667 C 98.257 17.667, 98.680 17.292, 98.397 16.833 C 98.114 16.375, 97.459 16, 96.941 16 C 96.423 16, 96 16.375, 96 16.833 M 101.500 18 C 100.181 18.567, 100.011 18.878, 101 18.914 C 101.825 18.945, 103.175 18.533, 104 18 C 105.828 16.819, 104.249 16.819, 101.500 18 M 99 23.465 C 99 23.720, 100.013 24.469, 101.250 25.129 C 103.290 26.216, 103.372 26.172, 102.128 24.664 C 100.850 23.115, 99 22.406, 99 23.465 M 71.250 41.716 C 72.763 41.945, 75.237 41.945, 76.750 41.716 C 78.263 41.487, 77.025 41.300, 74 41.300 C 70.975 41.300, 69.737 41.487, 71.250 41.716 M 64.602 43.888 C 63.292 45.335, 62.978 47.142, 63.258 51.638 L 63.622 57.500 63.811 51.307 C 63.968 46.164, 64.377 44.849, 66.223 43.557 C 67.445 42.701, 67.965 42, 67.377 42 C 66.790 42, 65.541 42.849, 64.602 43.888 M 82 43.378 C 82 43.585, 82.787 44.373, 83.750 45.128 C 85.336 46.371, 85.371 46.336, 84.128 44.750 C 82.821 43.084, 82 42.555, 82 43.378 M 70.085 58.398 C 67.874 61.061, 68.003 64.094, 70.431 66.521 C 72.920 69.010, 75.959 68.959, 78.090 66.392 C 79.636 64.529, 77.982 64.624, 75.223 66.557 C 73.851 67.518, 73 67.686, 73 66.998 C 73 66.384, 72.581 66.141, 72.069 66.457 C 70.541 67.402, 69.760 65.092, 70.420 61.577 C 70.972 58.630, 71.324 58.339, 73.769 58.803 C 76.744 59.368, 79.153 61.879, 78.265 63.489 C 77.958 64.045, 78.265 63.986, 78.946 63.357 C 79.927 62.453, 79.829 61.669, 78.478 59.607 C 76.567 56.690, 72.043 56.038, 70.085 58.398 M 57.694 61.639 C 56.418 62.915, 58.194 64, 61.559 64 C 63.951 64, 65 63.543, 65 62.500 C 65 61.467, 63.963 61, 61.667 61 C 59.833 61, 58.046 61.288, 57.694 61.639 M 83 62.458 C 83 63.312, 84.212 63.800, 86.333 63.800 C 88.184 63.800, 89.667 63.287, 89.667 62.647 C 89.667 62.013, 88.167 61.409, 86.333 61.305 C 84.118 61.180, 83 61.567, 83 62.458 M 65.011 68.989 C 63.034 70.966, 62.878 72.050, 63.082 82.320 C 63.205 88.469, 63.702 94.287, 64.188 95.250 C 65.744 98.336, 67 97.128, 67 92.547 C 67 84.509, 70.321 80.849, 76.250 82.354 C 79.710 83.233, 81.350 86.803, 81.103 92.915 C 80.909 97.712, 81.063 98.193, 82.431 97.058 C 83.282 96.351, 83.731 95.374, 83.430 94.887 C 83.129 94.399, 83.261 94, 83.723 94 C 84.186 94, 84.507 88.938, 84.436 82.750 C 84.275 68.677, 84.368 69.268, 82.100 68.053 C 80.650 67.278, 80.060 67.400, 79.611 68.570 C 79.217 69.599, 79.431 69.869, 80.261 69.392 C 80.943 69, 81.148 69.066, 80.717 69.539 C 79.489 70.888, 70.683 69.996, 68.831 68.335 C 67.337 66.994, 66.938 67.062, 65.011 68.989 M 67.872 81.750 C 66.629 83.336, 66.664 83.371, 68.250 82.128 C 69.916 80.821, 70.445 80, 69.622 80 C 69.415 80, 68.627 80.787, 67.872 81.750 M 71.103 86.376 C 69.706 88.059, 69.814 101.985, 71.237 103.750 C 74.251 107.488, 79.265 102.233, 76.900 97.814 C 76.108 96.333, 76.106 95.948, 76.895 96.435 C 78.228 97.259, 78.170 89.385, 76.824 86.750 C 75.755 84.658, 72.695 84.458, 71.103 86.376 M 87.813 125.683 C 88.534 125.972, 89.397 125.936, 89.729 125.604 C 90.061 125.272, 89.471 125.036, 88.417 125.079 C 87.252 125.127, 87.015 125.364, 87.813 125.683 M 97 125.894 C 97 126.386, 98.082 126.724, 99.404 126.644 C 100.726 126.565, 101.600 126.162, 101.345 125.750 C 100.691 124.691, 97 124.814, 97 125.894 M 84.540 129.125 C 84.933 130.363, 84.821 131.008, 84.274 130.669 C 83.757 130.350, 83.333 130.736, 83.333 131.528 C 83.333 132.570, 83.681 132.680, 84.588 131.927 C 85.536 131.140, 85.722 131.348, 85.348 132.776 C 85.039 133.960, 85.373 134.667, 86.243 134.667 C 87.721 134.667, 87.980 130.395, 86.635 128.218 C 85.370 126.171, 83.816 126.844, 84.540 129.125 M 105 133.393 C 105 133.609, 105.698 134.054, 106.552 134.382 C 107.442 134.723, 107.843 134.555, 107.493 133.989 C 106.906 133.038, 105 132.583, 105 133.393 M 78.364 138.745 C 78.775 139.429, 79.976 140.452, 81.033 141.018 C 82.600 141.856, 82.844 141.757, 82.354 140.480 C 82.023 139.619, 81.512 139.154, 81.218 139.448 C 80.925 139.742, 79.994 139.424, 79.150 138.741 C 77.928 137.752, 77.768 137.753, 78.364 138.745 M 89.269 140.693 C 90.242 140.947, 91.592 140.930, 92.269 140.656 C 92.946 140.382, 92.150 140.175, 90.500 140.195 C 88.850 140.215, 88.296 140.439, 89.269 140.693" stroke="none" fill="#3467df" fill-rule="evenodd"/>
</svg>