<svg xmlns="http://www.w3.org/2000/svg" width="30" height="31" viewBox="0 0 30 31" version="1.1">
	<rect x="0" y="0" width="100%" height="100%" fill="#bfbfbf" />
	<path d="M 10.270 4.435 C 0.788 8.697, 1.083 22.630, 10.739 26.664 C 20.785 30.862, 30.862 20.785, 26.664 10.739 C 24.040 4.459, 16.590 1.594, 10.270 4.435 M 14.116 10.784 C 13.463 12.003, 12.045 13, 10.965 13 C 8.885 13, 8.321 14.462, 10 15.500 C 10.550 15.840, 11 17.490, 11 19.166 C 11 21.679, 11.307 22.086, 12.750 21.488 C 14.978 20.563, 16.045 20.574, 18.400 21.545 C 20.050 22.226, 20.215 21.994, 19.659 19.779 C 19.237 18.096, 19.526 16.808, 20.510 15.992 C 22.549 14.300, 22.380 13, 20.122 13 C 19.089 13, 17.582 12.003, 16.773 10.784 L 15.301 8.568 14.116 10.784" stroke="none" fill="#3467df" fill-rule="evenodd"/>
</svg>