<svg xmlns="http://www.w3.org/2000/svg" width="148" height="144" viewBox="0 0 148 144" version="1.1">
	<rect x="0" y="0" width="100%" height="100%" fill="#bfbfbf" />
	<path d="M 62.756 1.021 C 54.951 2.251, 44.011 6.166, 37.165 10.179 C 29.881 14.449, 16.449 27.881, 12.179 35.165 C 4.507 48.254, 0.926 65.476, 2.871 79.928 C 5.205 97.275, 11.161 109.144, 24 122.034 C 30.810 128.872, 34.190 131.395, 41 134.726 C 59.675 143.861, 78.313 145.134, 97.202 138.565 C 128.193 127.787, 148.389 95.136, 143.993 62.918 C 141.619 45.523, 135.384 33.154, 122.596 20.470 C 113.719 11.664, 103 5.511, 91.432 2.578 C 83.630 0.600, 70.091 -0.135, 62.756 1.021 M 60.191 19.025 C 49.880 21.726, 43.576 25.403, 35.400 33.483 C 14.438 54.200, 13.620 86.353, 33.508 107.835 C 61.966 138.573, 111.542 127.948, 125.170 88.190 C 128.401 78.763, 128.401 64.237, 125.170 54.810 C 120.785 42.016, 110.723 29.947, 99.259 23.728 C 92.684 20.161, 80.226 16.985, 73.090 17.055 C 70.016 17.085, 64.211 17.972, 60.191 19.025 M 57.686 52.829 C 49.610 58.268, 42.887 78.067, 45.957 87.369 C 47.982 93.504, 52.705 93.078, 60.303 86.075 C 69.403 77.687, 76.811 77.832, 87.654 86.613 C 93.941 91.704, 96.889 92.556, 99.429 90.015 C 101.130 88.313, 101.488 86.744, 101.432 81.222 C 101.307 68.935, 94.892 54.855, 88.148 52.061 C 85.431 50.936, 84.392 51.061, 79.456 53.107 C 73.911 55.405, 73.799 55.411, 69.175 53.634 C 61.997 50.876, 60.718 50.787, 57.686 52.829 M 56.323 60.250 C 53.484 63.404, 52.897 65.598, 54.067 68.677 C 57.331 77.260, 69 74.979, 69 65.758 C 69 59.075, 60.648 55.446, 56.323 60.250 M 85.570 61.887 C 84.889 62.988, 87.438 65.229, 88.342 64.325 C 88.704 63.963, 89 63.067, 89 62.333 C 89 60.844, 86.422 60.508, 85.570 61.887 M 58.032 63.940 C 56.362 67.061, 58.390 70.206, 61.817 69.810 C 64.158 69.540, 64.500 69.053, 64.500 66 C 64.500 62.947, 64.158 62.460, 61.817 62.190 C 59.927 61.972, 58.809 62.489, 58.032 63.940 M 80.446 67.087 C 79.416 68.755, 81.733 70.667, 83.113 69.287 C 84.267 68.133, 83.545 66, 82 66 C 81.515 66, 80.816 66.489, 80.446 67.087 M 91.177 67.667 C 91.663 70.176, 94 70.520, 94 68.083 C 94 66.855, 93.354 66, 92.427 66 C 91.495 66, 90.985 66.680, 91.177 67.667 M 85.624 72.538 C 85.284 73.423, 85.681 74.324, 86.560 74.661 C 88.517 75.412, 89.409 74.509, 88.655 72.543 C 87.896 70.565, 86.382 70.562, 85.624 72.538" stroke="none" fill="#3467df" fill-rule="evenodd"/>
</svg>