<svg xmlns="http://www.w3.org/2000/svg" width="140" height="89" viewBox="0 0 140 89" version="1.1">
	<rect x="0" y="0" width="100%" height="100%" fill="#bfbfbf" />
	<path d="M 10 11.103 C 8.625 11.634, 6.600 13.290, 5.500 14.784 C 3.628 17.327, 3.487 19.249, 3.297 44.890 C 3.072 75.192, 3.273 76.366, 9.299 80.040 C 12.365 81.910, 14.687 81.993, 64.250 81.996 C 110.554 82, 116 81.835, 116 80.434 C 116 79.030, 110.650 78.892, 64.248 79.097 C 8.665 79.343, 9.418 79.407, 7.071 74.257 C 4.755 69.173, 6.614 63.886, 11.540 61.548 C 14.334 60.222, 22.104 59.972, 65.651 59.802 C 93.618 59.694, 111.550 59.333, 105.500 59 C 99.450 58.667, 95.564 58.306, 96.863 58.198 C 98.891 58.028, 99.164 57.573, 98.787 55 C 98.545 53.350, 98.774 52, 99.296 52 C 99.818 52, 99.685 51.325, 99 50.500 C 98.315 49.675, 97.996 49, 98.291 49 C 98.586 49, 97.966 46.644, 96.914 43.764 C 95.861 40.884, 95 38.414, 95 38.274 C 95 38.134, 95.877 38.770, 96.949 39.688 C 98.021 40.606, 98.669 41.726, 98.390 42.178 C 98.110 42.630, 98.118 43, 98.406 43 C 98.694 43, 99.406 42.110, 99.988 41.023 C 100.828 39.453, 100.630 38.630, 99.023 37.023 C 96.792 34.792, 96.367 31.033, 98.144 29.256 C 99.003 28.397, 98.753 28.252, 97.144 28.673 C 95.194 29.183, 94.556 30.190, 94.882 32.250 C 94.947 32.662, 94.437 32.887, 93.750 32.750 C 93.062 32.612, 92.624 33.096, 92.775 33.824 C 92.926 34.553, 92.649 34.901, 92.158 34.598 C 91.668 34.295, 90.529 34.864, 89.626 35.861 C 88.099 37.548, 88.113 37.793, 89.823 39.340 C 90.835 40.255, 92.035 40.666, 92.491 40.252 C 92.948 39.838, 93.028 40.012, 92.671 40.637 C 92.314 41.262, 92.648 42.293, 93.414 42.928 C 94.477 43.810, 94.949 43.778, 95.414 42.792 C 95.748 42.081, 95.834 42.513, 95.605 43.750 C 95.375 44.988, 95.595 46, 96.094 46 C 97.563 46, 97.129 47.736, 95.503 48.360 C 94.558 48.723, 92.348 47.203, 89.503 44.235 L 85 39.535 85 44.236 C 85 48.004, 84.702 48.823, 83.500 48.362 C 82.308 47.904, 82 45.777, 82 38.010 C 82 28.366, 82.034 28.227, 84.509 27.754 C 86.226 27.425, 86.766 27.625, 86.221 28.387 C 85.783 28.999, 85.301 30.850, 85.151 32.500 L 84.878 35.500 88.824 31.500 C 90.994 29.300, 92.526 27.093, 92.230 26.595 C 91.914 26.065, 92.271 26.053, 93.095 26.567 C 95.476 28.053, 97.197 27.956, 96.589 26.371 C 96.225 25.424, 96.438 25.152, 97.181 25.612 C 97.951 26.087, 98.129 25.780, 97.714 24.696 C 97.369 23.798, 97.478 22.822, 97.956 22.527 C 98.434 22.232, 98.704 23.094, 98.556 24.443 C 98.241 27.311, 100.329 28.514, 102.040 26.452 C 102.693 25.665, 103.695 25.312, 104.268 25.666 C 104.878 26.042, 105.009 25.824, 104.585 25.138 C 104.187 24.494, 103.443 24.226, 102.931 24.543 C 101.562 25.389, 101.797 23.606, 103.250 22.129 C 104.091 21.273, 104.124 20.962, 103.350 21.179 C 102.717 21.355, 102.267 21.050, 102.350 20.500 C 102.432 19.950, 102.842 19.614, 103.261 19.754 C 103.679 19.893, 103.470 19.123, 102.795 18.043 C 102.009 16.785, 101.326 16.472, 100.893 17.174 C 100.340 18.068, 100.431 21.500, 101.007 21.500 C 101.652 21.500, 101.495 26.194, 100.836 26.601 C 100.376 26.886, 100 25.741, 100 24.059 C 100 22.287, 99.474 20.994, 98.750 20.985 C 97.917 20.974, 98 20.646, 99 20 C 100.373 19.113, 99.697 18.555, 97.676 18.906 C 97.222 18.985, 97.141 18.581, 97.495 18.008 C 97.849 17.436, 98.557 17.226, 99.069 17.543 C 99.581 17.859, 100 17.641, 100 17.059 C 100 16.477, 98.800 16, 97.333 16 C 93.732 16, 94.815 15.122, 98.791 14.819 C 100.705 14.673, 101.613 14.213, 101.066 13.666 C 100.566 13.166, 100.389 12.024, 100.672 11.128 C 101.119 9.721, 101.042 9.703, 100.110 11 C 99.421 11.958, 99.025 12.063, 99.015 11.290 C 98.996 9.767, 13.926 9.588, 10 11.103 M 102.079 11.583 C 102.127 12.748, 102.364 12.985, 102.683 12.188 C 102.972 11.466, 102.936 10.603, 102.604 10.271 C 102.272 9.939, 102.036 10.529, 102.079 11.583 M 97.733 13.124 C 98.412 13.808, 99.219 14.115, 99.526 13.807 C 99.834 13.499, 99.279 12.940, 98.293 12.564 C 96.868 12.022, 96.753 12.136, 97.733 13.124 M 123.150 15.250 L 123 19 130.500 19 L 138 19 137.882 15.250 C 137.767 11.617, 137.743 11.594, 137.122 14.500 C 136.769 16.150, 136.147 17.387, 135.740 17.250 C 135.333 17.113, 134.131 17, 133.070 17 C 131.863 17, 130.977 16.157, 130.706 14.750 L 130.272 12.500 130.136 14.750 C 130.028 16.541, 129.402 17, 127.066 17 C 124.634 17, 124.062 16.530, 123.716 14.250 C 123.381 12.038, 123.270 12.234, 123.150 15.250 M 123 23 C 123 23.550, 125.588 24.016, 128.750 24.036 L 134.500 24.073 128.703 29.536 L 122.907 35 130.453 35 C 134.818 35, 138 34.578, 138 34 C 138 33.450, 135.412 32.986, 132.250 32.968 L 126.500 32.936 131.770 28.218 C 134.668 25.623, 137.031 23.163, 137.020 22.750 C 136.989 21.598, 123 21.848, 123 23 M 21 38 L 21 48 25.309 48 C 32.067 48, 35.011 44.502, 32.434 39.535 C 31.393 37.529, 31.302 36.305, 32.084 34.843 C 32.886 33.345, 32.756 32.276, 31.548 30.433 C 30.252 28.455, 29.116 28, 25.477 28 L 21 28 21 38 M 38.923 30.923 C 32.595 37.251, 36.884 48, 45.736 48 C 53.125 48, 57.750 39.506, 54.087 32.662 C 51.222 27.310, 43.430 26.416, 38.923 30.923 M 61.589 31.077 C 58.074 35.254, 58.074 40.746, 61.589 44.923 C 63.727 47.464, 64.913 48, 68.400 48 C 75.610 48, 79.919 42.127, 77.984 34.939 C 76.683 30.110, 73.759 28, 68.366 28 C 64.917 28, 63.721 28.543, 61.589 31.077 M 87.507 29.989 C 87.157 30.555, 87.558 30.723, 88.448 30.382 C 90.180 29.717, 90.497 29, 89.059 29 C 88.541 29, 87.843 29.445, 87.507 29.989 M 24 33.430 C 24 36.256, 24.391 37, 25.878 37 C 26.910 37, 28.347 36.287, 29.070 35.416 C 30.741 33.403, 29.195 30.634, 26.148 30.180 C 24.292 29.904, 24 30.346, 24 33.430 M 41.583 32.113 C 39.332 33.884, 38.945 34.881, 39.198 38.263 C 39.615 43.836, 43.480 46.872, 47.851 45.062 C 53.882 42.563, 54.167 33.155, 48.279 30.916 C 44.963 29.655, 44.633 29.714, 41.583 32.113 M 64.635 32.073 C 62.602 33.671, 62 35.027, 62 38 C 62 40.973, 62.602 42.329, 64.635 43.927 C 68.003 46.577, 69.267 46.534, 72.611 43.658 C 76.346 40.445, 76.346 35.555, 72.611 32.342 C 69.267 29.466, 68.003 29.423, 64.635 32.073 M 101.446 32.087 C 101.077 32.685, 101.341 33.698, 102.034 34.337 C 103.020 35.247, 103.160 35.119, 102.679 33.750 C 102.340 32.788, 102.499 32, 103.031 32 C 103.564 32, 104 32.702, 104 33.559 C 104 34.416, 104.472 34.826, 105.049 34.470 C 105.765 34.027, 105.727 33.376, 104.926 32.411 C 103.524 30.721, 102.358 30.612, 101.446 32.087 M 94.405 35.155 C 94.001 35.808, 94.127 36.040, 94.695 35.689 C 95.247 35.347, 96.292 36.178, 97.018 37.534 C 97.744 38.890, 98.725 40, 99.199 40 C 99.672 40, 99.062 38.650, 97.842 37 C 95.314 33.580, 95.361 33.606, 94.405 35.155 M 107 34.378 C 107 34.585, 107.787 35.373, 108.750 36.128 C 110.336 37.371, 110.371 37.336, 109.128 35.750 C 107.821 34.084, 107 33.555, 107 34.378 M 90.872 37.250 C 92.445 39.255, 94 39.545, 94 37.833 C 94 37.192, 93.704 36.963, 93.342 37.325 C 92.980 37.687, 91.968 37.424, 91.092 36.741 C 89.683 35.643, 89.658 35.702, 90.872 37.250 M 108.500 40 C 109.495 41.100, 110.535 42, 110.810 42 C 111.085 42, 110.495 41.100, 109.500 40 C 108.505 38.900, 107.465 38, 107.190 38 C 106.915 38, 107.505 38.900, 108.500 40 M 24 42.566 C 24 45.837, 24.220 46.107, 26.649 45.816 C 32.195 45.154, 31.950 39, 26.378 39 C 24.319 39, 24 39.478, 24 42.566 M 123 40 C 123 40.578, 126.167 41, 130.500 41 C 134.833 41, 138 40.578, 138 40 C 138 39.422, 134.833 39, 130.500 39 C 126.167 39, 123 39.422, 123 40 M 103.397 41.791 C 103.765 43.717, 103.509 43.979, 101.792 43.434 C 100.430 43.002, 99.977 43.155, 100.434 43.893 C 101.212 45.152, 103.664 45.377, 104.316 44.250 C 104.554 43.837, 104.347 42.600, 103.854 41.500 C 103.041 39.682, 102.999 39.709, 103.397 41.791 M 137 45 C 137 46.810, 136.333 47, 130 47 C 126 47, 123 47.429, 123 48 C 123 48.578, 126.167 49, 130.500 49 L 138 49 138 46 C 138 44.350, 137.775 43, 137.500 43 C 137.225 43, 137 43.900, 137 45 M 88 46.378 C 88 46.585, 88.787 47.373, 89.750 48.128 C 91.336 49.371, 91.371 49.336, 90.128 47.750 C 88.821 46.084, 88 45.555, 88 46.378 M 96.736 48.598 C 96.407 48.927, 96.416 49.939, 96.756 50.848 C 97.314 52.338, 97.184 52.353, 95.437 51 C 93.692 49.649, 93.622 49.656, 94.726 51.074 C 95.486 52.050, 95.597 53.003, 95.018 53.582 C 94.438 54.162, 94.483 55.084, 95.136 56.008 C 96.022 57.263, 96.101 57.228, 95.638 55.782 C 95.335 54.837, 95.486 53.818, 95.972 53.517 C 96.459 53.216, 97.048 53.990, 97.281 55.235 C 97.514 56.481, 97.666 55.362, 97.619 52.750 C 97.572 50.138, 97.488 48, 97.433 48 C 97.378 48, 97.064 48.269, 96.736 48.598 M 123 52.964 C 123 53.553, 125.478 54.019, 128.750 54.045 L 134.500 54.090 128.588 59.545 L 122.676 65 130.397 65 C 135.290 65, 137.892 64.634, 137.500 64 C 137.160 63.450, 134.546 62.981, 131.691 62.957 L 126.500 62.913 131.750 58.207 C 134.638 55.618, 137.001 53.226, 137 52.890 C 137 52.555, 133.850 52.201, 130 52.104 C 125.723 51.996, 123 52.331, 123 52.964 M 127.230 69.551 C 123.698 72.025, 122.650 74.741, 123.984 77.961 C 126.354 83.682, 133.828 84.167, 136.614 78.780 C 138.534 75.066, 137.117 70.830, 133.385 69.130 C 130.196 67.676, 129.876 67.698, 127.230 69.551 M 126.278 71.250 C 122.731 75.834, 124.916 81, 130.401 81 C 134.235 81, 136.250 79.105, 136.250 75.500 C 136.250 74.128, 135.689 72.330, 135.003 71.503 C 133.492 69.683, 127.622 69.513, 126.278 71.250" stroke="none" fill="#3467df" fill-rule="evenodd"/>
</svg>