<svg xmlns="http://www.w3.org/2000/svg" width="147" height="145" viewBox="0 0 147 145" version="1.1">
	<rect x="0" y="0" width="100%" height="100%" fill="#bfbfbf" />
	<path d="M 62.238 2.110 C 54.573 3.387, 45.415 6.647, 38 10.738 C 30.157 15.065, 16.888 28.132, 12.179 36.165 C 4.507 49.254, 0.926 66.476, 2.871 80.928 C 5.205 98.275, 11.161 110.144, 24 123.034 C 30.810 129.872, 34.190 132.395, 41 135.726 C 63.799 146.878, 88.736 146.188, 109.835 133.821 C 117.044 129.595, 130.506 116.114, 134.821 108.799 C 151.666 80.242, 146.338 43.435, 122.080 20.777 C 114.077 13.302, 106.657 8.724, 97.233 5.446 C 85.561 1.387, 73.488 0.236, 62.238 2.110 M 65 18.690 C 59.059 19.684, 49.690 23.403, 44.310 26.903 C 14.862 46.062, 10.629 85.912, 35.428 110.517 C 43.682 118.707, 49.891 122.287, 60.585 125.022 C 69.773 127.372, 75.082 127.475, 84.500 125.489 C 95.263 123.219, 103.456 118.710, 111.583 110.583 C 129.948 92.217, 132.988 64.798, 119.063 43.099 C 114.976 36.729, 105.924 28.327, 99.272 24.728 C 89.797 19.602, 75.068 17.007, 65 18.690 M 65.925 48.500 C 60.578 50.205, 54.603 55.621, 52.489 60.681 C 51.670 62.641, 51 66.744, 51 69.799 C 51 74.773, 50.679 75.624, 47.932 77.927 C 42.301 82.650, 42.969 93.381, 49.091 96.547 C 50.636 97.346, 52.328 98, 52.850 98 C 53.395 98, 53.960 90.881, 54.179 81.250 C 54.583 63.431, 55.177 60.959, 60.169 56.298 C 63.309 53.365, 69.172 50.995, 73.218 51.022 C 80.006 51.067, 88.548 56.994, 90.936 63.315 C 91.526 64.875, 92 73.238, 92 82.065 C 92 97.530, 92.061 98, 94.077 98 C 95.219 98, 97.469 96.685, 99.077 95.077 C 101.535 92.619, 102 91.351, 102 87.112 C 102 83, 101.473 81.463, 99.145 78.785 C 96.895 76.196, 96.177 74.213, 95.756 69.428 C 94.911 59.821, 90.712 53.446, 82.423 49.183 C 78.737 47.287, 70.764 46.958, 65.925 48.500 M 57 86.500 C 57 93.500, 57.391 98, 58 98 C 58.609 98, 59 93.500, 59 86.500 C 59 79.500, 58.609 75, 58 75 C 57.391 75, 57 79.500, 57 86.500 M 88.382 86.500 C 88.384 93.100, 88.546 95.670, 88.741 92.211 C 88.937 88.752, 88.936 83.352, 88.738 80.211 C 88.540 77.070, 88.380 79.900, 88.382 86.500" stroke="none" fill="#3467df" fill-rule="evenodd"/>
</svg>