<svg xmlns="http://www.w3.org/2000/svg" viewBox="0 0 34 33" width="34" height="33">
	<style>
		tspan { white-space:pre }
		.shp0 { fill: #fc635e } 
	</style>
	<g id="Testimonials">
		<g id="slider">
			<path id="Фигура 11" class="shp0" d="M16.5 32C7.96 32 1 25.05 1 16.5C1 7.95 7.96 1 16.5 1C25.05 1 32.01 7.95 32.01 16.5C32.01 25.05 25.05 32 16.5 32ZM16.5 2.42C8.74 2.42 2.43 8.74 2.43 16.5C2.43 24.26 8.74 30.58 16.5 30.58C24.27 30.58 30.59 24.26 30.59 16.5C30.59 8.74 24.27 2.42 16.5 2.42ZM10.24 26.64L16.3 16.44L10.24 6.56L27.63 16.6L10.24 26.64Z" />
		</g>
	</g>
</svg>