<svg xmlns="http://www.w3.org/2000/svg" viewBox="0 0 41 41" width="41" height="41">
	<style>
		tspan { white-space:pre }
		.shp0 { fill: #ffffff } 
	</style>
	<g id="What can you receive">
		<g id="right">
			<g id="2">
				<path id="Forma 1" class="shp0" d="M12.74 11.66L7.54 11.67C7.54 11.67 3.42 11.85 3.43 15.84L3.43 15.95C2.57 16.54 2 17.53 2 18.66C2 19.79 2.57 20.79 3.44 21.38C3.44 21.87 3.6 25.93 7.39 25.92C7.39 25.92 8.96 25.98 8.83 28.49L8.84 38.41C8.84 38.41 8.59 40 10.19 40C10.19 40 14.84 39.33 12.53 34.57C14.27 32.76 11.78 31.71 12.77 28.75C12.77 28.75 14.11 26.89 14.11 25.83L14.17 13.16C14.17 13.16 14.43 11.65 12.74 11.66ZM36.6 14.21L36.58 2.64C36.58 1.13 35.3 2.81 35.3 2.81C29.26 12.24 16.76 11.5 16.76 11.5C15.28 11.51 15.52 12.77 15.52 12.77L15.54 23.7C15.54 24.96 16.86 24.95 16.86 24.95C30.83 24.93 35.61 33.77 35.61 33.77C35.61 33.77 36.72 35.13 36.64 33.71L36.62 22.16C38.03 21.39 39.01 19.91 39 18.18C39 16.45 38.02 14.97 36.6 14.21ZM22.84 12.66C22.84 12.66 31.06 11.51 35.04 5.33C35.04 5.33 33.5 12.55 22.84 12.66ZM38.13 19.47C38.13 19.47 38.55 17.5 36.97 15.18C36.97 15.18 39.1 16.42 38.13 19.47Z" />
			</g>
		</g>
	</g>
</svg>