<svg xmlns="http://www.w3.org/2000/svg" viewBox="0 0 40 40" width="40" height="40">
	<style>
		tspan { white-space:pre }
		.shp0 { fill: #ffffff } 
	</style>
	<g id="What can you receive">
		<g id="right">
			<g id="1">
				<path id="Forma 1" class="shp0" d="M35.11 2L5.9 2C3.75 2 2 3.75 2 5.89L2 35.11C2 37.24 3.75 39 5.9 39L35.11 39C37.25 39 39 37.24 39 35.11L39 5.89C39 3.75 37.25 2 35.11 2ZM6.22 7.27L34.77 7.27L34.77 26.75L6.22 26.75L6.22 7.27ZM36.33 33.76L16.39 33.76C16.04 35.23 14.73 36.32 13.16 36.32C11.58 36.32 10.27 35.23 9.92 33.76L4.68 33.76L4.68 32.22L9.92 32.22C10.27 30.75 11.58 29.65 13.16 29.65C14.73 29.65 16.05 30.75 16.39 32.22L36.33 32.22L36.33 33.76ZM23.91 10.09L27.89 10.09L27.89 23.45L23.91 23.45L23.91 10.09ZM12.92 15.23L16.9 15.23L16.9 23.45L12.92 23.45L12.92 15.23ZM18.41 13.05L22.4 13.05L22.4 23.45L18.41 23.45L18.41 13.05Z" />
			</g>
		</g>
	</g>
</svg>