<svg xmlns="http://www.w3.org/2000/svg" viewBox="0 0 43 42" width="43" height="42">
	<style>
		tspan { white-space:pre }
		.shp0 { fill: #ffffff } 
	</style>
	<g id="What can you receive">
		<g id="left">
			<g id="2">
				<path id="Forma 1" class="shp0" d="M26.91 38.94C26.21 38.43 26.14 37.66 26.14 37.66L25.88 36L17.57 36L17.31 37.66C17.31 37.66 17.24 38.43 16.54 38.94C15.85 39.45 15.3 39.89 15.85 39.97C16.38 40.04 21.36 39.97 21.72 39.97C22.09 39.97 27.07 40.04 27.6 39.97C28.15 39.89 27.6 39.45 26.91 38.94ZM12.37 25.63C14.59 25.61 14.86 25.08 15.59 22.85C16.92 19.33 22.93 23.77 19.21 25.31C15.48 26.85 10.15 25.65 12.37 25.63ZM35.12 2.45C34.04 1.59 32.26 2.01 31.14 3.41L19.75 19.59C18.63 20.98 18.63 20.72 19.71 21.58C20.79 22.45 20.53 22.51 21.65 21.12L35.03 6.55C36.16 5.16 36.2 3.32 35.12 2.45ZM32.19 4.39C32.19 4.39 32.03 4.2 31.47 3.75C32.3 2.4 33.94 2.64 33.94 2.64C32.39 3.56 32.19 4.39 32.19 4.39ZM40.17 7.92L35.16 7.92L32.95 10.33L39.37 10.33L39.37 29.58L4.08 29.58L4.08 10.33L24.61 10.33L26.3 7.92L3.28 7.92C2.4 7.92 1.68 8.64 1.68 9.53L1.68 32.79C1.68 33.67 2.4 34.39 3.28 34.39L40.17 34.39C41.05 34.39 41.77 33.67 41.77 32.79L41.77 9.53C41.77 8.64 41.05 7.92 40.17 7.92Z" />
			</g>
		</g>
	</g>
</svg>
