<svg xmlns="http://www.w3.org/2000/svg" viewBox="0 0 37 43" width="37" height="43">
	<style>
		tspan { white-space:pre }
		.shp0 { fill: #ffffff } 
	</style>
	<g id="What can you receive">
		<g id="left">
			<g id="1">
				<path id="Forma 1" class="shp0" d="M28.26 22.77C30.63 19.98 32.2 17.28 33.23 14.81C33.58 13.97 34.05 12.64 34.27 11.84C34.38 11.43 34.49 10.93 34.6 10.38C34.63 10.26 34.64 10.15 34.67 10.03C34.69 9.88 34.72 9.73 34.74 9.57C35.01 7.92 35.05 6.49 35 5.36C34.96 4.45 34.89 3.68 34.94 3.62C34.97 3.59 35 3.56 35.02 3.52C35.24 3.25 35.33 2.97 35.24 2.9C35.24 2.9 35.21 2.88 35.18 2.86C35.15 2.83 35.17 2.6 35.23 2.33C35.3 2.06 35.11 1.92 34.81 2.01C34.52 2.1 34.25 2.15 34.21 2.12L34.14 2.07C34.04 2 33.79 2.16 33.57 2.43C33.55 2.46 33.53 2.49 33.51 2.51C33.48 2.56 32.71 2.64 31.8 2.82C30.24 3.13 27.74 3.85 25.02 5.54C20.62 8.22 17.83 11.96 16.54 13.98C16.05 14.75 14.97 15.3 14.05 15.27C6.63 15.02 3.46 20.13 2.31 22.79C1.95 23.63 2.51 24.29 3.43 24.28C19.75 23.98 21.24 33.93 21.18 37.93C21.16 38.84 21.74 39.29 22.54 38.82C28.47 35.3 28.08 28.66 27.53 25.61C27.37 24.72 27.66 23.47 28.26 22.77ZM26.42 18.28C25.41 19.38 23.71 19.66 22.34 18.88C20.76 17.99 20.21 16.05 21.11 14.54C21.22 14.35 21.34 14.18 21.48 14.03C22.49 12.94 24.19 12.65 25.57 13.43C27.14 14.32 27.69 16.27 26.8 17.78C26.69 17.96 26.56 18.13 26.42 18.28ZM12.06 40.22C14.99 38.49 16.69 35.3 17.48 33.39C17.83 32.55 17.35 32.14 16.57 32.62C13.5 34.54 11.86 37.55 11.1 39.37C10.75 40.21 11.27 40.69 12.06 40.22ZM6.24 40.85C10.71 38.43 13.11 33.33 14.08 30.76C14.4 29.91 13.92 29.5 13.13 29.96C8.43 32.73 6.14 37.51 5.22 39.97C4.91 40.82 5.43 41.29 6.24 40.85ZM5.19 34.92C8.12 33.19 9.81 30.01 10.61 28.1C10.96 27.26 10.47 26.85 9.7 27.33C6.63 29.25 4.99 32.26 4.23 34.08C3.88 34.92 4.4 35.39 5.19 34.92Z" />
			</g>
		</g>
	</g>
</svg>