<svg xmlns="http://www.w3.org/2000/svg" viewBox="0 0 40 41" width="40" height="41">
	<style>
		tspan { white-space:pre }
		.shp0 { fill: #565656 } 
	</style>
	<g id="Our team">
		<g id="1">
			<g id="social копия 2">
				<path id="Forma 1" class="shp0" d="M20.5 2C10.28 2 2 10.29 2 20.51C2 30.73 10.28 39.01 20.5 39.01C30.71 39.01 38.99 30.73 38.99 20.51C38.99 10.28 30.71 2 20.5 2ZM25.28 20.5L22.25 20.51L22.24 31.61L18.08 31.61L18.08 20.51L15.31 20.51L15.31 16.68L18.08 16.68L18.08 14.42C18.08 11.3 18.93 9.4 22.6 9.4L25.66 9.4L25.66 13.23L23.75 13.23C22.32 13.23 22.25 13.77 22.25 14.76L22.24 16.68L25.68 16.68L25.28 20.5Z" />
			</g>
		</g>
	</g>
</svg>