<svg xmlns="http://www.w3.org/2000/svg" viewBox="0 0 40 41" width="40" height="41">
	<style>
		tspan { white-space:pre }
		.shp0 { fill: #565656 } 
	</style>
	<g id="Our team">
		<g id="1">
			<g id="social копия 2">
				<path id="Forma 1" class="shp0" d="M20.5 2C10.28 2 2 10.29 2 20.51C2 30.73 10.28 39.01 20.5 39.01C30.71 39.01 38.99 30.73 38.99 20.51C38.99 10.28 30.71 2 20.5 2ZM15.87 29.47L11.25 29.47L11.25 13.28L15.87 13.28L15.87 29.47ZM13.7 12.28C12.51 12.28 11.54 11.31 11.54 10.11C11.54 8.92 12.51 7.94 13.7 7.94C14.9 7.95 15.87 8.92 15.87 10.11C15.87 11.31 14.9 12.28 13.7 12.28ZM32.06 29.47L27.43 29.47L27.43 19.46C27.43 18.29 27.1 17.46 25.66 17.46C23.27 17.46 22.81 19.46 22.81 19.46L22.81 29.47L18.18 29.47L18.18 13.28L22.81 13.28L22.81 14.82C23.47 14.32 25.12 13.28 27.43 13.28C28.93 13.28 32.06 14.18 32.06 19.6L32.06 29.47Z" />
			</g>
		</g>
	</g>
</svg>