<svg xmlns="http://www.w3.org/2000/svg" viewBox="0 0 20 23" width="20" height="23">
	<style>
		tspan { white-space:pre }
		.shp0 { fill: #fc635e } 
	</style>
	<g id="Our process">
		<g id="balls">
			<g id="icons">
				<path id="Forma 1" class="shp0" d="M14.63 12.12C15.78 10.76 16.54 9.45 17.04 8.25C17.21 7.84 17.44 7.19 17.54 6.8C17.59 6.6 17.65 6.36 17.7 6.09C17.72 6.03 17.72 5.98 17.74 5.92C17.75 5.84 17.76 5.77 17.77 5.69C17.9 4.89 17.92 4.19 17.9 3.64C17.88 3.2 17.84 2.83 17.87 2.8C17.88 2.78 17.89 2.77 17.91 2.75C18.01 2.62 18.06 2.48 18.01 2.45C18.01 2.45 18 2.44 17.98 2.42C17.97 2.41 17.98 2.3 18.01 2.17C18.04 2.04 17.95 1.97 17.81 2.01C17.66 2.06 17.53 2.08 17.51 2.07L17.48 2.04C17.43 2.01 17.31 2.09 17.21 2.22C17.2 2.23 17.19 2.25 17.18 2.26C17.16 2.28 16.79 2.32 16.35 2.41C15.59 2.56 14.38 2.91 13.06 3.73C10.93 5.03 9.57 6.86 8.95 7.84C8.71 8.21 8.19 8.48 7.74 8.47C4.15 8.35 2.61 10.83 2.05 12.13C1.88 12.54 2.15 12.86 2.6 12.85C10.51 12.7 11.23 17.55 11.2 19.5C11.19 19.94 11.47 20.16 11.86 19.93C14.73 18.22 14.54 14.99 14.28 13.5C14.2 13.07 14.34 12.46 14.63 12.12ZM13.74 9.94C13.25 10.47 12.43 10.61 11.76 10.23C11 9.79 10.73 8.85 11.16 8.11C11.22 8.02 11.28 7.94 11.35 7.86C11.83 7.33 12.66 7.19 13.33 7.57C14.09 8 14.36 8.95 13.92 9.69C13.87 9.78 13.8 9.86 13.74 9.94ZM6.78 20.61C8.2 19.77 9.02 18.22 9.41 17.29C9.58 16.88 9.34 16.68 8.97 16.91C7.48 17.85 6.68 19.31 6.32 20.2C6.15 20.61 6.4 20.84 6.78 20.61ZM3.96 20.92C6.12 19.74 7.29 17.26 7.76 16.01C7.92 15.59 7.68 15.39 7.3 15.62C5.02 16.97 3.91 19.29 3.47 20.49C3.31 20.9 3.57 21.13 3.96 20.92ZM3.45 18.03C4.87 17.19 5.69 15.64 6.07 14.71C6.24 14.3 6.01 14.1 5.63 14.34C4.15 15.27 3.35 16.74 2.98 17.62C2.81 18.03 3.07 18.26 3.45 18.03Z" />
			</g>
		</g>
	</g>
</svg>