<svg xmlns="http://www.w3.org/2000/svg" viewBox="0 0 27 23" width="27" height="23">
	<style>
		tspan { white-space:pre }
		.shp0 { fill: #ffffff } 
	</style>
	<g id="Our process">
		<g id="balls">
			<g id="icons">
				<path id="Forma 1" class="shp0" d="M23.61 1L3.39 1C2.62 1 1.99 1.64 1.99 2.42L1.99 17.17C1.99 17.95 2.62 18.6 3.39 18.6L23.61 18.6C24.38 18.6 25.01 17.95 25.01 17.17L25.01 2.42C25.01 1.64 24.38 1 23.61 1ZM23.26 16.13L3.74 16.13L3.74 3L23.26 3L23.26 16.13ZM18.78 22L8.26 22L10.91 19.27L16.13 19.27L18.78 22ZM12.42 7.1C12.94 7.1 13.36 7.52 13.36 8.05C13.36 8.58 12.94 9 12.42 9C11.9 9 11.48 8.58 11.48 8.05C11.48 7.52 11.9 7.1 12.42 7.1ZM16.2 10.17C16.72 10.17 17.14 10.6 17.14 11.12C17.14 11.65 16.72 12.07 16.2 12.07C15.68 12.07 15.26 11.65 15.26 11.12C15.26 10.6 15.68 10.17 16.2 10.17ZM19.94 6.85C20.46 6.85 20.88 7.28 20.88 7.81C20.88 8.33 20.46 8.76 19.94 8.76C19.42 8.76 19 8.33 19 7.81C19 7.28 19.42 6.85 19.94 6.85ZM6.72 11.59C7.24 11.59 7.66 12.02 7.66 12.55C7.66 13.07 7.24 13.5 6.72 13.5C6.21 13.5 5.79 13.07 5.79 12.55C5.79 12.02 6.21 11.59 6.72 11.59ZM16.15 10.84C15.76 10.51 12.46 7.66 12.46 7.66L6.43 12.41L6.75 12.99C6.75 12.99 12.03 8.64 12.38 8.45C12.69 8.71 16.16 11.71 16.16 11.71L20.16 8.05L19.72 7.56C19.72 7.56 16.52 10.5 16.15 10.84Z" />
			</g>
		</g>
	</g>
</svg>