<svg xmlns="http://www.w3.org/2000/svg" viewBox="0 0 26 28" width="26" height="28">
	<style>
		tspan { white-space:pre }
		.shp0 { fill: #ffffff } 
	</style>
	<g id="Our process">
		<g id="balls">
			<g id="icons">
				<path id="Forma 1" class="shp0" d="M10.06 7.41C11.19 7.41 12.1 8.32 12.1 9.44C12.1 10.57 11.19 11.48 10.06 11.48C8.94 11.48 8.02 10.57 8.02 9.44C8.02 8.32 8.94 7.41 10.06 7.41ZM14.5 15.72C15.22 15.72 15.81 16.31 15.81 17.03C15.81 17.75 15.22 18.33 14.5 18.33C13.78 18.33 13.19 17.75 13.19 17.03C13.19 16.31 13.78 15.72 14.5 15.72ZM21.68 12.73C23.32 4.7 16.78 1.02 9.52 2.18C2.26 3.34 2.53 7.72 2.1 9.81C1.25 15.05 6.66 20.91 6.66 20.91L6.35 27L15.16 27L15.83 24.2C15.83 24.2 16.22 24.84 18.49 25.03C20.77 25.22 20.49 22.45 20.49 22.45C20.49 22.45 22.01 21.78 22.01 21.28C22.01 20.78 21.11 20.14 21.11 20.14C21.11 20.14 22.07 20.31 22.42 19.91C22.77 19.5 22 18.04 22 18.04C22 18.04 23.18 18.01 23.88 17.24C24.58 16.47 21.68 14.2 21.68 12.73ZM9.1 13.83C9.1 13.83 9.05 13.29 9.03 13.02C8.81 12.96 8.6 12.88 8.4 12.79C8.15 13 7.68 13.4 7.68 13.4C7.68 13.4 7.59 13.45 7.55 13.47C7.51 13.49 6.75 13.4 6.75 13.4L5.44 11.85L5.44 10.93C5.44 10.93 5.94 10.51 6.19 10.29C6.14 10.09 6.11 9.87 6.09 9.66C5.76 9.51 5.1 9.21 5.1 9.21L4.84 8.44L4.87 8.31L5.71 6.47L6.61 6.23C6.61 6.23 7.18 6.49 7.46 6.62C7.64 6.48 7.82 6.36 8.02 6.24C7.99 5.9 7.94 5.22 7.94 5.22L8.59 4.56L10.62 4.4L11.27 5.05C11.27 5.05 11.31 5.57 11.33 5.83C11.6 5.91 11.85 6 12.09 6.11C12.31 5.93 12.75 5.55 12.75 5.55L13.67 5.55L14.99 7.09L14.99 8.01C14.99 8.01 14.46 8.47 14.19 8.7C14.23 8.89 14.25 9.08 14.26 9.27C14.6 9.47 15.27 9.86 15.27 9.86L15.51 10.75L14.49 12.5L13.6 12.74C13.6 12.74 13.07 12.44 12.81 12.29C12.66 12.4 12.5 12.5 12.34 12.6C12.37 12.95 12.43 13.65 12.43 13.65L11.78 14.3L9.76 14.48L9.1 13.83ZM17.34 18.99L16.77 19.14C16.77 19.14 16.43 18.95 16.26 18.85C16.17 18.93 16.06 18.99 15.96 19.05C15.98 19.28 16.02 19.72 16.02 19.72L15.6 20.14L14.3 20.26L13.88 19.84C13.88 19.84 13.85 19.49 13.84 19.32C13.7 19.28 13.56 19.23 13.43 19.17C13.28 19.31 12.97 19.57 12.97 19.57C12.97 19.57 12.92 19.59 12.89 19.61C12.87 19.62 12.38 19.57 12.38 19.57L11.53 18.57L11.53 17.98C11.53 17.98 11.86 17.71 12.02 17.57C11.98 17.44 11.96 17.3 11.95 17.16C11.74 17.07 11.32 16.87 11.32 16.87L11.15 16.38L11.17 16.3L11.71 15.12L12.29 14.97C12.29 14.97 12.65 15.13 12.83 15.22C12.94 15.13 13.07 15.05 13.19 14.97C13.17 14.75 13.14 14.31 13.14 14.31L13.56 13.89L14.86 13.79L15.28 14.21C15.28 14.21 15.3 14.54 15.32 14.71C15.49 14.76 15.65 14.82 15.8 14.89C15.94 14.77 16.22 14.53 16.22 14.53L16.82 14.53L17.66 15.52L17.66 16.11C17.66 16.11 17.32 16.4 17.15 16.55C17.17 16.67 17.19 16.79 17.19 16.92C17.41 17.04 17.84 17.29 17.84 17.29L17.99 17.87L17.34 18.99Z" />
			</g>
		</g>
	</g>
</svg>