<svg xmlns="http://www.w3.org/2000/svg" viewBox="0 0 22 28" width="22" height="28">
	<style>
		tspan { white-space:pre }
		.shp0 { fill: #ffffff } 
	</style>
	<g id="Our process">
		<g id="balls">
			<g id="icons">
				<path id="Forma 1" class="shp0" d="M17.83 11.37C17.83 14.5 14.67 17.58 14.67 20.75L8.33 20.75C8.33 17.67 5.17 14.5 5.17 11.37C5.17 7.92 8 5.12 11.5 5.12C15 5.12 17.83 7.92 17.83 11.37ZM13.87 23.87L9.12 23.87C8.69 23.87 8.33 24.22 8.33 24.66C8.33 25.09 8.69 25.44 9.12 25.44L9.27 25.44C9.6 26.35 10.47 27 11.5 27C12.53 27 13.4 26.35 13.73 25.44L13.87 25.44C14.31 25.44 14.67 25.09 14.67 24.66C14.67 24.22 14.31 23.87 13.87 23.87ZM13.87 21.53L9.12 21.53C8.69 21.53 8.33 21.88 8.33 22.31C8.33 22.74 8.69 23.09 9.12 23.09L13.87 23.09C14.31 23.09 14.67 22.74 14.67 22.31C14.67 21.88 14.31 21.53 13.87 21.53ZM2.88 7.36L4.3 8.17C4.52 7.69 4.78 7.25 5.09 6.82L3.67 6.01L2.88 7.36ZM12.29 3.64L12.29 2L10.71 2L10.71 3.64C10.97 3.61 11.23 3.56 11.5 3.56C11.77 3.56 12.03 3.61 12.29 3.64ZM8.26 4.27L7.44 2.86L6.06 3.65L6.89 5.05C7.32 4.75 7.77 4.48 8.26 4.27ZM20.12 7.36L19.33 6.01L17.91 6.82C18.22 7.25 18.48 7.69 18.7 8.17L20.12 7.36ZM16.93 3.65L15.56 2.86L14.75 4.27C15.23 4.48 15.69 4.75 16.11 5.05L16.93 3.65ZM3.58 11.37C3.58 11.11 3.64 10.85 3.66 10.59L2 10.59L2 12.16L3.67 12.16C3.64 11.9 3.58 11.64 3.58 11.37ZM19.34 10.59C19.36 10.85 19.42 11.11 19.42 11.37C19.42 11.64 19.36 11.9 19.33 12.16L21 12.16L21 10.59L19.34 10.59ZM18.04 16L19.33 16.74L20.12 15.38L18.69 14.57C18.49 15.05 18.27 15.53 18.04 16ZM2.88 15.38L3.67 16.74L4.95 16.01C4.72 15.53 4.5 15.06 4.31 14.57L2.88 15.38Z" />
			</g>
		</g>
	</g>
</svg>