<svg xmlns="http://www.w3.org/2000/svg" viewBox="0 0 27 24" width="27" height="24">
	<style>
		tspan { white-space:pre }
		.shp0 { fill: #ffffff } 
	</style>
	<g id="Our process">
		<g id="balls">
			<g id="icons">
				<path id="Forma 1" class="shp0" d="M22.67 8.1L17.51 8.1C17.28 8.1 17.22 7.96 17.35 7.77C17.87 6.97 18.17 5.91 18.01 4.09C17.88 2.58 17.56 2 17.12 2C16.39 2 15.33 3.58 14.25 5.14C12.86 7.18 10.17 8.81 9.21 9.36C9.01 9.47 8.68 9.62 8.47 9.7L5.74 10.71C5.53 10.79 5.36 11.04 5.36 11.27L5.36 19.54C5.36 19.77 5.52 20.06 5.72 20.17L6.89 20.85C7.08 20.96 7.42 21.05 7.65 21.07C8.88 21.17 9.68 21.68 10.39 22.12C10.58 22.25 10.86 22.47 11.05 22.6C11.42 22.85 11.86 23 12.33 23L20.51 23C21.67 23 22.85 22.13 23.09 20.99C23.14 20.76 23.17 20.39 23.21 20.16L24.94 10.94C24.98 10.71 25.02 10.34 24.98 10.11C24.79 8.97 23.83 8.1 22.67 8.1ZM4.17 9.91L2.68 9.91C2.3 9.91 2 10.22 2 10.61L2 20.27C2 20.65 2.3 20.97 2.68 20.97L4.17 20.97C4.54 20.97 4.84 20.65 4.84 20.27L4.84 10.61C4.84 10.22 4.54 9.91 4.17 9.91Z" />
			</g>
		</g>
	</g>
</svg>