<svg xmlns="http://www.w3.org/2000/svg" viewBox="0 0 39 40" width="39" height="40">
	<style>
		tspan { white-space:pre }
		.shp0 { fill: #565656 } 
	</style>
	<g id="Our team">
		<g id="1">
			<g id="social копия 2">
				<path id="Forma 1" class="shp0" d="M19.5 2C9.28 2 1 10.28 1 20.5C1 30.72 9.28 39 19.5 39C29.72 39 38 30.72 38 20.5C38 10.28 29.72 2 19.5 2ZM27.02 17.16C27.03 17.31 27.03 17.47 27.03 17.63C27.03 22.44 23.37 27.99 16.67 27.99C14.61 27.99 12.7 27.39 11.08 26.36C11.37 26.39 11.66 26.41 11.95 26.41C13.66 26.41 15.23 25.83 16.48 24.85C14.88 24.82 13.54 23.77 13.07 22.32C13.3 22.36 13.52 22.38 13.76 22.38C14.09 22.38 14.41 22.34 14.72 22.25C13.05 21.92 11.8 20.45 11.8 18.68C11.8 18.67 11.8 18.65 11.8 18.64C12.29 18.91 12.85 19.07 13.45 19.09C12.47 18.44 11.83 17.32 11.83 16.06C11.83 15.39 12.01 14.77 12.32 14.23C14.12 16.43 16.8 17.88 19.83 18.03C19.77 17.77 19.73 17.49 19.73 17.2C19.73 15.19 21.37 13.56 23.38 13.56C24.43 13.56 25.37 14 26.04 14.71C26.87 14.55 27.65 14.24 28.35 13.83C28.08 14.68 27.5 15.39 26.75 15.84C27.49 15.75 28.19 15.56 28.84 15.27C28.35 16 27.74 16.64 27.02 17.16Z" />
			</g>
		</g>
	</g>
</svg>