<svg xmlns="http://www.w3.org/2000/svg" width="60" height="60" viewBox="0 0 60 60" version="1.1">
	<rect x="0" y="0" width="100%" height="100%" fill="#bfbfbf" />
	<path d="M 24.637 4.465 C 20.231 6.035, 15.519 10.163, 13.317 14.382 C 12.229 16.465, 12.014 18.544, 12.538 21.882 C 12.937 24.422, 13.390 27.400, 13.544 28.500 C 13.697 29.600, 14.509 32.075, 15.347 34 L 16.871 37.500 16.319 31.500 C 15.802 25.895, 15.870 25.632, 17.351 27.500 C 18.242 28.623, 18.950 28.952, 18.968 28.250 C 18.986 27.563, 20.163 27, 21.583 27 C 24.996 27, 24.252 24.945, 20.341 23.569 C 17.121 22.436, 17.004 20.942, 19.901 17.928 C 21.936 15.812, 27.622 14.784, 31.500 15.832 C 34.113 16.538, 34.514 17.117, 34.606 20.321 C 34.707 23.827, 34.559 24, 31.463 24 C 27.881 24, 27 25.260, 27 30.382 C 27 32.152, 26.460 34.140, 25.800 34.800 C 24.867 35.733, 25.091 36, 26.810 36 C 28.817 36, 28.985 35.589, 28.644 31.500 C 28.438 29.025, 28.685 27, 29.194 27 C 29.702 27, 29.840 26.550, 29.500 26 C 29.160 25.450, 29.534 25, 30.330 25 C 31.126 25, 31.715 25.788, 31.639 26.750 C 31.537 28.034, 32.232 28.490, 34.250 28.461 C 35.811 28.438, 37 28.964, 37 29.677 C 37 30.888, 34.799 36.477, 32.779 40.395 C 32.005 41.896, 32.111 42.171, 33.288 41.720 C 34.372 41.304, 34.636 41.674, 34.266 43.090 C 33.987 44.158, 33.368 45.273, 32.891 45.568 C 32.413 45.863, 32.334 45.294, 32.713 44.305 C 33.374 42.583, 33.289 42.581, 30.737 44.253 C 27.482 46.386, 24.029 46.489, 21.441 44.532 C 20.374 43.724, 19.062 43.049, 18.527 43.032 C 17.993 43.014, 18.555 43.701, 19.777 44.557 C 21 45.413, 22 46.763, 22 47.557 C 22 48.458, 23.014 49, 24.700 49 C 26.800 49, 27.133 49.267, 26.200 50.200 C 25.540 50.860, 25 51.756, 25 52.192 C 25 53.360, 36.584 44.345, 38.953 41.332 C 40.639 39.189, 41.247 38.960, 42.494 39.995 C 43.781 41.063, 44 40.790, 44 38.122 C 44 35.875, 43.533 35, 42.333 35 C 41.417 35, 41.004 34.663, 41.417 34.250 C 41.829 33.837, 42.649 33.500, 43.238 33.500 C 43.827 33.500, 44.436 32.600, 44.591 31.500 C 44.746 30.400, 45.150 27.612, 45.489 25.304 C 46.672 17.261, 43.052 10.125, 35.027 4.678 C 32.073 2.673, 29.794 2.626, 24.637 4.465 M 54.534 35.963 C 53.557 37.042, 53.014 38.594, 53.328 39.412 C 53.733 40.468, 53.431 40.719, 52.285 40.279 C 51.211 39.867, 50.913 40.051, 51.395 40.830 C 51.793 41.474, 51.656 42, 51.090 42 C 50.525 42, 50.352 42.753, 50.705 43.674 C 51.192 44.942, 50.942 45.192, 49.674 44.705 C 46.731 43.576, 47.853 44.738, 53.750 48.926 L 59.500 53.009 59.799 45.766 C 60.269 34.366, 58.671 31.391, 54.534 35.963 M 21.750 39.662 C 22.438 39.940, 23.563 39.940, 24.250 39.662 C 24.938 39.385, 24.375 39.158, 23 39.158 C 21.625 39.158, 21.063 39.385, 21.750 39.662 M 26.750 39.662 C 27.438 39.940, 28.563 39.940, 29.250 39.662 C 29.938 39.385, 29.375 39.158, 28 39.158 C 26.625 39.158, 26.063 39.385, 26.750 39.662" stroke="none" fill="#3467df" fill-rule="evenodd"/>
</svg>