<svg xmlns="http://www.w3.org/2000/svg" width="140" height="150" viewBox="0 0 140 150" version="1.1">
	<rect x="0" y="0" width="100%" height="100%" fill="#bfbfbf" />
	<path d="M 83.458 24.068 C 83.095 24.656, 82.278 24.937, 81.644 24.693 C 81.009 24.450, 79.912 24.869, 79.205 25.625 C 78.499 26.381, 78.276 27.031, 78.711 27.069 C 83.041 27.447, 85.384 28.218, 88.846 30.403 C 91.078 31.812, 93.158 32.554, 93.468 32.051 C 93.779 31.549, 93.568 30.851, 93 30.500 C 92.432 30.149, 92.226 29.443, 92.543 28.931 C 92.859 28.419, 92.674 28, 92.130 28 C 91.587 28, 90.395 27.252, 89.481 26.338 C 88.186 25.044, 87.645 24.957, 87.034 25.945 C 86.480 26.842, 86.050 26.889, 85.566 26.107 C 85.190 25.498, 85.160 24.550, 85.500 24 C 85.840 23.450, 85.668 23, 85.118 23 C 84.568 23, 83.821 23.481, 83.458 24.068 M 66.527 24.956 C 66.202 25.482, 65.262 25.654, 64.438 25.338 C 63.612 25.021, 62.169 25.643, 61.220 26.725 C 60.274 27.804, 59.014 28.521, 58.421 28.317 C 57.491 27.998, 54.737 29.820, 47.940 35.253 C 45.950 36.843, 42.432 42.754, 41.544 46 C 41.167 47.375, 42.198 46.250, 43.834 43.500 C 47.938 36.603, 54.270 31.613, 61.005 29.969 C 64.027 29.232, 67.175 28.122, 68 27.504 C 68.825 26.886, 70.513 26.458, 71.750 26.554 C 72.987 26.649, 74 26.308, 74 25.796 C 74 25.284, 73.138 25.139, 72.084 25.473 C 71.030 25.808, 69.879 25.613, 69.525 25.041 C 68.721 23.739, 67.304 23.699, 66.527 24.956 M 98 47.711 C 98 48.285, 98.787 49.373, 99.750 50.128 C 101.369 51.397, 101.390 51.350, 100.033 49.500 C 99.226 48.400, 98.439 47.313, 98.283 47.083 C 98.127 46.854, 98 47.137, 98 47.711 M 103.627 56.470 C 103.968 57.358, 104.675 57.942, 105.198 57.767 C 106.697 57.268, 106.267 55.534, 104.556 55.177 C 103.487 54.955, 103.199 55.356, 103.627 56.470 M 101.912 62 C 101.830 62.825, 101.814 63.829, 101.875 64.231 C 101.937 64.633, 100.865 65.697, 99.494 66.596 C 96.960 68.256, 95.965 71.546, 98.250 70.708 C 98.938 70.456, 99.388 69.744, 99.250 69.125 C 98.733 66.799, 102.933 68.084, 104.195 70.639 C 104.913 72.090, 105.768 73.103, 106.096 72.889 C 107.223 72.154, 110.091 75.321, 109.557 76.712 C 109.263 77.478, 109.455 77.837, 109.982 77.511 C 111.304 76.694, 112.341 81.349, 111.458 84.131 C 110.771 86.297, 110.820 86.323, 112.484 84.659 C 113.742 83.400, 114.059 82.044, 113.614 79.818 C 112.895 76.225, 108.418 71.625, 106.681 72.695 C 106.031 73.095, 106.287 72.218, 107.250 70.747 C 109.300 67.611, 109.452 65.852, 107.814 64.214 C 106.899 63.299, 106.173 63.424, 104.642 64.764 C 103.550 65.719, 102.983 65.941, 103.382 65.258 C 103.782 64.575, 103.648 63.225, 103.085 62.258 C 102.263 60.847, 102.031 60.796, 101.912 62 M 87.500 64 C 87.840 64.550, 88.316 65, 88.559 65 C 88.802 65, 89 64.550, 89 64 C 89 63.450, 88.523 63, 87.941 63 C 87.359 63, 87.160 63.450, 87.500 64 M 92.402 66.365 C 90.742 67.289, 90.525 67.886, 91.366 69.219 C 92.859 71.586, 91.763 72.241, 88.428 70.973 C 85.284 69.777, 80.572 70.498, 81.518 72.029 C 81.848 72.563, 83.891 73, 86.059 73 C 88.227 73, 90 73.450, 90 74 C 90 74.550, 90.695 75, 91.544 75 C 92.393 75, 93.015 74.438, 92.925 73.750 C 92.484 70.354, 93.052 69.484, 94.479 71.368 C 95.839 73.165, 95.887 73.155, 95.734 71.118 C 95.646 69.953, 94.995 69, 94.287 69 C 93.579 69, 93 68.550, 93 68 C 93 67.450, 93.648 67, 94.441 67 C 95.234 67, 96.160 66.550, 96.500 66 C 97.311 64.688, 95.051 64.889, 92.402 66.365 M 105 68 C 105 68.550, 105.477 69, 106.059 69 C 106.641 69, 106.840 68.550, 106.500 68 C 106.160 67.450, 105.684 67, 105.441 67 C 105.198 67, 105 67.450, 105 68 M 52 68.383 C 52 68.594, 52.901 69.002, 54.001 69.290 C 55.102 69.578, 55.751 69.405, 55.442 68.907 C 54.904 68.036, 52 67.594, 52 68.383 M 41.589 71.505 C 39.256 73.370, 39.058 73.798, 40.589 73.666 C 42.357 73.512, 45.652 70.311, 44.852 69.525 C 44.658 69.335, 43.190 70.226, 41.589 71.505 M 101.331 74.698 C 101.424 77.006, 101.808 78.581, 102.183 78.198 C 102.559 77.814, 102.483 75.925, 102.014 74 L 101.162 70.500 101.331 74.698 M 69.632 72.786 C 69.365 73.218, 69.981 73.571, 71 73.571 C 72.019 73.571, 72.635 73.218, 72.368 72.786 C 72.100 72.354, 71.485 72, 71 72 C 70.515 72, 69.900 72.354, 69.632 72.786 M 103 73.755 C 103 74.305, 103.675 75.315, 104.500 76 C 105.337 76.694, 106 76.803, 106 76.245 C 106 75.695, 105.325 74.685, 104.500 74 C 103.663 73.306, 103 73.197, 103 73.755 M 50 74.709 C 47.988 75.449, 45 78.106, 45 79.155 C 45 80.872, 47.205 79.933, 47.710 78 C 48.297 75.756, 49.620 75.359, 50.246 77.238 C 50.574 78.222, 51.219 78.221, 53.386 77.234 C 57.742 75.249, 54.700 72.981, 50 74.709 M 40 76.351 L 36.500 77.400 39.372 77.778 C 40.951 77.986, 42.721 77.679, 43.305 77.095 C 44.947 75.453, 43.832 75.202, 40 76.351 M 51 76.059 C 51 76.641, 51.450 76.840, 52 76.500 C 52.550 76.160, 53 75.684, 53 75.441 C 53 75.198, 52.550 75, 52 75 C 51.450 75, 51 75.477, 51 76.059 M 122 76.941 C 122 77.459, 122.445 78.157, 122.989 78.493 C 123.555 78.843, 123.723 78.442, 123.382 77.552 C 122.717 75.820, 122 75.503, 122 76.941 M 43.158 81 C 43.158 82.375, 43.385 82.938, 43.662 82.250 C 43.940 81.563, 43.940 80.438, 43.662 79.750 C 43.385 79.063, 43.158 79.625, 43.158 81 M 102.507 79.989 C 102.157 80.555, 102.558 80.723, 103.448 80.382 C 105.180 79.717, 105.497 79, 104.059 79 C 103.541 79, 102.843 79.445, 102.507 79.989 M 120.965 79.250 C 120.847 79.662, 120.655 80.338, 120.539 80.750 C 120.422 81.162, 119.971 82.313, 119.535 83.306 C 118.344 86.023, 120.238 91.423, 122.535 91.859 C 124.388 92.211, 124.405 92.126, 122.821 90.366 C 120.724 88.035, 120.509 86.921, 121.982 86.011 C 122.805 85.503, 122.855 84.326, 122.157 81.899 C 121.620 80.030, 121.084 78.838, 120.965 79.250 M 100.817 89.781 C 100.524 97.334, 100.745 98.679, 102.647 100.901 C 104.873 103.500, 106.419 103.652, 105.075 101.139 C 104.527 100.116, 103.969 96.304, 103.835 92.668 C 103.676 88.368, 103.138 85.883, 102.295 85.560 C 101.362 85.202, 100.949 86.380, 100.817 89.781 M 114.387 86.565 C 114.842 87.751, 114.524 87.984, 113.078 87.525 C 112.028 87.191, 110.879 87.387, 110.525 87.959 C 110.171 88.532, 110.344 89, 110.910 89 C 111.475 89, 111.678 89.675, 111.362 90.500 C 111.045 91.325, 111.311 92, 111.952 92 C 112.593 92, 112.859 91.581, 112.543 91.069 C 112.226 90.557, 112.374 89.887, 112.870 89.580 C 114.054 88.848, 114.972 92.427, 114.002 93.996 C 113.465 94.865, 113.054 94.897, 112.566 94.107 C 111.388 92.202, 110.205 92.896, 110.356 95.404 C 110.435 96.726, 110.790 97.629, 111.145 97.410 C 112.378 96.649, 112.887 99.910, 112.419 105.576 C 111.904 111.805, 111.351 113.335, 109.931 112.457 C 109.419 112.141, 109 112.546, 109 113.358 C 109 115.460, 106.707 115.956, 105.371 114.143 C 104.447 112.889, 104.113 113.374, 103.532 116.808 C 102.979 120.084, 102.306 121.136, 100.468 121.597 C 99.173 121.922, 97.638 121.894, 97.057 121.535 C 96.476 121.176, 96 121.359, 96 121.941 C 96 122.523, 96.450 123, 97 123 C 97.550 123, 98 123.436, 98 123.969 C 98 124.501, 97.438 124.731, 96.750 124.479 C 95.017 123.844, 93.301 125.137, 92.866 127.406 C 92.665 128.454, 91.798 129.414, 90.939 129.539 C 90.080 129.665, 87.843 131.170, 85.966 132.884 C 84.090 134.598, 81.642 136, 80.527 136 C 79.032 136, 78.500 136.656, 78.500 138.500 C 78.500 139.875, 78.538 141, 78.584 141 C 78.630 141, 80.624 139.193, 83.016 136.986 C 85.407 134.778, 87.632 133.404, 87.958 133.933 C 88.289 134.468, 89.144 134.529, 89.887 134.070 C 90.621 133.616, 92.081 133.470, 93.132 133.745 C 94.628 134.136, 94.794 134.543, 93.899 135.622 C 92.471 137.342, 94.127 137.447, 95.922 135.750 C 97.015 134.718, 97.039 134.900, 96.062 136.798 C 95.411 138.061, 92.881 140.975, 90.439 143.273 C 87.998 145.570, 86 148.019, 86 148.715 C 86 149.702, 91.597 149.976, 111.488 149.963 C 125.507 149.954, 137.657 149.685, 138.488 149.366 C 140.415 148.627, 140.474 145, 138.559 145 C 137.766 145, 136.866 144.592, 136.558 144.093 C 136.249 143.595, 136.898 143.422, 137.999 143.710 C 139.808 144.183, 140 143.742, 140 139.117 C 140 135.698, 139.585 133.995, 138.750 133.985 C 137.918 133.974, 137.999 133.654, 138.995 133.024 C 140.278 132.213, 140.207 131.865, 138.495 130.571 C 137.398 129.742, 135.948 129.049, 135.273 129.032 C 134.598 129.014, 133.259 127.763, 132.297 126.250 C 131.335 124.737, 129.975 123.140, 129.274 122.700 C 128.573 122.260, 128 121.191, 128 120.325 C 128 119.277, 129.089 119.909, 131.250 122.211 C 133.844 124.974, 135.004 125.546, 137 125.046 C 139.519 124.413, 141.281 120, 139.015 120 C 138.396 120, 135.260 118.214, 132.046 116.031 C 125.841 111.818, 121.750 106.420, 121.750 102.448 C 121.750 101.122, 121.356 100.280, 120.875 100.577 C 120.394 100.875, 120 100.669, 120 100.121 C 120 99.573, 120.900 99.192, 122 99.275 C 123.198 99.365, 124 100.142, 124 101.213 C 124 102.196, 124.450 103, 125 103 C 126.092 103, 126.367 97.119, 125.393 94.582 C 125.059 93.712, 123.930 93, 122.884 93 C 121.795 93, 119.809 91.305, 118.240 89.038 C 115.492 85.064, 113.262 83.633, 114.387 86.565 M 75 87.441 C 75 88.234, 75.450 89.160, 76 89.500 C 77.664 90.529, 77.215 94.020, 75.503 93.363 C 74.636 93.030, 72.515 94.097, 70.468 95.894 C 66.337 99.521, 66.630 99.459, 63.465 97.385 C 61.951 96.393, 61 96.200, 61 96.885 C 61 97.498, 61.675 98, 62.500 98 C 63.562 98, 64 99.077, 64 101.691 C 64 105.151, 64.092 105.261, 65.468 103.441 C 66.939 101.496, 67.519 102.329, 67.075 105.750 C 66.807 107.809, 68.725 107.160, 69.290 105 C 69.577 103.900, 70.556 103, 71.465 103 C 72.408 103, 72.827 102.530, 72.441 101.905 C 71.422 100.256, 74.084 96, 76.134 96 C 79.230 96, 80.354 92.408, 78.330 88.981 C 76.438 85.778, 75 85.113, 75 87.441 M 72 87.941 C 72 88.459, 72.445 89.157, 72.989 89.493 C 73.555 89.843, 73.723 89.442, 73.382 88.552 C 72.717 86.820, 72 86.503, 72 87.941 M 123.813 88.683 C 124.534 88.972, 125.397 88.936, 125.729 88.604 C 126.061 88.272, 125.471 88.036, 124.417 88.079 C 123.252 88.127, 123.015 88.364, 123.813 88.683 M 89.015 97.536 C 89.043 99.257, 90.871 101.463, 91.636 100.697 C 92.046 100.288, 91.620 99.192, 90.690 98.262 C 89.761 97.332, 89.007 97.005, 89.015 97.536 M 47.636 105.507 C 47.196 106.652, 47.324 107.608, 47.943 107.814 C 48.524 108.008, 49 108.879, 49 109.750 C 49 110.621, 49.251 111.083, 49.557 110.776 C 49.863 110.470, 49.725 108.719, 49.250 106.885 C 48.510 104.027, 48.279 103.830, 47.636 105.507 M 81.431 104.888 C 82.002 105.813, 81.050 106.084, 69.525 108.276 C 65.688 109.006, 63.036 109.904, 63.632 110.272 C 64.227 110.640, 67.366 110.463, 70.607 109.878 C 73.848 109.293, 78.316 108.492, 80.537 108.098 C 87.321 106.894, 89.725 104, 83.941 104 C 82.259 104, 81.129 104.400, 81.431 104.888 M 59 110 C 59 110.550, 59.675 111, 60.500 111 C 61.325 111, 62 110.550, 62 110 C 62 109.450, 61.325 109, 60.500 109 C 59.675 109, 59 109.450, 59 110 M 70 119.059 C 70 119.641, 70.450 119.840, 71 119.500 C 71.550 119.160, 72 118.684, 72 118.441 C 72 118.198, 71.550 118, 71 118 C 70.450 118, 70 118.477, 70 119.059 M 43.124 127.214 C 30.544 133.303, 23.861 139.457, 19.191 149.250 C 18.994 149.662, 23.397 150, 28.976 150 C 35.483 150, 38.897 149.642, 38.500 149 C 38.160 148.450, 38.359 148, 38.941 148 C 39.523 148, 40 148.450, 40 149 C 40 149.617, 45.174 150, 53.523 150 L 67.046 150 65.400 147.487 C 64.442 146.025, 63.657 142.512, 63.523 139.086 C 63.313 133.703, 62.959 132.869, 59.396 129.349 C 57.253 127.232, 55.050 124.756, 54.500 123.846 C 53.610 122.373, 52.362 122.743, 43.124 127.214 M 128 125 C 128 125.550, 128.477 126, 129.059 126 C 129.641 126, 129.840 125.550, 129.500 125 C 129.160 124.450, 128.684 124, 128.441 124 C 128.198 124, 128 124.450, 128 125 M 137 128 C 137 128.550, 137.423 129, 137.941 129 C 138.459 129, 139.160 128.550, 139.500 128 C 139.840 127.450, 139.416 127, 138.559 127 C 137.702 127, 137 127.450, 137 128 M 132.564 131.293 C 132.940 132.279, 133.499 132.834, 133.807 132.526 C 134.115 132.219, 133.808 131.412, 133.124 130.733 C 132.136 129.753, 132.022 129.868, 132.564 131.293 M 65.071 140 C 65.006 143.602, 68.165 150, 70.008 150 C 70.579 150, 70.317 148.887, 69.425 147.526 C 68.534 146.166, 67.204 143.128, 66.469 140.776 L 65.134 136.500 65.071 140 M 124.500 141 C 124.160 141.550, 124.359 142, 124.941 142 C 125.523 142, 126 141.550, 126 141 C 126 140.450, 125.802 140, 125.559 140 C 125.316 140, 124.840 140.450, 124.500 141 M 127 141.858 C 127 142.886, 130.029 144.304, 130.729 143.605 C 130.972 143.361, 130.233 142.660, 129.086 142.046 C 127.938 141.432, 127 141.347, 127 141.858 M 49.500 143 C 49.840 143.550, 50.568 144, 51.118 144 C 51.668 144, 51.840 143.550, 51.500 143 C 51.160 142.450, 50.432 142, 49.882 142 C 49.332 142, 49.160 142.450, 49.500 143 M 125.768 147.168 C 126.350 147.750, 127.415 148.028, 128.137 147.788 C 128.886 147.538, 128.432 147.085, 127.080 146.731 C 125.417 146.296, 125.026 146.426, 125.768 147.168" stroke="none" fill="#3467df" fill-rule="evenodd"/>
</svg>