<svg xmlns="http://www.w3.org/2000/svg" width="60" height="60" viewBox="0 0 60 60" version="1.1">
	<rect x="0" y="0" width="100%" height="100%" fill="#bfbfbf" />
	<path d="M 56.371 3.750 C 56.672 5.813, 57.206 12.496, 57.559 18.602 C 58.563 36.004, 59.967 34.642, 59.985 16.250 C 60 0.434, 59.944 0, 57.912 0 C 56.069 0, 55.888 0.439, 56.371 3.750 M 23.007 3.593 C 15.218 6.971, 11.868 12.350, 11.982 21.294 C 12.149 34.338, 12.074 34.069, 14.807 31.336 C 17.009 29.134, 18.921 23.415, 18.278 20.955 C 17.280 17.140, 19.645 16, 28.557 16 C 33.129 16, 37.978 15.579, 39.331 15.064 C 42.919 13.700, 44.661 15.612, 45.420 21.750 L 46.069 27 41.593 27 C 36.727 27, 35.529 27.941, 36.500 30.999 C 37 32.576, 37.940 32.949, 41.107 32.825 C 43.550 32.729, 45.444 32.057, 46.013 31.084 C 46.746 29.829, 46.946 30.060, 46.970 32.191 C 46.986 33.671, 46.585 35.139, 46.077 35.452 C 45.569 35.766, 44.838 37.460, 44.452 39.217 L 43.751 42.412 41.375 39.650 C 40.069 38.131, 39 37.333, 39 37.877 C 39 39.495, 35.684 40.057, 32.138 39.040 C 29.271 38.217, 28.530 38.402, 26.661 40.403 C 25.319 41.840, 23.648 42.583, 22.250 42.364 C 20.684 42.120, 20 42.514, 20 43.661 C 20 45.139, 19.793 45.122, 18 43.500 C 16.900 42.505, 16 41.085, 16 40.345 C 16 38.232, 14.615 38.748, 11.468 42.033 C 9.870 43.702, 6.635 46.196, 4.281 47.575 C 0.150 49.996, 0 50.259, 0 55.057 L 0 60.029 30.250 59.765 L 60.500 59.500 60.644 54 C 60.724 50.975, 60.578 49.532, 60.319 50.794 C 59.952 52.584, 59.373 52.960, 57.675 52.508 C 55.491 51.927, 44.720 48.669, 44.247 48.447 C 44.108 48.381, 44.887 45.666, 45.978 42.414 C 47.068 39.161, 48.454 32.551, 49.057 27.725 C 50.075 19.582, 50.003 18.645, 48.059 14.725 C 45.233 9.026, 44.121 7.700, 39.594 4.628 C 35.086 1.569, 28.606 1.165, 23.007 3.593 M 23.929 9.205 C 20.378 11.382, 21.293 12.984, 24.965 11.019 C 26.107 10.408, 27.478 10.178, 28.013 10.508 C 28.547 10.838, 29.775 10.612, 30.742 10.006 C 32.235 9.071, 32.142 9.003, 30.125 9.559 C 28.597 9.981, 27.978 9.844, 28.391 9.176 C 29.657 7.128, 27.295 7.143, 23.929 9.205 M 22.590 28.901 C 21.644 29.946, 21.237 31.025, 21.685 31.299 C 22.578 31.843, 28.532 32.376, 31.143 32.145 C 33.277 31.957, 34.444 28.899, 32.784 27.845 C 30.356 26.305, 24.379 26.923, 22.590 28.901 M 28.397 41.409 C 27.453 43.867, 28.900 45.007, 32.809 44.884 C 34.839 44.820, 35.712 44.562, 34.750 44.311 C 33.788 44.059, 33 43.452, 33 42.962 C 33 42.472, 32.093 41.585, 30.985 40.992 C 29.410 40.149, 28.845 40.240, 28.397 41.409 M 24.500 46 C 24.160 46.550, 24.359 47, 24.941 47 C 25.523 47, 26 46.550, 26 46 C 26 45.450, 25.802 45, 25.559 45 C 25.316 45, 24.840 45.450, 24.500 46 M 28.229 49.500 C 28.490 52.390, 28.681 52.500, 33.417 52.500 C 36.461 52.500, 38.492 52.024, 38.750 51.250 C 39.042 50.373, 37.815 50, 34.633 50 C 31.390 50, 29.795 49.502, 29.029 48.250 C 28.136 46.790, 28.004 46.998, 28.229 49.500 M 32.250 47.689 C 33.212 47.941, 34.788 47.941, 35.750 47.689 C 36.712 47.438, 35.925 47.232, 34 47.232 C 32.075 47.232, 31.288 47.438, 32.250 47.689 M 0.300 55 C 0.300 58.025, 0.487 59.263, 0.716 57.750 C 0.945 56.237, 0.945 53.763, 0.716 52.250 C 0.487 50.737, 0.300 51.975, 0.300 55" stroke="none" fill="#3467df" fill-rule="evenodd"/>
</svg>