<svg xmlns="http://www.w3.org/2000/svg" width="60" height="60" viewBox="0 0 60 60" version="1.1">
	<rect x="0" y="0" width="100%" height="100%" fill="#bfbfbf" />
	<path d="M 1.504 2.250 C 0.447 5.509, -0.358 60.011, 0.651 59.944 C 1.118 59.913, 3.747 57.213, 6.493 53.944 C 11.272 48.255, 15 46.307, 15 49.500 C 15 51.187, 18.466 55, 20 55 C 20.550 55, 21 56.135, 21 57.521 L 21 60.042 40.750 59.771 L 60.500 59.500 60.684 42 C 60.785 32.375, 60.635 25.063, 60.351 25.750 C 60.066 26.437, 59.186 27, 58.395 27 C 57.604 27, 56.445 28.125, 55.818 29.500 C 54.449 32.505, 53 32.762, 53 30 C 53 28.889, 52.333 28, 51.500 28 C 50.667 28, 50 28.889, 50 30 C 50 31.100, 49.550 32, 49 32 C 48.450 32, 47.993 31.438, 47.985 30.750 C 47.974 29.903, 47.669 29.975, 47.039 30.971 C 45.834 32.876, 44.962 31.945, 44.705 28.481 C 44.474 25.365, 46.580 23.915, 47.300 26.695 C 47.730 28.354, 47.777 28.358, 47.884 26.750 C 47.970 25.457, 48.869 25, 51.326 25 C 54.995 25, 58.901 21.720, 59.142 18.436 C 59.220 17.371, 59.606 18.300, 60 20.500 L 60.716 24.500 60.858 19.901 C 60.936 17.371, 60.706 11.824, 60.347 7.573 L 59.693 -0.157 47.448 0.172 C 37.496 0.439, 34.842 0.828, 33.271 2.252 C 32.208 3.216, 31.016 3.683, 30.623 3.290 C 29.944 2.610, 30.691 9.987, 31.593 12.857 C 31.827 13.603, 30.665 15.756, 29.010 17.642 C 27.354 19.527, 26 21.725, 26 22.526 C 26 23.328, 25.142 24.519, 24.094 25.173 C 22.586 26.115, 22.377 26.862, 23.094 28.747 C 24.234 31.745, 24.226 32, 23 32 C 22.450 32, 22 31.325, 22 30.500 C 22 29.675, 21.550 29, 21 29 C 20.450 29, 20 29.675, 20 30.500 C 20 31.325, 19.550 32, 19 32 C 18.450 32, 18 31.239, 18 30.309 C 18 28.834, 17.812 28.866, 16.532 30.559 C 15.512 31.907, 15.054 32.071, 15.032 31.095 C 15.006 29.976, 14.628 30.026, 13.171 31.345 C 10.722 33.562, 10.012 33.431, 9.937 30.750 L 9.873 28.500 8.969 30.750 C 7.668 33.987, 5.590 33.520, 4.201 29.679 C 2.509 25.001, 2.510 25, 7.482 25 L 11.964 25 11.852 20.023 C 11.782 16.939, 12.360 14.100, 13.370 12.558 C 14.266 11.190, 15 8.675, 15 6.969 C 15 5.264, 15.466 2.998, 16.035 1.934 C 17.015 0.103, 16.676 0, 9.652 0 C 2.841 0, 2.173 0.184, 1.504 2.250 M 52.387 9.523 C 51.537 12.237, 51.577 13, 52.567 13 C 53.265 13, 54.522 13.263, 55.359 13.584 C 57.332 14.341, 56.969 9.541, 54.897 7.468 C 53.668 6.239, 53.327 6.517, 52.387 9.523 M 0.336 18 C 0.336 22.125, 0.513 23.813, 0.728 21.750 C 0.944 19.688, 0.944 16.313, 0.728 14.250 C 0.513 12.188, 0.336 13.875, 0.336 18 M 25.004 28.750 C 25 31.672, 25.293 32, 27.906 32 C 30.294 32, 30.722 31.652, 30.304 30.054 C 30.024 28.983, 29.053 27.892, 28.147 27.628 C 27.241 27.365, 28.057 27.228, 29.961 27.325 C 32.729 27.465, 33.559 28, 34.111 30 C 34.747 32.306, 34.808 32.329, 34.900 30.300 C 34.955 29.090, 35.788 27.641, 36.750 27.080 C 38.832 25.868, 38.265 25.728, 30.754 25.599 L 25.008 25.500 25.004 28.750 M 38.529 28.250 C 37.162 31.481, 37.171 31.502, 40.173 31.821 C 44.040 32.231, 44.234 31.971, 42.907 28.162 C 41.503 24.135, 40.259 24.160, 38.529 28.250 M 0.411 43 C 0.411 52.625, 0.561 56.563, 0.745 51.750 C 0.928 46.937, 0.928 39.062, 0.745 34.250 C 0.561 29.437, 0.411 33.375, 0.411 43" stroke="none" fill="#3467df" fill-rule="evenodd"/>
</svg>