<svg xmlns="http://www.w3.org/2000/svg" width="60" height="60" viewBox="0 0 60 60" version="1.1">
	<rect x="0" y="0" width="100%" height="100%" fill="#bfbfbf" />
	<path d="M 0 2.939 C 0 5.692, 0.299 5.916, 4.750 6.487 C 7.362 6.822, 11.400 7.580, 13.721 8.170 C 17.754 9.196, 17.877 9.338, 16.471 11.344 C 15.662 12.500, 15 14.906, 15 16.691 C 15 19.035, 14.618 19.791, 13.625 19.410 C 12.679 19.047, 12.250 19.681, 12.250 21.441 C 12.250 23.276, 12.780 24, 14.125 24 C 15.156 24, 16 24.509, 16 25.130 C 16 26.253, 12.474 26.051, 3.691 24.425 L -0.118 23.719 0.191 28.859 C 0.361 31.687, 0.893 34, 1.372 34 C 1.852 34, 1.721 34.631, 1.080 35.403 C 0.342 36.293, 0.023 39.859, 0.208 45.153 C 0.518 54.008, 0.762 54.016, 4.016 45.283 C 4.676 43.514, 6.067 41.796, 7.108 41.466 C 8.148 41.136, 9 40.255, 9 39.510 C 9 37.692, 14.931 31.839, 16.063 32.539 C 16.556 32.843, 17.959 32.557, 19.182 31.903 C 20.834 31.018, 21.502 31.007, 21.786 31.857 C 22.281 33.342, 25.674 33.336, 26.593 31.849 C 27.008 31.177, 25.927 29.573, 24 28 C 20.967 25.525, 20.522 23, 23.118 23 C 23.668 23, 23.882 23.382, 23.593 23.849 C 23.304 24.316, 24.178 25.292, 25.534 26.018 C 27.253 26.938, 28 28.185, 28 30.134 C 28 33.880, 31.240 35.722, 34.317 33.726 C 37.600 31.598, 39.061 32.527, 37.857 35.979 C 37.309 37.552, 36.254 39.072, 35.514 39.356 C 33.459 40.145, 23 38.845, 23 37.801 C 23 37.296, 22.582 37.140, 22.072 37.456 C 21.562 37.771, 20.856 37.123, 20.505 36.015 C 19.673 33.395, 18.026 33.382, 18.710 36 C 19.003 37.118, 18.741 38, 18.117 38 C 17.502 38, 17 38.705, 17 39.567 C 17 40.657, 16.416 40.949, 15.084 40.527 C 12.157 39.598, 11.718 41.526, 13.887 45.778 C 15.633 49.201, 15.510 52.336, 13.638 52.085 C 11.779 51.837, 11 52.097, 11 52.969 C 11 53.501, 11.704 53.667, 12.564 53.337 C 13.424 53.007, 12.733 54.259, 11.029 56.119 C 8.427 58.960, 8.206 59.557, 9.650 59.859 C 10.595 60.056, 11.960 59.408, 12.684 58.418 C 13.408 57.428, 14.014 57.041, 14.030 57.559 C 14.047 58.076, 14.519 57.713, 15.080 56.750 C 16.598 54.143, 18.305 54.622, 17.755 57.500 C 17.492 58.875, 17.665 60, 18.139 60 C 19.329 60, 19.224 55.624, 18.004 54.404 C 16.445 52.845, 16.033 47.075, 17.522 47.647 C 18.337 47.959, 19.073 46.474, 19.672 43.311 C 20.539 38.731, 20.644 38.610, 21.853 40.799 C 22.859 42.621, 22.872 43.866, 21.916 46.799 C 21.253 48.835, 20.302 50.766, 19.804 51.091 C 19.283 51.430, 19.419 52.825, 20.122 54.369 C 21.709 57.852, 22.964 56.047, 22.985 50.250 C 22.993 47.913, 23.283 46, 23.629 46 C 23.975 46, 26.012 47.585, 28.156 49.522 C 31.434 52.483, 32.687 53.001, 36.026 52.772 C 38.210 52.622, 39.998 52.270, 39.999 51.990 C 39.999 51.709, 41.177 50.211, 42.615 48.659 C 44.817 46.284, 45.133 45.235, 44.617 42.007 C 44.280 39.899, 43.730 37.461, 43.395 36.587 C 43.060 35.714, 43.284 35, 43.893 35 C 44.502 35, 45.046 36.237, 45.102 37.750 C 45.170 39.551, 45.642 38.603, 46.473 35 C 48.777 25.002, 49.911 24.077, 53.134 29.569 C 55.488 33.581, 55.397 34.138, 52.500 33.411 C 49.310 32.610, 49.258 34.149, 52.426 35.617 C 54.521 36.589, 54.919 36.458, 55.469 34.617 L 56.102 32.500 57.019 34.750 C 57.523 35.987, 58.381 37, 58.926 37 C 59.470 37, 60.084 40.262, 60.289 44.250 C 60.537 49.074, 60.680 47.652, 60.714 40 C 60.742 33.675, 60.535 25.462, 60.254 21.750 C 59.812 15.925, 59.477 15, 57.812 15 C 56.698 15, 56.161 14.548, 56.542 13.932 C 56.905 13.344, 57.850 13.112, 58.641 13.416 C 59.740 13.837, 60.064 13.086, 60.016 10.234 C 59.981 8.180, 60.240 5.037, 60.590 3.250 L 61.227 -0 30.613 -0 L 0 0 0 2.939 M 0.195 3.500 C 0.215 5.150, 0.439 5.704, 0.693 4.731 C 0.947 3.758, 0.930 2.408, 0.656 1.731 C 0.382 1.054, 0.175 1.850, 0.195 3.500 M 52 5 C 52 5.550, 52.477 6, 53.059 6 C 53.641 6, 53.840 5.550, 53.500 5 C 53.160 4.450, 52.684 4, 52.441 4 C 52.198 4, 52 4.450, 52 5 M 50 7.921 C 50 8.427, 48.606 9.147, 46.901 9.522 C 44.784 9.987, 44.127 10.527, 44.828 11.228 C 45.529 11.929, 46.950 11.576, 49.315 10.114 C 52.347 8.240, 52.851 8.170, 53.381 9.551 C 54.082 11.378, 56 10.566, 56 8.441 C 56 7.507, 54.945 7, 53 7 C 51.350 7, 50 7.414, 50 7.921 M 32.865 11.539 C 34.715 12.343, 36.515 12.984, 36.865 12.965 C 38.166 12.892, 32.441 10.071, 31 10.075 C 30.175 10.077, 31.014 10.736, 32.865 11.539 M 6.244 18.720 C 5.553 18.968, 5.242 19.582, 5.553 20.085 C 5.864 20.588, 5.416 21, 4.559 21 C 3.702 21, 3 21.436, 3 21.969 C 3 22.501, 3.675 22.678, 4.500 22.362 C 5.325 22.045, 6 22.270, 6 22.862 C 6 23.453, 6.675 23.678, 7.500 23.362 C 9.047 22.768, 9.580 19.446, 8.250 18.694 C 7.838 18.461, 6.935 18.473, 6.244 18.720 M 0.252 27.500 C 0.263 29.700, 0.468 30.482, 0.707 29.238 C 0.946 27.994, 0.937 26.194, 0.687 25.238 C 0.437 24.282, 0.241 25.300, 0.252 27.500 M 17 29.059 C 17 29.641, 17.450 29.840, 18 29.500 C 18.550 29.160, 19 28.684, 19 28.441 C 19 28.198, 18.550 28, 18 28 C 17.450 28, 17 28.477, 17 29.059 M 8 31.500 C 8 32.325, 8.177 33, 8.393 33 C 8.609 33, 9.045 32.325, 9.362 31.500 C 9.678 30.675, 9.501 30, 8.969 30 C 8.436 30, 8 30.675, 8 31.500 M 3 34.059 C 3 34.641, 3.450 34.840, 4 34.500 C 4.550 34.160, 5 33.684, 5 33.441 C 5 33.198, 4.550 33, 4 33 C 3.450 33, 3 33.477, 3 34.059 M 0.355 44.500 C 0.352 49.450, 0.521 51.601, 0.731 49.280 C 0.940 46.959, 0.943 42.909, 0.736 40.280 C 0.530 37.651, 0.358 39.550, 0.355 44.500 M 46.473 53.250 C 46.218 53.938, 46.389 55.850, 46.852 57.500 C 47.684 60.464, 47.700 60.449, 48.124 56.250 C 48.525 52.278, 47.515 50.442, 46.473 53.250 M 37.667 54.667 C 37.300 55.033, 37.029 56.271, 37.063 57.417 C 37.122 59.332, 37.204 59.307, 38.085 57.105 C 39.064 54.657, 38.861 53.472, 37.667 54.667 M 0 58.500 C 0 59.325, 0.675 60, 1.500 60 C 2.325 60, 3 59.325, 3 58.500 C 3 57.675, 2.325 57, 1.500 57 C 0.675 57, 0 57.675, 0 58.500" stroke="none" fill="#3467df" fill-rule="evenodd"/>
</svg>