<svg xmlns="http://www.w3.org/2000/svg" width="60" height="60" viewBox="0 0 60 60" version="1.1">
	<rect x="0" y="0" width="100%" height="100%" fill="#bfbfbf" />
	<path d="M 26.546 8.739 C 26.121 9.970, 25.405 10.750, 24.955 10.472 C 24.505 10.194, 23.431 10.974, 22.568 12.206 C 21.595 13.596, 21 13.905, 21 13.023 C 21 11.845, 20.785 11.828, 19.750 12.925 C 18.750 13.985, 18.750 14.342, 19.750 14.708 C 21.662 15.409, 21.240 16.704, 18.899 17.316 C 17.721 17.624, 17.093 18.341, 17.468 18.949 C 17.837 19.545, 18.557 19.774, 19.069 19.457 C 19.581 19.141, 20 19.310, 20 19.834 C 20 20.358, 19.325 21.045, 18.500 21.362 C 17.381 21.791, 17 23.578, 17 28.404 C 17 37.806, 16.283 38.961, 7.628 43.506 L 0.022 47.500 0.011 53.750 L 0 60 11.500 60 C 22.460 60, 23 59.903, 23 57.932 L 23 55.864 25.904 57.932 C 27.502 59.069, 30.089 59.990, 31.654 59.977 C 36.032 59.941, 41.582 54.287, 44.553 46.836 L 47.080 40.500 46.572 45.876 C 46.293 48.834, 45.319 52.391, 44.408 53.781 C 42.895 56.090, 42.892 56.255, 44.376 55.686 C 45.604 55.215, 46 55.664, 46 57.531 C 46 59.922, 46.222 60, 53.031 60 C 58.415 60, 60.200 59.642, 60.649 58.472 C 60.971 57.632, 60.914 52.232, 60.521 46.472 C 59.990 38.673, 59.461 36, 58.451 36 C 57.705 36, 55.930 35.470, 54.507 34.821 C 52.341 33.834, 52.020 33.184, 52.538 30.826 C 53.064 28.433, 52.760 27.859, 50.518 27.007 C 49.067 26.455, 48.161 25.549, 48.505 24.992 C 48.849 24.436, 48.201 22.799, 47.065 21.355 C 45.929 19.912, 45 18.106, 45 17.344 C 45 16.581, 43.875 15.445, 42.500 14.818 C 41.125 14.192, 40 13.246, 40 12.717 C 40 12.188, 39.256 12.373, 38.347 13.128 C 36.624 14.558, 32 15.113, 32 13.890 C 32 13.504, 31.130 13.415, 30.066 13.693 C 28.446 14.117, 28.067 13.575, 27.726 10.349 C 27.379 7.059, 27.208 6.825, 26.546 8.739 M 32 11 C 30.718 11.828, 30.754 11.972, 32.250 11.985 C 33.212 11.993, 34 11.550, 34 11 C 34 9.780, 33.887 9.780, 32 11 M 42.232 37 C 42.919 38.100, 43.823 39, 44.241 39 C 44.658 39, 45 38.100, 45 37 C 45 35.664, 44.333 35, 42.992 35 C 41.233 35, 41.139 35.249, 42.232 37 M 0.328 53.500 C 0.333 57.350, 0.513 58.802, 0.730 56.728 C 0.946 54.653, 0.943 51.503, 0.722 49.728 C 0.501 47.952, 0.324 49.650, 0.328 53.500" stroke="none" fill="#3467df" fill-rule="evenodd"/>
</svg>