<svg xmlns="http://www.w3.org/2000/svg" width="60" height="60" viewBox="0 0 60 60" version="1.1">
	<rect x="0" y="0" width="100%" height="100%" fill="#bfbfbf" />
	<path d="M 29.168 13.917 C 29.076 15.246, 28.721 16.055, 28.381 15.714 C 27.379 14.712, 25 17.678, 25 19.929 C 25 21.068, 24.550 22, 24 22 C 23.450 22, 23 20.820, 23 19.378 C 23 17.263, 22.733 16.977, 21.622 17.899 C 20.535 18.801, 20.087 18.563, 19.500 16.771 C 18.826 14.716, 18.694 14.833, 18.105 18 L 17.455 21.500 16.279 18.250 C 14.953 14.583, 14.467 14.206, 14.344 16.750 C 14.184 20.048, 12.973 27.360, 12.511 27.823 C 11.616 28.717, 9 25.733, 9 23.819 C 9 22.753, 8.550 22.160, 8 22.500 C 7.417 22.861, 7 21.844, 7 20.059 C 7 17.730, 6.551 17, 5.117 17 C 3.198 17, 2.039 19.520, 2.014 23.750 C 2.006 24.988, 1.550 26, 1 26 C -0.305 26, -0.305 35.694, 1 36.500 C 1.550 36.840, 2 38.355, 2 39.868 C 2 43.205, 4.264 46.573, 5.848 45.594 C 6.482 45.202, 7 43.532, 7 41.882 C 7 40.137, 7.418 39.140, 8 39.500 C 8.550 39.840, 9 39.384, 9 38.488 C 9 36.925, 11.235 34, 12.429 34 C 12.743 34, 13.035 35.237, 13.077 36.750 C 13.119 38.263, 13.706 41.300, 14.381 43.500 L 15.608 47.500 16.479 44 L 17.351 40.500 17.739 43.750 C 18.178 47.427, 19.958 48.188, 20.079 44.750 C 20.122 43.513, 20.385 43.063, 20.662 43.750 C 21.443 45.685, 23 45.225, 23 43.059 C 23 41.991, 23.450 40.840, 24 40.500 C 24.588 40.137, 25 41.212, 25 43.108 C 25 44.882, 25.279 46.055, 25.619 45.714 C 26.341 44.992, 28.421 46.879, 29.260 49.018 C 29.580 49.833, 29.930 47.800, 30.037 44.500 C 30.144 41.200, 30.468 39.400, 30.756 40.500 C 31.190 42.153, 31.488 41.896, 32.475 39.014 L 33.669 35.528 34.357 39.830 C 34.735 42.196, 35.588 44.714, 36.252 45.425 C 37.221 46.462, 37.784 46.003, 39.095 43.109 L 40.729 39.500 41.783 42 C 42.363 43.375, 43.161 45.400, 43.557 46.500 C 44.159 48.174, 44.410 47.910, 45.096 44.879 C 46.016 40.811, 49.746 34, 51.053 34 C 51.524 34, 52.042 37.038, 52.204 40.750 L 52.500 47.500 54.487 43.500 L 56.473 39.500 57.118 42.500 C 57.660 45.020, 57.782 44.735, 57.882 40.719 C 57.962 37.473, 58.482 35.752, 59.500 35.362 C 60.580 34.947, 60.978 33.346, 60.921 29.643 C 60.878 26.814, 60.614 25.065, 60.336 25.756 C 59.328 28.255, 57.997 25.779, 57.882 21.191 C 57.780 17.168, 57.669 16.927, 57.101 19.500 L 56.438 22.500 54.975 19.250 C 54.170 17.462, 53.172 16, 52.756 16 C 52.340 16, 52 18.700, 52 22 C 52 25.300, 51.569 28, 51.042 28 C 49.619 28, 45 19.669, 45 17.103 C 45 14.056, 43.301 15.351, 42.497 19.011 C 41.660 22.824, 40.574 22.800, 38.973 18.934 C 37.872 16.278, 37.512 16.059, 36.275 17.297 C 35.489 18.082, 34.570 20.699, 34.232 23.112 L 33.618 27.500 32.386 23.500 C 31.572 20.859, 31.070 20.179, 30.909 21.500 C 30.774 22.600, 30.365 20.800, 30 17.500 C 29.635 14.200, 29.261 12.587, 29.168 13.917 M 0.300 31 C 0.300 34.025, 0.487 35.263, 0.716 33.750 C 0.945 32.238, 0.945 29.763, 0.716 28.250 C 0.487 26.738, 0.300 27.975, 0.300 31" stroke="none" fill="#3467df" fill-rule="evenodd"/>
</svg>