<svg xmlns="http://www.w3.org/2000/svg" width="60" height="60" viewBox="0 0 60 60" version="1.1">
	<rect x="0" y="0" width="100%" height="100%" fill="#bfbfbf" />
	<path d="M 0.164 19.038 L -0.083 38.076 4.976 35.512 C 8.549 33.702, 10.544 33.213, 11.768 33.848 C 13.905 34.957, 17.691 34.709, 19.029 33.371 C 19.692 32.708, 19.185 31.583, 17.513 30.012 C 15.089 27.735, 14.073 24, 15.878 24 C 17.290 24, 19.051 26.609, 18.241 27.501 C 17.834 27.951, 18.288 28.036, 19.250 27.691 C 20.213 27.345, 21 27.499, 21 28.031 C 21 28.564, 21.580 29, 22.289 29 C 22.998 29, 24.631 26.609, 25.918 23.687 C 28.564 17.676, 32.803 14.761, 35.565 17.054 C 36.392 17.741, 38.403 18.264, 40.032 18.218 C 42.371 18.152, 43.124 18.646, 43.606 20.565 C 43.941 21.902, 43.954 23.677, 43.634 24.510 C 43.188 25.673, 43.579 25.893, 45.320 25.456 C 46.846 25.073, 48.178 25.539, 49.392 26.880 C 51.843 29.589, 50.660 31, 45.941 31 C 43.773 31, 42 31.486, 42 32.079 C 42 32.755, 43.105 32.916, 44.951 32.511 C 47.219 32.013, 48.312 32.341, 49.673 33.931 C 50.647 35.069, 52.046 36, 52.781 36 C 53.516 36, 53.840 36.450, 53.501 36.999 C 53.161 37.549, 54.432 40.746, 56.324 44.104 L 59.765 50.210 60.428 37.355 C 60.793 30.285, 60.962 18.988, 60.803 12.250 L 60.515 0 30.463 0 L 0.410 0 0.164 19.038 M 0.195 3.500 C 0.215 5.150, 0.439 5.704, 0.693 4.731 C 0.947 3.758, 0.930 2.408, 0.656 1.731 C 0.382 1.054, 0.175 1.850, 0.195 3.500 M 0.392 25 C 0.392 32.425, 0.549 35.462, 0.742 31.750 C 0.934 28.038, 0.934 21.962, 0.742 18.250 C 0.549 14.537, 0.392 17.575, 0.392 25 M 33 28 C 33 28.550, 33.675 29, 34.500 29 C 35.325 29, 36 28.550, 36 28 C 36 27.450, 35.325 27, 34.500 27 C 33.675 27, 33 27.450, 33 28 M 40 28 C 40 28.550, 40.675 29, 41.500 29 C 42.325 29, 43 28.550, 43 28 C 43 27.450, 42.325 27, 41.500 27 C 40.675 27, 40 27.450, 40 28 M 55 35.906 C 55 36.405, 55.900 36.577, 57 36.290 C 58.100 36.002, 59 35.594, 59 35.383 C 59 35.173, 58.100 35, 57 35 C 55.900 35, 55 35.408, 55 35.906 M 38.607 37.582 C 37.646 40.086, 37.895 41.667, 39.250 41.667 C 39.956 41.667, 40.500 40.433, 40.500 38.833 C 40.500 35.724, 39.559 35.102, 38.607 37.582 M 42.079 43.583 C 42.127 44.748, 42.364 44.985, 42.683 44.188 C 42.972 43.466, 42.936 42.603, 42.604 42.271 C 42.272 41.939, 42.036 42.529, 42.079 43.583 M 47 43 C 47 43.550, 47.477 44, 48.059 44 C 48.641 44, 48.840 43.550, 48.500 43 C 48.160 42.450, 47.684 42, 47.441 42 C 47.198 42, 47 42.450, 47 43 M 45 44.753 C 45 45.178, 46.159 46.396, 47.576 47.460 C 48.993 48.524, 50.827 50.698, 51.650 52.290 C 53.511 55.890, 54.691 55.074, 53.108 51.282 C 52.027 48.696, 45 43.037, 45 44.753 M 30.098 48.149 C 28.547 52.598, 28.736 53.823, 30.568 51.206 C 31.431 49.974, 32.556 49.226, 33.068 49.542 C 33.581 49.859, 34 49.143, 34 47.952 C 34 46.424, 34.442 45.965, 35.500 46.393 C 36.325 46.727, 37.680 47.275, 38.511 47.611 C 39.599 48.051, 39.849 47.771, 39.404 46.611 C 38.986 45.521, 37.558 45, 34.991 45 C 31.633 45, 31.069 45.363, 30.098 48.149 M 36.287 51.917 C 37.875 55.670, 38.707 56.400, 38.419 53.785 C 38.280 52.528, 38.129 51.013, 38.083 50.417 C 38.038 49.821, 37.369 49.333, 36.597 49.333 C 35.474 49.333, 35.412 49.847, 36.287 51.917 M 43.813 50.683 C 44.534 50.972, 45.397 50.936, 45.729 50.604 C 46.061 50.272, 45.471 50.036, 44.417 50.079 C 43.252 50.127, 43.015 50.364, 43.813 50.683 M 32.964 54.164 C 31.819 56.397, 31.846 56.424, 33.574 54.774 C 34.568 53.824, 35.107 52.773, 34.771 52.438 C 34.436 52.103, 33.623 52.880, 32.964 54.164 M 52 58 C 52.589 59.100, 53.295 60, 53.570 60 C 53.845 60, 53.589 59.100, 53 58 C 52.411 56.900, 51.705 56, 51.430 56 C 51.155 56, 51.411 56.900, 52 58" stroke="none" fill="#3467df" fill-rule="evenodd"/>
</svg>