<svg xmlns="http://www.w3.org/2000/svg" width="60" height="60" viewBox="0 0 60 60" version="1.1">
	<rect x="0" y="0" width="100%" height="100%" fill="#bfbfbf" />
	<path d="M 0 30 L 0 60 8.131 60 L 16.262 60 15.729 56.718 C 15.422 54.826, 15.775 52.390, 16.563 50.968 L 17.929 48.500 17.965 51.169 C 18.005 54.190, 20.984 59.986, 22.500 59.991 C 23.050 59.993, 24.400 58.648, 25.500 57.004 C 26.600 55.359, 29.262 52.773, 31.416 51.257 C 36.338 47.791, 41.304 43.103, 42.808 40.500 C 43.801 38.781, 44.104 38.711, 44.966 40 C 46.740 42.653, 46.086 45.385, 42 52.377 C 39.800 56.142, 38 59.412, 38 59.644 C 38 59.876, 43.062 59.938, 49.250 59.783 L 60.500 59.500 60.765 29.750 L 61.030 0 30.515 0 L 0 0 0 30 M 0.443 30.500 C 0.443 47, 0.580 53.890, 0.748 45.812 C 0.915 37.733, 0.916 24.233, 0.748 15.812 C 0.581 7.390, 0.444 14, 0.443 30.500 M 28.637 12.276 C 26.820 13.604, 27.278 17, 29.274 17 C 29.856 17, 30.041 16.707, 29.683 16.350 C 29.325 15.992, 30.173 14.642, 31.568 13.350 C 33.779 11.301, 33.865 11, 32.243 11 C 31.219 11, 29.597 11.574, 28.637 12.276 M 25.349 17.812 C 24.512 19.152, 24.550 20.031, 25.499 21.329 C 26.598 22.832, 26.840 22.859, 27.350 21.531 C 27.672 20.690, 27.605 19.107, 27.201 18.014 C 26.505 16.133, 26.405 16.122, 25.349 17.812 M 32.440 17.893 C 32.106 18.227, 31.346 18.500, 30.750 18.500 C 30.154 18.500, 29.479 19.063, 29.250 19.750 C 28.738 21.285, 30.420 21.238, 34.993 19.587 L 38.486 18.326 35.767 17.806 C 34.271 17.520, 32.774 17.559, 32.440 17.893 M 28.551 23.250 C 27.641 26.195, 27.258 33, 28.003 33 C 28.449 33, 28.969 30.524, 29.157 27.499 C 29.495 22.081, 29.311 20.792, 28.551 23.250 M 37.691 29.738 C 36.260 31.168, 35.631 31.251, 33.984 30.222 C 31.299 28.545, 31.495 29.872, 34.469 33.500 C 35.826 35.155, 36.944 35.880, 36.964 35.117 C 36.984 34.357, 37.980 32.884, 39.178 31.845 C 40.587 30.624, 41.013 29.613, 40.385 28.985 C 39.757 28.357, 38.806 28.623, 37.691 29.738 M 36.583 39.866 C 36.152 40.563, 36.070 41.403, 36.400 41.733 C 37.295 42.628, 38.271 41.312, 37.787 39.862 C 37.449 38.846, 37.213 38.846, 36.583 39.866 M 29.813 45.683 C 30.534 45.972, 31.397 45.936, 31.729 45.604 C 32.061 45.272, 31.471 45.036, 30.417 45.079 C 29.252 45.127, 29.015 45.364, 29.813 45.683 M 17.564 58.293 C 17.940 59.279, 18.499 59.834, 18.807 59.526 C 19.115 59.219, 18.808 58.412, 18.124 57.733 C 17.136 56.753, 17.022 56.868, 17.564 58.293" stroke="none" fill="#3467df" fill-rule="evenodd"/>
</svg>