<svg xmlns="http://www.w3.org/2000/svg" width="180" height="135" viewBox="0 0 180 135" version="1.1">
	<rect x="0" y="0" width="100%" height="100%" fill="#bfbfbf" />
	<path d="M 0 67.505 L 0 135.011 90.250 134.755 L 180.500 134.500 180.757 67.250 L 181.014 0 143.872 -0 L 106.730 -0 109.273 2 C 110.671 3.100, 112.644 4.016, 113.658 4.035 C 116.201 4.084, 118.734 5.691, 125.331 11.441 C 128.449 14.158, 131 17.196, 131 18.191 C 131 19.186, 131.477 20, 132.059 20 C 132.641 20, 132.848 20.437, 132.518 20.971 C 132.188 21.504, 132.691 23.417, 133.636 25.221 C 134.580 27.024, 135.268 29.712, 135.165 31.194 C 135.053 32.796, 135.636 34.256, 136.602 34.797 C 137.885 35.515, 138 36.131, 137.149 37.722 C 136.556 38.830, 136.344 40.010, 136.678 40.344 C 137.012 40.678, 136.823 41.525, 136.259 42.226 C 135.695 42.927, 135.294 45.525, 135.367 48 C 135.522 53.230, 133.024 56.938, 130.994 54.493 C 129.879 53.150, 126.592 53.531, 127.441 54.905 C 127.677 55.287, 126.935 56.184, 125.791 56.899 C 123.819 58.130, 123.743 58.037, 124.330 55.099 C 124.890 52.301, 124.709 52, 122.475 52 C 119.722 52, 119.004 54.680, 121.500 55.638 C 122.325 55.955, 123 56.642, 123 57.166 C 123 57.690, 122.484 57.799, 121.854 57.410 C 121.054 56.915, 120.900 57.466, 121.344 59.236 C 121.763 60.904, 121.471 62.195, 120.490 63.008 C 118.666 64.522, 118.458 67.435, 120.250 66.387 C 120.938 65.985, 120.651 66.624, 119.614 67.807 C 117.956 69.698, 117.918 70.031, 119.295 70.560 C 120.259 70.929, 120.829 72.296, 120.778 74.111 L 120.694 77.061 118.347 74.856 C 115.454 72.139, 115.405 71.676, 118.099 72.531 C 120.194 73.196, 120.194 73.194, 118.037 71.037 C 114.974 67.974, 111.790 68.719, 110.633 72.770 C 109.904 75.323, 109.294 75.911, 107.850 75.452 C 105.805 74.803, 105.257 76.532, 107.250 77.341 C 108.194 77.724, 108.133 78.134, 107 79.018 C 105.687 80.043, 105.700 80.126, 107.103 79.682 C 109.218 79.014, 112.568 82.832, 111.129 84.271 C 110.403 84.997, 109.615 84.925, 108.542 84.035 C 107.694 83.331, 107 83.125, 107 83.578 C 107 84.030, 106.495 83.895, 105.878 83.278 C 105.261 82.661, 104.208 82.367, 103.538 82.624 C 102.868 82.881, 101.686 82.309, 100.910 81.354 C 99.683 79.841, 99.694 79.725, 101 80.455 C 102.197 81.124, 102.256 81.030, 101.292 79.989 C 100.364 78.986, 99.759 78.955, 98.675 79.855 C 96.993 81.250, 96.252 80.505, 93.101 74.250 C 91.923 71.913, 90.742 70, 90.476 70 C 90.210 70, 90.107 71.463, 90.246 73.250 C 90.429 75.597, 90.112 76.417, 89.103 76.201 C 88.334 76.036, 84.669 75.746, 80.957 75.555 C 74.273 75.212, 74.203 75.236, 73.653 77.984 C 72.997 81.264, 69.802 84.906, 69.190 83.071 C 68.971 82.412, 69.626 81.241, 70.646 80.468 C 71.665 79.696, 72.111 79.049, 71.635 79.032 C 71.159 79.014, 71.426 77.987, 72.227 76.750 C 73.721 74.442, 75.386 69, 74.598 69 C 74.356 69, 72.276 70.864, 69.976 73.141 C 66.700 76.384, 65.602 76.981, 64.912 75.891 C 63.832 74.186, 63.838 75.208, 64.942 80.927 C 65.517 83.907, 65.424 85.950, 64.658 87.177 C 63.108 89.658, 62.063 89.476, 62.751 86.844 C 63.138 85.366, 62.951 84.912, 62.158 85.403 C 61.521 85.796, 61 85.641, 61 85.059 C 61 84.477, 61.450 84, 62 84 C 62.550 84, 62.993 82.987, 62.985 81.750 C 62.974 80.122, 62.734 79.872, 62.117 80.845 C 59.948 84.267, 58.455 68.918, 60.118 60.298 C 61.732 51.936, 61.926 37.814, 60.421 38.392 C 57.292 39.593, 57.133 27.499, 60.202 21.784 C 61.466 19.431, 62.785 17.279, 63.134 17.003 C 63.483 16.726, 63.939 15.600, 64.148 14.500 C 64.357 13.400, 65.008 12.500, 65.595 12.500 C 66.182 12.500, 68.254 10.812, 70.199 8.750 C 72.145 6.688, 74.422 5, 75.261 5 C 76.100 5, 77.063 4.277, 77.402 3.394 C 77.814 2.322, 78.764 1.966, 80.259 2.324 C 81.492 2.620, 83.850 2.254, 85.500 1.512 C 88.076 0.353, 82.248 0.151, 44.250 0.081 L 0 0 0 67.505 M 0.472 68 C 0.472 105.125, 0.597 120.313, 0.750 101.750 C 0.902 83.188, 0.902 52.813, 0.750 34.250 C 0.597 15.688, 0.472 30.875, 0.472 68 M 85.015 7.136 C 85.007 8.036, 83.425 9.520, 81.500 10.433 C 77.922 12.131, 76.589 14.554, 79.750 13.615 C 80.713 13.329, 82.737 12.800, 84.250 12.439 C 87.098 11.760, 87.756 9.717, 86 7 C 85.158 5.697, 85.029 5.714, 85.015 7.136 M 87.584 8.359 C 88.424 10.549, 91.021 10.464, 90.921 8.250 C 90.871 7.137, 90.653 6.970, 90.324 7.792 C 89.922 8.794, 89.486 8.818, 88.380 7.900 C 87.226 6.943, 87.074 7.030, 87.584 8.359 M 104.667 9.667 C 103.626 10.708, 103.885 12.189, 104.989 11.507 C 105.532 11.171, 105.752 11.483, 105.477 12.200 C 105.159 13.029, 106.342 13.931, 108.729 14.678 C 113.101 16.046, 113.870 15.727, 111.619 13.476 C 110.729 12.586, 110 11.413, 110 10.870 C 110 10.326, 109.581 10.141, 109.069 10.457 C 108.557 10.774, 107.856 10.575, 107.510 10.016 C 106.787 8.847, 105.629 8.704, 104.667 9.667 M 99.500 11 C 99.840 11.550, 100.316 12, 100.559 12 C 100.802 12, 101 11.550, 101 11 C 101 10.450, 100.523 10, 99.941 10 C 99.359 10, 99.160 10.450, 99.500 11 M 63.526 31.950 C 61.544 35.783, 61.602 36.266, 63.875 34.846 C 64.906 34.202, 65.750 32.623, 65.750 31.338 C 65.750 28.283, 65.368 28.388, 63.526 31.950 M 62.494 43.839 C 61.463 44.871, 62.058 47, 63.378 47 C 64.135 47, 65.309 47.668, 65.986 48.483 C 67.007 49.713, 66.771 50.137, 64.609 50.959 C 61.334 52.204, 61.283 54.291, 64.466 56.795 C 65.822 57.862, 66.755 58.911, 66.539 59.128 C 65.640 60.026, 70.915 61.669, 72.161 60.879 C 73.190 60.227, 73.095 60.027, 71.750 60.015 C 69.634 59.997, 69.542 59.316, 71.401 57.456 C 72.554 56.304, 72.994 56.288, 73.892 57.370 C 74.492 58.093, 74.663 59.004, 74.272 59.395 C 73.881 59.786, 74.335 59.809, 75.280 59.446 C 76.226 59.083, 77 59.053, 77 59.380 C 77 60.347, 69.866 63.035, 68.894 62.434 C 68.402 62.131, 68 62.359, 68 62.941 C 68 64.948, 73.612 64.042, 75.835 61.676 C 77.036 60.398, 77.725 59.058, 77.366 58.699 C 77.007 58.341, 77.451 57.764, 78.351 57.419 C 79.252 57.073, 79.747 56.400, 79.453 55.923 C 79.158 55.447, 79.498 54.031, 80.208 52.777 C 80.919 51.523, 81.111 50.967, 80.635 51.542 C 80.065 52.232, 78.747 51.632, 76.768 49.784 C 75.117 48.241, 72.694 46.710, 71.383 46.381 C 70.072 46.052, 69 45.433, 69 45.005 C 69 44.118, 63.247 43.086, 62.494 43.839 M 90.667 51.377 C 84.324 52.192, 83.881 52.407, 84.499 54.377 C 85.089 56.263, 85.675 59.094, 85.917 61.238 C 86.029 62.238, 90.338 61.723, 91.143 60.614 C 92.001 59.432, 99.899 59.028, 100.581 60.131 C 100.876 60.609, 99.666 61, 97.892 61 C 93.776 61, 94.765 62.053, 99.477 62.688 C 101.682 62.986, 103.715 62.655, 104.705 61.837 C 105.919 60.835, 106.426 60.799, 106.727 61.694 C 106.948 62.350, 107.775 62.688, 108.565 62.444 C 113.377 60.956, 113.282 61.288, 110.407 56.006 C 108.908 53.253, 107.416 50.948, 107.091 50.885 C 104.598 50.402, 96.336 50.649, 90.667 51.377 M 130.500 58 C 129.419 59.749, 131.022 61.227, 132.589 59.926 C 133.365 59.282, 134 58.360, 134 57.878 C 134 56.672, 131.262 56.768, 130.500 58 M 124.396 62.719 C 122.460 65.851, 124.626 78.304, 127.192 78.798 C 129.028 79.152, 132.175 73.083, 133.311 67 C 133.915 63.765, 133.856 63.652, 132.528 65.500 C 129.189 70.150, 124.511 73.358, 127.088 69.230 C 127.913 67.909, 127.852 66.632, 126.847 64.196 C 125.638 61.267, 125.387 61.116, 124.396 62.719 M 94.861 65.033 C 97.273 67.042, 102.626 67.822, 101.500 66 C 101.160 65.450, 99.810 65, 98.500 65 C 97.190 65, 95.840 64.550, 95.500 64 C 95.160 63.450, 94.346 63.015, 93.691 63.033 C 93.036 63.052, 93.562 63.952, 94.861 65.033 M 73.667 80.667 C 73.300 81.033, 73 81.798, 73 82.367 C 73 82.993, 73.466 82.934, 74.183 82.217 C 74.834 81.566, 75.134 80.801, 74.850 80.517 C 74.566 80.233, 74.033 80.300, 73.667 80.667 M 90 80.906 C 90 81.405, 89.206 81.605, 88.236 81.351 C 87.265 81.098, 85.484 81.255, 84.277 81.702 C 80.797 82.989, 83.082 85.113, 88.020 85.181 C 90.400 85.214, 93.700 86.063, 95.353 87.068 C 99.949 89.863, 100.368 88.365, 96.223 83.960 C 92.705 80.221, 90 78.894, 90 80.906 M 102.708 88.816 C 99.535 89.187, 99.500 89.307, 101.615 92.535 C 103.108 94.814, 105.876 96.227, 104.507 94.011 C 104.162 93.453, 104.545 93.272, 105.387 93.595 C 106.207 93.910, 107.552 93.790, 108.376 93.330 C 110.708 92.024, 106.171 88.412, 102.708 88.816 M 70.206 91.281 C 67.633 94.020, 67.348 95.464, 69.547 94.620 C 70.944 94.084, 70.944 94.242, 69.547 96.236 C 68.696 97.451, 68 99.370, 68 100.500 C 68 101.630, 67.304 103.549, 66.453 104.764 C 65.030 106.796, 65.043 106.921, 66.617 106.317 C 67.816 105.857, 68.100 106.028, 67.567 106.891 C 67.149 107.569, 66.580 109.558, 66.304 111.311 C 66.028 113.065, 65.323 115.400, 64.737 116.500 C 63.753 118.350, 63.816 118.391, 65.586 117.050 C 66.639 116.253, 68.843 114.453, 70.484 113.050 C 72.541 111.293, 72.929 111.146, 71.734 112.579 C 69.897 114.781, 69.510 116.077, 70.750 115.882 C 72.616 115.587, 73 116.132, 72.105 117.804 C 71.515 118.906, 71.495 120.170, 72.054 121.054 C 72.761 122.171, 72.973 121.973, 72.985 120.183 C 72.997 118.357, 73.406 117.994, 74.916 118.473 C 75.970 118.808, 77.121 118.613, 77.475 118.041 C 78.418 116.515, 79.698 116.770, 80.410 118.627 C 80.754 119.521, 80.488 120.911, 79.821 121.716 C 78.849 122.887, 78.895 123.138, 80.054 122.980 C 82.347 122.667, 85.997 124.124, 86.032 125.367 C 86.049 125.990, 86.742 125.602, 87.571 124.505 C 88.824 122.847, 89.229 122.752, 89.963 123.941 C 90.651 125.054, 91.162 125.110, 92.266 124.194 C 93.046 123.547, 93.980 123.313, 94.342 123.675 C 94.704 124.037, 95 123.573, 95 122.643 C 95 121.307, 95.728 121.033, 98.472 121.335 C 100.381 121.546, 101.705 121.332, 101.413 120.859 C 100.908 120.041, 102.453 119.565, 104.411 119.935 C 104.912 120.030, 107.471 119.183, 110.097 118.054 C 112.722 116.924, 116.184 116, 117.789 116 L 120.706 116 121.395 104.486 C 122.250 90.178, 121.209 87.418, 118.137 95.845 C 116.931 99.151, 113.997 104.695, 111.617 108.165 C 108.145 113.225, 106.717 114.518, 104.402 114.696 C 102.482 114.843, 101.974 114.634, 102.884 114.072 C 104.022 113.368, 103.948 112.410, 102.439 108.363 C 101.442 105.688, 99.816 102.435, 98.827 101.132 C 97.837 99.830, 97.287 98.345, 97.604 97.831 C 98.190 96.883, 93.571 92, 92.088 92 C 91.643 92, 89.621 93.125, 87.595 94.500 C 85.569 95.875, 82.990 97, 81.863 97 C 79.061 97, 75.500 93.930, 75.500 91.514 C 75.500 88.662, 72.778 88.543, 70.206 91.281 M 79.813 90.683 C 80.534 90.972, 81.397 90.936, 81.729 90.604 C 82.061 90.272, 81.471 90.036, 80.417 90.079 C 79.252 90.127, 79.015 90.364, 79.813 90.683 M 86 90.969 C 86 91.501, 86.675 91.678, 87.500 91.362 C 88.325 91.045, 89 90.609, 89 90.393 C 89 90.177, 88.325 90, 87.500 90 C 86.675 90, 86 90.436, 86 90.969 M 69.079 101.583 C 69.127 102.748, 69.364 102.985, 69.683 102.188 C 69.972 101.466, 69.936 100.603, 69.604 100.271 C 69.272 99.939, 69.036 100.529, 69.079 101.583 M 83.070 100.875 C 83.020 101.862, 82.154 102.081, 80 101.650 C 77.225 101.095, 77 101.265, 77 103.918 C 77 105.673, 77.647 107.034, 78.667 107.426 C 79.938 107.913, 80.057 108.343, 79.167 109.233 C 78.525 109.875, 78.014 110.873, 78.032 111.450 C 78.049 112.028, 78.693 111.669, 79.463 110.653 C 80.233 109.637, 80.673 108.287, 80.442 107.653 C 80.210 107.019, 80.466 105.825, 81.011 105 C 81.820 103.772, 82.156 103.742, 82.861 104.834 C 84.118 106.781, 84.971 104.126, 83.932 101.500 C 83.497 100.400, 83.109 100.119, 83.070 100.875 M 73.182 107.500 C 72.361 109.302, 72.351 110, 73.146 110 C 73.836 110, 74.028 111.111, 73.658 112.961 C 73.332 114.590, 73.501 116.191, 74.033 116.520 C 74.565 116.849, 75.037 116.754, 75.081 116.309 C 75.523 111.906, 75.461 109.785, 74.880 109.426 C 74.499 109.191, 74.423 108.098, 74.711 106.999 C 75.440 104.210, 74.548 104.502, 73.182 107.500" stroke="none" fill="#3467df" fill-rule="evenodd"/>
</svg>