<svg xmlns="http://www.w3.org/2000/svg" width="180" height="135" viewBox="0 0 180 135" version="1.1">
	<rect x="0" y="0" width="100%" height="100%" fill="#bfbfbf" />
	<path d="M 0.026 36.500 L -0.003 73 4.248 73.074 C 6.587 73.115, 9.512 73.337, 10.750 73.568 C 12.032 73.807, 13 73.488, 13 72.827 C 13 72.189, 13.261 71.928, 13.581 72.248 C 13.901 72.567, 13.693 73.705, 13.120 74.776 C 12.287 76.333, 12.525 77.145, 14.308 78.819 C 19.015 83.242, 24.078 76.346, 20.462 70.437 C 18.253 66.828, 17.603 55.886, 19.350 51.705 C 20.643 48.610, 20.681 47.613, 19.585 45.502 C 18.867 44.118, 18.505 41.808, 18.780 40.368 C 19.684 35.641, 21.294 40.641, 21.294 48.174 C 21.294 52.146, 21.720 55, 22.314 55 C 22.875 55, 23.067 55.266, 22.742 55.591 C 22.417 55.917, 22.787 58.279, 23.564 60.841 C 25.217 66.286, 25.467 72.407, 24 71.500 C 23.450 71.160, 23 71.332, 23 71.882 C 23 72.432, 23.479 73.178, 24.065 73.540 C 25.718 74.562, 24.833 80.249, 22.632 82.750 C 21.088 84.504, 20.977 85, 22.126 85 C 22.937 85, 24.140 84.460, 24.800 83.800 C 25.733 82.867, 26 82.867, 26 83.800 C 26 84.460, 25.498 85, 24.883 85 C 24.259 85, 23.997 85.882, 24.290 87 C 24.637 88.328, 24.320 89, 23.347 89 C 22.483 89, 22.179 88.520, 22.605 87.830 C 23.079 87.062, 22.799 86.863, 21.788 87.251 C 20.784 87.637, 20.292 87.296, 20.374 86.271 C 20.443 85.407, 18.026 82.970, 15.002 80.856 C 11.978 78.741, 9.353 76.558, 9.168 76.005 C 8.984 75.452, 7.285 75, 5.392 75 C 2.578 75, 1.764 75.490, 0.930 77.684 C -0.880 82.445, 0.046 84.500, 4 84.500 C 7.492 84.500, 7.501 84.511, 7.810 89.500 C 8.113 94.388, 6.799 95.014, 5.713 90.500 C 5.297 88.771, 5.216 88.821, 5.116 90.867 C 5.019 92.841, 4.580 93.153, 2.464 92.748 L -0.071 92.264 0.122 102.075 L 0.315 111.886 19.907 112.193 C 47.008 112.618, 70.143 112.041, 69.473 110.957 C 68.803 109.873, 73.115 108.665, 75.671 109.221 C 76.677 109.440, 77.388 110.155, 77.250 110.809 C 77.077 111.634, 79 112, 83.500 112 C 87.075 112, 90.007 111.662, 90.015 111.250 C 90.053 109.382, 91.803 107.987, 93.359 108.584 C 94.943 109.192, 94.937 109.330, 93.279 110.604 C 91.762 111.771, 95.616 111.970, 119.500 111.957 C 151.085 111.939, 150.394 111.913, 147 113 C 144.534 113.790, 144.541 113.803, 147.500 113.969 C 149.150 114.062, 151.738 114.301, 153.250 114.501 C 154.763 114.700, 156 114.473, 156 113.995 C 156 113.518, 154.537 112.945, 152.750 112.723 C 150.963 112.502, 153.100 112.241, 157.500 112.144 C 161.900 112.048, 168.200 111.317, 171.500 110.520 C 178.730 108.774, 180 108.697, 180 110 C 180 110.550, 179.073 111, 177.941 111 C 176.809 111, 176.161 111.451, 176.502 112.003 C 177.459 113.552, 181.176 111.154, 180.805 109.226 C 180.632 108.325, 179.367 107.275, 177.995 106.894 L 175.500 106.199 178.250 106.100 C 180.998 106, 181 105.994, 180.900 98.750 C 180.758 88.418, 180.034 86.427, 176.554 86.808 C 174.351 87.049, 173.871 86.778, 174.339 85.558 C 174.713 84.583, 174.388 84, 173.469 84 C 172.661 84, 172 83.415, 172 82.700 C 172 81.985, 171.456 80.856, 170.790 80.190 C 169.844 79.244, 169.136 79.493, 167.540 81.334 C 166.023 83.085, 164.522 83.664, 161.684 83.594 C 158.172 83.507, 157.907 83.301, 158.343 81 C 158.866 78.248, 156.654 72, 155.157 72 C 154.637 72, 152.768 73.348, 151.004 74.996 C 149.240 76.644, 147.392 77.743, 146.898 77.437 C 146.404 77.132, 145.944 77.809, 145.875 78.941 C 145.677 82.194, 145.583 82.460, 144.046 84.106 C 142.737 85.507, 142.376 85.429, 140.431 83.331 C 139.243 82.049, 137.932 81, 137.519 81 C 137.106 81, 138.357 82.760, 140.301 84.912 C 144.532 89.595, 146.525 93, 145.035 93 C 144.466 93, 144 92.564, 144 92.031 C 144 91.499, 143.438 91.276, 142.750 91.537 C 141.346 92.070, 133.530 79.954, 133.511 77.217 C 133.499 75.385, 131.710 75.186, 126.500 76.440 C 124.770 76.856, 124.007 76.799, 124.697 76.304 C 125.469 75.752, 125.572 74.926, 124.990 73.983 C 124.206 72.715, 123.690 72.752, 121.138 74.259 C 119.517 75.217, 117.698 76, 117.096 76 C 115.571 76, 115.610 45.093, 117.140 41.315 C 117.766 39.767, 118.230 34.675, 118.169 30 C 118.109 25.325, 118.309 22.063, 118.613 22.750 C 118.918 23.437, 119.635 24, 120.207 24 C 120.857 24, 121.076 21.935, 120.792 18.500 C 120.541 15.475, 120.710 13, 121.168 13 C 121.625 13, 122 13.873, 122 14.941 C 122 16.009, 122.450 17.160, 123 17.500 C 123.550 17.840, 124 17.191, 124 16.059 C 124 12.540, 125.877 13.801, 126.518 17.750 C 126.853 19.813, 127.617 22.625, 128.216 24 L 129.305 26.500 129.964 24 L 130.623 21.500 131.803 23.669 C 132.527 24.999, 132.607 25.967, 132.010 26.169 C 131.398 26.377, 131.369 27.618, 131.932 29.500 L 132.828 32.500 132.914 29.750 C 133.025 26.189, 134.213 26.276, 137.411 30.077 L 140 33.153 140.030 30.327 C 140.053 28.221, 140.285 27.883, 140.941 29.002 C 142.339 31.386, 143.725 45.740, 142.729 47.519 C 142.203 48.460, 142.225 49.592, 142.784 50.302 C 143.302 50.961, 144.017 54.425, 144.373 58 C 144.728 61.575, 145.465 64.650, 146.010 64.833 C 146.554 65.017, 147 65.804, 147 66.583 C 147 68.214, 148.587 68.478, 149.500 67 C 149.840 66.450, 149.754 65.997, 149.309 65.993 C 148.864 65.989, 148.420 63.626, 148.322 60.743 L 148.143 55.500 149.496 59 C 150.641 61.966, 150.859 62.136, 150.924 60.116 C 150.966 58.805, 150.462 55.938, 149.805 53.745 C 148.851 50.561, 148.472 50.135, 147.920 51.629 C 147.330 53.227, 147.120 53.083, 146.479 50.643 C 145.958 48.658, 146.141 47.531, 147.078 46.952 C 148.018 46.371, 148.353 44.269, 148.184 40.003 L 147.943 33.888 153.221 34.199 C 157.283 34.438, 159.011 34.070, 160.716 32.604 C 163.274 30.404, 162.855 29, 159.641 29 C 157.917 29, 157.400 28.423, 157.400 26.500 C 157.400 25.115, 157.980 24, 158.700 24 C 159.415 24, 160 23.550, 160 23 C 160 22.450, 159.550 22, 159 22 C 158.450 22, 158 21.052, 158 19.893 C 158 18.366, 158.444 17.956, 159.611 18.404 C 160.802 18.861, 161.059 18.597, 160.596 17.391 C 160.111 16.125, 160.431 15.879, 162.026 16.297 C 163.695 16.733, 163.968 16.474, 163.474 14.917 C 162.982 13.367, 163.308 13.048, 165.179 13.250 C 166.912 13.437, 167.575 12.935, 167.816 11.250 C 168.130 9.064, 170 7.994, 170 10 C 170 10.550, 171.731 11, 173.847 11 C 176.849 11, 177.933 10.505, 178.780 8.750 C 179.673 6.896, 179.877 7.753, 179.932 13.611 L 180 20.723 177.250 20.300 C 174.864 19.934, 174.739 20.030, 176.308 21.021 C 178.023 22.105, 178.002 22.264, 175.905 24.082 C 174.689 25.137, 174.186 26, 174.788 26 C 175.390 26, 176.160 25.550, 176.500 25 C 176.840 24.450, 177.744 24, 178.509 24 C 179.632 24, 179.896 26.699, 179.879 38 L 179.858 52 176.488 52 C 174.634 52, 172.840 51.550, 172.500 51 C 172.160 50.450, 170.473 50, 168.750 50 C 165.781 50, 165.719 50.077, 167.559 51.468 C 169.637 53.040, 169.580 53.069, 163.500 53.520 C 158.249 53.909, 158.286 53.895, 159.852 54.887 C 160.595 55.358, 162.820 55.379, 164.796 54.933 C 166.773 54.487, 168.794 54.373, 169.288 54.678 C 169.782 54.983, 171.853 55.210, 173.890 55.182 C 179.110 55.110, 180.864 56.351, 179.242 58.969 C 178.549 60.086, 178.414 61, 178.942 61 C 179.469 61, 180.063 63.587, 180.262 66.750 C 180.461 69.912, 180.696 56.188, 180.784 36.250 L 180.943 0 90.499 -0 L 0.055 -0 0.026 36.500 M 0.208 11.333 C 0.049 19.627, 0.293 22.069, 1.250 21.750 C 1.938 21.522, 2.656 20.531, 2.846 19.549 C 3.052 18.488, 2.763 18.028, 2.134 18.417 C 1.427 18.854, 0.966 15.989, 0.746 9.786 L 0.415 0.500 0.208 11.333 M 178.500 2 C 178.840 2.550, 179.316 3, 179.559 3 C 179.802 3, 180 2.550, 180 2 C 180 1.450, 179.523 1, 178.941 1 C 178.359 1, 178.160 1.450, 178.500 2 M 173.250 4.703 C 171.184 5.469, 171.752 9, 173.941 9 C 175.009 9, 176.187 8.507, 176.559 7.904 C 177.419 6.514, 174.910 4.088, 173.250 4.703 M 162 7 C 162 7.550, 162.450 8, 163 8 C 163.550 8, 164 7.550, 164 7 C 164 6.450, 163.550 6, 163 6 C 162.450 6, 162 6.450, 162 7 M 165 11 C 165 11.550, 165.450 12, 166 12 C 166.550 12, 167 11.550, 167 11 C 167 10.450, 166.550 10, 166 10 C 165.450 10, 165 10.450, 165 11 M 115 13.441 C 115 14.298, 115.450 15, 116 15 C 116.550 15, 117 14.577, 117 14.059 C 117 13.541, 116.550 12.840, 116 12.500 C 115.450 12.160, 115 12.584, 115 13.441 M 157.981 13.523 C 156.924 14.796, 156.986 14.943, 158.359 14.416 C 159.261 14.069, 160 13.384, 160 12.893 C 160 11.607, 159.421 11.788, 157.981 13.523 M 165.032 19.939 C 164.445 21.037, 164.380 22.117, 164.883 22.428 C 165.372 22.730, 165.985 21.857, 166.247 20.488 C 166.818 17.499, 166.432 17.324, 165.032 19.939 M 161.734 21.250 C 161.396 22.132, 161.767 23.392, 162.559 24.049 C 164.121 25.346, 164.287 24.592, 163.105 21.573 C 162.454 19.912, 162.265 19.867, 161.734 21.250 M 170.352 20.692 C 167.778 21.196, 166.578 24.624, 168.692 25.435 C 170.788 26.240, 170.707 26.294, 172.350 23 C 173.173 21.350, 173.544 20.061, 173.173 20.136 C 172.803 20.211, 171.533 20.461, 170.352 20.692 M 0.435 48 C 0.435 62.025, 0.575 67.763, 0.747 60.750 C 0.919 53.738, 0.919 42.263, 0.747 35.250 C 0.575 28.238, 0.435 33.975, 0.435 48 M 49.081 29.719 C 49.019 35.273, 49.301 36.822, 50.306 36.436 C 52.096 35.749, 52.242 29.159, 50.550 25.500 C 49.213 22.609, 49.159 22.762, 49.081 29.719 M 169.500 24 C 169.840 24.550, 170.316 25, 170.559 25 C 170.802 25, 171 24.550, 171 24 C 171 23.450, 170.523 23, 169.941 23 C 169.359 23, 169.160 23.450, 169.500 24 M 18.195 27.500 C 18.215 29.150, 18.439 29.704, 18.693 28.731 C 18.947 27.758, 18.930 26.408, 18.656 25.731 C 18.382 25.054, 18.175 25.850, 18.195 27.500 M 166.262 27.692 C 167.231 27.945, 167.808 28.502, 167.543 28.931 C 167.277 29.360, 168.284 29.468, 169.780 29.171 L 172.500 28.631 170 27.915 C 168.625 27.521, 166.825 27.207, 166 27.216 C 165.028 27.226, 165.120 27.394, 166.262 27.692 M 106.132 35.183 C 106.239 40.211, 106.779 43.068, 107.858 44.315 C 109.375 46.069, 109.450 46.069, 110.073 44.315 C 110.428 43.317, 110.110 40.766, 109.367 38.647 C 108.624 36.528, 107.914 33.456, 107.790 31.821 C 107.311 25.536, 105.983 28.229, 106.132 35.183 M 46 41 C 46 45.583, 46.191 49.142, 46.425 48.908 C 47.147 48.186, 47.361 34.027, 46.660 33.327 C 46.297 32.964, 46 36.417, 46 41 M 67.731 33.683 C 66.610 35.637, 66.019 41.894, 66.905 42.441 C 67.443 42.774, 68.175 41.013, 68.556 38.473 C 69.198 34.194, 68.792 31.836, 67.731 33.683 M 84.729 33.604 C 84.328 34.005, 84 35.023, 84 35.867 C 84 36.992, 84.296 37.104, 85.112 36.287 C 85.724 35.676, 86.052 34.657, 85.842 34.025 C 85.631 33.392, 85.130 33.203, 84.729 33.604 M 104.131 41.715 C 104.017 47.983, 104.263 49.070, 106 50 C 107.183 50.633, 108 50.681, 108 50.119 C 108 49.595, 107.523 49.008, 106.940 48.813 C 106.356 48.619, 105.516 45.319, 105.071 41.480 L 104.263 34.500 104.131 41.715 M 169.079 41.583 C 169.127 42.748, 169.364 42.985, 169.683 42.188 C 169.972 41.466, 169.936 40.603, 169.604 40.271 C 169.272 39.939, 169.036 40.529, 169.079 41.583 M 49.015 53.281 C 49.024 60.002, 49.467 66.175, 50 67 C 50.712 68.101, 50.973 67.392, 50.985 64.333 C 50.994 61.903, 51.521 59.991, 52.250 59.746 C 53.239 59.413, 53.244 59.015, 52.274 57.839 C 51.392 56.770, 51.353 56.047, 52.133 55.267 C 53.678 53.722, 52.240 42.306, 50.410 41.604 C 49.244 41.156, 49.003 43.173, 49.015 53.281 M 120.015 42.750 C 120.024 43.163, 120.467 44.175, 121 45 C 121.784 46.213, 121.972 46.069, 121.985 44.250 C 121.993 43.013, 121.550 42, 121 42 C 120.450 42, 120.007 42.337, 120.015 42.750 M 88 45 C 88 46.100, 88.338 47.006, 88.750 47.014 C 89.162 47.021, 90.513 47.299, 91.750 47.630 C 93.100 47.992, 94 47.787, 94 47.117 C 94 46.502, 93.373 46, 92.607 46 C 91.841 46, 90.955 45.325, 90.638 44.500 C 89.802 42.320, 88 42.662, 88 45 M 91.195 51.500 C 91.215 53.150, 91.439 53.704, 91.693 52.731 C 91.947 51.758, 91.930 50.408, 91.656 49.731 C 91.382 49.054, 91.175 49.850, 91.195 51.500 M 94 52.083 C 94 54.520, 96.337 54.176, 96.823 51.667 C 97.015 50.680, 96.505 50, 95.573 50 C 94.646 50, 94 50.855, 94 52.083 M 105.603 58.348 C 105.933 60.769, 105.759 61.969, 105.133 61.582 C 104.586 61.244, 103.856 61.425, 103.510 61.984 C 103.165 62.543, 103.359 63, 103.941 63 C 105.313 63, 105.202 66.579, 103.694 70.987 C 102.524 74.404, 102.570 74.510, 105.961 76.237 C 110.485 78.541, 111.894 78.461, 112.862 75.845 C 113.901 73.036, 111.517 65.992, 108.822 63.906 C 107.074 62.553, 106.941 61.978, 107.946 60.101 C 108.597 58.884, 108.911 57.352, 108.644 56.695 C 108.282 55.806, 108.138 55.820, 108.079 56.750 C 107.961 58.612, 106.226 58.260, 105.612 56.250 C 105.318 55.288, 105.314 56.232, 105.603 58.348 M 93.430 56.887 C 93.731 57.374, 93.308 58.329, 92.489 59.009 C 89.926 61.136, 90.654 62.919, 93.750 62.097 C 95.755 61.565, 96.586 60.641, 96.816 58.684 C 97.072 56.515, 96.725 56, 95.007 56 C 93.838 56, 93.129 56.399, 93.430 56.887 M 168.682 58.652 C 167.451 59.882, 167.969 62, 169.500 62 C 171.166 62, 171.374 61.138, 170.166 59.235 C 169.725 58.539, 169.057 58.277, 168.682 58.652 M 46.252 62.500 C 46.263 64.700, 46.468 65.482, 46.707 64.238 C 46.946 62.994, 46.937 61.194, 46.687 60.238 C 46.437 59.282, 46.241 60.300, 46.252 62.500 M 95.068 67.857 C 95.029 68.636, 94.367 68.971, 93.515 68.644 C 90.722 67.573, 89.978 71.273, 92.417 74.108 L 94.645 76.699 95.941 73.772 C 96.884 71.640, 96.951 70.255, 96.186 68.672 C 95.608 67.478, 95.105 67.111, 95.068 67.857 M 87.079 70.583 C 87.127 71.748, 87.364 71.985, 87.683 71.188 C 87.972 70.466, 87.936 69.603, 87.604 69.271 C 87.272 68.939, 87.036 69.529, 87.079 70.583 M 98 70.882 C 98 71.432, 98.450 72.160, 99 72.500 C 99.550 72.840, 100 72.668, 100 72.118 C 100 71.568, 99.550 70.840, 99 70.500 C 98.450 70.160, 98 70.332, 98 70.882 M 86.500 74 C 86.840 74.550, 87.316 75, 87.559 75 C 87.802 75, 88 74.550, 88 74 C 88 73.450, 87.523 73, 86.941 73 C 86.359 73, 86.160 73.450, 86.500 74 M 50.158 77 C 50.158 78.375, 50.385 78.938, 50.662 78.250 C 50.940 77.563, 50.940 76.438, 50.662 75.750 C 50.385 75.063, 50.158 75.625, 50.158 77 M 149.543 80.931 C 148.861 82.035, 149.564 82.500, 153.250 83.381 C 155.366 83.887, 156 83.674, 156 82.460 C 156 81.592, 155.581 81.141, 155.069 81.457 C 154.557 81.774, 153.856 81.575, 153.510 81.016 C 152.724 79.744, 150.308 79.692, 149.543 80.931 M 132.856 84.750 C 133.366 85.713, 134.512 88.257, 135.404 90.404 C 136.296 92.550, 137.253 94.080, 137.531 93.802 C 137.809 93.525, 137.355 91.993, 136.524 90.399 C 135.693 88.804, 135.010 86.487, 135.006 85.250 C 135.002 83.896, 134.388 83, 133.465 83 C 132.316 83, 132.163 83.441, 132.856 84.750 M 9.187 89.173 C 9.583 93.188, 11.713 93.993, 12.598 90.464 C 13.050 88.665, 12.816 87.497, 11.885 86.908 C 9.483 85.387, 8.864 85.906, 9.187 89.173 M 19.639 90.775 C 19.376 91.201, 19.480 93.113, 19.871 95.025 C 20.490 98.049, 20.966 98.500, 23.541 98.500 C 26.107 98.500, 26.462 98.168, 26.214 96 C 26.056 94.625, 25.847 92.713, 25.749 91.750 C 25.628 90.555, 24.707 90, 22.845 90 C 21.345 90, 19.903 90.349, 19.639 90.775 M 62.188 91.739 C 62.372 92.695, 63.343 93.635, 64.344 93.828 C 65.904 94.128, 66.005 93.879, 65.048 92.089 C 63.694 89.560, 61.722 89.318, 62.188 91.739 M 176 91.917 C 176 93.741, 176.425 94.122, 178 93.710 C 179.770 93.247, 180 93.680, 180 97.477 C 180 100.870, 179.598 101.872, 178.075 102.270 C 176.656 102.641, 176.303 102.373, 176.734 101.250 C 177.122 100.239, 176.845 99.883, 175.909 100.192 C 175.134 100.448, 174.363 101.582, 174.196 102.713 C 173.946 104.399, 174.530 104.843, 177.446 105.183 L 181 105.598 181 98.192 C 181 92.311, 180.716 90.895, 179.622 91.315 C 178.864 91.606, 177.739 91.339, 177.122 90.722 C 176.293 89.893, 176 90.204, 176 91.917 M 42.875 93.500 C 42.806 93.775, 42.694 94.466, 42.625 95.036 C 42.556 95.607, 41.825 96.500, 41 97.021 C 39.689 97.850, 39.701 97.971, 41.095 97.985 C 42.985 98.003, 46.298 94.631, 45.336 93.669 C 44.551 92.884, 43.055 92.781, 42.875 93.500 M 65.357 96.500 C 66.182 97.325, 67.169 98, 67.551 98 C 67.933 98, 67.685 97.325, 67 96.500 C 66.315 95.675, 65.328 95, 64.806 95 C 64.284 95, 64.532 95.675, 65.357 96.500 M 81.056 96.568 C 81.700 97.343, 82.620 97.735, 83.102 97.437 C 83.583 97.140, 83.709 97.594, 83.382 98.447 C 83.055 99.300, 81.403 100.357, 79.711 100.795 C 75.550 101.873, 74.968 104, 78.833 104 C 80.483 104, 82.021 104.563, 82.250 105.250 C 82.805 106.914, 96.439 106.961, 98.095 105.305 C 99.336 104.064, 97.806 103.430, 92 102.780 C 90.251 102.584, 89.588 101.975, 89.794 100.750 C 89.989 99.589, 89.441 99, 88.166 99 C 87.110 99, 85.725 98.374, 85.090 97.608 C 84.454 96.843, 83.024 95.978, 81.910 95.687 C 80.258 95.255, 80.101 95.417, 81.056 96.568 M 38.325 101.003 C 37.129 101.485, 34.317 101.712, 32.075 101.507 C 25.765 100.929, 26.721 103.614, 33.250 104.805 C 36.138 105.332, 37.514 105.816, 36.309 105.881 C 35.104 105.947, 33.840 106.450, 33.500 107 C 33.160 107.550, 30.685 108, 28 108 C 21.179 108, 20.909 109.596, 27.598 110.383 C 31.791 110.875, 34.761 110.536, 39.746 108.997 C 43.376 107.876, 46.902 106.496, 47.584 105.931 C 48.433 105.225, 49.025 105.232, 49.470 105.951 C 49.826 106.528, 50.966 107, 52.002 107 C 53.038 107, 55.374 107.856, 57.193 108.901 C 59.380 110.159, 61.600 110.628, 63.750 110.288 C 68.062 109.605, 67.862 108.408, 63.250 107.287 C 60.705 106.669, 59.542 105.848, 59.632 104.732 C 59.730 103.499, 58.603 102.938, 55.132 102.492 C 52.584 102.165, 49.719 101.471, 48.764 100.949 C 46.640 99.789, 41.269 99.817, 38.325 101.003 M 84 101 L 81.500 101.801 84.250 101.900 C 85.763 101.955, 87 101.550, 87 101 C 87 100.450, 86.888 100.045, 86.750 100.100 C 86.612 100.155, 85.375 100.560, 84 101 M 96 101 C 95.099 101.582, 94.975 101.975, 95.691 101.985 C 96.346 101.993, 97.160 101.550, 97.500 101 C 98.267 99.758, 97.921 99.758, 96 101 M 155.505 100.991 C 154.644 102.385, 157.458 103.954, 159.034 102.958 C 160.992 101.719, 163.274 101.747, 162.500 103 C 162.139 103.583, 163.156 104, 164.941 104 C 167.244 104, 168 103.546, 168 102.161 C 168 100.587, 167.137 100.314, 161.994 100.266 C 158.691 100.235, 155.771 100.561, 155.505 100.991 M 71.813 105.683 C 72.534 105.972, 73.397 105.936, 73.729 105.604 C 74.061 105.272, 73.471 105.036, 72.417 105.079 C 71.252 105.127, 71.015 105.364, 71.813 105.683 M 150.813 106.683 C 151.534 106.972, 152.397 106.936, 152.729 106.604 C 153.061 106.272, 152.471 106.036, 151.417 106.079 C 150.252 106.127, 150.015 106.364, 150.813 106.683 M 83.500 108 C 84.600 108.473, 86.625 108.846, 88 108.830 L 90.500 108.801 88 108 C 86.625 107.560, 84.600 107.186, 83.500 107.170 L 81.500 107.141 83.500 108 M 47.643 109.232 C 47.904 109.654, 47.566 110, 46.892 110 C 46.218 110, 45.854 110.168, 46.083 110.373 C 46.313 110.578, 48.525 110.439, 51 110.063 L 55.500 109.381 51.334 108.922 C 49.043 108.670, 47.382 108.809, 47.643 109.232 M 157.500 109.529 C 159.700 110.321, 162.400 110.957, 163.500 110.941 C 164.623 110.925, 163.746 110.280, 161.500 109.471 C 159.300 108.679, 156.600 108.043, 155.500 108.059 C 154.377 108.075, 155.254 108.720, 157.500 109.529 M 0.079 110.583 C 0.127 111.748, 0.364 111.985, 0.683 111.188 C 0.972 110.466, 0.936 109.603, 0.604 109.271 C 0.272 108.939, 0.036 109.529, 0.079 110.583 M 6 110 C 4.827 110.758, 5.086 110.973, 7.191 110.985 C 8.671 110.993, 10.160 110.550, 10.500 110 C 11.289 108.723, 7.976 108.723, 6 110 M 17 110 C 17 110.550, 17.648 111, 18.441 111 C 19.234 111, 20.160 110.550, 20.500 110 C 20.840 109.450, 20.191 109, 19.059 109 C 17.927 109, 17 109.450, 17 110 M 171.586 113.363 C 171.902 114.188, 173.031 114.798, 174.093 114.718 C 176.643 114.526, 175.943 112.588, 173.177 112.181 C 171.593 111.948, 171.165 112.266, 171.586 113.363 M 137.750 113.706 C 138.988 113.944, 141.012 113.944, 142.250 113.706 C 143.488 113.467, 142.475 113.272, 140 113.272 C 137.525 113.272, 136.512 113.467, 137.750 113.706 M 166.500 114 C 165.718 115.266, 167.042 115.266, 169 114 C 170.293 113.165, 170.266 113.029, 168.809 113.015 C 167.879 113.007, 166.840 113.450, 166.500 114 M 157.813 114.683 C 158.534 114.972, 159.397 114.936, 159.729 114.604 C 160.061 114.272, 159.471 114.036, 158.417 114.079 C 157.252 114.127, 157.015 114.364, 157.813 114.683 M 27.813 115.683 C 28.534 115.972, 29.397 115.936, 29.729 115.604 C 30.061 115.272, 29.471 115.036, 28.417 115.079 C 27.252 115.127, 27.015 115.364, 27.813 115.683 M 45.813 115.683 C 46.534 115.972, 47.397 115.936, 47.729 115.604 C 48.061 115.272, 47.471 115.036, 46.417 115.079 C 45.252 115.127, 45.015 115.364, 45.813 115.683 M 36.500 117 C 36.160 117.550, 36.332 118, 36.882 118 C 37.432 118, 38.160 117.550, 38.500 117 C 38.840 116.450, 38.668 116, 38.118 116 C 37.568 116, 36.840 116.450, 36.500 117 M 178.710 118 C 179.349 120.444, 178.413 120.559, 176.179 118.311 C 174.604 116.726, 174.481 116.785, 174.188 119.262 C 173.908 121.636, 173.623 121.807, 171.373 120.952 C 168.039 119.684, 168 119.696, 168 122 C 168 124.199, 165.973 124.591, 162.957 122.977 C 161.414 122.151, 161.158 122.248, 161.629 123.477 C 162.081 124.653, 161.449 125.003, 158.857 125.015 C 156.546 125.026, 155.931 125.304, 156.883 125.906 C 157.644 126.388, 159.669 126.601, 161.383 126.380 C 164.558 125.971, 166.904 125.961, 172.826 126.333 L 176.152 126.542 173.965 124.771 C 171.789 123.009, 171.799 123, 175.889 123 C 178.769 123, 180 123.424, 180 124.417 C 180 125.196, 179.539 126.062, 178.975 126.342 C 178.411 126.621, 178.524 126.732, 179.225 126.587 C 180.471 126.330, 181.171 119.858, 180.235 117.250 C 179.492 115.182, 178.147 115.844, 178.710 118 M 32.342 117.750 C 32.596 118.162, 26.774 118.500, 19.405 118.500 C 12.036 118.500, 6.005 118.886, 6.003 119.358 C 6.002 119.831, 4.962 119.956, 3.694 119.638 C 1.611 119.115, 1.366 119.430, 1.162 122.881 L 0.936 126.704 8.218 125.120 C 15.824 123.466, 33.986 123.111, 48 124.342 C 55.037 124.960, 55.315 124.911, 52.500 123.545 L 49.500 122.090 53.179 122.045 C 56.069 122.010, 60 120.046, 60 118.638 C 60 118.517, 54.559 118.439, 47.908 118.465 C 41.257 118.490, 35.606 118.171, 35.349 117.756 C 35.092 117.340, 34.207 117, 33.382 117 C 32.557 117, 32.089 117.338, 32.342 117.750 M 126 121.135 C 124.625 121.689, 121.850 121.990, 119.834 121.803 C 117.818 121.616, 116.382 121.809, 116.643 122.232 C 116.904 122.654, 116.056 123, 114.759 123 C 113.462 123, 111.837 123.563, 111.150 124.250 C 110.234 125.166, 104.596 125.500, 90.045 125.500 C 79.126 125.500, 70.400 125.838, 70.655 126.250 C 70.909 126.662, 73.229 127.014, 75.809 127.030 C 81.080 127.065, 79.882 128.560, 74.050 129.226 C 72.168 129.441, 70.449 130.153, 70.231 130.808 C 69.948 131.657, 71.798 131.980, 76.667 131.930 C 81.412 131.881, 82.889 131.597, 81.500 131 C 79.592 130.180, 79.603 130.137, 81.750 130.070 C 82.987 130.032, 84 129.614, 84 129.142 C 84 128.669, 86.666 128.245, 89.925 128.199 C 93.184 128.153, 98.471 127.648, 101.675 127.076 C 104.879 126.505, 110.335 126.175, 113.800 126.342 C 117.265 126.510, 120.305 126.316, 120.555 125.911 C 120.805 125.507, 124.619 125.215, 129.030 125.262 C 133.950 125.315, 137.505 124.895, 138.226 124.174 C 139.125 123.275, 138.486 123, 135.500 123 C 131.565 123, 131.565 121.659, 135.500 120.713 C 136.600 120.448, 135.475 120.208, 133 120.179 C 130.525 120.150, 127.375 120.580, 126 121.135 M 146.427 121.521 C 147.487 122.323, 148.599 122.735, 148.898 122.435 C 149.526 121.808, 146.986 120.023, 145.500 120.047 C 144.950 120.056, 145.367 120.720, 146.427 121.521 M 153 121 C 153 121.550, 153.423 122, 153.941 122 C 154.459 122, 155.160 121.550, 155.500 121 C 155.840 120.450, 155.416 120, 154.559 120 C 153.702 120, 153 120.450, 153 121 M 143.333 122.544 C 143.333 123.345, 143.708 124, 144.167 124 C 144.625 124, 145 123.577, 145 123.059 C 145 122.541, 144.625 121.886, 144.167 121.603 C 143.708 121.320, 143.333 121.743, 143.333 122.544 M 3.750 122.706 C 4.988 122.944, 7.012 122.944, 8.250 122.706 C 9.488 122.467, 8.475 122.272, 6 122.272 C 3.525 122.272, 2.512 122.467, 3.750 122.706 M 26.500 128.690 C 25.400 128.942, 22.121 130.015, 19.212 131.074 C 16.304 132.133, 11.467 133, 8.462 133 C 5.458 133, 3 133.450, 3 134 C 3 135.376, 14.332 135.268, 15.721 133.879 C 16.338 133.262, 20.940 132.524, 25.949 132.239 C 30.957 131.953, 35.294 131.333, 35.587 130.860 C 35.879 130.387, 38.004 129.968, 40.309 129.930 C 43.567 129.875, 44.055 129.668, 42.500 129 C 40.410 128.102, 29.953 127.899, 26.500 128.690 M 15.813 129.683 C 16.534 129.972, 17.397 129.936, 17.729 129.604 C 18.061 129.272, 17.471 129.036, 16.417 129.079 C 15.252 129.127, 15.015 129.364, 15.813 129.683 M 57.500 130.068 C 54.747 130.706, 54.850 130.773, 58.750 130.882 C 62.989 131, 64.119 130.590, 61.750 129.794 C 61.063 129.563, 59.150 129.686, 57.500 130.068 M 159 133 C 159 133.550, 159.675 134, 160.500 134 C 161.325 134, 162 133.550, 162 133 C 162 132.450, 161.325 132, 160.500 132 C 159.675 132, 159 132.450, 159 133" stroke="none" fill="#3467df" fill-rule="evenodd"/>
</svg>