<svg xmlns="http://www.w3.org/2000/svg" width="180" height="135" viewBox="0 0 180 135" version="1.1">
	<rect x="0" y="0" width="100%" height="100%" fill="#bfbfbf" />
	<path d="M 88.589 3.077 C 87.165 4.769, 86 6.585, 86 7.112 C 86 7.697, 85.246 7.667, 84.066 7.035 C 83.002 6.466, 81.314 6.041, 80.316 6.090 C 79.317 6.140, 79.919 6.591, 81.653 7.094 C 86.696 8.554, 88.704 16.296, 85 20 C 83.900 21.100, 83.471 22, 84.047 22 C 84.622 22, 85.860 20.653, 86.797 19.006 C 88.537 15.948, 89.491 15.367, 90.387 16.818 C 90.666 17.268, 89.905 18.747, 88.696 20.105 C 84.739 24.554, 84.466 32.037, 88.077 37.108 C 89.403 38.970, 90.363 41.038, 90.210 41.704 C 89.781 43.573, 99.782 42.136, 104.250 39.687 C 108.142 37.554, 112 31.330, 112 27.184 C 112 25.696, 112.613 25, 113.923 25 C 116.860 25, 121.668 20.412, 122.360 16.949 C 124.084 8.328, 115.125 3.721, 108.846 10 C 107.196 11.650, 105.024 13, 104.018 13 C 102.469 13, 102.271 12.402, 102.717 9.076 C 103.824 0.817, 94.001 -3.355, 88.589 3.077 M 89.459 5.067 C 89.096 5.653, 89.014 6.348, 89.276 6.610 C 89.538 6.872, 90.019 6.392, 90.345 5.543 C 91.021 3.781, 90.445 3.471, 89.459 5.067 M 72.405 9.250 L 70.500 11.500 72.750 9.595 C 74.864 7.805, 75.455 7, 74.655 7 C 74.465 7, 73.453 8.012, 72.405 9.250 M 110 11.500 C 109.293 12.352, 108.940 13.273, 109.215 13.548 C 109.490 13.823, 110.293 13.352, 111 12.500 C 111.707 11.648, 112.060 10.727, 111.785 10.452 C 111.510 10.177, 110.707 10.648, 110 11.500 M 61.400 14.478 C 63.545 15.242, 65.676 16.460, 66.135 17.184 C 66.745 18.146, 66.973 18.170, 66.985 17.276 C 67.003 15.818, 61.852 12.982, 59.300 13.044 C 58.310 13.068, 59.255 13.713, 61.400 14.478 M 55.239 14.666 C 54.545 14.946, 53.507 16.148, 52.933 17.337 C 52.039 19.190, 52.084 19.285, 53.241 18 C 53.984 17.175, 55.223 15.938, 55.996 15.250 C 57.469 13.939, 57.323 13.826, 55.239 14.666 M 69.750 19.758 C 68.237 20.696, 67 21.822, 67 22.262 C 67 22.701, 68.350 22.062, 70 20.842 C 72.637 18.892, 73.568 17.940, 72.750 18.027 C 72.612 18.041, 71.263 18.820, 69.750 19.758 M 89.987 23.032 C 88.243 27.241, 89.140 27.518, 91.124 23.384 C 92.016 21.523, 92.409 20, 91.995 20 C 91.581 20, 90.677 21.364, 89.987 23.032 M 60.500 32 L 57.500 32.763 60.750 32.882 C 62.538 32.947, 64 32.550, 64 32 C 64 31.450, 63.888 31.053, 63.750 31.118 C 63.612 31.183, 62.150 31.580, 60.500 32 M 129.262 39.250 C 129.431 40.844, 128.998 41.461, 127.781 41.366 C 126.262 41.248, 124.781 43.568, 124.504 46.500 C 124.452 47.050, 123.910 47.402, 123.299 47.282 C 122.689 47.162, 121.936 47.724, 121.626 48.532 C 121.288 49.412, 121.651 50, 122.531 50 C 125.033 50, 124.158 53.639, 120.507 58.423 L 117.013 63 120.807 63 C 127.577 63, 129.042 67.104, 123.836 71.485 C 121.980 73.046, 119.912 73.949, 118.834 73.667 C 117.824 73.403, 117.208 73.528, 117.467 73.946 C 117.725 74.364, 117.242 75.559, 116.394 76.603 C 114.906 78.433, 114.868 78.421, 115.332 76.250 C 115.819 73.972, 114.635 73.164, 113.500 75 C 112.481 76.649, 110.891 76.129, 111.206 74.250 C 111.429 72.921, 110.907 72.567, 109.034 72.776 C 104.764 73.255, 101.742 75.870, 102.270 78.630 C 102.639 80.562, 102.128 81.400, 99.869 82.568 C 96.843 84.132, 96.259 85.859, 98.124 87.724 C 98.955 88.555, 99.788 88.343, 101.328 86.909 C 103.838 84.570, 105.607 84.940, 105.208 87.720 C 105.033 88.942, 105.632 90.031, 106.708 90.448 C 108.311 91.070, 108.336 91.267, 106.938 92.321 C 106.079 92.970, 105.081 94.287, 104.719 95.250 C 104.358 96.213, 103.261 97.032, 102.281 97.070 C 100.636 97.135, 100.631 97.192, 102.213 97.821 C 103.471 98.320, 103.665 98.899, 102.944 100 C 102.094 101.299, 101.767 101.245, 100.509 99.597 C 99.191 97.871, 98.995 97.849, 98.416 99.359 C 97.551 101.613, 99.714 104, 102.622 104 C 104.333 104, 105 103.439, 105 102 C 105 100.822, 105.667 100, 106.622 100 C 108.019 100, 108.054 100.232, 106.872 101.664 C 105.627 103.174, 105.710 103.216, 107.771 102.117 C 110.093 100.880, 112 101.331, 112 103.118 C 112 103.668, 111.595 103.868, 111.100 103.562 C 110.605 103.256, 110.268 104.744, 110.350 106.870 C 110.466 109.848, 110.844 110.607, 112 110.180 C 113.284 109.705, 113.304 109.867, 112.137 111.302 C 111.387 112.224, 110.380 112.735, 109.898 112.437 C 109.417 112.140, 109.273 112.549, 109.580 113.347 C 109.886 114.145, 109.698 115.069, 109.162 115.400 C 108.626 115.731, 108.306 116.789, 108.450 117.751 C 108.595 118.713, 108.520 118.938, 108.283 118.250 C 107.704 116.566, 105.519 116.670, 104.040 118.452 C 102.645 120.133, 103.450 123.622, 105.264 123.761 C 105.944 123.813, 107.474 124.155, 108.664 124.522 C 110.233 125.005, 111.117 124.651, 111.875 123.234 C 112.450 122.159, 114.547 119.653, 116.534 117.666 C 120.080 114.120, 121.098 109.500, 118.333 109.500 C 117.692 109.500, 116.829 109.162, 116.417 108.750 C 116.004 108.338, 116.217 108, 116.889 108 C 117.561 108, 116.849 106.867, 115.306 105.482 L 112.500 102.964 115.132 103.561 C 116.796 103.938, 119.492 103.370, 122.463 102.017 C 125.676 100.553, 128.097 100.082, 130.122 100.527 C 133.086 101.178, 136 99.788, 136 97.723 C 136 97.155, 135.117 97.489, 134.037 98.466 C 131.860 100.437, 129 99.906, 129 97.531 C 129 96.689, 129.418 96, 129.929 96 C 131.957 96, 133.990 92.807, 133.416 90.522 C 132.963 88.718, 133.326 88.031, 135.015 87.495 C 137.148 86.818, 137.121 86.721, 133.904 83.401 C 132.091 81.530, 130.047 80, 129.363 80 C 127.141 80, 126.760 82.078, 128.609 84.121 C 131.084 86.855, 131.577 91, 129.427 91 C 128.405 91, 127.996 90.454, 128.342 89.551 C 128.676 88.682, 128.417 88.286, 127.697 88.563 C 126.148 89.157, 123.656 85.330, 125.037 84.477 C 125.584 84.139, 125.756 83.415, 125.418 82.868 C 124.527 81.426, 128.117 77.831, 129.802 78.478 C 130.888 78.894, 131.117 78.363, 130.757 76.263 C 130.496 74.743, 130.009 72.825, 129.674 72 C 128.967 70.258, 133.526 64.192, 134.677 65.343 C 135.098 65.764, 134.862 66.467, 134.154 66.905 C 132.245 68.085, 138.380 70.373, 141.411 69.612 C 145.592 68.562, 147.223 66.129, 146.787 61.589 C 146.504 58.631, 146.894 56.964, 148.198 55.561 C 150.572 53.008, 150.480 52.361, 147.462 50.383 C 145.079 48.822, 144.845 48.830, 143.614 50.513 C 142.893 51.499, 141.785 51.985, 141.152 51.594 C 139.586 50.626, 139.700 49.217, 141.377 48.823 C 143.761 48.263, 141.324 44.009, 137.943 42.830 C 136.235 42.235, 134.454 40.694, 133.953 39.377 C 132.738 36.181, 128.926 36.078, 129.262 39.250 M 85.405 41.250 L 83.500 43.500 85.750 41.595 C 86.987 40.547, 88 39.535, 88 39.345 C 88 38.545, 87.195 39.136, 85.405 41.250 M 66.918 41.363 C 68.249 43.003, 72 45.483, 72 44.723 C 72 44.532, 70.537 43.305, 68.750 41.997 C 66.739 40.525, 66.040 40.283, 66.918 41.363 M 33.496 46.250 C 28.549 50.505, 30.492 58, 36.542 58 C 38.536 58, 38.621 58.259, 37.649 61.364 L 36.595 64.729 33.203 63.311 C 30.235 62.071, 29.519 62.085, 27.481 63.420 C 22.436 66.726, 23.593 74.630, 29.536 77.450 C 33.376 79.272, 36.143 78.469, 38.004 74.992 C 39.004 73.124, 39.203 73.186, 42.117 76.265 C 44.321 78.593, 44.734 78.807, 43.590 77.027 C 39.999 71.442, 42.510 66, 48.678 66 C 51.672 66, 52.096 65.732, 51.445 64.250 C 51.022 63.288, 50.469 60.734, 50.216 58.576 C 49.863 55.558, 50.189 54.318, 51.628 53.208 C 53.320 51.903, 53.092 51.825, 49.250 52.394 C 45.067 53.014, 45 52.977, 45 50.069 C 45 44.411, 38.242 42.167, 33.496 46.250 M 79.500 45 C 79.160 45.550, 79.332 46, 79.882 46 C 80.432 46, 81.160 45.550, 81.500 45 C 81.840 44.450, 81.668 44, 81.118 44 C 80.568 44, 79.840 44.450, 79.500 45 M 126 46.559 C 126 47.416, 126.450 47.840, 127 47.500 C 127.550 47.160, 128 46.459, 128 45.941 C 128 45.423, 127.550 45, 127 45 C 126.450 45, 126 45.702, 126 46.559 M 131 49 C 131 49.550, 131.702 50, 132.559 50 C 133.416 50, 133.840 49.550, 133.500 49 C 133.160 48.450, 132.459 48, 131.941 48 C 131.423 48, 131 48.450, 131 49 M 116 51.393 C 116 52.709, 115.275 54.064, 114.389 54.404 C 113.068 54.911, 112.890 54.526, 113.404 52.261 C 114.001 49.631, 113.959 49.592, 112.506 51.455 C 111.235 53.082, 111.203 53.632, 112.313 54.741 C 114.039 56.468, 116.741 55.403, 117.597 52.658 C 117.967 51.471, 118.771 50.169, 119.385 49.765 C 120.033 49.338, 119.557 49.024, 118.250 49.015 C 116.539 49.004, 116 49.573, 116 51.393 M 135 51 C 135 51.550, 135.648 52, 136.441 52 C 137.234 52, 138.160 51.550, 138.500 51 C 138.840 50.450, 138.191 50, 137.059 50 C 135.927 50, 135 50.450, 135 51 M 145.380 52.452 C 145.074 53.251, 145.128 54.398, 145.500 55.001 C 146.478 56.582, 149.036 54.258, 148.334 52.427 C 147.626 50.584, 146.092 50.597, 145.380 52.452 M 54 53.393 C 54 53.609, 54.698 54.054, 55.552 54.382 C 56.442 54.723, 56.843 54.555, 56.493 53.989 C 55.906 53.038, 54 52.583, 54 53.393 M 102.200 54.200 C 100.633 55.767, 100.685 57.186, 102.392 59.521 C 103.574 61.138, 104.025 61.224, 105.392 60.090 C 107.520 58.324, 107.442 56.020, 105.250 55.921 C 104.194 55.873, 103.998 55.641, 104.756 55.336 C 105.447 55.057, 105.758 54.418, 105.447 53.915 C 104.680 52.673, 103.635 52.765, 102.200 54.200 M 131.446 55.087 C 130.573 56.499, 132.501 58.427, 133.913 57.554 C 135.499 56.574, 135.243 54, 133.559 54 C 132.766 54, 131.816 54.489, 131.446 55.087 M 137.190 56.750 C 137.376 57.712, 138.190 58.500, 139 58.500 C 139.810 58.500, 140.624 57.712, 140.810 56.750 C 141.046 55.522, 140.506 55, 139 55 C 137.494 55, 136.954 55.522, 137.190 56.750 M 142.459 58.067 C 141.383 59.808, 142.608 60.177, 143.980 58.524 C 144.769 57.574, 144.845 57, 144.181 57 C 143.597 57, 142.821 57.480, 142.459 58.067 M 65.200 60.200 C 64.540 60.860, 64 62.040, 64 62.822 C 64 63.934, 63.691 63.989, 62.589 63.074 C 61.624 62.273, 60.973 62.235, 60.530 62.951 C 59.506 64.608, 60.989 66.138, 63 65.500 C 64.007 65.180, 65.121 65.387, 65.475 65.959 C 67.552 69.320, 70.836 64.430, 68.913 60.838 C 67.766 58.695, 66.861 58.539, 65.200 60.200 M 133.533 59.947 C 132.653 61.370, 133.775 63, 135.632 63 C 136.508 63, 137.010 62.297, 136.823 61.333 C 136.434 59.324, 134.437 58.484, 133.533 59.947 M 58.079 61.583 C 58.127 62.748, 58.364 62.985, 58.683 62.188 C 58.972 61.466, 58.936 60.603, 58.604 60.271 C 58.272 59.939, 58.036 60.529, 58.079 61.583 M 66.079 61.583 C 66.127 62.748, 66.364 62.985, 66.683 62.188 C 66.972 61.466, 66.936 60.603, 66.604 60.271 C 66.272 59.939, 66.036 60.529, 66.079 61.583 M 129 61.500 C 129 62.417, 129.484 63.005, 130.075 62.808 C 130.666 62.611, 131.150 62.023, 131.150 61.500 C 131.150 60.977, 130.666 60.389, 130.075 60.192 C 129.484 59.995, 129 60.583, 129 61.500 M 58 66 C 58 67.867, 58.267 68.133, 59.200 67.200 C 60.133 66.267, 60.133 65.733, 59.200 64.800 C 58.267 63.867, 58 64.133, 58 66 M 87.575 64.879 C 87.265 65.380, 87.684 66.048, 88.506 66.364 C 89.328 66.679, 90 66.528, 90 66.028 C 90 64.672, 88.223 63.830, 87.575 64.879 M 102 64.903 C 102 66.210, 106.389 69.822, 109.500 71.075 C 114.367 73.035, 115.574 72.808, 117.423 69.586 C 119.145 66.585, 119.142 66.562, 117.260 68.265 C 114.149 71.080, 108.370 70.524, 104.923 67.077 C 103.315 65.469, 102 64.491, 102 64.903 M 119 64.893 C 119 65.384, 119.739 66.069, 120.641 66.416 C 122.014 66.943, 122.076 66.796, 121.019 65.523 C 119.579 63.788, 119 63.607, 119 64.893 M 85.900 68 C 85.364 73.360, 86.117 76, 88.181 76 C 88.866 76, 88.815 75.482, 88.036 74.544 C 87.372 73.743, 87.099 72.649, 87.430 72.113 C 87.762 71.577, 87.595 70.868, 87.060 70.537 C 86.525 70.206, 86.341 69.275, 86.651 68.468 C 86.960 67.661, 86.941 67, 86.607 67 C 86.273 67, 85.955 67.450, 85.900 68 M 91 69.653 C 89.622 70.379, 89.173 70.970, 90 70.970 C 91.724 70.969, 94.674 69.299, 93.971 68.722 C 93.712 68.509, 92.375 68.928, 91 69.653 M 79.512 70.962 C 79.169 72.041, 79.374 73.831, 79.968 74.939 C 81.239 77.314, 85 79.628, 85 78.035 C 85 77.466, 84.341 77, 83.535 77 C 81.555 77, 79.744 73.382, 80.512 70.962 C 80.855 69.883, 80.910 69, 80.635 69 C 80.360 69, 79.855 69.883, 79.512 70.962 M 50.225 73.500 C 52.175 80.353, 54.395 81.639, 58.421 78.250 C 60.498 76.502, 60.498 76.502, 58.595 78.750 C 56.552 81.163, 53.099 81.699, 51.285 79.885 C 50.014 78.614, 43.656 82.906, 41.872 86.238 C 40.631 88.557, 42.620 91.186, 46.982 92.992 C 50.051 94.264, 54 93.011, 54 90.765 C 54 89.935, 54.360 89.966, 55.250 90.871 C 56.253 91.891, 56.033 92.523, 54.139 94.071 C 52.841 95.132, 52.209 96, 52.736 96 C 54.476 96, 57.696 92.525, 57.228 91.153 C 56.533 89.115, 60.692 91.556, 61.964 93.933 C 63.380 96.579, 60.925 100.957, 56.787 103.163 C 52.468 105.466, 51.470 105.421, 49.039 102.811 C 47.918 101.608, 47 101.147, 47 101.788 C 47 102.429, 48.094 103.671, 49.431 104.547 C 51.808 106.104, 51.829 106.232, 50.355 110.320 C 48.064 116.674, 47.954 118.045, 49.680 118.708 C 50.552 119.042, 52.144 118.767, 53.218 118.096 C 54.902 117.044, 55.123 117.125, 54.827 118.688 C 54.367 121.112, 49.013 121.775, 47.774 119.561 C 47.281 118.679, 46.455 118.219, 45.939 118.538 C 44.376 119.504, 44.881 120.437, 47.664 121.730 C 49.764 122.705, 50.850 122.702, 52.906 121.716 C 55.126 120.652, 55.507 119.812, 55.548 115.894 C 55.589 111.997, 56.149 110.747, 59.315 107.488 L 63.033 103.659 65.017 105.788 C 67.792 108.766, 67.492 111.676, 64 115.653 C 60.713 119.396, 60.500 120.197, 62.030 123.055 C 64.974 128.557, 77.532 130.080, 85.122 125.855 C 87.449 124.560, 89.560 122.825, 89.814 122 C 90.117 121.014, 89.457 121.248, 87.887 122.683 C 84.524 125.759, 80.700 127, 74.583 127 C 66.643 127, 60.275 122.183, 62.875 118.145 C 63.594 117.028, 64.217 117.096, 66.405 118.530 C 67.867 119.487, 69.307 120.026, 69.607 119.727 C 69.906 119.427, 69.217 118.886, 68.075 118.524 C 66.934 118.162, 66 117.235, 66 116.464 C 66 115.628, 66.606 115.295, 67.502 115.639 C 68.328 115.956, 70.194 115.917, 71.647 115.552 C 73.631 115.054, 74.004 114.604, 73.145 113.745 C 71.657 112.257, 71.666 105.734, 73.158 104.242 C 74.034 103.366, 74.019 102.728, 73.096 101.615 C 72.136 100.459, 72.137 99.276, 73.098 96.066 C 73.770 93.823, 73.962 91.653, 73.523 91.244 C 73.085 90.835, 72.525 91.063, 72.280 91.750 C 71.514 93.893, 70 93.119, 70 90.583 C 70 89.254, 70.563 87.966, 71.250 87.721 C 72.106 87.415, 71.736 86.444, 70.076 84.637 C 68.220 82.618, 68.017 82, 69.211 82 C 70.069 82, 73.047 81.265, 75.831 80.366 C 80.800 78.761, 80.861 78.692, 79.246 76.551 C 77.691 74.490, 77.381 74.447, 73.551 75.771 C 66.038 78.368, 54.021 75.942, 50.293 71.075 C 49.346 69.838, 49.331 70.358, 50.225 73.500 M 92.139 73.086 C 90.841 74.139, 90.192 75, 90.698 75 C 92.037 75, 95.585 72.251, 94.998 71.668 C 94.724 71.395, 93.438 72.033, 92.139 73.086 M 52.276 77.329 C 52.755 78.767, 56 79.518, 56 78.190 C 56 77.664, 55.074 76.991, 53.943 76.695 C 52.634 76.353, 52.028 76.584, 52.276 77.329 M 110.469 80.050 C 109.519 81.588, 110.820 82.580, 112.104 81.296 C 112.822 80.578, 112.839 80.019, 112.156 79.597 C 111.596 79.251, 110.837 79.455, 110.469 80.050 M 103.500 83 C 103.840 83.550, 104.568 84, 105.118 84 C 105.668 84, 105.840 83.550, 105.500 83 C 105.160 82.450, 104.432 82, 103.882 82 C 103.332 82, 103.160 82.450, 103.500 83 M 144 85.175 C 142.075 86.874, 141.175 87.912, 142 87.483 C 142.825 87.054, 144.536 85.769, 145.803 84.627 C 147.780 82.845, 148.250 82.761, 149.129 84.026 C 149.984 85.257, 150.088 85.263, 149.764 84.063 C 149.114 81.661, 147.665 81.941, 144 85.175 M 49.445 85.061 C 47.848 86.825, 47.790 87.255, 49.040 88.046 C 51.051 89.318, 56 89.238, 56 87.934 C 56 85.992, 53.950 83, 52.620 83 C 51.899 83, 50.471 83.927, 49.445 85.061 M 94.079 85.583 C 94.127 86.748, 94.364 86.985, 94.683 86.188 C 94.972 85.466, 94.936 84.603, 94.604 84.271 C 94.272 83.939, 94.036 84.529, 94.079 85.583 M 89.861 87.059 L 87.500 89.119 90.250 87.444 C 91.763 86.523, 93 85.597, 93 85.385 C 93 84.604, 92.165 85.050, 89.861 87.059 M 64.227 90.423 C 64.377 92.030, 65.063 93.530, 65.750 93.756 C 67.478 94.324, 67.318 91.787, 65.477 89.441 C 64.025 87.589, 63.967 87.635, 64.227 90.423 M 95 88.378 C 95 88.585, 95.787 89.373, 96.750 90.128 C 98.336 91.371, 98.371 91.336, 97.128 89.750 C 95.821 88.084, 95 87.555, 95 88.378 M 120.218 89.154 C 120.737 90.712, 122.974 90.984, 123.053 89.500 C 123.082 88.950, 122.355 88.345, 121.438 88.154 C 120.395 87.939, 119.938 88.313, 120.218 89.154 M 114.543 90.931 C 113.860 92.036, 115.437 93.230, 116.361 92.306 C 117.311 91.355, 117.134 90, 116.059 90 C 115.541 90, 114.859 90.419, 114.543 90.931 M 142.459 91.067 C 142.096 91.653, 142.014 92.348, 142.276 92.610 C 142.538 92.872, 143.019 92.392, 143.345 91.543 C 144.021 89.781, 143.445 89.471, 142.459 91.067 M 126.409 94.376 C 125.562 96.584, 126.689 97.711, 128.217 96.183 C 129.119 95.281, 129.122 94.722, 128.233 93.833 C 127.343 92.943, 126.909 93.072, 126.409 94.376 M 109.510 94.984 C 108.773 96.177, 109.709 98, 111.059 98 C 112.276 98, 112.284 95.293, 111.069 94.543 C 110.557 94.226, 109.856 94.425, 109.510 94.984 M 117.431 95.112 C 116.569 96.507, 119.172 98.228, 120.355 97.045 C 121.316 96.084, 120.390 94, 119 94 C 118.515 94, 117.809 94.500, 117.431 95.112 M 49.257 97.237 C 49.125 98.996, 49.290 99.156, 50.029 97.987 C 51.185 96.159, 51.256 95, 50.213 95 C 49.780 95, 49.350 96.007, 49.257 97.237 M 90 95.383 C 90 95.594, 90.901 96.002, 92.001 96.290 C 93.102 96.578, 93.751 96.405, 93.442 95.907 C 92.904 95.036, 90 94.594, 90 95.383 M 86.029 96.961 C 85.220 97.473, 84.771 98.104, 85.031 98.364 C 85.290 98.624, 86.376 98.198, 87.443 97.418 C 89.576 95.858, 88.383 95.472, 86.029 96.961 M 77 99.059 C 77 99.641, 77.498 99.810, 78.107 99.434 C 78.853 98.973, 78.993 99.446, 78.538 100.880 C 77.504 104.137, 80.661 104.826, 83.333 101.926 C 85.330 99.758, 85.337 99.708, 83.421 101.287 C 82.278 102.229, 80.778 103, 80.088 103 C 78.133 103, 79.393 100.635, 82.079 99.265 C 84.415 98.073, 84.369 98.029, 80.750 98.015 C 78.688 98.007, 77 98.477, 77 99.059 M 115.218 101.154 C 115.737 102.712, 117.974 102.984, 118.053 101.500 C 118.082 100.950, 117.355 100.345, 116.438 100.154 C 115.395 99.939, 114.938 100.313, 115.218 101.154 M 123.272 103.128 C 122.434 103.966, 122.440 104.732, 123.297 106.103 C 124.177 107.513, 124.160 108.240, 123.225 109.175 C 122.551 109.849, 122 111.841, 122 113.603 C 122 117.836, 115.056 125.562, 109.500 127.510 C 107.300 128.281, 106.317 128.932, 107.316 128.956 C 109.576 129.011, 112.609 127.444, 116.500 124.210 C 120.647 120.763, 122.280 118.211, 122.941 114.145 C 123.658 109.734, 125.239 109.190, 127.465 112.586 C 128.423 114.049, 128.758 114.968, 128.209 114.629 C 127.659 114.289, 126.944 114.704, 126.619 115.550 C 126.239 116.542, 127.803 118.911, 131.018 122.212 C 135.869 127.192, 136.084 127.295, 138.754 125.919 C 142.340 124.070, 142.791 123.357, 142.230 120.421 C 141.657 117.425, 140.063 116.280, 138.957 118.070 C 138.368 119.023, 137.948 118.642, 137.465 116.715 C 137.081 115.185, 135.312 113.120, 133.343 111.903 C 131.447 110.731, 130.129 109.537, 130.416 109.250 C 130.703 108.964, 132.189 109.544, 133.719 110.539 C 135.841 111.921, 136.196 111.978, 135.217 110.782 C 134.511 109.920, 132.593 108.660, 130.954 107.981 C 129.233 107.268, 127.723 105.744, 127.379 104.373 C 126.738 101.818, 125.083 101.317, 123.272 103.128 M 72.149 117.604 C 70.121 119.898, 71.177 120.089, 73.861 117.914 C 75.209 116.821, 75.638 116.016, 74.861 116.038 C 74.112 116.059, 72.892 116.764, 72.149 117.604 M 90.079 118.583 C 90.127 119.748, 90.364 119.985, 90.683 119.188 C 90.972 118.466, 90.936 117.603, 90.604 117.271 C 90.272 116.939, 90.036 117.529, 90.079 118.583 M 123 119.186 C 123 119.508, 123.672 121.060, 124.494 122.636 C 125.315 124.211, 125.990 125.107, 125.994 124.628 C 125.997 124.148, 126.787 124.359, 127.750 125.097 C 128.713 125.835, 128.382 125.103, 127.015 123.470 C 125.648 121.836, 124.186 120.073, 123.765 119.550 C 123.344 119.027, 123 118.864, 123 119.186 M 31.158 126 C 31.158 127.375, 31.385 127.938, 31.662 127.250 C 31.940 126.563, 31.940 125.438, 31.662 124.750 C 31.385 124.063, 31.158 124.625, 31.158 126 M 142.802 127.094 C 142.579 127.764, 140.394 128.636, 137.948 129.031 C 133.668 129.723, 133.634 129.754, 137.059 129.875 C 140.578 129.999, 145.099 127.765, 143.853 126.519 C 143.498 126.165, 143.025 126.424, 142.802 127.094 M 32.522 130.196 C 33.316 132.267, 38.956 135, 42.433 135 C 45.072 135, 52 132.539, 52 131.602 C 52 131.327, 50.329 131.800, 48.286 132.654 C 43.520 134.645, 37.562 133.877, 34.346 130.855 C 32.640 129.252, 32.082 129.051, 32.522 130.196" stroke="none" fill="#3467df" fill-rule="evenodd"/>
</svg>