<svg xmlns="http://www.w3.org/2000/svg" width="90" height="90" viewBox="0 0 90 90" version="1.1">
	<rect x="0" y="0" width="100%" height="100%" fill="#bfbfbf" />
	<path d="M 0 17 C 0 26.350, 0.245 34, 0.544 34 C 0.843 34, 2.301 32.875, 3.783 31.500 C 6.981 28.535, 9 28.287, 9 30.860 C 9 31.884, 9.278 34.748, 9.617 37.226 L 10.235 41.731 5.117 44.044 L 0 46.357 0 52.735 L 0 59.113 2.223 57.557 C 5.490 55.268, 6.582 55.582, 10.738 59.998 C 12.807 62.197, 15.303 63.997, 16.285 63.998 C 18.464 64, 22.857 66.643, 25.324 69.436 C 26.607 70.888, 27.299 71.129, 27.657 70.250 C 28.394 68.443, 30.431 68.714, 32.392 70.881 C 36.348 75.251, 44.336 70.852, 48.085 62.237 C 49.105 59.893, 49.841 57.643, 49.720 57.237 C 49.599 56.832, 47.967 56.500, 46.093 56.500 C 44.220 56.500, 42.495 55.938, 42.260 55.250 C 42 54.487, 42.743 53.995, 44.167 53.986 C 47.519 53.967, 51 52.908, 51 51.908 C 51 51.436, 49.580 51.334, 47.845 51.681 C 45.589 52.132, 44.893 51.983, 45.404 51.156 C 45.797 50.520, 47.763 50, 49.773 50 C 52.916 50, 53.223 49.808, 51.964 48.627 C 49.443 46.264, 44.434 45.863, 42.610 47.879 C 41.722 48.860, 41.321 49.988, 41.719 50.386 C 42.709 51.375, 39.994 52.935, 38.368 52.311 C 37.645 52.034, 36.754 50.163, 36.387 48.153 C 36.014 46.114, 34.208 42.813, 32.300 40.681 C 28.361 36.282, 28.242 33.322, 32.025 33.836 C 33.386 34.022, 34.928 34.584, 35.450 35.086 C 37.003 36.580, 38.824 36.131, 39.470 34.094 C 40.083 32.163, 41.477 31.917, 43.750 33.337 C 44.607 33.872, 45.036 33.391, 45.115 31.809 C 45.325 27.602, 44.813 25.546, 42.878 22.829 C 41.690 21.160, 41.350 19.902, 41.982 19.511 C 42.542 19.165, 43 19.428, 43 20.096 C 43 20.862, 43.714 20.664, 44.937 19.557 C 48.164 16.637, 49.325 18.522, 48.609 25.515 C 48.022 31.241, 48.139 31.803, 50.013 32.293 C 51.138 32.587, 51.932 33.429, 51.779 34.164 C 51.625 34.899, 52.175 35.500, 53 35.500 C 53.931 35.500, 54.389 34.741, 54.208 33.500 C 53.967 31.846, 54.097 31.759, 54.958 33 C 55.884 34.333, 56.109 34.333, 56.985 33 C 58.421 30.812, 58.240 30.211, 55.925 29.476 C 54.783 29.114, 54.070 28.597, 54.339 28.328 C 55.539 27.128, 59 30.252, 59 32.535 C 59 33.891, 59.337 35, 59.750 35.001 C 60.163 35.001, 60.500 33.314, 60.500 31.251 C 60.500 27.576, 60.659 27.419, 68.303 23.526 C 77.271 18.958, 77.883 19.206, 78.101 27.500 C 78.173 30.250, 78.438 31.712, 78.689 30.750 C 78.941 29.787, 79.590 29, 80.132 29 C 80.674 29, 80.900 29.353, 80.634 29.784 C 80.367 30.215, 81.803 30.498, 83.825 30.413 C 85.891 30.327, 88.266 30.927, 89.250 31.785 C 90.908 33.230, 91 32.431, 91 16.655 L 91 0 80.029 0 C 70.500 0, 68.314 0.329, 63.404 2.500 C 60.295 3.875, 57.380 5, 56.927 5 C 56.474 5, 54.889 3.875, 53.405 2.500 L 50.708 0 25.354 0 L 0 0 0 17 M 0.409 17.500 C 0.408 26.850, 0.558 30.810, 0.743 26.299 C 0.928 21.789, 0.929 14.139, 0.745 9.299 C 0.562 4.460, 0.410 8.150, 0.409 17.500 M 12.379 16.183 C 11.380 17.784, 10.814 21, 11.531 21 C 12.251 21, 14.154 15.821, 13.628 15.295 C 13.393 15.059, 12.831 15.459, 12.379 16.183 M 49.807 21.137 C 50.188 23.735, 50.430 23.982, 51.217 22.576 C 52.233 20.761, 51.622 18, 50.205 18 C 49.733 18, 49.554 19.412, 49.807 21.137 M 36 33 C 36 33.550, 36.477 34, 37.059 34 C 37.641 34, 37.840 33.550, 37.500 33 C 37.160 32.450, 36.684 32, 36.441 32 C 36.198 32, 36 32.450, 36 33 M 43.538 38.926 C 41.388 43.085, 42.563 44.492, 47.425 43.580 C 50.902 42.928, 52.476 41, 49.532 41 C 48.725 41, 47.430 39.790, 46.655 38.311 L 45.246 35.623 43.538 38.926 M 9 54.059 C 9 54.641, 9.450 54.840, 10 54.500 C 10.550 54.160, 11 53.684, 11 53.441 C 11 53.198, 10.550 53, 10 53 C 9.450 53, 9 53.477, 9 54.059 M 15 54 C 15 54.550, 15.450 55, 16 55 C 16.550 55, 17 54.550, 17 54 C 17 53.450, 16.550 53, 16 53 C 15.450 53, 15 53.450, 15 54 M 13 58.500 C 13.685 59.325, 14.695 60, 15.245 60 C 15.803 60, 15.694 59.337, 15 58.500 C 14.315 57.675, 13.305 57, 12.755 57 C 12.197 57, 12.306 57.663, 13 58.500 M 72 75.250 C 72 76.665, 71.112 77, 67.360 77 C 64.370 77, 62.326 77.539, 61.610 78.515 C 61 79.349, 57.575 80.561, 54 81.210 C 50.425 81.859, 47.169 82.864, 46.765 83.445 C 46.361 84.025, 46.024 83.263, 46.015 81.750 C 46.004 79.798, 45.492 79.004, 44.250 79.015 C 42.887 79.027, 42.800 79.221, 43.857 79.890 C 45.682 81.047, 43.718 82.213, 41.426 81.333 C 40.229 80.874, 39.901 81.031, 40.395 81.830 C 41.247 83.209, 38.888 83.387, 24.397 83.037 C 16.266 82.840, 14.183 83.080, 13.729 84.264 C 12.898 86.429, 8.242 87.074, 7.496 85.128 C 6.759 83.210, 9.514 81, 12.641 81 C 13.884 81, 15.260 80.375, 15.700 79.611 C 16.140 78.848, 17.400 78, 18.500 77.727 C 20.028 77.349, 19.851 77.205, 17.750 77.116 C 16.238 77.052, 15 77.429, 15 77.953 C 15 79.202, 9.306 80.701, 5.500 80.453 C 0.989 80.160, 0.825 80.092, 1.595 78.845 C 2.038 78.130, 1.870 77.962, 1.155 78.405 C 0.508 78.804, 0 81.541, 0 84.624 L 0 90.130 6.588 89.834 C 11.841 89.598, 13.382 89.154, 14.190 87.645 C 15.136 85.877, 16.251 85.783, 31.065 86.236 C 39.789 86.502, 47.057 86.330, 47.215 85.854 C 47.374 85.377, 50.428 84.474, 54.002 83.847 C 58.019 83.142, 60.967 82.044, 61.724 80.972 C 62.525 79.835, 64.338 79.217, 66.974 79.181 C 70.467 79.133, 70.999 79.415, 70.995 81.313 C 70.990 83.281, 70.425 83.519, 65.343 83.687 C 60.233 83.857, 58.799 84.520, 57.766 87.188 C 57.620 87.567, 55.531 88.111, 53.124 88.398 C 47.225 89.101, 46.639 90.001, 52.083 89.996 C 54.760 89.993, 58.367 89.044, 61.240 87.587 C 66.597 84.869, 70.415 85.118, 69.461 88.124 C 68.914 89.846, 69.487 90, 76.433 90 C 83.976 90, 84 89.992, 84 87.316 C 84 85.839, 83.297 82.127, 82.438 79.066 L 80.875 73.500 76.438 73.500 C 72.878 73.500, 72 73.846, 72 75.250 M 35.125 76.629 C 34.058 77.835, 32.412 78.063, 27.766 77.649 C 24.475 77.355, 22.043 77.377, 22.363 77.697 C 22.683 78.017, 25.602 78.481, 28.850 78.728 C 33.055 79.049, 35.653 78.714, 37.877 77.564 C 39.595 76.675, 41 75.735, 41 75.474 C 41 74.317, 36.366 75.228, 35.125 76.629 M 51.441 76.555 C 49.577 78.049, 49.589 78.067, 51.750 77.020 C 52.987 76.420, 54 75.720, 54 75.465 C 54 74.700, 53.481 74.921, 51.441 76.555" stroke="none" fill="#3467df" fill-rule="evenodd"/>
</svg>