<svg xmlns="http://www.w3.org/2000/svg" width="90" height="90" viewBox="0 0 90 90" version="1.1">
	<rect x="0" y="0" width="100%" height="100%" fill="#bfbfbf" />
	<path d="M 0.022 41.930 C 0.068 73.680, 0.376 83.999, 1.291 84.430 C 2.224 84.870, 2.214 85.133, 1.250 85.583 C 0.562 85.904, -0 87.035, -0 88.097 C -0 89.980, 1.120 90.021, 45.250 89.764 L 90.500 89.500 90.795 44.750 L 91.090 0 77.113 0 C 64.013 0, 63.095 0.126, 62.500 2 C 61.937 3.773, 60.994 3.998, 54.183 3.985 C 49.606 3.976, 47.039 3.628, 47.834 3.124 C 48.912 2.440, 48.870 2.164, 47.616 1.683 C 46.762 1.355, 45.813 1.494, 45.506 1.990 C 45.191 2.500, 43.161 2.263, 40.848 1.446 C 37.841 0.386, 31.846 0, 18.355 0 L -0.039 0 0.022 41.930 M 0.231 41.500 C 0.115 65.264, 0.399 81.919, 0.907 81.117 C 1.551 80.099, 1.965 80.562, 2.471 82.867 C 3.530 87.689, 4.819 86.577, 4.230 81.350 C 3.853 78.002, 4.027 76.899, 4.853 77.409 C 5.484 77.799, 6 77.641, 6 77.059 C 6 76.477, 5.503 76, 4.896 76 C 4.108 76, 4 71.848, 4.517 61.500 C 5.162 48.587, 5.067 47, 3.646 47 C 2.262 47, 2.009 49.163, 1.748 63.250 L 1.447 79.500 1.360 60 C 1.312 49.275, 1.467 41.513, 1.706 42.750 C 2.335 46.017, 4.649 45.507, 5.361 41.943 C 5.814 39.682, 5.456 38.333, 3.986 36.755 C 2.494 35.153, 1.946 34.980, 1.784 36.061 C 1.666 36.853, 1.313 29.175, 1 19 C 0.568 4.956, 0.383 10.376, 0.231 41.500 M 29.528 4.954 C 28.511 6.600, 30.158 11.422, 32.375 13.291 L 34.500 15.082 32 14.791 C 30.250 14.587, 29.348 13.750, 28.994 12 C 28.661 10.356, 27.707 9.389, 26.207 9.176 C 24.163 8.885, 23.952 9.222, 24.168 12.426 L 24.409 16 29.621 16 C 32.488 16, 35.062 15.539, 35.342 14.975 C 35.621 14.411, 35.734 14.524, 35.593 15.225 C 35.451 15.926, 34.022 16.784, 32.418 17.132 L 29.500 17.763 32.500 18.018 C 35.299 18.255, 35.332 18.303, 33 18.737 C 31.625 18.993, 30.191 19.699, 29.814 20.306 C 29.430 20.924, 27.118 21.287, 24.564 21.130 C 21.800 20.960, 20 21.273, 20 21.924 C 20 22.516, 20.450 23, 21 23 C 21.550 23, 22 23.752, 22 24.671 C 22 25.590, 22.732 27.151, 23.626 28.139 C 24.877 29.522, 25.692 29.700, 27.164 28.912 C 29.379 27.727, 34.025 28.748, 32.029 29.982 C 31.058 30.582, 31.052 31.229, 32.002 33.004 L 33.211 35.262 35.355 32.797 C 38.117 29.623, 45 23.615, 45 24.379 C 45 24.701, 42.975 27.078, 40.500 29.661 C 35.556 34.821, 35.116 35.956, 37.787 36.655 C 38.851 36.933, 39.662 38.192, 39.793 39.767 C 40.047 42.838, 42 45.398, 42 42.661 C 42 41.277, 42.266 41.169, 43.301 42.136 C 44.033 42.820, 44.414 44.636, 44.171 46.287 C 43.918 48.011, 44.267 49.547, 45.016 50.010 C 45.834 50.515, 46.003 51.463, 45.487 52.649 C 45.044 53.667, 44.768 54.880, 44.872 55.344 C 45.297 57.229, 42.629 55.228, 41.827 53.060 C 41.079 51.038, 41.167 50.894, 42.486 51.988 C 43.847 53.118, 43.856 52.892, 42.567 49.877 C 41.760 47.987, 40.451 46.559, 39.595 46.633 C 38.478 46.731, 38.157 45.991, 38.402 43.883 C 38.587 42.298, 38.347 41, 37.869 41 C 37.391 41, 37 40.070, 37 38.934 C 37 37.269, 36.465 36.929, 34.250 37.184 C 31.852 37.459, 31.497 37.939, 31.478 40.924 C 31.466 42.807, 30.904 44.532, 30.228 44.757 C 29.553 44.982, 29 45.565, 29 46.052 C 29 46.539, 29.788 46.660, 30.750 46.321 C 32.179 45.819, 32.270 45.953, 31.250 47.053 C 30.286 48.092, 29.729 48.129, 28.814 47.214 C 26.856 45.256, 23.891 48.584, 24.998 51.496 C 25.479 52.760, 25.564 54.138, 25.186 54.558 C 24.809 54.977, 25.090 54.980, 25.812 54.563 C 26.533 54.147, 27.531 52.733, 28.030 51.422 C 29.066 48.695, 31.570 49.068, 32.529 52.092 C 33.256 54.382, 35.303 54.554, 37.357 52.500 C 39.052 50.805, 40.438 50.482, 39.500 52 C 39.160 52.550, 39.385 53, 40 53 C 40.615 53, 40.840 53.450, 40.500 54 C 40.160 54.550, 40.449 55, 41.141 55 C 43.217 55, 40.757 56.784, 38 57.279 C 36.625 57.526, 37.862 57.789, 40.750 57.864 L 46 58 46 62 C 46 64.200, 46.257 66, 46.571 66 C 47.987 66, 50.054 62.890, 49.392 61.758 C 48.987 61.066, 49.521 61.229, 50.578 62.120 C 51.635 63.010, 53.063 63.535, 53.750 63.286 C 54.539 63, 55 63.763, 55 65.357 C 55 67.780, 55.109 67.825, 57.704 66.478 C 60.626 64.963, 62.058 65.342, 60.248 67.152 C 59.422 67.978, 59.505 68.648, 60.564 69.707 C 61.354 70.497, 62 72.199, 62 73.490 C 62 74.780, 62.280 76.567, 62.623 77.459 C 63.031 78.522, 62.772 78.981, 61.873 78.791 C 60.907 78.586, 60.486 79.616, 60.451 82.266 C 60.423 84.471, 60.837 85.886, 61.451 85.679 C 62.028 85.485, 62.349 84.077, 62.164 82.550 C 61.945 80.743, 62.206 80.010, 62.914 80.447 C 63.668 80.913, 64 78.034, 64 71.028 C 64 62.698, 63.721 60.830, 62.399 60.323 C 61.519 59.985, 60.400 60.337, 59.914 61.104 C 59.231 62.183, 59.028 62.046, 59.018 60.500 C 59.008 58.981, 59.700 58.476, 61.898 58.399 C 64.497 58.308, 64.854 58.682, 65.395 62.069 C 65.727 64.144, 65.713 66.664, 65.365 67.671 C 64.809 69.275, 64.928 69.254, 66.334 67.500 C 68.141 65.245, 68.477 62.413, 67.044 61.527 C 66.518 61.202, 66.341 60.275, 66.651 59.468 C 67.263 57.871, 70.550 57.463, 71.423 58.875 C 71.720 59.357, 72.248 64.644, 72.596 70.625 C 72.943 76.606, 73.454 81.725, 73.730 82 C 74.006 82.275, 74.067 77.100, 73.866 70.500 C 73.506 58.694, 73.536 58.495, 75.748 58.181 C 77.992 57.862, 77.995 57.879, 77.511 69.681 C 77.189 77.525, 77.353 80.996, 77.998 80 C 78.532 79.175, 78.983 77.375, 79 76 C 79.017 74.625, 79.467 72.825, 80 72 C 80.753 70.835, 80.973 71.128, 80.985 73.309 C 80.993 74.854, 81.427 75.854, 81.950 75.531 C 82.477 75.205, 82.759 70.840, 82.584 65.722 C 82.410 60.650, 82.626 55.600, 83.064 54.500 C 83.655 53.013, 83.877 53.590, 83.930 56.750 C 83.968 59.087, 84.450 61, 85 61 C 85.550 61, 86.046 62.013, 86.102 63.250 C 86.183 65.029, 86.356 64.872, 86.929 62.500 C 87.327 60.850, 88.181 58.517, 88.826 57.316 C 90.522 54.161, 90.261 52.071, 88.468 54.441 C 86.972 56.419, 86.513 55.434, 87.605 52.588 C 87.937 51.721, 88.612 51.260, 89.105 51.565 C 90.182 52.231, 90.323 38.657, 89.250 37.583 C 88.838 37.171, 88.444 36.421, 88.375 35.917 C 88.306 35.412, 88.194 34.550, 88.125 34 C 88.056 33.450, 87.361 33, 86.579 33 C 85.798 33, 84.867 31.670, 84.510 30.045 C 83.821 26.909, 80.537 25.063, 78.777 26.823 C 77.174 28.426, 75 27.028, 75 24.393 C 75 23.077, 74.619 22, 74.154 22 C 72.715 22, 67.272 24.967, 66.084 26.399 C 65.166 27.505, 64.316 27.116, 61.498 24.298 C 58.495 21.295, 57.951 19.982, 57.373 14.332 C 57.006 10.753, 56.210 7.675, 55.603 7.493 C 54.996 7.310, 52.138 6.885, 49.250 6.546 C 44.349 5.972, 44 6.075, 44 8.088 C 44 9.918, 43.766 10.051, 42.458 8.965 C 41.289 7.995, 40.634 7.966, 39.758 8.842 C 37.845 10.755, 36 10.153, 36 7.617 C 36 5.990, 35.285 5.042, 33.750 4.630 C 30.694 3.811, 30.212 3.848, 29.528 4.954 M 44.079 14.625 C 43.929 18.648, 45.253 23, 46.625 23 C 47.425 23, 48 21.955, 48 20.500 C 48 19.125, 47.587 18, 47.083 18 C 46.579 18, 45.715 16.762, 45.162 15.250 C 44.310 12.915, 44.146 12.821, 44.079 14.625 M 36 19.316 C 36 21.650, 38.030 22.946, 41.750 22.986 C 44.638 23.018, 41.793 18.586, 38.250 17.534 C 36.347 16.968, 36 17.243, 36 19.316 M 12.181 23.119 C 12.451 25.884, 13.015 26.517, 15.860 27.249 C 19.311 28.138, 21.376 27.469, 19.246 26.152 C 18.589 25.746, 17.884 24.308, 17.681 22.957 C 17.409 21.144, 16.598 20.415, 14.587 20.177 C 12.059 19.877, 11.885 20.089, 12.181 23.119 M 52 25 C 52 25.550, 52.477 26, 53.059 26 C 53.641 26, 53.840 25.550, 53.500 25 C 53.160 24.450, 52.684 24, 52.441 24 C 52.198 24, 52 24.450, 52 25 M 58.086 28.500 C 58.190 30.394, 59.856 33.584, 59.914 32 C 59.945 31.175, 59.533 29.825, 59 29 C 58.467 28.175, 58.055 27.950, 58.086 28.500 M 70.667 28.667 C 69.550 29.783, 69.920 31, 71.378 31 C 72.135 31, 73.315 30.325, 74 29.500 C 75.034 28.254, 74.914 28, 73.289 28 C 72.213 28, 71.033 28.300, 70.667 28.667 M 28.560 34.279 C 29.627 35.741, 30.837 36.951, 31.250 36.969 C 32.778 37.033, 31.859 35.443, 29.279 33.560 L 26.620 31.620 28.560 34.279 M 13.089 39.393 C 12.190 40.476, 12.147 41.407, 12.930 42.869 C 13.803 44.501, 13.653 44.975, 12.107 45.466 C 10.469 45.986, 9.058 48.654, 9.014 51.317 C 9.006 51.767, 10.013 51.850, 11.250 51.502 C 13.011 51.006, 13.174 51.097, 12 51.919 C 11.175 52.497, 10.928 52.976, 11.450 52.985 C 11.973 52.993, 11.841 53.559, 11.158 54.242 C 10.170 55.230, 9.725 55.180, 8.974 53.992 C 8.173 52.726, 8.028 52.765, 8.015 54.250 C 8.001 55.870, 9.167 56.490, 11.419 56.062 C 11.925 55.966, 11.700 56.674, 10.919 57.636 C 10.013 58.752, 9.952 59.113, 10.750 58.633 C 11.438 58.220, 12 58.359, 12 58.941 C 12 59.523, 11.550 60, 11 60 C 9.615 60, 9.740 63.721, 11.155 64.595 C 11.829 65.012, 12.039 64.872, 11.660 64.259 C 11.303 63.682, 11.655 62.963, 12.442 62.661 C 13.670 62.189, 13.683 62.646, 12.534 65.905 C 11.622 68.487, 11.513 70.145, 12.192 71.099 C 12.940 72.151, 13.026 72.001, 12.535 70.500 C 12.021 68.928, 12.143 68.759, 13.104 69.713 C 14.063 70.665, 14.631 70.343, 15.744 68.213 C 18.045 63.813, 19.970 57.702, 19.985 54.750 C 19.993 53.237, 20.397 52, 20.883 52 C 21.369 52, 21.643 50.538, 21.493 48.750 C 21.130 44.441, 20.986 44.178, 20.150 46.299 C 19.504 47.934, 19.216 47.859, 16.970 45.466 C 15.399 43.792, 15.046 42.956, 16 43.168 C 17.023 43.394, 17.496 42.708, 17.488 41.011 C 17.475 38.123, 14.922 37.184, 13.089 39.393 M 13.500 40 C 12.718 41.266, 14.042 41.266, 16 40 C 17.293 39.165, 17.266 39.029, 15.809 39.015 C 14.879 39.007, 13.840 39.450, 13.500 40 M 63 45.583 C 61.319 46.516, 61.033 46.975, 62.128 46.985 C 63.023 46.993, 64.315 46.325, 65 45.500 C 66.460 43.740, 66.310 43.747, 63 45.583 M 68.986 49.691 C 68.979 51.236, 68.701 53.513, 68.370 54.750 C 67.926 56.404, 68.195 57, 69.383 57 C 70.630 57, 71 55.982, 71 52.559 C 71 50.116, 70.550 47.840, 70 47.500 C 69.425 47.145, 68.994 48.076, 68.986 49.691 M 12.951 49.031 C 11.969 49.637, 12.335 50.046, 14.302 50.540 C 15.786 50.912, 17 51.693, 17 52.275 C 17 52.857, 17.305 53.029, 17.677 52.656 C 18.840 51.493, 14.434 48.114, 12.951 49.031 M 29.015 54.125 C 29.003 56.254, 28.528 56.750, 26.500 56.750 C 24.809 56.750, 24 56.197, 24 55.042 C 24 54.102, 23.349 53.333, 22.554 53.333 C 21.486 53.333, 21.353 53.791, 22.046 55.086 C 22.692 56.294, 22.598 56.995, 21.742 57.340 C 21.059 57.616, 22.609 57.878, 25.187 57.921 C 29.705 57.997, 29.888 58.117, 30.277 61.250 C 30.566 63.581, 30.721 63.087, 30.825 59.500 C 30.904 56.750, 30.533 53.825, 30 53 C 29.239 51.822, 29.027 52.063, 29.015 54.125 M 74 55 C 74 56.100, 74.450 57, 75 57 C 75.550 57, 76 56.100, 76 55 C 76 53.900, 75.550 53, 75 53 C 74.450 53, 74 53.900, 74 55 M 32.500 56 C 32.840 56.550, 33.568 57, 34.118 57 C 34.668 57, 34.840 56.550, 34.500 56 C 34.160 55.450, 33.432 55, 32.882 55 C 32.332 55, 32.160 55.450, 32.500 56 M 6 57 C 6 57.550, 6.477 58, 7.059 58 C 7.641 58, 7.840 57.550, 7.500 57 C 7.160 56.450, 6.684 56, 6.441 56 C 6.198 56, 6 56.450, 6 57 M 35 60.500 C 35 61.325, 34.292 62, 33.427 62 C 32.467 62, 31.985 62.682, 32.190 63.750 C 32.779 66.809, 35.343 65.725, 35.740 62.250 C 35.944 60.462, 35.861 59, 35.556 59 C 35.250 59, 35 59.675, 35 60.500 M 34.573 76.768 C 34.672 78.715, 35.184 79.416, 36.356 79.206 C 37.320 79.034, 38 79.575, 38 80.515 C 38 81.397, 38.457 81.835, 39.016 81.490 C 39.575 81.144, 39.699 80.330, 39.291 79.681 C 38.884 79.031, 38.690 77.649, 38.862 76.610 C 39.078 75.295, 38.727 74.891, 37.708 75.282 C 36.903 75.591, 35.837 75.437, 35.340 74.940 C 34.801 74.401, 34.491 75.139, 34.573 76.768 M 56.787 77 C 57.029 78.650, 57.401 80, 57.613 80 C 57.826 80, 58 78.650, 58 77 C 58 75.350, 57.628 74, 57.173 74 C 56.718 74, 56.545 75.350, 56.787 77 M 23 75.378 C 23 75.585, 23.685 76.324, 24.523 77.019 C 25.796 78.076, 25.943 78.014, 25.416 76.641 C 24.878 75.240, 23 74.257, 23 75.378 M 13.813 76.683 C 14.534 76.972, 15.397 76.936, 15.729 76.604 C 16.061 76.272, 15.471 76.036, 14.417 76.079 C 13.252 76.127, 13.015 76.364, 13.813 76.683 M 19 77 C 19 77.550, 19.450 78, 20 78 C 20.550 78, 21 77.550, 21 77 C 21 76.450, 20.550 76, 20 76 C 19.450 76, 19 76.450, 19 77 M 31 77 C 31 77.550, 31.450 78, 32 78 C 32.550 78, 33 77.550, 33 77 C 33 76.450, 32.550 76, 32 76 C 31.450 76, 31 76.450, 31 77 M 9.813 78.683 C 10.534 78.972, 11.397 78.936, 11.729 78.604 C 12.061 78.272, 11.471 78.036, 10.417 78.079 C 9.252 78.127, 9.015 78.364, 9.813 78.683 M 14 78.969 C 14 79.501, 14.675 79.678, 15.500 79.362 C 16.325 79.045, 17 78.609, 17 78.393 C 17 78.177, 16.325 78, 15.500 78 C 14.675 78, 14 78.436, 14 78.969 M 31.500 80 C 31.160 80.550, 31.359 81, 31.941 81 C 32.523 81, 33 80.550, 33 80 C 33 79.450, 32.802 79, 32.559 79 C 32.316 79, 31.840 79.450, 31.500 80 M 6 81.500 C 6 82.417, 6.484 83.005, 7.075 82.808 C 7.666 82.611, 8.150 82.023, 8.150 81.500 C 8.150 80.977, 7.666 80.389, 7.075 80.192 C 6.484 79.995, 6 80.583, 6 81.500 M 10 81 C 10 81.550, 10.702 82, 11.559 82 C 12.416 82, 12.840 81.550, 12.500 81 C 12.160 80.450, 11.459 80, 10.941 80 C 10.423 80, 10 80.450, 10 81 M 17.135 81.160 C 18.034 81.897, 19.035 83.175, 19.359 84 C 19.683 84.825, 19.847 84.380, 19.724 83.010 C 19.580 81.405, 18.789 80.396, 17.500 80.170 C 15.691 79.854, 15.656 79.948, 17.135 81.160 M 57.158 83 C 57.158 84.375, 57.385 84.938, 57.662 84.250 C 57.940 83.563, 57.940 82.438, 57.662 81.750 C 57.385 81.063, 57.158 81.625, 57.158 83 M 23 83.393 C 23 83.609, 23.698 84.054, 24.552 84.382 C 25.442 84.723, 25.843 84.555, 25.493 83.989 C 24.906 83.038, 23 82.583, 23 83.393 M 8 86.122 C 8 87.896, 8.247 88.040, 9.500 87 C 10.325 86.315, 11 85.360, 11 84.878 C 11 84.395, 10.325 84, 9.500 84 C 8.638 84, 8 84.902, 8 86.122 M 0.158 88 C 0.158 89.375, 0.385 89.938, 0.662 89.250 C 0.940 88.563, 0.940 87.438, 0.662 86.750 C 0.385 86.063, 0.158 86.625, 0.158 88" stroke="none" fill="#3467df" fill-rule="evenodd"/>
</svg>