<svg xmlns="http://www.w3.org/2000/svg" width="300" height="300" viewBox="0 0 300 300" version="1.1">
	<rect x="0" y="0" width="100%" height="100%" fill="#bfbfbf" />
	<path d="M 25 1.515 C 25 3.200, 28.767 3.817, 32.750 2.785 C 37.764 1.486, 36.603 0.159, 30.500 0.214 C 26.789 0.247, 25 0.670, 25 1.515 M 52.567 9.630 C 52.108 15.884, 52.224 19.624, 52.897 20.297 C 53.613 21.013, 54.136 20.809, 54.586 19.637 C 54.971 18.634, 55.904 18.153, 56.868 18.461 C 58.314 18.922, 58.464 17.897, 58.181 9.491 C 57.875 0.353, 57.777 -0, 55.568 -0 C 53.384 -0, 53.240 0.460, 52.567 9.630 M 60 7.963 C 60 12.318, 60.457 16.165, 61.016 16.510 C 61.575 16.856, 61.774 17.557, 61.457 18.069 C 61.141 18.581, 61.584 19, 62.441 19 C 63.298 19, 64.007 18.438, 64.015 17.750 C 64.027 16.818, 64.247 16.841, 64.880 17.839 C 65.575 18.936, 68.420 18.993, 80.614 18.152 C 89.869 17.515, 95.859 17.481, 96.450 18.063 C 97.047 18.652, 96.861 19.018, 95.950 19.048 C 95.153 19.074, 92.025 19.283, 89 19.512 C 85.975 19.741, 79.675 20.215, 75 20.565 C 70.325 20.915, 65.992 21.616, 65.372 22.123 C 64.691 22.678, 63.296 22.683, 61.856 22.135 C 59.562 21.263, 59.483 21.380, 59.839 25.114 C 60.202 28.911, 60.301 29, 64.164 29 C 66.545 29, 67.872 29.398, 67.500 30 C 67.160 30.550, 65.272 31, 63.305 31 L 59.728 31 60.345 35.500 C 60.714 38.194, 60.568 40, 59.981 40 C 59.441 40, 58.939 42.587, 58.864 45.750 C 58.789 48.913, 58.562 50.375, 58.361 49 C 58.159 47.625, 57.517 43.268, 56.935 39.318 C 56.353 35.368, 55.852 30.193, 55.823 27.818 C 55.762 23.008, 54.977 22.091, 51.489 22.757 C 48.671 23.296, 48.193 26.277, 49.045 38 C 49.364 42.382, 49.187 45.778, 48.620 46.168 C 48.086 46.535, 46.422 45.522, 44.923 43.918 C 43.424 42.313, 41.309 41, 40.224 41 C 35.644 41, 31.713 42.380, 31.250 44.152 C 30.984 45.168, 30.177 46, 29.455 46 C 27.956 46, 26.462 55.403, 27.280 59.686 C 27.562 61.158, 27.328 63.382, 26.760 64.627 C 25.794 66.748, 19.642 70, 16.596 70 C 15.847 70, 14.997 70.902, 14.709 72.004 C 14.358 73.349, 13.657 73.806, 12.580 73.392 C 11.427 72.950, 10.681 73.616, 9.937 75.750 C 9.367 77.386, 7.798 79.227, 6.450 79.841 C 5.103 80.455, 4 81.401, 4 81.943 C 4 83.510, 7.890 85.170, 9.994 84.502 C 11.049 84.167, 13.620 84.232, 15.706 84.647 L 19.500 85.401 14.500 86.507 L 9.500 87.612 9.679 91.806 C 9.864 96.126, 8.601 97.469, 7.529 94.092 C 7.196 93.043, 6.274 91.935, 5.479 91.630 C 3.753 90.968, 4.627 88, 6.548 88 C 7.282 88, 8.177 87.523, 8.537 86.940 C 9.053 86.105, 3.605 86.103, 0.250 86.938 C -0.581 87.144, 0.270 91.464, 1.882 95.225 C 3.719 99.511, 7.514 103, 10.338 103 C 12.318 103, 12.413 111.444, 10.455 113.402 C 9.540 114.318, 9.365 115.108, 9.992 115.495 C 11.430 116.384, 11.241 119.977, 9.750 120.118 C 8.010 120.283, 7.730 120.238, 5.750 119.467 C 4.727 119.069, 4 119.246, 4 119.893 C 4 120.502, 4.900 121, 6 121 C 7.100 121, 8 121.498, 8 122.107 C 8 122.716, 7.325 122.941, 6.500 122.607 C 5.675 122.273, 4.325 121.727, 3.500 121.393 C 2.537 121.003, 2 121.361, 2 122.393 C 2 123.277, 1.550 124, 1 124 C -0.301 124, -0.301 127.696, 1 128.500 C 1.550 128.840, 2 131.095, 2 133.512 C 2 137.079, 3.183 141.696, 4.655 143.869 C 4.792 144.072, 5.585 143.558, 6.417 142.726 C 7.766 141.377, 7.717 141.159, 5.964 140.701 C 3.992 140.185, 3.393 137.502, 4.768 135.342 C 5.698 133.880, 12.141 132.701, 13.578 133.729 C 14.821 134.618, 18 140.807, 18 142.338 C 18 142.905, 18.849 145.198, 19.888 147.434 C 22.213 152.442, 22.951 155.493, 22.127 156.694 C 21.391 157.769, 12 157.158, 12 156.035 C 12 155.615, 13.463 154.623, 15.250 153.830 C 17.038 153.037, 17.920 152.518, 17.212 152.677 C 16.504 152.836, 15.669 152.301, 15.357 151.489 C 15.046 150.676, 14.448 150.223, 14.029 150.482 C 13.610 150.741, 12.462 150.063, 11.479 148.976 C 10.457 147.848, 10.185 147, 10.845 147 C 12.849 147, 12.085 145.547, 9.435 144.317 C 7.382 143.364, 6.783 143.402, 6.358 144.509 C 6.027 145.372, 4.745 145.746, 2.915 145.515 C 0.039 145.151, 0 145.212, 0 150.073 C 0 154.233, 0.293 155, 1.885 155 C 2.922 155, 4.543 156.180, 5.489 157.623 C 6.665 159.418, 6.780 160.026, 5.854 159.549 C 5.109 159.165, 5.210 159.448, 6.077 160.176 C 7.282 161.187, 7.636 163.360, 7.576 169.377 C 7.521 174.918, 7.877 177.399, 8.778 177.745 C 9.535 178.036, 9.809 179.027, 9.447 180.166 C 9.110 181.228, 9.363 182.733, 10.009 183.511 C 10.918 184.606, 10.841 185.613, 9.668 187.963 C 8.835 189.633, 8.513 191, 8.952 191 C 10.226 191, 11.047 196.855, 10.368 201.102 C 10.017 203.294, 9.180 205, 8.456 205 C 7.747 205, 6.938 205.562, 6.659 206.250 C 6.294 207.151, 5.922 207.189, 5.326 206.385 C 4.872 205.771, 3.488 204.954, 2.250 204.567 C 0.389 203.987, 0 204.243, 0 206.049 C 0 207.741, 0.451 208.115, 2 207.710 C 3.100 207.423, 4 207.637, 4 208.187 C 4 208.737, 3.100 209.423, 2 209.710 C 0.110 210.205, 0 211.074, 0 225.554 L -0 240.874 3.500 240.306 C 5.425 239.994, 6.986 240.135, 6.969 240.619 C 6.923 241.896, 2 245.293, 2 244.047 C 2 243.471, 1.550 243, 1 243 C 0.369 243, 0 249.833, 0 261.500 C 0 277.589, 0.203 280, 1.559 280 C 2.416 280, 2.840 280.450, 2.500 281 C 2.151 281.565, 2.973 282, 4.391 282 C 5.771 282, 7.320 281.251, 7.832 280.335 C 8.701 278.783, 9.195 278.784, 15.132 280.359 C 26.277 283.314, 28.947 284.277, 28.408 285.149 C 28.119 285.617, 28.696 286.037, 29.691 286.082 C 33.668 286.263, 37.420 287.184, 40.764 288.801 C 44.671 290.690, 45.364 292.349, 42.429 292.789 C 36.647 293.655, 35.583 294.122, 37.052 295.150 C 38.106 295.887, 37.684 295.996, 35.500 295.551 C 33.554 295.154, 32.976 295.257, 33.857 295.845 C 34.804 296.477, 34.879 296.957, 34.107 297.434 C 30.522 299.650, 35.644 300, 71.622 300 C 106.112 300, 110.110 299.837, 108.980 298.476 C 108.284 297.638, 108.014 296.652, 108.381 296.286 C 108.747 295.920, 109.736 296.606, 110.580 297.810 C 111.867 299.648, 113.074 300, 118.092 300 C 121.911 300, 124.961 299.417, 126.535 298.385 C 128.804 296.898, 129 296.898, 129 298.385 C 129 301.575, 133.393 299.851, 135.370 295.885 C 136.024 294.573, 137.183 293.500, 137.946 293.500 C 138.709 293.500, 139.542 292.875, 139.796 292.111 C 140.077 291.268, 139.815 290.996, 139.130 291.420 C 138.508 291.804, 138 291.703, 138 291.197 C 138 290.690, 136.864 290.400, 135.476 290.552 L 132.952 290.829 135.726 287.594 C 137.801 285.174, 138.702 284.691, 139.300 285.679 C 140.497 287.657, 143 287.270, 143 285.107 C 143 282.650, 145.511 281.706, 147.065 283.578 C 148.276 285.038, 147.432 286.816, 140.577 297.250 L 138.770 300 146.385 300 C 154.259 300, 156.045 298.889, 151.500 296.818 C 148.041 295.242, 148.369 294.341, 152.699 293.529 C 154.733 293.147, 157.308 292.197, 158.421 291.417 C 159.534 290.638, 161.160 290, 162.035 290 C 164.418 290, 172 286.110, 172 284.887 C 172 283.616, 176.051 280.081, 177.562 280.033 C 178.146 280.015, 179.622 278.650, 180.842 277 C 183.852 272.928, 186 273.072, 186 277.345 C 186 279.406, 186.758 281.376, 187.974 282.477 C 189.060 283.460, 190.216 285.104, 190.542 286.132 C 190.896 287.246, 192.067 288, 193.446 288 C 195.131 288, 196.096 288.881, 197.006 291.250 C 200.704 300.880, 199.448 300.004, 209.494 299.968 C 216.773 299.942, 218.198 299.703, 216.925 298.718 C 214.820 297.089, 213 291.587, 213 286.851 L 213 283 207.906 283 C 203.825 283, 202.718 282.639, 202.338 281.183 C 201.982 279.825, 201.143 279.472, 199.010 279.785 C 196.653 280.131, 195.889 279.687, 194.618 277.229 C 192.932 273.968, 193.315 273, 196.292 273 C 197.934 273, 198.153 273.484, 197.650 276 C 196.953 279.483, 197.940 279.829, 200.500 277 C 202.654 274.620, 209.458 274.222, 210.700 276.404 C 211.199 277.281, 213.755 277.963, 217.500 278.220 C 220.800 278.445, 225.654 279.261, 228.287 280.032 C 232.222 281.185, 233.443 281.205, 235.142 280.144 C 236.279 279.433, 236.933 279.299, 236.596 279.845 C 235.942 280.903, 239.277 281.717, 245 281.898 C 249.924 282.053, 258 284.190, 257.391 285.176 C 257.111 285.629, 258.596 285.993, 260.691 285.985 C 263.433 285.974, 264.088 285.709, 263.028 285.038 C 261.777 284.247, 261.828 284.003, 263.366 283.413 C 266.063 282.378, 269.356 282.278, 270.604 283.194 C 271.212 283.639, 273.574 284.076, 275.854 284.165 C 278.134 284.255, 280 284.753, 280 285.272 C 280 285.792, 278.970 285.958, 277.710 285.642 C 275.932 285.196, 275.387 285.506, 275.272 287.034 C 275.191 288.115, 275.546 289, 276.062 289 C 276.578 289, 277 288.550, 277 288 C 277 287.450, 277.788 287.007, 278.750 287.015 C 280.139 287.027, 280.215 287.211, 279.117 287.907 C 278.107 288.546, 278.647 288.990, 281.117 289.551 C 286.163 290.698, 288.998 290.691, 289.015 289.533 C 289.024 288.965, 289.398 289.079, 289.846 289.786 C 290.295 290.493, 291.976 291.299, 293.581 291.578 C 295.186 291.857, 297 292.741, 297.610 293.543 C 299.297 295.756, 299.658 295.352, 299.826 291.064 C 299.949 287.935, 299.573 286.999, 297.990 286.497 C 296.896 286.149, 295.147 286.136, 294.105 286.467 C 293.018 286.812, 291.557 286.414, 290.677 285.534 C 288.823 283.680, 286.329 283.537, 285.729 285.250 C 285.402 286.185, 284.815 286.092, 283.396 284.881 C 282.353 283.991, 279.600 283.023, 277.277 282.730 C 274.955 282.437, 272.276 281.419, 271.324 280.467 C 269.683 278.826, 269.695 278.765, 271.547 279.292 C 272.621 279.598, 276.768 280.406, 280.762 281.087 C 288.945 282.482, 291.344 281.814, 296.194 276.790 C 299.097 273.782, 300.524 273.193, 299.700 275.341 C 299.417 276.078, 299.587 277.316, 300.077 278.091 C 300.615 278.940, 300.899 271.950, 300.793 260.500 C 300.659 245.967, 300.486 243.684, 300.059 250.790 C 299.518 259.780, 299.443 260.015, 297.750 258.029 C 296.067 256.055, 295.360 250.973, 296.597 249.736 C 296.925 249.408, 297.282 245.295, 297.390 240.597 C 297.607 231.153, 297.341 230.746, 291.558 231.684 C 289.238 232.061, 288 231.868, 288 231.131 C 288 230.509, 288.719 230, 289.599 230 C 290.478 230, 292.640 229.316, 294.403 228.479 C 297.324 227.093, 297.595 226.576, 297.462 222.640 C 297.382 220.264, 296.916 217.686, 296.427 216.911 C 294.950 214.570, 295.102 210.129, 296.670 209.800 C 297.890 209.544, 297.878 209.207, 296.582 207.500 C 295.081 205.523, 295.063 205.526, 295.032 207.750 C 294.987 210.950, 292.746 210.533, 290.616 206.928 L 288.802 203.856 292.081 200.928 C 294.382 198.873, 294.870 198, 293.715 198 C 292.244 198, 290 195.246, 290 193.441 C 290 192.103, 296.300 194.029, 297.561 195.752 C 298.262 196.712, 299.105 197.229, 299.433 196.901 C 300.081 196.253, 300.434 111.212, 300.074 42.750 C 299.883 6.530, 299.631 0, 298.424 0 C 297.641 0, 297 0.372, 297 0.827 C 297 1.282, 295.763 1.485, 294.250 1.280 C 291.403 0.892, 290.028 1.831, 281.250 10.152 C 278.913 12.367, 277 14.746, 277 15.438 C 277 16.130, 275.087 17.501, 272.750 18.484 C 263.511 22.370, 262.413 22.803, 260 23.511 C 258.625 23.915, 256.864 24.752, 256.087 25.372 C 254.952 26.279, 255.326 26.598, 257.991 27 C 261.282 27.496, 261.311 27.548, 261.729 33.741 L 262.150 39.982 257.780 39.383 C 254.047 38.872, 252.963 39.160, 250.350 41.359 L 247.291 43.933 246.636 34.217 C 245.143 12.057, 244.835 10, 243.017 10 C 240.452 10, 237.710 13.512, 238.451 15.847 C 238.899 17.258, 238.562 17.973, 237.292 18.303 C 235.754 18.702, 235.737 18.784, 237.171 18.884 C 239.049 19.014, 239.285 19.908, 241.482 35.193 C 242.328 41.075, 243.262 46.518, 243.558 47.290 C 243.988 48.411, 242.096 48.824, 234.129 49.346 C 223.570 50.038, 220.564 49.579, 221.399 47.403 C 221.681 46.667, 221.475 45.794, 220.940 45.463 C 220.405 45.132, 220.232 44.434, 220.555 43.911 C 221.808 41.884, 218.814 36.048, 215.456 33.973 C 211.436 31.488, 206.976 31.654, 202.287 34.463 C 199.045 36.405, 198.854 36.872, 197.345 46.500 L 196.562 51.500 196.031 45.500 C 195.739 42.200, 195.888 39.217, 196.363 38.871 C 196.838 38.525, 196.717 38.072, 196.095 37.865 C 195.473 37.658, 194.684 35.128, 194.342 32.244 C 193.816 27.799, 193.971 27, 195.361 27 C 197.150 27, 197.572 28.529, 196.044 29.473 C 194.932 30.160, 195.788 33, 197.107 33 C 197.598 33, 198 32.100, 198 31 C 198 29.792, 198.693 28.969, 199.750 28.921 C 201.040 28.863, 201.128 28.695, 200.087 28.283 C 199.309 27.976, 197.351 26.549, 195.736 25.112 L 192.798 22.500 195.649 21.868 C 197.217 21.521, 201.061 21.183, 204.191 21.118 C 207.321 21.053, 210.160 20.550, 210.500 20 C 211.125 18.989, 205.197 18.744, 186.256 18.995 L 177.013 19.117 177.222 16.593 C 177.395 14.499, 177.819 14.167, 179.715 14.643 C 181.066 14.982, 182 14.764, 182 14.108 C 182 13.499, 180.369 13, 178.375 13 C 174.891 13, 174.773 13.115, 175.342 15.961 C 175.668 17.590, 175.499 19.191, 174.967 19.520 C 174.435 19.849, 174 19.228, 174 18.141 C 174 14.394, 172.917 12.983, 170.505 13.588 C 169.247 13.904, 167.918 13.676, 167.550 13.081 C 167.092 12.340, 169.494 11.995, 175.191 11.985 C 179.761 11.976, 184.160 11.552, 184.966 11.042 C 185.910 10.445, 186.926 10.523, 187.813 11.260 C 188.876 12.142, 189.397 12.043, 190.075 10.830 C 190.663 9.781, 192.479 9.224, 195.516 9.163 C 198.024 9.113, 200.508 8.804, 201.038 8.477 C 201.977 7.896, 202.401 9.236, 202.075 11.750 C 201.985 12.438, 202.957 13, 204.234 13 C 205.511 13, 207.326 13.900, 208.268 15 C 209.210 16.100, 210.622 17, 211.407 17 C 212.191 17, 212.987 17.461, 213.175 18.024 C 213.362 18.587, 215.312 19.266, 217.508 19.533 C 221.160 19.977, 221.025 19.663, 217 18.354 C 215.739 17.943, 215.779 17.709, 217.250 16.883 C 219.786 15.460, 219.396 13.138, 216.500 12.411 C 215.125 12.066, 214 11.157, 214 10.392 C 214 9.102, 214.642 8.879, 219.160 8.602 C 220.072 8.546, 221.154 8.168, 221.563 7.763 C 221.973 7.358, 224.541 7.298, 227.272 7.631 C 230.002 7.963, 232.521 7.817, 232.868 7.306 C 233.216 6.795, 235.075 5.940, 237 5.405 C 239.471 4.719, 240.594 3.782, 240.820 2.217 C 241.079 0.420, 240.652 -0, 238.570 -0 C 237.141 -0, 236 0.572, 236 1.287 C 236 3.072, 232.391 3.176, 230.944 1.433 C 230.058 0.365, 227.223 -0, 219.810 -0 C 210.320 -0, 209.894 0.092, 210.500 2 C 210.849 3.100, 210.707 4, 210.184 4 C 209.661 4, 209.001 3.111, 208.716 2.024 C 208.208 0.077, 207.063 0.047, 134.100 0.046 L 60 0.044 60 7.963 M 266 4.402 C 266 8.274, 265.609 9.054, 262.750 10.885 C 260.596 12.264, 260.077 12.972, 261.211 12.983 C 264.307 13.014, 267 8.979, 267 4.311 C 267 1.940, 266.775 0, 266.500 0 C 266.225 0, 266 1.981, 266 4.402 M 174.607 3.582 C 173.763 5.782, 173.848 9, 174.750 8.998 C 175.162 8.997, 175.612 7.422, 175.749 5.498 C 176.017 1.749, 175.587 1.028, 174.607 3.582 M 30.942 4.948 C 24.398 6.934, 23.777 7.743, 24.540 13.290 C 25.611 21.075, 26.618 22.170, 32 21.399 C 34.475 21.044, 37.962 20.157, 39.750 19.428 C 42.737 18.209, 43 17.739, 43 13.616 C 43 11.149, 42.561 7.976, 42.025 6.565 C 41.206 4.411, 40.445 4.014, 37.275 4.086 C 35.199 4.133, 32.349 4.521, 30.942 4.948 M 288 6 C 288 6.550, 288.423 7, 288.941 7 C 289.459 7, 290.160 6.550, 290.500 6 C 290.840 5.450, 290.416 5, 289.559 5 C 288.702 5, 288 5.450, 288 6 M 206 10 C 206 10.550, 206.477 11, 207.059 11 C 207.641 11, 207.840 10.550, 207.500 10 C 207.160 9.450, 206.684 9, 206.441 9 C 206.198 9, 206 9.450, 206 10 M 131.500 13 C 130.400 13.473, 127.813 13.891, 125.750 13.930 C 121.058 14.018, 120.272 17, 124.941 17 C 126.559 17, 128.161 17.451, 128.502 18.003 C 128.894 18.638, 129.757 18.665, 130.854 18.078 C 131.808 17.568, 137.809 17.004, 144.190 16.825 C 150.571 16.646, 155.324 16.208, 154.751 15.851 C 154.163 15.485, 154.534 15.016, 155.605 14.774 C 156.647 14.538, 153.532 14.261, 148.683 14.159 C 143.521 14.050, 140.101 14.354, 140.434 14.893 C 140.747 15.399, 139.880 15.293, 138.509 14.656 C 137.138 14.020, 136.012 13.162, 136.008 12.750 C 135.998 11.792, 134.060 11.900, 131.500 13 M 184.500 14 C 184.840 14.550, 185.793 15, 186.618 15 C 187.443 15, 187.840 14.550, 187.500 14 C 187.160 13.450, 186.207 13, 185.382 13 C 184.557 13, 184.160 13.450, 184.500 14 M 257.500 13.765 C 256.950 14.169, 255.875 15.296, 255.112 16.269 C 253.847 17.880, 253.929 17.962, 256.029 17.185 C 257.297 16.716, 258.444 15.583, 258.578 14.666 C 258.856 12.772, 258.854 12.770, 257.500 13.765 M 109.793 15.121 C 109.587 15.738, 107.322 16.301, 104.759 16.371 C 102.197 16.442, 99.537 17.063, 98.850 17.750 C 97.266 19.334, 99.846 19.314, 109.085 17.671 C 113.544 16.878, 115.536 16.096, 115.252 15.250 C 114.732 13.697, 110.303 13.592, 109.793 15.121 M 280 15 C 280 15.550, 280.477 16, 281.059 16 C 281.641 16, 281.840 15.550, 281.500 15 C 281.160 14.450, 280.684 14, 280.441 14 C 280.198 14, 280 14.450, 280 15 M 180.500 16 C 178.850 16.420, 177.725 16.851, 178 16.958 C 180.165 17.802, 182.094 17.591, 183.079 16.405 C 183.720 15.632, 184.077 15.053, 183.872 15.118 C 183.668 15.183, 182.150 15.580, 180.500 16 M 125.079 19.583 C 125.127 20.748, 125.364 20.985, 125.683 20.188 C 125.972 19.466, 125.936 18.603, 125.604 18.271 C 125.272 17.939, 125.036 18.529, 125.079 19.583 M 158.500 19 C 158.840 19.550, 159.793 20, 160.618 20 C 161.443 20, 161.840 19.550, 161.500 19 C 161.160 18.450, 160.207 18, 159.382 18 C 158.557 18, 158.160 18.450, 158.500 19 M 230.250 18.689 C 231.213 18.941, 232.787 18.941, 233.750 18.689 C 234.713 18.438, 233.925 18.232, 232 18.232 C 230.075 18.232, 229.287 18.438, 230.250 18.689 M 138.762 19.707 C 140.006 19.946, 141.806 19.937, 142.762 19.687 C 143.718 19.437, 142.700 19.241, 140.500 19.252 C 138.300 19.263, 137.518 19.468, 138.762 19.707 M 158 23 C 151.687 23.636, 151.781 23.660, 161.250 23.827 C 167.198 23.933, 171 23.610, 171 23 C 171 21.941, 168.511 21.941, 158 23 M 172 23.018 C 172 24.113, 179.316 26.904, 180.421 26.231 C 180.928 25.923, 180.365 25.309, 179.171 24.868 C 177.977 24.426, 177 23.656, 177 23.157 C 177 22.658, 175.875 22.250, 174.500 22.250 C 173.125 22.250, 172 22.596, 172 23.018 M 183.500 24 C 183.840 24.550, 183.641 25, 183.059 25 C 180.766 25, 182.177 26.639, 185.250 27.543 C 187.657 28.252, 188.572 29.148, 188.779 31 C 189.054 33.461, 189.033 33.469, 187.395 31.500 C 185.923 29.731, 185.804 29.712, 186.365 31.332 C 186.714 32.339, 187 33.603, 187 34.141 C 187 34.678, 187.412 34.864, 187.915 34.553 C 188.418 34.242, 189.057 34.553, 189.336 35.244 C 190.063 37.048, 190.112 30.812, 189.399 27.245 C 188.912 24.811, 188.390 24.329, 186.649 24.707 C 184.905 25.086, 184.782 24.972, 186 24.102 C 187.241 23.216, 187.101 23.028, 185.191 23.015 C 183.903 23.007, 183.155 23.442, 183.500 24 M 33 24.883 C 33 25.369, 34.229 26.002, 35.731 26.289 C 38.285 26.777, 38.338 26.720, 36.540 25.405 C 34.342 23.799, 33 23.601, 33 24.883 M 192 25 C 192 25.550, 192.450 26, 193 26 C 193.550 26, 194 25.550, 194 25 C 194 24.450, 193.550 24, 193 24 C 192.450 24, 192 24.450, 192 25 M 272 25.559 C 272 26.416, 272.450 26.840, 273 26.500 C 273.550 26.160, 274 25.459, 274 24.941 C 274 24.423, 273.550 24, 273 24 C 272.450 24, 272 24.702, 272 25.559 M 43 29 C 43.825 29.533, 45.175 29.945, 46 29.914 C 46.989 29.878, 46.819 29.567, 45.500 29 C 42.751 27.819, 41.172 27.819, 43 29 M 174 29.500 C 174 30.333, 174.889 31, 176 31 C 177.111 31, 178 30.333, 178 29.500 C 178 28.667, 177.111 28, 176 28 C 174.889 28, 174 28.667, 174 29.500 M 183.500 30 C 183.840 30.550, 184.316 31, 184.559 31 C 184.802 31, 185 30.550, 185 30 C 185 29.450, 184.523 29, 183.941 29 C 183.359 29, 183.160 29.450, 183.500 30 M 265 35.031 C 265 38.781, 265.368 40, 266.500 40 C 267.606 40, 268 38.845, 268 35.607 C 268 32.625, 267.518 31.029, 266.500 30.638 C 265.291 30.174, 265 31.026, 265 35.031 M 196.543 34.931 C 196.226 35.443, 196.425 36.144, 196.984 36.490 C 197.543 36.835, 198 36.416, 198 35.559 C 198 33.802, 197.400 33.544, 196.543 34.931 M 189.070 39.250 C 189.032 40.763, 188.660 42, 188.245 42 C 187.829 42, 187.021 43.498, 186.448 45.328 C 185.665 47.827, 185.718 48.948, 186.661 49.828 C 188.482 51.529, 188.779 51.294, 188.257 48.563 C 188.001 47.222, 188.436 44.832, 189.225 43.251 C 190.079 41.539, 190.352 39.594, 189.900 38.439 C 189.261 36.807, 189.129 36.936, 189.070 39.250 M 185.079 42.583 C 185.127 43.748, 185.364 43.985, 185.683 43.188 C 185.972 42.466, 185.936 41.603, 185.604 41.271 C 185.272 40.939, 185.036 41.529, 185.079 42.583 M 193 44.500 C 193 45.325, 193.177 46, 193.393 46 C 193.609 46, 194.045 45.325, 194.362 44.500 C 194.678 43.675, 194.501 43, 193.969 43 C 193.436 43, 193 43.675, 193 44.500 M 178 47.068 C 178 48.009, 182.795 49.539, 183.508 48.825 C 183.737 48.597, 182.591 47.907, 180.962 47.292 C 179.333 46.677, 178 46.576, 178 47.068 M 213.336 47.567 C 213.005 48.429, 213.247 49.647, 213.874 50.274 C 215.282 51.682, 218.616 48.806, 217.559 47.096 C 216.561 45.481, 214.028 45.764, 213.336 47.567 M 274 53.500 C 274 54.986, 274.573 56, 275.412 56 C 276.217 56, 276.679 55.248, 276.488 54.250 C 276.304 53.288, 276.119 52.163, 276.077 51.750 C 275.872 49.745, 274 51.323, 274 53.500 M 260 53.333 C 260 55.291, 260.873 55.846, 263.058 55.275 C 265.903 54.530, 265.472 52, 262.500 52 C 261.083 52, 260 52.578, 260 53.333 M 43 56.500 C 43 57.325, 42.550 58, 42 58 C 41.450 58, 41 58.450, 41 59 C 41 60.537, 45.601 60.185, 46.964 58.544 C 47.628 57.743, 47.882 56.618, 47.527 56.044 C 46.540 54.446, 43 54.803, 43 56.500 M 111.612 61.876 C 110.057 63.595, 110.051 63.805, 111.539 64.376 C 114.683 65.583, 116 65.029, 116 62.500 C 116 59.523, 113.999 59.239, 111.612 61.876 M 232.346 65.134 C 233.670 65.903, 234.505 65.895, 235.296 65.104 C 236.101 64.299, 235.601 64.008, 233.450 64.030 C 230.864 64.057, 230.728 64.193, 232.346 65.134 M 168 65.346 C 168 67.308, 171.536 72, 173.014 72 C 175.351 72, 176.673 70.034, 175.021 69.013 C 174.143 68.470, 174.106 68.053, 174.893 67.566 C 177.173 66.157, 175.869 65, 172 65 C 169.800 65, 168 65.156, 168 65.346 M 236.428 66.327 C 236.113 67.148, 234.763 68.094, 233.428 68.429 C 231.222 68.982, 229.950 70.955, 231.750 71.032 C 232.162 71.049, 233.328 71.691, 234.341 72.458 C 235.780 73.549, 235.950 74.251, 235.121 75.677 C 234.538 76.679, 234.047 76.938, 234.030 76.250 C 233.986 74.419, 231.320 74.724, 230.583 76.645 C 230.226 77.575, 230.722 79.196, 231.726 80.377 C 233.375 82.318, 233.377 82.370, 231.750 81.110 C 230.544 80.177, 230 80.114, 230 80.909 C 230 82.654, 232.594 83.288, 234.832 82.090 C 236.158 81.380, 236.646 80.361, 236.296 79.025 C 235.939 77.658, 236.363 76.833, 237.637 76.421 C 238.661 76.090, 240.468 75.357, 241.650 74.794 L 243.800 73.769 241.650 69.707 C 239.304 65.275, 237.324 63.993, 236.428 66.327 M 133.198 70.904 C 133.486 73.378, 133.752 73.487, 138.876 73.231 C 145.328 72.909, 145.966 72.587, 145.289 69.999 C 144.615 67.418, 142.385 67.419, 141.710 70 C 141.041 72.560, 139 72.610, 139 70.067 C 139 68.559, 138.328 68.153, 135.948 68.221 C 133.270 68.297, 132.934 68.625, 133.198 70.904 M 235.118 69.927 C 234.179 70.507, 234.396 70.870, 235.915 71.268 C 237.062 71.567, 238 71.431, 238 70.965 C 238 69.603, 236.510 69.067, 235.118 69.927 M 91.991 72.489 C 93.240 73.994, 95 73.673, 95 71.941 C 95 71.423, 94.045 71, 92.878 71 C 91.111 71, 90.962 71.250, 91.991 72.489 M 287.340 72.250 C 286.912 72.938, 286.685 74.454, 286.835 75.619 C 287.024 77.079, 286.438 77.914, 284.954 78.302 C 283.769 78.612, 283.085 79.329, 283.436 79.896 C 283.786 80.463, 283.217 81.783, 282.170 82.830 C 281.123 83.877, 279.954 86.818, 279.572 89.366 C 278.995 93.219, 279.144 94, 280.460 94 C 281.331 94, 282.531 92.930, 283.127 91.621 C 283.877 89.975, 284.796 89.395, 286.111 89.739 C 287.156 90.012, 288.683 89.678, 289.505 88.996 C 290.720 87.988, 291 88.039, 291 89.271 C 291 90.104, 290.250 91.074, 289.333 91.426 C 288.169 91.872, 287.983 92.383, 288.715 93.115 C 289.447 93.847, 290.737 93.212, 292.985 91.014 C 295.912 88.153, 296.149 87.478, 295.571 83.627 C 295.222 81.297, 294.060 78.639, 292.989 77.722 C 291.880 76.773, 291.296 75.392, 291.632 74.516 C 292.075 73.362, 291.777 73.148, 290.438 73.662 C 289.053 74.193, 288.797 73.972, 289.295 72.674 C 290.039 70.734, 288.493 70.398, 287.340 72.250 M 122.484 75.293 C 121.695 77.229, 122.311 78.424, 123.803 77.854 C 124.314 77.659, 124.390 76.600, 123.973 75.500 C 123.266 73.635, 123.165 73.621, 122.484 75.293 M 60 78 C 60 78.550, 59.298 79, 58.441 79 C 57.573 79, 57.180 79.482, 57.554 80.087 C 58.038 80.870, 58.530 80.870, 59.313 80.087 C 60.968 78.432, 62 78.782, 62 81 C 62 82.100, 62.395 83, 62.878 83 C 64.435 83, 66.241 80.070, 65.643 78.513 C 65.005 76.850, 60 76.395, 60 78 M 90.250 82.707 C 88.259 86.994, 88.636 88.767, 91 86.230 C 92.937 84.151, 93.773 79.992, 92.250 80.008 C 91.838 80.012, 90.938 81.227, 90.250 82.707 M 128.596 83.737 C 128.191 84.143, 127.103 84.480, 126.179 84.487 C 123.905 84.505, 123.247 89.816, 125.433 90.506 C 129.734 91.862, 130.438 92.256, 129.318 92.677 C 128.668 92.922, 126.751 92.405, 125.059 91.530 C 122.800 90.362, 121.474 90.211, 120.073 90.961 C 117.842 92.155, 112.465 91.357, 109.250 89.355 C 107.080 88.004, 107 88.077, 107 91.418 C 107 95.360, 108.424 96.852, 109.815 94.367 C 110.669 92.839, 110.957 92.882, 113.065 94.846 L 115.377 97 113.189 97 C 111.910 97, 111 97.624, 111 98.500 C 111 99.325, 110.550 100, 110 100 C 109.450 100, 109 99.325, 109 98.500 C 109 97.675, 108.550 97, 108 97 C 106.615 97, 106.750 98.055, 108.373 99.921 C 109.129 100.790, 110.045 103.300, 110.410 105.500 C 110.915 108.544, 110.810 109.141, 109.969 108 C 109.129 106.861, 108.959 107.877, 109.262 112.228 C 109.584 116.857, 110.173 118.431, 112.330 120.430 C 113.799 121.791, 115 123.376, 115 123.952 C 115 124.529, 115.900 125, 117 125 C 119.621 125, 119.543 123.494, 116.824 121.590 C 114.937 120.268, 114.802 119.730, 115.803 117.533 C 116.940 115.037, 119 114.050, 119 116 C 119 116.550, 118.550 117, 118 117 C 117.450 117, 117 117.498, 117 118.107 C 117 118.716, 117.675 118.955, 118.500 118.638 C 119.436 118.279, 120 118.646, 120 119.615 C 120 120.468, 120.563 120.975, 121.250 120.740 C 122.129 120.441, 122.507 117.521, 122.523 110.907 C 122.545 102.008, 123.297 98, 124.943 98 C 125.344 98, 125.647 99.688, 125.617 101.750 C 125.431 114.159, 126.034 120, 127.500 120 C 128.325 120, 129.037 120.787, 129.081 121.750 C 129.135 122.901, 129.601 122.507, 130.442 120.602 C 131.152 118.993, 131.509 115.822, 131.244 113.471 C 130.620 107.934, 132.555 102, 134.984 102 C 136.284 102, 136.670 102.546, 136.319 103.887 C 136.048 104.925, 136.295 106.064, 136.869 106.419 C 137.443 106.774, 137.673 107.689, 137.379 108.454 C 136.653 110.347, 138.732 114, 140.535 114 C 141.422 114, 142 114.964, 142 116.441 C 142 119.336, 143.871 120.827, 145.069 118.888 C 145.585 118.053, 145.347 116.652, 144.458 115.295 C 143.656 114.071, 143 111.225, 143 108.969 C 143 106.714, 142.471 103.886, 141.825 102.684 C 141.179 101.483, 140.299 98.925, 139.870 97 C 139.441 95.075, 138.776 92.150, 138.394 90.500 C 137.213 85.412, 131.124 81.209, 128.596 83.737 M 36.500 85 C 36.840 85.550, 37.316 86, 37.559 86 C 37.802 86, 38 85.550, 38 85 C 38 84.450, 37.523 84, 36.941 84 C 36.359 84, 36.160 84.450, 36.500 85 M 63 87.383 C 63 90.031, 62.520 90.892, 60.794 91.344 C 58.098 92.049, 57.020 91.224, 59.021 89.987 C 61.088 88.710, 59.182 87.066, 54.810 86.357 C 51.512 85.821, 51.254 85.978, 50.675 88.873 C 50.229 91.107, 49.636 91.797, 48.529 91.373 C 46.888 90.743, 46.628 92.009, 47.630 95.750 C 48.495 98.975, 50.997 98.605, 51.014 95.250 C 51.034 91.069, 52.124 87.872, 53.377 88.318 C 53.995 88.538, 54.395 90.062, 54.267 91.706 C 54.085 94.039, 54.578 94.942, 56.517 95.826 C 57.883 96.448, 59 96.545, 59 96.041 C 59 95.538, 60.518 95.372, 62.373 95.673 C 64.348 95.994, 66.030 95.760, 66.432 95.110 C 67.390 93.560, 69 93.723, 69 95.371 C 69 96.252, 67.300 96.968, 64.250 97.374 C 59.508 98.004, 59.499 98.013, 59.215 102.155 C 58.973 105.667, 59.150 106.120, 60.367 105.110 C 61.489 104.179, 61.919 104.200, 62.324 105.208 C 62.609 105.919, 62.878 105.525, 62.921 104.333 C 62.964 103.142, 62.438 101.957, 61.750 101.700 C 60.911 101.386, 61.089 100.990, 62.293 100.493 C 64.735 99.485, 65.315 100.307, 66.036 105.792 C 66.645 110.436, 67.248 110.168, 68.443 104.720 C 68.895 102.661, 69.809 101.788, 71.965 101.357 C 74.497 100.851, 74.727 100.535, 73.729 98.938 C 72.880 97.579, 72.247 97.380, 71.291 98.173 C 70.312 98.986, 70 98.780, 70 97.322 C 70 96.265, 70.515 94.885, 71.144 94.256 C 72.706 92.694, 70.444 87.276, 67.892 86.466 C 66.852 86.136, 66 85.446, 66 84.933 C 66 84.420, 65.325 84, 64.500 84 C 63.462 84, 63 85.043, 63 87.383 M 61.079 86.583 C 61.127 87.748, 61.364 87.985, 61.683 87.188 C 61.972 86.466, 61.936 85.603, 61.604 85.271 C 61.272 84.939, 61.036 85.529, 61.079 86.583 M 48.500 87 C 48.840 87.550, 49.316 88, 49.559 88 C 49.802 88, 50 87.550, 50 87 C 50 86.450, 49.523 86, 48.941 86 C 48.359 86, 48.160 86.450, 48.500 87 M 0.195 89.500 C 0.215 91.150, 0.439 91.704, 0.693 90.731 C 0.947 89.758, 0.930 88.408, 0.656 87.731 C 0.382 87.054, 0.175 87.850, 0.195 89.500 M 134 89 C 134 89.550, 134.477 90, 135.059 90 C 135.641 90, 135.840 89.550, 135.500 89 C 135.160 88.450, 134.684 88, 134.441 88 C 134.198 88, 134 88.450, 134 89 M 189 90.559 C 189 91.416, 189.450 91.840, 190 91.500 C 190.550 91.160, 191 90.459, 191 89.941 C 191 89.423, 190.550 89, 190 89 C 189.450 89, 189 89.702, 189 90.559 M 38.494 94.033 C 37.837 97.925, 39.715 103, 41.812 103 C 42.234 103, 42.561 104.187, 42.539 105.637 C 42.510 107.573, 43.067 108.365, 44.634 108.613 C 46.654 108.934, 46.745 108.625, 46.345 102.819 C 46.113 99.445, 45.510 95.969, 45.005 95.093 C 44.394 94.034, 44.287 94.840, 44.685 97.500 C 45.014 99.700, 44.911 101.154, 44.456 100.731 C 43.074 99.447, 41.119 92.853, 41.684 91.381 C 41.991 90.580, 41.576 90, 40.695 90 C 39.700 90, 38.941 91.391, 38.494 94.033 M 59.500 93 C 59.160 93.550, 59.332 94, 59.882 94 C 60.432 94, 61.160 93.550, 61.500 93 C 61.840 92.450, 61.668 92, 61.118 92 C 60.568 92, 59.840 92.450, 59.500 93 M 120 93.481 C 120 95.196, 123.739 96.367, 127.148 95.719 C 129.268 95.316, 129.226 95.259, 126.719 95.136 C 125.189 95.061, 123.678 94.325, 123.362 93.500 C 122.618 91.562, 120 91.547, 120 93.481 M 284.114 95.929 C 283.255 96.461, 283.152 96.976, 283.824 97.391 C 284.395 97.744, 285.163 97.545, 285.531 96.950 C 286.449 95.464, 285.719 94.938, 284.114 95.929 M 119.192 97.075 C 119.389 97.666, 119.977 98.150, 120.500 98.150 C 121.023 98.150, 121.611 97.666, 121.808 97.075 C 122.005 96.484, 121.417 96, 120.500 96 C 119.583 96, 118.995 96.484, 119.192 97.075 M 290 96.892 C 290 97.566, 289.550 97.840, 289 97.500 C 288.450 97.160, 288 97.359, 288 97.941 C 288 98.523, 288.506 99, 289.125 99 C 289.859 99, 290.026 100.120, 289.606 102.219 C 289.114 104.680, 289.238 105.162, 290.135 104.265 C 291.311 103.089, 291.621 97.287, 290.564 96.231 C 290.254 95.920, 290 96.218, 290 96.892 M 55.607 98.582 C 55.273 99.452, 55.014 101.589, 55.030 103.332 C 55.066 107.085, 56.380 105.330, 57.337 100.250 C 57.963 96.932, 56.705 95.720, 55.607 98.582 M 49.461 105.126 C 49.856 111.983, 49.859 112, 50.750 112.001 C 51.743 112.001, 51.052 101.749, 49.984 100.626 C 49.526 100.145, 49.291 102.170, 49.461 105.126 M 85.232 103 C 85.232 104.925, 85.438 105.713, 85.689 104.750 C 85.941 103.787, 85.941 102.213, 85.689 101.250 C 85.438 100.287, 85.232 101.075, 85.232 103 M 102.158 104 C 102.158 105.375, 102.385 105.938, 102.662 105.250 C 102.940 104.563, 102.940 103.438, 102.662 102.750 C 102.385 102.063, 102.158 102.625, 102.158 104 M 5.032 104.281 C 5.066 105.577, 7.380 109, 8.222 109 C 8.497 109, 8.513 107.905, 8.258 106.567 C 7.781 104.074, 4.974 102.085, 5.032 104.281 M 105 105.417 C 105 106.196, 104.469 107.010, 103.820 107.227 C 102.437 107.688, 103.445 111, 104.969 111 C 105.536 111, 106 109.425, 106 107.500 C 106 105.575, 105.775 104, 105.500 104 C 105.225 104, 105 104.638, 105 105.417 M 1.079 107.583 C 1.127 108.748, 1.364 108.985, 1.683 108.188 C 1.972 107.466, 1.936 106.603, 1.604 106.271 C 1.272 105.939, 1.036 106.529, 1.079 107.583 M 61.071 109.415 C 60.325 110.313, 60.012 111.345, 60.374 111.707 C 61.308 112.641, 63.306 110.417, 62.826 108.978 C 62.550 108.150, 62.008 108.285, 61.071 109.415 M 263 109.031 C 263 109.564, 263.675 110, 264.500 110 C 265.325 110, 266 109.823, 266 109.607 C 266 109.391, 265.325 108.955, 264.500 108.638 C 263.675 108.322, 263 108.499, 263 109.031 M 1 112.906 C 1 114.543, 1.516 116.201, 2.146 116.590 C 2.947 117.085, 3.099 116.532, 2.653 114.752 C 2.065 112.411, 2.266 112.218, 5.150 112.353 C 7.174 112.448, 8.440 111.968, 8.720 111 C 9.104 109.667, 9.033 109.667, 8.076 111 C 7.120 112.333, 6.891 112.333, 6.015 111 C 5.321 109.943, 5.026 109.879, 5.015 110.785 C 5.004 111.760, 4.517 111.812, 3 111 C 1.208 110.041, 1 110.240, 1 112.906 M 82.844 110.540 C 82.550 111.068, 82.588 113.975, 82.928 117 C 83.535 122.416, 83.555 122.444, 84.201 118.805 C 84.864 115.070, 83.829 108.768, 82.844 110.540 M 269.728 112.066 C 270.080 113.414, 270.608 113.792, 271.247 113.153 C 272.282 112.118, 271.468 110, 270.035 110 C 269.569 110, 269.430 110.930, 269.728 112.066 M 44.583 111.866 C 44.152 112.563, 44.070 113.403, 44.400 113.733 C 45.295 114.628, 46.271 113.312, 45.787 111.862 C 45.449 110.846, 45.213 110.846, 44.583 111.866 M 135.543 112.931 C 135.226 113.443, 135.425 114.144, 135.984 114.490 C 136.543 114.835, 137 114.416, 137 113.559 C 137 111.802, 136.400 111.544, 135.543 112.931 M 51.510 114.016 C 51.856 114.575, 52.557 114.774, 53.069 114.457 C 54.456 113.600, 54.198 113, 52.441 113 C 51.584 113, 51.165 113.457, 51.510 114.016 M 32.032 117.250 C 32.069 119.897, 34.193 123, 35.967 123 C 36.665 123, 36.960 122.339, 36.638 121.500 C 36.322 120.675, 36.499 120, 37.031 120 C 38.458 120, 38.209 118.066, 36.571 116.429 C 34.376 114.233, 31.995 114.663, 32.032 117.250 M 52 117 C 51.411 118.100, 50.131 119, 49.156 119 C 45.672 119, 43.901 121.256, 44.609 124.793 C 45.252 128.009, 47.622 128.805, 47.374 125.721 C 47.296 124.751, 47.792 124.367, 48.682 124.708 C 49.470 125.011, 49.869 125.898, 49.569 126.681 C 49.266 127.469, 49.464 127.831, 50.011 127.493 C 50.583 127.140, 51.027 128.278, 51.063 130.191 C 51.125 133.390, 51.160 133.417, 52.115 131.024 C 52.922 129.002, 53.274 128.819, 54.036 130.024 C 54.740 131.137, 54.990 130.762, 55.055 128.500 C 55.129 125.915, 55.259 125.777, 56 127.500 C 56.473 128.600, 56.898 129.050, 56.945 128.500 C 56.992 127.950, 57.428 128.128, 57.914 128.896 C 59.132 130.818, 62.142 129.535, 61.337 127.437 C 60.984 126.516, 61.320 125.411, 62.104 124.914 C 63.102 124.283, 63.143 124.026, 62.250 124.015 C 61.563 124.007, 61 123.100, 61 122 C 61 120.687, 61.667 120, 62.941 120 C 65.297 120, 66.215 118.725, 65.396 116.590 C 64.935 115.387, 63.360 115, 58.928 115 C 54.094 115, 52.883 115.349, 52 117 M 137 117 C 137 117.550, 137.675 118, 138.500 118 C 139.325 118, 140 117.550, 140 117 C 140 116.450, 139.325 116, 138.500 116 C 137.675 116, 137 116.450, 137 117 M 44 118.059 C 44 118.641, 44.450 118.840, 45 118.500 C 45.550 118.160, 46 117.684, 46 117.441 C 46 117.198, 45.550 117, 45 117 C 44.450 117, 44 117.477, 44 118.059 M 65.667 119.667 C 64.641 120.693, 64.877 124.806, 66.002 125.501 C 67.151 126.212, 69.303 121.299, 68.448 119.916 C 67.781 118.837, 66.602 118.732, 65.667 119.667 M 288.450 121.157 C 287.280 122.493, 286.558 124.467, 286.769 125.750 C 287.220 128.490, 289 128.756, 289 126.083 C 289 125.029, 289.494 124.002, 290.098 123.801 C 290.702 123.599, 291.039 122.395, 290.848 121.124 L 290.500 118.814 288.450 121.157 M 18.010 120.892 C 16.178 121.402, 15.873 121.804, 16.856 122.411 C 17.683 122.922, 18.808 122.620, 19.810 121.618 C 20.700 120.728, 21.220 120.045, 20.964 120.100 C 20.709 120.155, 19.380 120.511, 18.010 120.892 M 94.154 122.250 C 94.287 122.938, 94.054 126.763, 93.637 130.750 C 93.100 135.889, 92.476 138, 91.496 138 C 89.609 138, 87.140 134.263, 86.392 130.273 C 86.051 128.461, 85.374 126.731, 84.887 126.430 C 83.157 125.361, 84.121 130.559, 86.383 134.500 C 88.443 138.088, 89.080 138.500, 92.570 138.500 L 96.460 138.500 97.899 132.269 C 99.014 127.446, 99.079 125.470, 98.191 123.519 C 97.033 120.978, 93.706 119.932, 94.154 122.250 M 131.802 124.101 C 132.124 126.301, 132.506 126.810, 133.113 125.851 C 134.417 123.794, 134.163 121, 132.673 121 C 131.758 121, 131.488 121.962, 131.802 124.101 M 121 123 C 119.793 123.780, 119.951 123.972, 121.809 123.985 C 123.097 123.993, 123.845 123.558, 123.500 123 C 122.757 121.798, 122.861 121.798, 121 123 M 40.553 125.750 C 41.342 127.263, 41.990 129.063, 41.994 129.750 C 41.997 130.438, 42.419 131, 42.930 131 C 43.838 131, 42.870 126.217, 41.520 124.033 C 40.078 121.700, 39.228 123.210, 40.553 125.750 M 138.061 124.750 C 135.918 126.486, 135.933 126.500, 139.926 126.553 C 143.744 126.603, 143.868 126.512, 142.321 124.803 C 140.346 122.620, 140.685 122.624, 138.061 124.750 M 0.158 126 C 0.158 127.375, 0.385 127.938, 0.662 127.250 C 0.940 126.563, 0.940 125.438, 0.662 124.750 C 0.385 124.063, 0.158 124.625, 0.158 126 M 91 126.500 C 91 127.325, 91.450 128, 92 128 C 92.550 128, 93 127.325, 93 126.500 C 93 125.675, 92.550 125, 92 125 C 91.450 125, 91 125.675, 91 126.500 M 6 127.132 C 3.923 127.961, 3.763 128.278, 5.054 129.005 C 7.195 130.210, 10.500 129.593, 10.500 127.988 C 10.500 126.211, 9.014 125.929, 6 127.132 M 68.250 128.360 C 65.786 129.580, 65.283 131.529, 67.250 132.234 C 69.961 133.206, 82 131.773, 82 130.479 C 82 129.565, 80.898 129.338, 78.209 129.699 C 75.479 130.065, 74.044 129.758, 73.086 128.604 C 71.595 126.807, 71.405 126.797, 68.250 128.360 M 140.500 131 C 140.160 131.550, 139.009 132, 137.941 132 C 136.873 132, 136 132.436, 136 132.969 C 136 133.501, 136.675 133.678, 137.500 133.362 C 138.422 133.008, 139 133.364, 139 134.286 C 139 135.111, 138.348 136.036, 137.551 136.342 C 136.309 136.819, 136.340 137.368, 137.769 140.199 C 138.685 142.015, 139.309 144.287, 139.155 145.250 C 138.973 146.384, 139.522 147, 140.715 147 C 141.727 147, 143.524 147.678, 144.708 148.508 C 146.694 149.899, 146.912 149.851, 147.534 147.892 C 147.905 146.724, 147.904 142.926, 147.532 139.452 C 146.981 134.312, 146.410 132.843, 144.463 131.568 C 141.650 129.725, 141.318 129.677, 140.500 131 M 289.260 131.548 C 288.578 132.288, 288.418 133.140, 288.905 133.441 C 289.392 133.742, 290.073 133.252, 290.419 132.351 C 291.246 130.196, 290.794 129.882, 289.260 131.548 M 46 131.535 C 46 132.657, 49.271 137, 50.115 137 C 50.602 137, 51 136.325, 51 135.500 C 51 134.675, 50.550 134, 50 134 C 49.450 134, 49 133.325, 49 132.500 C 49 131.675, 48.325 131, 47.500 131 C 46.675 131, 46 131.241, 46 131.535 M 54.677 139.710 C 53.674 139.966, 53.076 140.756, 53.348 141.466 C 53.621 142.175, 53.320 143.280, 52.680 143.920 C 51.930 144.670, 51.869 145.335, 52.508 145.792 C 53.054 146.181, 53.627 147.623, 53.782 148.996 C 54.138 152.150, 56.385 154.450, 58.367 153.689 C 60.030 153.051, 61.704 146.338, 60.483 145.203 C 60.067 144.817, 59.525 145.063, 59.280 145.750 C 59.034 146.438, 58.083 146.986, 57.167 146.968 C 55.686 146.940, 55.705 146.781, 57.330 145.549 C 58.401 144.737, 59.023 143.228, 58.830 141.909 C 58.474 139.480, 57.532 138.981, 54.677 139.710 M 129.653 140.831 C 127.844 142.829, 128.364 144, 131.060 144 C 132.892 144, 134.387 141.435, 133.444 139.910 C 132.595 138.536, 131.486 138.805, 129.653 140.831 M 43 141.500 C 43 142.325, 43.450 143, 44 143 C 44.550 143, 45 142.325, 45 141.500 C 45 140.675, 44.550 140, 44 140 C 43.450 140, 43 140.675, 43 141.500 M 38.625 142.524 C 36.462 144.115, 37.168 147.533, 39.476 146.647 C 40.279 146.339, 41.202 146.518, 41.527 147.044 C 41.852 147.570, 41.416 148, 40.559 148 C 39.682 148, 39 148.850, 39 149.941 C 39 151.009, 38.550 152.160, 38 152.500 C 37.450 152.840, 37 153.772, 37 154.571 C 37 155.706, 37.875 155.884, 41 155.384 C 44.642 154.802, 45 154.940, 45 156.931 C 45 158.134, 45.450 158.840, 46 158.500 C 47.492 157.578, 47.209 155.066, 45.411 153.268 C 43.959 151.816, 43.959 151.602, 45.411 150.790 C 47.669 149.526, 47.378 148, 44.878 148 C 43.219 148, 42.998 147.708, 43.865 146.663 C 44.711 145.644, 44.442 144.827, 42.738 143.234 C 40.781 141.405, 40.265 141.316, 38.625 142.524 M 67.750 142.668 C 66.787 142.931, 66 144.014, 66 145.073 C 66 146.236, 65.306 147.006, 64.250 147.015 C 62.813 147.028, 62.757 147.193, 63.936 147.939 C 65.053 148.646, 65.110 149.162, 64.194 150.266 C 63.547 151.046, 63.313 151.980, 63.675 152.342 C 64.747 153.413, 66 153.094, 66 151.750 C 66 150.859, 67.979 150.536, 72.894 150.625 C 76.686 150.693, 80.319 150.421, 80.968 150.020 C 81.618 149.618, 82.003 147.765, 81.824 145.895 L 81.500 142.500 75.500 142.345 C 72.200 142.260, 68.713 142.405, 67.750 142.668 M 32.164 145.302 C 30.461 147.355, 31.895 151.013, 34.367 150.921 C 35.540 150.878, 35.938 150.615, 35.250 150.338 C 34.563 150.060, 34 149.394, 34 148.858 C 34 148.321, 34.419 148.141, 34.931 148.457 C 36.230 149.260, 37.129 147.501, 36.396 145.590 C 35.657 143.664, 33.638 143.527, 32.164 145.302 M 0.300 150 C 0.300 153.025, 0.487 154.262, 0.716 152.750 C 0.945 151.238, 0.945 148.762, 0.716 147.250 C 0.487 145.738, 0.300 146.975, 0.300 150 M 48.965 147.934 C 49.534 148.998, 50 150.798, 50 151.934 C 50 153.104, 50.651 154, 51.500 154 C 52.325 154, 53 153.528, 53 152.950 C 53 151.140, 49.997 146, 48.939 146 C 48.269 146, 48.277 146.650, 48.965 147.934 M 27 153 C 27 157.291, 27.769 157.675, 33 156 C 35.387 155.235, 35.356 155.195, 32.309 155.100 C 30.554 155.045, 28.840 154.550, 28.500 154 C 28.160 153.450, 28.316 153, 28.847 153 C 29.378 153, 29.577 152.100, 29.290 151 C 28.396 147.583, 27 148.802, 27 153 M 263.948 151.563 C 263.182 152.485, 263.561 152.756, 265.463 152.646 C 266.857 152.566, 267.999 152.012, 267.999 151.417 C 268 149.943, 265.208 150.044, 263.948 151.563 M 40.553 156.915 C 40.231 157.436, 40.394 158.125, 40.915 158.447 C 41.436 158.769, 42.125 158.606, 42.447 158.085 C 42.769 157.564, 42.606 156.875, 42.085 156.553 C 41.564 156.231, 40.875 156.394, 40.553 156.915 M 55.750 156.749 C 54.788 156.968, 54 157.564, 54 158.073 C 54 159.281, 57.710 159.278, 58.457 158.069 C 59.206 156.858, 57.956 156.248, 55.750 156.749 M 258 157 C 258 157.550, 258.423 158, 258.941 158 C 259.459 158, 260.160 157.550, 260.500 157 C 260.840 156.450, 260.416 156, 259.559 156 C 258.702 156, 258 156.450, 258 157 M 269 159 C 269 159.550, 269.900 160, 271 160 C 272.100 160, 273 159.550, 273 159 C 273 158.450, 272.100 158, 271 158 C 269.900 158, 269 158.450, 269 159 M 14.345 160.829 C 15.255 161.835, 16 163.672, 16 164.912 C 16 168.438, 18.455 166.808, 18.823 163.038 C 19.082 160.395, 18.837 159.849, 17.605 160.321 C 16.758 160.646, 15.798 160.482, 15.473 159.956 C 15.148 159.430, 14.389 159, 13.786 159 C 13.183 159, 13.435 159.823, 14.345 160.829 M 27 160 C 27 160.550, 27.450 161, 28 161 C 28.550 161, 29 160.550, 29 160 C 29 159.450, 28.550 159, 28 159 C 27.450 159, 27 159.450, 27 160 M 54.244 160.720 C 53.553 160.968, 53.273 161.633, 53.622 162.197 C 53.971 162.762, 53.640 163.605, 52.886 164.070 C 51.871 164.698, 51.808 165.208, 52.643 166.043 C 53.478 166.878, 54.166 166.374, 55.303 164.093 C 56.859 160.975, 56.522 159.903, 54.244 160.720 M 62.079 164.583 C 62.127 165.748, 62.364 165.985, 62.683 165.188 C 62.972 164.466, 62.936 163.603, 62.604 163.271 C 62.272 162.939, 62.036 163.529, 62.079 164.583 M 42.424 166.445 C 42.087 167.790, 41.066 169.087, 40.155 169.329 C 39.245 169.570, 39.962 169.820, 41.750 169.884 C 43.849 169.959, 44.911 169.561, 44.750 168.761 C 44.590 167.969, 45.457 167.629, 47.154 167.820 C 48.614 167.984, 50.104 167.642, 50.464 167.059 C 50.841 166.448, 50.271 166, 49.118 166 C 48.018 166, 46.840 165.550, 46.500 165 C 45.360 163.155, 43.044 163.976, 42.424 166.445 M 239.574 165.667 C 239.222 166.584, 239.399 167.799, 239.967 168.367 C 240.678 169.078, 241 168.557, 241 166.700 C 241 163.615, 240.501 163.253, 239.574 165.667 M 28.490 169.016 C 28.144 169.575, 27.443 169.774, 26.931 169.457 C 26.419 169.141, 26 169.407, 26 170.049 C 26 170.795, 26.903 170.990, 28.500 170.589 C 30.548 170.075, 31 170.327, 31 171.981 C 31 175.119, 32.721 174.357, 33.213 171 C 33.592 168.419, 33.337 168, 31.386 168 C 30.139 168, 28.835 168.457, 28.490 169.016 M 52.057 168.945 C 50.848 169.709, 50.822 170.313, 51.895 172.668 C 53.140 175.402, 53.216 175.425, 54.617 173.509 C 57.082 170.138, 55.273 166.912, 52.057 168.945 M 91.694 168.639 C 90.895 169.438, 91.798 171, 93.059 171 C 93.577 171, 94 170.325, 94 169.500 C 94 167.954, 92.820 167.513, 91.694 168.639 M 124 170 C 124 170.550, 124.450 171, 125 171 C 125.550 171, 126 170.550, 126 170 C 126 169.450, 125.550 169, 125 169 C 124.450 169, 124 169.450, 124 170 M 234 170.845 C 234 172.451, 237.857 175.174, 239.644 174.830 C 241.245 174.522, 241.180 174.246, 239.030 172.242 C 236.614 169.992, 234 169.266, 234 170.845 M 285.667 172.667 C 284.509 173.824, 284.945 178.811, 286.250 179.338 C 286.938 179.615, 286.600 179.891, 285.500 179.951 C 283.667 180.052, 283.645 180.145, 285.237 181.073 C 286.433 181.770, 287.633 181.731, 289.093 180.950 C 290.792 180.041, 291.093 179.213, 290.607 176.783 C 290.273 175.115, 290 173.356, 290 172.875 C 290 171.852, 286.642 171.691, 285.667 172.667 M 66.545 173.927 C 66.195 174.494, 66.378 175.838, 66.954 176.914 C 68.273 179.378, 68.324 186.722, 67.026 187.167 C 66.490 187.350, 66.316 188.507, 66.639 189.739 C 66.963 190.970, 67.626 191.731, 68.114 191.430 C 68.601 191.128, 69 192.034, 69 193.441 C 69 194.848, 68.550 196, 68 196 C 67.450 196, 67 196.498, 67 197.107 C 67 197.719, 67.728 197.935, 68.629 197.589 C 69.979 197.071, 70.155 197.473, 69.661 199.943 C 69.334 201.582, 69.453 203.162, 69.926 203.454 C 71.096 204.178, 72.230 199.301, 71.458 196.867 C 71.115 195.787, 71.344 194.291, 71.966 193.541 C 72.744 192.604, 72.770 191.976, 72.049 191.530 C 71.472 191.174, 70.974 188.771, 70.942 186.191 C 70.825 176.656, 68.635 170.546, 66.545 173.927 M 223 173.566 C 223 173.877, 223.466 175.002, 224.035 176.066 C 225.574 178.940, 227.157 178.438, 225.818 175.500 C 224.810 173.287, 223 172.045, 223 173.566 M 30 176 C 28.718 176.828, 28.754 176.972, 30.250 176.985 C 31.212 176.993, 32 176.550, 32 176 C 32 174.780, 31.887 174.780, 30 176 M 40.638 176.500 C 40.955 177.325, 41.391 178, 41.607 178 C 41.823 178, 42 177.325, 42 176.500 C 42 175.675, 41.564 175, 41.031 175 C 40.499 175, 40.322 175.675, 40.638 176.500 M 84.332 178.580 C 86.339 179.943, 87.872 181.440, 87.740 181.906 C 87.395 183.124, 93.041 189.292, 93.804 188.530 C 94.155 188.179, 93.845 187.522, 93.114 187.071 C 92.384 186.619, 92.197 185.996, 92.700 185.686 C 93.202 185.375, 93.432 183.577, 93.212 181.690 C 92.866 178.724, 92.315 178.116, 89.156 177.214 C 87.145 176.639, 84.416 176.154, 83.092 176.135 C 80.893 176.103, 81.001 176.316, 84.332 178.580 M 20.427 177.765 C 18.648 178.984, 17.908 182, 19.388 182 C 20.149 182, 20.745 183.171, 20.788 184.750 C 21.006 192.720, 21.341 193.485, 24.750 193.813 C 27.428 194.072, 28 193.778, 28 192.147 C 28 191.058, 28.563 189.932, 29.250 189.646 C 30.908 188.956, 27.308 186, 24.809 186 C 22.044 186, 22.582 182.272, 25.750 179.484 C 27.953 177.545, 28.152 177.057, 26.750 177.032 C 25.788 177.014, 25 177.675, 25 178.500 C 25 179.325, 24.550 180, 24 180 C 23.450 180, 23 179.325, 23 178.500 C 23 176.869, 22.108 176.614, 20.427 177.765 M 46.222 178.166 C 46.739 179.716, 49.881 179.976, 50.250 178.500 C 50.388 177.950, 49.437 177.350, 48.139 177.166 C 46.520 176.937, 45.917 177.251, 46.222 178.166 M 129.412 177.750 C 129.860 178.544, 129.476 179, 128.359 179 C 126.991 179, 126.867 179.267, 127.800 180.200 C 128.733 181.133, 129.267 181.133, 130.200 180.200 C 131.133 179.267, 131.101 178.722, 130.053 177.750 C 128.976 176.750, 128.848 176.750, 129.412 177.750 M 122.583 178.866 C 122.152 179.563, 122.070 180.403, 122.400 180.733 C 123.295 181.628, 124.271 180.312, 123.787 178.862 C 123.449 177.846, 123.213 177.846, 122.583 178.866 M 132 179 C 132 179.550, 132.450 180, 133 180 C 133.550 180, 134 179.550, 134 179 C 134 178.450, 133.550 178, 133 178 C 132.450 178, 132 178.450, 132 179 M 25.469 182.050 C 24.519 183.588, 25.820 184.580, 27.104 183.296 C 27.822 182.578, 27.839 182.019, 27.156 181.597 C 26.596 181.251, 25.837 181.455, 25.469 182.050 M 243.039 182.250 C 243.018 183.213, 242.325 184, 241.500 184 C 240.675 184, 240 184.633, 240 185.406 C 240 186.286, 240.698 186.630, 241.862 186.326 C 244.283 185.693, 244.969 188.269, 244.986 198.061 C 244.998 204.315, 244.645 206.004, 242.949 207.824 C 240.676 210.264, 241.254 212.428, 243.987 211.714 C 245.574 211.299, 245.712 211.978, 245.382 218.572 C 245.180 222.598, 245.442 226.155, 245.964 226.478 C 246.486 226.800, 246.685 227.658, 246.406 228.384 C 246.127 229.110, 246.984 230.415, 248.309 231.283 C 249.635 232.152, 251.458 233.600, 252.360 234.503 C 253.262 235.405, 254.049 235.998, 254.110 235.821 C 254.856 233.633, 254.494 228.253, 253.467 226.274 C 252.747 224.887, 252.391 223.144, 252.676 222.401 C 252.961 221.659, 252.460 220.317, 251.563 219.420 C 250.641 218.498, 250.183 216.998, 250.510 215.969 C 250.828 214.967, 249.990 211.527, 248.647 208.324 C 246.790 203.891, 246.209 200.709, 246.217 195 C 246.223 190.306, 245.638 186.191, 244.652 184 C 243.774 182.047, 243.061 181.274, 243.039 182.250 M 130.638 185.500 C 130.322 186.325, 130.499 187, 131.031 187 C 131.564 187, 132 186.325, 132 185.500 C 132 184.675, 131.823 184, 131.607 184 C 131.391 184, 130.955 184.675, 130.638 185.500 M 153.240 186.541 C 150.134 187.847, 148.445 190.811, 151.468 189.651 C 152.275 189.341, 153.202 189.518, 153.527 190.044 C 153.852 190.570, 154.991 191, 156.059 191 C 157.450 191, 158 190.309, 158 188.559 C 158 185.303, 157.096 184.920, 153.240 186.541 M 266 187.217 C 266 187.977, 266.528 189.128, 267.174 189.774 C 268.073 190.673, 267.706 191.543, 265.610 193.485 C 263.714 195.243, 263.061 196.618, 263.487 197.960 C 263.886 199.217, 263.355 200.645, 261.975 202.025 C 260.052 203.948, 260.023 204.133, 261.674 203.961 C 265.206 203.591, 265.741 204.033, 266.261 207.750 C 266.550 209.813, 266.947 212.175, 267.143 213 C 267.406 214.104, 266.773 214.424, 264.750 214.212 C 261.849 213.908, 260.947 215.659, 263.500 216.638 C 265.320 217.337, 265.476 219.641, 263.750 220.338 C 263.063 220.615, 263.464 220.878, 264.643 220.921 C 267.419 221.023, 267.997 222.721, 268.015 230.832 C 268.024 234.499, 268.462 238.175, 268.988 239 C 269.747 240.189, 269.321 240.604, 266.934 241 C 262.293 241.770, 262.975 243.399, 268.374 244.441 C 272.613 245.259, 273.423 245.142, 274.595 243.540 C 276.182 241.368, 275.518 235.013, 273.542 233.471 C 272.169 232.401, 271.622 228.818, 270.056 210.666 C 269.542 204.707, 269.027 198.857, 268.912 197.666 C 268.797 196.475, 268.992 194.825, 269.347 194 C 270.190 192.035, 268.724 186.741, 267.195 186.232 C 266.538 186.013, 266 186.456, 266 187.217 M 24.031 189.500 C 24.031 190.050, 24.467 191.175, 25 192 C 25.533 192.825, 25.969 193.050, 25.969 192.500 C 25.969 191.950, 25.533 190.825, 25 190 C 24.467 189.175, 24.031 188.950, 24.031 189.500 M 78.500 191.248 C 80.387 192.369, 80.333 192.466, 77.545 192.970 C 75.453 193.348, 74.406 194.234, 73.962 196.002 C 73.273 198.748, 73.801 201.241, 74.925 200.546 C 76.215 199.749, 75.563 213.838, 74.250 215.150 C 73.250 216.150, 73 215.885, 73 213.825 C 73 209.812, 71.841 205, 70.875 205 C 70.394 205, 70 207.673, 70 210.941 C 70 214.209, 69.550 217.160, 69 217.500 C 68.450 217.840, 68.053 220.004, 68.118 222.309 C 68.226 226.123, 68.295 226.230, 68.890 223.500 C 69.968 218.544, 71.262 222.435, 70.484 228.296 L 69.794 233.500 72.147 231.023 C 73.916 229.162, 74.500 227.408, 74.500 223.960 C 74.500 219.915, 74.736 219.417, 76.500 219.748 C 77.600 219.954, 80.188 219.414, 82.250 218.548 C 85.548 217.163, 86 216.560, 86 213.546 C 86 209.580, 84.829 208.486, 82.131 209.930 C 80.574 210.763, 80.121 210.572, 79.683 208.897 C 79.292 207.402, 79.535 206.991, 80.573 207.390 C 82.312 208.057, 82.438 206.838, 80.800 205.200 C 79.867 204.267, 79.880 204, 80.859 204 C 81.551 204, 81.833 203.539, 81.485 202.975 C 81.136 202.412, 81.419 202.074, 82.114 202.225 C 82.878 202.392, 83.641 200.980, 84.047 198.649 C 84.598 195.484, 84.322 194.371, 82.494 192.399 C 81.271 191.080, 79.422 190.014, 78.385 190.030 C 76.600 190.059, 76.606 190.124, 78.500 191.248 M 284.500 192 C 284.840 192.550, 285.793 193, 286.618 193 C 287.443 193, 287.840 192.550, 287.500 192 C 287.160 191.450, 286.207 191, 285.382 191 C 284.557 191, 284.160 191.450, 284.500 192 M 28.424 196.250 C 25.250 199.962, 23.922 202.807, 25.169 203.223 C 25.773 203.424, 26.769 205.131, 27.383 207.016 C 28.364 210.026, 29.047 210.545, 33 211.282 C 35.475 211.744, 38.918 212.769, 40.651 213.561 C 42.384 214.352, 45.413 215, 47.382 215 C 50.434 215, 51.061 214.603, 51.637 212.309 C 52.009 210.829, 51.792 207.673, 51.156 205.295 C 50.520 202.917, 50 200.103, 50 199.042 C 50 195.591, 46.198 194, 37.952 194 C 31.304 194, 30.107 194.283, 28.424 196.250 M 77 199.882 C 77 200.432, 77.450 201.160, 78 201.500 C 78.550 201.840, 79 201.668, 79 201.118 C 79 200.568, 78.550 199.840, 78 199.500 C 77.450 199.160, 77 199.332, 77 199.882 M 194.750 206.044 C 190.127 211.886, 189.095 214, 190.864 214 C 192.146 214, 203 203.516, 203 202.278 C 203 201.456, 200.696 199.896, 199.668 200.020 C 199.576 200.032, 197.363 202.742, 194.750 206.044 M 66.567 203.892 C 66.204 204.479, 66.481 205.980, 67.182 207.229 L 68.456 209.500 68.813 207.135 C 69.214 204.472, 67.625 202.179, 66.567 203.892 M 116.878 205.904 C 117.636 206.384, 117.947 207.277, 117.569 207.888 C 117.184 208.512, 117.530 209, 118.358 209 C 119.169 209, 120.015 209.545, 120.237 210.211 C 120.459 210.877, 122.264 211.479, 124.247 211.548 L 127.854 211.673 124.725 208.355 C 122.784 206.298, 121.339 205.451, 120.923 206.125 C 120.440 206.906, 120.057 206.901, 119.566 206.107 C 119.190 205.498, 118.121 205.007, 117.191 205.015 C 115.841 205.028, 115.778 205.207, 116.878 205.904 M 174.431 210.112 C 174.053 210.723, 174.235 211.527, 174.834 211.898 C 175.434 212.268, 175.666 213.563, 175.349 214.775 C 175.032 215.986, 174.465 216.787, 174.089 216.555 C 173.712 216.322, 172.751 216.545, 171.952 217.051 C 170.956 217.681, 170.892 217.974, 171.750 217.985 C 172.438 217.993, 173 218.675, 173 219.500 C 173 220.325, 173.450 221, 174 221 C 174.550 221, 175 220.359, 175 219.575 C 175 218.533, 176.068 218.226, 178.971 218.432 C 181.155 218.588, 182.704 218.329, 182.412 217.858 C 182.120 217.386, 182.385 217, 183 217 C 183.615 217, 183.849 216.565, 183.520 216.033 C 183.191 215.501, 181.520 215.346, 179.806 215.689 C 177.581 216.134, 176.894 215.981, 177.404 215.156 C 177.797 214.520, 178.766 214, 179.559 214 C 181.309 214, 181.446 211.846, 179.800 210.200 C 178.293 208.693, 175.338 208.645, 174.431 210.112 M 147 212.698 C 147 214.085, 149.689 215.644, 150.567 214.767 C 150.831 214.502, 150.792 213.622, 150.481 212.810 C 149.768 210.953, 147 210.864, 147 212.698 M 113 213 C 113 213.550, 113.450 214, 114 214 C 114.550 214, 115 213.550, 115 213 C 115 212.450, 114.550 212, 114 212 C 113.450 212, 113 212.450, 113 213 M 5 214.500 C 5 215.628, 5.702 216.039, 7.250 215.820 C 8.488 215.644, 9.500 215.050, 9.500 214.500 C 9.500 213.950, 8.488 213.356, 7.250 213.180 C 5.702 212.961, 5 213.372, 5 214.500 M 140.159 214.588 C 140.511 216.417, 144.462 218.028, 146.687 217.250 C 148.681 216.552, 146.887 213.872, 144.622 214.164 C 143.455 214.315, 141.894 214.061, 141.154 213.601 C 140.182 212.996, 139.905 213.270, 140.159 214.588 M 117.192 215.075 C 117.389 215.666, 117.977 216.150, 118.500 216.150 C 119.023 216.150, 119.611 215.666, 119.808 215.075 C 120.005 214.484, 119.417 214, 118.500 214 C 117.583 214, 116.995 214.484, 117.192 215.075 M 122.569 217.076 C 124.694 219.425, 124.889 219.449, 124.578 217.333 C 124.444 216.416, 123.545 215.550, 122.580 215.409 C 120.914 215.164, 120.913 215.246, 122.569 217.076 M 194.272 218.605 C 194.663 218.996, 194.511 219.885, 193.934 220.580 C 192.862 221.872, 194.618 226, 196.241 226 C 196.658 226, 197 226.408, 197 226.906 C 197 227.405, 196.100 227.577, 195 227.290 C 191.505 226.376, 192.704 229.849, 196.420 231.402 C 200.766 233.218, 202.366 236.171, 201.541 240.855 L 200.899 244.500 204.449 240.817 C 206.402 238.791, 208 236.177, 208 235.008 C 208 233.839, 207.582 233.140, 207.072 233.456 C 206.562 233.771, 205.846 233.091, 205.483 231.946 C 205.119 230.800, 203.399 228.997, 201.661 227.940 C 198.436 225.979, 198.062 225.198, 199.824 224.109 C 201.085 223.329, 198.212 219.675, 195.530 218.649 C 194.447 218.234, 193.881 218.214, 194.272 218.605 M 278.735 220.608 C 278.047 224.205, 278.415 227.342, 280.357 234.426 C 281.251 237.685, 281.791 240.542, 281.558 240.776 C 280.674 241.659, 279 239.803, 279 237.941 C 279 236.873, 278.585 236, 278.078 236 C 277.564 236, 277.334 239.103, 277.559 243 C 277.879 248.573, 277.672 250, 276.540 250 C 275.758 250, 274.840 249.550, 274.500 249 C 273.609 247.559, 270.436 247.770, 269.117 249.358 C 267.812 250.932, 256.378 251.421, 255.465 249.943 C 254.527 248.426, 251.830 248.855, 250.392 250.750 C 249.581 251.819, 249.051 252.013, 249.032 251.250 C 248.981 249.256, 247.284 249.805, 246.710 252 C 246.322 253.483, 246.680 254, 248.094 254 C 249.142 254, 250 254.384, 250 254.852 C 250 255.321, 253.856 256.001, 258.568 256.364 C 263.281 256.726, 269.019 257.436, 271.318 257.941 C 273.618 258.446, 277.975 258.979, 281 259.125 L 286.500 259.391 286.302 255.445 C 285.581 241.053, 285.441 240.004, 284.250 240.002 C 283.421 240.001, 283 238.357, 283 235.122 C 283 231.917, 282.464 229.800, 281.435 228.946 C 280.368 228.060, 279.954 226.285, 280.135 223.356 C 280.437 218.436, 279.501 216.598, 278.735 220.608 M 102.500 220 C 102.840 220.550, 103.766 221, 104.559 221 C 105.352 221, 106 220.550, 106 220 C 106 219.450, 105.073 219, 103.941 219 C 102.809 219, 102.160 219.450, 102.500 220 M 155.548 219.922 C 154.788 221.152, 155.227 227.022, 156.121 227.575 C 156.497 227.807, 157.276 226.648, 157.851 224.999 C 158.543 223.011, 158.556 222, 157.889 222 C 157.335 222, 157.141 221.581, 157.457 221.069 C 157.774 220.557, 157.606 219.875, 157.085 219.553 C 156.564 219.231, 155.873 219.397, 155.548 219.922 M 174.031 225 C 174.057 227.180, 174.191 227.276, 175.080 225.750 C 175.641 224.787, 176.752 224, 177.550 224 C 178.347 224, 179 223.598, 179 223.106 C 179 222.614, 177.875 222.276, 176.501 222.356 C 174.531 222.469, 174.008 223.030, 174.031 225 M 132.079 224.583 C 132.127 225.748, 132.364 225.985, 132.683 225.188 C 132.972 224.466, 132.936 223.603, 132.604 223.271 C 132.272 222.939, 132.036 223.529, 132.079 224.583 M 190 224.217 C 190 225.106, 189.438 226.062, 188.750 226.341 C 187.810 226.722, 187.872 227.108, 189 227.899 C 190.985 229.289, 192.948 225.548, 191.167 223.767 C 190.278 222.878, 190 222.984, 190 224.217 M 234 224.021 C 234 224.675, 232.862 227.475, 231.472 230.243 C 230.081 233.012, 229.069 235.387, 229.222 235.522 C 229.375 235.656, 230.963 236.080, 232.750 236.463 L 236 237.159 236.179 232.579 C 236.277 230.061, 236.389 227.025, 236.429 225.833 C 236.468 224.642, 235.938 223.479, 235.250 223.250 C 234.563 223.021, 234 223.368, 234 224.021 M 261 223.893 C 261 224.384, 261.698 225.054, 262.552 225.382 C 263.406 225.709, 263.853 225.571, 263.546 225.074 C 263.239 224.577, 263.553 223.943, 264.244 223.664 C 264.935 223.386, 264.488 223.122, 263.250 223.079 C 262.012 223.036, 261 223.402, 261 223.893 M 274.252 226.500 C 274.263 228.700, 274.468 229.482, 274.707 228.238 C 274.946 226.994, 274.937 225.194, 274.687 224.238 C 274.437 223.282, 274.241 224.300, 274.252 226.500 M 171 226 C 171 226.550, 171.450 227, 172 227 C 172.550 227, 173 226.550, 173 226 C 173 225.450, 172.550 225, 172 225 C 171.450 225, 171 225.450, 171 226 M 90.533 228.963 C 88.796 230.883, 88.814 230.900, 91.370 229.713 C 92.808 229.046, 93.988 228.162, 93.992 227.750 C 94.006 226.385, 92.336 226.971, 90.533 228.963 M 144.500 228 C 144.160 228.550, 144.097 229, 144.359 229 C 144.622 229, 145.548 229.273, 146.418 229.607 C 147.456 230.005, 148 229.662, 148 228.607 C 148 226.843, 145.485 226.407, 144.500 228 M 175.034 230.709 C 172.815 232.749, 171 235.051, 171 235.825 C 171 237.212, 178.663 231.030, 180.300 228.323 C 181.852 225.755, 179.032 227.032, 175.034 230.709 M 263.186 231.276 C 261.736 233.023, 262.632 236, 264.607 236 C 266.111 236, 266.283 234.577, 265.133 231.653 C 264.502 230.052, 264.244 230.002, 263.186 231.276 M 294 233.500 C 292.980 234.729, 293.049 235, 294.378 235 C 295.270 235, 296 234.325, 296 233.500 C 296 232.675, 295.830 232, 295.622 232 C 295.415 232, 294.685 232.675, 294 233.500 M 51.975 235.565 C 51.439 236.976, 51 238.381, 51 238.688 C 51 239.642, 54.058 236.759, 55.090 234.832 C 55.846 233.420, 55.713 233, 54.510 233 C 53.652 233, 52.512 234.154, 51.975 235.565 M 109.182 235.500 C 107.548 236.875, 105.601 238.010, 104.856 238.022 C 104.092 238.035, 104.580 238.874, 105.972 239.944 C 108.764 242.090, 110 241.782, 110 238.941 C 110 237.873, 110.450 237, 111 237 C 111.550 237, 112 236.363, 112 235.583 C 112 234.804, 112.563 233.940, 113.250 233.662 C 114.120 233.311, 114.143 233.134, 113.327 233.079 C 112.681 233.036, 110.816 234.125, 109.182 235.500 M 60.813 236.683 C 61.534 236.972, 62.397 236.936, 62.729 236.604 C 63.061 236.272, 62.471 236.036, 61.417 236.079 C 60.252 236.127, 60.015 236.364, 60.813 236.683 M 266 239 C 266 239.550, 266.450 240, 267 240 C 267.550 240, 268 239.550, 268 239 C 268 238.450, 267.550 238, 267 238 C 266.450 238, 266 238.450, 266 239 M 175 240 C 174.099 240.582, 173.975 240.975, 174.691 240.985 C 175.346 240.993, 176.160 240.550, 176.500 240 C 177.267 238.758, 176.921 238.758, 175 240 M 169.581 242.517 C 167.998 244.933, 168.015 245.204, 169.909 247.611 L 171.909 250.154 173.468 246.423 C 174.325 244.372, 174.908 242.635, 174.763 242.563 C 174.618 242.492, 173.769 241.879, 172.876 241.200 C 171.516 240.165, 170.982 240.379, 169.581 242.517 M 102.577 244.750 C 99.545 247.777, 99.153 248.567, 100.543 248.849 C 102.391 249.223, 107 244.580, 107 242.344 C 107 240.440, 106.769 240.565, 102.577 244.750 M 222.579 241.872 C 222.164 242.544, 222.614 243.033, 223.691 243.081 C 224.686 243.126, 226.625 243.291, 228 243.448 C 229.375 243.605, 233.200 244.025, 236.500 244.383 L 242.500 245.033 238.500 243.479 C 233.097 241.379, 223.484 240.408, 222.579 241.872 M 0.417 261.500 C 0.418 271.950, 0.566 276.089, 0.746 270.698 C 0.926 265.307, 0.925 256.757, 0.744 251.698 C 0.563 246.639, 0.416 251.050, 0.417 261.500 M 195.607 245.582 C 194.392 248.747, 195.873 249.034, 197.768 246 C 198.794 244.357, 198.767 244, 197.615 244 C 196.845 244, 195.941 244.712, 195.607 245.582 M 204.460 246.509 C 202.586 247.978, 202.631 248.033, 205.500 247.773 C 207.150 247.623, 208.421 247.061, 208.325 246.525 C 208.033 244.896, 206.525 244.890, 204.460 246.509 M 294.500 246 C 294.840 246.550, 295.316 247, 295.559 247 C 295.802 247, 296 246.550, 296 246 C 296 245.450, 295.523 245, 294.941 245 C 294.359 245, 294.160 245.450, 294.500 246 M 191 247.500 C 191 248.325, 191.450 249, 192 249 C 192.550 249, 193 248.325, 193 247.500 C 193 246.675, 192.550 246, 192 246 C 191.450 246, 191 246.675, 191 247.500 M 220 249 C 220 249.550, 221.125 250, 222.500 250 C 223.875 250, 225 249.550, 225 249 C 225 248.450, 223.875 248, 222.500 248 C 221.125 248, 220 248.450, 220 249 M 168.374 252.467 C 167.321 255.211, 168.570 256.239, 169.766 253.613 C 170.514 251.973, 170.581 251, 169.947 251 C 169.392 251, 168.684 251.660, 168.374 252.467 M 218 257.463 C 218 260.315, 222.211 261.750, 237 263.937 C 241.125 264.547, 249.900 265.880, 256.500 266.900 C 263.100 267.920, 268.859 268.544, 269.299 268.288 C 270.500 267.587, 267.994 265, 266.113 265 C 265.211 265, 262.003 264.082, 258.986 262.959 C 255.969 261.837, 250.125 260.487, 246 259.960 C 241.875 259.432, 233.887 258.194, 228.250 257.208 C 218.004 255.416, 218 255.417, 218 257.463 M 71.750 258.696 C 70.206 259.093, 70 260.553, 70 271.073 C 70 282.212, 70.128 283, 71.941 283 C 73.009 283, 74.089 282.663, 74.342 282.250 C 75.318 280.659, 75.452 258.653, 74.487 258.451 C 73.944 258.337, 72.713 258.447, 71.750 258.696 M 202.545 262.250 C 203.522 265.482, 204.248 266.009, 206.808 265.340 C 209.081 264.746, 209.081 264.745, 207.024 263.304 C 205.892 262.512, 205.226 261.444, 205.542 260.932 C 205.859 260.419, 205.161 260, 203.992 260 C 202.252 260, 201.989 260.409, 202.545 262.250 M 299.079 263.583 C 299.127 264.748, 299.364 264.985, 299.683 264.188 C 299.972 263.466, 299.936 262.603, 299.604 262.271 C 299.272 261.939, 299.036 262.529, 299.079 263.583 M 221.738 269.411 C 222.077 271.183, 222.731 271.934, 223.633 271.587 C 224.979 271.071, 248.266 275.428, 250.048 276.530 C 250.542 276.835, 252.646 277.299, 254.723 277.561 C 256.800 277.824, 259.175 278.239, 260 278.483 C 265.151 280.011, 268.366 279.979, 270.130 278.382 C 271.159 277.452, 272 276.381, 272 276.003 C 272 275.036, 265.501 273.287, 259 272.503 C 253.286 271.815, 247.327 270.180, 245.360 268.761 C 244.734 268.308, 239.046 267.661, 232.721 267.322 L 221.221 266.706 221.738 269.411 M 110.500 271.445 C 106.363 272.723, 106.044 273.402, 108.328 276.070 C 109.067 276.933, 110.222 279.825, 110.895 282.497 C 111.953 286.700, 111.908 287.472, 110.559 288.227 C 108.477 289.392, 108.625 290.989, 111.096 294 C 112.557 295.781, 113.301 296.120, 113.681 295.180 C 114.076 294.201, 114.565 294.362, 115.572 295.799 C 116.780 297.524, 117.432 297.624, 121.465 296.701 C 125.252 295.834, 126 295.278, 126 293.332 C 126 291.926, 126.596 291, 127.500 291 C 128.325 291, 129 290.190, 129 289.200 C 129 288.210, 129.428 286.972, 129.951 286.449 C 131.555 284.845, 129.513 278.685, 126.158 275.012 C 124.421 273.110, 123 271.205, 123 270.777 C 123 269.613, 115.059 270.037, 110.500 271.445 M 208 272.559 C 208 273.416, 208.457 273.835, 209.016 273.490 C 209.575 273.144, 209.774 272.443, 209.457 271.931 C 208.600 270.544, 208 270.802, 208 272.559 M 156.100 278.705 C 156.829 279.917, 157.640 280.694, 157.903 280.431 C 158.166 280.168, 157.570 279.176, 156.579 278.226 C 154.857 276.577, 154.835 276.598, 156.100 278.705 M 28.670 279.417 C 27.991 281.187, 29.186 281.649, 36.593 282.477 C 40.857 282.954, 42.083 282.845, 41 282.084 C 40.175 281.505, 38.070 281.024, 36.321 281.015 C 34.573 281.007, 32.468 280.325, 31.643 279.500 C 29.783 277.641, 29.356 277.629, 28.670 279.417 M 141.500 280 C 141.840 280.550, 142.541 281, 143.059 281 C 143.577 281, 144 280.550, 144 280 C 144 279.450, 143.298 279, 142.441 279 C 141.584 279, 141.160 279.450, 141.500 280 M 243.813 279.683 C 244.534 279.972, 245.397 279.936, 245.729 279.604 C 246.061 279.272, 245.471 279.036, 244.417 279.079 C 243.252 279.127, 243.015 279.364, 243.813 279.683 M 255.500 282 C 255.840 282.550, 256.316 283, 256.559 283 C 256.802 283, 257 282.550, 257 282 C 257 281.450, 256.523 281, 255.941 281 C 255.359 281, 255.160 281.450, 255.500 282 M 48.537 282.940 C 47.815 284.109, 51.092 286.742, 54.250 287.530 C 57.039 288.227, 57.622 287.528, 56.164 285.232 C 55.163 283.654, 49.203 281.863, 48.537 282.940 M 158.553 282.915 C 158.231 283.436, 158.394 284.125, 158.915 284.447 C 159.436 284.769, 160.125 284.606, 160.447 284.085 C 160.769 283.564, 160.606 282.875, 160.085 282.553 C 159.564 282.231, 158.875 282.394, 158.553 282.915 M 140.500 284 C 140.840 284.550, 141.316 285, 141.559 285 C 141.802 285, 142 284.550, 142 284 C 142 283.450, 141.523 283, 140.941 283 C 140.359 283, 140.160 283.450, 140.500 284 M 267.034 285.459 C 266.032 286.667, 266.311 287.025, 268.662 287.542 C 270.223 287.886, 272.063 288.340, 272.750 288.552 C 273.438 288.764, 274 288.241, 274 287.389 C 274 286.165, 273.325 285.989, 270.770 286.551 C 267.862 287.189, 267.674 287.097, 268.892 285.630 C 269.636 284.734, 269.795 284, 269.245 284 C 268.695 284, 267.700 284.656, 267.034 285.459 M 247.079 288.583 C 247.127 289.748, 247.364 289.985, 247.683 289.188 C 247.972 288.466, 247.936 287.603, 247.604 287.271 C 247.272 286.939, 247.036 287.529, 247.079 288.583 M 112 290.941 C 112 293.356, 112.556 293.599, 113.349 291.532 C 113.659 290.725, 113.482 289.798, 112.956 289.473 C 112.430 289.148, 112 289.809, 112 290.941 M 39.813 294.683 C 40.534 294.972, 41.397 294.936, 41.729 294.604 C 42.061 294.272, 41.471 294.036, 40.417 294.079 C 39.252 294.127, 39.015 294.364, 39.813 294.683" stroke="none" fill="#3467df" fill-rule="evenodd"/>
</svg>