<svg xmlns="http://www.w3.org/2000/svg" width="492" height="328" viewBox="0 0 492 328" version="1.1">
	<rect x="0" y="0" width="100%" height="100%" fill="#bfbfbf" />
	<path d="M 0 164 L 0 328 40.122 328 L 80.244 328 78.630 325.750 C 74.340 319.771, 71.855 314.807, 71.407 311.326 C 71.137 309.222, 70.193 304.177, 69.309 300.117 C 67.993 294.066, 67.907 291.629, 68.830 286.617 C 70.117 279.626, 72.058 258.223, 71.878 253 C 71.811 251.075, 72.261 246.800, 72.877 243.500 C 73.493 240.200, 73.956 232.100, 73.906 225.500 C 73.855 218.900, 74.535 207.875, 75.415 201 C 76.295 194.125, 77.515 184.450, 78.126 179.500 C 79.599 167.563, 86.243 143.334, 90.579 134.089 C 94.246 126.269, 101.755 115.074, 105.942 111.184 C 108.924 108.413, 120.123 102.173, 140.373 92 L 155.302 84.500 159.203 77.571 L 163.104 70.643 162.012 61.661 C 160.863 52.211, 160.398 50.636, 159.012 51.493 C 156.263 53.191, 153 41.263, 153 29.518 C 153 27.098, 152.570 24.852, 152.044 24.527 C 151.518 24.202, 151.323 23.321, 151.612 22.569 C 151.900 21.817, 151.683 20.922, 151.128 20.579 C 149.417 19.522, 151.909 14, 154.098 14 C 155.144 14, 156 13.373, 156 12.607 C 156 11.841, 156.651 10.964, 157.448 10.658 C 158.244 10.353, 159.650 8.644, 160.572 6.861 C 161.494 5.078, 163.205 2.820, 164.374 1.843 C 166.414 0.138, 163.144 0.065, 83.250 0.033 L 0 0 0 164 M 215.730 2.250 C 216.873 3.488, 218.514 6.075, 219.377 8 C 220.239 9.925, 221.952 12.747, 223.183 14.271 C 225.968 17.718, 226.588 25.639, 224.276 28.226 C 223.427 29.176, 222.390 29.741, 221.971 29.482 C 220.685 28.687, 220.208 31.339, 220.883 35.519 C 221.387 38.636, 222.012 39.569, 223.763 39.820 C 224.994 39.995, 226 40.417, 226 40.756 C 226 43.182, 222.497 54.804, 221.381 56.079 C 220.622 56.947, 220 58.478, 220 59.482 C 220 61.182, 219.881 61.170, 218.250 59.310 C 216.494 57.306, 214.138 57.345, 212.765 59.400 C 212.277 60.132, 212.025 60.034, 212.015 59.108 C 211.998 57.530, 206.548 52, 205.009 52 C 204.454 52, 204 52.563, 204 53.250 C 204 53.938, 202.511 55.688, 200.691 57.140 C 197.656 59.561, 197.128 59.673, 194.311 58.489 C 192.622 57.779, 190.935 56.703, 190.561 56.099 C 189.490 54.366, 186.479 54.813, 184.500 57 C 183.505 58.100, 181.950 59, 181.045 59 C 180.140 59, 178.860 59.540, 178.200 60.200 C 176.432 61.968, 176.730 65, 178.671 65 C 179.590 65, 181.163 65.742, 182.165 66.650 C 183.412 67.778, 186.439 68.440, 191.744 68.743 C 196.010 68.988, 199.972 69.575, 200.548 70.049 C 201.516 70.844, 204.652 68.817, 209.084 64.532 C 210.778 62.894, 214 62.444, 214 63.846 C 214 64.312, 213.335 66.026, 212.522 67.655 C 211.709 69.285, 210.922 71.716, 210.772 73.059 C 210.559 74.970, 210.935 75.462, 212.500 75.324 C 214.254 75.170, 214.306 75.293, 212.920 76.324 C 211.487 77.391, 211.507 77.872, 213.144 81.500 C 214.136 83.700, 214.966 86.625, 214.989 88 C 215.012 89.375, 215.361 91.006, 215.765 91.625 C 217.139 93.729, 232.596 100.937, 244.568 105.058 C 254.988 108.644, 263 112.335, 263 113.548 C 263 114.230, 259.519 121.483, 258.943 122 C 256.372 124.309, 254.648 138.929, 256.231 145 C 256.749 146.985, 258.898 150.156, 261.197 152.326 C 265.054 155.965, 265.221 156.369, 264.638 160.627 C 264.248 163.469, 264.385 164.880, 265.012 164.493 C 265.555 164.157, 266 162.757, 266 161.382 C 266 159.970, 266.435 159.151, 267 159.500 C 267.550 159.840, 268 161.305, 268 162.755 C 268 164.206, 269.097 166.992, 270.437 168.946 C 271.777 170.901, 273.161 173.680, 273.513 175.122 C 274.063 177.377, 273.770 177.841, 271.421 178.430 C 269.667 178.871, 268.416 178.673, 267.925 177.878 C 267.361 176.966, 266.237 177.345, 263.647 179.320 C 259.985 182.113, 258 182.704, 258 181 C 258 180.450, 257.325 180, 256.500 180 C 255.675 180, 255 180.450, 255 181 C 255 181.550, 253.642 182, 251.982 182 C 249.639 182, 240.707 185.646, 238.089 187.670 C 237.864 187.845, 238.367 188.778, 239.209 189.744 C 240.808 191.579, 240.576 194, 238.800 194 C 238.232 194, 238.002 193.100, 238.290 192 C 238.577 190.900, 238.389 190, 237.870 190 C 235.819 190, 227.986 198.728, 226.701 202.445 L 225.337 206.389 224.134 198.445 C 220.861 176.840, 217.762 166.449, 207.807 143.695 C 199.499 124.704, 198.651 120.107, 202.266 113.640 C 204.589 109.483, 204.660 109.010, 203.146 107.733 C 202.241 106.970, 199.207 106.270, 196.405 106.179 C 191.592 106.023, 191.164 106.219, 188.670 109.724 L 186.029 113.435 189.173 116.679 L 192.317 119.922 190.519 127.556 C 189.003 133.995, 188.807 138.031, 189.267 153.345 C 189.567 163.330, 190.751 178.250, 191.899 186.500 C 194.227 203.242, 198.562 245.086, 199.577 260.612 C 200.328 272.102, 201.094 271.095, 190.500 272.537 C 187.750 272.911, 179.425 274.617, 172 276.328 C 159.100 279.301, 157.659 279.428, 139.565 279.188 C 128.882 279.047, 120.108 278.504, 119.432 277.943 C 117.575 276.402, 116.821 279.621, 118.007 284.026 C 118.571 286.122, 119.222 291.811, 119.452 296.669 C 120.104 310.408, 120.985 314.922, 123.253 316.135 C 124.850 316.990, 125.136 317.909, 124.717 320.849 C 124.431 322.857, 123.880 325.288, 123.492 326.250 C 122.825 327.904, 125.883 328, 179.459 328 C 216.612 328, 236.798 327.643, 238.066 326.965 C 239.399 326.251, 240 326.251, 240 326.965 C 240 327.534, 241.125 328, 242.500 328 C 243.875 328, 245.007 327.438, 245.015 326.750 C 245.026 325.917, 245.354 326, 246 327 C 246.824 328.276, 246.972 328.283, 246.985 327.050 C 246.997 325.922, 247.267 325.867, 248.200 326.800 C 249.029 327.629, 254.128 328, 264.675 328 L 279.950 328 279.082 325.715 C 278.110 323.159, 279.381 320.796, 282.324 319.691 C 283.401 319.286, 283.985 318.289, 283.750 317.253 C 283.532 316.289, 283.960 314.262, 284.702 312.750 C 285.748 310.619, 286.759 310, 289.197 310 C 290.927 310, 293.159 309.261, 294.156 308.358 C 295.850 306.826, 296.476 306.938, 303.588 310.038 C 312.492 313.921, 313.620 313.614, 315.940 306.678 C 317.306 302.595, 317.656 302.220, 318.665 303.747 C 319.582 305.135, 319.646 304.679, 318.973 301.555 C 317.970 296.902, 318.475 295.699, 321.084 296.527 C 322.550 296.992, 323 296.649, 323 295.067 C 323 293.398, 323.626 293.003, 326.250 293.015 C 330.601 293.036, 331.290 293.612, 334.447 299.871 C 336.975 304.883, 339.184 315.487, 336.970 311.986 C 336.156 310.698, 336.029 310.712, 336.015 312.095 C 336.007 312.972, 335.100 314.505, 334 315.500 C 332.107 317.213, 331.899 317.218, 330.099 315.590 C 328.634 314.264, 328.021 314.158, 327.422 315.126 C 326.981 315.839, 327.157 316.552, 327.829 316.776 C 328.480 316.993, 328.758 317.582, 328.447 318.085 C 327.557 319.526, 326 319.153, 326 317.500 C 326 316.675, 325.295 316, 324.433 316 C 323.368 316, 323.052 316.588, 323.447 317.833 C 323.838 319.064, 323.528 319.667, 322.505 319.667 C 319.907 319.667, 311.441 324.064, 310.193 326.062 C 309.033 327.920, 310.910 327.960, 400.504 327.990 L 492 328.019 492 164.010 L 492 0 352.826 0 L 213.651 0 215.730 2.250 M 160 24.378 C 160 26.931, 159.557 28, 158.500 28 C 156.064 28, 156.599 33.606, 159.209 35.434 C 161.934 37.343, 162.424 36.847, 164.365 30.217 C 166.169 24.054, 165.649 20.859, 163.308 23.721 C 162.507 24.699, 162.105 24.988, 162.415 24.363 C 162.725 23.738, 162.308 22.671, 161.489 21.991 C 160.217 20.935, 160 21.283, 160 24.378 M 174.906 31.079 C 173.900 31.716, 174.354 31.978, 176.500 32 C 178.150 32.017, 180.175 32.467, 181 33 C 182.164 33.752, 181.870 33.973, 179.684 33.985 C 176.571 34.002, 173 35.584, 173 36.947 C 173 38.463, 180.917 39.314, 182.535 37.971 C 183.724 36.984, 184 37.075, 184 38.457 C 184 39.853, 184.584 40.034, 187.250 39.463 C 189.037 39.080, 190.646 38.636, 190.824 38.476 C 191.779 37.620, 187.635 31.953, 185.732 31.513 C 180.992 30.417, 176.252 30.227, 174.906 31.079 M 154 32.559 C 154 33.416, 154.450 33.840, 155 33.500 C 155.550 33.160, 156 32.459, 156 31.941 C 156 31.423, 155.550 31, 155 31 C 154.450 31, 154 31.702, 154 32.559 M 202.957 34.250 C 199.301 38.130, 198.885 39.586, 200.913 41.422 C 202.522 42.877, 202.950 42.908, 204.201 41.657 C 205.232 40.625, 206.137 40.497, 207.401 41.204 C 208.370 41.747, 210.099 41.946, 211.243 41.647 C 212.387 41.347, 214.219 41.582, 215.313 42.168 C 216.960 43.049, 217.198 42.959, 216.695 41.648 C 216.361 40.777, 216.518 39.798, 217.044 39.473 C 219.020 38.251, 217.936 35.019, 215.050 33.526 C 210.667 31.259, 205.483 31.570, 202.957 34.250 M 224.676 34.402 C 224.111 35.874, 224.758 37, 226.167 37 C 226.625 37, 227 36.100, 227 35 C 227 32.707, 225.477 32.315, 224.676 34.402 M 210.680 35.940 C 212.432 37.393, 217 38.909, 217 38.038 C 217 37.532, 216.524 36.824, 215.943 36.465 C 214.500 35.573, 209.655 35.090, 210.680 35.940 M 178.750 53.767 C 174.517 56.666, 173.245 61, 177.250 58.878 C 179.638 57.613, 183.997 53.009, 183.999 51.750 C 184.001 50.547, 182.749 51.028, 178.750 53.767 M 186 66.059 C 186 66.641, 186.450 66.840, 187 66.500 C 187.550 66.160, 188 65.684, 188 65.441 C 188 65.198, 187.550 65, 187 65 C 186.450 65, 186 65.477, 186 66.059 M 189 66.141 C 189 67.127, 195.142 67.607, 198.500 66.883 C 200.150 66.528, 201.275 66.132, 201 66.005 C 199.787 65.443, 189 65.565, 189 66.141 M 197.752 71.250 C 197.373 72.213, 196.175 73, 195.090 73 C 194.006 73, 192.823 73.478, 192.462 74.062 C 192.027 74.765, 193.250 75.019, 196.075 74.812 C 198.607 74.627, 200.531 73.935, 200.802 73.111 C 201.063 72.318, 200.807 72.001, 200.205 72.373 C 199.626 72.731, 198.992 72.231, 198.796 71.262 C 198.459 69.589, 198.406 69.588, 197.752 71.250 M 212.029 72.961 C 211.220 73.473, 210.818 74.152, 211.136 74.470 C 211.455 74.788, 212.284 74.362, 212.980 73.524 C 214.423 71.786, 214.146 71.622, 212.029 72.961 M 209.625 80.798 C 209.354 81.237, 209.545 82.249, 210.051 83.048 C 210.768 84.182, 210.973 84.007, 210.985 82.250 C 211 79.937, 210.492 79.394, 209.625 80.798 M 209.782 89.175 C 208.536 92.092, 208.442 92.878, 209.436 92.053 C 210.717 90.990, 212.459 86.126, 211.797 85.463 C 211.631 85.298, 210.724 86.968, 209.782 89.175 M 191.710 90 C 192.120 91.567, 193.074 92, 196.117 92 C 199.482 92, 199.998 91.700, 199.985 89.750 C 199.972 87.931, 199.784 87.787, 199 89 C 198.354 90, 198.026 90.083, 198.015 89.250 C 198.006 88.498, 196.644 88, 194.594 88 C 191.680 88, 191.263 88.289, 191.710 90 M 383.635 115.113 C 382.357 116.606, 382.138 117.538, 382.889 118.289 C 384.130 119.530, 388 116.543, 388 114.345 C 388 112.320, 385.677 112.729, 383.635 115.113 M 298.714 117.557 C 293.882 118.883, 288.981 120.475, 287.824 121.094 C 286.569 121.766, 283.819 121.968, 281.013 121.596 C 277.137 121.082, 275.832 121.344, 273.625 123.081 C 271.154 125.024, 270.947 125.750, 270.986 132.345 C 271.054 143.788, 270.515 155.417, 269.867 156.500 C 267.933 159.733, 271.774 169.876, 274.333 168.294 C 274.887 167.952, 274.989 168.209, 274.568 168.889 C 274.161 169.549, 274.560 171.206, 275.455 172.572 C 276.351 173.939, 276.848 175.436, 276.561 175.901 C 276.274 176.365, 277.398 178.167, 279.059 179.904 C 280.720 181.642, 281.809 183.500, 281.480 184.032 C 281.151 184.564, 281.328 185, 281.874 185 C 282.419 185, 283.116 185.792, 283.423 186.759 C 283.731 187.726, 284.837 188.964, 285.882 189.509 C 286.927 190.054, 289.803 191.749, 292.273 193.276 C 297.764 196.670, 305.198 197.611, 310.927 195.637 C 315.541 194.048, 316.413 194.977, 312.250 197.046 L 309.500 198.412 312.334 198.781 C 313.893 198.983, 315.756 198.924, 316.475 198.648 C 317.924 198.092, 321 192.449, 321 190.346 C 321 189.606, 321.428 189, 321.952 189 C 322.476 189, 324.276 187.006, 325.952 184.570 C 328.851 180.356, 329 179.651, 329 170.129 C 329 164.534, 329.441 159.845, 330 159.500 C 331.281 158.708, 331.271 152.959, 329.985 151 C 329.109 149.667, 328.891 149.667, 328.015 151 C 327.302 152.086, 327.026 151.061, 327.015 147.288 C 327.007 144.421, 326.110 139.695, 325.021 136.787 C 323.933 133.878, 322.585 129.024, 322.026 125.999 C 321.273 121.927, 320.226 119.786, 317.989 117.750 C 314.213 114.312, 310.669 114.277, 298.714 117.557 M 314.813 134.683 C 315.534 134.972, 316.397 134.936, 316.729 134.604 C 317.061 134.272, 316.471 134.036, 315.417 134.079 C 314.252 134.127, 314.015 134.364, 314.813 134.683 M 304.880 136.644 C 303.659 138.116, 303.777 138.209, 306.008 137.532 C 309.519 136.466, 310.859 135, 308.322 135 C 307.180 135, 305.631 135.740, 304.880 136.644 M 278.250 137.249 C 276.462 137.821, 275 138.727, 275 139.261 C 275 139.820, 275.956 139.921, 277.250 139.498 C 278.488 139.094, 280.962 138.816, 282.750 138.881 C 284.538 138.946, 286 138.549, 286 137.999 C 286 137.450, 285.587 137, 285.082 137 C 284.577 137, 283.564 136.822, 282.832 136.604 C 282.099 136.386, 280.038 136.676, 278.250 137.249 M 304.750 142.728 C 302.688 142.944, 301 143.535, 301 144.041 C 301 145.806, 306.006 146.225, 309.258 144.732 C 311.041 143.913, 313.175 142.999, 314 142.700 C 315.656 142.101, 310.598 142.117, 304.750 142.728 M 285 143.957 C 284.175 144.418, 282.375 145.261, 281 145.830 C 278.593 146.826, 278.630 146.867, 282 146.921 C 287.145 147.005, 293 145.876, 293 144.802 C 293 144.287, 292.138 144.139, 291.084 144.473 C 290.030 144.808, 288.879 144.613, 288.525 144.041 C 287.774 142.825, 287.054 142.807, 285 143.957 M 293 154.059 C 293 154.641, 293.450 154.840, 294 154.500 C 294.550 154.160, 295 153.684, 295 153.441 C 295 153.198, 294.550 153, 294 153 C 293.450 153, 293 153.477, 293 154.059 M 309.383 156.482 C 311.797 158.558, 312 159.063, 310.633 159.587 C 309.735 159.932, 309 160.787, 309 161.488 C 309 163.181, 301.485 165, 294.490 165 C 289.141 165, 288.895 164.890, 289.480 162.750 C 289.980 160.924, 289.901 160.808, 289.062 162.136 C 287.717 164.265, 282.331 165.242, 278.308 164.088 C 275.736 163.351, 275.234 163.446, 275.672 164.589 C 275.970 165.365, 276.953 166.046, 277.857 166.101 C 284.736 166.526, 287.142 167.142, 288.939 168.939 C 291.173 171.173, 295.117 171.476, 303 170.021 C 306.792 169.321, 306.280 169.235, 299.750 169.475 C 291.718 169.770, 289.327 168.592, 295.577 167.420 C 302.004 166.214, 308.523 166.384, 308.250 167.750 C 308.113 168.438, 308.337 168.986, 308.750 168.968 C 310.040 168.913, 313 166.329, 313 165.256 C 313 164.694, 313.900 163.998, 315 163.710 C 317.029 163.180, 317.834 161, 316 161 C 315.450 161, 315 160.356, 315 159.568 C 315 157.958, 309.913 153.999, 307.846 154.001 C 307.106 154.002, 307.797 155.118, 309.383 156.482 M 291.567 159.130 C 293.013 161.926, 295 163.008, 295 161 C 295 160.450, 295.960 160, 297.134 160 C 300.220 160, 307 157.830, 307 156.842 C 307 155.670, 304.552 155.791, 301.666 157.106 C 299.982 157.874, 297.835 157.913, 294.660 157.236 L 290.083 156.260 291.567 159.130 M 372 172 C 372 172.550, 372.477 173, 373.059 173 C 373.641 173, 373.840 172.550, 373.500 172 C 373.160 171.450, 372.684 171, 372.441 171 C 372.198 171, 372 171.450, 372 172 M 376 176 C 375.175 176.533, 374.950 176.983, 375.500 177 C 376.050 177.017, 375.922 177.397, 375.216 177.845 C 374.420 178.350, 374.213 179.389, 374.670 180.580 C 375.339 182.321, 375.463 182.267, 375.998 180.003 C 376.323 178.629, 377.244 177.461, 378.044 177.405 C 381.099 177.194, 381.454 176.939, 380 176 C 379.175 175.467, 378.275 175.031, 378 175.031 C 377.725 175.031, 376.825 175.467, 376 176 M 370.169 177.296 C 368.929 178.791, 369.011 183, 370.280 183 C 370.750 183, 370.833 184.012, 370.464 185.250 C 369.806 187.455, 369.823 187.460, 371.314 185.503 C 372.392 184.088, 372.532 183.141, 371.795 182.253 C 371.032 181.334, 371.203 181, 372.437 181 C 373.361 181, 373.835 180.543, 373.490 179.984 C 373.144 179.425, 372.443 179.226, 371.931 179.543 C 371.419 179.859, 371 179.454, 371 178.642 C 371 177.831, 371.563 176.940, 372.250 176.662 C 373.035 176.345, 373.081 176.129, 372.372 176.079 C 371.752 176.036, 370.761 176.583, 370.169 177.296 M 291.793 184.861 C 295.110 187.796, 301.946 188.597, 305.961 186.520 C 310.020 184.421, 309.481 183.752, 304.778 185.051 C 301.397 185.984, 297.112 185.494, 291.500 183.532 C 289.715 182.908, 289.746 183.051, 291.793 184.861 M 242.010 192.488 C 241.009 193.694, 241.083 194.095, 242.400 194.600 C 244.048 195.232, 247 193.485, 247 191.878 C 247 190.436, 243.341 190.884, 242.010 192.488 M 293.500 197 C 293.840 197.550, 295.104 197.968, 296.309 197.930 C 298.421 197.862, 298.428 197.829, 296.500 197 C 293.748 195.817, 292.769 195.817, 293.500 197 M 262.770 201.663 C 262.520 202.123, 262.607 203.625, 262.964 205 L 263.613 207.500 264.274 205.017 C 264.909 202.629, 263.706 199.943, 262.770 201.663 M 271.079 202.583 C 271.127 203.748, 271.364 203.985, 271.683 203.188 C 271.972 202.466, 271.936 201.603, 271.604 201.271 C 271.272 200.939, 271.036 201.529, 271.079 202.583 M 271.500 206 C 271.160 206.550, 271.359 207, 271.941 207 C 272.523 207, 273 206.550, 273 206 C 273 205.450, 272.802 205, 272.559 205 C 272.316 205, 271.840 205.450, 271.500 206 M 347.001 208.498 C 345.504 211.296, 346.595 213.475, 348.125 210.742 C 348.661 209.784, 349.738 209, 350.518 209 C 351.369 209, 351.707 208.399, 351.362 207.500 C 350.494 205.239, 348.501 205.695, 347.001 208.498 M 271.878 208.904 C 272.636 209.384, 273.021 210.164, 272.733 210.638 C 272.445 211.112, 272.838 212.080, 273.605 212.789 C 275.258 214.318, 275.322 213.978, 274.025 210.565 C 273.488 209.154, 272.476 208.007, 271.775 208.015 C 270.818 208.027, 270.844 208.249, 271.878 208.904 M 357.750 208.783 C 355.787 209.033, 355 209.703, 355 211.125 C 355 212.221, 355.418 212.860, 355.929 212.544 C 356.439 212.229, 357.002 212.922, 357.179 214.085 C 357.473 216.022, 357.697 215.932, 359.852 213.002 C 362.464 209.451, 361.871 208.259, 357.750 208.783 M 264.560 209.904 C 264.128 210.602, 264.268 211.668, 264.870 212.270 C 266.346 213.746, 266.906 212.934, 266.047 210.566 C 265.528 209.138, 265.140 208.965, 264.560 209.904 M 342 212 C 342 212.550, 342.702 213, 343.559 213 C 344.416 213, 344.840 212.550, 344.500 212 C 344.160 211.450, 343.459 211, 342.941 211 C 342.423 211, 342 211.450, 342 212 M 348.157 212.591 C 346.397 213.832, 345.940 214.898, 346.323 216.872 C 346.636 218.487, 346.219 220.183, 345.242 221.271 C 343.763 222.918, 343.874 223.126, 346.826 224.240 C 348.755 224.968, 350 226.137, 350 227.219 C 350 228.199, 350.675 229, 351.500 229 C 352.325 229, 353 229.352, 353 229.782 C 353 230.212, 354.125 230.657, 355.500 230.771 C 358.483 231.018, 358.839 229.401, 356 228.500 C 354.900 228.151, 354 227.446, 354 226.933 C 354 226.420, 353.325 226, 352.500 226 C 351.675 226, 351 225.602, 351 225.117 C 351 224.631, 350.100 223.998, 349 223.710 C 346.953 223.175, 346.147 220, 348.059 220 C 348.641 220, 348.869 220.403, 348.565 220.895 C 347.993 221.820, 350.179 223, 352.465 223 C 354.086 223, 355.265 219.012, 353.656 218.970 C 353.020 218.953, 353.288 218.481, 354.250 217.920 C 356.196 216.787, 356.600 215, 354.910 215 C 354.311 215, 353.073 214.086, 352.160 212.969 C 350.593 211.052, 350.369 211.031, 348.157 212.591 M 348.607 215.582 C 347.523 218.407, 347.916 219.115, 349.963 218.020 C 351.116 217.402, 351.691 216.357, 351.356 215.485 C 350.613 213.549, 349.370 213.593, 348.607 215.582 M 263 216 C 263 216.550, 263.450 217, 264 217 C 264.550 217, 265 216.550, 265 216 C 265 215.450, 264.550 215, 264 215 C 263.450 215, 263 215.450, 263 216 M 273.559 216.532 C 272.491 217.339, 272.117 218, 272.727 218 C 274.624 218, 277 216.828, 277 215.893 C 277 214.616, 275.796 214.840, 273.559 216.532 M 359.952 218.051 C 359.114 218.581, 358.989 218.976, 359.656 218.985 C 360.318 218.993, 360.589 219.855, 360.290 221 C 360.002 222.100, 360.217 223, 360.767 223 C 361.915 223, 363.069 218.161, 362.068 217.542 C 361.703 217.317, 360.751 217.545, 359.952 218.051 M 267 219.094 C 267 219.592, 267.900 220, 269 220 C 270.100 220, 271 219.827, 271 219.617 C 271 219.406, 270.100 218.998, 269 218.710 C 267.900 218.423, 267 218.595, 267 219.094 M 270 222 C 270 222.550, 270.450 223, 271 223 C 271.550 223, 272 222.550, 272 222 C 272 221.450, 271.550 221, 271 221 C 270.450 221, 270 221.450, 270 222 M 356.257 222.960 C 355.583 224.039, 355.283 225.573, 355.589 226.370 C 356.149 227.830, 360.810 229.523, 361.732 228.601 C 362.134 228.199, 358.276 221, 357.659 221 C 357.561 221, 356.930 221.882, 356.257 222.960 M 338 225.500 C 338 226.325, 338.436 227, 338.969 227 C 339.501 227, 339.678 226.325, 339.362 225.500 C 339.045 224.675, 338.609 224, 338.393 224 C 338.177 224, 338 224.675, 338 225.500 M 363.667 224.667 C 362.735 225.599, 362.835 227, 363.833 227 C 364.292 227, 364.667 226.325, 364.667 225.500 C 364.667 223.801, 364.594 223.740, 363.667 224.667 M 277.575 227.871 C 279.795 230.029, 280.308 229.965, 279.417 227.643 C 279.070 226.739, 278.080 226, 277.218 226 C 275.921 226, 275.983 226.324, 277.575 227.871 M 359 232.607 C 359 233.599, 358.446 234.001, 357.551 233.658 C 356.582 233.286, 356.286 233.582, 356.658 234.551 C 357.427 236.555, 358.736 236.363, 359.965 234.066 C 361.259 231.647, 361.267 231, 360 231 C 359.450 231, 359 231.723, 359 232.607 M 278.035 235.934 C 276.499 238.806, 276.759 243.970, 278.474 244.629 C 279.285 244.940, 280.727 244.416, 281.678 243.465 C 283.316 241.826, 283.285 241.775, 281.074 242.477 C 278.941 243.154, 278.783 242.972, 279.229 240.358 C 279.498 238.786, 280.054 236.713, 280.466 235.750 C 281.500 233.331, 279.341 233.495, 278.035 235.934 M 331.529 237.355 C 330.414 238.170, 329.922 239.354, 330.294 240.323 C 330.634 241.210, 330.482 242.202, 329.956 242.527 C 327.272 244.186, 329.972 257.380, 332.866 256.742 C 333.765 256.543, 334.372 255.798, 334.215 255.085 C 334.058 254.373, 334.383 253.244, 334.936 252.577 C 335.630 251.741, 335.467 250.684, 334.415 249.182 C 333.574 247.982, 333.336 247, 333.884 247 C 334.433 247, 335.160 247.450, 335.500 248 C 336.435 249.513, 337.788 249.212, 340 247 C 342.608 244.392, 342.518 243.748, 339.337 242.271 C 337.082 241.224, 336.483 241.298, 335.290 242.771 C 334.016 244.343, 333.981 244.311, 334.893 242.412 C 335.906 240.305, 335.356 236, 334.074 236 C 333.694 236, 332.548 236.610, 331.529 237.355 M 331 246.918 C 331 247.973, 330.750 249.489, 330.443 250.287 C 330.091 251.205, 330.678 251.944, 332.042 252.301 C 333.888 252.784, 334.099 252.551, 333.513 250.682 C 333.136 249.482, 332.838 247.713, 332.852 246.750 C 332.865 245.787, 332.454 245, 331.938 245 C 331.422 245, 331 245.863, 331 246.918 M 274 248.441 C 274 249.784, 274.450 251.160, 275 251.500 C 276.776 252.598, 276.070 253.780, 273 254.850 C 269.349 256.123, 269.147 258.395, 272.492 260.587 C 275.320 262.440, 278.506 261.761, 277.635 259.492 C 277.320 258.671, 277.499 258, 278.031 258 C 278.564 258, 279 258.648, 279 259.441 C 279 261.454, 280.953 262.447, 282.287 261.113 C 283.104 260.296, 282.926 260, 281.617 260 C 279.062 260, 280.190 257.663, 283.074 256.982 C 284.408 256.668, 285.500 255.755, 285.500 254.955 C 285.500 254.155, 285.772 253.275, 286.105 253 C 286.437 252.725, 286.208 251.032, 285.595 249.237 C 284.513 246.068, 284.415 246.021, 282.173 247.591 C 280.844 248.522, 280.101 249.821, 280.421 250.656 C 280.731 251.464, 280.540 251.834, 279.989 251.493 C 279.445 251.157, 278.993 251.471, 278.985 252.191 C 278.974 253.144, 278.713 253.095, 278.026 252.008 C 277.450 251.096, 277.442 250.158, 278.007 249.593 C 278.572 249.028, 278.264 248.163, 277.215 247.367 C 274.712 245.465, 274 245.703, 274 248.441 M 281.813 249.683 C 282.534 249.972, 283.397 249.936, 283.729 249.604 C 284.061 249.272, 283.471 249.036, 282.417 249.079 C 281.252 249.127, 281.015 249.364, 281.813 249.683 M 279.806 253.144 C 278.093 253.771, 277.310 254.645, 277.656 255.546 C 278.311 257.253, 281.437 255.909, 282.351 253.528 C 282.673 252.688, 282.839 252.036, 282.719 252.079 C 282.598 252.122, 281.288 252.601, 279.806 253.144 M 329.035 258.191 C 329.016 259.121, 329.441 260.154, 329.980 260.487 C 331.953 261.707, 328.626 265, 325.420 265 C 323.069 265, 322.041 265.615, 321.160 267.548 C 319.595 270.984, 316.514 289.847, 317.377 290.710 C 317.755 291.088, 320.107 290.851, 322.605 290.183 C 326.665 289.097, 327.402 289.171, 329.583 290.886 C 330.923 291.941, 335.398 293.555, 339.526 294.474 C 346.144 295.946, 347.640 296.727, 352.172 301.072 C 354.999 303.782, 357.665 306, 358.097 306 C 359.795 306, 359.921 304.026, 358.483 299.950 C 357.655 297.606, 357.145 295.522, 357.348 295.319 C 357.551 295.115, 359.406 297.010, 361.471 299.529 C 363.535 302.049, 365.458 303.876, 365.743 303.590 C 366.029 303.304, 367.036 303.484, 367.982 303.990 C 369.380 304.739, 369.668 304.499, 369.526 302.705 C 369.234 299.024, 367.794 293.991, 366.871 293.420 C 365.656 292.670, 365.781 291, 367.051 291 C 367.629 291, 368.747 292.462, 369.534 294.250 C 372.158 300.203, 374.950 302.508, 376.499 300.001 C 377.238 298.806, 374.326 286.926, 372.959 285.559 C 372.432 285.032, 372 283.978, 372 283.218 C 372 282.459, 373.765 283.674, 375.922 285.918 C 379.644 289.792, 381.916 291.291, 380.436 288.896 C 380.061 288.289, 380.892 288.539, 382.284 289.450 L 384.814 291.108 384.006 287.526 C 383.561 285.555, 382.615 283.169, 381.903 282.222 C 378.355 277.505, 373.106 272.627, 369.670 270.854 L 365.840 268.878 368.420 266.487 C 372.910 262.326, 371.404 259.755, 365.738 261.909 C 361.557 263.499, 351.880 264.145, 350.419 262.933 C 349.081 261.822, 346.240 262.009, 336.731 263.834 C 332.272 264.689, 330.215 264.079, 331.353 262.237 C 331.612 261.818, 331.205 260.356, 330.448 258.987 C 329.451 257.187, 329.061 256.967, 329.035 258.191 M 279.317 312.250 C 277.957 314.373, 276.198 320, 276.895 320 C 279.111 320, 282 316.573, 282 313.943 C 282 310.892, 280.709 310.077, 279.317 312.250 M 258.667 319.667 C 258.300 320.033, 258 320.798, 258 321.367 C 258 321.993, 258.466 321.934, 259.183 321.217 C 259.834 320.566, 260.134 319.801, 259.850 319.517 C 259.566 319.233, 259.033 319.300, 258.667 319.667 M 315.250 324.360 C 313.088 325.431, 312.190 327.007, 313.750 326.993 C 314.163 326.990, 315.850 326.093, 317.500 325 C 320.660 322.907, 319.087 322.460, 315.250 324.360 M 283.441 326.468 C 282.374 327.276, 282.026 327.951, 282.668 327.968 C 284.568 328.020, 287 326.855, 287 325.893 C 287 324.582, 285.645 324.801, 283.441 326.468" stroke="none" fill="#3467df" fill-rule="evenodd"/>
</svg>