<svg xmlns="http://www.w3.org/2000/svg" width="200" height="200" viewBox="0 0 200 200" version="1.1">
	<rect x="0" y="0" width="100%" height="100%" fill="#bfbfbf" />
	<path d="M -0 8.826 L -0 17.652 21.750 19.522 C 46.740 21.671, 46.322 22.221, 18.250 24.131 L -0 25.372 -0 112.686 L 0 200 54.333 200 L 108.665 200 107.936 194.628 C 107.107 188.515, 105.837 185.660, 102.225 181.786 C 100.116 179.523, 99.907 178.817, 100.970 177.536 C 101.837 176.491, 101.886 176, 101.122 176 C 100.505 176, 100 175.391, 100 174.646 C 100 173.901, 98.773 171.989, 97.273 170.396 C 94.116 167.044, 87.006 156.875, 87.002 155.708 C 87 154.855, 86.717 154.467, 81.902 148.716 C 78.604 144.778, 78.671 143.581, 82.189 143.530 C 84.697 143.494, 86.557 140.894, 85.691 138.636 C 85.345 137.736, 84.261 137.036, 83.281 137.079 C 82.234 137.125, 82.015 137.366, 82.750 137.662 C 84.685 138.443, 84.225 140, 82.059 140 C 79.118 140, 78.590 138.144, 81.194 136.957 C 82.462 136.379, 84.063 134.712, 84.750 133.252 C 85.855 130.908, 85.706 130.154, 83.464 126.767 C 82.069 124.658, 81.025 122.386, 81.144 121.717 C 81.263 121.048, 79.222 118.250, 76.609 115.500 C 70.356 108.922, 67.999 104.207, 68.004 98.290 C 68.007 93.827, 70.836 87, 72.682 87 C 74.314 87, 80.985 92.377, 81.546 94.146 C 81.881 95.200, 83.324 97.146, 84.752 98.471 L 87.350 100.880 88.520 98.623 C 90.432 94.938, 91.170 90.873, 91.121 84.286 C 91.095 80.868, 91.508 77.804, 92.037 77.477 C 92.567 77.150, 93 76.285, 93 75.554 C 93 74.824, 94.598 71.765, 96.550 68.757 C 99.324 64.483, 100.985 62.995, 104.148 61.951 C 106.714 61.104, 108.517 59.771, 109.073 58.308 C 109.556 57.038, 110.412 56, 110.975 56 C 111.539 56, 112 55.325, 112 54.500 C 112 53.675, 111.250 53, 110.333 53 C 109.417 53, 108.967 52.699, 109.335 52.332 C 109.702 51.964, 111.015 52.155, 112.252 52.755 C 113.488 53.354, 116.975 54.065, 120 54.333 C 123.025 54.601, 127.470 55.502, 129.877 56.337 C 132.915 57.389, 134.997 57.572, 136.679 56.932 C 142.034 54.896, 145.230 54.918, 149.260 57.019 C 151.467 58.169, 153.923 58.860, 154.720 58.554 C 155.577 58.225, 156.003 58.492, 155.764 59.209 C 155.542 59.875, 155.947 62.913, 156.664 65.960 C 157.382 69.007, 157.976 72.963, 157.984 74.750 C 157.997 77.456, 157.624 78.001, 155.750 78.007 C 151.018 78.020, 141.990 86.467, 142.015 90.856 C 142.032 93.797, 143.380 96.434, 144.964 96.625 C 145.534 96.694, 146.113 96.838, 146.250 96.946 C 146.387 97.054, 148.195 97.349, 150.266 97.601 C 153.737 98.023, 154.202 97.772, 156.194 94.395 C 158.342 90.754, 158.362 90.746, 159.295 93.115 C 161.024 97.508, 160.650 110.112, 158.635 115.335 C 157.263 118.891, 157.065 120.465, 157.885 121.285 C 159.477 122.877, 159.262 124.038, 157.500 123.362 C 156.675 123.045, 156 121.948, 156 120.924 C 156 119.680, 155.502 119.254, 154.500 119.638 C 153.675 119.955, 153 119.689, 153 119.048 C 153 118.407, 152.550 118.160, 152 118.500 C 151.450 118.840, 151 118.502, 151 117.750 C 151 116.998, 150.438 115.623, 149.750 114.695 C 148.614 113.162, 148.235 113.146, 145.599 114.523 C 143.008 115.876, 142.520 115.876, 141.021 114.519 C 138.629 112.354, 136.521 112.631, 133.306 115.530 L 130.500 118.061 134.227 117.807 C 136.863 117.628, 138.336 118.078, 139.262 119.343 C 140.508 121.048, 140.659 121.034, 142.440 119.066 C 144.788 116.472, 147.529 116.427, 149.688 118.949 C 150.606 120.021, 151.614 120.738, 151.928 120.543 C 152.369 120.270, 152.477 125.788, 152.072 127.872 C 152.033 128.077, 151.396 127.744, 150.658 127.131 C 149.920 126.519, 149.031 126.303, 148.682 126.651 C 148.334 127, 147.472 126.807, 146.768 126.222 C 144.758 124.554, 137.908 125.346, 133.290 127.781 C 130.974 129.001, 128.188 130, 127.099 130 C 126.009 130, 124.797 130.519, 124.406 131.153 C 123.883 131.999, 125.380 132.153, 130.029 131.731 C 133.982 131.373, 135.826 131.497, 134.932 132.063 C 134.145 132.561, 132.644 132.976, 131.597 132.985 C 129.743 133, 129.744 133.045, 131.642 134.750 C 132.713 135.713, 133.445 137.175, 133.269 138 C 132.783 140.275, 143.476 139.811, 148.142 137.353 C 149.473 136.653, 146.350 145.078, 144.659 146.751 C 142.977 148.416, 142.924 148.416, 143.553 146.750 C 144.354 144.628, 143.226 144.486, 141.070 146.437 C 139.465 147.889, 137.178 148.485, 129 149.581 C 125.226 150.087, 123.183 149.605, 116.338 146.592 C 111.849 144.617, 107.627 143, 106.956 143 C 106.285 143, 104.197 142.049, 102.315 140.886 C 100.434 139.723, 98.653 139.014, 98.358 139.309 C 97.494 140.173, 104.336 150, 105.801 150 C 106.902 150, 109.075 151.368, 114.998 155.791 C 115.273 155.996, 114.702 156.745, 113.731 157.455 C 112.676 158.226, 112.216 159.400, 112.590 160.373 C 112.981 161.393, 112.697 162, 111.830 162 C 109.849 162, 105.440 167.331, 105.814 169.274 C 106.073 170.615, 107.319 170.876, 112.737 170.723 C 117.224 170.597, 119.477 170.932, 119.756 171.768 C 120.301 173.403, 123.284 173.326, 127.490 171.569 L 130.916 170.137 132.650 174.069 C 133.604 176.231, 134.727 178, 135.145 178 C 135.562 178, 135.727 179.688, 135.510 181.750 C 135.293 183.813, 135.089 185.768, 135.058 186.094 C 135.026 186.421, 133.876 187.996, 132.501 189.594 C 129.920 192.596, 129.252 195, 131 195 C 131.550 195, 132 196.131, 132 197.513 L 132 200.026 166.250 199.763 L 200.500 199.500 200.690 99.750 L 200.879 0 100.440 0 L 0 0 -0 8.826 M 0.355 9.500 C 0.352 14.450, 0.521 16.601, 0.731 14.280 C 0.940 11.959, 0.943 7.909, 0.736 5.280 C 0.530 2.651, 0.358 4.550, 0.355 9.500 M 110.765 16.970 C 109.346 18.087, 107.236 19, 106.077 19 C 102.935 19, 96 21.350, 96 22.415 C 96 22.925, 95.246 24.176, 94.324 25.195 C 92.986 26.673, 92.899 27.295, 93.895 28.274 C 94.883 29.245, 95.076 29.188, 94.821 28 C 94.583 26.886, 95.594 26.421, 98.750 26.193 C 101.088 26.023, 103 25.434, 103 24.883 C 103 24.333, 103.478 24.178, 104.063 24.539 C 104.648 24.900, 105.885 24.520, 106.813 23.694 C 108.415 22.268, 112.760 22.116, 114.857 23.412 C 115.392 23.742, 116.057 23.447, 116.336 22.756 C 116.655 21.963, 116.871 22.113, 116.921 23.162 C 117.002 24.856, 118.517 25.058, 120.739 23.670 C 121.614 23.123, 121.795 23.424, 121.355 24.698 C 121.012 25.689, 121.964 24.925, 123.469 23 C 125.530 20.363, 126.040 20.055, 125.535 21.750 C 124.779 24.291, 126.694 24.857, 128.922 22.750 C 130.017 21.715, 130.029 21.931, 128.993 24 C 127.798 26.386, 127.891 26.363, 131.025 23.500 C 133.296 21.425, 134.110 21.056, 133.666 22.302 C 133.248 23.473, 133.406 23.867, 134.119 23.427 C 134.843 22.979, 134.995 23.441, 134.566 24.791 C 133.718 27.465, 135.414 28.444, 137.419 26.438 C 139.608 24.249, 139.395 23, 136.833 23 C 135.642 23, 134.945 22.721, 135.286 22.381 C 135.626 22.040, 135.270 21.127, 134.495 20.352 C 133.719 19.577, 133.367 18.168, 133.712 17.221 C 134.298 15.612, 134.209 15.614, 132.341 17.250 C 130.088 19.223, 126.359 19.578, 125.791 17.873 C 125.303 16.408, 116.123 14.992, 115.339 16.260 C 114.986 16.832, 114.469 16.758, 114.048 16.077 C 113.560 15.288, 112.557 15.561, 110.765 16.970 M 139.656 22.056 C 140.301 22.701, 140.431 24.644, 139.990 27.056 C 139.258 31.060, 140.331 32.666, 141.290 29 C 141.877 26.755, 144 26.255, 144 28.361 C 144 29.284, 144.828 29.564, 146.572 29.231 C 147.987 28.961, 150.241 29.326, 151.583 30.044 L 154.021 31.349 151.760 33.894 C 150.517 35.294, 150.216 35.894, 151.092 35.228 C 151.968 34.562, 152.980 34.313, 153.342 34.675 C 153.704 35.037, 154 34.822, 154 34.198 C 154 33.574, 154.694 33.329, 155.543 33.655 C 156.934 34.189, 156.934 34.415, 155.543 35.952 C 153.358 38.367, 153.623 39.651, 155.885 37.604 C 157.686 35.975, 157.819 36.041, 158.885 39.099 C 160.351 43.305, 160.298 45.996, 158.750 46.015 C 157.915 46.026, 157.995 46.343, 158.990 46.973 C 159.982 47.600, 161.167 47.465, 162.533 46.570 C 164.110 45.537, 166.430 45.418, 172.543 46.059 C 182.647 47.117, 193.152 47.191, 194.687 46.214 C 197.900 44.171, 198.199 36.477, 195.139 34.586 C 194.597 34.251, 186.132 33.300, 176.327 32.473 C 166.522 31.646, 158.352 30.532, 158.171 29.998 C 157.387 27.681, 154.280 25.033, 151.601 24.397 C 149.541 23.908, 148.907 24.040, 149.410 24.854 C 149.892 25.635, 148.964 26, 146.500 26 C 144.343 26, 143.131 25.596, 143.500 25 C 143.840 24.450, 143.641 24, 143.059 24 C 142.477 24, 142 23.325, 142 22.500 C 142 21.675, 141.235 21, 140.300 21 C 139.107 21, 138.915 21.315, 139.656 22.056 M 88 24.947 C 86.061 25.437, 85.428 26.324, 85.179 28.896 C 84.946 31.297, 85.223 32.094, 86.179 31.779 C 86.905 31.539, 87.636 30.424, 87.803 29.301 C 87.969 28.178, 89.067 26.830, 90.242 26.305 C 92.949 25.097, 91.317 24.108, 88 24.947 M 0.479 112.500 C 0.478 160.900, 0.600 180.846, 0.750 156.825 C 0.899 132.804, 0.899 93.204, 0.750 68.825 C 0.601 44.446, 0.479 64.100, 0.479 112.500 M 89.507 27.989 C 89.157 28.555, 89.558 28.723, 90.448 28.382 C 92.180 27.717, 92.497 27, 91.059 27 C 90.541 27, 89.843 27.445, 89.507 27.989 M 67.651 80.468 C 67.341 81.275, 67.518 82.202, 68.044 82.527 C 68.570 82.852, 69 82.191, 69 81.059 C 69 78.644, 68.444 78.401, 67.651 80.468 M 111.276 80.326 C 109.502 80.972, 107.035 82.518, 105.792 83.761 L 103.533 86.022 107.478 84.011 C 111.614 81.902, 118 81.289, 118 83 C 118 83.550, 117.392 84, 116.649 84 C 114.875 84, 105.695 88.891, 104.816 90.305 C 103.804 91.932, 104.646 92.788, 109.821 95.396 C 117.458 99.244, 120.564 99.548, 124.604 96.841 C 126.680 95.450, 128.332 93.384, 128.674 91.750 C 128.991 90.237, 129.547 89, 129.909 89 C 130.271 89, 130.553 87.551, 130.534 85.779 C 130.504 82.895, 130.030 82.378, 126 80.834 C 120.784 78.834, 115.841 78.664, 111.276 80.326 M 157.166 80.876 C 156.092 81.557, 156.141 81.840, 157.416 82.329 C 158.418 82.714, 159 82.398, 159 81.469 C 159 79.769, 158.942 79.750, 157.166 80.876 M 70.667 91.667 C 70.300 92.033, 70.045 94.396, 70.100 96.917 L 70.201 101.500 71.122 97.500 C 71.629 95.300, 72.795 92.938, 73.713 92.250 C 75.233 91.112, 75.201 91, 73.358 91 C 72.244 91, 71.033 91.300, 70.667 91.667 M 115 94 C 115 94.550, 115.477 95, 116.059 95 C 116.641 95, 116.840 94.550, 116.500 94 C 116.160 93.450, 115.684 93, 115.441 93 C 115.198 93, 115 93.450, 115 94 M 75.200 99.243 C 71.653 100.951, 72.696 104.639, 77.762 108.297 C 80.687 110.409, 82.348 111.052, 83.055 110.345 C 83.761 109.639, 83.601 108.913, 82.542 108.035 C 81.462 107.138, 81 107.098, 81 107.901 C 81 108.624, 80.060 108.430, 78.450 107.375 C 75.683 105.562, 75.363 101.500, 77.986 101.500 C 78.804 101.500, 79.624 100.713, 79.810 99.750 C 80.190 97.776, 78.608 97.602, 75.200 99.243 M 81.046 101.914 C 80.432 103.062, 80.347 104, 80.858 104 C 81.886 104, 83.304 100.971, 82.605 100.271 C 82.361 100.028, 81.660 100.767, 81.046 101.914 M 89.200 106.200 C 87.765 107.635, 87.600 111, 88.965 111 C 89.495 111, 90.437 110.052, 91.057 108.893 C 92.390 106.403, 91.005 104.395, 89.200 106.200 M 80.500 114 C 80.160 114.550, 80.584 115, 81.441 115 C 82.298 115, 83 114.550, 83 114 C 83 113.450, 82.577 113, 82.059 113 C 81.541 113, 80.840 113.450, 80.500 114 M 128.733 115.124 C 129.412 115.808, 130.219 116.115, 130.526 115.807 C 130.834 115.499, 130.279 114.940, 129.293 114.564 C 127.868 114.022, 127.753 114.136, 128.733 115.124 M 81.694 116.806 C 79.979 117.150, 79.984 117.252, 81.795 118.834 C 82.844 119.750, 83.577 121.336, 83.424 122.358 C 83.050 124.854, 83.852 126.729, 85.577 127.391 C 86.692 127.819, 87 126.840, 87 122.862 C 87 118.859, 86.696 117.903, 85.563 118.338 C 84.772 118.641, 83.985 118.339, 83.813 117.666 C 83.641 116.993, 82.687 116.606, 81.694 116.806 M 101.500 121 C 101.840 121.550, 102.316 122, 102.559 122 C 102.802 122, 103 121.550, 103 121 C 103 120.450, 102.523 120, 101.941 120 C 101.359 120, 101.160 120.450, 101.500 121 M 152.579 127.696 C 151.523 129.144, 151.255 129.961, 151.984 129.510 C 152.952 128.912, 153.072 129.069, 152.431 130.095 C 151.948 130.868, 151.515 131.950, 151.469 132.500 C 151.389 133.458, 150.942 134.738, 148.919 139.797 C 147.421 143.543, 147.790 144, 152.313 144 C 159.849 144, 164.950 136.180, 159.777 132.557 C 158.555 131.701, 156.699 131, 155.652 131 C 154.072 131, 153.852 130.492, 154.350 128 C 155.075 124.376, 155.009 124.365, 152.579 127.696 M 80 128.566 C 80 129.746, 82.105 133, 82.869 133 C 84.072 133, 83.856 129.606, 82.599 128.765 C 81.280 127.883, 80 127.785, 80 128.566 M 140 131 C 137.990 131.644, 137.892 131.806, 139.500 131.830 C 140.600 131.846, 142.400 131.473, 143.500 131 C 146.048 129.905, 143.419 129.905, 140 131 M 147.333 131.500 C 147.333 132.325, 147.708 133, 148.167 133 C 148.625 133, 149 132.325, 149 131.500 C 149 130.675, 148.625 130, 148.167 130 C 147.708 130, 147.333 130.675, 147.333 131.500 M 87.369 133.607 C 86.997 134.648, 86.534 135.798, 86.341 136.162 C 86.148 136.526, 86.780 136.700, 87.745 136.549 C 88.858 136.374, 89.374 135.583, 89.155 134.386 C 88.659 131.673, 88.142 131.448, 87.369 133.607 M 152 137.500 C 153.030 138.741, 152.922 139.014, 151.372 139.079 C 150.261 139.126, 150.021 139.367, 150.784 139.673 C 152.154 140.224, 155 138.337, 155 136.878 C 155 136.395, 154.045 136, 152.878 136 C 151.104 136, 150.960 136.247, 152 137.500 M 81.813 141.683 C 82.534 141.972, 83.397 141.936, 83.729 141.604 C 84.061 141.272, 83.471 141.036, 82.417 141.079 C 81.252 141.127, 81.015 141.364, 81.813 141.683 M 87.441 143.096 C 86.686 144.318, 89.598 147.736, 90.567 146.766 C 91.395 145.939, 90.092 142, 88.992 142 C 88.511 142, 87.813 142.493, 87.441 143.096 M 59 151 C 59 153.200, 59.178 155, 59.395 155 C 59.612 155, 59.962 153.200, 60.171 151 C 60.381 148.800, 60.203 147, 59.776 147 C 59.349 147, 59 148.800, 59 151 M 62.600 153.600 C 60.524 155.558, 59.090 157.424, 59.413 157.746 C 59.736 158.069, 61.650 156.683, 63.667 154.667 C 68.443 149.890, 67.516 148.963, 62.600 153.600 M 136.688 154.791 C 134.314 157.280, 134.127 157.835, 135.490 158.358 C 136.588 158.779, 136.880 158.581, 136.405 157.739 C 135.897 156.838, 136.085 156.852, 137.095 157.792 C 138.277 158.892, 138.262 159.223, 136.992 160.026 C 135.957 160.681, 135.890 160.974, 136.775 160.985 C 138.296 161.003, 140.212 156.407, 139.795 153.737 C 139.534 152.060, 139.178 152.180, 136.688 154.791 M 71.459 159.067 C 70.433 160.727, 71.354 160.957, 72.789 159.399 C 73.499 158.630, 73.638 158, 73.098 158 C 72.559 158, 71.821 158.480, 71.459 159.067 M 75.564 159.293 C 75.940 160.279, 76.499 160.834, 76.807 160.526 C 77.115 160.219, 76.808 159.412, 76.124 158.733 C 75.136 157.753, 75.022 157.868, 75.564 159.293 M 70 163.969 C 70 164.501, 70.675 164.678, 71.500 164.362 C 72.325 164.045, 73 163.609, 73 163.393 C 73 163.177, 72.325 163, 71.500 163 C 70.675 163, 70 163.436, 70 163.969 M 157.621 165.500 C 158.324 168.810, 160.022 171.310, 159.965 168.950 C 159.945 168.153, 159.266 166.375, 158.456 165 L 156.984 162.500 157.621 165.500 M 54.636 168.494 C 54.952 169.316, 55.620 169.735, 56.121 169.425 C 57.170 168.777, 56.328 167, 54.972 167 C 54.472 167, 54.321 167.672, 54.636 168.494 M 192 176.306 C 192 177.159, 192.706 178.563, 193.568 179.426 C 194.519 180.376, 194.887 181.780, 194.503 182.991 C 194.030 184.480, 194.242 184.844, 195.336 184.424 C 196.819 183.856, 198.608 177.275, 197.564 176.231 C 197.254 175.921, 197 176.642, 197 177.833 C 197 179.025, 196.550 180, 196 180 C 195.450 180, 195 179.380, 195 178.622 C 195 177.865, 194.325 176.685, 193.500 176 C 192.276 174.984, 192 175.041, 192 176.306 M 30.211 177.601 C 29.501 178.370, 29.362 179, 29.902 179 C 30.940 179, 32.443 177.098, 31.850 176.534 C 31.658 176.351, 30.920 176.831, 30.211 177.601 M 84 177.059 C 84 177.641, 84.450 177.840, 85 177.500 C 85.550 177.160, 86 176.684, 86 176.441 C 86 176.198, 85.550 176, 85 176 C 84.450 176, 84 176.477, 84 177.059 M 188.500 182 C 188.160 182.550, 188.359 183, 188.941 183 C 189.523 183, 190 182.550, 190 182 C 190 181.450, 189.802 181, 189.559 181 C 189.316 181, 188.840 181.450, 188.500 182 M 93.964 187.164 C 92.819 189.397, 92.846 189.424, 94.574 187.774 C 95.568 186.824, 96.107 185.773, 95.771 185.438 C 95.436 185.103, 94.623 185.880, 93.964 187.164 M 45 188 C 45 188.550, 45.477 189, 46.059 189 C 46.641 189, 46.840 188.550, 46.500 188 C 46.160 187.450, 45.684 187, 45.441 187 C 45.198 187, 45 187.450, 45 188 M 90 189.059 C 90 189.641, 90.450 189.840, 91 189.500 C 91.550 189.160, 92 188.684, 92 188.441 C 92 188.198, 91.550 188, 91 188 C 90.450 188, 90 188.477, 90 189.059 M 47 190 C 46.099 190.582, 45.975 190.975, 46.691 190.985 C 47.346 190.993, 48.160 190.550, 48.500 190 C 49.267 188.758, 48.921 188.758, 47 190 M 22.750 190.662 C 23.438 190.940, 24 191.831, 24 192.642 C 24 193.454, 24.472 193.826, 25.049 193.470 C 26.312 192.689, 24.362 189.958, 22.628 190.079 C 21.919 190.129, 21.965 190.345, 22.750 190.662 M 49.732 193.085 C 50.130 194.604, 50.493 194.821, 51.073 193.882 C 51.933 192.490, 51.397 191, 50.035 191 C 49.569 191, 49.433 191.938, 49.732 193.085" stroke="none" fill="#3467df" fill-rule="evenodd"/>
</svg>