<svg xmlns="http://www.w3.org/2000/svg" width="60" height="60" viewBox="0 0 60 60" version="1.1">
	<rect x="0" y="0" width="100%" height="100%" fill="#bfbfbf" />
	<path d="M 0 30 L 0 60 20.067 60 L 40.133 60 43.817 57.256 C 45.843 55.746, 47.831 54.059, 48.235 53.506 C 48.639 52.953, 48.976 53.539, 48.985 54.809 C 48.993 56.079, 49.391 56.876, 49.870 56.581 C 50.348 56.285, 50.408 54.233, 50.004 52.022 C 49.599 49.810, 49.665 48, 50.149 48 C 51.674 48, 54.992 54.377, 54.996 57.316 C 55 59.798, 55.327 60.095, 57.750 59.816 L 60.500 59.500 60.765 29.750 L 61.030 0 30.515 0 L 0 0 0 30 M 0.443 30.500 C 0.443 47, 0.580 53.890, 0.748 45.812 C 0.915 37.733, 0.916 24.233, 0.748 15.812 C 0.581 7.390, 0.444 14, 0.443 30.500 M 31.500 10 C 31.160 10.550, 30.121 11.001, 29.191 11.001 C 28.261 11.002, 26.285 12.239, 24.801 13.751 C 16.506 22.199, 16.025 23.741, 21.856 23.185 C 26.967 22.698, 30 26.228, 30 32.666 C 30 37.592, 32.331 39.635, 34.526 36.633 C 35.511 35.287, 35.871 35.221, 36.289 36.311 C 36.837 37.739, 35.746 40.234, 34.638 40.085 C 32.149 39.752, 31.052 40.259, 30.500 42 C 30.100 43.260, 28.987 44, 27.492 44 C 26.186 44, 24.840 44.450, 24.500 45 C 24.160 45.550, 24.493 46, 25.240 46 C 25.987 46, 27.227 47.688, 27.997 49.750 C 28.981 52.391, 29.509 52.968, 29.780 51.702 C 29.992 50.713, 29.680 49.319, 29.086 48.604 C 28.285 47.639, 28.506 46.852, 29.941 45.553 C 32.536 43.205, 39.999 44.280, 40.739 47.109 C 41.011 48.149, 41.555 49, 41.948 49 C 42.660 49, 43.164 48.054, 46.477 40.500 C 48.862 35.061, 49.553 28.149, 47.780 27.469 C 47.033 27.182, 46.349 25.988, 46.261 24.814 C 46.173 23.640, 45.515 22.309, 44.800 21.855 C 43.816 21.231, 43.903 21.027, 45.162 21.015 C 47.328 20.995, 46.978 19.051, 44.033 14.754 C 40.935 10.232, 33.175 7.289, 31.500 10 M 38.352 22.046 C 35.389 23.169, 34.749 24.547, 36.511 26.009 C 37.330 26.689, 38.014 26.852, 38.032 26.372 C 38.049 25.893, 38.690 26.327, 39.456 27.338 C 41.226 29.673, 44.500 29.121, 44.500 26.486 C 44.500 25.033, 43.715 24.411, 41.576 24.167 C 39.455 23.925, 39.035 23.597, 40.047 22.971 C 42.056 21.729, 40.882 21.088, 38.352 22.046 M 53.079 34.550 C 53.157 38.456, 53.169 38.468, 54.191 35.663 C 54.925 33.649, 54.902 32.502, 54.112 31.713 C 53.296 30.896, 53.021 31.650, 53.079 34.550 M 31.642 47 C 32.271 47.825, 33.006 49.400, 33.276 50.500 C 33.743 52.400, 33.774 52.393, 33.884 50.372 C 33.948 49.202, 33.212 47.627, 32.250 46.872 C 30.728 45.679, 30.649 45.695, 31.642 47" stroke="none" fill="#3467df" fill-rule="evenodd"/>
</svg>