<svg xmlns="http://www.w3.org/2000/svg" width="250" height="187" viewBox="0 0 250 187" version="1.1">
	<rect x="0" y="0" width="100%" height="100%" fill="#bfbfbf" />
	<path d="M 1 1 C 1 1.550, 1.450 2, 2 2 C 2.550 2, 3 1.550, 3 1 C 3 0.450, 2.550 0, 2 0 C 1.450 0, 1 0.450, 1 1 M 5.035 0.750 C 5.165 3.485, 12.015 10.652, 13.285 9.382 C 13.589 9.078, 14.340 9.767, 14.954 10.914 C 15.568 12.061, 16.677 13, 17.419 13 C 18.160 13, 19.002 13.900, 19.290 15 C 19.898 17.324, 22 17.712, 22 15.500 C 22 13.802, 23.566 13.489, 24.500 15 C 25.927 17.310, 27.057 15.820, 26.427 12.460 C 25.936 9.845, 26.203 8.434, 27.446 7.059 C 28.427 5.975, 28.725 4.948, 28.159 4.598 C 27.625 4.268, 27.423 3.098, 27.711 1.999 C 28.211 0.085, 27.739 -0, 16.617 -0 C 10.227 -0, 5.016 0.337, 5.035 0.750 M 99.557 2.223 C 98.701 3.445, 97.982 4.007, 97.961 3.473 C 97.901 1.977, 95 9.032, 95 10.674 C 95 11.522, 95.483 11.820, 96.170 11.395 C 96.971 10.900, 97.125 11.231, 96.659 12.447 C 96.152 13.767, 96.365 14.074, 97.489 13.643 C 99.287 12.953, 99.279 12.901, 97.952 16.707 C 97.376 18.361, 95.876 20.264, 94.619 20.936 C 93.362 21.609, 92.333 22.774, 92.333 23.526 C 92.333 24.563, 92.796 24.645, 94.252 23.865 C 96.758 22.524, 97.859 23.651, 95.633 25.279 C 94.687 25.971, 93.723 28.036, 93.491 29.868 C 93.259 31.701, 92.112 34.618, 90.941 36.350 C 89.771 38.083, 89.073 38.695, 89.390 37.712 C 90.448 34.430, 87.400 34.863, 83.421 38.560 C 81.264 40.563, 78.558 42.837, 77.407 43.613 C 76.105 44.491, 74.811 47.118, 73.986 50.559 C 73.256 53.603, 72.216 56.367, 71.675 56.701 C 71.126 57.040, 71.007 56.798, 71.405 56.155 C 71.797 55.520, 71.665 55, 71.112 55 C 70.559 55, 70.175 56.731, 70.259 58.847 C 70.374 61.733, 70.705 62.421, 71.581 61.602 C 72.224 61.002, 72.544 59.833, 72.293 59.005 C 71.934 57.820, 72.129 57.853, 73.213 59.161 C 74.639 60.881, 75.034 60.567, 80.500 53.356 C 81.115 52.545, 82.015 52.363, 82.839 52.883 C 83.885 53.543, 83.552 54.468, 81.314 57.114 C 75.967 63.437, 75.739 64.521, 80.880 59.180 C 84.100 55.834, 86 54.465, 86 55.489 C 86 56.423, 86.471 56.827, 87.104 56.436 C 87.711 56.061, 87.478 56.868, 86.585 58.229 C 85.693 59.591, 83.411 61.541, 81.513 62.563 C 79.616 63.585, 78.479 64.678, 78.988 64.993 C 79.536 65.331, 79.395 67.075, 78.642 69.264 C 77.117 73.699, 76 75.039, 76 72.431 C 76 70.951, 75.500 71.243, 73.750 73.747 C 72.513 75.517, 70.949 76.973, 70.276 76.983 C 68.972 77.001, 65.997 82.027, 66.004 84.200 C 66.006 84.915, 66.899 84.037, 67.989 82.250 C 70.436 78.237, 70.771 78.197, 70.215 81.987 C 69.914 84.040, 68.721 85.627, 66.405 87.059 C 61.988 89.789, 59 93.676, 59 96.694 C 59 100.608, 57.012 98.256, 56.884 94.191 C 56.820 92.161, 56.562 91.288, 56.311 92.250 C 56.039 93.289, 54.901 94, 53.508 94 C 52.219 94, 50.339 94.267, 49.332 94.593 C 47.945 95.042, 48.069 94.720, 49.843 93.269 C 52.174 91.361, 52.684 86.267, 50.500 86.697 C 48.916 87.010, 48.666 90.173, 50.152 91.115 C 51.124 91.731, 50.855 91.974, 49.187 91.985 C 47.359 91.997, 46.940 91.528, 47.187 89.750 C 47.373 88.415, 46.992 87.541, 46.250 87.600 C 45.563 87.655, 43.875 87.767, 42.500 87.850 C 39.545 88.027, 39.087 90, 42 90 C 43.100 90, 44 90.338, 44 90.750 C 43.999 91.162, 41.701 91.597, 38.892 91.716 C 34.258 91.911, 33.832 91.749, 34.299 89.966 C 35.047 87.105, 33.522 87.558, 32.132 90.609 C 31.320 92.392, 30.373 93.069, 29.143 92.748 C 26.981 92.182, 22.823 94.976, 24.750 95.698 C 25.438 95.956, 26 96.818, 26 97.615 C 26 98.411, 26.662 99.317, 27.471 99.627 C 28.736 100.113, 28.691 100.705, 27.149 103.846 C 26.163 105.856, 25.523 108.232, 25.728 109.126 C 25.932 110.021, 24.696 112.832, 22.980 115.374 C 19.609 120.370, 17.537 126, 19.070 126 C 20.259 126, 20.290 129.703, 19.107 130.434 C 17.892 131.185, 16.764 126.318, 17.567 123.790 C 17.971 122.517, 17.830 121.987, 17.193 122.381 C 16.631 122.728, 16.020 122.579, 15.835 122.049 C 15.651 121.519, 12.013 120.863, 7.750 120.592 L 0 120.100 0 130.050 C 0 139.719, 0.436 141.164, 2.678 138.922 C 3.270 138.330, 5.948 137.767, 8.628 137.672 C 11.307 137.578, 13.787 137.105, 14.138 136.622 C 15.092 135.310, 16.995 136.851, 16.384 138.440 C 15.428 140.932, 10.513 142.328, 7.978 140.826 C 6.208 139.778, 5.644 139.762, 5.286 140.750 C 5.037 141.437, 4.251 142, 3.539 142 C 2.046 142, -0.685 144.935, 0.628 145.129 C 10.732 146.622, 11.508 146.597, 11.366 144.777 C 11.257 143.389, 11.598 143.250, 13.116 144.062 C 16.344 145.790, 14.580 153, 10.929 153 C 9.613 153, 9.775 156.375, 11.158 157.758 C 11.952 158.552, 11.997 159.321, 11.301 160.208 C 10.743 160.918, 9.031 164.875, 7.495 169 C 5.960 173.125, 3.645 178.623, 2.352 181.217 C 1.058 183.811, 0 186.173, 0 186.467 C -0 187.306, 249.845 187.089, 250.191 186.250 C 250.361 185.838, 250.363 179.820, 250.195 172.878 L 249.889 160.255 246.445 158.400 C 244.550 157.380, 243 155.803, 243 154.895 C 243 152.697, 240.996 151.149, 237.155 150.381 C 235.420 150.034, 234 149.415, 234 149.006 C 234 148.129, 240.047 147.027, 244.941 147.011 C 248.182 147.001, 248.269 146.915, 246.441 145.532 C 243.902 143.611, 237.867 143.611, 233.269 145.532 C 231.253 146.375, 229.910 146.757, 230.286 146.381 C 230.662 146.005, 230.206 145.140, 229.274 144.458 C 227.833 143.405, 227.762 142.817, 228.802 140.535 C 229.475 139.058, 229.780 137.454, 229.481 136.969 C 228.160 134.832, 238.077 130.761, 241.500 132.035 C 243.342 132.721, 243.278 132.867, 240.685 133.890 C 239.137 134.500, 237.449 135, 236.935 135 C 236.421 135, 236 135.450, 236 136 C 236 137.271, 237.177 137.263, 240.575 135.972 C 242.705 135.162, 243.658 135.286, 245.060 136.555 C 246.712 138.049, 246.934 137.997, 248.129 135.833 L 249.417 133.500 250.110 136.500 C 250.492 138.150, 250.654 130.050, 250.470 118.500 C 250.287 106.950, 250.107 93.773, 250.069 89.219 C 250.013 82.523, 249.687 80.817, 248.368 80.311 C 247.470 79.966, 245.976 80.158, 245.048 80.738 C 243.217 81.882, 238.250 81.325, 236.261 79.752 C 233.793 77.802, 236.259 76.742, 241.895 77.331 C 244.985 77.654, 248.134 77.535, 248.892 77.067 C 250.426 76.119, 250.692 65.704, 250.250 23.750 L 250 0 231.366 -0 C 219.662 -0, 211.228 0.451, 208.687 1.212 C 205.518 2.161, 204.554 2.161, 204.237 1.212 C 203.978 0.435, 201.620 0.005, 197.667 0.015 C 193.316 0.026, 191.942 0.316, 193 1 C 194 1.646, 194.083 1.974, 193.250 1.985 C 192.563 1.993, 192 2.661, 192 3.469 C 192 4.428, 192.577 4.716, 193.664 4.299 C 194.783 3.869, 195.091 4.043, 194.605 4.830 C 193.526 6.577, 191.029 6.242, 190.275 4.250 C 189.910 3.287, 189.094 1.975, 188.461 1.333 C 186.910 -0.238, 106 -0.500, 106 1.066 C 106 1.645, 106.450 1.840, 107 1.500 C 108.384 0.645, 108.252 1.771, 106.750 3.637 C 103.445 7.743, 100.974 9.999, 99.795 9.985 C 98.889 9.974, 98.838 9.749, 99.624 9.235 C 100.878 8.415, 104.990 1.920, 104.996 0.750 C 105.005 -0.930, 101.007 0.153, 99.557 2.223 M 109.161 3.016 C 106.511 5.224, 101.030 12.983, 101.049 14.500 C 101.055 15.050, 101.525 14.703, 102.092 13.729 C 102.659 12.755, 103.576 12.238, 104.130 12.580 C 104.734 12.954, 104.410 13.911, 103.318 14.975 C 102.051 16.210, 101.121 16.446, 100.250 15.751 C 99.354 15.037, 99 15.215, 99 16.378 C 99 17.270, 99.436 18, 99.969 18 C 100.501 18, 100.683 18.662, 100.373 19.471 C 99.879 20.758, 100.183 20.756, 102.799 19.450 C 107.004 17.352, 108.630 15.230, 107.158 13.758 C 106.521 13.121, 106.007 12.128, 106.015 11.550 C 106.024 10.973, 106.513 11.175, 107.102 12 C 107.969 13.214, 108.083 13.086, 107.700 11.325 C 107.367 9.794, 107.624 9.302, 108.570 9.665 C 109.475 10.012, 109.737 11.213, 109.374 13.340 C 108.935 15.914, 109.383 15.453, 111.793 10.856 C 113.420 7.752, 115.118 4.602, 115.567 3.856 C 116.158 2.876, 115.870 2.916, 114.528 4 C 112.786 5.408, 112.746 5.362, 113.871 3.250 C 115.292 0.584, 114.300 0.256, 112.358 2.750 C 111.060 4.417, 111.024 4.417, 111.605 2.750 C 112.368 0.559, 112.070 0.591, 109.161 3.016 M 100 4.059 C 100 4.641, 100.450 4.840, 101 4.500 C 101.550 4.160, 102 3.684, 102 3.441 C 102 3.198, 101.550 3, 101 3 C 100.450 3, 100 3.477, 100 4.059 M 184 4.680 C 182.625 5.389, 181.138 6.096, 180.696 6.253 C 180.253 6.409, 179.790 7.203, 179.667 8.018 C 179.544 8.833, 179.112 10.031, 178.706 10.681 C 177.290 12.945, 180.125 13.161, 184.468 11.120 C 189.489 8.760, 190.620 7.464, 188.668 6.311 C 187.912 5.865, 187.115 5.026, 186.897 4.446 C 186.631 3.740, 185.675 3.817, 184 4.680 M 119.171 6.500 C 119.031 8.584, 118.709 9.090, 118.117 8.155 C 117.487 7.161, 117.094 7.488, 116.613 9.405 C 116.255 10.832, 115.520 12, 114.981 12 C 114.441 12, 114 12.675, 114 13.500 C 114 14.325, 114.408 15, 114.906 15 C 115.405 15, 115.586 15.869, 115.308 16.931 C 115.009 18.072, 114.234 18.643, 113.410 18.327 C 112.644 18.033, 111.740 18.514, 111.401 19.396 C 110.511 21.717, 108.670 21.371, 109.290 19 C 109.577 17.900, 109.405 17, 108.906 17 C 108.408 17, 107.931 17.563, 107.848 18.250 C 107.764 18.938, 107.591 19.950, 107.463 20.500 C 107.335 21.050, 107.179 22.458, 107.115 23.629 C 107.041 24.999, 105.917 26.206, 103.960 27.017 C 102.288 27.709, 99.308 30.126, 97.337 32.388 C 95.367 34.650, 94.289 35.463, 94.942 34.195 C 95.595 32.927, 95.940 31.352, 95.708 30.695 C 95.288 29.506, 92.838 34.485, 91.577 39.087 L 90.917 41.500 92.423 39 C 93.615 37.021, 93.937 36.872, 93.965 38.285 C 93.993 39.709, 94.374 39.870, 95.847 39.082 C 97.074 38.425, 98.035 38.435, 98.711 39.111 C 99.871 40.271, 103 37.697, 103 35.584 C 103 34.883, 103.900 33.495, 105 32.500 C 106.100 31.505, 107 31.183, 107 31.786 C 107 32.389, 106.550 33.160, 106 33.500 C 105.037 34.095, 104.546 38, 105.435 38 C 105.674 38, 106.978 37.579, 108.332 37.064 C 112.576 35.450, 112.118 37.148, 107.708 39.375 C 104.517 40.987, 103.424 42.164, 103.184 44.250 C 102.814 47.458, 104.181 47.754, 108.772 45.464 C 113.778 42.966, 118.535 43.867, 123.056 48.168 C 127.021 51.940, 128.738 54.883, 125 51.500 C 122.794 49.504, 122.195 51.052, 124.342 53.200 C 125.466 54.323, 125.017 54.594, 121.592 54.858 C 111.183 55.662, 107.797 55.443, 106.654 53.891 C 106.019 53.030, 104.968 52.504, 104.318 52.723 C 103.667 52.942, 102.632 52.180, 102.016 51.030 L 100.896 48.938 97.948 51.037 C 96.327 52.192, 95.007 53.668, 95.015 54.318 C 95.025 55.095, 95.326 55.034, 95.892 54.141 C 96.441 53.274, 96.907 55.201, 97.178 59.459 C 97.412 63.132, 98.093 66.444, 98.692 66.818 C 99.290 67.193, 100.044 70.114, 100.368 73.309 C 100.691 76.505, 101.204 79.521, 101.508 80.013 C 101.812 80.505, 101.756 82.125, 101.383 83.612 C 100.744 86.158, 100.625 86.208, 99.352 84.467 C 98.157 82.832, 98 83.269, 98 88.227 C 98 94.312, 98.733 97.283, 100.036 96.478 C 100.491 96.196, 101.497 96.871, 102.271 97.977 C 103.046 99.083, 104.049 99.653, 104.500 99.244 C 104.951 98.835, 105.001 99.057, 104.609 99.737 C 103.719 101.286, 107.494 105.472, 109.796 105.488 C 110.733 105.495, 111.394 106.044, 111.264 106.709 C 110.994 108.088, 116.433 112.445, 119.635 113.415 C 122.485 114.278, 129.514 112.629, 131.516 110.627 C 133.346 108.797, 134.465 103.012, 133.286 101.472 C 132.854 100.907, 129.829 99.901, 126.564 99.236 C 119.127 97.722, 117.568 96.377, 123.796 96.850 C 128.488 97.206, 128.495 97.202, 126.500 95.232 C 125.158 93.907, 123.978 93.526, 122.913 94.076 C 120.657 95.241, 115.223 94.366, 113.401 92.544 C 112.552 91.695, 112.227 90.986, 112.679 90.968 C 113.130 90.951, 112.699 90.329, 111.721 89.586 C 108.996 87.519, 111.592 87.014, 119.621 88.048 C 130.140 89.404, 133.044 89.279, 132.362 87.500 C 132.045 86.675, 132.288 86, 132.901 86 C 133.678 86, 133.637 85.392, 132.768 84 C 132.081 82.900, 131.156 82, 130.712 82 C 130.268 82, 128.862 80.875, 127.588 79.500 C 125.357 77.094, 122.231 75.946, 123.500 78 C 124.365 79.400, 122.651 79.251, 121.200 77.800 C 119.861 76.461, 119.554 74.606, 120.798 75.375 C 121.237 75.646, 122.239 75.470, 123.025 74.985 C 123.955 74.409, 125.044 74.635, 126.144 75.630 C 127.506 76.863, 128.261 76.930, 130.037 75.980 C 131.523 75.185, 132.020 75.159, 131.562 75.900 C 131.188 76.505, 131.343 77, 131.906 77 C 133.972 77, 134.969 73.378, 133.774 70.212 C 132.910 67.922, 132.902 65.336, 133.745 59.892 C 134.675 53.886, 135.391 52.141, 137.880 49.814 C 139.537 48.266, 141.125 47, 141.411 47 C 141.697 47, 143.312 45.650, 145 44 C 146.688 42.350, 149.066 40.964, 150.284 40.921 C 151.503 40.878, 151.938 40.615, 151.250 40.338 C 149.489 39.627, 149.674 34.062, 151.482 33.369 C 152.580 32.947, 152.710 32.327, 151.985 30.972 C 151.447 29.967, 151.307 28.363, 151.674 27.408 C 152.062 26.397, 151.937 25.921, 151.376 26.268 C 150.846 26.595, 148.906 25.094, 147.065 22.932 C 145.224 20.769, 142.994 18.993, 142.109 18.985 C 140.819 18.972, 140.770 18.798, 141.863 18.106 C 143.014 17.377, 143.014 17.171, 141.863 16.785 C 141.113 16.534, 138.095 17.574, 135.155 19.098 C 130.974 21.264, 130.186 21.452, 131.537 19.959 C 133.189 18.133, 133.150 18.008, 130.632 17.050 C 127.749 15.954, 127.189 15, 129.429 15 C 130.214 15, 131.560 15.703, 132.420 16.563 C 133.801 17.944, 134.226 17.955, 136.078 16.658 C 138.045 15.280, 138.061 15.157, 136.337 14.654 C 135.327 14.359, 132.935 13.978, 131.023 13.809 C 128.038 13.544, 127.259 13.955, 125.523 16.711 C 122.956 20.787, 122.225 20.794, 121.723 16.750 L 121.320 13.500 120.974 17 C 120.780 18.955, 120.350 16.747, 120 12 C 119.655 7.325, 119.282 4.850, 119.171 6.500 M 42.612 12.493 C 41.453 13.371, 40.101 13.612, 39.112 13.118 C 38.225 12.676, 36.375 12.601, 35 12.952 C 32.781 13.519, 32.495 14.128, 32.453 18.362 C 32.427 20.986, 32.749 23.345, 33.168 23.604 C 34.288 24.296, 55.056 24.277, 55.750 23.583 C 56.075 23.258, 55.364 21.952, 54.171 20.682 C 52.977 19.411, 52 17.394, 52 16.199 C 52 14.648, 50.965 13.594, 48.378 12.513 C 46.386 11.681, 44.698 11.014, 44.628 11.032 C 44.558 11.049, 43.650 11.707, 42.612 12.493 M 118.195 14.500 C 118.215 16.150, 118.439 16.704, 118.693 15.731 C 118.947 14.758, 118.930 13.408, 118.656 12.731 C 118.382 12.054, 118.175 12.850, 118.195 14.500 M 92.004 18.496 C 90.714 19.869, 89.848 21.160, 90.079 21.364 C 90.311 21.569, 91.547 20.446, 92.826 18.868 C 95.689 15.338, 95.185 15.110, 92.004 18.496 M 26.086 20.450 C 26.030 23.013, 26.342 24.058, 26.974 23.426 C 27.576 22.824, 27.609 21.316, 27.060 19.476 C 26.182 16.535, 26.171 16.546, 26.086 20.450 M 163.964 22.836 C 164.623 24.120, 165.436 24.897, 165.771 24.562 C 166.107 24.227, 165.568 23.176, 164.574 22.226 C 162.846 20.576, 162.819 20.603, 163.964 22.836 M 115.144 24.750 C 114.053 27.300, 114.078 27.359, 115.484 25.559 C 116.318 24.491, 117 23.254, 117 22.809 C 117 21.289, 116.322 21.999, 115.144 24.750 M 161.632 25.561 C 163.378 28.226, 164.444 28.320, 163.446 25.720 C 163.116 24.859, 162.204 23.908, 161.419 23.607 C 160.290 23.174, 160.334 23.580, 161.632 25.561 M 82.501 26.998 C 82.162 27.547, 82.585 28.997, 83.442 30.221 C 84.482 31.706, 85.005 31.955, 85.015 30.973 C 85.029 29.694, 85.159 29.698, 86 31 C 86.736 32.138, 86.973 31.716, 86.985 29.250 C 86.993 27.462, 86.550 26, 86 26 C 85.450 26, 85 26.450, 85 27 C 85 27.550, 84.523 28, 83.941 28 C 83.359 28, 83.160 27.550, 83.500 27 C 83.840 26.450, 83.893 26, 83.618 26 C 83.343 26, 82.840 26.449, 82.501 26.998 M 109.732 28 C 108.790 29.100, 108.449 30, 108.975 30 C 109.500 30, 110.411 29.100, 111 28 C 111.589 26.900, 111.930 26, 111.757 26 C 111.585 26, 110.674 26.900, 109.732 28 M 170.413 28.845 C 172.014 30.552, 173.446 33.085, 173.594 34.474 C 173.873 37.084, 172.552 37.956, 171.662 35.750 C 171.385 35.063, 171.122 36.018, 171.079 37.872 C 171.012 40.753, 170.781 41.063, 169.500 40 C 167.949 38.713, 167.971 38.636, 167.583 46.741 C 167.533 47.791, 168.887 49.140, 171 50.144 C 174.410 51.764, 174.517 51.751, 175.150 49.653 C 175.746 47.682, 175.809 47.719, 175.900 50.095 C 175.955 51.522, 176.965 53.547, 178.146 54.595 C 180.275 56.486, 180.283 56.484, 179.146 54.316 C 177.419 51.023, 177.744 49, 180 49 C 182.285 49, 182.404 48.623, 180.965 45.934 C 180.395 44.870, 180.309 44, 180.774 44 C 181.238 44, 182.482 43.368, 183.538 42.596 C 185.406 41.230, 185.391 41.137, 182.984 39.188 C 180.140 36.885, 179.015 37.198, 178.965 40.309 C 178.945 41.514, 178.292 43.625, 177.513 45 C 176.151 47.404, 176.120 47.347, 176.710 43.500 C 177.376 39.162, 177.392 38.852, 177.158 34.725 C 177.046 32.765, 176.266 31.671, 174.500 31 C 173.125 30.477, 172 29.604, 172 29.060 C 172 28.516, 170.988 27.546, 169.750 26.906 C 167.837 25.915, 167.936 26.205, 170.413 28.845 M 102.774 29.744 C 100.475 31.169, 98.294 34.029, 99.226 34.393 C 99.377 34.452, 101.004 33.038, 102.843 31.250 C 106.632 27.566, 106.623 27.357, 102.774 29.744 M 186.250 28.747 C 186.662 28.978, 187 29.793, 187 30.559 C 187 31.582, 186.404 31.730, 184.750 31.119 C 181.195 29.805, 179.545 30.871, 181.932 32.941 C 183.159 34.005, 183.783 35.529, 183.530 36.844 C 183.093 39.115, 183.956 39.636, 185.550 38.062 C 186.559 37.065, 190.711 36.218, 195.250 36.082 C 198.268 35.992, 199.050 33.617, 196.396 32.599 C 195.451 32.236, 195.036 31.349, 195.385 30.440 C 195.757 29.471, 195.567 29.149, 194.877 29.576 C 194.272 29.950, 193.363 29.636, 192.858 28.878 C 192.248 27.964, 192.155 28.429, 192.581 30.261 C 193.099 32.490, 192.924 32.908, 191.674 32.429 C 190.823 32.102, 190.371 31.197, 190.670 30.417 C 190.993 29.576, 190.594 29, 189.689 29 C 188.850 29, 187.564 28.849, 186.832 28.664 C 186.099 28.479, 185.838 28.517, 186.250 28.747 M 110.573 30.521 C 109.513 31.323, 108.878 32.212, 109.162 32.496 C 109.447 32.780, 110.496 32.110, 111.494 31.006 C 113.621 28.657, 113.277 28.476, 110.573 30.521 M 25.624 33.539 C 25.281 34.432, 25 35.374, 25 35.630 C 25 35.887, 32.763 35.990, 42.250 35.861 C 57.987 35.645, 60.931 35.196, 60.981 33 C 60.987 32.725, 53.175 32.368, 43.620 32.207 C 28.335 31.949, 26.172 32.109, 25.624 33.539 M 9.229 34.188 C 9.847 36.042, 12 36.349, 12 34.583 C 12 33.712, 11.287 33, 10.417 33 C 9.546 33, 9.011 33.534, 9.229 34.188 M 77.603 40.157 C 76.010 41.721, 75.144 43, 75.679 43 C 76.810 43, 81.545 38.176, 80.921 37.661 C 80.689 37.470, 79.197 38.593, 77.603 40.157 M 118 39 C 118 40.297, 121.703 44, 123 44 C 124.658 44, 124.134 42.475, 121.686 40.174 C 119.169 37.811, 118 37.438, 118 39 M 17.297 42.700 C 16.086 42.934, 14.799 44.058, 14.438 45.195 C 13.910 46.858, 13.592 46.993, 12.815 45.882 C 12.068 44.814, 11.732 44.784, 11.341 45.750 C 11.062 46.438, 9.333 47, 7.498 47 C 1.082 47, 1 47.150, 1 58.907 L 1 69.600 7.250 71.019 C 10.688 71.800, 14.175 72.485, 15 72.542 C 15.825 72.599, 19.875 72.953, 24 73.328 C 28.125 73.702, 35.100 74.078, 39.500 74.162 C 43.900 74.246, 48.260 74.695, 49.189 75.160 C 50.189 75.660, 51.132 75.596, 51.498 75.003 C 52.386 73.566, 55.994 73.763, 56.030 75.250 C 56.047 75.938, 56.535 75.685, 57.114 74.689 C 57.693 73.693, 57.895 72.170, 57.563 71.303 C 57.020 69.890, 56.765 69.903, 55.078 71.429 C 54.044 72.365, 52.944 72.719, 52.633 72.216 C 51.888 71.010, 56.252 67.251, 57.798 67.766 C 58.459 67.986, 59 67.717, 59 67.167 C 59 66.617, 58.543 66.014, 57.984 65.828 C 56.373 65.291, 55.938 55, 57.527 55 C 58.245 55, 59.015 54.454, 59.237 53.788 C 59.852 51.943, 58.890 48, 57.824 48 C 57.306 48, 57.207 47.474, 57.605 46.830 C 58.098 46.032, 57.773 45.873, 56.582 46.330 C 55.622 46.699, 54.172 47, 53.359 47 C 52.547 47, 52.141 47.419, 52.457 47.931 C 53.624 49.818, 51.302 49.833, 49.688 47.949 C 48.770 46.877, 47.145 46, 46.077 46 C 45.009 46, 43.849 45.100, 43.500 44 C 43.030 42.521, 41.987 42, 39.492 42 C 37.636 42, 35.851 42.433, 35.524 42.962 C 35.143 43.578, 34.019 43.578, 32.399 42.962 C 29.903 42.013, 21.584 41.868, 17.297 42.700 M 57 43.500 C 57 44.325, 57.177 45, 57.393 45 C 57.609 45, 58.045 44.325, 58.362 43.500 C 58.678 42.675, 58.501 42, 57.969 42 C 57.436 42, 57 42.675, 57 43.500 M 234.604 44.590 C 233.924 46.363, 234.622 48, 236.059 48 C 236.577 48, 237 46.875, 237 45.500 C 237 42.703, 235.541 42.149, 234.604 44.590 M 39 45 C 39 45.550, 39.477 46, 40.059 46 C 40.641 46, 40.840 45.550, 40.500 45 C 40.160 44.450, 39.684 44, 39.441 44 C 39.198 44, 39 44.450, 39 45 M 150.750 45.572 C 147.636 47.261, 147.136 48.895, 149.750 48.836 C 150.713 48.815, 152.929 49.252, 154.675 49.807 C 156.421 50.363, 158.077 50.589, 158.356 50.311 C 159.140 49.527, 157.892 46.638, 156.169 45.250 C 154.267 43.717, 154.157 43.724, 150.750 45.572 M 71.543 47.931 C 71.226 48.443, 71.425 49.144, 71.984 49.490 C 72.543 49.835, 73 49.416, 73 48.559 C 73 46.802, 72.400 46.544, 71.543 47.931 M 109.583 48.866 C 109.152 49.563, 109.070 50.403, 109.400 50.733 C 110.295 51.628, 111.271 50.312, 110.787 48.862 C 110.449 47.846, 110.213 47.846, 109.583 48.866 M 117.636 50.506 C 117.288 51.413, 117.639 52, 118.531 52 C 120.149 52, 120.517 50.437, 119.105 49.565 C 118.612 49.260, 117.952 49.684, 117.636 50.506 M 50.411 53.498 C 49.334 57.788, 51.937 61.213, 53.392 57.421 C 54.137 55.478, 53.104 51, 51.911 51 C 51.431 51, 50.756 52.124, 50.411 53.498 M 144.583 53.866 C 144.152 54.563, 144.070 55.403, 144.400 55.733 C 145.295 56.628, 146.271 55.312, 145.787 53.862 C 145.449 52.846, 145.213 52.846, 144.583 53.866 M 174.031 53.500 C 174.031 54.050, 174.467 55.175, 175 56 C 175.533 56.825, 175.969 57.050, 175.969 56.500 C 175.969 55.950, 175.533 54.825, 175 54 C 174.467 53.175, 174.031 52.950, 174.031 53.500 M 197.944 60.750 C 197.889 67.254, 197.844 67.375, 196.694 64.075 C 196.037 62.191, 194.866 60.443, 194.091 60.189 C 193.123 59.872, 192.878 60.240, 193.309 61.364 C 193.655 62.264, 193.494 63, 192.953 63 C 192.411 63, 191.981 64.237, 191.997 65.750 C 192.013 67.263, 192.031 70.956, 192.038 73.957 C 192.046 77.158, 192.558 79.735, 193.276 80.192 C 195.454 81.575, 195.971 81.054, 194.987 78.467 C 194.398 76.917, 194.380 75.267, 194.939 74.217 C 195.442 73.273, 196.147 71.600, 196.504 70.500 C 197.108 68.644, 197.259 68.698, 198.609 71.250 C 199.409 72.763, 200.226 74, 200.425 74 C 201.063 74, 201.044 57.279, 200.404 55.610 C 199.061 52.110, 197.997 54.331, 197.944 60.750 M 172.564 56.293 C 172.940 57.279, 173.499 57.834, 173.807 57.526 C 174.115 57.219, 173.808 56.412, 173.124 55.733 C 172.136 54.753, 172.022 54.868, 172.564 56.293 M 142.038 59.053 C 144.254 62.166, 149.148 66, 150.904 66 C 151.507 66, 152 65.325, 152 64.500 C 152 63.675, 151.662 62.999, 151.250 62.998 C 150.838 62.996, 148.959 61.678, 147.076 60.069 C 145.192 58.459, 142.829 56.927, 141.824 56.664 C 140.131 56.222, 140.147 56.398, 142.038 59.053 M 58 62.441 C 58 63.234, 58.408 64.134, 58.907 64.442 C 59.405 64.751, 59.578 64.102, 59.290 63.001 C 58.679 60.666, 58 60.371, 58 62.441 M 223.079 62.583 C 223.127 63.748, 223.364 63.985, 223.683 63.188 C 223.972 62.466, 223.936 61.603, 223.604 61.271 C 223.272 60.939, 223.036 61.529, 223.079 62.583 M 52.399 63.404 C 51.363 66.102, 52.561 67.689, 53.835 65.308 C 54.607 63.867, 54.661 62.909, 53.996 62.497 C 53.440 62.154, 52.722 62.562, 52.399 63.404 M 85.144 64.750 C 84.053 67.300, 84.078 67.359, 85.484 65.559 C 86.318 64.491, 87 63.254, 87 62.809 C 87 61.289, 86.322 61.999, 85.144 64.750 M 139.694 62.750 C 139.460 63.163, 139.387 66.425, 139.531 70 C 139.676 73.606, 139.170 78.410, 138.395 80.790 C 137.421 83.778, 137.311 85.448, 138.032 86.290 C 138.602 86.956, 139.719 88.400, 140.515 89.500 C 141.677 91.106, 142.138 91.233, 142.856 90.143 C 143.485 89.188, 143.954 89.117, 144.440 89.902 C 145.453 91.543, 144.092 95, 142.433 95 C 141.645 95, 141 95.247, 141 95.550 C 141 96.447, 144.013 102, 144.500 102 C 145.890 102, 148.011 95.362, 148.079 90.800 C 148.171 84.651, 150.158 72.509, 151.251 71.415 C 152.475 70.192, 152.106 69, 150.503 69 C 149.679 69, 147.262 67.425, 145.132 65.500 C 141.096 61.854, 140.400 61.502, 139.694 62.750 M 125 65.378 C 125 66.135, 124.325 67.315, 123.500 68 C 122.675 68.685, 122 69.725, 122 70.311 C 122 71.677, 125.388 68.057, 126.269 65.750 C 126.637 64.787, 126.501 64, 125.969 64 C 125.436 64, 125 64.620, 125 65.378 M 157.583 64.866 C 157.152 65.563, 157.070 66.403, 157.400 66.733 C 158.295 67.628, 159.271 66.312, 158.787 64.862 C 158.449 63.846, 158.213 63.846, 157.583 64.866 M 88 69.435 C 88 69.674, 88.439 71.024, 88.975 72.435 C 90.146 75.515, 93 75.873, 93 72.941 C 93 71.809, 92.555 71.157, 92.011 71.493 C 91.445 71.843, 91.277 71.442, 91.618 70.552 C 92.041 69.452, 91.600 69, 90.107 69 C 88.948 69, 88 69.196, 88 69.435 M 176.610 70.821 C 176.280 71.356, 176.665 73.302, 177.466 75.147 C 178.509 77.549, 178.937 77.933, 178.976 76.500 C 179.021 74.839, 179.195 74.754, 180 76 C 180.824 77.275, 180.972 77.231, 180.985 75.708 C 181.004 73.480, 177.433 69.490, 176.610 70.821 M 173.079 75.583 C 173.127 76.748, 173.364 76.985, 173.683 76.188 C 173.972 75.466, 173.936 74.603, 173.604 74.271 C 173.272 73.939, 173.036 74.529, 173.079 75.583 M 223.250 76.568 C 219.972 80.101, 223.478 83.606, 228.021 81.340 C 229.544 80.580, 231.305 79.337, 231.936 78.577 C 232.877 77.443, 232.436 77.214, 229.474 77.298 C 227.489 77.354, 225.558 76.910, 225.183 76.311 C 224.709 75.555, 224.117 75.635, 223.250 76.568 M 84 79.250 C 84 82.136, 85.500 83.747, 86.284 81.702 C 86.555 80.995, 86.153 79.562, 85.389 78.517 C 84.074 76.720, 84 76.759, 84 79.250 M 76.525 78.960 C 75.689 80.312, 77.870 85.198, 78.998 84.501 C 80.530 83.555, 80.190 79.287, 78.532 78.651 C 77.725 78.341, 76.821 78.480, 76.525 78.960 M 165 80.500 C 164.282 81.365, 164.185 82, 164.771 82 C 165.329 82, 166.045 81.325, 166.362 80.500 C 166.678 79.675, 166.781 79, 166.591 79 C 166.401 79, 165.685 79.675, 165 80.500 M 186.031 81.500 C 186.031 83.150, 186.467 85.175, 187 86 C 187.744 87.151, 187.969 86.802, 187.969 84.500 C 187.969 82.850, 187.533 80.825, 187 80 C 186.256 78.849, 186.031 79.198, 186.031 81.500 M 189 80.382 C 189 81.207, 189.450 82.160, 190 82.500 C 190.550 82.840, 191 82.443, 191 81.618 C 191 80.793, 190.550 79.840, 190 79.500 C 189.450 79.160, 189 79.557, 189 80.382 M 75.298 86.052 C 75.566 86.906, 75.112 89.156, 74.289 91.052 C 73.100 93.790, 72.659 94.147, 72.146 92.787 C 71.785 91.831, 71.005 91.389, 70.382 91.787 C 69.455 92.378, 65 100.596, 65 101.714 C 65 102.601, 70.769 98.903, 72.834 96.692 C 75.565 93.767, 77.181 87.815, 75.777 85.852 C 75.010 84.777, 74.911 84.819, 75.298 86.052 M 224.200 90.647 C 224.200 93.148, 224.478 93.855, 225.085 92.897 C 226.242 91.069, 226.253 87, 225.100 87 C 224.605 87, 224.200 88.641, 224.200 90.647 M 77.563 94.693 C 74.783 98.783, 74.949 100.261, 77.889 97.601 C 79.482 96.159, 81.442 91, 80.397 91 C 80.218 91, 78.943 92.662, 77.563 94.693 M 171.643 95.524 C 170.252 98.012, 169.545 99.781, 170.071 99.456 C 171.121 98.807, 175.308 91, 174.606 91 C 174.367 91, 173.033 93.036, 171.643 95.524 M 6.510 100.892 L 2.520 101.500 5.413 103.599 C 7.098 104.822, 8.008 106.178, 7.593 106.849 C 6.471 108.665, 4.196 108.193, 3.500 106 C 2.439 102.656, 1 103.761, 1 107.920 L 1 111.841 7.646 112.553 C 13.884 113.221, 14.405 113.118, 16.122 110.882 C 17.465 109.134, 17.787 107.568, 17.332 105 C 16.422 99.869, 15.505 99.521, 6.510 100.892 M 100 107.941 C 100 108.459, 100.445 109.157, 100.989 109.493 C 101.555 109.843, 101.723 109.442, 101.382 108.552 C 100.717 106.820, 100 106.503, 100 107.941 M 69.636 113.494 C 69.952 114.316, 70.620 114.735, 71.121 114.425 C 72.170 113.777, 71.328 112, 69.972 112 C 69.472 112, 69.321 112.672, 69.636 113.494 M 112.475 114.041 C 112.119 114.617, 112.313 115.672, 112.905 116.386 C 113.498 117.100, 113.649 118.052, 113.241 118.501 C 112.834 118.951, 113.287 119.036, 114.250 118.691 C 115.213 118.345, 116 118.499, 116 119.031 C 116 119.564, 115.550 120, 115 120 C 114.450 120, 114 120.450, 114 121 C 114 121.550, 114.702 122, 115.559 122 C 116.416 122, 116.874 122.395, 116.575 122.878 C 115.810 124.117, 121.219 125.036, 124.349 124.199 C 127.700 123.303, 128.175 121.596, 125.192 121.173 C 123.419 120.922, 123.135 120.542, 123.967 119.540 C 124.821 118.510, 124.091 118.091, 120.506 117.553 C 118.006 117.178, 116.208 116.473, 116.509 115.986 C 116.810 115.499, 116.171 114.627, 115.089 114.047 C 113.720 113.315, 112.925 113.313, 112.475 114.041 M 0.370 130 C 0.370 135.775, 0.535 138.137, 0.737 135.250 C 0.939 132.363, 0.939 127.638, 0.737 124.750 C 0.535 121.862, 0.370 124.225, 0.370 130 M 112.858 128.296 C 114.953 130.872, 120.880 132.198, 123.161 130.600 C 124.853 129.415, 124.564 129.226, 120.270 128.713 C 117.647 128.399, 114.600 127.801, 113.500 127.384 C 111.730 126.713, 111.656 126.818, 112.858 128.296 M 137.500 128 C 137.160 128.550, 137.149 129, 137.476 129 C 137.803 129, 137.558 129.957, 136.932 131.127 C 135.784 133.272, 136.939 134.993, 139.500 134.954 C 140.050 134.946, 139.703 134.475, 138.729 133.908 C 137.755 133.341, 137.223 132.447, 137.548 131.922 C 137.873 131.397, 138.557 131.226, 139.069 131.543 C 139.581 131.859, 140 131.416, 140 130.559 C 140 129.702, 140.477 129, 141.059 129 C 141.641 129, 141.840 128.550, 141.500 128 C 141.160 127.450, 140.260 127, 139.500 127 C 138.740 127, 137.840 127.450, 137.500 128 M 133.750 136.716 C 132.238 136.945, 131 137.504, 131 137.958 C 131 138.412, 129.871 139.067, 128.491 139.413 C 127.111 139.759, 124.702 141.809, 123.138 143.968 C 120.484 147.632, 120.155 147.797, 118.213 146.436 C 116.889 145.509, 115.904 145.346, 115.507 145.989 C 115.163 146.545, 115.471 147.007, 116.191 147.015 C 117.251 147.028, 117.246 147.192, 116.166 147.876 C 115.092 148.557, 115.141 148.840, 116.416 149.329 C 117.287 149.664, 118 150.428, 118 151.028 C 118 151.627, 117.507 151.813, 116.904 151.441 C 116.223 151.020, 115.944 151.471, 116.168 152.632 C 116.595 154.850, 119.480 155.164, 119.545 153 C 119.600 151.194, 122.180 151.593, 123.300 153.581 C 124.528 155.761, 128.755 155.347, 129.508 152.974 C 129.862 151.859, 130.680 151.012, 131.326 151.092 C 134.293 151.458, 136 150.877, 136 149.500 C 136 147.584, 132.956 147.566, 130.441 149.468 C 129.374 150.276, 127.825 150.919, 127 150.898 C 126.057 150.874, 126.243 150.570, 127.500 150.079 C 128.600 149.650, 129.500 148.840, 129.500 148.280 C 129.500 146.654, 134.179 141, 135.525 141 C 136.199 141, 136.750 139.875, 136.750 138.500 C 136.750 137.125, 136.694 136.067, 136.625 136.150 C 136.556 136.232, 135.262 136.487, 133.750 136.716 M 117.500 149 C 117.840 149.550, 119.329 149.968, 120.809 149.930 C 123.212 149.867, 123.286 149.767, 121.500 149 C 118.722 147.806, 116.762 147.806, 117.500 149" stroke="none" fill="#3467df" fill-rule="evenodd"/>
</svg>