<svg xmlns="http://www.w3.org/2000/svg" width="800" height="625" viewBox="0 0 800 625" version="1.1">
	<rect x="0" y="0" width="100%" height="100%" fill="#bfbfbf" />
	<path d="M 267.407 250.966 C 253.936 253.849, 246.074 262.015, 246.022 273.179 C 245.990 280.004, 250.673 283.755, 255.378 280.672 L 257.658 279.178 256.437 285.839 C 254.533 296.235, 253.720 312.133, 254.930 315.316 C 255.596 317.069, 257.340 318.662, 259.647 319.626 C 264.138 321.502, 276.848 324, 281.906 324 C 287.861 324, 295.261 321.324, 299.617 317.596 L 303.646 314.147 306.374 317.038 C 307.874 318.628, 310.582 320.206, 312.392 320.546 C 315.609 321.149, 322.140 319.878, 324.871 318.116 C 325.739 317.557, 327.227 317.797, 328.927 318.773 L 331.612 320.314 327.349 326.672 C 322.734 333.553, 321.426 338.032, 322.343 343.806 C 323.514 351.174, 331.994 355.517, 340.333 353.018 C 348.460 350.583, 352.901 343.009, 354.561 328.751 C 355.189 323.360, 355.519 322.789, 359.865 319.594 C 369.146 312.771, 371.206 307.181, 367.350 299.287 C 365.399 295.294, 362.059 293.876, 359.535 295.971 C 358.413 296.902, 358.272 296.089, 358.713 291.234 C 359.366 284.031, 357.355 279.334, 353.232 278.431 C 351.729 278.102, 349.075 277.113, 347.332 276.233 C 342.816 273.953, 336.830 275.907, 331.255 281.482 C 327.208 285.529, 327 285.616, 327 283.262 C 327 281.846, 328.020 279.986, 329.385 278.911 C 332.311 276.610, 333.571 270.792, 331.977 266.944 C 329.708 261.467, 319.291 259.281, 315.158 263.414 C 313.850 264.722, 313.101 264.377, 308.746 260.462 C 305.023 257.114, 301.869 255.414, 295.864 253.517 C 287.107 250.751, 273.932 249.570, 267.407 250.966 M 264.059 256.650 C 254.956 259.836, 251 264.597, 251 272.368 C 251 278.543, 252.685 278.386, 257.634 271.750 C 262.723 264.924, 266.288 263.625, 280 263.603 C 288.607 263.589, 291.350 263.970, 295.213 265.720 C 300.729 268.219, 302.206 271.511, 299.596 275.493 C 296.814 279.740, 293.354 281.278, 285.440 281.786 C 278.440 282.235, 278 282.401, 278 284.606 C 278 287.148, 281.129 289.249, 286.703 290.449 C 292.349 291.664, 295 294.555, 295 299.496 C 295 305.481, 291.605 309.415, 285.092 310.978 C 280.264 312.136, 272.646 311.635, 269.973 309.984 C 267.708 308.583, 270.142 284.927, 273.376 276.921 C 276.118 270.132, 275.697 267.986, 271.628 268.015 C 268.597 268.037, 267.492 268.972, 265.147 273.500 C 261.859 279.846, 259.935 290.223, 259.709 302.832 L 259.500 314.500 265 316.335 C 272.170 318.728, 283.346 319.545, 288.763 318.074 C 293.531 316.779, 299.357 312.144, 301.551 307.901 C 302.348 306.360, 303 302.618, 303 299.584 C 303 294.842, 302.565 293.575, 299.896 290.535 C 298.189 288.591, 295.913 287, 294.837 287 C 291.697 287, 293.624 285.323, 297.485 284.696 C 307.164 283.126, 313.219 272.362, 308.092 265.844 C 301.405 257.343, 276.773 252.200, 264.059 256.650 M 389.500 261.954 C 386.789 263.075, 383.398 266.996, 382.720 269.793 C 382.415 271.055, 382.559 273.462, 383.041 275.142 C 383.666 277.323, 383.516 278.813, 382.515 280.349 C 380.260 283.807, 375.913 302, 375.874 308.135 C 375.834 314.659, 377.228 317.406, 381.642 319.500 C 385.500 321.331, 388.308 321.337, 393.391 319.525 C 396.787 318.315, 397.581 318.335, 399.637 319.681 C 402.349 321.459, 408.082 320.811, 409.991 318.511 C 411.013 317.280, 411.587 317.374, 414.024 319.176 C 417.238 321.552, 422.027 321.190, 425.184 318.333 C 426.870 316.808, 427.135 316.812, 428.876 318.388 C 431.559 320.816, 436.997 321.440, 441.048 319.785 C 443.908 318.616, 444.929 318.597, 447 319.672 C 450.297 321.385, 453.135 321.330, 457.797 319.465 C 461.242 318.086, 461.934 318.085, 464.567 319.458 C 468.233 321.370, 470.143 321.385, 474.566 319.537 C 477.183 318.443, 478.653 318.340, 480.383 319.129 L 482.699 320.184 478.392 326.607 C 471.720 336.557, 471.192 345.030, 476.921 350.196 C 482.864 355.555, 492.673 354.747, 498.654 348.406 C 502.369 344.467, 503.700 340.875, 505.318 330.424 C 506.446 323.140, 506.689 322.655, 510.637 319.799 C 514.764 316.814, 514.782 316.811, 517.593 318.653 C 522.013 321.549, 531.160 321.153, 538 317.771 C 546.226 313.703, 552.250 308.107, 552.250 304.533 C 552.250 301.252, 546.340 295, 543.238 295 C 541.738 295, 541.512 294.319, 541.847 290.807 C 542.402 284.984, 539.821 280.576, 534.288 277.897 C 526.447 274.102, 517.052 277.956, 512.327 286.907 L 510 291.315 510 288.108 C 510 283.428, 507.440 279.133, 504.232 278.431 C 502.729 278.102, 500.075 277.113, 498.332 276.233 C 495.668 274.888, 494.524 274.826, 491.128 275.844 C 486.479 277.236, 481.511 281.111, 478.927 285.360 L 477.136 288.305 476.255 284.906 C 475.662 282.614, 474.417 281.043, 472.437 280.086 C 470.822 279.305, 468.231 278.022, 466.680 277.235 C 461.388 274.550, 453.171 277.625, 447.070 284.573 L 444 288.070 444 284.624 C 444 282.003, 443.263 280.557, 440.923 278.589 C 437.372 275.600, 434.421 275.316, 431.099 277.643 C 428.924 279.167, 428.552 279.167, 425.973 277.643 C 422.501 275.592, 420.068 275.563, 417.247 277.539 C 415.259 278.932, 414.809 278.921, 412.527 277.426 C 410.998 276.424, 408.789 275.951, 406.921 276.225 C 403.888 276.670, 403.848 276.622, 404.488 273.212 C 405.374 268.489, 403.488 264.459, 399.507 262.570 C 395.908 260.863, 392.627 260.661, 389.500 261.954 M 317 268 C 313.044 271.956, 315.520 277, 321.416 277 C 325.305 277, 328 274.423, 328 270.706 C 328 266.033, 320.751 264.249, 317 268 M 389 268 C 385.044 271.956, 387.520 277, 393.416 277 C 397.305 277, 400 274.423, 400 270.706 C 400 266.033, 392.751 264.249, 389 268 M 280.428 270.750 C 280.389 272.262, 280.003 274.288, 279.571 275.250 C 278.874 276.803, 279.423 277, 284.443 277 C 290.925 277, 296.290 274.744, 295.804 272.222 C 295.442 270.343, 289.321 268.194, 284 268.077 C 280.846 268.008, 280.493 268.272, 280.428 270.750 M 335.001 284.750 C 330.454 289.333, 326 298.346, 326 302.965 C 326 305, 321.602 309, 319.365 309 C 317.268 309, 317.670 302.660, 320.444 292.012 C 321.789 286.851, 322.662 282.263, 322.385 281.815 C 321.503 280.387, 317.291 280.938, 315.243 282.750 C 312.771 284.936, 308.815 299.741, 308.633 307.484 C 308.526 312.040, 308.882 313.435, 310.441 314.578 C 313.186 316.589, 316.736 316.328, 322.424 313.696 L 327.348 311.418 329.820 313.709 C 332.697 316.375, 335.909 316.615, 340.050 314.474 C 344.327 312.262, 343.691 314.098, 337.895 320.692 C 326.972 333.117, 324.060 342.535, 329.750 347.025 C 333.077 349.650, 339.872 349.318, 343.170 346.368 C 346.234 343.628, 348.663 337.280, 349.451 329.950 C 350.449 320.663, 350.606 320.354, 356.570 315.948 C 364.252 310.274, 365.438 308.192, 363.905 303.077 L 362.683 298.998 359.469 303.749 C 356.155 308.647, 352.300 312.633, 351.576 311.910 C 351.350 311.683, 351.650 307.899, 352.243 303.499 C 352.836 299.100, 353.362 292.800, 353.411 289.500 C 353.497 283.712, 353.405 283.489, 350.823 283.191 C 349.351 283.020, 347.608 282.233, 346.951 281.441 C 344.488 278.473, 339.995 279.717, 335.001 284.750 M 486.938 283.675 C 482.326 287.842, 480.399 291.124, 477.944 298.993 C 476.020 305.159, 471.902 309.302, 469.793 307.193 C 468.857 306.257, 468.970 304.165, 470.300 297.746 C 472.456 287.345, 472.447 285.073, 470.250 284.405 C 469.288 284.112, 467.065 283.170, 465.312 282.312 C 461.145 280.272, 457.949 281.147, 452.897 285.712 C 448.261 289.900, 444.346 296.982, 443.402 302.889 C 442.956 305.678, 442.144 307.137, 440.801 307.563 C 437.891 308.487, 437.457 307.443, 437.934 300.666 C 438.172 297.275, 438.397 291.575, 438.434 288 C 438.499 281.638, 438.442 281.493, 435.758 281.184 C 433.316 280.903, 432.462 281.725, 427.961 288.684 C 424.620 293.851, 423.174 295.483, 423.695 293.500 C 424.128 291.850, 424.486 288.475, 424.491 286 C 424.499 281.877, 424.279 281.474, 421.858 281.194 C 419.036 280.867, 417.429 282.577, 412.477 291.180 L 409.990 295.500 410.639 288.250 L 411.287 281 408.093 281 C 404.124 281, 402.725 283.874, 400.828 295.930 C 399.603 303.716, 399.292 304.409, 396.027 306.628 C 394.107 307.932, 391.965 309, 391.268 309 C 389.276 309, 389.731 302.426, 392.444 292.012 C 393.789 286.851, 394.662 282.263, 394.385 281.815 C 393.503 280.386, 389.290 280.939, 387.254 282.750 C 385.282 284.503, 381.780 296.185, 380.557 305.088 C 379.274 314.418, 383.410 317.864, 391.969 314.598 C 399.555 311.704, 400 311.636, 400 313.364 C 400 315.138, 404.223 316.598, 406.063 315.461 C 406.710 315.061, 409.224 310.458, 411.650 305.231 C 414.076 300.004, 416.199 295.901, 416.368 296.114 C 416.537 296.326, 416.216 300.226, 415.654 304.781 C 414.771 311.940, 414.850 313.278, 416.232 314.660 C 417.268 315.696, 418.692 316.043, 420.277 315.645 C 422.248 315.151, 423.333 313.426, 425.867 306.766 C 427.597 302.220, 429.347 297.983, 429.756 297.350 C 430.165 296.718, 430.500 299.911, 430.500 304.447 C 430.500 315.943, 433.196 318.373, 441.550 314.409 C 444.615 312.955, 445.097 312.955, 447.174 314.409 C 450.366 316.645, 453.804 316.374, 458.855 313.486 L 463.210 310.997 465.177 313.498 C 467.620 316.603, 471.741 316.778, 475.362 313.930 L 477.994 311.860 480.901 313.930 C 484.361 316.393, 487.059 316.538, 491.050 314.474 C 495.314 312.269, 494.749 314.285, 489.542 319.851 C 478.654 331.492, 475.027 342.516, 480.635 346.927 C 485.976 351.129, 494.754 348.196, 497.693 341.228 C 498.558 339.178, 499.835 333.675, 500.532 329 C 501.640 321.566, 502.148 320.249, 504.584 318.500 C 506.116 317.400, 509.130 314.946, 511.281 313.047 C 514.764 309.972, 515.297 309.780, 516.146 311.297 C 516.670 312.233, 518.405 313.675, 520 314.500 C 526.228 317.720, 535.137 315.407, 543.781 308.324 L 548.176 304.722 545.764 302.310 L 543.353 299.898 538.130 303.412 C 531.821 307.658, 526.504 308.933, 524.300 306.728 C 522.931 305.359, 523.132 305.031, 526.251 303.551 C 540.061 296.998, 541.178 281, 527.827 281 C 522.158 281, 516.947 286.251, 514.426 294.504 C 513.419 297.802, 511.388 302.300, 509.914 304.500 C 507.078 308.731, 503.256 312.598, 502.590 311.911 C 502.372 311.685, 502.595 308.350, 503.087 304.500 C 505.370 286.611, 505.406 284.082, 503.383 283.469 C 502.347 283.155, 500.226 282.246, 498.669 281.449 C 494.187 279.155, 491.344 279.694, 486.938 283.675 M 305.302 286.645 C 304.385 287.018, 304.374 287.727, 305.255 289.661 C 306.295 291.942, 306.478 292.009, 307.133 290.345 C 308.646 286.502, 308.145 285.489, 305.302 286.645 M 341.773 289.120 C 336.559 293.820, 333.674 302.381, 335.607 307.418 C 336.475 309.681, 338.712 309.370, 340.421 306.750 C 341.972 304.373, 345.360 289.579, 344.764 287.791 C 344.571 287.213, 343.225 287.811, 341.773 289.120 M 492.773 289.120 C 487.214 294.131, 484.070 304.670, 487.200 307.800 C 488.913 309.513, 489.756 309.303, 491.421 306.750 C 492.972 304.373, 496.360 289.579, 495.764 287.791 C 495.571 287.213, 494.225 287.811, 492.773 289.120 M 458.600 291.047 C 454.228 294.885, 451.230 303.015, 452.864 306.602 C 454.138 309.396, 455.255 309.602, 457.418 307.439 C 459.616 305.241, 464.253 288, 462.646 288 C 462.329 288, 460.508 289.371, 458.600 291.047 M 525.102 289.898 C 523.259 291.741, 521.336 297.669, 522.276 298.609 C 523.181 299.514, 527.993 296.660, 529.539 294.300 C 531.287 291.633, 530.649 288, 528.433 288 C 527.645 288, 526.146 288.854, 525.102 289.898 M 274.641 292.210 C 274.303 293.470, 274.021 297.313, 274.014 300.750 L 274 307 279.577 307 C 284.408 307, 285.545 306.609, 288.077 304.077 C 292.905 299.249, 291.930 296.938, 284.084 294.613 C 281.105 293.731, 277.899 292.314, 276.961 291.465 C 275.404 290.055, 275.200 290.121, 274.641 292.210 M 339.841 327.673 C 337.440 330.401, 334 337.637, 334 339.960 C 334 342.683, 336.591 342.560, 338.412 339.750 C 340.110 337.130, 342.381 328.642, 341.828 326.984 C 341.591 326.272, 340.847 326.531, 339.841 327.673 M 490.937 327.640 C 488.500 330.542, 486.434 334.200, 485.202 337.795 C 484.272 340.509, 484.333 341.191, 485.549 341.657 C 486.361 341.969, 487.699 341.665, 488.523 340.981 C 490.225 339.568, 493.310 329.813, 492.822 327.385 C 492.540 325.981, 492.304 326.013, 490.937 327.640" stroke="none" fill="#3467df" fill-rule="evenodd"/>
</svg>