<svg xmlns="http://www.w3.org/2000/svg" width="52" height="59" viewBox="0 0 52 59" version="1.1">
	<rect x="0" y="0" width="100%" height="100%" fill="#bfbfbf" />
	<path d="M 19.500 2.389 C 10.844 6.170, 7.790 11.827, 8.111 23.484 C 8.317 30.985, 9.908 32.339, 10.186 25.250 C 10.577 15.288, 10.759 14.216, 12.582 11.130 C 14.761 7.442, 21.198 4, 25.915 4 C 31.113 4, 35.803 6.807, 38.612 11.600 C 40.010 13.987, 40.898 16.356, 40.583 16.865 C 40.269 17.374, 40.458 20.144, 41.004 23.021 C 41.778 27.104, 41.652 29.489, 40.429 33.877 C 39.567 36.969, 38.762 40.850, 38.639 42.500 C 38.389 45.880, 36.880 47.007, 35.992 44.477 C 35.450 42.931, 35.297 42.936, 33.953 44.549 C 33.154 45.507, 31.974 47.463, 31.331 48.896 C 30.511 50.723, 30.138 50.983, 30.081 49.766 C 30.015 48.354, 29.211 48.089, 25.750 48.341 C 22.275 48.593, 21.066 48.191, 19.123 46.136 C 16.873 43.757, 16.783 43.740, 17.440 45.811 C 17.835 47.057, 17.708 48, 17.145 48 C 16.601 48, 15.616 46.313, 14.957 44.250 C 13.578 39.937, 12 37.784, 12 40.217 C 12 41.843, 15.114 49.395, 16.766 51.778 C 17.253 52.480, 20.433 53.503, 23.831 54.050 C 29.245 54.922, 30.565 54.793, 34.491 53.004 C 38.850 51.018, 41.083 47.561, 39.578 45.126 C 39.242 44.583, 39.425 43.856, 39.984 43.510 C 40.543 43.165, 41 41.559, 41 39.941 C 41 38.323, 41.502 37, 42.117 37 C 42.771 37, 43.034 35.956, 42.751 34.476 C 42.485 33.088, 42.658 31.711, 43.134 31.417 C 43.610 31.123, 44 27.461, 44 23.279 C 44 16.939, 43.577 14.955, 41.458 11.338 C 40.060 8.952, 38.502 7, 37.997 7 C 37.491 7, 36.205 6.063, 35.137 4.917 C 33.356 3.005, 27.637 1.026, 24 1.063 C 23.175 1.071, 21.150 1.668, 19.500 2.389 M 15.605 23.829 C 14.998 24.812, 18.650 24.684, 19.646 23.687 C 20.024 23.309, 19.385 23, 18.226 23 C 17.066 23, 15.887 23.373, 15.605 23.829 M 32.500 24 C 32.840 24.550, 34.018 25, 35.118 25 C 36.218 25, 36.840 24.550, 36.500 24 C 36.160 23.450, 34.982 23, 33.882 23 C 32.782 23, 32.160 23.450, 32.500 24 M 26.500 32 C 26.160 32.550, 26.835 33, 28 33 C 29.165 33, 29.840 32.550, 29.500 32 C 29.160 31.450, 28.485 31, 28 31 C 27.515 31, 26.840 31.450, 26.500 32 M 27.550 36.156 C 28.191 38.178, 28.084 38.315, 26.740 37.199 C 24.842 35.624, 20 36.636, 20 38.608 C 20 39.626, 21.456 40, 25.418 40 C 28.398 40, 31.548 40.273, 32.418 40.607 C 33.339 40.960, 34 40.693, 34 39.967 C 34 38.711, 32.059 36.870, 28.655 34.897 C 27.026 33.953, 26.897 34.100, 27.550 36.156 M 40 52.155 C 40 53.035, 40.675 54.315, 41.500 55 C 42.325 55.685, 43 56.865, 43 57.622 C 43 58.441, 44.060 59, 45.611 59 C 48.143 59, 48.165 58.947, 46.352 57.250 C 45.324 56.288, 43.474 54.388, 42.241 53.028 C 40.550 51.163, 40 50.948, 40 52.155 M 11 57.121 L 7.500 58.997 11.250 58.998 C 14.334 59, 15 58.645, 15 57 C 15 55.900, 14.887 55.055, 14.750 55.123 C 14.613 55.190, 12.925 56.089, 11 57.121" stroke="none" fill="#3467df" fill-rule="evenodd"/>
</svg>