<svg xmlns="http://www.w3.org/2000/svg" width="150" height="150" viewBox="0 0 150 150" version="1.1">
	<rect x="0" y="0" width="100%" height="100%" fill="#bfbfbf" />
	<path d="M 56.139 35.077 C 51.203 36.601, 45.523 40.457, 43.004 43.995 C 40.206 47.924, 38.023 56.036, 38.025 62.500 C 38.026 67.936, 40.971 83.097, 43.269 89.500 C 44.963 94.223, 44.792 94.624, 48.389 77.500 C 51.995 60.334, 53.052 53.893, 52.428 52.884 C 51.685 51.681, 51.863 51.715, 58.593 54.047 C 65.183 56.330, 85.147 60, 90.977 60 C 93.055 60, 95.247 60.593, 95.849 61.318 C 97.644 63.481, 99.095 72.113, 99.861 85.188 L 100.582 97.500 102.712 90.500 C 106.495 78.068, 108.407 67.687, 108.454 59.323 C 108.509 49.494, 106.786 46.424, 99.939 44.155 C 97.498 43.346, 94.934 41.886, 94.241 40.911 C 91.783 37.447, 82.274 34.853, 70.500 34.433 C 64.450 34.217, 57.988 34.507, 56.139 35.077 M 58.391 75.526 C 56.842 77.891, 56.850 78.177, 58.523 80.026 C 61.605 83.431, 66 81.947, 66 77.500 C 66 72.750, 61.051 71.466, 58.391 75.526 M 81.750 74.080 C 78.190 76.153, 80.220 82, 84.500 82 C 88.711 82, 90.449 77.592, 87.429 74.571 C 85.621 72.764, 84.219 72.642, 81.750 74.080 M 63.578 101.874 C 61.366 105.453, 69.704 109.709, 76.449 108.444 C 80.517 107.680, 83.503 104.753, 82.604 102.410 C 82.052 100.972, 81.633 101.103, 79.530 103.373 C 76.128 107.044, 70.059 107.054, 66.665 103.394 C 65.142 101.752, 64.001 101.190, 63.578 101.874 M 54.500 117.525 C 35.347 122.538, 26.815 131.360, 28.452 144.459 L 29.144 150 73.458 150 L 117.773 150 118.455 145.451 C 120.447 132.169, 112.748 122.708, 96.221 118.128 L 88.942 116.111 83.827 118.681 C 79.456 120.876, 77.794 121.177, 72.418 120.745 C 68.656 120.444, 64.792 119.431, 62.812 118.229 C 59.779 116.387, 59.079 116.327, 54.500 117.525" stroke="none" fill="#3467df" fill-rule="evenodd"/>
</svg>