<svg xmlns="http://www.w3.org/2000/svg" width="150" height="150" viewBox="0 0 150 150" version="1.1">
	<rect x="0" y="0" width="100%" height="100%" fill="#bfbfbf" />
	<path d="M 0 75 L 0 150 11.917 150 L 23.833 150 24.747 147.258 L 25.662 144.515 26.350 147.258 L 27.038 150 72.500 150 L 117.962 150 118.596 147.474 C 118.944 146.085, 119.045 142.044, 118.819 138.495 C 118.229 129.237, 114.856 124.669, 105 119.779 C 94.514 114.578, 90.416 114.115, 83.841 117.392 C 76.913 120.844, 71.071 120.825, 63.946 117.325 C 60.951 115.853, 57.433 113.610, 56.129 112.340 C 54.825 111.070, 53.293 110.319, 52.725 110.670 C 52.134 111.035, 51.991 110.823, 52.392 110.175 C 52.777 109.552, 52.573 108.071, 51.939 106.886 C 51.026 105.180, 50.607 105.017, 49.934 106.107 C 49.466 106.864, 49.338 108.500, 49.650 109.742 C 49.962 110.984, 49.822 112, 49.339 112 C 48.856 112, 48.462 110.238, 48.462 108.084 C 48.462 105.930, 48.808 104.381, 49.231 104.643 C 51.274 105.905, 49.639 101.659, 46.867 98.501 C 45.144 96.539, 44.019 94.648, 44.367 94.300 C 44.715 93.952, 45 94.192, 45 94.833 C 45 95.475, 45.408 96, 45.906 96 C 46.405 96, 46.579 95.105, 46.293 94.011 C 46.007 92.917, 45.426 92.237, 45.002 92.499 C 44.578 92.761, 43.723 90.956, 43.101 88.488 C 42.480 86.019, 41.542 84, 41.017 84 C 40.492 84, 40.288 83.414, 40.563 82.697 C 40.838 81.981, 40.374 79.745, 39.531 77.729 C 37.061 71.818, 37.419 53.222, 40.123 46.935 C 41.291 44.221, 42.611 42, 43.056 42 C 43.501 42, 44.148 41.110, 44.493 40.022 C 44.838 38.935, 47.380 36.910, 50.142 35.522 C 54.193 33.488, 56.647 32.997, 62.832 32.986 C 75.964 32.963, 75 34.318, 75 15.883 L 75 0 37.500 0 L 0 0 0 75 M 47.813 32.683 C 48.534 32.972, 49.397 32.936, 49.729 32.604 C 50.061 32.272, 49.471 32.036, 48.417 32.079 C 47.252 32.127, 47.015 32.364, 47.813 32.683 M 34.667 55.667 C 33.834 56.500, 33.999 62.520, 34.964 66.500 C 35.460 68.544, 35.661 67.192, 35.596 62.259 C 35.543 58.277, 35.462 55.014, 35.417 55.009 C 35.371 55.004, 35.033 55.300, 34.667 55.667 M 51.984 68.885 C 48.699 70.662, 48.502 71.059, 48.541 75.848 C 48.572 79.786, 49.116 81.495, 50.965 83.463 C 53.037 85.669, 54.188 86, 59.774 86 C 65.749 86, 66.439 85.761, 69.600 82.600 C 71.470 80.730, 73 78.480, 73 77.600 C 73 76.720, 73.450 76, 74 76 C 74.550 76, 75 76.720, 75 77.600 C 75 78.480, 76.530 80.730, 78.400 82.600 C 81.464 85.664, 82.358 86, 87.445 86 C 94.141 86, 97.443 83.485, 98.559 77.535 C 99.997 69.870, 95.788 66.526, 85.599 67.237 C 80.724 67.578, 79.298 68.115, 77.397 70.325 C 75.115 72.978, 72 73.936, 72 71.985 C 72 71.427, 70.537 70.079, 68.750 68.989 C 64.505 66.401, 56.666 66.352, 51.984 68.885 M 53.223 71.557 C 50.591 73.400, 50.292 77.544, 52.557 80.777 C 53.859 82.637, 55.055 83, 59.882 83 C 64.620 83, 66.040 82.586, 67.826 80.686 C 70.538 77.798, 70.602 74.602, 68 72 C 65.480 69.480, 56.569 69.213, 53.223 71.557 M 80.223 71.557 C 77.272 73.623, 77.316 78.008, 80.314 80.826 C 82.062 82.467, 83.870 83, 87.692 83 C 93.483 83, 94.816 81.909, 95.704 76.439 C 96.181 73.497, 95.917 72.413, 94.464 71.350 C 91.927 69.495, 82.981 69.625, 80.223 71.557 M 56.570 74.204 C 55.255 76.081, 55.227 76.710, 56.383 78.454 C 58.976 82.366, 64 81.129, 64 76.578 C 64 71.956, 59.215 70.427, 56.570 74.204 M 83.750 73.080 C 81.741 74.250, 81.432 78.032, 83.200 79.800 C 85.037 81.637, 88.808 81.228, 89.965 79.066 C 91.371 76.438, 91.271 75.414, 89.429 73.571 C 87.621 71.764, 86.219 71.642, 83.750 73.080 M 34.079 78.583 C 34.127 79.748, 34.364 79.985, 34.683 79.188 C 34.972 78.466, 34.936 77.603, 34.604 77.271 C 34.272 76.939, 34.036 77.529, 34.079 78.583 M 95.553 89.522 C 88.658 105.207, 86.038 108.181, 82.357 104.500 C 79.445 101.588, 71 103.447, 71 107 C 71 108.779, 74.244 110.999, 76.821 110.985 C 80.275 110.966, 86.711 108.721, 88.505 106.910 C 90.983 104.408, 100.112 84.789, 99.801 82.633 C 99.604 81.265, 98.138 83.643, 95.553 89.522 M 40.564 87.707 C 40.022 89.132, 40.136 89.247, 41.124 88.267 C 41.808 87.588, 42.115 86.781, 41.807 86.474 C 41.499 86.166, 40.940 86.721, 40.564 87.707 M 42.079 94.583 C 42.127 95.748, 42.364 95.985, 42.683 95.188 C 42.972 94.466, 42.936 93.603, 42.604 93.271 C 42.272 92.939, 42.036 93.529, 42.079 94.583 M 42.558 112.907 C 42.249 113.405, 42.898 113.578, 43.999 113.290 C 46.334 112.679, 46.629 112, 44.559 112 C 43.766 112, 42.866 112.408, 42.558 112.907 M 45 114.987 C 43.979 115.638, 44.776 115.748, 47.500 115.330 C 52.443 114.572, 53.285 113.995, 49.417 114.015 C 47.813 114.024, 45.825 114.461, 45 114.987 M 45.750 116.689 C 44.788 116.941, 44 117.579, 44 118.109 C 44 118.662, 44.954 118.574, 46.250 117.900 C 50 115.949, 49.862 115.615, 45.750 116.689 M 40.507 119.989 C 40.157 120.555, 40.558 120.723, 41.448 120.382 C 43.180 119.717, 43.497 119, 42.059 119 C 41.541 119, 40.843 119.445, 40.507 119.989 M 35.269 122.352 C 33.312 123.322, 31.455 125.865, 32.226 126.518 C 32.377 126.645, 33.850 125.456, 35.500 123.876 C 38.723 120.789, 38.702 120.650, 35.269 122.352 M 29 129.059 C 29 129.641, 29.450 129.840, 30 129.500 C 30.550 129.160, 31 128.684, 31 128.441 C 31 128.198, 30.550 128, 30 128 C 29.450 128, 29 128.477, 29 129.059 M 24.079 130.583 C 24.127 131.748, 24.364 131.985, 24.683 131.188 C 24.972 130.466, 24.936 129.603, 24.604 129.271 C 24.272 128.939, 24.036 129.529, 24.079 130.583 M 26 130 C 26 130.550, 26.480 131, 27.067 131 C 27.690 131, 27.878 131.938, 27.520 133.250 C 27.012 135.106, 27.088 135.208, 27.954 133.836 C 28.531 132.921, 28.729 131.458, 28.395 130.586 C 27.724 128.838, 26 128.416, 26 130 M 24.500 135 C 24.125 136.183, 24.042 137.376, 24.317 137.651 C 24.592 137.926, 25.125 137.183, 25.500 136 C 25.875 134.817, 25.958 133.624, 25.683 133.349 C 25.408 133.074, 24.875 133.817, 24.500 135 M 24.079 142.583 C 24.127 143.748, 24.364 143.985, 24.683 143.188 C 24.972 142.466, 24.936 141.603, 24.604 141.271 C 24.272 140.939, 24.036 141.529, 24.079 142.583 M 27.079 145.583 C 27.127 146.748, 27.364 146.985, 27.683 146.188 C 27.972 145.466, 27.936 144.603, 27.604 144.271 C 27.272 143.939, 27.036 144.529, 27.079 145.583" stroke="none" fill="#3467df" fill-rule="evenodd"/>
</svg>