<svg xmlns="http://www.w3.org/2000/svg" width="420" height="280" viewBox="0 0 420 280" version="1.1">
	<rect x="0" y="0" width="100%" height="100%" fill="#bfbfbf" />
	<path d="M 0 140 L 0 280 54.464 280 L 108.929 280 106.893 277.750 C 101.334 271.605, 96 263.910, 96 262.036 C 96 260.882, 95.313 259.674, 94.473 259.351 C 92.054 258.423, 88.183 250.880, 87.878 246.500 C 87.714 244.148, 86.652 241.336, 85.300 239.673 C 84.035 238.119, 83 235.644, 82.999 234.173 C 82.998 230.780, 79.884 222.513, 77.603 219.850 C 75.952 217.921, 75.951 217.712, 77.585 215.906 C 81.489 211.592, 89.022 214.275, 92.834 221.338 C 94.300 224.055, 96.056 227.228, 96.735 228.389 C 97.415 229.550, 97.977 231.287, 97.985 232.250 C 97.993 233.213, 98.450 234, 99 234 C 99.550 234, 100 235.313, 100 236.917 C 100 238.521, 100.399 239.983, 100.886 240.167 C 101.374 240.350, 103.403 244.453, 105.396 249.285 C 109.075 258.206, 110.747 261.201, 118.771 273.250 L 123.266 280 129.255 280 L 135.244 280 133.620 277.750 C 132.726 276.513, 129.914 271.450, 127.370 266.500 C 124.827 261.550, 121.402 255.623, 119.761 253.330 C 118.119 251.036, 115.934 246.123, 114.905 242.412 C 113.876 238.701, 112.027 234.593, 110.797 233.284 C 109.567 231.975, 107.982 229.688, 107.275 228.202 L 105.989 225.500 106.498 228.189 C 107.261 232.218, 105.735 232.294, 102.614 228.383 C 99.148 224.039, 98.251 220.832, 98.788 214.709 L 99.208 209.918 101.025 213.307 C 102.024 215.171, 103.344 218.565, 103.959 220.848 C 105.408 226.230, 106.646 226.176, 106.217 220.750 C 105.978 217.714, 106.165 216.914, 106.872 217.948 C 107.661 219.101, 108.009 218.814, 108.579 216.542 C 109.085 214.524, 108.860 213.368, 107.810 212.594 C 106.993 211.992, 106.514 210.938, 106.746 210.250 C 106.977 209.563, 106.502 209, 105.690 209 C 103.867 209, 102.964 206.853, 103.663 204.179 C 104.353 201.541, 101.443 191.613, 99.510 190.008 C 97.144 188.045, 97.728 184.380, 101 180.653 C 102.650 178.774, 104 176.733, 104 176.118 C 104 175.503, 104.967 175, 106.148 175 C 108.224 175, 108.275 174.722, 107.654 166.750 C 107.301 162.213, 107.009 157.232, 107.006 155.682 L 107 152.864 103.750 155.088 C 101.963 156.311, 98.866 159.040, 96.869 161.152 L 93.238 164.992 88.715 162.464 C 82.309 158.884, 81.547 157.720, 84.099 155.410 C 86.155 153.550, 86.220 153.553, 87.853 155.570 C 89.228 157.268, 90.076 157.478, 92.761 156.782 C 95.969 155.951, 95.988 155.911, 94.355 153.419 C 93.200 151.656, 92.386 151.214, 91.651 151.949 C 90.374 153.226, 86.657 153.363, 87.435 152.105 C 88.105 151.021, 85.699 150, 82.477 150 C 81.180 150, 79.821 149.519, 79.458 148.932 C 79.095 148.344, 78.118 148.124, 77.288 148.443 C 76.237 148.846, 75.954 148.563, 76.357 147.511 C 76.676 146.680, 76.469 146, 75.897 146 C 74.249 146, 72.500 143.683, 72.500 141.500 C 72.500 140.344, 71.928 139.620, 71.145 139.785 C 69.050 140.226, 67.422 138.398, 64.597 132.431 C 60.741 124.287, 61.264 122.912, 66.250 128.088 C 68.587 130.515, 70.200 132.951, 69.833 133.503 C 68.807 135.044, 71.677 138.338, 73.452 137.657 C 75.181 136.993, 75.485 133.298, 74 131 C 73.467 130.175, 73.024 129.844, 73.015 130.264 C 73.007 130.684, 71.171 129.818, 68.936 128.339 C 65.481 126.053, 64.966 125.272, 65.502 123.136 C 65.849 121.754, 66.835 120.110, 67.693 119.483 C 69.037 118.500, 69.066 118.006, 67.899 115.921 L 66.544 113.500 66.205 115.730 C 66.019 116.956, 64.483 118.944, 62.793 120.148 C 59.829 122.258, 59.671 122.270, 58.372 120.494 C 57.632 119.481, 56.750 117.187, 56.414 115.396 C 56.078 113.604, 55.173 111.896, 54.402 111.601 C 52.898 111.024, 52.379 104, 53.840 104 C 54.302 104, 55.250 105.728, 55.947 107.840 C 56.893 110.707, 58.126 112.094, 60.806 113.308 C 62.781 114.204, 64.591 114.742, 64.828 114.506 C 65.065 114.269, 64.150 113.570, 62.794 112.952 C 60.256 111.796, 57.295 107.648, 56.664 104.365 C 56.467 103.339, 55.776 101.205, 55.129 99.623 C 53.694 96.112, 52.474 82.814, 53.372 80.472 C 53.868 79.179, 54.344 79.040, 55.367 79.889 C 56.462 80.798, 56.819 79.695, 57.304 73.916 C 57.631 70.017, 58.426 66.191, 59.071 65.414 C 59.986 64.312, 59.942 63.997, 58.872 63.985 C 57.794 63.973, 57.822 63.761, 59 63 C 60.178 62.239, 60.206 62.027, 59.128 62.015 C 58.026 62.003, 57.999 61.706, 58.989 60.513 C 59.668 59.695, 59.993 58.425, 59.712 57.691 C 58.920 55.627, 63.290 47.807, 65.742 46.900 C 67.775 46.148, 67.887 46.319, 67.297 49.295 C 66.722 52.200, 66.819 52.372, 68.331 51.128 C 70.179 49.608, 70.553 46.460, 69 45.500 C 68.450 45.160, 68 44.403, 68 43.819 C 68 43.148, 68.554 43.215, 69.500 44 C 70.325 44.685, 71 45.934, 71 46.776 C 71 47.618, 72.074 50.600, 73.387 53.404 C 74.699 56.207, 76.077 60.075, 76.449 62 C 77.607 67.996, 79.144 71, 81.055 71 C 82.281 71, 82.970 70.123, 83.184 68.292 C 83.412 66.338, 84.542 65.037, 87.244 63.619 C 89.303 62.539, 90.807 61.474, 90.587 61.253 C 90.366 61.033, 88.816 61.561, 87.143 62.426 C 85.469 63.292, 83.453 64, 82.663 64 C 80.651 64, 79.918 57.990, 81.629 55.527 C 83.555 52.757, 83.410 52.405, 79.750 50.954 C 74.325 48.802, 74.090 48.410, 75.455 43.786 C 76.987 38.597, 80.536 35.582, 91.447 30.198 C 100.055 25.951, 114.268 21.429, 115.879 22.425 C 117.253 23.274, 118.061 36.686, 117.240 45 C 116.574 51.751, 116.275 52.532, 114.250 52.820 C 111.232 53.248, 111.416 54.836, 114.984 59.164 C 118.688 63.658, 120 67.017, 120 72.006 C 120 76.337, 121.335 77.797, 123.586 75.928 C 125.889 74.018, 127.514 76.170, 125.961 79.073 C 124.782 81.277, 124.687 81.292, 123.368 79.489 C 121.318 76.685, 121.686 78.781, 125.016 88.888 C 129.761 103.285, 131.025 106, 132.986 106 C 133.959 106, 135.324 106.686, 136.020 107.524 C 136.716 108.362, 137.517 108.816, 137.800 108.533 C 138.084 108.249, 138.985 108.572, 139.802 109.251 C 141.060 110.295, 141.183 110.153, 140.604 108.326 C 140.227 107.139, 140.345 105.905, 140.865 105.583 C 141.386 105.261, 141.577 104.098, 141.289 102.999 C 140.926 101.609, 141.259 101, 142.383 101 C 143.273 101, 144 101.364, 144 101.809 C 144 102.254, 144.634 103.485, 145.410 104.546 C 146.793 106.437, 146.858 106.438, 148.910 104.582 C 151.458 102.276, 151.607 100.775, 149.250 101.160 C 147.225 101.490, 142.843 98.064, 143.640 96.773 C 143.936 96.294, 144.779 96.402, 145.513 97.011 C 146.558 97.878, 147.731 96.925, 150.904 92.630 C 153.135 89.611, 156.116 84.698, 157.529 81.714 C 159.706 77.115, 160.681 76.113, 163.915 75.144 C 166.014 74.515, 169.647 74, 171.988 74 C 175.625 74, 176.067 73.785, 175.022 72.526 C 173.964 71.252, 170.504 70.263, 165 69.664 C 164.175 69.574, 163.613 70.063, 163.750 70.750 C 164.163 72.816, 162.184 72.157, 161.500 70 C 161.151 68.900, 160.397 68, 159.826 68 C 159.254 68, 159.024 68.620, 159.315 69.378 C 159.878 70.846, 158.263 73, 156.600 73 C 156.044 73, 156.133 72.467, 156.800 71.800 C 158.688 69.912, 158.203 68.821, 156 70 C 151.862 72.215, 153.962 67.650, 159.590 62.199 L 165.180 56.784 172.087 57.175 C 176.838 57.443, 179.522 58.094, 180.687 59.259 C 182.900 61.471, 182.440 61.805, 175.413 63.085 C 169.266 64.204, 167.084 65.316, 168.869 66.419 C 169.443 66.774, 171.505 66.398, 173.452 65.585 C 178.280 63.567, 185.159 63.890, 185.753 66.162 C 186.001 67.111, 187.137 68.025, 188.277 68.194 C 190.930 68.586, 195.077 76.112, 193.849 78.306 C 193.231 79.410, 193.722 80.422, 195.588 81.890 C 197.793 83.625, 198.051 84.346, 197.289 86.633 C 196.629 88.614, 195.679 89.361, 193.713 89.447 C 190.298 89.597, 188.722 91.193, 188.517 94.710 C 188.428 96.245, 187.991 101.674, 187.546 106.776 C 186.842 114.857, 186.959 116.297, 188.450 117.945 C 190.128 119.799, 190.231 119.796, 193.602 117.807 C 195.493 116.691, 198.726 115.400, 200.785 114.937 C 207.721 113.378, 214 110.060, 214 107.953 C 214 106.879, 214.597 106, 215.326 106 C 218.077 106, 220.815 101.655, 220.489 97.807 C 219.574 87.040, 214.448 78.385, 207.905 76.563 C 205.654 75.936, 205.676 76.008, 208.250 77.678 C 211.555 79.824, 211.689 80.647, 208.875 81.540 C 206.581 82.268, 205.042 80.752, 205.015 77.741 C 205.007 76.774, 203.650 74.119, 202 71.841 C 198.493 67, 198.235 65.622, 201 66.500 C 202.100 66.849, 203 66.690, 203 66.147 C 203 65.603, 201.565 64.844, 199.812 64.459 C 198.058 64.073, 194.121 62.071, 191.062 60.010 C 188.003 57.948, 184.150 55.806, 182.500 55.250 L 179.500 54.238 182.466 53.062 C 184.829 52.125, 185.134 51.696, 183.966 50.958 C 183.160 50.448, 181.094 50.024, 179.376 50.015 C 177.658 50.007, 174.283 48.912, 171.876 47.583 C 169.469 46.253, 165.604 44.665, 163.287 44.054 C 160.969 43.443, 158.422 42.013, 157.626 40.876 C 156.577 39.379, 155.582 38.998, 154.015 39.495 C 150.298 40.675, 146.151 38.203, 145.021 34.135 C 143.680 29.307, 143.730 28.423, 145.544 24.914 C 146.984 22.130, 146.950 21.752, 145.044 19.329 C 143.786 17.730, 143 15.244, 143 12.865 C 143 8.525, 141.371 7.672, 140.409 11.507 C 140.016 13.070, 140.386 14.940, 141.390 16.472 C 143.983 20.430, 143.250 21.036, 139.784 17.798 C 136.521 14.750, 134.467 15.567, 137.245 18.808 C 139.121 20.995, 140.097 23.784, 139.129 24.185 C 137.493 24.864, 133 38.254, 133 42.452 C 133 47.578, 134.190 48.761, 137.299 46.724 C 139.822 45.071, 142.602 45.765, 145.248 48.709 C 146.429 50.023, 147.183 53.060, 147.573 58.077 C 148.057 64.310, 147.763 66.620, 145.737 72.486 C 143.374 79.327, 143.238 79.488, 139.162 80.295 C 134.739 81.169, 134.097 82.424, 136.469 85.559 C 137.527 86.957, 137.766 88.860, 137.325 92.363 C 136.756 96.877, 136.854 97.181, 138.685 96.600 C 140.427 96.047, 140.604 96.356, 140.203 99.237 C 139.953 101.032, 139.352 103, 138.868 103.610 C 137.517 105.313, 133 104.067, 133 101.990 C 133 101.013, 132.396 99.982, 131.658 99.699 C 130.919 99.415, 129.530 97.530, 128.571 95.508 C 127.119 92.447, 127.028 91.347, 128.029 88.930 C 128.737 87.221, 128.975 84.274, 128.608 81.764 C 128.266 79.419, 127.730 75.263, 127.417 72.528 C 127.052 69.332, 125.593 65.522, 123.334 61.862 L 119.820 56.169 121.006 48.834 C 121.658 44.800, 122.551 38.425, 122.989 34.666 C 123.622 29.246, 124.347 27.247, 126.494 25.006 C 128.590 22.819, 128.979 21.785, 128.219 20.428 C 127.541 19.216, 127.665 17.653, 128.619 15.369 C 129.379 13.551, 130 10.737, 130 9.115 C 130 7.494, 130.562 5.901, 131.250 5.577 C 131.938 5.253, 131.201 5.240, 129.614 5.547 C 126.850 6.083, 126.754 5.978, 127.339 3.053 L 127.950 0 63.975 0 L 0 0 0 140 M 142.376 0.709 C 143.090 1.424, 151.141 1.171, 151.917 0.409 C 152.146 0.184, 149.933 -0, 147 -0 C 144.067 -0, 141.986 0.319, 142.376 0.709 M 154.500 1 C 155.600 1.473, 157.400 1.859, 158.500 1.859 L 160.500 1.859 158.500 1 C 157.400 0.527, 155.600 0.141, 154.500 0.141 L 152.500 0.141 154.500 1 M 161.500 1 C 161.840 1.550, 163.329 1.993, 164.809 1.985 C 166.914 1.973, 167.173 1.758, 166 1 C 164.024 -0.277, 160.711 -0.277, 161.500 1 M 189.477 2.394 C 188.417 4.012, 187.275 4.623, 185.954 4.278 C 183.422 3.616, 183.394 5.673, 185.924 6.476 C 186.982 6.812, 188.903 8.873, 190.193 11.057 L 192.538 15.028 192.519 7.519 C 192.508 3.389, 192.173 0.008, 191.773 0.005 C 191.373 0.002, 190.340 1.077, 189.477 2.394 M 218.250 1.162 C 219.762 1.715, 221 2.654, 221 3.250 C 221 3.846, 221.236 4.098, 221.524 3.810 C 222.839 2.495, 220.584 0.006, 218.143 0.079 L 215.500 0.158 218.250 1.162 M 224.503 0.791 C 225.846 1.984, 241.633 8.128, 245.728 9.051 C 247.536 9.459, 249 9.389, 249 8.895 C 249 7.525, 250.686 7.829, 252.357 9.500 C 253.182 10.325, 254.281 11, 254.799 11 C 255.318 11, 256.058 13.797, 256.445 17.215 C 256.832 20.634, 257.396 23.832, 257.699 24.322 C 258.632 25.832, 259.969 22.691, 259.985 18.949 C 259.993 16.997, 260.563 14.170, 261.250 12.669 C 262.267 10.449, 262.966 10.049, 265 10.527 C 268.001 11.233, 276.733 16.830, 283.173 22.177 C 288.033 26.213, 289.715 25.984, 288.575 21.443 C 288.225 20.049, 288.400 19, 288.981 19 C 289.541 19, 290 18.325, 290 17.500 C 290 16.675, 289.550 16, 289 16 C 288.450 16, 288 15.316, 288 14.480 C 288 12.438, 283.874 6.088, 280.541 3 L 277.842 0.500 250.674 0.203 C 234.846 0.030, 223.922 0.275, 224.503 0.791 M 383.545 2.250 C 383.274 3.488, 382.843 8.136, 382.586 12.579 C 381.811 26.026, 379.946 29.144, 364.983 42 C 361.285 45.177, 358.913 48.338, 356.914 52.750 C 355.357 56.188, 353.647 59, 353.113 59 C 352.579 59, 350.423 60.631, 348.321 62.625 C 346.220 64.619, 343.488 66.920, 342.250 67.740 C 341.012 68.559, 340 69.853, 340 70.615 C 340 71.377, 339.373 72, 338.607 72 C 337.841 72, 336.955 72.675, 336.638 73.500 C 336.322 74.325, 335.558 75, 334.942 75 C 332.747 75, 328 80.481, 328.015 82.997 C 328.024 84.374, 328.361 85.050, 328.765 84.500 C 330.104 82.678, 334.222 80.822, 335.050 81.668 C 335.498 82.126, 336.007 83.850, 336.182 85.500 C 336.444 87.967, 336.100 88.557, 334.250 88.820 C 332.967 89.002, 332 89.840, 332 90.770 C 332 92.038, 331.733 92.133, 330.800 91.200 C 329.240 89.640, 327.869 89.665, 328.075 91.250 C 328.612 95.386, 326.362 96.410, 324.232 93 C 322.807 90.718, 320 90.309, 320 92.384 C 320 93.903, 327.409 101, 328.995 101 C 330.768 101, 334.824 96.839, 335.438 94.390 C 336.262 91.107, 337.629 91.393, 338.350 95 C 338.680 96.650, 339.459 98, 340.082 98 C 340.712 98, 340.940 97.286, 340.596 96.389 C 340.153 95.236, 340.407 94.942, 341.489 95.357 C 342.320 95.676, 343 95.571, 343 95.124 C 343 94.677, 344.063 93.074, 345.363 91.561 C 346.663 90.049, 348.309 86.379, 349.023 83.406 C 349.736 80.433, 350.746 78, 351.267 78 C 351.788 78, 351.946 77.302, 351.618 76.448 C 351.233 75.443, 351.426 75.145, 352.168 75.604 C 352.982 76.107, 353.127 75.383, 352.670 73.099 C 352.080 70.151, 352.308 69.769, 355.445 68.458 C 357.325 67.673, 359.175 66.525, 359.557 65.908 C 360.050 65.110, 360.484 65.166, 361.064 66.103 C 361.721 67.167, 362.226 67.113, 363.689 65.821 C 365.758 63.994, 369.649 64.921, 370.629 67.476 C 370.951 68.314, 371.790 69, 372.493 69 C 373.197 69, 374.611 70.687, 375.636 72.750 C 377.359 76.216, 377.474 78.852, 377.152 107.500 C 376.511 164.665, 376.334 171.453, 375.200 182.283 C 374.580 188.213, 374.019 201.340, 373.956 211.452 L 373.840 229.839 380.021 247.821 L 386.202 265.803 389.351 264.891 C 391.083 264.389, 395.200 263.545, 398.500 263.015 C 401.800 262.484, 407.988 261.268, 412.250 260.311 L 420 258.571 420 129.286 L 420 0 402.019 0 C 384.185 0, 384.034 0.018, 383.545 2.250 M 132.500 3 C 132.160 3.550, 132.359 4, 132.941 4 C 133.523 4, 134 3.550, 134 3 C 134 2.450, 133.802 2, 133.559 2 C 133.316 2, 132.840 2.450, 132.500 3 M 216.404 10.660 C 214.438 13.294, 214.391 13.302, 211.678 11.525 C 210.171 10.537, 208.685 9.982, 208.376 10.291 C 207.586 11.081, 213.490 14, 215.877 14 C 217.074 14, 218.444 12.817, 219.350 11 C 221.293 7.106, 219.235 6.869, 216.404 10.660 M 225 10 C 222.622 10.762, 222.657 10.805, 225.720 10.900 C 228.072 10.973, 229.538 11.809, 231.158 14 C 232.727 16.122, 234.217 17, 236.247 17 C 237.906 17, 238.857 16.578, 238.500 16 C 238.160 15.450, 237.121 14.993, 236.191 14.984 C 235.261 14.975, 232.977 13.625, 231.114 11.984 C 229.252 10.343, 227.677 9.045, 227.614 9.100 C 227.552 9.155, 226.375 9.560, 225 10 M 194 15.393 C 194 16.342, 196.993 16.820, 197.527 15.956 C 197.852 15.430, 197.191 15, 196.059 15 C 194.927 15, 194 15.177, 194 15.393 M 245.500 16 C 245.840 16.550, 246.568 17, 247.118 17 C 247.668 17, 247.840 16.550, 247.500 16 C 247.160 15.450, 246.432 15, 245.882 15 C 245.332 15, 245.160 15.450, 245.500 16 M 174.931 18.715 C 174.893 19.147, 174.699 20.738, 174.499 22.250 C 174.083 25.402, 175.045 25.672, 178.535 23.385 C 181.050 21.737, 182.018 18.468, 179.750 19.282 C 179.063 19.528, 177.713 19.325, 176.750 18.830 C 175.787 18.335, 174.969 18.283, 174.931 18.715 M 194.818 20.500 C 194.192 21.875, 193.245 23, 192.714 23 C 192.179 23, 192.013 24.316, 192.341 25.954 C 192.838 28.438, 192.424 29.306, 189.746 31.401 C 185.594 34.651, 186.862 35.867, 191.447 33.033 C 193.586 31.711, 195 30.047, 195 28.853 C 195 27.761, 195.388 26.111, 195.862 25.184 C 196.336 24.258, 197.019 22.262, 197.381 20.750 C 198.214 17.266, 196.373 17.086, 194.818 20.500 M 190.079 20.583 C 190.127 21.748, 190.364 21.985, 190.683 21.188 C 190.972 20.466, 190.936 19.603, 190.604 19.271 C 190.272 18.939, 190.036 19.529, 190.079 20.583 M 167.296 22.611 C 166.633 24.038, 166.350 26.501, 166.667 28.085 L 167.243 30.963 170.233 28.834 C 172.635 27.124, 172.933 26.542, 171.746 25.878 C 170.812 25.355, 170.445 24.121, 170.750 22.525 C 171.402 19.116, 168.889 19.178, 167.296 22.611 M 206.819 30.245 C 202.604 34.849, 201.965 35.216, 200.406 33.929 C 198.906 32.691, 198.738 32.691, 199.147 33.929 C 199.407 34.714, 200.408 35.839, 201.372 36.429 C 202.821 37.314, 203.648 36.855, 206.129 33.788 C 208.654 30.668, 209.581 30.166, 211.945 30.639 C 213.522 30.954, 215.056 30.718, 215.438 30.101 C 215.822 29.480, 215.439 29, 214.559 29 C 213.667 29, 213 28.145, 213 27 C 213 24.056, 212.006 24.578, 206.819 30.245 M 225.648 26.760 C 225.331 27.274, 226.389 28.956, 227.999 30.499 C 230.449 32.846, 231.179 33.096, 232.464 32.030 C 234.574 30.279, 234.435 27.003, 232.250 26.986 C 231.287 26.979, 229.538 26.715, 228.363 26.399 C 227.187 26.084, 225.966 26.246, 225.648 26.760 M 160.432 32.075 C 158.565 34.138, 158.572 34.146, 161.527 33.437 C 165.444 32.497, 166.148 32.048, 165.457 30.931 C 164.509 29.397, 162.427 29.871, 160.432 32.075 M 226.362 35.500 C 226.045 36.325, 224.730 37, 223.440 37 C 220.712 37, 216 38.964, 216 40.101 C 216 42.037, 218.368 41.981, 221.783 39.965 L 225.500 37.771 228 41.002 C 234.331 49.185, 234.808 49.618, 235.510 47.811 C 235.872 46.882, 235.486 44.857, 234.653 43.311 C 233.820 41.765, 232.455 39.038, 231.620 37.250 C 230.028 33.842, 227.341 32.948, 226.362 35.500 M 245.201 38.796 C 242.967 39.142, 242.994 39.231, 246.176 42.010 C 249.300 44.737, 249.394 45.023, 248.225 48.255 C 246.429 53.222, 246.625 53.684, 250.808 54.353 C 253.001 54.704, 255.629 56.041, 257.005 57.505 C 259.067 59.700, 259.514 59.832, 260.276 58.472 C 261.496 56.291, 259.380 54.003, 256.128 53.986 C 254.682 53.979, 252.464 53.695, 251.198 53.356 C 247.784 52.442, 248.664 48.806, 252.567 47.691 C 256.035 46.701, 259.129 43, 256.489 43 C 255.648 43, 253.282 41.974, 251.230 40.720 C 249.179 39.466, 246.466 38.600, 245.201 38.796 M 160.441 54.572 C 158.604 56.059, 158.680 56.113, 161.875 55.572 C 163.731 55.257, 165.869 55, 166.625 55 C 167.381 55, 168 54.550, 168 54 C 168 52.424, 162.587 52.834, 160.441 54.572 M 69 58 C 69 58.550, 69.450 59, 70 59 C 70.550 59, 71 58.550, 71 58 C 71 57.450, 70.550 57, 70 57 C 69.450 57, 69 57.450, 69 58 M 314.157 62.871 C 312.248 69.241, 311.642 75.661, 312.878 76.425 C 313.534 76.830, 314.448 75.959, 315.103 74.306 C 316.390 71.059, 317.533 68.754, 319.146 66.151 C 320.730 63.597, 319.439 59, 317.139 59 C 315.889 59, 314.952 60.216, 314.157 62.871 M 66 63.500 C 66 64.325, 66.450 65, 67 65 C 67.550 65, 68 64.325, 68 63.500 C 68 62.675, 67.550 62, 67 62 C 66.450 62, 66 62.675, 66 63.500 M 163.500 67 C 162.718 68.266, 164.042 68.266, 166 67 C 167.293 66.165, 167.266 66.029, 165.809 66.015 C 164.879 66.007, 163.840 66.450, 163.500 67 M 68 68.227 C 68 70.050, 69.773 71.561, 70.757 70.576 C 71.100 70.233, 70.620 69.192, 69.690 68.262 C 68.132 66.703, 68 66.700, 68 68.227 M 283.250 70.820 C 282.012 70.995, 281 71.563, 281 72.081 C 281 72.620, 279.292 72.751, 277.011 72.386 C 272.206 71.617, 267.710 73.267, 265.526 76.601 C 264.661 77.921, 263.495 79, 262.935 79 C 261.889 79, 261.637 79.174, 256.500 83.444 C 252.776 86.539, 254.299 86.749, 259 83.789 C 262.379 81.661, 266.167 79.993, 272.526 77.831 C 274.654 77.107, 276.805 77.140, 279.776 77.940 C 284.569 79.230, 285.058 80.367, 281.617 82.218 C 279.242 83.496, 271 90.627, 271 91.404 C 271 91.629, 272.611 91.318, 274.580 90.714 C 277.989 89.668, 278.320 89.786, 281.531 93.189 C 286.664 98.630, 286.880 101.091, 282.518 104.418 C 280.531 105.934, 275.406 108.451, 271.131 110.012 C 257.846 114.860, 249.102 121, 255.482 121 C 256.939 121, 259.045 121.489, 260.161 122.086 C 261.732 122.927, 263.470 122.709, 267.845 121.124 C 270.955 119.997, 276.200 118.606, 279.500 118.033 C 282.800 117.460, 286.017 116.295, 286.649 115.443 C 287.345 114.505, 287.941 114.322, 288.160 114.980 C 288.370 115.611, 289.960 115.005, 291.955 113.533 C 293.844 112.140, 295.045 111, 294.626 111 C 294.207 111, 294.794 109.693, 295.932 108.096 C 297.069 106.498, 298 104.981, 298 104.723 C 298 104.466, 296.200 103.968, 294 103.616 C 290.051 102.985, 289.392 102.071, 289.974 98.037 C 290.091 97.232, 291.379 95.548, 292.838 94.294 C 294.979 92.454, 295.283 91.676, 294.415 90.257 C 293.223 88.309, 294.420 82, 295.982 82 C 296.490 82, 297.359 80.361, 297.912 78.357 C 298.975 74.506, 297.988 71.133, 295.715 70.847 C 293.189 70.530, 285.411 70.513, 283.250 70.820 M 214.526 72.395 C 215.926 73.419, 216.390 74.881, 216.270 77.895 C 216.180 80.153, 216.532 82, 217.053 82 C 218.815 82, 218.098 74.399, 216.171 72.655 C 215.165 71.745, 213.954 71, 213.480 71 C 213.006 71, 213.476 71.628, 214.526 72.395 M 148.079 73.583 C 148.127 74.748, 148.364 74.985, 148.683 74.188 C 148.972 73.466, 148.936 72.603, 148.604 72.271 C 148.272 71.939, 148.036 72.529, 148.079 73.583 M 177 74.094 C 177 74.592, 177.170 75, 177.378 75 C 177.586 75, 179.372 75.675, 181.347 76.500 C 184.233 77.706, 184.836 77.736, 184.420 76.653 C 183.819 75.087, 177 72.734, 177 74.094 M 76.500 75 C 76.840 75.550, 77.541 76, 78.059 76 C 78.577 76, 79 75.550, 79 75 C 79 74.450, 78.298 74, 77.441 74 C 76.584 74, 76.160 74.450, 76.500 75 M 154 75 C 153.099 75.582, 152.975 75.975, 153.691 75.985 C 154.346 75.993, 155.160 75.550, 155.500 75 C 156.267 73.758, 155.921 73.758, 154 75 M 247.283 78 C 246.715 79.375, 245.927 82.525, 245.532 85 C 245.117 87.601, 243.587 91.058, 241.907 93.191 C 240.308 95.222, 239 97.333, 239 97.882 C 239 100.321, 241.350 99.930, 244.120 97.032 C 246.579 94.459, 247.014 93.338, 246.486 90.934 C 246.087 89.120, 246.482 86.306, 247.514 83.603 C 249.380 78.718, 249.162 73.447, 247.283 78 M 315.393 77.582 C 315.727 78.452, 316 79.352, 316 79.582 C 316 79.812, 316.408 80, 316.906 80 C 317.405 80, 317.577 79.100, 317.290 78 C 317.002 76.900, 316.321 76, 315.776 76 C 315.232 76, 315.059 76.712, 315.393 77.582 M 146.731 78.920 C 146.296 80.583, 146.426 80.974, 147.168 80.232 C 147.750 79.650, 148.028 78.585, 147.788 77.863 C 147.538 77.114, 147.085 77.568, 146.731 78.920 M 76.425 80.879 C 77.159 82.066, 81 83.018, 81 82.013 C 81 81.184, 78.565 80, 76.859 80 C 76.322 80, 76.127 80.396, 76.425 80.879 M 141.750 82.662 C 142.438 82.940, 143.563 82.940, 144.250 82.662 C 144.938 82.385, 144.375 82.158, 143 82.158 C 141.625 82.158, 141.063 82.385, 141.750 82.662 M 83.500 85 C 83.160 85.550, 83.359 86, 83.941 86 C 84.523 86, 85 85.550, 85 85 C 85 84.450, 84.802 84, 84.559 84 C 84.316 84, 83.840 84.450, 83.500 85 M 81.083 90.250 C 80.591 91.547, 80.621 92.986, 81.153 93.648 C 81.660 94.279, 82.131 97.429, 82.199 100.648 C 82.266 103.867, 82.761 107.071, 83.299 107.769 C 83.968 108.638, 83.761 109.607, 82.638 110.847 C 80.615 113.083, 80.500 115.129, 82.439 114.385 C 83.468 113.990, 84.073 114.874, 84.564 117.491 C 85.347 121.663, 83.836 124.236, 81.800 122.200 C 80.167 120.567, 79 120.692, 79 122.500 C 79 123.359, 79.901 124, 81.108 124 C 82.870 124, 83.111 124.420, 82.576 126.552 C 81.986 128.903, 82.103 129.015, 84.056 127.970 C 85.612 127.137, 86.022 126.223, 85.597 124.532 C 85.161 122.793, 85.506 122.101, 87.005 121.709 C 89.455 121.068, 90.657 118.257, 89.133 116.733 C 88.289 115.889, 88 116.289, 88 118.300 C 88 119.785, 87.592 121, 87.094 121 C 85.996 121, 86.859 117.061, 88.394 115.058 C 89.224 113.975, 89.201 113.796, 88.300 114.336 C 86.136 115.635, 84.731 109.343, 86.102 104.500 C 86.258 103.950, 86.035 100.013, 85.608 95.750 C 85.031 90.013, 84.454 88, 83.382 88 C 82.587 88, 81.552 89.013, 81.083 90.250 M 248 89.500 C 247.306 90.337, 247.197 91, 247.755 91 C 248.305 91, 249.315 90.325, 250 89.500 C 250.694 88.663, 250.803 88, 250.245 88 C 249.695 88, 248.685 88.675, 248 89.500 M 72 90 C 72 90.550, 72.675 91, 73.500 91 C 74.325 91, 75 90.550, 75 90 C 75 89.450, 74.325 89, 73.500 89 C 72.675 89, 72 89.450, 72 90 M 59.067 90.500 C 59.074 92.266, 61.926 96.638, 61.965 94.941 C 61.984 94.084, 61.339 92.509, 60.532 91.441 C 59.724 90.374, 59.065 89.950, 59.067 90.500 M 68.675 94.658 C 68.313 95.020, 68.514 95.915, 69.121 96.646 C 69.953 97.649, 69.830 98.128, 68.618 98.593 C 67.735 98.932, 67.255 99.603, 67.552 100.084 C 68.512 101.638, 71.750 98.748, 71.750 96.338 C 71.750 94.123, 70.107 93.226, 68.675 94.658 M 104.115 97.538 C 100.054 99.442, 96.102 101, 95.334 101 C 94.566 101, 93.683 101.787, 93.372 102.750 C 93.061 103.713, 92.113 105.887, 91.266 107.583 C 89.838 110.440, 89.887 111.152, 91.945 117.334 C 93.721 122.671, 94.652 124.126, 96.608 124.617 C 97.953 124.954, 99.491 126.049, 100.026 127.049 C 101.292 129.414, 101.277 133.711, 100 134.500 C 99.450 134.840, 99 136.040, 99 137.166 C 99 138.513, 98.520 139.030, 97.597 138.676 C 96.360 138.201, 90.557 139.581, 85.884 141.461 C 84.759 141.914, 83.593 141.106, 82.050 138.806 L 79.834 135.500 80.432 138.952 C 80.761 140.850, 82.035 143.472, 83.261 144.778 C 85.272 146.919, 86.084 147.097, 91.496 146.591 C 102.572 145.556, 103.943 145.638, 105.956 147.460 C 108.591 149.845, 111.375 148.789, 110.451 145.755 C 110.073 144.515, 109.222 142.825, 108.559 142 C 107.897 141.175, 106.739 138.475, 105.986 136 C 105.233 133.525, 103.803 129.932, 102.809 128.015 C 101.814 126.098, 101 123.985, 101 123.320 C 101 122.655, 99.400 118.599, 97.443 114.306 L 93.887 106.502 96.693 104.235 C 99.242 102.176, 107.641 99, 110.536 99 C 111.181 99, 112.712 102.378, 113.937 106.508 C 116.267 114.354, 118.531 116.143, 116.783 108.756 C 116.229 106.415, 115.261 102.287, 114.633 99.582 C 114.004 96.876, 113.042 94.531, 112.495 94.370 C 111.948 94.208, 108.177 95.634, 104.115 97.538 M 62 98 C 62 98.550, 62.423 99, 62.941 99 C 63.459 99, 64.160 98.550, 64.500 98 C 64.840 97.450, 64.416 97, 63.559 97 C 62.702 97, 62 97.450, 62 98 M 159 101.640 C 159 105.122, 161.631 106.934, 165.724 106.270 C 168.533 105.814, 169 106.031, 169 107.788 C 169 109.039, 170.322 110.654, 172.394 111.934 C 174.260 113.088, 176.524 115.585, 177.425 117.484 C 178.326 119.383, 179.663 121.288, 180.396 121.718 C 182.478 122.940, 185.055 128.692, 184.347 130.538 C 183.868 131.786, 184.182 132.112, 185.604 131.841 C 186.658 131.640, 187.642 130.485, 187.820 129.240 C 188.048 127.640, 188.816 127, 190.511 127 C 191.815 127, 193.160 127.450, 193.500 128 C 193.840 128.550, 194.905 129, 195.868 129 C 196.830 129, 198.491 129.700, 199.559 130.555 C 201.434 132.057, 201.426 132.074, 199.316 131.055 C 196.639 129.762, 195 129.704, 195 130.901 C 195 131.396, 197.002 132.630, 199.449 133.642 C 201.899 134.655, 204.361 136.498, 204.928 137.741 C 205.572 139.154, 206.838 140, 208.310 140 C 209.792 140, 211.154 140.920, 211.993 142.487 C 214.787 147.707, 208.982 158, 203.244 158 C 198.841 158, 190.671 153.418, 187.059 148.924 C 185.266 146.693, 184.005 144.661, 184.257 144.410 C 184.509 144.158, 185.284 144.638, 185.980 145.476 C 186.676 146.314, 188.052 147, 189.039 147 C 190.026 147, 190.983 147.361, 191.167 147.803 C 191.532 148.681, 203.831 153, 205.969 153 C 206.699 153, 205.884 151.650, 204.157 150 C 202.431 148.350, 200.614 147, 200.120 147 C 199.626 147, 196.142 145.200, 192.377 143 C 184.554 138.429, 181.261 137.750, 183.041 141.076 C 184.050 142.963, 183.968 143.053, 182.131 142.070 C 181.020 141.476, 179.830 140.534, 179.487 139.978 C 178.565 138.488, 176.993 139.819, 177.651 141.532 C 177.960 142.339, 177.930 143, 177.582 143 C 176.170 143, 174.959 137.754, 176.065 136.422 C 177.468 134.731, 176.408 132.906, 174.457 133.655 C 173.365 134.074, 173.157 133.755, 173.662 132.438 C 174.182 131.084, 173.966 130.799, 172.768 131.259 C 170.719 132.045, 167.760 128.790, 168.580 126.653 C 168.987 125.591, 168.557 124.771, 167.354 124.314 C 166.334 123.928, 164.845 122.964, 164.045 122.172 C 161.327 119.483, 161.690 122.905, 164.515 126.609 C 166.907 129.745, 166.969 130.001, 165.052 128.827 C 162.773 127.431, 160.666 123.527, 159.479 118.500 C 158.852 115.843, 158.686 115.728, 158.024 117.500 C 157.099 119.977, 157.525 121.159, 161.720 127.750 C 165.106 133.071, 166.426 134.010, 167.338 131.750 C 167.615 131.063, 167.878 132.686, 167.921 135.358 C 167.999 140.145, 167.960 140.207, 165.312 139.542 C 163.833 139.171, 162.102 138.154, 161.464 137.282 C 160.794 136.366, 160.050 136.110, 159.701 136.675 C 159.340 137.259, 156.961 137.374, 153.798 136.961 C 148.724 136.297, 145.722 136.584, 132.618 138.990 C 129.383 139.583, 126.526 139.859, 126.270 139.603 C 125.689 139.023, 129.224 134.074, 130.250 134.031 C 130.662 134.014, 131 134.702, 131 135.559 C 131 136.416, 131.451 136.839, 132.003 136.498 C 132.672 136.085, 132.673 135.257, 132.005 134.010 C 131.203 132.511, 131.526 131.731, 133.637 130.071 C 135.085 128.932, 137.028 128, 137.955 128 C 139.851 128, 144 123.671, 144 121.692 C 144 120.982, 144.489 119.911, 145.087 119.313 C 145.870 118.530, 145.851 118.026, 145.020 117.512 C 144.326 117.083, 143.648 117.632, 143.319 118.888 C 142.535 121.886, 141.280 120.620, 140.509 116.052 C 139.906 112.484, 137.599 109.068, 136.521 110.146 C 136.015 110.652, 138.314 117.647, 139.315 118.648 C 141.375 120.708, 139.532 122.840, 132.929 126.034 C 126.027 129.373, 125.788 129.415, 122.929 127.774 C 119.365 125.729, 119.313 126.152, 122.465 131.530 C 123.821 133.844, 124.704 135.962, 124.428 136.238 C 124.152 136.514, 124.843 139.065, 125.963 141.907 C 127.084 144.749, 128 148.198, 128 149.572 C 128 151.869, 128.181 151.969, 130.250 150.812 C 131.686 150.009, 136.663 149.543, 144 149.526 C 158.525 149.493, 166.609 151.917, 178.912 159.996 C 201.898 175.089, 215.210 201.703, 211.993 226.134 C 210.865 234.701, 210.884 234.858, 214.428 246.050 C 216.393 252.254, 218 258.113, 218 259.071 C 218 260.908, 221.865 266.068, 229.739 274.746 L 234.500 279.992 288.750 279.996 C 324.148 279.999, 343 279.654, 343 279.003 C 343 278.454, 341.507 276.317, 339.681 274.253 C 336.024 270.117, 332 263.831, 332 262.253 C 332 261.698, 334.474 259.130, 337.497 256.547 L 342.994 251.850 348.369 254.925 C 351.325 256.616, 354.026 258, 354.372 258 C 355.825 258, 354.797 255.951, 351.878 253.032 C 350.161 251.315, 348.924 249.794, 349.128 249.652 C 349.333 249.511, 350.738 248.621, 352.250 247.674 C 355.298 245.768, 356.052 243.364, 353.250 244.488 C 349.892 245.835, 319.470 249.006, 315.673 248.404 C 313.568 248.071, 308.393 247.679, 304.173 247.534 C 299.953 247.389, 295.375 246.827, 294 246.287 C 292.625 245.746, 286.375 245.419, 280.111 245.561 C 272.740 245.727, 266.812 245.321, 263.312 244.409 C 260.337 243.634, 256.372 243, 254.501 243 C 252.630 243, 250.740 242.400, 250.300 241.667 C 249.860 240.933, 247.348 239.271, 244.717 237.973 C 241.750 236.509, 240.125 235.117, 240.436 234.306 C 240.712 233.588, 240.467 233, 239.893 233 C 239.319 233, 235.764 229.878, 231.994 226.063 C 225.398 219.388, 225.021 218.737, 222.003 208.813 C 217.298 193.337, 212.867 180.740, 211.351 178.527 C 210.608 177.443, 210 175.180, 210 173.500 C 210 170.319, 207.185 167, 204.489 167 C 203.670 167, 203 166.550, 203 166 C 203 165.450, 203.401 165, 203.892 165 C 204.382 165, 205.037 163.988, 205.348 162.750 C 205.659 161.512, 207.537 159.626, 209.522 158.557 C 217.100 154.478, 220.983 147.508, 220.994 137.962 C 220.999 133.836, 221.394 133.094, 225.332 129.802 C 230.073 125.840, 238.718 112.302, 237.353 110.979 C 235.979 109.649, 231.028 111.080, 229.935 113.122 C 229.104 114.673, 229.284 115, 230.965 115 C 233.541 115, 233.539 116.044, 230.961 118.811 C 228.057 121.929, 223.962 121.566, 216.480 117.526 L 210.047 114.052 207.312 116.587 C 205.177 118.565, 204.875 119.305, 205.934 119.960 C 207.995 121.233, 206.424 124.269, 204.088 123.528 C 202.529 123.033, 202.267 123.304, 202.700 124.959 C 203.002 126.114, 202.748 127, 202.117 127 C 201.502 127, 201 125.487, 201 123.637 L 201 120.274 196.250 121.690 C 193.637 122.469, 190.262 123.736, 188.750 124.506 C 187.238 125.277, 186 125.508, 186 125.021 C 186 124.534, 186.900 123.849, 188 123.500 C 189.100 123.151, 190 122.415, 190 121.865 C 190 120.973, 188.286 121.229, 184.333 122.713 C 183.691 122.953, 182.350 121.429, 181.354 119.325 C 180.357 117.221, 178.632 114.413, 177.521 113.085 C 170.867 105.131, 169.620 104, 167.511 104 C 166.181 104, 164.547 102.957, 163.592 101.500 C 161.409 98.169, 159 98.242, 159 101.640 M 79.177 103.088 C 78.454 104.246, 78.053 105.387, 78.288 105.622 C 78.982 106.315, 81.220 103.161, 80.841 102.024 C 80.650 101.450, 79.901 101.929, 79.177 103.088 M 65.500 104 C 65.160 104.550, 65.584 105, 66.441 105 C 67.298 105, 68 104.550, 68 104 C 68 103.450, 67.577 103, 67.059 103 C 66.541 103, 65.840 103.450, 65.500 104 M 73 104.969 C 73 105.501, 73.675 105.678, 74.500 105.362 C 75.325 105.045, 76 104.609, 76 104.393 C 76 104.177, 75.325 104, 74.500 104 C 73.675 104, 73 104.436, 73 104.969 M 159 108 C 159 109.111, 159.667 110, 160.500 110 C 161.325 110, 162 110.675, 162 111.500 C 162 112.325, 162.675 113, 163.500 113 C 165.587 113, 165.372 111.709, 163 110 C 161.900 109.207, 161 107.983, 161 107.279 C 161 106.576, 160.550 106, 160 106 C 159.450 106, 159 106.900, 159 108 M 150 108.590 C 150 109.572, 154.413 112.931, 155.750 112.967 C 157.748 113.020, 157.193 111.196, 155 110.500 C 153.900 110.151, 153 109.446, 153 108.933 C 153 108.420, 152.325 108, 151.500 108 C 150.675 108, 150 108.265, 150 108.590 M 147.446 112.087 C 147.077 112.685, 145.925 112.952, 144.887 112.681 C 143.849 112.409, 143 112.595, 143 113.094 C 143 114.127, 146.064 114.296, 148.418 113.393 C 149.288 113.059, 150 112.384, 150 111.893 C 150 110.644, 148.256 110.777, 147.446 112.087 M 170 113.935 C 170 114.541, 171.162 117.391, 172.582 120.268 C 175.581 126.347, 175.573 126.332, 179.481 132.100 C 182.058 135.904, 182.506 136.207, 182.789 134.338 C 183.132 132.073, 177.715 121.530, 175.548 120.245 C 174.858 119.835, 173.862 118.178, 173.334 116.563 C 172.389 113.669, 170 111.786, 170 113.935 M 75.500 118 C 75.840 118.550, 76.316 119, 76.559 119 C 76.802 119, 77 118.550, 77 118 C 77 117.450, 76.523 117, 75.941 117 C 75.359 117, 75.160 117.450, 75.500 118 M 162.500 119 C 162.840 119.550, 163.316 120, 163.559 120 C 163.802 120, 164 119.550, 164 119 C 164 118.450, 163.523 118, 162.941 118 C 162.359 118, 162.160 118.450, 162.500 119 M 210.079 126.583 C 210.127 127.748, 210.364 127.985, 210.683 127.188 C 210.972 126.466, 210.936 125.603, 210.604 125.271 C 210.272 124.939, 210.036 125.529, 210.079 126.583 M 146.899 131.821 C 144.099 133.098, 142.037 134.371, 142.317 134.650 C 143.028 135.362, 154.239 131.785, 155.713 130.376 C 157.791 128.390, 152.532 129.253, 146.899 131.821 M 140.500 131 C 140.160 131.550, 140.332 132, 140.882 132 C 141.432 132, 142.160 131.550, 142.500 131 C 142.840 130.450, 142.668 130, 142.118 130 C 141.568 130, 140.840 130.450, 140.500 131 M 216.079 132.583 C 216.127 133.748, 216.364 133.985, 216.683 133.188 C 216.972 132.466, 216.936 131.603, 216.604 131.271 C 216.272 130.939, 216.036 131.529, 216.079 132.583 M 155.750 132.757 C 154.787 132.971, 154 133.564, 154 134.073 C 154 135.351, 156.732 135.243, 157.541 133.933 C 158.384 132.569, 157.932 132.272, 155.750 132.757 M 164.079 135.583 C 164.127 136.748, 164.364 136.985, 164.683 136.188 C 164.972 135.466, 164.936 134.603, 164.604 134.271 C 164.272 133.939, 164.036 134.529, 164.079 135.583 M 170 136 C 170 136.550, 170.450 137, 171 137 C 171.550 137, 172 136.550, 172 136 C 172 135.450, 171.550 135, 171 135 C 170.450 135, 170 135.450, 170 136 M 344.500 140.868 C 336.506 145.505, 332.486 151.385, 339.948 147.527 C 341.671 146.636, 346.101 145.359, 349.791 144.690 C 355.946 143.575, 356.500 143.269, 356.500 140.987 C 356.500 137.177, 350.957 137.122, 344.500 140.868 M 91.510 149.016 C 91.856 149.575, 92.557 149.774, 93.069 149.457 C 94.456 148.600, 94.198 148, 92.441 148 C 91.584 148, 91.165 148.457, 91.510 149.016 M 347.459 150.067 C 347.096 150.653, 347.040 151.373, 347.333 151.667 C 348.050 152.383, 350 151.121, 350 149.941 C 350 148.663, 348.274 148.748, 347.459 150.067 M 75.767 154.211 C 77.403 155.848, 78.270 156.130, 79.102 155.298 C 80.739 153.661, 79.288 152, 76.219 152 L 73.556 152 75.767 154.211 M 324.500 153 C 324.840 153.550, 326.415 154, 328 154 C 329.585 154, 331.160 153.550, 331.500 153 C 331.874 152.395, 330.491 152, 328 152 C 325.509 152, 324.126 152.395, 324.500 153 M 225.633 164.750 C 222.303 168.155, 220.008 171.386, 220.005 172.672 C 220 174.960, 227.302 182, 229.680 182 C 230.406 182, 231 182.338, 231.001 182.750 C 231.001 183.162, 233.026 183.631, 235.501 183.790 C 238.387 183.976, 240 183.669, 240 182.933 C 240 182.302, 240.586 182.011, 241.303 182.286 C 242.722 182.830, 245.668 177.335, 244.555 176.222 C 244.190 175.857, 243.578 176.039, 243.196 176.628 C 242.813 177.216, 241.752 177.691, 240.838 177.682 C 239.522 177.670, 239.357 177.192, 240.045 175.381 C 240.716 173.616, 240.600 173.216, 239.534 173.625 C 238.068 174.188, 236.011 171.213, 236.650 169.455 C 237.067 168.309, 233.824 164.441, 231.913 163.804 C 230.987 163.496, 230.982 162.901, 231.892 161.202 C 233.932 157.391, 231.461 158.792, 225.633 164.750 M 239 168.500 C 239 169.325, 239.177 170, 239.393 170 C 239.609 170, 240.045 169.325, 240.362 168.500 C 240.678 167.675, 240.501 167, 239.969 167 C 239.436 167, 239 167.675, 239 168.500 M 355.987 171.010 C 354.633 172.031, 353.922 173.231, 354.402 173.682 C 354.881 174.132, 355.475 173.938, 355.720 173.250 C 355.966 172.563, 356.778 172, 357.524 172 C 359.151 172, 360.360 170.340, 359.238 169.647 C 358.802 169.377, 357.338 169.990, 355.987 171.010 M 127.203 171.067 C 121.055 172.147, 106 177.879, 106 179.141 C 106 179.614, 106.387 180, 106.860 180 C 107.334 180, 109.380 181.126, 111.407 182.502 C 114.865 184.848, 115.273 184.910, 117.997 183.502 C 119.594 182.676, 121.096 182, 121.334 182 C 121.573 182, 122.689 184.363, 123.816 187.250 C 127.914 197.757, 127.733 199.035, 122.815 194.323 C 121.278 192.850, 119.843 191.838, 119.625 192.073 C 118.517 193.269, 130.342 225.682, 136.567 238.514 C 137.905 241.272, 139 244.382, 139 245.425 C 139 246.468, 142.003 252.898, 145.674 259.714 C 150.727 269.095, 153.494 273.064, 157.063 276.053 C 161.843 280.055, 165.721 281.320, 164.649 278.528 C 164.338 277.718, 161.590 273.497, 158.542 269.147 C 155.494 264.797, 153 260.557, 153 259.726 C 153 258.894, 152.296 257.944, 151.437 257.614 C 150.577 257.284, 150.124 256.608, 150.431 256.112 C 150.738 255.616, 150.327 254.956, 149.519 254.645 C 148.710 254.335, 147.085 252.032, 145.908 249.528 C 144.731 247.024, 143.370 244.729, 142.884 244.428 C 142.398 244.128, 142 242.874, 142 241.641 C 142 240.408, 141.592 238.972, 141.093 238.450 C 140.595 237.927, 139.967 235.925, 139.700 234 C 139.223 230.575, 138.644 228.530, 137.006 224.500 C 135.090 219.784, 132.998 208.501, 133.980 208.173 C 135.737 207.588, 135.092 205.164, 133.002 204.501 C 130.843 203.815, 129.702 200.783, 130.153 196.923 C 130.489 194.045, 128.530 186.990, 125.931 181.717 C 124.099 178.002, 124.101 177.899, 126.033 175.967 C 127.352 174.648, 129.356 174, 132.118 174 C 135.555 174, 136.866 174.630, 140.050 177.814 C 142.147 179.912, 147.197 183.276, 151.271 185.289 C 159.473 189.343, 167.479 196.549, 171.607 203.592 C 174.669 208.817, 178 220.606, 178 226.218 C 178 229.609, 177.786 229.956, 176.210 229.113 C 175.226 228.586, 173.829 226.883, 173.105 225.327 C 169.272 217.090, 168.203 215.369, 164.515 211.502 C 162.307 209.186, 159.938 207.488, 159.250 207.729 C 158.563 207.970, 158 207.454, 158 206.583 C 158 205.713, 157.550 205, 157 205 C 155.675 205, 155.523 204.298, 159.515 216.636 C 161.654 223.248, 164.491 229.611, 166.765 232.894 C 168.819 235.860, 172.791 242.610, 175.592 247.894 C 180.857 257.827, 183.112 259.958, 188.382 259.985 C 191.148 259.999, 191.241 259.849, 190.696 256.250 C 190.384 254.188, 189.385 249.125, 188.476 245 C 187.303 239.674, 186.850 233.007, 186.913 222 C 186.997 207.515, 186.261 202.151, 184.566 204.893 C 183.117 207.237, 181.024 205.784, 177.877 200.250 C 173.805 193.090, 165.089 183.783, 158.485 179.544 C 152.230 175.530, 140.662 170.844, 136.012 170.442 C 134.080 170.274, 130.116 170.556, 127.203 171.067 M 212.079 176.583 C 212.127 177.748, 212.364 177.985, 212.683 177.188 C 212.972 176.466, 212.936 175.603, 212.604 175.271 C 212.272 174.939, 212.036 175.529, 212.079 176.583 M 352.061 178.101 C 350.719 178.637, 348.244 178.806, 346.561 178.477 C 344.331 178.041, 343.900 178.152, 344.972 178.886 C 346.686 180.058, 346.565 180.125, 338.500 182.433 C 335.750 183.220, 329.737 185.020, 325.137 186.432 C 320.537 187.844, 315.137 189.007, 313.137 189.015 C 308.668 189.034, 306.511 190.284, 307.318 192.387 C 307.820 193.695, 309.043 193.876, 314.214 193.409 C 317.671 193.097, 321.400 192.450, 322.500 191.971 C 327.111 189.964, 333.866 188.155, 339.250 187.485 C 343.963 186.899, 345 186.430, 345 184.885 C 345 183.221, 345.383 182.936, 347.510 183.020 C 347.791 183.031, 349.401 182.327, 351.087 181.455 C 354.013 179.942, 354.178 179.964, 354.693 181.935 C 355.364 184.499, 356.207 184.534, 358.418 182.091 C 360.064 180.272, 360.047 180.150, 358.073 179.523 C 356.933 179.161, 356 178.446, 356 177.933 C 356 176.799, 355.238 176.832, 352.061 178.101 M 361.256 188.546 C 360.022 189.169, 359.334 190, 359.727 190.394 C 360.120 190.787, 359.780 191.571, 358.971 192.135 C 357.891 192.889, 358.298 192.986, 360.498 192.500 C 364.172 191.688, 364.241 191.622, 363.831 189.293 C 363.549 187.694, 363.166 187.582, 361.256 188.546 M 94.196 194.664 C 92.472 197.939, 90.819 207.386, 91.164 212 C 91.449 215.819, 91.696 215.078, 92.792 207.106 C 93.502 201.939, 94.551 196.838, 95.123 195.770 C 95.694 194.702, 95.937 193.604, 95.662 193.329 C 95.387 193.054, 94.727 193.655, 94.196 194.664 M 357.500 243 C 357.160 243.550, 357.332 244, 357.882 244 C 358.432 244, 359.160 243.550, 359.500 243 C 359.840 242.450, 359.668 242, 359.118 242 C 358.568 242, 357.840 242.450, 357.500 243 M 339 259.145 C 339 259.890, 340.552 261.738, 342.449 263.252 C 344.563 264.938, 347.153 268.713, 349.140 273.002 C 350.924 276.851, 352.747 280, 353.191 280 C 354.371 280, 354.217 279.346, 352.022 275.042 C 347.716 266.604, 339 255.962, 339 259.145" stroke="none" fill="#3467df" fill-rule="evenodd"/>
</svg>