<svg xmlns="http://www.w3.org/2000/svg" width="420" height="280" viewBox="0 0 420 280" version="1.1">
	<rect x="0" y="0" width="100%" height="100%" fill="#bfbfbf" />
	<path d="M 198.524 5.158 C 187.355 6.199, 184.053 7.266, 176.500 12.277 C 169.474 16.939, 157.010 28.779, 153.106 34.500 C 150.162 38.814, 148.641 47.298, 151.472 43.612 C 152.519 42.249, 152.645 41.205, 151.926 39.862 C 151.112 38.342, 151.288 38, 152.881 38 C 153.955 38, 154.983 37.663, 155.167 37.250 C 155.350 36.837, 157.029 35.648, 158.898 34.606 C 161.263 33.288, 162.060 33.136, 161.518 34.106 C 161.091 34.873, 163.575 32.575, 167.039 29 C 170.503 25.425, 173.384 22.050, 173.441 21.500 C 173.498 20.950, 174.367 20.643, 175.373 20.817 C 176.423 20.999, 176.931 20.698, 176.568 20.109 C 176.219 19.546, 177.412 18.332, 179.217 17.412 C 182.032 15.976, 181.730 16.469, 177.101 20.869 C 174.132 23.691, 171.374 26, 170.972 26 C 170.571 26, 169.690 27.335, 169.014 28.967 C 168.338 30.598, 166.933 32.204, 165.892 32.534 C 164.852 32.864, 164 33.779, 164 34.567 C 164 35.355, 163.523 36, 162.941 36 C 162.359 36, 162.162 36.453, 162.505 37.008 C 163.225 38.173, 160.547 41.214, 159.619 40.286 C 158.370 39.037, 159.109 41.560, 160.551 43.467 C 161.992 45.373, 162.147 45.311, 165.537 41.467 C 167.558 39.175, 168.738 38.345, 168.331 39.500 C 167.682 41.340, 167.776 41.380, 169.505 40 C 170.538 39.175, 171.065 39.031, 170.676 39.681 C 170.286 40.330, 170.422 41.143, 170.979 41.487 C 171.566 41.850, 170.229 44.609, 167.794 48.061 C 163.444 54.231, 154.328 64.636, 155.583 62 C 155.976 61.175, 157.233 59.463, 158.375 58.194 C 160.387 55.962, 160.391 55.909, 158.476 56.526 C 156.525 57.155, 156.524 57.144, 158.441 55.582 C 159.509 54.712, 159.981 54, 159.491 54 C 159.001 54, 159.140 53.460, 159.800 52.800 C 160.460 52.140, 160.998 51.127, 160.996 50.550 C 160.993 49.972, 159.633 51.525, 157.973 54 C 156.313 56.475, 154.460 58.369, 153.855 58.209 C 153.235 58.045, 153.013 58.591, 153.346 59.459 C 153.711 60.410, 153.383 61, 152.489 61 C 151.692 61, 150.079 62.884, 148.904 65.187 C 147.730 67.490, 146.145 69.997, 145.384 70.759 C 144.623 71.520, 144 72.547, 144 73.040 C 144 73.533, 143.401 73.707, 142.668 73.426 C 141.814 73.098, 140.752 74.404, 139.706 77.067 C 138.272 80.718, 138.252 81.395, 139.544 82.687 C 142.012 85.155, 143.142 87.976, 142.488 90.038 C 141.265 93.892, 143.021 91.902, 145.933 86.133 C 149.384 79.297, 153.505 75.480, 159.045 73.988 C 161.220 73.402, 163 72.564, 163 72.125 C 163 71.133, 171.693 61.418, 178.929 54.323 C 181.914 51.395, 183.800 49, 183.120 49 C 182.439 49, 182.165 48.543, 182.510 47.984 C 182.856 47.425, 183.627 47.269, 184.224 47.638 C 184.918 48.067, 185.017 47.836, 184.498 46.997 C 183.896 46.023, 184.233 45.828, 185.809 46.240 C 186.977 46.545, 187.835 46.346, 187.716 45.798 C 187.494 44.771, 196.518 38, 198.109 38 C 198.599 38, 199 38.450, 199 39 C 199 39.550, 198.196 40, 197.212 40 C 196.229 40, 193.866 41.350, 191.962 43.001 L 188.500 46.002 195.181 42.478 C 198.855 40.540, 202.230 39.061, 202.681 39.192 C 203.131 39.322, 205.750 38.603, 208.500 37.594 C 211.250 36.584, 215.975 34.860, 219 33.762 C 222.025 32.664, 225.288 31.364, 226.252 30.873 C 227.527 30.224, 228.471 30.528, 229.724 31.990 C 230.670 33.096, 232.019 34, 232.722 34 C 233.425 34, 234 34.344, 234 34.764 C 234 35.625, 242.076 39.463, 243.274 39.172 C 243.699 39.069, 245.499 40.652, 247.274 42.691 C 249.048 44.730, 251.512 47.290, 252.750 48.380 C 253.988 49.469, 255 50.955, 255 51.680 C 255 52.406, 255.445 53, 255.988 53 C 256.532 53, 257.264 54.800, 257.616 57 C 257.968 59.200, 258.703 61, 259.250 61 C 259.841 61, 259.785 61.555, 259.110 62.367 C 258.252 63.402, 258.313 64.015, 259.363 64.886 C 260.126 65.520, 261.023 67.743, 261.356 69.827 C 261.702 71.989, 263.044 74.632, 264.481 75.982 C 265.866 77.284, 267 79.128, 267 80.081 C 267 81.649, 265.678 81.799, 253.098 81.657 C 245.451 81.571, 239.375 81.208, 239.595 80.851 C 239.814 80.493, 234.258 79.926, 227.247 79.589 C 220.236 79.252, 211.575 78.776, 208 78.531 C 203.483 78.221, 202.110 78.372, 203.500 79.025 C 204.824 79.647, 202.575 79.767, 196.843 79.381 C 191.848 79.044, 187.443 79.213, 186.430 79.779 C 184.819 80.681, 184.852 80.818, 186.836 81.448 C 188.575 82, 188.805 82.496, 188.010 83.981 C 187.146 85.596, 187.517 85.912, 190.965 86.494 C 193.134 86.861, 196.167 87.077, 197.704 86.974 C 203.542 86.586, 203.918 86.774, 202.656 89.462 C 201.513 91.896, 201.387 91.917, 191.500 91.364 C 186 91.057, 181.210 90.627, 180.855 90.408 C 180.500 90.190, 179.970 90.635, 179.678 91.397 C 179.309 92.358, 177.241 92.810, 172.927 92.871 C 165.494 92.975, 163.207 93.583, 160.324 96.220 C 159.127 97.314, 157.710 97.939, 157.175 97.608 C 155.761 96.734, 150.441 103.183, 147.074 109.853 C 143.821 116.298, 141 119.414, 141 116.563 C 141 115.639, 140.581 115.141, 140.068 115.458 C 138.542 116.401, 138.382 110.970, 139.718 103.568 C 140.957 96.704, 140.828 93.689, 139.488 98.175 C 138.113 102.773, 134.621 109, 133.416 109 C 132.650 109, 132.399 109.812, 132.751 111.156 C 133.138 112.634, 132.951 113.088, 132.158 112.597 C 131.468 112.171, 131 112.518, 131 113.455 C 131 114.319, 130.600 115.809, 130.111 116.764 C 126.802 123.224, 124.074 130.248, 123.127 134.749 C 122.519 137.637, 119.992 143.343, 117.511 147.429 C 115.030 151.516, 113 155.299, 113 155.835 C 113 156.419, 115.365 156.596, 118.889 156.276 C 123.206 155.885, 125.656 156.181, 128.070 157.385 C 131.275 158.984, 131.431 158.961, 133.976 156.523 C 136.927 153.696, 145.176 150.551, 147.824 151.244 C 149.394 151.654, 149.501 151.128, 148.871 146.100 C 147.751 137.164, 147.900 126.066, 149.199 121.732 C 151.181 115.116, 161.248 109.249, 172 108.445 C 178.751 107.940, 178.706 107.956, 176.234 106.963 L 173.968 106.052 176.234 103.431 C 178.242 101.108, 182.944 98, 184.450 98 C 184.753 98, 185 98.675, 185 99.500 C 185 100.325, 185.787 101.014, 186.750 101.032 C 188.392 101.062, 188.395 101.143, 186.798 102.357 C 185.214 103.560, 185.247 103.803, 187.270 105.825 L 189.444 108 184.056 108 C 181.092 108, 178.887 108.220, 179.156 108.489 C 179.425 108.758, 183.437 109.030, 188.072 109.094 C 196.130 109.205, 203.994 107.327, 202.350 105.683 C 201.974 105.307, 202.154 105, 202.750 105 C 203.346 105, 204.065 105.562, 204.347 106.250 C 204.630 106.938, 204.868 105.925, 204.876 104 C 204.884 102.075, 205.068 99.037, 205.284 97.250 C 205.501 95.462, 205.353 94, 204.956 94 C 203.461 94, 203.072 89.539, 204.498 88.741 C 205.594 88.128, 205.696 87.332, 204.936 85.332 C 204.390 83.897, 204.149 82.517, 204.401 82.266 C 205.531 81.136, 211.476 83.478, 214.756 86.346 C 216.758 88.096, 217.914 88.692, 217.354 87.683 C 216.800 86.684, 215.031 85, 213.423 83.940 L 210.500 82.013 216.500 82.101 C 219.800 82.150, 226.959 82.709, 232.409 83.345 C 241.084 84.356, 242.110 84.673, 240.641 85.887 C 239.719 86.650, 237.960 87.381, 236.732 87.510 C 233.017 87.901, 232.904 87.956, 233.158 89.250 C 233.293 89.938, 232.805 92.915, 232.074 95.867 C 230.871 100.724, 230.935 104.380, 232.391 114.008 C 232.600 115.387, 233.519 118.307, 234.434 120.496 C 236.060 124.387, 235.857 129, 234.060 129 C 233.565 129, 232.811 130.463, 232.386 132.250 C 231.398 136.404, 231.462 136.195, 230.557 138.250 C 229.613 140.393, 228 140.550, 228 138.500 C 228 136.385, 226.330 136.630, 225.755 138.829 C 225.229 140.839, 227.093 144, 228.804 144 C 229.399 144, 230.527 144.914, 231.309 146.031 C 233.300 148.873, 237.948 149.984, 243.147 148.861 C 253.157 146.699, 255.218 140.925, 249.418 131.294 C 245.626 124.996, 245.291 123.486, 247.500 122.638 C 250.487 121.492, 248.524 113.561, 244.558 110.750 C 243.846 110.245, 243.943 109.714, 244.857 109.125 C 245.806 108.513, 245.880 108.044, 245.104 107.564 C 243.366 106.490, 245.537 103.357, 248.808 102.217 C 251.181 101.390, 251.856 101.540, 252.838 103.112 C 253.630 104.380, 253.667 105, 252.949 105 C 252.362 105, 252.198 105.511, 252.584 106.136 C 252.970 106.761, 253.334 108.185, 253.393 109.300 C 253.472 110.792, 254.751 111.748, 258.232 112.914 C 260.835 113.786, 263.673 115.513, 264.539 116.750 C 265.405 117.987, 266.740 119, 267.506 119 C 268.929 119, 273.244 124.187, 274.279 127.142 C 274.919 128.969, 271.292 138.567, 266.879 146.724 C 265.296 149.650, 264 152.710, 264 153.523 C 264 154.335, 263.580 155, 263.067 155 C 262.554 155, 261.819 156.012, 261.433 157.250 C 261.046 158.488, 260.393 159.725, 259.981 160 C 259.569 160.275, 258.149 162.751, 256.826 165.503 C 255.091 169.108, 254.599 171.384, 255.062 173.650 C 255.757 177.047, 254.239 181.727, 251.780 183.768 C 250.500 184.830, 249.954 184.588, 248.402 182.267 C 247.385 180.745, 246.540 179.146, 246.526 178.714 C 246.512 178.281, 245.892 177.551, 245.149 177.092 C 244.150 176.475, 244.605 175.900, 246.899 174.884 C 250.009 173.508, 250.884 171.664, 248.984 170.490 C 248.425 170.144, 248.226 169.443, 248.543 168.931 C 248.859 168.419, 248.641 168, 248.059 168 C 247.477 168, 247 167.325, 247 166.500 C 247 165.675, 246.255 165, 245.344 165 C 244.434 165, 242.245 163.899, 240.481 162.553 C 234.897 158.294, 231.385 158.294, 217.021 162.550 C 213.908 163.472, 212.341 163.552, 211.884 162.813 C 211.462 162.130, 208.674 163.049, 204.112 165.374 C 200.199 167.368, 196.350 169, 195.558 169 C 194.766 169, 193.830 169.466, 193.478 170.036 C 192.469 171.668, 205.816 169.983, 210.833 167.846 C 215.408 165.897, 221 165.380, 221 166.906 C 221 167.405, 221.801 167.603, 222.780 167.347 C 225.263 166.698, 230.248 168.756, 229.757 170.229 C 229.534 170.898, 228.260 171.750, 226.926 172.123 C 225.553 172.506, 225.213 172.844, 226.143 172.900 C 228.194 173.025, 229.514 176, 227.518 176 C 226.738 176, 225.707 176.700, 225.228 177.556 C 224.749 178.412, 222.666 179.694, 220.599 180.405 L 216.842 181.697 224.039 182.300 C 227.998 182.632, 231.473 183.139, 231.761 183.428 C 232.049 183.716, 231.705 184.651, 230.996 185.505 C 229.916 186.806, 230.097 187.500, 232.103 189.771 C 233.421 191.262, 234.824 192.730, 235.221 193.032 C 236.585 194.073, 233.718 200.813, 231.378 202.065 C 229.030 203.322, 227.609 205.990, 227.125 210.049 C 227.056 210.626, 225.088 211.966, 222.750 213.027 C 217.144 215.571, 201.603 215.751, 194.428 213.353 C 187.506 211.041, 173.749 201.598, 167.740 195.034 C 160.761 187.412, 158.306 181.531, 157.501 170.500 C 157.139 165.550, 156.623 160.713, 156.354 159.750 C 155.480 156.622, 154.138 157.897, 153.446 162.512 C 152.676 167.645, 151.007 169.543, 150.986 165.309 C 150.969 161.770, 149.982 158, 149.072 158 C 148.691 158, 147.813 160.205, 147.122 162.901 C 145.743 168.283, 143.686 169.592, 139.254 167.906 C 137.862 167.377, 136.565 167.102, 136.373 167.294 C 136.180 167.487, 137.368 169.765, 139.011 172.357 C 140.655 174.949, 142 177.702, 142 178.476 C 142 179.249, 142.481 180.179, 143.068 180.542 C 143.656 180.905, 143.886 181.855, 143.580 182.653 C 143.268 183.465, 143.459 183.834, 144.013 183.492 C 145.468 182.593, 146.818 186.994, 146.252 190.790 C 145.917 193.033, 146.142 193.987, 146.957 193.790 C 148.242 193.479, 152.478 200.800, 153.524 205.137 C 154.126 207.635, 153.930 207.799, 149.830 208.230 C 147.449 208.481, 144.853 208.194, 144.063 207.593 C 142.916 206.721, 142.756 206.847, 143.269 208.218 C 144.197 210.695, 142.120 211.534, 140.465 209.350 C 139.167 207.636, 139.061 207.629, 139.032 209.250 C 139.012 210.323, 138.226 211, 137 211 C 135.900 211, 135 211.477, 135 212.060 C 135 213.583, 144.418 223.325, 148.880 226.417 L 152.664 229.039 151.848 235.003 C 151.380 238.425, 150.280 241.731, 149.266 242.759 C 147.524 244.526, 144.682 248.666, 135.636 262.619 C 133.098 266.534, 130.453 270.187, 129.760 270.737 C 129.067 271.286, 124.900 272.894, 120.500 274.311 C 101.490 280.433, 101.269 279.833, 122.559 279.921 C 143.467 280.008, 143.814 279.920, 145.960 274 C 147.465 269.849, 149.419 265.456, 154.855 254 C 157.074 249.325, 159.637 242.125, 160.551 238 C 163.637 224.080, 166.352 221.098, 176.500 220.482 C 178.700 220.348, 182.750 219.898, 185.500 219.481 C 190.862 218.668, 194.670 218.678, 196.012 219.508 C 196.471 219.791, 197.134 221.334, 197.486 222.936 C 198.180 226.097, 202.277 228.263, 205.813 227.339 C 206.979 227.034, 208.514 227.618, 209.631 228.790 C 210.659 229.869, 212.512 231.063, 213.750 231.443 C 214.988 231.824, 216.001 232.442, 216.003 232.817 C 216.005 233.193, 217.555 233.533, 219.449 233.573 C 223.383 233.656, 227.557 237.619, 225.863 239.663 C 225.222 240.436, 225.388 241.275, 226.357 242.163 C 227.625 243.326, 227.507 243.908, 225.451 246.627 C 224.151 248.346, 223.391 250.058, 223.764 250.431 C 224.137 250.804, 223.780 251.569, 222.971 252.131 C 221.686 253.023, 221.690 253.097, 223 252.719 C 223.825 252.480, 224.450 251.621, 224.389 250.809 C 224.328 249.997, 224.895 249.333, 225.650 249.333 C 227.892 249.333, 224.864 253.142, 221.180 254.956 C 217.976 256.534, 217.033 258, 219.223 258 C 219.895 258, 219.445 258.701, 218.223 259.557 C 217 260.413, 216 261.786, 216 262.608 C 216 263.430, 214.537 264.736, 212.750 265.510 C 210.963 266.285, 206.417 269.862, 202.648 273.459 L 195.796 280 212.745 280 C 229.312 280, 229.720 279.949, 230.852 277.750 L 232.011 275.500 231.438 277.750 C 230.915 279.803, 231.214 280, 234.860 280 C 238.864 280, 239.477 279.545, 243.798 273.358 C 245.046 271.571, 245.075 271.570, 244.544 273.343 C 244.240 274.356, 243.720 276.269, 243.387 277.593 L 242.783 280 295.892 280 C 334.493 280, 349 279.693, 349 278.878 C 349 278.146, 349.572 278.230, 350.644 279.120 C 352.114 280.339, 352.214 280.220, 351.591 277.992 L 350.894 275.500 352.857 277.750 C 354.669 279.826, 355.622 279.992, 365.160 279.902 L 375.500 279.803 365 277.393 C 359.225 276.067, 353.262 275.134, 351.750 275.318 C 350.238 275.503, 349 275.313, 349 274.896 C 349 273.286, 344.416 267.044, 342.829 266.494 C 341.910 266.176, 340.249 264.172, 339.139 262.042 C 338.028 259.912, 335.151 255.494, 332.745 252.225 C 327.578 245.207, 320.916 232.530, 318.700 225.500 C 313.477 208.930, 311.973 202.700, 311.579 196 C 311.336 191.875, 310.896 186.475, 310.602 184 C 310.307 181.525, 310.309 180.287, 310.606 181.250 C 311.726 184.877, 313 182.792, 313 177.333 C 313 168.590, 314.255 171.888, 314.675 181.734 C 314.880 186.555, 315.712 192.819, 316.524 195.654 C 317.336 198.489, 318 202.341, 318 204.216 C 318 210.667, 324.816 232.216, 327.801 235.201 C 328.375 235.775, 328.607 236.860, 328.318 237.613 C 328.029 238.367, 328.512 239.259, 329.391 239.596 C 330.269 239.934, 330.773 240.558, 330.510 240.983 C 329.872 242.016, 332.985 248.214, 334.836 249.598 C 335.725 250.262, 335.986 251.213, 335.498 252.003 C 334.988 252.829, 335.084 253.066, 335.760 252.648 C 336.348 252.285, 337.031 252.553, 337.278 253.244 C 338.299 256.106, 339.176 252.694, 339.176 245.858 C 339.176 241.461, 338.741 238.414, 338.082 238.194 C 337.480 237.993, 337.255 237.396, 337.582 236.868 C 337.909 236.339, 337.293 234.015, 336.214 231.703 C 334.983 229.067, 334.433 226.289, 334.739 224.250 C 335.041 222.237, 334.803 221, 334.113 221 C 333.501 221, 333 220.100, 333 219 C 333 216.709, 334.019 216.447, 335.912 218.250 C 337.222 219.497, 337.092 218.520, 335.216 213 C 334.606 211.206, 335.709 212.240, 338.829 216.385 C 342.007 220.607, 341.484 219.047, 337.512 212.449 C 335.445 209.017, 333.758 204.655, 333.372 201.745 C 332.908 198.252, 332.445 197.219, 331.766 198.167 C 331.072 199.137, 330.978 198.988, 331.424 197.621 C 331.973 195.936, 331.169 192.303, 328.962 186.500 C 328.544 185.400, 327.655 183.046, 326.987 181.268 C 326.319 179.490, 326.013 177.408, 326.308 176.640 C 326.603 175.872, 326.464 174.851, 325.999 174.372 C 324.805 173.138, 321.818 161.103, 322.452 160.077 C 322.741 159.609, 322.308 158.671, 321.489 157.991 C 320.670 157.311, 320 155.475, 320 153.911 C 320 152.347, 319.352 149.590, 318.561 147.784 C 317.770 145.978, 316.881 143.342, 316.586 141.927 C 316.292 140.512, 314.914 137.679, 313.525 135.632 C 312.136 133.586, 311.007 131.594, 311.015 131.206 C 311.024 130.818, 311.467 131.175, 312 132 C 312.568 132.879, 312.976 133.012, 312.985 132.321 C 312.993 131.673, 312.325 130.468, 311.500 129.643 C 310.675 128.818, 310 127.248, 310 126.155 C 310 125.061, 309.635 124.017, 309.190 123.833 C 308.744 123.650, 307.593 120.800, 306.631 117.500 C 305.669 114.200, 304.217 109.250, 303.406 106.500 C 302.594 103.750, 300.630 96.550, 299.040 90.500 C 292.926 67.226, 281.113 41.232, 270.856 28.481 C 262.591 18.207, 251.487 9, 247.361 9 C 246.154 9, 245.007 8.521, 244.812 7.935 C 244.378 6.635, 233.190 5.883, 232.436 7.103 C 231.635 8.399, 219.185 7.969, 215.605 6.522 C 210.561 4.482, 207.982 4.276, 198.524 5.158 M 232.500 9 C 232.160 9.550, 232.584 10, 233.441 10 C 234.298 10, 235 9.550, 235 9 C 235 8.450, 234.577 8, 234.059 8 C 233.541 8, 232.840 8.450, 232.500 9 M 194.443 35.418 C 193.376 36.198, 192.768 37.101, 193.091 37.424 C 193.414 37.748, 194.496 37.110, 195.494 36.006 C 197.619 33.659, 197.183 33.415, 194.443 35.418 M 165.250 43.227 C 162.714 45.935, 162.190 47.917, 164.523 45.981 C 165.813 44.910, 165.947 45.006, 165.400 46.609 C 164.892 48.096, 165.115 48.016, 166.447 46.231 C 167.378 44.984, 167.996 43.257, 167.820 42.394 C 167.562 41.130, 167.062 41.292, 165.250 43.227 M 157.710 45 C 157.423 46.100, 157.605 47, 158.117 47 C 158.628 47, 158.309 48.125, 157.408 49.500 C 156.507 50.875, 156.175 52, 156.669 52 C 157.545 52, 161 46.844, 161 45.537 C 161 45.177, 160.474 45.207, 159.830 45.605 C 159.043 46.091, 158.869 45.783, 159.299 44.664 C 159.650 43.749, 159.554 43, 159.085 43 C 158.617 43, 157.998 43.900, 157.710 45 M 181 45.992 C 178.809 47.698, 178.360 47.754, 177.368 46.440 C 176.369 45.117, 176.165 45.128, 175.625 46.534 C 175.282 47.429, 174.506 47.812, 173.853 47.409 C 173.154 46.977, 172.960 47.126, 173.367 47.784 C 173.738 48.385, 173.245 49.341, 172.271 49.908 C 171.297 50.475, 170.921 50.953, 171.436 50.970 C 171.950 50.986, 173.413 50.022, 174.686 48.826 C 175.958 47.630, 177 47.180, 177 47.826 C 177 49.668, 178.644 49.215, 181.694 46.532 C 185.032 43.595, 184.554 43.223, 181 45.992 M 168.459 49.067 C 167.383 50.808, 168.608 51.177, 169.980 49.524 C 170.769 48.574, 170.845 48, 170.181 48 C 169.597 48, 168.821 48.480, 168.459 49.067 M 174.500 55.649 C 170.650 59.289, 168.398 61.644, 169.496 60.883 C 170.594 60.122, 171.979 59.050, 172.573 58.500 C 173.167 57.950, 175.230 56.119, 177.157 54.430 C 180.308 51.668, 182.623 48.974, 181.809 49.016 C 181.639 49.024, 178.350 52.009, 174.500 55.649 M 174.872 51.750 C 173.629 53.336, 173.664 53.371, 175.250 52.128 C 176.916 50.821, 177.445 50, 176.622 50 C 176.415 50, 175.627 50.788, 174.872 51.750 M 145.459 54.067 C 145.096 54.653, 145.014 55.348, 145.276 55.610 C 145.538 55.872, 146.019 55.392, 146.345 54.543 C 147.021 52.781, 146.445 52.471, 145.459 54.067 M 168.244 53.500 C 168.653 53.951, 168.090 54.949, 166.994 55.717 C 165.897 56.485, 165 57.763, 165 58.557 C 165 59.351, 164.550 60, 164 60 C 163.450 60, 163 60.528, 163 61.174 C 163 61.820, 164.125 61.292, 165.500 60 C 166.875 58.708, 168 58.033, 168 58.500 C 168 58.967, 169.125 58.292, 170.500 57 C 171.875 55.708, 172.998 54.167, 172.995 53.576 C 172.992 52.984, 171.883 53.850, 170.531 55.500 C 169.179 57.150, 168.056 58.027, 168.036 57.450 C 168.016 56.873, 168.489 55.911, 169.087 55.313 C 169.870 54.530, 169.800 54.009, 168.837 53.453 C 168.102 53.027, 167.835 53.049, 168.244 53.500 M 163.571 55.571 C 161.286 57.857, 161.643 58.633, 164 56.500 C 165.100 55.505, 166 54.535, 166 54.345 C 166 53.602, 165.073 54.070, 163.571 55.571 M 143.564 58.707 C 143.022 60.132, 143.136 60.247, 144.124 59.267 C 144.808 58.588, 145.115 57.781, 144.807 57.474 C 144.499 57.166, 143.940 57.721, 143.564 58.707 M 139.032 62.263 C 138.244 63.493, 137.452 65.390, 137.271 66.479 C 137.090 67.567, 136.506 68.894, 135.971 69.429 C 135.437 69.963, 134.992 71.098, 134.983 71.950 C 134.973 72.802, 133.774 74.625, 132.318 76 L 129.672 78.500 130.350 75.500 C 130.948 72.852, 130.886 72.735, 129.823 74.500 C 129.160 75.600, 128.513 77.486, 128.383 78.692 C 128.254 79.898, 127.514 82.373, 126.739 84.192 C 123.599 91.560, 118.809 107, 119.663 107 C 119.887 107, 120.948 104.954, 122.020 102.454 C 123.091 99.954, 125.046 96.466, 126.364 94.704 C 127.681 92.942, 129.689 89.361, 130.825 86.746 C 132.174 83.642, 133.778 81.655, 135.446 81.021 C 136.851 80.487, 138 79.400, 138 78.607 C 138 77.813, 138.267 76.339, 138.594 75.332 C 139.089 73.808, 139.007 73.752, 138.110 75 C 137.458 75.906, 137.025 76.034, 137.015 75.321 C 137.007 74.673, 137.675 73.468, 138.500 72.643 C 139.325 71.818, 140 70.406, 140 69.506 C 140 68.605, 140.448 67.032, 140.995 66.009 C 141.543 64.986, 141.647 63.221, 141.228 62.087 C 140.470 60.037, 140.457 60.038, 139.032 62.263 M 134.518 66.241 C 134.113 68.299, 133.422 69.761, 132.984 69.490 C 132.545 69.219, 132.457 70.010, 132.787 71.249 C 133.294 73.148, 133.593 72.799, 134.699 69.014 C 135.420 66.547, 135.840 64.072, 135.633 63.514 C 135.426 62.956, 134.924 64.184, 134.518 66.241 M 145.081 65.849 C 143.448 68.901, 143.786 69.751, 145.602 67.158 C 146.483 65.900, 146.970 64.636, 146.683 64.350 C 146.396 64.063, 145.676 64.738, 145.081 65.849 M 153.500 65 C 153.160 65.550, 153.359 66, 153.941 66 C 154.523 66, 155 65.550, 155 65 C 155 64.450, 154.802 64, 154.559 64 C 154.316 64, 153.840 64.450, 153.500 65 M 141.600 76.600 C 141.244 77.527, 141.178 78.511, 141.453 78.786 C 141.728 79.061, 142.244 78.527, 142.600 77.600 C 142.956 76.673, 143.022 75.689, 142.747 75.414 C 142.472 75.139, 141.956 75.673, 141.600 76.600 M 159.363 78.497 C 159.017 79.398, 159.196 80.596, 159.761 81.161 C 161.391 82.791, 164.500 81.692, 164.500 79.486 C 164.500 76.943, 160.272 76.128, 159.363 78.497 M 233.750 81.662 C 234.438 81.940, 235.563 81.940, 236.250 81.662 C 236.938 81.385, 236.375 81.158, 235 81.158 C 233.625 81.158, 233.063 81.385, 233.750 81.662 M 243.250 82.689 C 244.213 82.941, 245.787 82.941, 246.750 82.689 C 247.713 82.438, 246.925 82.232, 245 82.232 C 243.075 82.232, 242.287 82.438, 243.250 82.689 M 199.500 84 C 199.160 84.550, 199.359 85, 199.941 85 C 200.523 85, 201 84.550, 201 84 C 201 83.450, 200.802 83, 200.559 83 C 200.316 83, 199.840 83.450, 199.500 84 M 249.083 83.370 C 249.313 83.573, 252.875 83.991, 257 84.297 C 262.560 84.711, 263.465 84.630, 260.500 83.985 C 256.498 83.115, 248.298 82.673, 249.083 83.370 M 265.750 85.662 C 266.438 85.940, 267.563 85.940, 268.250 85.662 C 268.938 85.385, 268.375 85.158, 267 85.158 C 265.625 85.158, 265.063 85.385, 265.750 85.662 M 274 87.552 C 276.475 88.332, 279.175 88.929, 280 88.880 C 282.064 88.757, 273.986 86.156, 271.500 86.144 C 270.400 86.138, 271.525 86.772, 274 87.552 M 180 88.383 C 180 89.293, 183.898 89.679, 185.139 88.893 C 186.064 88.307, 185.460 88.026, 183.250 88.015 C 181.463 88.007, 180 88.173, 180 88.383 M 190 88.982 C 191.699 90.100, 194.702 90.369, 193.641 89.308 C 193.260 88.927, 191.948 88.475, 190.724 88.305 C 188.959 88.058, 188.810 88.198, 190 88.982 M 196.750 89.662 C 197.438 89.940, 198.563 89.940, 199.250 89.662 C 199.938 89.385, 199.375 89.158, 198 89.158 C 196.625 89.158, 196.063 89.385, 196.750 89.662 M 235.162 91.543 C 234.523 92.946, 234.032 94.860, 234.070 95.797 C 234.109 96.734, 234.786 95.739, 235.574 93.587 C 237.206 89.133, 236.916 87.694, 235.162 91.543 M 259.750 90.067 C 256.667 91.886, 257.645 94, 261.570 94 C 264.695 94, 265.099 93.721, 264.820 91.760 C 264.459 89.234, 262.354 88.530, 259.750 90.067 M 121.079 91.583 C 121.127 92.748, 121.364 92.985, 121.683 92.188 C 121.972 91.466, 121.936 90.603, 121.604 90.271 C 121.272 89.939, 121.036 90.529, 121.079 91.583 M 250.441 98.486 C 248.665 99.846, 248.777 99.880, 251.750 98.888 C 255.143 97.756, 255.921 97, 253.691 97 C 252.971 97, 251.509 97.669, 250.441 98.486 M 291.477 101.845 C 291.465 103.305, 291.119 106.061, 290.709 107.969 C 290.153 110.551, 290.252 111.148, 291.094 110.306 C 292.516 108.884, 293.530 100.446, 292.365 99.726 C 291.889 99.432, 291.490 100.386, 291.477 101.845 M 216 106 C 215.411 107.100, 215.155 108, 215.430 108 C 215.705 108, 216.411 107.100, 217 106 C 217.589 104.900, 217.845 104, 217.570 104 C 217.295 104, 216.589 104.900, 216 106 M 235.079 107.583 C 235.127 108.748, 235.364 108.985, 235.683 108.188 C 235.972 107.466, 235.936 106.603, 235.604 106.271 C 235.272 105.939, 235.036 106.529, 235.079 107.583 M 117.459 109.067 C 117.096 109.653, 117.014 110.348, 117.276 110.610 C 117.538 110.872, 118.019 110.392, 118.345 109.543 C 119.021 107.781, 118.445 107.471, 117.459 109.067 M 300.070 109.750 C 300.109 110.162, 300.527 111.400, 301 112.500 C 301.762 114.272, 301.867 114.187, 301.930 111.750 C 301.968 110.237, 301.550 109, 301 109 C 300.450 109, 300.032 109.338, 300.070 109.750 M 302.638 116.500 C 302.955 117.325, 303.391 118, 303.607 118 C 303.823 118, 304 117.325, 304 116.500 C 304 115.675, 303.564 115, 303.031 115 C 302.499 115, 302.322 115.675, 302.638 116.500 M 307 128.833 C 307 130.575, 307.459 132, 308.019 132 C 308.624 132, 308.770 130.883, 308.378 129.250 C 307.437 125.324, 307 125.192, 307 128.833 M 297.079 129.583 C 297.127 130.748, 297.364 130.985, 297.683 130.188 C 297.972 129.466, 297.936 128.603, 297.604 128.271 C 297.272 127.939, 297.036 128.529, 297.079 129.583 M 215.250 135.491 C 211.241 137.233, 211.037 139, 214.845 139 C 217.695 139, 221.592 135.926, 220.336 134.669 C 219.444 133.777, 219.044 133.842, 215.250 135.491 M 308.564 135.707 C 308.022 137.132, 308.136 137.247, 309.124 136.267 C 309.808 135.588, 310.115 134.781, 309.807 134.474 C 309.499 134.166, 308.940 134.721, 308.564 135.707 M 297.079 140.583 C 297.127 141.748, 297.364 141.985, 297.683 141.188 C 297.972 140.466, 297.936 139.603, 297.604 139.271 C 297.272 138.939, 297.036 139.529, 297.079 140.583 M 301.735 146 C 302.035 149.575, 302.442 152.688, 302.640 152.917 C 303.337 153.724, 302.791 144.469, 301.995 142 C 301.512 140.500, 301.408 142.100, 301.735 146 M 312 152.441 C 312 153.298, 312.450 154, 313 154 C 313.550 154, 314 153.577, 314 153.059 C 314 152.541, 313.550 151.840, 313 151.500 C 312.450 151.160, 312 151.584, 312 152.441 M 302.900 160 L 302.674 166.500 302 161 C 301.629 157.975, 301.236 155.950, 301.127 156.500 C 301.018 157.050, 300.353 161.863, 299.649 167.195 C 298.346 177.074, 298.988 179.109, 301.141 171.922 C 301.952 169.218, 302.601 168.344, 303.154 169.214 C 303.602 169.921, 303.992 170.275, 304.020 170 C 304.592 164.405, 304.544 157.047, 303.926 155.500 C 303.382 154.138, 303.055 155.572, 302.900 160 M 297.160 158.625 C 297.072 160.344, 296.777 163.269, 296.503 165.125 L 296.007 168.500 297.059 165.146 C 297.638 163.301, 297.933 160.376, 297.716 158.646 L 297.320 155.500 297.160 158.625 M 312.272 161 C 312.272 163.475, 312.467 164.488, 312.706 163.250 C 312.944 162.012, 312.944 159.988, 312.706 158.750 C 312.467 157.512, 312.272 158.525, 312.272 161 M 313.684 165.382 C 313.308 166.362, 313.029 167.914, 313.063 168.832 C 313.105 169.937, 313.453 169.685, 314.092 168.086 C 314.623 166.758, 314.902 165.206, 314.712 164.636 C 314.522 164.067, 314.059 164.403, 313.684 165.382 M 302.986 172.250 C 302.979 172.938, 302.687 174.625, 302.339 176 C 301.435 179.564, 302.881 177.903, 303.961 174.136 C 304.509 172.224, 304.497 171, 303.930 171 C 303.419 171, 302.994 171.563, 302.986 172.250 M 94.203 183.054 C 95.785 183.976, 95.759 184.294, 93.839 187.549 C 91.418 191.652, 89.263 193, 85.125 193 C 81.541 193, 80.269 194.491, 82.695 195.849 C 84.219 196.702, 84.303 197.448, 83.380 201.953 C 82.802 204.776, 82.648 207.283, 83.038 207.524 C 84.023 208.132, 83.365 219.433, 82.215 221.670 C 81.698 222.677, 80.987 225.525, 80.636 228 C 79.178 238.281, 76.737 244.642, 73.362 246.954 C 71.073 248.523, 69.447 248.959, 67.819 248.443 C 65.767 247.791, 65.665 247.891, 66.880 249.356 C 68.874 251.758, 67.807 251.410, 61.074 247.464 C 53.061 242.768, 43.277 238.699, 33.500 235.996 C 29.100 234.779, 24.957 233.344, 24.294 232.806 C 22.463 231.321, 21.459 232.433, 18.944 238.733 C 16.114 245.821, 9.687 258.998, 4.181 269 C -2.490 281.119, -6.130 280, 39.955 280 L 79.909 280 80.495 276.750 C 80.867 274.684, 80.352 271.496, 79.083 268 L 77.086 262.500 80.293 259.720 C 82.057 258.191, 87.796 254.067, 93.046 250.557 C 106.417 241.618, 113.996 233.151, 122.214 217.975 L 128.927 205.575 126.904 202.538 C 125.792 200.867, 124.420 198.281, 123.857 196.791 C 123.294 195.301, 122.030 193.827, 121.048 193.515 C 120.067 193.204, 118.460 192.060, 117.477 190.974 C 116.494 189.889, 114.966 189, 114.082 189 C 113.198 189, 112.030 188.004, 111.487 186.787 C 110.614 184.831, 109.722 184.568, 103.778 184.516 C 99.874 184.482, 96.542 183.942, 95.828 183.228 C 95.153 182.553, 94.127 182.014, 93.550 182.030 C 92.972 182.047, 93.266 182.508, 94.203 183.054 M 134.030 189.701 C 133.968 192.177, 136.218 201.115, 136.767 200.567 C 137.081 200.253, 138.204 200.779, 139.262 201.737 C 140.941 203.256, 140.865 202.751, 138.668 197.785 C 135.535 190.700, 134.070 188.146, 134.030 189.701 M 120.557 200.908 C 120.249 201.407, 120.418 202.869, 120.935 204.158 C 121.813 206.349, 121.877 206.290, 121.937 203.250 C 122.001 199.964, 121.581 199.251, 120.557 200.908 M 110.763 202.868 C 106.196 205.942, 101.038 211.665, 99.484 215.385 C 98.629 217.431, 97.654 222.681, 97.316 227.052 C 96.665 235.505, 96.819 235.769, 101.963 235.026 C 105.137 234.567, 115 220.070, 115 215.863 C 115 214.180, 115.884 213.097, 118.036 212.144 C 120.470 211.067, 120.945 210.375, 120.432 208.650 C 118.573 202.403, 114.804 200.149, 110.763 202.868 M 330.079 210.583 C 330.127 211.748, 330.364 211.985, 330.683 211.188 C 330.972 210.466, 330.936 209.603, 330.604 209.271 C 330.272 208.939, 330.036 209.529, 330.079 210.583 M 338.071 230.500 C 338.071 231.050, 338.714 232.625, 339.500 234 C 340.286 235.375, 340.929 236.050, 340.929 235.500 C 340.929 234.950, 340.286 233.375, 339.500 232 C 338.714 230.625, 338.071 229.950, 338.071 230.500 M 240 257 C 239.411 258.100, 239.155 259, 239.430 259 C 239.705 259, 240.411 258.100, 241 257 C 241.589 255.900, 241.845 255, 241.570 255 C 241.295 255, 240.589 255.900, 240 257 M 252.633 258.337 C 250.811 262.695, 249.609 266.632, 250.292 266 C 251.122 265.232, 255.035 255, 254.499 255 C 254.239 255, 253.399 256.502, 252.633 258.337 M 235.600 265.600 C 235.244 266.527, 235.178 267.511, 235.453 267.786 C 235.728 268.061, 236.244 267.527, 236.600 266.600 C 236.956 265.673, 237.022 264.689, 236.747 264.414 C 236.472 264.139, 235.956 264.673, 235.600 265.600 M 248.040 268.452 C 247.377 269.251, 246.985 270.647, 247.167 271.555 C 247.390 272.658, 247.886 272.176, 248.663 270.103 C 249.956 266.655, 249.823 266.304, 248.040 268.452 M 342.782 269.582 C 343.392 270.727, 344.664 272.302, 345.609 273.082 C 347.173 274.372, 347.228 274.312, 346.218 272.418 C 345.608 271.273, 344.336 269.698, 343.391 268.918 C 341.827 267.628, 341.772 267.688, 342.782 269.582 M 233.667 270.667 C 233.300 271.033, 233 271.798, 233 272.367 C 233 272.993, 233.466 272.934, 234.183 272.217 C 234.834 271.566, 235.134 270.801, 234.850 270.517 C 234.566 270.233, 234.033 270.300, 233.667 270.667 M 204.405 275.250 L 202.500 277.500 204.750 275.595 C 205.988 274.547, 207 273.535, 207 273.345 C 207 272.545, 206.195 273.136, 204.405 275.250 M 246 275.059 C 246 275.641, 246.450 275.840, 247 275.500 C 247.550 275.160, 248 274.684, 248 274.441 C 248 274.198, 247.550 274, 247 274 C 246.450 274, 246 274.477, 246 275.059" stroke="none" fill="#3467df" fill-rule="evenodd"/>
</svg>