<svg xmlns="http://www.w3.org/2000/svg" width="420" height="280" viewBox="0 0 420 280" version="1.1">
	<rect x="0" y="0" width="100%" height="100%" fill="#bfbfbf" />
	<path d="M 76.551 2.250 C 76.283 3.488, 75.345 8.518, 74.466 13.429 L 72.869 22.357 76.079 29.323 L 79.290 36.290 77.644 53.895 C 74.237 90.341, 74.448 111.386, 78.614 150.476 C 79.837 161.948, 80.653 166.015, 82.105 167.861 C 83.147 169.186, 84 171.082, 84 172.076 C 84 173.069, 84.450 174.160, 85 174.500 C 85.550 174.840, 86 174.416, 86 173.559 C 86 172.702, 86.360 172, 86.800 172 C 88.767 172, 90 174.773, 90 179.200 C 90 184.023, 88.856 185.352, 87.220 182.428 C 85.785 179.864, 83.588 205.474, 84.370 215.648 C 85.159 225.916, 87.653 232.014, 92.161 234.694 C 94.699 236.204, 95.919 238.467, 99.601 248.500 C 102.023 255.100, 105.905 264.887, 108.227 270.250 L 112.449 280 142.750 280 L 173.051 280 171.580 277.250 C 170.771 275.738, 166.741 270.762, 162.625 266.194 C 155.387 258.162, 155.074 257.602, 153.116 249.194 C 152.002 244.412, 149.046 228.575, 146.546 214 C 144.047 199.425, 140.878 181.425, 139.504 174 C 138.131 166.575, 135.202 149.475, 132.996 136 C 130.789 122.525, 127.197 101.150, 125.013 88.500 C 122.829 75.850, 121.032 63.573, 121.021 61.218 C 121.009 58.864, 121.955 54.139, 123.121 50.718 C 126.653 40.365, 128.975 29.807, 128.998 24 C 129.022 17.798, 132.231 9.850, 136.118 6.362 C 137.813 4.840, 141.375 3.742, 148.477 2.552 C 153.964 1.632, 158.652 0.682, 158.893 0.440 C 159.135 0.198, 140.817 0, 118.186 0 L 77.038 0 76.551 2.250 M 186.158 1.463 C 177.356 3.592, 177.034 4.503, 181.942 13.395 C 188.420 25.130, 189.279 25.403, 209 21.988 C 243.132 16.077, 243.319 15.973, 237.820 5.970 L 234.538 0 213.019 0.085 C 199.135 0.140, 189.605 0.629, 186.158 1.463 M 207 3.640 C 205.075 4.513, 204.063 5.438, 204.750 5.697 C 205.438 5.955, 206 6.804, 206 7.583 C 206 8.686, 206.412 8.612, 207.857 7.250 C 208.879 6.287, 209.666 5.207, 209.607 4.850 C 209.548 4.492, 209.838 4.155, 210.250 4.100 C 212.362 3.818, 213.058 4.097, 212.500 5 C 212.160 5.550, 212.610 6, 213.500 6 C 214.390 6, 214.859 6.419, 214.543 6.931 C 214.226 7.443, 214.405 8.132, 214.940 8.463 C 215.475 8.794, 215.681 9.667, 215.399 10.403 C 214.666 12.312, 217.717 13.193, 220.040 11.743 C 222.787 10.027, 222.479 7.475, 219.250 5.192 C 215.204 2.333, 211.048 1.806, 207 3.640 M 174.114 16.363 C 172.819 17.923, 173.633 19, 176.108 19 C 178.729 19, 179.341 17.253, 177.133 16.071 C 175.726 15.318, 174.916 15.397, 174.114 16.363 M 272.500 23.070 C 260.950 25.204, 251.450 26.961, 251.389 26.975 C 251.327 26.989, 251.505 28.192, 251.784 29.649 C 252.165 31.645, 251.970 32.099, 250.990 31.494 C 250.102 30.945, 249.933 31.083, 250.457 31.930 C 250.878 32.611, 250.905 36.976, 250.518 41.629 C 249.950 48.447, 249.558 49.878, 248.501 49.001 C 247.716 48.349, 244.043 48.050, 239.345 48.255 L 231.500 48.598 239.633 48.799 C 247.141 48.985, 247.813 49.173, 248.370 51.250 C 249.611 55.883, 249.080 59.166, 247 59.710 C 245.900 59.998, 245 60.631, 245 61.117 C 245 61.602, 244.295 62, 243.433 62 C 242.266 62, 242.045 61.425, 242.567 59.750 C 243.325 57.323, 244.762 56.040, 246.750 56.015 C 247.438 56.007, 248 55.325, 248 54.500 C 248 53.292, 246.444 53, 240 53 C 235.333 53, 232 52.583, 232 52 C 232 51.417, 228.667 51, 224 51 C 218.883 51, 216 51.394, 216 52.092 C 216 52.872, 204.615 53.040, 176.208 52.681 L 136.417 52.178 134.072 55.601 C 131.031 60.038, 131.075 60.452, 140.606 117 C 148.616 164.521, 160.075 230.616, 162.826 245.157 C 164.081 251.791, 166.956 256.205, 171.465 258.422 C 176.211 260.755, 171.494 261.472, 240.500 247.922 C 321.620 231.994, 333.675 229.443, 336.466 227.614 C 340.893 224.714, 342.986 220.264, 342.371 215.060 C 341.845 210.608, 338.734 192.085, 334.971 171 C 333.941 165.225, 329.233 138, 324.509 110.500 C 311.850 36.799, 310.064 26.988, 308.916 24.842 C 307.229 21.691, 301.879 18.999, 297.500 19.098 C 295.300 19.149, 284.050 20.936, 272.500 23.070 M 238.750 29.662 C 239.438 29.940, 240.563 29.940, 241.250 29.662 C 241.938 29.385, 241.375 29.158, 240 29.158 C 238.625 29.158, 238.063 29.385, 238.750 29.662 M 245 30.652 L 241.500 32.065 244.684 31.571 C 246.673 31.262, 248.027 31.531, 248.291 32.288 C 248.523 32.955, 248.601 32.736, 248.464 31.803 C 248.327 30.869, 248.954 29.909, 249.857 29.669 C 251.077 29.345, 251.113 29.233, 250 29.235 C 249.175 29.237, 246.925 29.875, 245 30.652 M 223.500 31.843 C 218.550 32.724, 215.400 33.575, 216.500 33.733 C 217.600 33.891, 222.775 33.165, 228 32.120 C 239.522 29.815, 236.077 29.603, 223.500 31.843 M 176.750 40.282 C 158.738 43.635, 144 46.670, 144 47.027 C 144 47.384, 149.287 46.630, 155.750 45.352 C 163.214 43.875, 169.050 43.246, 171.750 43.627 C 176.694 44.325, 177.568 46.022, 172.750 45.568 C 170.883 45.393, 170.564 45.470, 172 45.750 C 174.357 46.209, 174.386 46.288, 172.500 47.134 C 170.894 47.854, 171.042 47.925, 173.250 47.496 C 174.801 47.195, 176 47.406, 176 47.981 C 176 49.334, 183.092 49.263, 185 47.890 C 186.274 46.974, 186.241 46.894, 184.782 47.362 C 182.793 48, 181.364 46.422, 183.244 45.664 C 184.021 45.351, 183.852 45.128, 182.800 45.079 C 181.865 45.036, 180.683 45.745, 180.173 46.654 C 179.535 47.795, 178.666 48.070, 177.374 47.538 C 176.083 47.007, 175.902 46.618, 176.792 46.286 C 178.701 45.576, 176.309 43.023, 173.628 42.910 C 170.664 42.784, 175.147 41.642, 187.082 39.483 C 194.685 38.107, 197.162 37.993, 199.082 38.930 C 201.428 40.075, 201.440 40.061, 199.500 38.460 C 197.593 36.887, 197.710 36.837, 202 37.401 C 205.151 37.816, 205.900 37.716, 204.500 37.067 C 202.800 36.279, 203.025 36.115, 206 35.971 C 207.925 35.877, 210.625 35.440, 212 35 L 214.500 34.199 212 34.193 C 210.625 34.190, 194.762 36.930, 176.750 40.282 M 226.499 35.002 C 226.130 35.598, 223.743 35.752, 220.598 35.383 C 215.535 34.787, 215.324 34.857, 215.487 37.074 C 215.581 38.345, 216.297 39.558, 217.079 39.769 C 218.206 40.073, 218.189 39.933, 217 39.091 C 215.898 38.312, 215.847 38.027, 216.809 38.015 C 217.529 38.007, 217.867 37.593, 217.559 37.096 C 217.249 36.593, 219.550 36.244, 222.750 36.308 C 225.913 36.371, 229.400 35.892, 230.500 35.242 C 232.384 34.130, 232.343 34.059, 229.809 34.030 C 228.329 34.014, 226.839 34.451, 226.499 35.002 M 210 37 L 207.500 37.801 210.250 37.900 C 211.762 37.955, 213 37.550, 213 37 C 213 36.450, 212.887 36.045, 212.750 36.100 C 212.613 36.155, 211.375 36.560, 210 37 M 230 38 C 230 38.550, 230.450 39, 231 39 C 231.550 39, 232 38.550, 232 38 C 232 37.450, 231.550 37, 231 37 C 230.450 37, 230 37.450, 230 38 M 219.813 38.683 C 220.534 38.972, 221.397 38.936, 221.729 38.604 C 222.061 38.272, 221.471 38.036, 220.417 38.079 C 219.252 38.127, 219.015 38.364, 219.813 38.683 M 211.813 39.683 C 212.534 39.972, 213.397 39.936, 213.729 39.604 C 214.061 39.272, 213.471 39.036, 212.417 39.079 C 211.252 39.127, 211.015 39.364, 211.813 39.683 M 180 42.956 C 178.078 43.537, 178.610 43.708, 182.301 43.697 C 185.215 43.688, 186.591 43.357, 185.801 42.856 C 184.297 41.902, 183.435 41.916, 180 42.956 M 164.117 44.867 C 162.192 45.407, 162 45.741, 163.117 46.607 C 164.147 47.406, 164.946 47.210, 166.250 45.839 C 168.102 43.893, 167.908 43.805, 164.117 44.867 M 156 47.059 C 156 47.641, 156.450 47.840, 157 47.500 C 157.550 47.160, 158 46.684, 158 46.441 C 158 46.198, 157.550 46, 157 46 C 156.450 46, 156 46.477, 156 47.059 M 138.965 48.542 C 138.041 49.656, 137.988 50.388, 138.775 51.175 C 140.115 52.515, 143.029 51.536, 142.921 49.781 C 142.859 48.778, 142.733 48.771, 142.338 49.750 C 141.731 51.253, 139 51.431, 139 49.968 C 139 49.400, 140.012 48.529, 141.250 48.031 C 142.773 47.419, 142.974 47.106, 141.872 47.063 C 140.977 47.029, 139.669 47.694, 138.965 48.542 M 151.813 47.683 C 152.534 47.972, 153.397 47.936, 153.729 47.604 C 154.061 47.272, 153.471 47.036, 152.417 47.079 C 151.252 47.127, 151.015 47.364, 151.813 47.683 M 203.750 48.732 C 206.088 48.943, 209.912 48.943, 212.250 48.732 C 214.588 48.522, 212.675 48.349, 208 48.349 C 203.325 48.349, 201.412 48.522, 203.750 48.732 M 118.158 54 C 118.158 55.375, 118.385 55.938, 118.662 55.250 C 118.940 54.563, 118.940 53.438, 118.662 52.750 C 118.385 52.063, 118.158 52.625, 118.158 54 M 285.852 52.706 C 283.508 53.066, 283.289 53.424, 283.948 55.807 C 284.608 58.192, 285.130 58.473, 288.502 58.262 C 293.156 57.971, 293.258 57.877, 292.440 54.618 C 291.782 51.995, 291.333 51.864, 285.852 52.706 M 135.200 55.200 C 134.540 55.860, 134.030 57.097, 134.068 57.950 C 134.113 58.980, 134.497 58.750, 135.213 57.267 C 136.037 55.560, 136.903 55.152, 138.895 55.533 C 141.122 55.958, 141.210 55.894, 139.500 55.086 C 136.804 53.812, 136.582 53.818, 135.200 55.200 M 279.718 55.250 C 279.060 57.085, 280.833 60, 282.607 60 C 283.950 60, 283.939 59.796, 282.514 58.371 C 281.618 57.475, 281.122 56.125, 281.411 55.371 C 281.700 54.617, 281.539 54, 281.052 54 C 280.565 54, 279.965 54.563, 279.718 55.250 M 235.750 63.710 C 233.863 64.181, 233.699 64.658, 233.579 70.035 C 233.519 72.708, 233.909 73.571, 235.177 73.571 C 236.099 73.571, 236.632 73.214, 236.362 72.777 C 235.251 70.979, 237.208 68, 239.501 68 C 241.283 68, 241.945 68.625, 242.184 70.531 C 242.595 73.819, 244.402 74.197, 244.841 71.088 C 245.028 69.761, 245.816 68.041, 246.591 67.266 C 249.423 64.434, 248.251 63.205, 242.750 63.240 C 239.863 63.258, 236.713 63.470, 235.750 63.710 M 190.277 70.123 C 189.618 70.782, 187.823 71.455, 186.289 71.618 C 179.188 72.369, 178.990 72.564, 180.748 77.041 C 181.819 79.767, 182.797 80.908, 183.750 80.542 C 184.528 80.244, 185.802 80, 186.582 80 C 187.447 80, 188.025 78.927, 188.063 77.250 C 188.121 74.733, 188.199 74.679, 188.980 76.612 C 190.172 79.561, 193.500 80.210, 195.590 77.900 C 199.179 73.935, 194.018 66.382, 190.277 70.123 M 172.200 74.200 C 170.391 76.009, 170.650 82, 172.538 82 C 173.607 82, 173.988 81.193, 173.788 79.355 C 173.410 75.885, 175.739 75.110, 176.572 78.429 C 177.299 81.329, 180 81.954, 180 79.223 C 180 74.667, 174.971 71.429, 172.200 74.200 M 249.438 76.250 C 249.786 77.843, 249.610 79, 249.019 79 C 248.459 79, 248 78.345, 248 77.544 C 248 76.378, 246.612 76.154, 241.008 76.416 C 237.162 76.595, 233.302 77.335, 232.429 78.059 C 231.557 78.783, 229.641 79.501, 228.172 79.656 C 224.104 80.084, 220.500 80.715, 220.500 81 C 220.500 81.140, 219.488 81.423, 218.250 81.628 C 217.012 81.832, 215.213 82.150, 214.250 82.333 C 213.287 82.516, 210.588 83.024, 208.250 83.461 C 205.908 83.899, 204 84.824, 204 85.521 C 204 86.217, 203.288 87.059, 202.418 87.393 C 200.168 88.257, 200 88.187, 200 86.393 C 200 85.375, 200.550 84.997, 201.500 85.362 C 202.433 85.720, 203 85.355, 203 84.399 C 203 83.376, 202.247 82.968, 200.750 83.180 C 199.025 83.425, 198.427 84.259, 198.187 86.750 C 197.817 90.584, 197.969 90.610, 208.173 88.464 C 213.308 87.384, 215.584 87.253, 215.842 88.025 C 216.078 88.734, 216.805 88.581, 217.898 87.593 C 218.827 86.751, 221.030 85.953, 222.794 85.819 C 225.261 85.631, 226.007 85.105, 226.030 83.537 C 226.060 81.535, 226.080 81.534, 227.195 83.456 C 228.321 85.397, 228.335 85.397, 229.094 83.456 C 229.804 81.641, 229.864 81.662, 229.930 83.750 C 230.046 87.473, 231.931 86.283, 232.606 82.062 C 232.952 79.896, 233.838 77.892, 234.575 77.610 C 235.605 77.214, 235.706 77.643, 235.011 79.470 C 234.356 81.193, 234.505 82.174, 235.554 83.045 C 236.349 83.705, 237 83.815, 237 83.289 C 237 82.338, 237.657 82.174, 242.579 81.896 C 243.998 81.816, 245.395 81.134, 245.684 80.382 C 246.024 79.494, 247.049 79.225, 248.604 79.616 C 249.953 79.954, 251 79.773, 251 79.202 C 251 78.644, 251.900 78.423, 253 78.710 C 254.522 79.108, 255 78.741, 255 77.174 C 255 75.590, 254.492 75.213, 252.798 75.539 C 251.586 75.772, 250.200 75.409, 249.717 74.732 C 249.173 73.969, 249.067 74.548, 249.438 76.250 M 164.986 77.750 C 164.979 78.713, 164.701 80.513, 164.370 81.750 C 163.636 84.489, 165.670 84.803, 167.608 82.250 C 169.416 79.868, 169.331 77.341, 167.418 76.607 C 165.151 75.737, 165.002 75.807, 164.986 77.750 M 244.750 89.080 C 243.787 89.641, 243 90.752, 243 91.550 C 243 93.350, 242.990 93.351, 246.946 91.377 C 250.032 89.838, 250.302 89.857, 252.204 91.760 C 254.843 94.398, 253.779 97.832, 249.906 99.183 C 245.775 100.623, 246.309 101.835, 251.231 102.193 C 254.862 102.456, 255.605 102.905, 256.461 105.355 C 257.320 107.809, 257.131 108.475, 255.119 110.105 C 253.832 111.147, 251.267 112, 249.421 112 C 246.847 112, 246.197 112.350, 246.638 113.500 C 247.365 115.392, 250.085 115.409, 254.538 113.548 C 260.463 111.073, 261.667 103.172, 256.480 100.809 C 254.536 99.923, 254.257 99.395, 255.159 98.308 C 256.618 96.551, 256.489 91.295, 254.942 89.431 C 253.579 87.787, 247.338 87.573, 244.750 89.080 M 228.250 94.017 C 226.463 95.642, 225 97.653, 225 98.486 C 225 100.178, 227.541 100.551, 228.500 99 C 229.755 96.970, 230.744 98.111, 231.316 102.250 C 232.778 112.825, 234.120 117, 236.058 117 C 237.585 117, 237.847 116.469, 237.415 114.250 C 237.121 112.737, 236.099 107.030, 235.144 101.568 C 234.188 96.105, 232.978 91.507, 232.453 91.349 C 231.929 91.192, 230.037 92.392, 228.250 94.017 M 286.548 96.250 C 286.334 96.938, 285.761 98.811, 285.275 100.414 L 284.391 103.328 282.155 99.538 C 279.406 94.879, 278.546 95.486, 279.441 101.454 C 280.212 106.599, 281.853 107.753, 281.284 102.750 L 280.914 99.500 282.489 102.250 C 284.552 105.852, 285.591 105.721, 286.466 101.750 L 287.181 98.500 288.603 102 L 290.024 105.500 289.523 101.500 C 289.247 99.300, 289.017 96.938, 289.011 96.250 C 289.005 95.563, 288.536 95, 287.969 95 C 287.401 95, 286.762 95.563, 286.548 96.250 M 202 97.505 C 198.975 98.112, 196.512 99.033, 196.526 99.554 C 196.541 100.074, 196.915 103.121, 197.357 106.324 L 198.162 112.148 202.116 111.480 C 206.859 110.679, 209 112.084, 209 116 C 209 119.440, 206.817 121.328, 202.965 121.218 C 201.085 121.165, 200 121.633, 200 122.499 C 200 126.824, 210.733 123.697, 212.388 118.890 C 214.409 113.023, 210.969 108, 204.929 108 C 202.460 108, 200.995 107.536, 200.986 106.750 C 200.979 106.063, 200.716 104.544, 200.403 103.376 C 199.899 101.498, 200.364 101.172, 204.416 100.565 C 207.314 100.130, 209 99.370, 209 98.498 C 209 96.435, 208.027 96.297, 202 97.505 M 272.168 97.875 C 270.609 98.863, 271.559 108, 273.221 108 C 273.767 108, 273.958 107.332, 273.644 106.515 C 273.309 105.643, 273.884 104.598, 275.037 103.980 C 277.395 102.718, 277.650 98.463, 275.418 97.607 C 273.506 96.873, 273.785 96.850, 272.168 97.875 M 272.015 99.750 C 272.050 101.442, 273.851 103.210, 274.888 102.569 C 276.738 101.426, 276.135 99, 274 99 C 272.900 99, 272.007 99.338, 272.015 99.750 M 181.707 103.379 C 179.668 105.193, 178 107.425, 178 108.338 C 178 110.433, 178.856 110.440, 181.150 108.364 C 183.307 106.413, 183.338 106.479, 185.009 116.500 C 186.605 126.067, 186.921 127, 188.567 127 C 189.355 127, 189.997 126.213, 189.993 125.250 C 189.985 123.056, 186.184 100.850, 185.741 100.407 C 185.561 100.228, 183.746 101.565, 181.707 103.379 M 278.200 122.051 C 275.932 125.682, 276.651 127.320, 280.200 126.610 C 281.960 126.258, 283.754 125.414, 284.185 124.735 C 284.794 123.776, 284.973 123.793, 284.985 124.809 C 284.993 125.529, 285.408 125.866, 285.906 125.558 C 287.357 124.662, 285.927 120.998, 284.133 121.015 C 282.987 121.026, 282.861 121.260, 283.710 121.800 C 284.583 122.355, 284.374 122.910, 282.960 123.793 C 281.265 124.851, 281 124.753, 281 123.067 C 281 120.300, 279.609 119.795, 278.200 122.051 M 290 121.456 C 290 122.900, 289.722 123.014, 288.559 122.049 C 287.319 121.020, 287.282 121.287, 288.297 123.977 L 289.476 127.100 290.295 123.941 C 290.746 122.203, 290.863 120.530, 290.557 120.224 C 290.251 119.917, 290 120.472, 290 121.456 M 272.496 124.007 C 272.153 124.561, 272.614 125.299, 273.520 125.646 C 274.837 126.151, 274.900 126.448, 273.834 127.124 C 272.812 127.771, 272.910 127.973, 274.250 127.985 C 275.212 127.993, 276 127.325, 276 126.500 C 276 125.675, 275.212 124.993, 274.250 124.985 C 272.754 124.972, 272.718 124.828, 274 124 C 274.901 123.418, 275.025 123.025, 274.309 123.015 C 273.654 123.007, 272.838 123.453, 272.496 124.007 M 278 124.500 C 278 125.325, 278.450 126, 279 126 C 279.550 126, 280 125.325, 280 124.500 C 280 123.675, 279.550 123, 279 123 C 278.450 123, 278 123.675, 278 124.500 M 256.543 124.931 C 256.226 125.443, 256.425 126.144, 256.984 126.490 C 257.543 126.835, 258 127.991, 258 129.059 C 258 130.127, 258.337 131, 258.750 131 C 259.163 131, 259.500 129.425, 259.500 127.500 C 259.500 124.194, 257.872 122.780, 256.543 124.931 M 267.667 124.667 C 267.300 125.033, 267 126.110, 267 127.060 C 267 129.114, 269.644 130.386, 270.622 128.802 C 271.038 128.129, 270.854 127.972, 270.155 128.405 C 269.520 128.797, 269 128.679, 269 128.142 C 269 127.606, 269.530 126.990, 270.177 126.774 C 270.824 126.559, 271.023 125.846, 270.618 125.191 C 269.797 123.862, 268.671 123.662, 267.667 124.667 M 265 127 C 265 129.463, 263.315 129.646, 262.689 127.250 C 262.345 125.933, 262.203 126.057, 262.116 127.750 C 262.032 129.372, 262.558 130, 264 130 C 265.467 130, 266 129.333, 266 127.500 C 266 126.125, 265.775 125, 265.500 125 C 265.225 125, 265 125.900, 265 127 M 238.161 130.547 C 237.522 131.948, 237 133.748, 237 134.547 C 237 137.459, 235.205 135.904, 234.552 132.427 C 233.993 129.445, 233.641 129.053, 232.429 130.059 C 231.442 130.878, 231.292 131.647, 231.961 132.454 C 232.504 133.107, 232.847 135.071, 232.724 136.819 C 232.522 139.690, 232.187 139.996, 229.250 139.998 C 227.027 139.999, 226 139.526, 226 138.500 C 226 137.667, 226.889 137, 228 137 C 229.100 137, 230 136.501, 230 135.892 C 230 135.222, 229.053 135.021, 227.606 135.384 C 225.610 135.885, 225.099 135.530, 224.525 133.244 C 223.871 130.637, 223.769 130.595, 222.455 132.393 C 221.694 133.433, 220.857 134.782, 220.594 135.392 C 220.301 136.072, 219.688 135.824, 219.008 134.750 C 218.399 133.787, 217.023 133, 215.950 133 C 214.473 133, 214 133.691, 214 135.851 C 214 138.843, 214.030 138.834, 206.500 138.125 L 204.500 137.936 206.500 136.390 C 208.459 134.875, 208.450 134.849, 206.078 135.171 C 204.381 135.402, 203.608 136.184, 203.493 137.785 C 203.367 139.537, 203.794 140.004, 205.322 139.785 C 206.417 139.628, 207.506 140.063, 207.740 140.750 C 207.975 141.438, 207.491 142, 206.665 142 C 205.839 142, 204.479 142.263, 203.643 142.584 C 202.516 143.016, 201.948 142.238, 201.450 139.584 C 201.080 137.613, 200.426 136, 199.996 136 C 198.732 136, 197.786 139.429, 198.943 139.814 C 200.407 140.302, 200.271 142.740, 198.750 143.265 C 198.047 143.508, 197.032 142.368, 196.431 140.659 C 195.183 137.111, 193.773 136.373, 191.866 138.268 C 191.115 139.015, 189.194 139.598, 187.598 139.563 C 185.852 139.525, 184.507 140.098, 184.223 141 C 183.841 142.211, 184.006 142.259, 185.075 141.250 C 186.801 139.622, 188 139.661, 188 141.345 C 188 144.065, 184.298 145.864, 176.146 147.106 C 171.232 147.854, 167.587 148.913, 167.294 149.677 C 166.871 150.780, 167.938 156.953, 169.625 163.156 C 169.873 164.067, 170.621 164.691, 171.288 164.542 C 174.385 163.853, 179 161.722, 179 160.982 C 179 160.529, 180.350 159.862, 182 159.500 C 183.852 159.093, 185.012 158.202, 185.030 157.171 C 185.116 152.493, 187.120 159.952, 189.570 174.063 C 191.044 182.553, 192.592 189.875, 193.009 190.334 C 193.956 191.374, 224.070 185.205, 225.670 183.643 C 226.562 182.771, 226.412 180.247, 225.036 173 C 224.043 167.775, 222.688 160.238, 222.025 156.250 C 220.595 147.649, 221.580 147.913, 203.799 151.373 C 197.364 152.625, 192.358 153.229, 192.676 152.716 C 193.023 152.154, 191.508 152.048, 188.877 152.450 C 185.849 152.912, 184.948 152.812, 185.952 152.125 C 186.751 151.579, 187.763 151.354, 188.202 151.625 C 188.641 151.896, 189 151.728, 189 151.251 C 189 150.005, 195.432 147.380, 203.250 145.435 C 207.164 144.462, 210 143.223, 210 142.485 C 210 140.760, 213.087 139.687, 214.367 140.967 C 215.960 142.560, 220 142.225, 220 140.500 C 220 139.602, 220.903 139.013, 222.250 139.032 C 224.379 139.062, 224.402 139.138, 222.675 140.447 C 220.728 141.922, 222.115 141.905, 234 140.304 C 237.940 139.773, 238.189 139.605, 236 138.949 C 234.587 138.525, 234.215 138.156, 235.143 138.100 C 236.047 138.045, 237.065 137.274, 237.405 136.387 C 237.789 135.386, 238.755 134.964, 239.948 135.276 C 241.973 135.806, 243.623 133.503, 241.956 132.473 C 241.430 132.148, 241 131.009, 241 129.941 C 241 127.214, 239.537 127.527, 238.161 130.547 M 215.617 134.810 C 214.888 135.990, 216.047 140, 217.117 140 C 218.295 140, 218.254 135.275, 217.069 134.543 C 216.557 134.226, 215.904 134.347, 215.617 134.810 M 288.488 139.294 C 289.199 141.655, 291.015 149.193, 292.524 156.044 C 294.033 162.895, 295.457 168.712, 295.688 168.971 C 295.920 169.230, 296.494 168.819, 296.965 168.057 C 297.652 166.944, 298.446 167.198, 300.996 169.343 C 302.742 170.812, 306.157 172.514, 308.585 173.126 C 311.013 173.737, 313 174.634, 313 175.119 C 313 175.603, 313.726 176, 314.614 176 C 315.969 176, 316.116 175.242, 315.531 171.250 C 315.149 168.637, 314.364 166.050, 313.789 165.500 C 313.065 164.809, 312.942 165.349, 313.390 167.250 C 314.224 170.787, 312.811 170.773, 303.500 167.152 L 296.500 164.429 293.815 151.105 C 290.672 135.506, 290.509 135, 288.629 135 C 287.407 135, 287.386 135.631, 288.488 139.294 M 192.015 140.250 C 192.038 142.085, 193.787 144.546, 194.537 143.796 C 195.411 142.922, 194.099 139, 192.933 139 C 192.420 139, 192.007 139.563, 192.015 140.250 M 189 144 C 189 144.550, 189.450 145, 190 145 C 190.550 145, 191 144.550, 191 144 C 191 143.450, 190.550 143, 190 143 C 189.450 143, 189 143.450, 189 144 M 273.223 144.557 C 270.317 146.592, 270.198 152.198, 273 155 C 275.736 157.736, 275.516 159.242, 272 161.842 C 268.954 164.094, 267.971 166.995, 270.250 167.007 C 270.938 167.010, 275.455 166.255, 280.289 165.329 C 287.150 164.014, 289.013 163.304, 288.779 162.093 C 288.521 160.753, 286.614 159.816, 281.262 158.399 C 280.364 158.162, 280.192 156.452, 280.639 152.182 C 281.203 146.779, 281.060 146.155, 278.905 144.646 C 276.029 142.631, 275.973 142.630, 273.223 144.557 M 302.472 144.045 C 302.079 144.681, 302.707 146.151, 303.868 147.312 C 305.545 148.990, 306.232 149.168, 307.216 148.184 C 308.128 147.272, 308.169 146.490, 307.370 145.222 C 306.039 143.109, 303.437 142.484, 302.472 144.045 M 300.624 158.538 C 300.282 159.429, 300.686 160.326, 301.584 160.671 C 303.451 161.387, 305.495 159.610, 304.554 158.087 C 303.573 156.499, 301.306 156.759, 300.624 158.538 M 309.323 159.601 C 308.615 161.445, 311.034 163.366, 312.374 162.026 C 313.466 160.934, 312.464 158, 311 158 C 310.415 158, 309.661 158.720, 309.323 159.601 M 219.250 165.557 C 218.563 166.304, 218 167.610, 218 168.458 C 218 169.306, 218.563 170.029, 219.250 170.063 C 219.938 170.098, 219.446 170.549, 218.158 171.065 C 215.621 172.082, 213.610 171.440, 214.553 169.915 C 214.875 169.394, 215.627 169.269, 216.224 169.638 C 216.877 170.042, 217.021 169.843, 216.585 169.138 C 216.187 168.494, 215.481 168.203, 215.016 168.490 C 214.551 168.777, 213.930 168.447, 213.635 167.756 C 213.341 167.065, 213.315 167.997, 213.578 169.826 C 213.883 171.954, 213.685 172.923, 213.028 172.517 C 212.462 172.168, 212 171.234, 212 170.441 C 212 169.648, 211.523 169, 210.941 169 C 210.359 169, 210.170 168.438, 210.522 167.750 C 210.873 167.063, 210.040 167.716, 208.669 169.203 C 206.740 171.295, 206.052 171.577, 205.620 170.453 C 205.314 169.654, 204.514 169, 203.844 169 C 203.174 169, 203.948 170.383, 205.563 172.074 C 207.819 174.435, 208.575 174.782, 208.823 173.574 C 209.238 171.554, 209.370 171.573, 213.492 174.250 C 218.199 177.307, 218.365 178.348, 214.483 180.439 C 211.392 182.104, 210.938 182.116, 207.928 180.614 C 204.195 178.752, 203.664 178.647, 204.457 179.931 C 204.774 180.443, 204.599 181.130, 204.069 181.458 C 203.536 181.787, 203.274 181.175, 203.482 180.091 C 203.690 179.012, 203.144 177.537, 202.268 176.814 C 201.392 176.092, 199.850 174.150, 198.842 172.500 C 197.568 170.417, 197.006 170.035, 197.004 171.250 C 197.002 172.213, 196.550 173, 196 173 C 195.450 173, 195 173.505, 195 174.122 C 195 174.940, 195.376 174.933, 196.383 174.097 C 197.444 173.216, 197.894 173.280, 198.312 174.371 C 198.686 175.346, 197.981 175.923, 196.074 176.203 C 193.785 176.538, 193.373 176.290, 193.761 174.806 C 194.021 173.813, 193.731 173, 193.117 173 C 192.502 173, 192 173.511, 192 174.135 C 192 176.909, 194.412 188, 195.015 188 C 196.266 188, 223.155 182.178, 223.501 181.832 C 223.690 181.643, 223.092 177.598, 222.172 172.843 C 220.813 165.814, 220.266 164.452, 219.250 165.557 M 202 167 C 202 167.550, 202.423 168, 202.941 168 C 203.459 168, 204.160 167.550, 204.500 167 C 204.840 166.450, 204.416 166, 203.559 166 C 202.702 166, 202 166.450, 202 167 M 218 174.059 C 218 174.641, 218.412 174.864, 218.915 174.553 C 219.418 174.242, 220.057 174.553, 220.336 175.244 C 220.641 176.002, 220.873 175.806, 220.921 174.750 C 220.964 173.787, 220.325 173, 219.500 173 C 218.675 173, 218 173.477, 218 174.059 M 195.750 177.689 C 194.787 177.941, 194 178.612, 194 179.180 C 194 179.749, 194.670 179.957, 195.490 179.642 C 196.483 179.261, 197.180 179.870, 197.582 181.469 C 197.965 182.996, 198.695 183.671, 199.592 183.326 C 200.366 183.029, 201 183.337, 201 184.010 C 201 184.731, 200.199 185.024, 199.048 184.723 C 197.974 184.442, 196.867 184.727, 196.588 185.356 C 196.308 185.985, 196.335 185.262, 196.648 183.750 C 197.110 181.517, 196.868 181.015, 195.358 181.079 C 194.336 181.122, 193.997 181.363, 194.605 181.614 C 195.212 181.865, 195.488 183.228, 195.217 184.645 C 194.747 187.104, 194.876 187.187, 198.112 186.492 C 202.428 185.565, 202.996 185.210, 202.540 183.718 C 202.335 183.048, 201.896 181.262, 201.564 179.750 C 200.969 177.030, 199.824 176.625, 195.750 177.689 M 198.638 180.500 C 198.955 181.325, 199.541 182, 199.940 182 C 200.340 182, 200.667 181.325, 200.667 180.500 C 200.667 179.675, 200.081 179, 199.365 179 C 198.618 179, 198.308 179.640, 198.638 180.500 M 217.134 180.732 C 215.379 181.582, 214.136 182.469, 214.371 182.704 C 214.836 183.169, 223 181.148, 223 180.568 C 223 179.334, 219.839 179.422, 217.134 180.732 M 204.667 182.667 C 203.650 183.683, 203.872 185, 205.059 185 C 205.641 185, 205.844 184.557, 205.509 184.015 C 205.135 183.409, 206.171 183.224, 208.200 183.534 C 210.792 183.930, 211.071 183.835, 209.500 183.089 C 207.042 181.923, 205.541 181.792, 204.667 182.667 M 304.070 184.611 C 304.014 186.313, 303.514 186.630, 301.500 186.245 C 300.111 185.979, 299 186.236, 299 186.822 C 299 187.402, 297.763 187.792, 296.251 187.688 C 294.090 187.540, 293.433 187.982, 293.181 189.754 C 292.771 192.631, 295.797 193.999, 297.479 191.697 C 298.271 190.614, 299.004 190.404, 299.668 191.068 C 301.039 192.439, 303.984 191.151, 304.070 189.143 C 304.125 187.860, 304.329 187.938, 305 189.500 C 305.783 191.323, 305.859 191.279, 305.859 189 C 305.859 187.625, 305.473 185.600, 305 184.500 C 304.159 182.543, 304.139 182.546, 304.070 184.611 M 307 185.500 C 307 186.325, 307.675 187, 308.500 187 C 310.318 187, 310.486 188.613, 308.750 189.399 C 308.063 189.710, 308.363 189.860, 309.417 189.732 C 312.170 189.399, 312.497 187.293, 309.923 186.476 C 308.211 185.932, 308.036 185.591, 309.118 184.906 C 310.214 184.212, 310.138 184.027, 308.750 184.015 C 307.788 184.007, 307 184.675, 307 185.500 M 286 187 C 286 187.550, 286.437 188, 286.971 188 C 287.506 188, 288.401 189.463, 288.960 191.250 L 289.977 194.500 289.461 190.843 C 289.116 188.401, 289.369 187.015, 290.222 186.672 C 290.925 186.389, 290.262 186.122, 288.750 186.079 C 287.238 186.036, 286 186.450, 286 187 M 300.154 188.438 C 300.345 189.355, 300.950 190.082, 301.500 190.053 C 302.984 189.974, 302.712 187.737, 301.154 187.218 C 300.313 186.938, 299.939 187.395, 300.154 188.438 M 294.154 189.552 C 294.345 190.532, 295.105 191.536, 295.846 191.782 C 296.706 192.069, 297.066 191.588, 296.846 190.448 C 296.655 189.468, 295.895 188.464, 295.154 188.218 C 294.294 187.931, 293.934 188.412, 294.154 189.552 M 209.589 207.500 C 210.370 210.612, 208.686 210.790, 207.220 207.750 C 206.185 205.604, 206.132 205.595, 206.068 207.550 C 205.983 210.100, 207.793 212.017, 209.622 211.315 C 211.201 210.709, 211.525 205, 209.981 205 C 209.393 205, 209.228 206.058, 209.589 207.500 M 86.463 209.346 C 85.585 214.024, 87.041 223.193, 88.750 223.755 C 90.598 224.364, 90.457 210.008, 88.590 207.454 C 87.268 205.646, 87.135 205.764, 86.463 209.346 M 201.250 206.667 C 199.717 207.280, 199.592 211.630, 201.081 212.550 C 201.764 212.972, 202.041 212.383, 201.831 210.952 C 201.391 207.940, 203.709 207.235, 204.332 210.192 C 204.690 211.893, 204.776 211.732, 204.659 209.577 C 204.498 206.610, 203.507 205.764, 201.250 206.667 M 190.667 207.667 C 190.300 208.033, 190 209.158, 190 210.167 C 190 211.175, 189.512 212, 188.917 212 C 188.321 212, 187.995 212.484, 188.192 213.075 C 188.810 214.929, 190.472 214.217, 191.150 211.809 L 191.801 209.500 191.900 211.750 C 191.955 212.988, 192.360 214, 192.799 214 C 193.239 214, 193.415 212.425, 193.190 210.500 C 192.794 207.112, 192.053 206.280, 190.667 207.667 M 185.070 210.250 C 185.109 211.488, 185.487 213.387, 185.911 214.472 C 186.590 216.210, 186.748 216.099, 187.238 213.535 C 187.544 211.936, 187.567 210.036, 187.290 209.313 C 186.474 207.186, 184.994 207.810, 185.070 210.250 M 194.390 209.426 C 193.480 211.797, 194.767 214.191, 196.747 213.810 C 199.125 213.352, 199.125 208.648, 196.747 208.190 C 195.783 208.004, 194.722 208.560, 194.390 209.426 M 278.813 245.683 C 279.534 245.972, 280.397 245.936, 280.729 245.604 C 281.061 245.272, 280.471 245.036, 279.417 245.079 C 278.252 245.127, 278.015 245.364, 278.813 245.683 M 262.813 248.683 C 263.534 248.972, 264.397 248.936, 264.729 248.604 C 265.061 248.272, 264.471 248.036, 263.417 248.079 C 262.252 248.127, 262.015 248.364, 262.813 248.683 M 256.750 249.662 C 257.438 249.940, 258.563 249.940, 259.250 249.662 C 259.938 249.385, 259.375 249.158, 258 249.158 C 256.625 249.158, 256.063 249.385, 256.750 249.662 M 242.750 252.662 C 243.438 252.940, 244.563 252.940, 245.250 252.662 C 245.938 252.385, 245.375 252.158, 244 252.158 C 242.625 252.158, 242.063 252.385, 242.750 252.662 M 236.750 253.662 C 237.438 253.940, 238.563 253.940, 239.250 253.662 C 239.938 253.385, 239.375 253.158, 238 253.158 C 236.625 253.158, 236.063 253.385, 236.750 253.662 M 227 255.057 C 211.523 258.815, 184.331 263.411, 177.337 263.452 C 170.245 263.494, 168.737 263.183, 165.837 261.080 C 162.591 258.727, 162.555 258.723, 164.498 260.933 C 169.341 266.442, 173.737 267.030, 188.153 264.100 C 193.294 263.055, 205.600 260.565, 215.500 258.566 C 225.400 256.567, 233.950 254.757, 234.500 254.545 C 236.408 253.807, 230.482 254.211, 227 255.057 M 256 257.631 C 247.891 259.236, 243.061 260.680, 242.250 261.743 C 240.003 264.690, 240.923 264.867, 245.750 262.418 C 249.045 260.747, 252.185 260.005, 256 259.998 C 259.025 259.992, 262.789 259.315, 264.364 258.494 C 265.940 257.672, 268.302 257, 269.614 257 C 272.452 257, 272.576 258.265, 270.500 266 C 268.768 272.454, 268.643 273.781, 269.892 272.450 C 270.382 271.928, 271.465 268.452, 272.298 264.728 C 273.634 258.753, 273.638 257.781, 272.335 256.478 C 270.526 254.669, 271.219 254.620, 256 257.631 M 153.079 257.128 C 153.036 258.023, 153.787 259.373, 154.750 260.128 C 156.271 261.320, 156.354 261.303, 155.384 260 C 154.771 259.175, 154.019 257.825, 153.713 257 C 153.249 255.745, 153.145 255.766, 153.079 257.128 M 237.216 269.758 C 236.592 272.916, 235.767 276.583, 235.383 277.906 C 234.949 279.401, 235.060 280.081, 235.674 279.702 C 236.759 279.031, 239.619 265.286, 238.836 264.503 C 238.569 264.235, 237.839 266.600, 237.216 269.758 M 292.500 276.542 L 276.500 279.801 291.135 279.901 L 305.770 280 307.448 277.439 C 308.371 276.030, 308.985 274.519, 308.813 274.081 C 308.641 273.642, 301.300 274.750, 292.500 276.542" stroke="none" fill="#3467df" fill-rule="evenodd"/>
</svg>