<svg xmlns="http://www.w3.org/2000/svg" width="53" height="52" viewBox="0 0 53 52" version="1.1">
	<rect x="0" y="0" width="100%" height="100%" fill="#bfbfbf" />
	<path d="M 16 5 C 16 5.550, 16.450 6, 17 6 C 17.550 6, 18 5.550, 18 5 C 18 4.450, 17.550 4, 17 4 C 16.450 4, 16 4.450, 16 5 M 24.432 6.322 C 23.718 7.863, 23.692 9.150, 24.354 10.200 C 25.063 11.323, 24.726 13.208, 23.173 16.821 C 21.978 19.598, 21 23.475, 21 25.435 C 21 27.396, 20.550 29, 20 29 C 19.450 29, 19 30.575, 19 32.500 C 19 35.917, 18.905 36, 15 36 L 11 36 11 40.892 C 11 45.275, 10.740 45.848, 8.500 46.411 C 7.125 46.756, 6 47.528, 6 48.126 C 6 48.724, 6.713 48.940, 7.585 48.606 C 12.404 46.756, 19.979 46.861, 27.785 48.884 C 32.274 50.048, 37.098 51, 38.506 51 C 41.910 51, 48 48.398, 48 46.944 C 48 46.307, 47.325 46.059, 46.500 46.393 C 45.675 46.727, 44.349 47.264, 43.552 47.587 C 42.406 48.052, 42.042 46.962, 41.802 42.337 L 41.500 36.500 37.250 36.193 C 33.133 35.895, 33 35.778, 33 32.443 C 33 30.549, 32.550 29, 32 29 C 31.450 29, 31 27.182, 31 24.960 C 31 22.738, 30.100 19.156, 29 17 C 26.901 12.885, 26.369 9, 27.906 9 C 28.404 9, 28.292 7.879, 27.656 6.508 C 26.228 3.430, 25.783 3.404, 24.432 6.322 M 43 6 C 43 6.550, 43.450 7, 44 7 C 44.550 7, 45 6.550, 45 6 C 45 5.450, 44.550 5, 44 5 C 43.450 5, 43 5.450, 43 6 M 41.333 10 C 41.333 12.222, 41.778 12.667, 44 12.667 C 46.222 12.667, 46.667 12.222, 46.667 10 C 46.667 7.778, 46.222 7.333, 44 7.333 C 41.778 7.333, 41.333 7.778, 41.333 10 M 3 10 C 3 10.550, 3.450 11, 4 11 C 4.550 11, 5 10.550, 5 10 C 5 9.450, 4.550 9, 4 9 C 3.450 9, 3 9.450, 3 10 M 39 10 C 39 10.550, 39.450 11, 40 11 C 40.550 11, 41 10.550, 41 10 C 41 9.450, 40.550 9, 40 9 C 39.450 9, 39 9.450, 39 10 M 47 10 C 47 10.550, 47.450 11, 48 11 C 48.550 11, 49 10.550, 49 10 C 49 9.450, 48.550 9, 48 9 C 47.450 9, 47 9.450, 47 10 M 43 14 C 43 14.550, 43.450 15, 44 15 C 44.550 15, 45 14.550, 45 14 C 45 13.450, 44.550 13, 44 13 C 43.450 13, 43 13.450, 43 14 M 13 16 C 13 16.550, 13.450 17, 14 17 C 14.550 17, 15 16.550, 15 16 C 15 15.450, 14.550 15, 14 15 C 13.450 15, 13 15.450, 13 16 M 24.623 18.540 C 23.722 20.888, 23.788 21, 26.073 21 C 27.471 21, 28.041 20.457, 27.823 19.333 C 27.381 17.050, 25.385 16.555, 24.623 18.540 M 4.987 23.909 L 2.500 26.500 5.250 29.376 C 7.264 31.482, 8 31.819, 8 30.634 C 8 29.745, 8.900 28.455, 10 27.768 C 12.184 26.404, 12.697 24.851, 10.832 25.250 C 10.189 25.387, 9.171 24.559, 8.569 23.409 C 7.480 21.329, 7.461 21.332, 4.987 23.909 M 23 26 C 23 28.667, 23.333 29, 26 29 C 28.667 29, 29 28.667, 29 26 C 29 23.333, 28.667 23, 26 23 C 23.333 23, 23 23.333, 23 26 M 25 25.417 C 25 26.288, 25.712 27, 26.583 27 C 28.349 27, 28.042 24.847, 26.188 24.229 C 25.534 24.011, 25 24.546, 25 25.417 M 39 25 C 39 25.550, 39.450 26, 40 26 C 40.550 26, 41 25.550, 41 25 C 41 24.450, 40.550 24, 40 24 C 39.450 24, 39 24.450, 39 25 M 21 33.500 C 21 35.833, 21.333 36, 26 36 C 30.667 36, 31 35.833, 31 33.500 C 31 31.167, 30.667 31, 26 31 C 21.333 31, 21 31.167, 21 33.500 M 47 35 C 47 36.333, 47.667 37, 49 37 C 50.333 37, 51 36.333, 51 35 C 51 33.667, 50.333 33, 49 33 C 47.667 33, 47 33.667, 47 35 M 13 41.500 C 13 44.722, 13.238 45, 16 45 C 18.762 45, 19 44.722, 19 41.500 C 19 38.278, 18.762 38, 16 38 C 13.238 38, 13 38.278, 13 41.500 M 21 41.500 C 21 45.361, 22.673 46.320, 23.180 42.750 C 23.415 41.102, 24.169 40.500, 26 40.500 C 28.038 40.500, 28.560 41.054, 28.827 43.500 C 29.417 48.913, 31 48.694, 31 43.200 L 31 38 26 38 L 21 38 21 41.500 M 33.198 43.250 C 33.492 48.370, 33.581 48.508, 36.750 48.813 L 40 49.127 40 43.563 L 40 38 36.448 38 L 32.895 38 33.198 43.250 M 25.531 43.293 C 25.103 44.279, 25.034 45.367, 25.376 45.710 C 26.392 46.725, 27.211 45.299, 26.743 43.328 C 26.329 41.581, 26.275 41.580, 25.531 43.293 M 1.500 44 C 1.840 44.550, 2.316 45, 2.559 45 C 2.802 45, 3 44.550, 3 44 C 3 43.450, 2.523 43, 1.941 43 C 1.359 43, 1.160 43.450, 1.500 44" stroke="none" fill="#3467df" fill-rule="evenodd"/>
</svg>