<svg xmlns="http://www.w3.org/2000/svg" width="51" height="52" viewBox="0 0 51 52" version="1.1">
	<rect x="0" y="0" width="100%" height="100%" fill="#bfbfbf" />
	<path d="M 25 6.174 L 25 9.349 22.504 7.004 C 18.701 3.431, 18.178 5.557, 21.912 9.409 C 25.723 13.341, 25.658 15.948, 21.716 17.262 C 17.629 18.623, 16 16.787, 16 10.819 C 16 7.782, 15.615 6.120, 15 6.500 C 14.450 6.840, 14 8.511, 14 10.214 C 14 13.250, 13.961 13.275, 11.994 11.494 C 9.383 9.132, 8.132 10.383, 10.494 12.994 C 12.275 14.961, 12.250 15, 9.214 15 C 7.511 15, 5.840 15.450, 5.500 16 C 5.120 16.615, 6.782 17, 9.819 17 C 15.784 17, 17.621 18.629, 16.266 22.716 C 14.985 26.581, 12.048 26.704, 8.538 23.040 C 6.936 21.368, 4.951 20, 4.126 20 C 3.098 20, 3.530 20.944, 5.500 23 L 8.374 26 5.187 26 C 3.434 26, 2 26.450, 2 27 C 2 27.550, 3.434 28, 5.187 28 L 8.374 28 5.500 31 C 3.530 33.056, 3.098 34, 4.126 34 C 4.951 34, 6.919 32.650, 8.500 31 C 12.147 27.193, 14.423 27.193, 16 31.001 C 17.792 35.327, 16.069 37, 9.819 37 C 6.782 37, 5.120 37.385, 5.500 38 C 5.840 38.550, 7.511 39, 9.214 39 C 12.250 39, 12.275 39.039, 10.494 41.006 C 8.132 43.617, 9.383 44.868, 11.994 42.506 C 13.961 40.725, 14 40.750, 14 43.786 C 14 45.489, 14.450 47.160, 15 47.500 C 15.615 47.880, 16 46.218, 16 43.181 C 16 36.931, 17.673 35.208, 21.999 37 C 25.807 38.577, 25.807 40.853, 22 44.500 C 20.350 46.081, 19 48.049, 19 48.874 C 19 49.902, 19.944 49.470, 22 47.500 L 25 44.626 25 47.813 C 25 49.566, 25.450 51, 26 51 C 26.550 51, 27 49.566, 27 47.813 L 27 44.626 30 47.500 C 32.056 49.470, 33 49.902, 33 48.874 C 33 48.049, 31.650 46.081, 30 44.500 C 26.193 40.853, 26.193 38.577, 30.001 37 C 34.327 35.208, 36 36.931, 36 43.181 C 36 46.218, 36.385 47.880, 37 47.500 C 37.550 47.160, 38 45.489, 38 43.786 C 38 40.750, 38.039 40.725, 40.006 42.506 C 42.617 44.868, 43.868 43.617, 41.506 41.006 C 39.725 39.039, 39.750 39, 42.786 39 C 44.489 39, 46.160 38.550, 46.500 38 C 46.880 37.385, 45.218 37, 42.181 37 C 35.931 37, 34.208 35.327, 36 31.001 C 37.590 27.162, 39.589 27.209, 43.687 31.182 C 47.472 34.850, 49.516 34.243, 45.996 30.496 L 43.651 28 46.826 28 C 48.572 28, 50 27.550, 50 27 C 50 26.450, 48.572 26, 46.826 26 L 43.651 26 45.996 23.504 C 49.516 19.757, 47.472 19.150, 43.687 22.818 C 39.589 26.791, 37.590 26.838, 36 22.999 C 34.208 18.673, 35.931 17, 42.181 17 C 45.218 17, 46.880 16.615, 46.500 16 C 46.160 15.450, 44.489 15, 42.786 15 C 39.750 15, 39.725 14.961, 41.506 12.994 C 43.868 10.383, 42.617 9.132, 40.006 11.494 C 38.039 13.275, 38 13.250, 38 10.214 C 38 8.511, 37.550 6.840, 37 6.500 C 36.385 6.120, 36 7.782, 36 10.819 C 36 17.069, 34.327 18.792, 30.001 17 C 26.162 15.410, 26.209 13.411, 30.182 9.313 C 33.850 5.528, 33.243 3.484, 29.496 7.004 L 27 9.349 27 6.174 C 27 4.428, 26.550 3, 26 3 C 25.450 3, 25 4.428, 25 6.174 M 22 19.294 C 16.897 21.875, 15.759 29.662, 19.933 33.439 C 20.933 34.345, 23.304 35.337, 25.201 35.645 C 33.346 36.967, 38.050 25.880, 31.672 20.394 C 28.572 17.728, 25.734 17.405, 22 19.294 M 20.667 21.667 C 20.290 22.043, 20.960 23.393, 22.155 24.665 C 24.193 26.834, 24.225 27.094, 22.664 28.818 C 19.954 31.813, 20.654 33.673, 23.490 31.010 C 25.826 28.815, 26.092 28.774, 27.818 30.336 C 30.819 33.051, 32.670 32.342, 30 29.500 L 27.651 27 29.835 24.676 C 32.680 21.647, 31.353 20.320, 28.324 23.165 L 26 25.349 23.676 23.165 C 22.398 21.964, 21.043 21.290, 20.667 21.667" stroke="none" fill="#3467df" fill-rule="evenodd"/>
</svg>