<svg xmlns="http://www.w3.org/2000/svg" width="53" height="52" viewBox="0 0 53 52" version="1.1">
	<rect x="0" y="0" width="100%" height="100%" fill="#bfbfbf" />
	<path d="M 32.827 8.419 C 31.074 12.027, 30.055 12.955, 27.269 13.477 C 25.393 13.829, 23.169 14.381, 22.328 14.704 C 20.981 15.221, 20.989 14.921, 22.399 12.195 C 23.280 10.493, 24 8.600, 24 7.991 C 24 6.038, 22.032 8.018, 19.985 12.030 C 18.402 15.132, 17.165 16.148, 13.898 17.027 C 11.643 17.635, 9.585 17.919, 9.325 17.659 C 9.065 17.399, 9.572 15.794, 10.452 14.093 C 12.946 9.270, 10.400 10.462, 7.447 15.500 C 5.785 18.336, 4.105 20, 2.905 20 C 1.857 20, 1 20.450, 1 21 C 1 22.328, 2.479 22.248, 8.750 20.579 C 14.305 19.100, 14.679 19.333, 14.044 23.884 C 13.718 26.217, 15.007 30.114, 15.918 29.551 C 16.390 29.259, 16.757 26.689, 16.733 23.839 C 16.695 19.371, 16.996 18.546, 18.922 17.833 C 20.564 17.226, 22.285 17.669, 25.416 19.503 C 27.759 20.877, 29.974 22, 30.338 22 C 31.975 22, 30.710 20.337, 27.744 18.586 L 24.500 16.672 28.500 15.468 C 30.700 14.805, 32.837 14.456, 33.250 14.691 C 33.663 14.926, 34 16.693, 34 18.618 C 34 20.697, 34.406 21.867, 35 21.500 C 35.550 21.160, 36 19.109, 36 16.941 C 36 12.414, 36.566 12.221, 41.426 15.089 C 46.015 17.796, 48.359 17.057, 43.980 14.284 L 40.645 12.173 44.872 11.035 C 47.196 10.409, 49.976 10.175, 51.049 10.516 C 52.152 10.866, 53 10.671, 53 10.067 C 53 9.480, 52.550 9, 52 9 C 51.450 9, 50.986 7.988, 50.968 6.750 C 50.940 4.751, 50.798 4.681, 49.698 6.127 C 49.017 7.022, 45.206 8.675, 41.230 9.800 C 33.703 11.930, 32.564 11.482, 35.532 7.559 C 37.247 5.292, 37.412 4, 35.987 4 C 35.430 4, 34.008 5.988, 32.827 8.419 M 33 25.500 C 33 27.482, 33.439 28.062, 34.750 27.810 C 35.712 27.624, 36.500 26.585, 36.500 25.500 C 36.500 24.415, 35.712 23.376, 34.750 23.190 C 33.439 22.938, 33 23.518, 33 25.500 M 28.328 32.394 C 26.104 34.307, 25.545 35.633, 25.545 39 C 25.545 47.401, 35.038 51.116, 41.077 45.077 C 44.803 41.350, 44.918 37.244, 41.411 33.077 C 38.058 29.092, 32.504 28.802, 28.328 32.394 M 14.639 31.694 C 13.444 32.889, 13.994 35, 15.500 35 C 16.325 35, 17 34.352, 17 33.559 C 17 31.888, 15.573 30.761, 14.639 31.694 M 29.016 34.707 C 23.524 41.689, 33.243 49.848, 39.545 43.545 C 42.544 40.547, 42.649 38.095, 39.927 34.635 C 37.034 30.957, 31.939 30.991, 29.016 34.707 M 30.598 36.163 C 29.765 37.353, 29.332 38.728, 29.635 39.219 C 30.278 40.258, 34.819 35.868, 34.258 34.750 C 33.582 33.403, 32.142 33.959, 30.598 36.163 M 11.174 38.314 C 8.354 41.317, 8.409 45.096, 11.314 47.826 C 14.347 50.674, 17.513 50.578, 20.545 47.545 C 23.626 44.465, 23.678 40.986, 20.686 38.174 C 17.683 35.354, 13.904 35.409, 11.174 38.314 M 12.571 39.571 C 9.571 42.572, 11.725 48, 15.916 48 C 18.057 48, 21 44.956, 21 42.743 C 21 40.580, 18.280 38, 16 38 C 14.979 38, 13.436 38.707, 12.571 39.571 M 13.200 40.200 C 11.931 41.469, 11.558 44, 12.640 44 C 13.416 44, 15.924 40.797, 15.968 39.750 C 16.016 38.613, 14.548 38.852, 13.200 40.200" stroke="none" fill="#3467df" fill-rule="evenodd"/>
</svg>