<svg xmlns="http://www.w3.org/2000/svg" width="46" height="51" viewBox="0 0 46 51" version="1.1">
	<rect x="0" y="0" width="100%" height="100%" fill="#bfbfbf" />
	<path d="M 12.667 3.667 C 12.300 4.033, 12 5.158, 12 6.167 C 12 8.107, 9.545 8.691, 8.500 7 C 7.440 5.285, 6.243 5.897, 5.593 8.485 C 5.208 10.018, 4.018 11.208, 2.485 11.593 C 1.118 11.936, -0 12.569, -0 13 C -0 13.431, 1.118 14.064, 2.485 14.407 C 4.018 14.792, 5.208 15.982, 5.593 17.515 C 6.324 20.428, 6.748 20.538, 9.088 18.420 C 10.491 17.151, 11.260 17.069, 13.002 18.001 C 15.419 19.295, 15.284 19.356, 16.900 16.250 C 18.216 13.720, 21 13.205, 21 15.492 C 21 16.312, 20.100 17.545, 19 18.232 C 17.900 18.919, 17 19.823, 17 20.241 C 17 21.572, 19.708 21.056, 21.021 19.475 C 22.155 18.108, 22.462 18.108, 23.972 19.475 C 25.755 21.088, 28 21.515, 28 20.241 C 28 19.823, 27.100 18.919, 26 18.232 C 24.900 17.545, 24 16.312, 24 15.492 C 24 13.059, 26.949 13.794, 28.200 16.539 C 28.836 17.935, 29.839 18.878, 30.428 18.635 C 31.018 18.391, 32.229 17.898, 33.121 17.538 C 34.037 17.169, 35.420 17.562, 36.300 18.442 C 38.372 20.515, 38.802 20.413, 39.180 17.759 C 39.367 16.448, 40.745 14.913, 42.500 14.058 L 45.500 12.597 42.718 11.594 C 41.134 11.023, 39.687 9.603, 39.359 8.296 C 38.752 5.876, 37.535 5.325, 36.500 7 C 35.449 8.701, 34 8.104, 34 5.969 C 34 3.157, 31.744 2.564, 28.140 4.428 C 24.364 6.380, 20.108 6.396, 17.559 4.468 C 15.468 2.887, 13.731 2.602, 12.667 3.667 M 13.824 9.052 C 13.358 13.934, 13.534 14.170, 16.600 12.773 C 19.547 11.430, 19.819 7.508, 17.066 6.035 C 14.292 4.551, 14.249 4.590, 13.824 9.052 M 28.750 6.080 C 26.164 7.586, 26.539 11.469, 29.397 12.771 C 31.572 13.762, 31.828 13.616, 32.174 11.181 C 32.622 8.018, 32.131 4.988, 31.177 5.030 C 30.805 5.047, 29.712 5.519, 28.750 6.080 M 21 9.573 C 21 10.505, 21.680 11.015, 22.667 10.823 C 25.176 10.337, 25.520 8, 23.083 8 C 21.855 8, 21 8.646, 21 9.573 M 35.061 10.427 C 33.509 12.297, 34.059 15.388, 36.011 15.761 C 36.830 15.918, 38.037 15.182, 38.694 14.127 C 39.673 12.553, 39.564 11.915, 38.087 10.579 C 36.506 9.148, 36.138 9.129, 35.061 10.427 M 6.659 11.447 C 5.698 13.950, 7.061 16.133, 9.377 15.803 C 12.372 15.376, 12.372 10.624, 9.377 10.197 C 8.162 10.024, 7 10.558, 6.659 11.447 M 18.260 23.250 C 17.719 23.938, 16.969 25.783, 16.594 27.350 C 16.218 28.918, 14.992 31.444, 13.868 32.964 C 12.745 34.484, 11.977 36.801, 12.163 38.114 C 12.493 40.447, 12.721 40.500, 22.500 40.500 C 32.279 40.500, 32.507 40.447, 32.837 38.114 C 33.023 36.801, 32.255 34.484, 31.132 32.964 C 30.008 31.444, 28.782 28.918, 28.406 27.350 C 27.402 23.153, 26.129 22, 22.500 22 C 20.710 22, 18.802 22.563, 18.260 23.250 M 19.726 24.693 C 19.471 25.137, 18.731 27.152, 18.080 29.170 C 17.430 31.189, 16.246 33.381, 15.449 34.042 C 14.652 34.704, 14 36.090, 14 37.122 C 14 38.812, 14.851 39, 22.500 39 C 29.776 39, 31 38.759, 31 37.329 C 31 36.410, 30.282 34.864, 29.405 33.895 C 28.528 32.926, 27.223 30.415, 26.505 28.316 C 25.518 25.431, 24.588 24.425, 22.694 24.193 C 21.316 24.024, 19.980 24.249, 19.726 24.693 M 19.039 43.928 C 17.137 47.481, 20.414 50.929, 24.282 49.445 C 28.165 47.955, 26.740 42, 22.500 42 C 21.124 42, 19.623 42.836, 19.039 43.928 M 21 46 C 21 47.111, 21.667 48, 22.500 48 C 23.333 48, 24 47.111, 24 46 C 24 44.889, 23.333 44, 22.500 44 C 21.667 44, 21 44.889, 21 46" stroke="none" fill="#3467df" fill-rule="evenodd"/>
</svg>