<svg xmlns="http://www.w3.org/2000/svg" width="288" height="300" viewBox="0 0 288 300" version="1.1">
	<rect x="0" y="0" width="100%" height="100%" fill="#bfbfbf" />
	<path d="M 171.471 12.931 C 169.804 13.330, 166.390 14.859, 163.883 16.329 C 161.376 17.798, 158.496 19, 157.483 19 C 156.470 19, 152.685 21.871, 149.071 25.380 C 145.457 28.888, 140.363 33.779, 137.750 36.248 C 133.770 40.009, 133 41.329, 133 44.388 C 133 46.524, 134 49.624, 135.409 51.857 C 139.066 57.648, 139.186 61.588, 135.750 62.969 C 133.555 63.851, 133.551 63.875, 135.615 63.937 C 136.778 63.971, 138.856 63.115, 140.231 62.033 C 143.354 59.577, 143.927 60.122, 143.282 64.933 C 142.979 67.192, 143.225 69.021, 143.886 69.429 C 145.675 70.535, 145.171 72, 143 72 C 141.900 72, 141.002 72.563, 141.004 73.250 C 141.009 75.138, 144.820 81, 146.042 81 C 146.631 81, 148.031 83.077, 149.154 85.616 L 151.196 90.232 146.644 94.866 C 140.916 100.697, 139.687 103.700, 137.093 118.203 C 134.621 132.026, 134.494 137.002, 136.450 143.500 C 137.495 146.972, 137.611 148.859, 136.864 150.254 C 136.146 151.595, 136.159 154.092, 136.906 158.380 C 137.645 162.623, 137.665 165.660, 136.971 168.035 C 136.414 169.941, 136.048 173.626, 136.157 176.225 C 136.293 179.479, 135.828 181.532, 134.664 182.819 C 133.122 184.523, 133.106 185.009, 134.486 188.312 C 136.460 193.038, 136.471 193, 133.135 193 C 131.559 193, 129.038 193.969, 127.533 195.153 C 124.493 197.544, 118.300 199.224, 113.081 199.073 C 111.200 199.019, 107.923 199.880, 105.799 200.988 C 102.962 202.467, 101.842 202.669, 101.579 201.750 C 101.382 201.063, 99.014 191.500, 96.315 180.500 L 91.409 160.500 84.955 159.860 C 81.405 159.508, 68.600 158.904, 56.500 158.518 C 44.400 158.131, 26.850 157.470, 17.500 157.049 C 1.714 156.337, -1.010 156.388, 0.083 157.377 C 0.312 157.584, 15.800 158.260, 34.500 158.880 C 72.693 160.145, 90.307 161.027, 89.692 161.641 C 89.463 161.870, 69.342 161.366, 44.978 160.522 C 3.603 159.088, -8.848 159.046, 6.171 160.391 C 9.652 160.702, 29.375 161.473, 50 162.103 C 70.625 162.733, 87.659 163.389, 87.853 163.560 C 88.228 163.892, 99.986 210.916, 106.965 240 C 109.274 249.625, 111.382 258.288, 111.649 259.250 C 112.066 260.751, 111.411 261, 107.045 261 C 102.754 261, 43.953 256.752, 13.500 254.242 L 4.500 253.500 2.332 245.500 L 0.164 237.500 0.082 268.753 L 0 300.007 144.250 299.753 L 288.500 299.500 288.812 274.500 C 288.983 260.750, 288.821 243.907, 288.451 237.071 L 287.778 224.643 285.796 227.071 C 284.551 228.597, 284.015 228.868, 284.356 227.801 C 284.763 226.525, 284.475 226.260, 283.199 226.738 C 281.674 227.309, 281.649 227.176, 282.953 225.437 C 283.751 224.372, 285.292 222.488, 286.377 221.250 C 287.461 220.013, 287.831 219, 287.199 219 C 286.423 219, 286.324 218.269, 286.895 216.750 C 287.360 215.512, 287.751 202.575, 287.764 188 C 287.778 173.425, 288.068 160.037, 288.409 158.250 C 288.750 156.463, 288.610 155, 288.098 155 C 287.586 155, 287.003 149.712, 286.802 143.250 C 286.540 134.817, 285.955 130.512, 284.731 128 L 283.026 124.500 283.747 128 C 284.143 129.925, 284.475 149.950, 284.484 172.500 C 284.500 212.566, 284.449 213.635, 282.257 219.445 C 276.602 234.435, 260.970 240.759, 239.912 236.576 C 228.720 234.353, 227.613 233.987, 228.726 232.874 C 229.295 232.305, 232.131 232.724, 236.076 233.961 C 244.950 236.742, 245.532 236.475, 238.382 232.901 L 232.265 229.843 232.315 222.079 C 232.353 216.183, 231.870 213.315, 230.308 210.158 C 228.315 206.129, 228.310 206, 230.150 206 C 231.195 206, 234.611 206.900, 237.740 208 C 242.511 209.677, 251.076 210.882, 247.250 209.338 C 246.563 209.060, 246 208.367, 246 207.796 C 246 206.664, 256.236 207.183, 259.250 208.468 C 260.466 208.986, 261 208.761, 261 207.729 C 261 205.719, 258.455 203.734, 254.109 202.355 C 250.634 201.252, 250.761 201.207, 257.500 201.129 C 266.281 201.028, 272.843 202.505, 275.750 205.235 C 276.988 206.398, 278 206.916, 278 206.387 C 278 205.119, 269.109 196.542, 266.316 195.116 C 265.114 194.502, 262.639 194.020, 260.816 194.044 L 257.500 194.088 261.079 195.367 C 263.047 196.071, 265.732 197.400, 267.046 198.320 C 269.356 199.938, 269.172 199.985, 261.468 199.747 C 257.085 199.611, 251.956 199.891, 250.068 200.369 L 246.636 201.239 251.318 195.887 C 257.250 189.105, 257.420 186.963, 251.537 193.128 C 248.715 196.085, 246.943 197.294, 246.629 196.476 C 246.359 195.772, 245.593 191.470, 244.927 186.914 C 243.968 180.357, 243.976 177.618, 244.964 173.762 C 246.074 169.433, 246.017 168.677, 244.454 166.949 C 242.071 164.316, 242.364 160.246, 245.504 152.399 C 248.862 144.005, 248.063 142.882, 244.454 150.924 C 242.954 154.266, 241.356 157, 240.904 157 C 239.142 157, 235.771 143.220, 235.277 134 C 234.816 125.399, 235.015 123.894, 237.376 118.096 C 240.897 109.454, 248.409 97.588, 251.216 96.235 C 252.754 95.495, 252.984 95.113, 251.921 95.068 C 250.202 94.994, 241.442 100.474, 240.290 102.343 C 239.898 102.980, 240.782 102.712, 242.253 101.750 C 243.725 100.787, 245.144 100, 245.406 100 C 245.669 100, 243.869 103.263, 241.408 107.250 C 231.691 122.994, 230.509 137.354, 237.535 154.315 C 238.944 157.717, 240.291 161.400, 240.528 162.500 C 240.765 163.600, 241.477 165.482, 242.112 166.683 C 242.747 167.883, 242.968 169.642, 242.603 170.591 C 242.019 172.113, 241.589 171.980, 238.970 169.472 C 235.211 165.870, 235.192 167.053, 238.915 172.912 C 241.660 177.231, 244.791 190.217, 245.327 199.500 C 245.422 201.150, 245.950 202.872, 246.500 203.326 C 247.100 203.822, 246.900 204.006, 246 203.786 C 245.175 203.585, 242.796 200.063, 240.714 195.960 C 236.823 188.294, 236.713 188.642, 240.151 197.731 C 241.239 200.608, 242.550 203.222, 243.065 203.540 C 244.832 204.632, 243.998 206, 241.565 206 C 237.879 206, 234.018 204.241, 233.367 202.265 C 233.046 201.294, 231.705 198.199, 230.385 195.386 C 229.065 192.573, 227.076 187.627, 225.964 184.395 C 224.162 179.159, 216.533 165, 215.513 165 C 215.295 165, 216.859 168.488, 218.990 172.750 C 221.121 177.012, 223.814 184.100, 224.975 188.500 C 228.050 200.158, 228.062 200.190, 229.492 199.642 C 230.748 199.160, 232.459 202.874, 231.447 203.886 C 231.187 204.147, 227.154 204.560, 222.487 204.805 L 214 205.251 213.924 201.375 C 213.882 199.244, 213.250 195.925, 212.520 194 C 211.269 190.705, 211.224 190.924, 211.741 197.750 L 212.290 205 208.366 205 L 204.442 205 203.210 197.174 C 202.533 192.870, 201.540 183.307, 201.005 175.924 C 199.790 159.183, 199.713 158.738, 194.880 140.503 C 191.653 128.331, 191.110 125.054, 191.997 123.108 L 193.089 120.711 195.849 123.355 C 200.442 127.756, 202.406 126.958, 204.370 119.894 C 205.303 116.536, 206.329 111.923, 206.648 109.644 C 207.154 106.030, 207.915 105.016, 212.594 101.722 C 215.545 99.644, 218.466 96.998, 219.085 95.841 C 219.769 94.564, 217.738 95.740, 213.907 98.839 C 210.441 101.644, 207.428 103.761, 207.211 103.545 C 206.499 102.832, 208.126 98.960, 208.929 99.456 C 210.116 100.190, 214.753 91.065, 215.983 85.575 C 217.350 79.475, 216.531 78.314, 214.964 84.132 C 213.862 88.225, 209.382 98, 208.609 98 C 208.412 98, 208.480 93.979, 208.761 89.065 C 209.064 83.735, 208.794 78.239, 208.090 75.443 C 207.441 72.866, 207.059 70.608, 207.241 70.425 C 207.424 70.243, 210.481 71.480, 214.036 73.174 C 217.591 74.868, 226.429 77.710, 233.675 79.488 C 241.476 81.403, 248.816 83.874, 251.671 85.547 C 254.323 87.101, 260.928 92.677, 266.350 97.937 C 275.508 106.822, 276.625 108.348, 282.103 119.457 L 288 131.414 288 123.682 L 288 115.950 285.030 115.356 C 283.360 115.022, 281.799 113.941, 281.464 112.887 C 281.137 111.856, 280.329 110.447, 279.670 109.756 C 279.011 109.065, 276.917 106.475, 275.018 104 C 269.212 96.433, 258.962 87.433, 252.291 84.045 C 248.573 82.156, 240.696 79.622, 233.227 77.912 C 226.227 76.309, 217.688 73.620, 214.250 71.936 L 208 68.875 207.808 63.187 C 207.702 60.059, 207.714 56.375, 207.835 55 C 207.955 53.625, 208.042 48.990, 208.027 44.700 C 207.996 35.829, 206.806 32.793, 201.551 28.179 C 199.598 26.464, 197.986 24.485, 197.968 23.781 C 197.951 23.076, 197.376 21.825, 196.691 21 C 194.878 18.816, 187.040 14.764, 184.061 14.471 C 182.653 14.332, 180.233 13.719, 178.685 13.109 C 175.596 11.892, 175.785 11.897, 171.471 12.931 M 169 16.180 C 165.568 17.277, 165.548 17.313, 168 18.050 C 169.375 18.463, 170.050 18.880, 169.500 18.977 C 168.950 19.074, 170.300 19.717, 172.500 20.406 C 177.200 21.878, 178.093 21.577, 175.427 19.422 C 173.601 17.946, 173.658 17.898, 176.500 18.510 C 178.150 18.865, 180.382 19.908, 181.461 20.828 C 183.391 22.474, 183.394 22.457, 181.688 19.750 C 180.021 17.106, 180.027 17, 181.855 17 C 182.900 17, 184.315 17.675, 185 18.500 C 185.685 19.325, 186.740 20, 187.345 20 C 187.950 20, 187.548 19.104, 186.453 18.009 C 184.008 15.564, 174.159 14.532, 169 16.180 M 160.249 21.331 L 156.998 22.511 159.749 23.671 C 161.262 24.310, 164.075 25.149, 166 25.536 C 167.925 25.924, 170.715 26.862, 172.200 27.620 C 175.622 29.369, 176.072 29.352, 175.362 27.500 C 175.026 26.627, 175.353 25.986, 176.143 25.967 C 178.875 25.900, 172.727 22, 169.889 22 C 168.300 22, 167 21.550, 167 21 C 167 19.712, 164.355 19.842, 160.249 21.331 M 191.787 24 C 191.545 25.650, 191.718 27, 192.173 27 C 192.628 27, 193 25.650, 193 24 C 193 22.350, 192.826 21, 192.613 21 C 192.401 21, 192.029 22.350, 191.787 24 M 153.533 27.987 C 150.801 28.985, 148.398 30.305, 148.193 30.921 C 147.987 31.538, 146.424 32.763, 144.719 33.645 C 141.924 35.091, 141.786 35.370, 143.314 36.488 C 144.834 37.599, 144.589 38.006, 140.965 40.405 C 136.198 43.559, 134.446 47.140, 136.253 50.033 C 137.943 52.740, 139.164 52.503, 138.438 49.609 C 138.108 48.294, 138.305 46.930, 138.875 46.577 C 139.446 46.224, 139.723 45.388, 139.490 44.718 C 138.938 43.125, 145.793 38.427, 150.612 37.097 C 153.533 36.290, 155.041 36.373, 157.215 37.458 C 158.765 38.231, 159.775 38.444, 159.458 37.932 C 158.625 36.584, 160.386 36.786, 161.800 38.200 C 163.655 40.055, 163.219 43.812, 161.012 44.994 C 159.346 45.885, 158.524 45.526, 155.944 42.779 C 153.256 39.917, 153.074 39.844, 154.515 42.201 C 155.423 43.686, 155.966 45.711, 155.722 46.701 C 155.384 48.075, 154.987 47.733, 154.042 45.250 C 153.063 42.679, 152.250 42.013, 150.152 42.063 C 147.569 42.125, 147.559 42.150, 149.750 43.031 C 150.988 43.529, 152 44.386, 152 44.936 C 152 45.487, 151.362 45.692, 150.583 45.393 C 149.803 45.094, 147.891 45.540, 146.333 46.385 L 143.500 47.920 146.500 48.019 C 149.193 48.108, 149.312 48.239, 147.663 49.309 C 142.525 52.641, 142.687 52.242, 144.033 58.258 C 145.114 63.085, 145.729 64.059, 148.395 65.161 C 150.103 65.867, 152.446 67.464, 153.602 68.709 L 155.704 70.972 155.413 65.736 C 155.253 62.856, 155.333 61.625, 155.591 63 C 156.730 69.070, 157.126 70, 158.576 70 C 159.954 70, 159.952 69.769, 158.557 67.777 C 156.785 65.247, 156.523 63, 158 63 C 158.550 63, 159 63.956, 159 65.125 C 159 66.944, 159.424 67.165, 161.947 66.661 C 166.098 65.830, 172.418 63.085, 171.739 62.406 C 171.427 62.094, 170.233 62.340, 169.086 62.954 C 167.939 63.568, 167 63.677, 167 63.196 C 167 62.281, 171.358 60, 173.106 60 C 173.663 60, 173.853 60.429, 173.529 60.953 C 173.205 61.478, 174.753 62.395, 176.970 62.992 C 182.115 64.377, 182.163 66, 177.059 66 C 174.891 66, 172.840 66.450, 172.500 67 C 172.126 67.604, 173.501 68, 175.974 68 C 180.738 68, 190 63.697, 190 61.483 C 190 60.667, 190.563 59.968, 191.250 59.930 C 191.938 59.891, 191.600 59.508, 190.500 59.079 C 188.342 58.237, 187.795 55.954, 189.467 54.765 C 190.035 54.361, 189.332 54.024, 187.905 54.015 C 184.850 53.997, 181.075 50.529, 183.189 49.683 C 184.128 49.307, 184.057 49.136, 182.939 49.079 C 182.080 49.036, 180.312 48.008, 179.010 46.795 L 176.643 44.590 179.572 43.262 C 182.349 42.004, 182.203 41.954, 176.735 42.301 C 171.517 42.632, 171.026 42.493, 171.553 40.833 C 171.873 39.825, 171.709 39, 171.189 39 C 170.668 39, 169.668 37.612, 168.965 35.916 C 168.263 34.220, 166.604 32.420, 165.279 31.916 C 161.493 30.477, 161.229 30.842, 164.580 32.885 C 166.274 33.918, 168.245 36.178, 168.962 37.907 C 170.104 40.665, 170.044 41.294, 168.477 43.026 C 165.921 45.850, 164.119 45.504, 164.213 42.208 C 164.257 40.672, 163.761 38.422, 163.111 37.208 C 162.461 35.993, 162.283 34.993, 162.715 34.985 C 163.147 34.976, 162.825 34.533, 162 34 C 161.175 33.467, 158.588 33.024, 156.250 33.015 C 149.164 32.990, 151.493 31.336, 159.577 30.653 C 168.388 29.908, 170.574 30.729, 171.887 35.273 C 172.453 37.230, 172.855 37.733, 172.910 36.550 C 173.016 34.259, 174.628 35.554, 175.153 38.351 C 175.448 39.924, 176.214 39.573, 180.250 36.016 C 182.863 33.714, 185 32.307, 185 32.890 C 185 34.165, 189.106 32.774, 192.350 30.400 C 194.435 28.874, 194.402 28.846, 191.250 29.493 C 188.891 29.976, 187.983 29.794, 187.937 28.829 C 187.902 28.098, 187.383 28.625, 186.784 30 C 185.918 31.990, 185.612 32.155, 185.286 30.810 C 184.919 29.298, 184.621 29.343, 182.438 31.241 C 181.097 32.407, 180 33.906, 180 34.573 C 180 37.513, 176.845 36.746, 173.336 32.953 C 170.832 30.247, 168.054 28.500, 164.646 27.488 C 158.793 25.749, 159.785 25.705, 153.533 27.987 M 190.437 34.143 C 181.949 39.213, 181.800 39.339, 185.382 38.440 C 187.585 37.887, 188.154 38.038, 187.806 39.081 C 187.556 39.831, 186.260 40.750, 184.926 41.123 C 183.585 41.497, 183.228 41.845, 184.128 41.900 C 185.023 41.955, 187.446 41.294, 189.511 40.431 C 192.923 39.005, 193.212 39.005, 192.665 40.431 C 192.334 41.294, 192.554 42, 193.154 42 C 193.874 42, 193.821 42.511, 193 43.500 C 192.072 44.618, 192.056 45, 192.937 45 C 193.586 45, 193.843 45.445, 193.507 45.989 C 193.144 46.577, 193.595 46.709, 194.622 46.315 C 195.947 45.806, 196.197 46.043, 195.700 47.338 C 195.104 48.893, 195.284 48.905, 198.027 47.486 C 201.042 45.927, 202.255 43.581, 199.500 44.638 C 198.675 44.955, 198 44.753, 198 44.190 C 198 43.627, 198.563 42.956, 199.250 42.698 C 200.114 42.374, 199.882 41.753, 198.500 40.686 C 196.518 39.156, 196.517 39.136, 198.466 38.382 C 200.249 37.691, 200.156 37.506, 197.466 36.389 L 194.500 35.158 197 34.142 C 198.375 33.584, 199.107 33.098, 198.628 33.063 C 198.148 33.029, 198.315 32.325, 199 31.500 C 201.333 28.689, 197.682 29.816, 190.437 34.143 M 201 33 C 199.718 33.828, 199.754 33.972, 201.250 33.985 C 202.213 33.993, 203 33.550, 203 33 C 203 31.780, 202.887 31.780, 201 33 M 201.730 47.750 C 201.453 48.712, 200.903 50.288, 200.506 51.250 C 199.227 54.359, 201.790 53.126, 203.427 49.846 C 205.338 46.015, 205.339 46, 203.617 46 C 202.856 46, 202.007 46.788, 201.730 47.750 M 140.158 55 C 140.158 56.375, 140.385 56.938, 140.662 56.250 C 140.940 55.563, 140.940 54.438, 140.662 53.750 C 140.385 53.063, 140.158 53.625, 140.158 55 M 198.956 57.690 C 196.641 59.638, 196 60.863, 196.419 62.534 C 197.102 65.255, 194.854 67.406, 192.205 66.565 C 191.081 66.208, 188.426 67.020, 185.657 68.568 C 181.522 70.879, 181 71.556, 181 74.610 C 181 78.399, 179.832 79.191, 172.401 80.437 C 168.867 81.030, 167.867 80.759, 165.151 78.474 C 163.418 77.015, 162 74.931, 162 73.842 C 162 72.360, 161.434 71.941, 159.750 72.180 C 157.769 72.462, 157.394 73.325, 156.615 79.394 C 155.769 85.984, 155.835 86.369, 158.115 88.122 C 161.107 90.422, 159.807 90.575, 156.375 88.326 C 154.302 86.968, 153.929 86.106, 154.398 83.762 C 154.923 81.136, 154.772 80.936, 152.738 81.561 C 151.507 81.939, 150.343 82.387, 150.150 82.557 C 149.563 83.076, 152.062 90.118, 155.452 97.500 C 157.221 101.350, 159.238 105.942, 159.936 107.704 C 161.005 110.403, 161.858 111.003, 165.352 111.510 C 172.303 112.520, 177.240 110.958, 179.162 107.142 C 181.322 102.856, 182.442 101.837, 181.519 105 C 180.952 106.943, 182.258 106.062, 187.378 101.046 C 195.381 93.205, 197 90.017, 197 82.099 C 197 76.309, 197.123 76, 199.427 76 C 201.794 76, 206 71.932, 206 69.643 C 206 69.044, 205.299 69.555, 204.443 70.777 C 203.587 72, 202.437 73, 201.887 73 C 201.337 73, 201.587 72, 202.443 70.777 C 204.395 67.990, 204.462 62.628, 202.563 61.052 C 201.340 60.038, 201.200 60.527, 201.619 64.337 C 201.905 66.939, 201.669 69.087, 201.055 69.466 C 200.420 69.859, 200 69.100, 200 67.559 C 200 66.152, 199.541 65, 198.981 65 C 197.952 65, 198.663 60.169, 199.896 58.783 C 200.718 57.859, 205.126 58.987, 204.521 59.966 C 204.270 60.373, 204.710 61.559, 205.500 62.603 C 206.780 64.293, 206.940 64.315, 206.968 62.797 C 207.014 60.343, 204.954 56.196, 203.392 55.597 C 202.656 55.315, 200.660 56.257, 198.956 57.690 M 167.500 59 C 165.245 61.492, 165.692 61.494, 171.141 59.022 C 175.427 57.077, 175.448 57.044, 172.405 57.022 C 170.558 57.009, 168.580 57.806, 167.500 59 M 171 70.990 L 166.500 71.700 171.500 71.949 C 175.474 72.148, 175.987 72.351, 174 72.938 C 172.625 73.345, 171.638 74.276, 171.806 75.008 C 172.029 75.973, 171.754 76.055, 170.806 75.303 C 169.253 74.072, 164 73.002, 164 73.916 C 164 74.268, 164.739 75.610, 165.642 76.900 C 167.111 78.996, 167.819 79.182, 172.316 78.649 C 178.305 77.940, 179.262 77.165, 178.828 73.380 C 178.463 70.196, 177.638 69.944, 171 70.990 M 144 74.809 C 144 75.804, 144.661 77.491, 145.468 78.559 C 146.844 80.378, 146.938 80.264, 146.968 76.750 C 146.991 74.069, 146.572 73, 145.500 73 C 144.675 73, 144 73.814, 144 74.809 M 204.259 75.223 C 202.953 76.614, 201.172 80.925, 199.991 85.555 C 197.984 93.426, 194.740 99.232, 188.792 105.601 L 185.896 108.702 188.253 110.246 C 189.549 111.095, 192.066 114.522, 193.845 117.861 C 195.625 121.200, 197.506 124.195, 198.025 124.516 C 199.392 125.361, 202.761 119.348, 203.887 114.052 C 206.173 103.307, 208.155 82.394, 207.337 77.668 L 206.500 72.835 204.259 75.223 M 149 77.766 C 149 79.738, 149.441 80.080, 151.642 79.816 C 153.206 79.629, 154.591 78.663, 155.036 77.450 C 155.700 75.638, 155.393 75.400, 152.394 75.400 C 149.491 75.400, 149 75.743, 149 77.766 M 204.262 83.724 C 204.132 87.895, 204.321 91.012, 204.682 90.651 C 205.620 89.713, 206.046 78.904, 205.204 77.400 C 204.816 76.707, 204.392 79.553, 204.262 83.724 M 167.079 85.583 C 167.127 86.748, 167.364 86.985, 167.683 86.188 C 167.972 85.466, 167.936 84.603, 167.604 84.271 C 167.272 83.939, 167.036 84.529, 167.079 85.583 M 178.652 87.306 C 180.218 89.124, 181.661 90.217, 181.857 89.734 C 182.278 88.702, 178.072 84, 176.727 84 C 176.219 84, 177.085 85.488, 178.652 87.306 M 162.500 88 C 162.160 88.550, 162.610 89, 163.500 89 C 164.390 89, 164.840 88.550, 164.500 88 C 164.160 87.450, 163.710 87, 163.500 87 C 163.290 87, 162.840 87.450, 162.500 88 M 146.572 96.052 C 141.794 101.341, 141.205 103.071, 138.928 118.500 C 136.693 133.640, 136.560 138.326, 138.190 144.421 C 139.109 147.856, 139.109 149.464, 138.193 151.475 C 137.259 153.526, 137.284 154.550, 138.312 156.290 C 139.592 158.456, 139.729 165.786, 138.658 174.742 C 138.266 178.022, 138.531 179.207, 139.825 179.962 C 141.288 180.815, 141.300 180.943, 139.919 180.970 C 139.049 180.986, 137.778 182.047, 137.093 183.327 C 136.046 185.283, 136.146 186.189, 137.722 189.010 C 138.753 190.855, 140.200 192.567, 140.938 192.813 C 141.675 193.058, 142.034 192.864, 141.735 192.380 C 141.436 191.896, 143.961 191.483, 147.345 191.462 C 150.730 191.441, 154.850 191.071, 156.500 190.641 C 158.943 190.004, 159.264 190.098, 158.232 191.148 C 157.529 191.862, 153.853 192.612, 149.992 192.831 C 146.158 193.047, 143.250 193.595, 143.530 194.048 C 143.810 194.501, 142.597 194.458, 140.836 193.953 C 139.074 193.448, 137.505 193.162, 137.349 193.317 C 137.194 193.473, 139.721 196.390, 142.966 199.800 C 148.312 205.418, 149.248 206, 152.935 206 C 156.431 206, 157.534 205.418, 160.753 201.879 C 166.906 195.111, 170.041 189.339, 170.587 183.775 C 171.028 179.271, 170.908 178.832, 169.543 179.965 C 167.706 181.489, 167.611 180.947, 169.131 177.611 C 169.754 176.245, 169.964 174.347, 169.598 173.394 C 169.027 171.906, 168.386 172.194, 165.080 175.422 C 162.961 177.491, 161.064 178.711, 160.864 178.133 C 160.651 177.518, 158.017 178.305, 154.500 180.037 C 147.582 183.443, 142 184.822, 142 183.125 C 142 182.506, 143.238 182, 144.750 181.999 C 146.262 181.999, 150.376 180.638, 153.892 178.975 C 157.408 177.311, 160.505 176.171, 160.775 176.441 C 161.268 176.935, 165 172.676, 165 171.620 C 165 171.309, 161.827 172.648, 157.949 174.594 C 154.071 176.540, 150.469 177.990, 149.946 177.815 C 149.422 177.641, 153.294 175.319, 158.549 172.657 C 163.835 169.979, 167.931 167.298, 167.714 166.658 C 167.451 165.876, 164.426 165.563, 158.412 165.694 C 152.264 165.829, 150.430 165.633, 152.500 165.063 C 154.150 164.608, 158.088 164.183, 161.250 164.118 C 164.412 164.053, 167 163.785, 167 163.523 C 167 163.260, 165.685 160.614, 164.077 157.642 C 155.091 141.032, 151.144 132.070, 150.108 125.918 C 148.421 115.895, 148.966 115.414, 150.992 125.139 C 152.470 132.231, 154.249 136.441, 160.923 148.639 L 169.053 163.500 168.466 155.500 C 168.144 151.100, 167.664 146.450, 167.400 145.166 C 167.130 143.855, 167.331 143.087, 167.858 143.412 C 168.374 143.731, 169.081 147.256, 169.428 151.246 C 170.672 165.524, 172.210 175.602, 174.112 181.928 C 175.429 186.306, 175.719 188.681, 175.022 189.378 C 173.748 190.652, 173.699 202.976, 174.961 204.971 C 175.473 205.780, 176.137 206.196, 176.438 205.896 C 176.738 205.595, 177.100 192.558, 177.242 176.925 C 177.498 148.732, 177.524 148.421, 180.426 138.785 C 182.861 130.704, 183.158 128.643, 182.198 126.535 C 180.653 123.144, 179.083 123.334, 178.350 127 C 177.747 130.013, 176.627 130.824, 175.527 129.044 C 175.202 128.518, 174.277 128.340, 173.471 128.650 C 171.859 129.268, 167.008 120.113, 167.034 116.500 C 167.044 115.036, 171.967 125.205, 171.995 126.750 C 171.998 126.888, 172.378 127, 172.839 127 C 174.020 127, 176 122.357, 176 119.588 C 176 118.313, 176.900 116.126, 178 114.727 C 179.100 113.329, 180 111.994, 180 111.762 C 180 111.529, 177.738 112.033, 174.974 112.881 C 171.244 114.026, 170.085 114.820, 170.477 115.962 C 170.928 117.277, 170.824 117.269, 169.752 115.907 C 169.064 115.032, 166.797 113.754, 164.715 113.068 C 160.349 111.630, 159.376 110.313, 154.879 99.750 C 153.065 95.487, 151.277 92, 150.906 92 C 150.536 92, 148.585 93.824, 146.572 96.052 M 162 93.441 C 162 94.298, 162.450 95, 163 95 C 163.550 95, 164 94.577, 164 94.059 C 164 93.541, 163.550 92.840, 163 92.500 C 162.450 92.160, 162 92.584, 162 93.441 M 171 94.895 C 171 96.125, 163.119 96.828, 159.750 95.898 C 157.646 95.318, 157 95.488, 157 96.621 C 157 97.837, 158.612 98.061, 165.993 97.872 C 174.620 97.651, 174.919 97.567, 173.338 95.821 C 171.493 93.783, 171 93.587, 171 94.895 M 160 102 C 160 102.550, 160.844 103, 161.875 103 C 162.906 103, 165.091 103.268, 166.731 103.596 C 168.924 104.035, 169.874 103.770, 170.325 102.596 C 170.840 101.255, 170.065 101, 165.469 101 C 162.461 101, 160 101.450, 160 102 M 181.250 112.963 C 179.112 115.674, 178.335 118, 179.567 118 C 179.878 118, 181.791 116.781, 183.817 115.290 C 185.843 113.800, 187.712 112.426, 187.971 112.236 C 188.596 111.779, 185.776 110.020, 184.500 110.071 C 183.950 110.093, 182.488 111.394, 181.250 112.963 M 226.599 116.678 C 226.274 118.230, 225.591 122.532, 225.081 126.238 C 223.972 134.300, 224.798 137.983, 229.736 147 C 233.042 153.038, 233.111 153.331, 230.704 151.129 C 227.573 148.264, 225.056 143.222, 223.401 136.500 C 222.228 131.734, 222.166 131.667, 222.085 135.068 C 221.903 142.693, 224.631 148.474, 231.693 155.433 C 235.352 159.038, 238.565 161.768, 238.833 161.500 C 239.102 161.232, 238.624 160.222, 237.773 159.256 C 235.428 156.596, 230.546 146.309, 228.097 138.867 C 226.099 132.794, 226.006 131.495, 227.001 123.494 C 228.051 115.042, 227.808 110.912, 226.599 116.678 M 159 116.378 C 159 116.585, 159.787 117.373, 160.750 118.128 C 162.336 119.371, 162.371 119.336, 161.128 117.750 C 159.821 116.084, 159 115.555, 159 116.378 M 185.625 123.080 C 184.171 124.224, 183.225 125.554, 183.522 126.036 C 184.411 127.473, 188.271 125.499, 189.134 123.166 C 190.142 120.442, 189.015 120.414, 185.625 123.080 M 248.745 127.703 C 243.492 134.915, 240.948 140.565, 240.363 146.318 C 239.973 150.149, 240.114 151.109, 240.903 150 C 241.489 149.175, 241.976 147.251, 241.985 145.725 C 242.001 142.765, 247.564 131.301, 251.184 126.766 C 252.384 125.263, 253.113 123.779, 252.803 123.469 C 252.493 123.160, 250.667 125.065, 248.745 127.703 M 185.973 133.111 C 185.324 135.525, 184.277 137.845, 183.647 138.266 C 182.890 138.771, 184.032 140.396, 187 143.038 C 194.851 150.027, 195.059 149.999, 193.047 142.229 C 192.089 138.528, 190.370 133.975, 189.228 132.111 L 187.152 128.721 185.973 133.111 M 146.141 132 C 146.141 132.825, 146.527 134.400, 147 135.500 C 147.542 136.761, 147.859 136.945, 147.859 136 C 147.859 135.175, 147.473 133.600, 147 132.500 C 146.458 131.239, 146.141 131.055, 146.141 132 M 269.011 141.716 C 265.613 146.750, 264.690 148.637, 266.398 147.058 C 269.491 144.197, 275.482 135.149, 274.761 134.428 C 274.488 134.155, 271.900 137.434, 269.011 141.716 M 148.010 139.081 C 147.992 141.931, 152.437 149.503, 157.495 155.241 C 160.226 158.338, 162.653 160.680, 162.888 160.445 C 163.123 160.210, 160.985 157.339, 158.138 154.065 C 155.290 150.790, 151.848 145.724, 150.490 142.806 C 149.131 139.888, 148.015 138.211, 148.010 139.081 M 257.308 143.563 C 251.624 150.140, 246.979 156.861, 247.052 158.400 C 247.081 159.005, 247.869 158.386, 248.802 157.024 C 249.736 155.662, 253.313 151.167, 256.750 147.036 C 262.405 140.239, 263.844 138, 262.558 138 C 262.314 138, 259.952 140.503, 257.308 143.563 M 211 144.982 C 211 146.743, 219.030 161.342, 223.181 167.127 C 226.572 171.854, 240 186.498, 240 185.469 C 240 183.981, 236.910 179.242, 234.477 177 C 230.142 173.005, 220.669 160.143, 216.065 152 C 211.281 143.539, 211 143.150, 211 144.982 M 144.011 148.346 C 143.973 151.272, 156.978 162.355, 158.576 160.757 C 158.851 160.482, 156.801 158.797, 154.020 157.013 C 151.239 155.228, 147.852 152.358, 146.493 150.634 C 145.134 148.910, 144.017 147.881, 144.011 148.346 M 222.998 153.500 C 226.121 157.969, 230.713 162.285, 234.325 164.146 C 240.116 167.130, 241.043 165.792, 235.419 162.567 C 232.713 161.015, 228.498 157.890, 226.050 155.623 C 223.603 153.355, 222.229 152.400, 222.998 153.500 M 179.911 156.623 C 179.521 164.867, 180.262 168.620, 182.825 171.374 C 186.631 175.464, 196.926 184, 198.052 184 C 198.573 184, 199 180.892, 199 177.094 L 199 170.188 193.907 166.529 C 191.106 164.516, 186.831 161.042, 184.407 158.807 C 180.804 155.487, 179.984 155.088, 179.911 156.623 M 144 158.105 C 144 159.997, 152.052 163, 157.127 163 C 163.267 163, 162.896 161.652, 156.724 161.536 C 154.401 161.492, 150.588 160.510, 148.250 159.354 C 145.912 158.197, 144 157.635, 144 158.105 M 159 168.138 C 155.337 169.464, 152.005 169.974, 149.023 169.662 C 144.990 169.241, 144.736 169.334, 146.464 170.597 C 149.264 172.644, 155.938 172.312, 160.515 169.898 C 168.401 165.737, 167.743 164.972, 159 168.138 M 233.626 172.665 C 238.803 180.809, 240.381 182.932, 241.280 182.969 C 242.208 183.006, 232.507 168.432, 230.974 167.484 C 230.392 167.124, 231.585 169.456, 233.626 172.665 M 163.427 179.091 C 161.817 180.779, 158.363 183.550, 155.751 185.248 C 153.139 186.946, 151.198 188.531, 151.437 188.770 C 151.676 189.010, 154.303 188.092, 157.275 186.732 C 160.985 185.033, 163.390 183.105, 164.953 180.577 C 167.872 175.852, 167.168 175.167, 163.427 179.091 M 164.938 187.575 C 162.497 190.068, 158.250 193.424, 155.500 195.032 C 151.604 197.310, 151.005 197.961, 152.790 197.978 C 156.857 198.017, 162.683 194.200, 166.507 188.990 C 168.560 186.194, 170.045 183.712, 169.807 183.474 C 169.570 183.236, 167.378 185.082, 164.938 187.575 M 231.555 190.750 C 232.946 193.912, 235.483 197.850, 237.192 199.500 L 240.300 202.500 238.212 199 C 237.063 197.075, 234.712 193.137, 232.988 190.250 C 231.264 187.363, 229.667 185, 229.439 185 C 229.212 185, 230.163 187.588, 231.555 190.750 M 179.029 191.733 C 179.055 196.739, 179.461 197.942, 182.104 200.850 C 184.953 203.983, 185.663 204.235, 193.075 204.743 C 201.515 205.321, 202.864 204.532, 198.172 201.761 C 196.617 200.842, 191.667 196.912, 187.172 193.028 L 179 185.967 179.029 191.733 M 172 191.874 C 172 194.005, 171.325 197.662, 170.500 200 C 168.561 205.495, 168.603 206, 171 206 C 172.852 206, 173 205.333, 173 197 C 173 192.050, 172.775 188, 172.500 188 C 172.225 188, 172 189.743, 172 191.874 M 131.643 195.068 C 130.071 195.517, 128.023 196.574, 127.092 197.416 C 126.161 198.259, 123.622 199.328, 121.450 199.793 L 117.500 200.638 121.250 202.020 C 127.517 204.329, 125.438 204.900, 118.486 202.778 C 112.300 200.890, 109.149 200.907, 106.180 202.843 C 105.140 203.522, 105.404 204.507, 107.430 207.492 C 110.167 211.525, 110.895 218.197, 108.904 221 C 108.083 222.156, 107.975 221.871, 108.436 219.759 C 108.765 218.252, 108.551 215.102, 107.960 212.759 C 106.883 208.484, 103.581 203.086, 102.627 204.040 C 102.020 204.647, 105.962 221.144, 106.991 222.302 C 107.383 222.742, 110.582 222.967, 114.102 222.801 L 120.500 222.499 116.250 220.641 C 113.912 219.619, 112 218.477, 112 218.102 C 112 217.353, 128.856 219.648, 133.281 221 C 135.544 221.691, 136.570 221.395, 138.781 219.414 L 141.500 216.979 136 217.712 C 128.326 218.736, 124.933 218.504, 123.910 216.888 C 122.149 214.108, 123.111 213.025, 128.750 211.440 C 131.912 210.551, 137.069 208.819, 140.209 207.590 L 145.918 205.356 140.209 199.803 C 135.063 194.799, 134.218 194.332, 131.643 195.068 M 166.633 197.727 C 166.219 198.951, 164.230 201.314, 162.212 202.977 L 158.544 206 161.658 206 C 164.241 206, 165.059 205.396, 166.452 202.460 C 167.376 200.514, 167.964 198.151, 167.759 197.210 C 167.454 195.814, 167.248 195.909, 166.633 197.727 M 145.861 200.033 C 147.282 201.218, 149.669 201.987, 151.861 201.967 C 155.427 201.935, 155.389 201.896, 150 200 C 143.177 197.600, 142.942 197.602, 145.861 200.033 M 35 205 C 35 206.556, 35.667 207, 38 207 C 40.333 207, 41 206.556, 41 205 C 41 203.444, 40.333 203, 38 203 C 35.667 203, 35 203.444, 35 205 M 131.441 204.514 C 132.509 205.331, 134.271 206, 135.358 206 C 137.893 206, 137.340 205.569, 133 204.162 C 129.820 203.131, 129.677 203.163, 131.441 204.514 M 268.081 209.166 C 271.337 212.557, 274.339 214.989, 274.751 214.571 C 275.522 213.789, 264.596 203, 263.033 203 C 262.552 203, 264.824 205.774, 268.081 209.166 M 36.750 204.662 C 37.438 204.940, 38.563 204.940, 39.250 204.662 C 39.938 204.385, 39.375 204.158, 38 204.158 C 36.625 204.158, 36.063 204.385, 36.750 204.662 M 185.554 206.780 C 185.250 207.083, 175.871 207.451, 164.711 207.598 C 148.937 207.806, 143.427 208.229, 139.960 209.499 C 137.507 210.397, 134.600 211.391, 133.500 211.707 C 132.400 212.023, 130.778 212.904, 129.895 213.665 C 128.982 214.451, 127.520 214.753, 126.508 214.365 C 125.240 213.878, 124.861 214.087, 125.191 215.091 C 125.861 217.127, 132.404 217.453, 134.312 215.545 C 135.185 214.673, 136.129 214.400, 136.455 214.926 C 137.233 216.185, 144.097 215.078, 146.066 213.376 C 146.928 212.631, 150.303 211.607, 153.566 211.100 C 156.830 210.592, 160.625 209.887, 162 209.534 C 163.499 209.148, 163.103 209.534, 161.012 210.497 C 159.094 211.380, 155.682 212.356, 153.431 212.665 C 147.585 213.466, 135.391 222.667, 135.770 225.992 C 136.079 228.699, 134.307 230.205, 131.750 229.410 C 130.787 229.110, 130 229.346, 130 229.933 C 130 231.772, 137.743 231.193, 139.193 229.245 C 139.912 228.280, 142.232 226.592, 144.349 225.495 C 146.466 224.398, 148.793 222.664, 149.519 221.642 C 150.246 220.619, 151.260 220.043, 151.774 220.360 C 152.287 220.678, 153.185 219.890, 153.768 218.610 C 154.537 216.923, 155.980 216.099, 159.019 215.613 C 161.324 215.244, 164.490 214.281, 166.055 213.471 C 167.620 212.662, 169.711 212.020, 170.700 212.044 C 172.466 212.087, 168.104 213.984, 160.824 216.340 C 158.610 217.056, 154.936 219.850, 151.582 223.370 C 147.149 228.020, 146.133 229.683, 146.597 231.530 C 147.089 233.491, 146.740 233.916, 144.340 234.275 L 141.500 234.700 144.368 234.850 C 146.494 234.961, 148.270 233.965, 151.235 231 C 153.435 228.800, 155.615 227, 156.079 227 C 156.543 227, 157.727 226.142, 158.711 225.092 C 160.481 223.205, 167.262 221.929, 168.570 223.237 C 168.942 223.609, 168.897 224.721, 168.470 225.707 C 168.042 226.693, 167.790 228.287, 167.909 229.250 C 168.028 230.213, 167.659 231, 167.089 231 C 166.518 231, 165.376 232.306, 164.550 233.903 C 163.209 236.496, 163.213 236.868, 164.588 237.395 C 166.459 238.113, 165.558 239.813, 162.648 241.060 C 160.576 241.947, 160.586 241.972, 162.908 241.740 C 164.563 241.575, 166.340 239.934, 168.584 236.500 C 172.891 229.910, 177.199 225.045, 178.750 225.020 C 179.438 225.009, 180.007 224.438, 180.015 223.750 C 180.026 222.837, 180.264 222.869, 180.896 223.867 C 182.182 225.896, 188.469 223.555, 190.898 220.143 C 192.656 217.675, 193.390 217.436, 199.029 217.499 L 205.228 217.569 204.645 212.649 C 204.324 209.943, 203.936 207.624, 203.781 207.496 C 203.120 206.950, 186.055 206.279, 185.554 206.780 M 216.338 206.784 L 206.176 207.068 206.186 214.784 C 206.193 219.419, 205.530 224.434, 204.527 227.345 C 203.608 230.009, 203.001 232.334, 203.178 232.511 C 203.467 232.800, 223.009 233.304, 225.534 233.088 C 227.736 232.900, 230.143 226.898, 230.143 221.597 C 230.143 216.346, 228.733 209.477, 227.250 207.500 C 226.811 206.914, 222.294 206.618, 216.338 206.784 M 171.750 209.662 C 172.438 209.940, 173.563 209.940, 174.250 209.662 C 174.938 209.385, 174.375 209.158, 173 209.158 C 171.625 209.158, 171.063 209.385, 171.750 209.662 M 149.500 217 C 149.160 217.550, 149.359 218, 149.941 218 C 150.523 218, 151 217.550, 151 217 C 151 216.450, 150.802 216, 150.559 216 C 150.316 216, 149.840 216.450, 149.500 217 M 194.500 220.943 C 193.057 221.522, 194.103 221.851, 198.251 222.123 C 202.387 222.394, 204.002 222.149, 204.001 221.250 C 204 219.842, 197.748 219.640, 194.500 220.943 M 125.500 224.017 C 123.850 224.427, 119.055 224.817, 114.844 224.882 L 107.187 225 108.038 228.250 C 108.506 230.037, 109.420 233.628, 110.068 236.228 C 111.115 240.426, 111.598 241.009, 114.374 241.427 C 119.322 242.173, 146.237 244, 152.276 244 C 156.565 244, 158.054 244.422, 159.128 245.943 C 160.056 247.258, 161.901 247.976, 164.832 248.162 C 169.525 248.459, 169.109 248.866, 173.602 239.577 C 174.751 237.202, 175.620 236.274, 175.804 237.225 C 176.072 238.615, 180 240.571, 180 239.314 C 180 237.856, 176.289 234.404, 175.135 234.788 C 174.144 235.119, 173.972 234.613, 174.482 232.868 C 174.879 231.512, 173.697 232.636, 171.715 235.500 C 166.553 242.959, 164.816 244.261, 161.640 243.053 C 158.990 242.046, 158.130 239.655, 160.003 238.498 C 160.554 238.158, 161.920 235.769, 163.038 233.189 C 164.156 230.610, 165.504 227.719, 166.035 226.764 C 167.451 224.215, 167.285 224.058, 164.139 224.960 C 159.576 226.269, 156.820 227.983, 151.793 232.640 C 148.359 235.820, 146.254 237, 144.011 237 C 139.276 237, 139.118 234.487, 143.569 229.929 C 148.030 225.361, 147.042 224.696, 141.978 228.859 C 137.384 232.635, 134.495 233.448, 130.926 231.969 C 127.337 230.483, 127.145 227.796, 130.500 226 C 131.875 225.264, 133 224.386, 133 224.049 C 133 223.165, 128.991 223.148, 125.500 224.017 M 185.766 226.824 L 182.032 228.500 184.573 231.731 C 188.195 236.335, 204.536 250, 206.420 250 C 207.720 250, 208 248.669, 208 242.500 C 208 235.115, 207.961 235, 205.434 235 C 201.458 235, 199.382 233.412, 197.628 229.029 C 196.195 225.446, 195.655 225.008, 192.758 225.074 C 190.966 225.115, 187.820 225.902, 185.766 226.824 M 132.553 226.915 C 132.231 227.436, 132.394 228.125, 132.915 228.447 C 133.436 228.769, 134.125 228.606, 134.447 228.085 C 134.769 227.564, 134.606 226.875, 134.085 226.553 C 133.564 226.231, 132.875 226.394, 132.553 226.915 M 177.797 228.680 C 176.206 229.099, 176.202 229.356, 177.735 232.570 C 178.869 234.949, 179.621 235.623, 180.172 234.755 C 181.185 233.160, 181.246 227.962, 180.250 228.116 C 179.838 228.180, 178.734 228.434, 177.797 228.680 M 276 233.146 C 268.418 237.846, 267.680 238.498, 270.807 237.726 C 272.670 237.267, 272.897 237.419, 271.985 238.519 C 271.363 239.267, 269.875 240.019, 268.677 240.190 C 267.480 240.360, 266.643 240.870, 266.817 241.323 C 267.259 242.466, 262.281 246.926, 259.117 248.223 C 257.678 248.813, 254.250 250.097, 251.500 251.077 L 246.500 252.860 255.321 252.930 C 261.709 252.981, 264.537 252.606, 265.571 251.571 C 267.886 249.257, 267.219 248.835, 263.933 250.535 C 262.246 251.407, 260.124 251.978, 259.217 251.803 C 257.248 251.424, 266.091 245.489, 270.098 244.500 C 271.724 244.099, 273.301 242.592, 274.311 240.474 C 275.199 238.612, 277.570 235.268, 279.579 233.044 C 281.589 230.820, 283.068 229.026, 282.866 229.059 C 282.665 229.091, 279.575 230.930, 276 233.146 M 256.980 232.023 C 258.911 232.477, 261.137 232.445, 261.980 231.951 C 263.004 231.352, 261.867 231.084, 258.500 231.133 C 253.683 231.202, 253.628 231.235, 256.980 232.023 M 210 242.932 L 210 251 214.376 251 C 216.869 251, 221.183 249.924, 224.404 248.500 C 230.759 245.689, 231 245.632, 231 246.935 C 231 247.450, 229.402 248.448, 227.449 249.154 C 224.549 250.203, 224.228 250.568, 225.699 251.149 C 228.950 252.432, 231.985 252.124, 231.390 250.573 C 231.008 249.578, 231.396 249.284, 232.671 249.602 C 233.720 249.864, 238.123 247.914, 242.998 245.029 C 249.787 241.011, 250.955 240, 248.807 240 C 247.328 240, 245.836 240.456, 245.491 241.014 C 244.790 242.149, 237 246.316, 237 245.556 C 237 245.290, 238.609 243.979, 240.576 242.642 C 245.511 239.289, 243.159 238.379, 237.271 241.363 C 230.806 244.639, 219 247.712, 219 246.119 C 219 245.613, 221.363 244.645, 224.250 243.968 C 227.137 243.290, 230.625 242.104, 232 241.331 L 234.500 239.927 232 240.713 C 227.990 241.975, 213.259 241.662, 211.885 240.286 C 210.934 239.335, 211.518 239.227, 214.586 239.786 C 216.739 240.179, 220.300 240.451, 222.500 240.391 C 231.593 240.144, 237.119 239.616, 237.528 238.955 C 238.344 237.635, 226.511 235.239, 218.250 235.051 L 210 234.864 210 242.932 M 0.445 269 C 0.445 286.325, 0.582 293.413, 0.748 284.750 C 0.915 276.087, 0.915 261.913, 0.748 253.250 C 0.582 244.588, 0.445 251.675, 0.445 269 M 162 239 C 162 239.550, 162.450 240, 163 240 C 163.550 240, 164 239.550, 164 239 C 164 238.450, 163.550 238, 163 238 C 162.450 238, 162 238.450, 162 239 M 174.430 242.421 C 173.364 246.671, 174.268 248.476, 177.631 248.804 C 182.460 249.275, 182.805 246.474, 178.216 244.051 C 175.872 242.813, 175.168 242.072, 176.309 242.044 C 177.304 242.020, 177.840 241.550, 177.500 241 C 176.432 239.272, 175.062 239.906, 174.430 242.421 M 248.519 245.115 C 244.680 247.716, 240.180 250.282, 238.519 250.819 L 235.500 251.796 238.500 251.887 C 242.704 252.015, 249.242 249.835, 258 245.385 C 263.849 242.413, 265.001 241.495, 263.234 241.215 C 261.988 241.018, 259.376 241.840, 257.431 243.042 C 253.686 245.357, 251.300 244.964, 254.571 242.571 C 255.630 241.797, 256.273 240.989, 255.998 240.776 C 255.724 240.562, 252.359 242.515, 248.519 245.115 M 114 243.922 C 115.375 244.405, 120.775 244.898, 126 245.017 C 131.225 245.136, 138.425 245.533, 142 245.898 L 148.500 246.562 145 248.108 C 143.075 248.958, 135.528 251.822, 128.228 254.472 C 120.928 257.121, 115.162 259.496, 115.415 259.748 C 115.949 260.282, 127.682 256.453, 144 250.418 C 157.255 245.515, 157.153 245.415, 138 244.518 C 131.125 244.196, 122.350 243.733, 118.500 243.488 C 113.736 243.185, 112.298 243.324, 114 243.922 M 127.813 246.683 C 128.534 246.972, 129.397 246.936, 129.729 246.604 C 130.061 246.272, 129.471 246.036, 128.417 246.079 C 127.252 246.127, 127.015 246.364, 127.813 246.683 M 121.750 248.662 C 122.438 248.940, 123.563 248.940, 124.250 248.662 C 124.938 248.385, 124.375 248.158, 123 248.158 C 121.625 248.158, 121.063 248.385, 121.750 248.662 M 123.813 250.683 C 124.534 250.972, 125.397 250.936, 125.729 250.604 C 126.061 250.272, 125.471 250.036, 124.417 250.079 C 123.252 250.127, 123.015 250.364, 123.813 250.683 M 131.510 251.016 C 131.856 251.575, 132.557 251.774, 133.069 251.457 C 134.456 250.600, 134.198 250, 132.441 250 C 131.584 250, 131.165 250.457, 131.510 251.016 M 269.232 252 C 268.190 253.668, 268.233 254, 269.492 254 C 270.333 254, 271 253.116, 271 252 C 271 250.900, 270.883 250, 270.741 250 C 270.598 250, 269.919 250.900, 269.232 252 M 117.750 252.662 C 118.438 252.940, 119.563 252.940, 120.250 252.662 C 120.938 252.385, 120.375 252.158, 119 252.158 C 117.625 252.158, 117.063 252.385, 117.750 252.662 M 125 253 C 125 254.253, 126.061 254.253, 128 253 C 129.213 252.216, 129.069 252.028, 127.250 252.015 C 126.013 252.007, 125 252.450, 125 253 M 120.500 255 C 120.840 255.550, 121.316 256, 121.559 256 C 121.802 256, 122 255.550, 122 255 C 122 254.450, 121.523 254, 120.941 254 C 120.359 254, 120.160 254.450, 120.500 255 M 11.250 256.689 C 12.213 256.941, 13.787 256.941, 14.750 256.689 C 15.713 256.438, 14.925 256.232, 13 256.232 C 11.075 256.232, 10.287 256.438, 11.250 256.689 M 21.500 256.986 C 23.802 258.011, 95.854 263.479, 96.645 262.689 C 97.385 261.948, 90.408 261.278, 58.500 259.021 C 43.100 257.932, 28.025 256.828, 25 256.568 C 21.300 256.250, 20.155 256.387, 21.500 256.986 M 115 256.969 C 115 257.501, 115.675 257.678, 116.500 257.362 C 117.325 257.045, 118 256.609, 118 256.393 C 118 256.177, 117.325 256, 116.500 256 C 115.675 256, 115 256.436, 115 256.969 M 132 258 C 131.175 258.533, 130.950 258.969, 131.500 258.969 C 132.050 258.969, 133.175 258.533, 134 258 C 134.825 257.467, 135.050 257.031, 134.500 257.031 C 133.950 257.031, 132.825 257.467, 132 258 M 100.621 262.804 C 100.221 263.452, 102.381 263.952, 106.496 264.164 C 110.075 264.349, 113.003 264.163, 113.002 263.750 C 113.001 263.337, 111.987 262.995, 110.750 262.989 C 109.513 262.983, 106.870 262.708, 104.877 262.379 C 102.810 262.037, 100.982 262.220, 100.621 262.804" stroke="none" fill="#3467df" fill-rule="evenodd"/>
</svg>