<svg xmlns="http://www.w3.org/2000/svg" width="400" height="300" viewBox="0 0 400 300" version="1.1">
	<path d="M -0 150.002 L -0 300.005 200.250 299.752 L 400.500 299.500 400.753 149.750 L 401.007 0 200.503 0 L 0 0 -0 150.002 M 0.487 150.500 C 0.487 233, 0.605 266.602, 0.750 225.172 C 0.894 183.741, 0.894 116.241, 0.750 75.172 C 0.605 34.102, 0.487 68, 0.487 150.500 M 152.081 77.551 C 149.101 78.373, 145.177 79.964, 143.360 81.086 C 138.204 84.273, 132.267 91.672, 129.996 97.740 C 127.994 103.090, 127.935 104.819, 128.213 149.887 C 128.492 195.235, 128.559 196.627, 130.661 201.176 C 133.852 208.081, 140.112 214.328, 146.885 217.368 C 152.719 219.986, 152.979 220.009, 179.883 220.253 C 194.798 220.389, 207.001 220.280, 207.001 220.010 C 207 219.741, 199.012 211.479, 189.250 201.651 C 178.677 191.008, 173.144 184.842, 175.566 186.402 C 186.362 193.359, 202.508 195.296, 214.528 191.077 C 241.440 181.631, 252.889 151.285, 238.992 126.234 C 235.986 120.815, 236.808 121.489, 253.949 138.500 L 272.086 156.500 271.793 128.500 C 271.518 102.256, 271.364 100.207, 269.339 95.824 C 266.086 88.784, 259.902 82.681, 252.747 79.447 L 246.500 76.624 202 76.341 C 164.967 76.105, 156.591 76.308, 152.081 77.551 M 147.200 96.200 C 145.885 97.515, 145.607 100.274, 146.681 101.347 C 147.408 102.075, 153 97.177, 153 95.813 C 153 94.556, 148.547 94.853, 147.200 96.200 M 226.500 126 C 227.495 127.100, 228.535 128, 228.810 128 C 229.085 128, 228.495 127.100, 227.500 126 C 226.505 124.900, 225.465 124, 225.190 124 C 224.915 124, 225.505 124.900, 226.500 126 M 230.695 132.487 C 231.610 134.406, 232.536 135.797, 232.753 135.580 C 233.210 135.123, 230.175 129, 229.490 129 C 229.239 129, 229.781 130.569, 230.695 132.487 M 193.250 131.977 C 191.834 132.580, 191 133.800, 191 135.268 C 191 138.216, 189.243 140, 186.340 140 C 184.579 140, 183.822 140.862, 182.911 143.904 C 181.410 148.914, 182.304 153.512, 185.877 159.145 C 195.212 173.864, 218.494 166.273, 218.402 148.541 C 218.369 142.159, 216.246 138.135, 210.989 134.492 C 206.488 131.373, 197.620 130.116, 193.250 131.977 M 234.158 143 C 234.158 144.375, 234.385 144.938, 234.662 144.250 C 234.940 143.563, 234.940 142.438, 234.662 141.750 C 234.385 141.063, 234.158 141.625, 234.158 143 M 234.158 154 C 234.158 155.375, 234.385 155.938, 234.662 155.250 C 234.940 154.563, 234.940 153.438, 234.662 152.750 C 234.385 152.063, 234.158 152.625, 234.158 154 M 230.695 164.513 C 229.781 166.431, 229.239 168, 229.490 168 C 230.175 168, 233.210 161.877, 232.753 161.420 C 232.536 161.203, 231.610 162.594, 230.695 164.513 M 224.453 173.250 L 220.500 177.500 224.750 173.547 C 227.088 171.373, 229 169.460, 229 169.297 C 229 168.540, 228.129 169.298, 224.453 173.250 M 176 174.378 C 176 174.585, 176.787 175.373, 177.750 176.128 C 179.336 177.371, 179.371 177.336, 178.128 175.750 C 176.821 174.084, 176 173.555, 176 174.378 M 190.813 182.683 C 191.534 182.972, 192.397 182.936, 192.729 182.604 C 193.061 182.272, 192.471 182.036, 191.417 182.079 C 190.252 182.127, 190.015 182.364, 190.813 182.683 M 207.813 182.683 C 208.534 182.972, 209.397 182.936, 209.729 182.604 C 210.061 182.272, 209.471 182.036, 208.417 182.079 C 207.252 182.127, 207.015 182.364, 207.813 182.683 M 197.250 183.716 C 198.762 183.945, 201.238 183.945, 202.750 183.716 C 204.262 183.487, 203.025 183.300, 200 183.300 C 196.975 183.300, 195.738 183.487, 197.250 183.716" stroke="none" fill="black" fill-rule="evenodd"/>
</svg>