<svg xmlns="http://www.w3.org/2000/svg" width="60" height="60" viewBox="0 0 60 60" version="1.1">
	<path d="M 23 0.709 C 20.247 1.722, 17.806 4.456, 15.375 9.250 C 14.050 11.862, 12.476 14, 11.876 14 C 11.277 14, 11.011 14.585, 11.285 15.300 C 11.559 16.016, 11.174 17.703, 10.427 19.050 C 8.609 22.334, 8.661 22.678, 11.075 23.309 C 12.720 23.740, 12.952 24.229, 12.195 25.676 C 11.140 27.691, 11.742 33.723, 13.081 34.550 C 13.549 34.839, 15.762 34.142, 18 33 C 20.238 31.858, 22.573 31.236, 23.189 31.617 C 23.871 32.038, 24.030 31.857, 23.595 31.155 C 23.203 30.520, 23.306 30, 23.824 30 C 25.473 30, 25.785 26.393, 24.418 23.142 C 23.691 21.414, 22.709 20, 22.234 20 C 21.273 20, 21.849 7.870, 22.859 6.855 C 23.211 6.501, 24.907 5.915, 26.626 5.553 C 28.899 5.075, 30.220 5.363, 31.465 6.608 C 33.016 8.159, 33.027 8.405, 31.589 9.210 C 30.715 9.699, 30 10.935, 30 11.956 C 30 13.337, 30.526 13.675, 32.057 13.275 C 33.451 12.910, 33.915 12.216, 33.497 11.119 C 33.095 10.061, 33.218 9.847, 33.851 10.500 C 34.746 11.424, 35.467 17.353, 35.140 21.097 C 35.063 21.976, 33.987 23.225, 32.750 23.873 L 30.500 25.052 32.750 24.620 C 34.771 24.231, 35 24.582, 35 28.062 C 35 30.751, 35.383 31.791, 36.250 31.458 C 37.082 31.140, 37.387 29.351, 37.162 26.111 C 36.947 23.020, 37.403 20.121, 38.412 18.171 C 41.420 12.354, 39.837 6.806, 33.820 2.073 C 31.294 0.086, 26.379 -0.533, 23 0.709 M 24 13.469 C 24 14.363, 24.586 14.712, 25.500 14.362 C 26.325 14.045, 27 13.384, 27 12.893 C 27 12.402, 26.325 12, 25.500 12 C 24.675 12, 24 12.661, 24 13.469 M 31 20.059 C 31 20.641, 31.450 20.840, 32 20.500 C 32.550 20.160, 33 19.684, 33 19.441 C 33 19.198, 32.550 19, 32 19 C 31.450 19, 31 19.477, 31 20.059 M 34.666 45.352 C 34.229 47.471, 34.114 49.448, 34.412 49.745 C 35.318 50.651, 36.170 47.342, 35.805 44.334 C 35.485 41.694, 35.407 41.764, 34.666 45.352 M 48.243 46.312 C 47.412 49.152, 47.426 51.382, 48.300 55.062 C 49.667 60.815, 51.475 61.773, 50.543 56.250 C 50.103 53.639, 50.370 51.892, 51.424 50.500 C 53.151 48.217, 53.488 45, 52 45 C 51.450 45, 50.947 45.788, 50.882 46.750 C 50.817 47.712, 50.447 47.150, 50.061 45.500 L 49.359 42.500 48.243 46.312 M 19.638 52.500 C 19.322 53.325, 19.499 54, 20.031 54 C 20.564 54, 21 53.325, 21 52.500 C 21 51.675, 20.823 51, 20.607 51 C 20.391 51, 19.955 51.675, 19.638 52.500 M 17.624 57.539 C 16.753 59.807, 16.815 60, 18.412 60 C 19.188 60, 19.726 59.338, 19.607 58.529 C 19.270 56.232, 18.309 55.752, 17.624 57.539" stroke="none" fill="black" fill-rule="evenodd"/>
</svg>