<svg xmlns="http://www.w3.org/2000/svg" width="400" height="300" viewBox="0 0 400 300" version="1.1">
	<path d="M 149.882 78.362 C 141.234 81.497, 134.413 87.721, 130.606 95.949 C 128.557 100.376, 128.500 101.805, 128.500 148.500 C 128.500 195.582, 128.541 196.589, 130.661 201.176 C 133.839 208.052, 140.114 214.329, 146.819 217.338 L 152.632 219.947 200.066 220.224 L 247.500 220.500 253.155 217.849 C 259.830 214.719, 265.973 208.721, 269.188 202.193 L 271.500 197.500 271.500 149 L 271.500 100.500 268.720 94.839 C 265.667 88.623, 260.415 83.328, 253.795 79.793 C 249.507 77.504, 249.425 77.500, 201.500 77.275 C 163.945 77.099, 152.713 77.335, 149.882 78.362 M 205 109.913 C 190.425 113.616, 177.262 116.958, 175.750 117.341 L 173 118.038 173 140.440 L 173 162.841 169.976 163.505 C 163.464 164.935, 158 171.915, 158 178.802 C 158 189.439, 171.439 196.688, 180.696 191.044 C 187.310 187.011, 187.448 186.370, 188 157.109 L 188.500 130.623 201.500 127.338 C 208.650 125.531, 215.300 124.041, 216.277 124.027 C 217.911 124.002, 218.032 125.146, 217.777 138.188 L 217.500 152.375 214 153.266 C 206.863 155.083, 202.006 162.887, 203.397 170.302 C 205.937 183.844, 224.415 186.318, 230.750 173.964 C 232.950 169.673, 233 168.842, 233 136.288 C 233 117.980, 232.662 103.041, 232.250 103.091 C 231.838 103.141, 219.575 106.211, 205 109.913" stroke="none" fill="black" fill-rule="evenodd"/>
</svg>