<svg xmlns="http://www.w3.org/2000/svg" width="60" height="60" viewBox="0 0 60 60" version="1.1">
	<path d="M 20.453 3.276 C 11.837 6.737, 5.730 13.082, 3.022 21.387 C 1.005 27.574, 2.138 38.854, 5.323 44.289 C 10.614 53.316, 19.467 58.368, 30 58.368 C 40.593 58.368, 49.372 53.326, 54.770 44.145 C 57.197 40.015, 57.500 38.502, 57.500 30.500 C 57.500 23.562, 57.049 20.591, 55.533 17.533 C 53.008 12.440, 47.511 6.958, 42.467 4.503 C 37.674 2.170, 24.971 1.462, 20.453 3.276 M 21.660 12.769 C 22.298 13.174, 23.018 14.855, 23.260 16.503 L 23.700 19.500 23.850 16.250 C 24.039 12.163, 26 11.935, 26 16 C 26 17.650, 26.450 19, 27 19 C 27.550 19, 28 18.550, 28 18 C 28 17.450, 28.675 17, 29.500 17 C 30.325 17, 31 17.450, 31 18 C 31 18.550, 31.450 19, 32 19 C 32.550 19, 33 17.425, 33 15.500 C 33 13.575, 32.550 12, 32 12 C 31.450 12, 31 12.675, 31 13.500 C 31 14.325, 30.325 15, 29.500 15 C 28.675 15, 28 14.325, 28 13.500 C 28 12.431, 26.923 12.004, 24.250 12.015 C 22.188 12.024, 21.022 12.363, 21.660 12.769 M 34 15.500 C 34 18.680, 34.252 18.989, 36.750 18.884 C 38.335 18.817, 38.782 18.579, 37.805 18.321 C 36.821 18.062, 36.342 17.272, 36.662 16.437 C 36.973 15.628, 36.621 14.986, 35.857 14.968 C 34.966 14.947, 35.166 14.433, 36.441 13.468 C 38.338 12.033, 38.332 12, 36.191 12 C 34.354 12, 34 12.565, 34 15.500 M 5.136 33.576 C 5.217 35.918, 5.448 36.586, 5.708 35.233 L 6.144 32.966 9.072 35.051 L 12 37.136 12 33.568 C 12 31.606, 11.550 30, 11 30 C 10.450 30, 10 30.978, 10 32.174 L 10 34.349 7.500 32 L 5 29.651 5.136 33.576 M 13 33.500 C 13 36.669, 13.260 36.993, 15.750 36.930 C 17.560 36.883, 17.987 36.627, 17 36.180 C 15.334 35.425, 14.468 31, 15.986 31 C 16.516 31, 17.681 32.416, 18.575 34.146 C 19.835 36.581, 20.405 36.976, 21.101 35.896 C 21.870 34.701, 22.130 34.701, 22.899 35.896 C 23.596 36.978, 24.158 36.595, 25.399 34.195 C 27.592 29.954, 27.371 28.996, 24.893 32 C 22.935 34.372, 22.854 34.389, 23.303 32.321 C 23.665 30.654, 23.332 30.175, 21.888 30.283 C 20.507 30.387, 20.142 30.973, 20.528 32.463 C 21.015 34.345, 20.930 34.329, 19.406 32.250 C 18.497 31.010, 16.689 30, 15.378 30 C 13.327 30, 13 30.481, 13 33.500 M 29.750 30.662 C 30.438 30.940, 31 32.479, 31 34.083 C 31 35.688, 31.450 37, 32 37 C 32.550 37, 33 35.650, 33 34 C 33 29.970, 34.770 30.164, 35.277 34.250 C 35.674 37.450, 35.682 37.442, 35.840 33.750 C 35.998 30.042, 35.958 30.001, 32.250 30.079 C 30.188 30.122, 29.063 30.385, 29.750 30.662 M 38.150 33.750 C 38.274 36.868, 38.371 37.026, 38.722 34.688 C 39.055 32.471, 39.428 32.111, 40.483 32.986 C 41.478 33.812, 42.032 33.763, 42.640 32.799 C 43.206 31.899, 43.658 32.422, 44.110 34.500 C 44.745 37.415, 44.767 37.393, 44.882 33.750 C 45.002 29.925, 44.252 29.148, 42.313 31.087 C 41.530 31.870, 41.038 31.870, 40.554 31.087 C 39.166 28.842, 38.005 30.129, 38.150 33.750 M 46 33.500 C 46 36.830, 46.169 37, 49.481 37 C 52.449 37, 53.061 36.594, 53.635 34.250 C 54.005 32.737, 54.801 31.138, 55.404 30.696 C 56.063 30.213, 55.720 30.016, 54.544 30.201 C 53.422 30.379, 52.337 31.572, 52 33 C 51.663 34.428, 50.578 35.621, 49.456 35.799 C 47.828 36.056, 47.752 35.931, 49 35.054 C 50.333 34.117, 50.333 33.889, 49 33 C 47.667 32.111, 47.667 31.891, 49 31.015 C 50.218 30.216, 50.077 30.028, 48.250 30.015 C 46.342 30.002, 46 30.532, 46 33.500" stroke="none" fill="black" fill-rule="evenodd"/>
</svg>