<svg xmlns="http://www.w3.org/2000/svg" width="400" height="300" viewBox="0 0 400 300" version="1.1">
	<path d="M 241.836 117.404 C 242.174 121.660, 241.955 122.042, 234.891 129.478 C 224.279 140.649, 221.092 141.909, 214.595 137.500 C 212.364 135.986, 209.501 135, 207.333 135 C 204.205 135, 202.705 136.025, 195.393 143.163 C 185.378 152.938, 184.268 155.894, 188.383 161.832 C 190.052 164.239, 191 166.946, 191 169.301 C 191 172.515, 190.061 173.985, 183.750 180.643 C 175.980 188.841, 171.627 191.414, 167.242 190.401 C 165.113 189.909, 167.854 193.157, 179.500 204.926 L 194.500 220.083 222 219.792 L 249.500 219.500 254.859 216.532 C 260.932 213.168, 265.818 207.920, 269.193 201.136 C 271.401 196.699, 271.513 195.362, 271.793 170 L 272.085 143.500 256.786 128.255 L 241.486 113.010 241.836 117.404" stroke="none" fill="black" fill-rule="evenodd"/>
</svg>