<svg xmlns="http://www.w3.org/2000/svg" width="400" height="300" viewBox="0 0 400 300" version="1.1">
	<path d="M 148.063 79.192 C 141.490 81.715, 134.418 88.478, 131.008 95.500 C 128.779 100.090, 128.548 101.936, 128.202 118 C 127.995 127.625, 127.977 136.971, 128.163 138.769 C 128.493 141.973, 129.145 141.393, 160.994 109.519 L 193.488 77 173.494 77.052 C 155.700 77.098, 152.902 77.334, 148.063 79.192 M 164.750 114.423 L 128 151.529 128 165.010 L 128 178.491 141.242 165.249 L 154.483 152.008 154.687 146.754 C 154.799 143.864, 154.915 141.246, 154.945 140.935 C 154.975 140.625, 156.564 139.625, 158.475 138.713 C 163.389 136.370, 165.398 131.378, 163.543 126.121 L 162.180 122.259 167.840 116.686 L 173.500 111.114 177.721 112.256 C 183.288 113.762, 188.296 111.545, 190.696 106.511 C 192.315 103.116, 192.555 103, 197.950 103 L 203.529 103 216.500 90 L 229.471 77 215.486 77.158 L 201.500 77.317 164.750 114.423 M 247.245 101.236 L 231.989 116.534 234.514 119.060 C 236.919 121.464, 236.974 121.771, 235.683 125.503 C 233.754 131.075, 235.909 136.403, 241.180 139.092 L 245 141.041 245 148.500 L 245 155.959 241.180 157.908 C 235.905 160.599, 233.753 165.925, 235.685 171.505 L 237.045 175.431 232.047 180.430 L 227.048 185.428 222.593 184.236 C 216.606 182.635, 211.781 184.570, 209.196 189.610 L 207.349 193.211 200 193.211 L 192.651 193.211 190.804 189.610 C 188.147 184.430, 183.080 182.444, 177.433 184.368 C 173.369 185.753, 173.173 185.718, 170.615 183.160 L 167.981 180.527 152.812 195.696 C 135.900 212.609, 136.260 211.617, 145.233 216.572 L 150.500 219.480 196.715 220.321 C 237.089 221.056, 243.600 220.967, 248.235 219.620 C 255.380 217.543, 262.414 212.713, 266.104 207.349 C 272.145 198.568, 272.122 198.817, 271.797 147.389 C 271.503 101.046, 271.474 100.448, 269.249 96 C 268.010 93.525, 265.985 90.249, 264.749 88.719 L 262.500 85.938 247.245 101.236 M 208 104.341 C 208 106.551, 211.430 111.213, 213.687 112.071 C 215.112 112.613, 216.431 112.903, 216.618 112.716 C 216.805 112.528, 214.943 110.397, 212.479 107.979 C 210.016 105.562, 208 103.925, 208 104.341 M 191.173 122.845 C 180.504 126.650, 172.963 137.346, 173.086 148.500 C 173.203 159.136, 178.111 167.564, 187.061 172.500 C 191.762 175.093, 193.518 175.497, 200 175.477 C 208.008 175.452, 212.555 173.770, 218.789 168.524 C 229.373 159.618, 229.818 140.084, 219.668 129.882 C 211.822 121.996, 201.030 119.331, 191.173 122.845 M 194.025 141.975 C 191.293 144.707, 190.543 148.483, 192.024 152.058 C 193.502 155.626, 195.719 157, 200 157 C 204.281 157, 206.498 155.626, 207.976 152.058 C 210.537 145.876, 206.650 140, 200 140 C 197.351 140, 195.333 140.667, 194.025 141.975 M 159.763 161.500 C 162.238 163.975, 164.407 166, 164.583 166 C 165.832 166, 161.779 159.443, 159.879 158.390 C 155.332 155.869, 155.289 157.026, 159.763 161.500" stroke="none" fill="black" fill-rule="evenodd"/>
</svg>