<svg xmlns="http://www.w3.org/2000/svg" width="400" height="300" viewBox="0 0 400 300" version="1.1">
	<path d="M 154.932 76.976 C 144.647 78.791, 135.105 86.215, 130.637 95.878 C 128.548 100.396, 128.500 101.580, 128.500 148.500 L 128.500 196.500 130.968 201.500 C 134.483 208.620, 141.511 215.300, 148.059 217.744 C 153.178 219.654, 156.223 219.796, 199.500 220.137 C 241.969 220.472, 245.901 220.360, 250.720 218.680 C 257.306 216.383, 265.273 209.302, 268.805 202.608 L 271.500 197.500 271.500 149 C 271.500 101.405, 271.460 100.413, 269.339 95.824 C 266.114 88.847, 259.899 82.688, 252.747 79.385 L 246.500 76.500 203 76.335 C 179.075 76.244, 157.444 76.533, 154.932 76.976 M 195.683 101.361 C 194.646 102.944, 192.768 103.941, 189.992 104.385 C 184.465 105.269, 174.909 110.188, 169.801 114.779 C 163.759 120.209, 158.401 129.078, 156.348 137.047 C 155.339 140.963, 154.014 144, 153.314 144 C 151.605 144, 149.769 147.698, 150.435 149.797 C 150.736 150.743, 151.998 151.980, 153.241 152.546 C 154.483 153.111, 155.395 154.096, 155.267 154.736 C 154.712 157.501, 159.290 169.080, 162.970 174.218 C 169.274 183.022, 181.580 190.881, 191.535 192.462 C 194.360 192.911, 195.860 193.763, 196.535 195.302 C 197.827 198.246, 202.160 198.275, 203.445 195.349 C 204.134 193.780, 205.844 192.906, 209.770 192.117 C 225.676 188.923, 241.753 172.713, 243.745 157.863 C 244.110 155.143, 245.038 153.366, 246.641 152.316 C 249.719 150.299, 249.713 146.513, 246.627 144.492 C 244.995 143.422, 244.084 141.662, 243.707 138.851 C 241.662 123.606, 224.599 106.414, 209.453 104.338 C 205.840 103.843, 204.645 103.196, 203.944 101.353 C 202.706 98.096, 197.819 98.101, 195.683 101.361 M 202.171 123.294 C 201.580 124.006, 200.180 128.619, 199.061 133.544 C 197.942 138.470, 196.751 143.481, 196.414 144.680 C 195.889 146.553, 196.382 147.034, 199.908 148.091 C 202.166 148.767, 204.175 149.136, 204.373 148.910 C 204.572 148.685, 206.162 143.443, 207.908 137.261 C 210.383 128.498, 210.845 125.579, 210.006 124.011 C 208.769 121.699, 203.867 121.251, 202.171 123.294 M 218.636 129.564 L 212.771 135.894 214.835 138.517 C 221.857 147.445, 215.332 163.804, 204.027 165.612 C 200.729 166.139, 200.006 166.698, 199.472 169.130 C 198.193 174.949, 193.294 176.905, 190.537 172.696 C 189.421 170.993, 189.261 169.578, 189.923 167.269 C 190.639 164.771, 190.460 163.821, 189.027 162.524 C 187.346 161.004, 186.869 161.285, 181.367 167.036 C 178.140 170.409, 175.383 173.482, 175.240 173.864 C 174.721 175.253, 186.093 181.823, 191.092 183.022 C 217.256 189.299, 241.129 165.661, 234.577 139.964 C 233.039 133.931, 226.900 122.854, 225.240 123.117 C 224.833 123.182, 221.861 126.083, 218.636 129.564" stroke="none" fill="black" fill-rule="evenodd"/>
</svg>