<svg xmlns="http://www.w3.org/2000/svg" width="400" height="300" viewBox="0 0 400 300" version="1.1">
	<path d="M 242.462 122.218 C 245.416 129.357, 243.461 139.675, 238.284 144.275 C 236.305 146.034, 236.322 146.087, 240.047 149.812 C 249.390 159.154, 246.650 175.118, 234.711 180.898 C 229.209 183.561, 222.588 183.594, 217.467 180.983 C 214.625 179.534, 213.398 179.307, 213.108 180.176 C 211.154 186.037, 201.931 188.022, 197.455 183.545 C 196.105 182.195, 195 180.281, 195 179.292 C 195 177.682, 193.972 177.493, 185.250 177.496 C 177.149 177.499, 174.742 177.121, 171.019 175.261 C 167.322 173.414, 170.736 177.237, 190.519 197.102 L 214.500 221.182 230.595 220.735 C 245.154 220.331, 247.217 220.047, 252.215 217.759 C 259.694 214.335, 265.381 208.960, 268.720 202.161 C 271.488 196.524, 271.501 196.398, 271.796 173 L 272.092 149.500 256.508 134 C 243.598 121.160, 241.188 119.138, 242.462 122.218" stroke="none" fill="black" fill-rule="evenodd"/>
</svg>