<svg xmlns="http://www.w3.org/2000/svg" width="400" height="300" viewBox="0 0 400 300" version="1.1">
	<path d="M -0 150.002 L -0 300.005 200.250 299.752 L 400.500 299.500 400.753 149.750 L 401.007 0 200.503 0 L 0 0 -0 150.002 M 0.487 150.500 C 0.487 233, 0.605 266.602, 0.750 225.172 C 0.894 183.741, 0.894 116.241, 0.750 75.172 C 0.605 34.102, 0.487 68, 0.487 150.500 M 153.147 77.047 C 143.494 79.007, 133.788 87.606, 130.098 97.468 C 127.966 103.166, 127.931 104.133, 128.213 149.887 L 128.500 196.500 131.280 202.161 C 134.619 208.961, 140.277 214.307, 147.880 217.845 C 153.451 220.438, 153.743 220.464, 181.500 220.805 L 209.500 221.150 193.455 204.825 C 167.643 178.562, 166 176.645, 166 172.787 C 166 170.076, 165.032 168.471, 161 164.500 L 156 159.575 156 152.738 C 156 148.487, 156.593 144.755, 157.566 142.872 C 159.375 139.375, 164.276 137, 169.687 137 L 173.437 137 167.503 131.003 L 161.569 125.006 166.490 120.010 C 173.712 112.678, 178.740 112.199, 185.566 118.192 L 189 121.207 189 113.104 L 189 105 196.277 105 C 201.373 105, 204.296 105.494, 206.027 106.649 C 209.324 108.848, 216 115.213, 216 116.157 C 216 116.571, 214.875 118.034, 213.500 119.409 C 211.121 121.788, 210.998 122.482, 210.960 133.705 C 210.923 144.711, 210.821 145.317, 209.435 142.763 C 208.618 141.257, 206.633 139.344, 205.024 138.513 C 196.925 134.324, 188.581 140.255, 189.197 149.762 C 189.459 153.805, 189.957 154.741, 192.898 156.717 C 195.172 158.245, 197.770 159, 200.754 159 C 204.931 159, 205.689 158.541, 212.734 151.750 C 216.870 147.762, 223.399 140.951, 227.242 136.614 C 234.213 128.745, 234.227 128.717, 233.751 123.760 L 233.274 118.793 252.637 138.137 L 272 157.481 272 130.278 C 272 104.905, 271.856 102.689, 269.854 97.338 C 267.130 90.059, 260.481 82.875, 253.125 79.262 L 247.500 76.500 202.500 76.332 C 177.750 76.239, 155.541 76.561, 153.147 77.047 M 208.564 111.293 C 208.940 112.279, 209.499 112.834, 209.807 112.526 C 210.115 112.219, 209.808 111.412, 209.124 110.733 C 208.136 109.753, 208.022 109.868, 208.564 111.293 M 196 144 C 194.900 145.100, 194 147.125, 194 148.500 C 194 151.401, 197.199 155, 199.777 155 C 205.539 155, 208.406 146.798, 203.777 143.557 C 200.786 141.462, 198.403 141.597, 196 144 M 189 156.559 C 189 157.416, 189.457 157.835, 190.016 157.490 C 190.575 157.144, 190.774 156.443, 190.457 155.931 C 189.600 154.544, 189 154.802, 189 156.559" stroke="none" fill="black" fill-rule="evenodd"/>
</svg>