<svg xmlns="http://www.w3.org/2000/svg" width="400" height="300" viewBox="0 0 400 300" version="1.1">
	<path d="M 152.734 77.064 C 143.494 79.299, 135.106 86.088, 130.812 94.807 C 128.508 99.484, 128.499 99.661, 128.221 146.906 C 127.910 199.874, 127.852 199.331, 134.791 208.500 C 137.543 212.136, 140.447 214.455, 145.435 217 L 152.294 220.500 199.010 220.787 C 244.182 221.065, 245.910 221.006, 251.260 219.004 C 258.905 216.144, 265.258 210.253, 269.087 202.474 C 273.144 194.233, 273.339 190.391, 272.299 139 C 271.521 100.560, 271.438 99.374, 269.188 94.807 C 265.973 88.279, 259.830 82.281, 253.155 79.151 L 247.500 76.500 202 76.327 C 176.975 76.232, 154.806 76.564, 152.734 77.064 M 189.459 104.395 C 176.408 107.566, 165.321 116.524, 159.253 128.803 C 155.541 136.314, 155.500 136.528, 155.500 148.500 C 155.500 160.476, 155.540 160.684, 159.259 168.210 C 173.021 196.055, 210.372 202.225, 231.866 180.203 C 249.703 161.929, 249.387 134.198, 231.134 115.987 C 220.242 105.120, 204.499 100.741, 189.459 104.395 M 198.250 112.250 C 198.479 112.938, 199.267 113.500, 200 113.500 C 200.733 113.500, 201.521 112.938, 201.750 112.250 C 201.998 111.506, 201.289 111, 200 111 C 198.711 111, 198.002 111.506, 198.250 112.250 M 208.500 137 C 204.680 140.850, 200.844 144, 199.977 144 C 199.110 144, 197.972 144.425, 197.450 144.945 C 196.928 145.465, 193.800 146.027, 190.500 146.195 C 185.268 146.461, 184.500 146.756, 184.500 148.500 C 184.500 150.230, 185.266 150.540, 190.167 150.797 C 193.284 150.961, 196.304 151.661, 196.878 152.353 C 197.453 153.046, 198.053 158.087, 198.211 163.556 C 198.445 171.600, 198.787 173.500, 200 173.500 C 201.210 173.500, 201.551 171.661, 201.763 164 C 202.085 152.376, 203.158 149.969, 212.360 140.239 C 218.088 134.184, 219.022 132.732, 217.991 131.489 C 217.311 130.670, 216.461 130, 216.101 130 C 215.741 130, 212.320 133.150, 208.500 137 M 234.336 147.567 C 233.502 149.739, 235.618 151.782, 237.133 150.267 C 238.413 148.987, 237.620 146, 236 146 C 235.415 146, 234.667 146.705, 234.336 147.567 M 162 148.500 C 162 149.530, 162.655 150.020, 163.750 149.810 C 165.858 149.404, 165.725 147.629, 163.553 147.177 C 162.647 146.988, 162 147.539, 162 148.500 M 198.190 184.750 C 198.376 185.713, 199.190 186.500, 200 186.500 C 200.810 186.500, 201.624 185.713, 201.810 184.750 C 202.046 183.522, 201.506 183, 200 183 C 198.494 183, 197.954 183.522, 198.190 184.750" stroke="none" fill="black" fill-rule="evenodd"/>
</svg>