<svg xmlns="http://www.w3.org/2000/svg" width="32" height="16" viewBox="0 0 32 16" version="1.1">
	<path d="M -0 8.047 L -0 16.093 16.250 15.797 L 32.500 15.500 32.792 7.750 L 33.084 0 16.542 0 L 0 0 -0 8.047 M 0.301 8.500 C 0.348 13.909, 0.488 14.816, 0.735 11.301 C 1.023 7.214, 1.518 5.970, 3.050 5.484 C 4.123 5.144, 5 4.415, 5 3.865 C 5 3.315, 4.137 3.139, 3.081 3.474 C 1.749 3.897, 1.020 3.535, 0.697 2.292 C 0.441 1.306, 0.263 4.100, 0.301 8.500 M 24 3.059 C 24 3.641, 24.450 3.840, 25 3.500 C 25.550 3.160, 26 2.684, 26 2.441 C 26 2.198, 25.550 2, 25 2 C 24.450 2, 24 2.477, 24 3.059 M 9.565 3.895 C 9.260 4.388, 9.669 5.043, 10.474 5.352 C 12.036 5.951, 13.371 4.704, 12.306 3.639 C 11.402 2.735, 10.213 2.846, 9.565 3.895 M 17.872 4.750 C 16.603 6.369, 16.650 6.390, 18.500 5.033 C 19.600 4.226, 20.688 3.439, 20.917 3.283 C 21.146 3.127, 20.863 3, 20.289 3 C 19.715 3, 18.627 3.788, 17.872 4.750 M 26.507 3.989 C 26.157 4.555, 26.558 4.723, 27.448 4.382 C 29.180 3.717, 29.497 3, 28.059 3 C 27.541 3, 26.843 3.445, 26.507 3.989 M 30.149 6.664 C 28.548 8.403, 28.997 9.238, 30.901 8.061 C 31.639 7.605, 32.076 6.774, 31.872 6.214 C 31.657 5.626, 30.931 5.815, 30.149 6.664 M 19.557 8.223 C 17.273 11.483, 17.656 12.706, 20.020 9.702 C 21.131 8.289, 23.043 6.940, 24.270 6.703 C 26.197 6.331, 26.134 6.254, 23.807 6.136 C 22.051 6.047, 20.571 6.774, 19.557 8.223 M 4.384 8.442 C 3.210 11.500, 4.447 13.500, 7.514 13.500 C 10.146 13.500, 10.500 13.154, 10.500 10.583 C 10.500 8.979, 9.938 7.479, 9.250 7.250 C 8.533 7.011, 8 7.670, 8 8.794 C 8 9.873, 7.213 11.351, 6.250 12.079 C 4.761 13.206, 4.687 13.194, 5.750 12.002 C 7.260 10.308, 7.405 7, 5.969 7 C 5.401 7, 4.688 7.649, 4.384 8.442 M 24.116 9.550 C 24.052 10.678, 23.552 12.142, 23.004 12.804 C 22.456 13.466, 22.724 13.384, 23.600 12.622 C 24.476 11.860, 24.976 10.396, 24.712 9.368 C 24.279 7.684, 24.221 7.702, 24.116 9.550 M 29.334 12.573 C 28.704 13.908, 28.566 15, 29.027 15 C 29.896 15, 31.451 11.118, 30.831 10.497 C 30.637 10.304, 29.964 11.238, 29.334 12.573" stroke="none" fill="black" fill-rule="evenodd"/>
</svg>