<svg xmlns="http://www.w3.org/2000/svg" width="32" height="16" viewBox="0 0 32 16" version="1.1">
	<path d="M 0.212 3.250 C 0.256 5.038, 0.788 6.831, 1.395 7.235 C 2.124 7.719, 2.141 7.975, 1.446 7.985 C 0.866 7.993, 0.284 9.821, 0.152 12.047 L -0.087 16.095 16.207 15.797 L 32.500 15.500 32.608 11.291 C 32.706 7.484, 32.539 7.176, 30.858 8.076 C 29.836 8.623, 29 8.797, 29 8.464 C 29 7.398, 31.740 5.074, 32.317 5.650 C 32.622 5.956, 32.832 4.809, 32.784 3.103 L 32.696 0 22.907 -0 C 17.460 -0, 12.844 0.444, 12.500 1 C 12.160 1.550, 11.432 2, 10.882 2 C 10.332 2, 10.160 1.550, 10.500 1 C 10.840 0.450, 10.593 0, 9.952 0 C 9.311 0, 9.031 0.638, 9.330 1.417 C 9.914 2.941, 8.253 3.969, 6.306 3.288 C 5.650 3.059, 5.360 2.225, 5.663 1.435 C 5.966 0.646, 5.689 0, 5.048 0 C 4.407 0, 4.160 0.450, 4.500 1 C 4.840 1.550, 4.668 2, 4.118 2 C 3.568 2, 2.840 1.550, 2.500 1 C 1.254 -1.016, 0.136 0.085, 0.212 3.250 M 28 3.089 C 25.846 4.851, 25.804 4.986, 27.694 4.062 C 28.901 3.472, 30.165 2.542, 30.503 1.995 C 31.406 0.534, 30.800 0.799, 28 3.089 M 1.750 3.689 C 0.788 3.941, 0 4.779, 0 5.552 C 0 6.688, 0.479 6.739, 2.500 5.818 C 3.875 5.192, 5 4.301, 5 3.839 C 5 2.959, 4.612 2.941, 1.750 3.689 M 9.565 3.895 C 9.260 4.388, 9.669 5.043, 10.474 5.352 C 12.036 5.951, 13.371 4.704, 12.306 3.639 C 11.402 2.735, 10.213 2.846, 9.565 3.895 M 17.872 4.750 C 16.603 6.369, 16.650 6.390, 18.500 5.033 C 19.600 4.226, 20.688 3.439, 20.917 3.283 C 21.146 3.127, 20.863 3, 20.289 3 C 19.715 3, 18.627 3.788, 17.872 4.750 M 19.557 8.223 C 17.273 11.483, 17.656 12.706, 20.020 9.702 C 21.131 8.289, 23.043 6.940, 24.270 6.703 C 26.197 6.331, 26.134 6.254, 23.807 6.136 C 22.051 6.047, 20.571 6.774, 19.557 8.223 M 4.384 8.442 C 3.210 11.500, 4.447 13.500, 7.514 13.500 C 10.146 13.500, 10.500 13.154, 10.500 10.583 C 10.500 8.979, 9.938 7.479, 9.250 7.250 C 8.517 7.006, 8 7.694, 8 8.917 C 8 10.264, 7.382 10.972, 6.250 10.921 C 5.205 10.874, 5.003 10.639, 5.750 10.338 C 7.252 9.732, 7.431 7, 5.969 7 C 5.401 7, 4.688 7.649, 4.384 8.442 M 24.116 9.550 C 24.052 10.678, 23.552 12.142, 23.004 12.804 C 22.456 13.466, 22.724 13.384, 23.600 12.622 C 24.476 11.860, 24.976 10.396, 24.712 9.368 C 24.279 7.684, 24.221 7.702, 24.116 9.550 M 0.232 13 C 0.232 14.925, 0.438 15.713, 0.689 14.750 C 0.941 13.787, 0.941 12.213, 0.689 11.250 C 0.438 10.287, 0.232 11.075, 0.232 13 M 29.334 12.573 C 28.704 13.908, 28.566 15, 29.027 15 C 29.896 15, 31.451 11.118, 30.831 10.497 C 30.637 10.304, 29.964 11.238, 29.334 12.573" stroke="none" fill="black" fill-rule="evenodd"/>
</svg>