<svg xmlns="http://www.w3.org/2000/svg" width="32" height="16" viewBox="0 0 32 16" version="1.1">
	<path d="M 0 8.025 L 0 16.050 16.250 15.775 L 32.500 15.500 32.792 7.750 L 33.084 0 16.542 0 L 0 0 0 8.025 M 0.343 8.500 C 0.346 12.900, 0.522 14.576, 0.733 12.224 C 0.945 9.872, 0.942 6.272, 0.727 4.224 C 0.512 2.176, 0.339 4.100, 0.343 8.500 M 18.250 3.689 C 19.212 3.941, 20.788 3.941, 21.750 3.689 C 22.712 3.438, 21.925 3.232, 20 3.232 C 18.075 3.232, 17.288 3.438, 18.250 3.689 M 24.180 8.250 L 24.360 13.500 24.733 8.809 C 25.084 4.379, 25.282 4.097, 28.302 3.719 C 31.386 3.334, 31.367 3.314, 27.750 3.160 L 24 3 24.180 8.250 M 20.500 6 C 20.160 6.550, 20.359 7, 20.941 7 C 21.523 7, 22 6.550, 22 6 C 22 5.450, 21.802 5, 21.559 5 C 21.316 5, 20.840 5.450, 20.500 6 M 29.500 6 C 29.160 6.550, 29.359 7, 29.941 7 C 30.523 7, 31 6.550, 31 6 C 31 5.450, 30.802 5, 30.559 5 C 30.316 5, 29.840 5.450, 29.500 6 M 29 9.059 C 29 9.641, 29.450 9.840, 30 9.500 C 30.550 9.160, 31 8.684, 31 8.441 C 31 8.198, 30.550 8, 30 8 C 29.450 8, 29 8.477, 29 9.059 M 18 12.059 C 18 12.641, 18.450 12.840, 19 12.500 C 19.550 12.160, 20 11.684, 20 11.441 C 20 11.198, 19.550 11, 19 11 C 18.450 11, 18 11.477, 18 12.059 M 27 12.059 C 27 12.641, 27.450 12.840, 28 12.500 C 28.550 12.160, 29 11.684, 29 11.441 C 29 11.198, 28.550 11, 28 11 C 27.450 11, 27 11.477, 27 12.059" stroke="none" fill="black" fill-rule="evenodd"/>
</svg>