<svg xmlns="http://www.w3.org/2000/svg" width="32" height="16" viewBox="0 0 32 16" version="1.1">
	<path d="M 0 8 L 0 16 11.500 16 C 20.815 16, 23 15.728, 23 14.567 C 23 13.779, 23.872 12.858, 24.938 12.520 C 26.053 12.166, 27.051 10.757, 27.288 9.202 L 27.700 6.500 27.850 9.215 C 27.949 11.010, 27.323 12.292, 26 13 C 22.645 14.796, 23.718 16.135, 28.250 15.807 L 32.500 15.500 32.792 7.750 L 33.084 0 16.542 0 L 0 0 0 8 M 0.343 8.500 C 0.346 12.900, 0.522 14.576, 0.733 12.224 C 0.945 9.872, 0.942 6.272, 0.727 4.224 C 0.512 2.176, 0.339 4.100, 0.343 8.500 M 27.184 3.496 C 26.556 4.873, 26.453 6, 26.954 6 C 27.938 6, 29.460 2.127, 28.754 1.420 C 28.518 1.185, 27.811 2.118, 27.184 3.496 M 6.250 3.689 C 7.213 3.941, 8.787 3.941, 9.750 3.689 C 10.713 3.438, 9.925 3.232, 8 3.232 C 6.075 3.232, 5.287 3.438, 6.250 3.689 M 21.250 3.689 C 22.212 3.941, 23.788 3.941, 24.750 3.689 C 25.712 3.438, 24.925 3.232, 23 3.232 C 21.075 3.232, 20.288 3.438, 21.250 3.689 M 4.713 5.621 C 4.321 6.013, 4.007 7.046, 4.015 7.917 C 4.029 9.304, 4.151 9.314, 5 8 C 5.713 6.896, 6.016 7.688, 6.145 11 C 6.307 15.160, 6.354 15.235, 6.774 12 C 7.156 9.051, 7.356 8.815, 8.043 10.500 L 8.859 12.500 8.945 10.500 C 9.017 8.820, 9.194 8.740, 10.052 10 C 10.837 11.152, 11.007 10.803, 10.787 8.500 C 10.560 6.126, 9.970 5.438, 7.963 5.204 C 6.567 5.041, 5.104 5.229, 4.713 5.621 M 19.607 6.582 C 18.651 9.073, 18.892 9.521, 20.250 7.775 C 20.938 6.892, 22.400 5.958, 23.500 5.700 C 25.053 5.337, 24.910 5.206, 22.857 5.116 C 21.288 5.047, 19.967 5.643, 19.607 6.582 M 21.252 11.500 C 21.263 13.700, 21.468 14.482, 21.707 13.238 C 21.946 11.994, 21.937 10.194, 21.687 9.238 C 21.437 8.282, 21.241 9.300, 21.252 11.500" stroke="none" fill="black" fill-rule="evenodd"/>
</svg>