<svg xmlns="http://www.w3.org/2000/svg" width="32" height="16" viewBox="0 0 32 16" version="1.1">
	<path d="M 0 8 L 0 16 13.500 16 C 26.813 16, 27.001 15.969, 27.070 13.750 C 27.109 12.512, 27.539 10.600, 28.026 9.500 C 28.621 8.156, 28.715 8.924, 28.314 11.838 C 27.744 15.975, 27.827 16.161, 30.108 15.838 C 32.366 15.519, 32.516 15.065, 32.792 7.750 L 33.084 0 16.542 0 L 0 0 0 8 M 0.343 8.500 C 0.346 12.900, 0.522 14.576, 0.733 12.224 C 0.945 9.872, 0.942 6.272, 0.727 4.224 C 0.512 2.176, 0.339 4.100, 0.343 8.500 M 9.104 4 C 8.899 6.929, 8.719 7.174, 8 5.500 L 7.141 3.500 7.055 5.500 C 6.983 7.180, 6.806 7.260, 5.948 6 C 5.163 4.848, 4.993 5.197, 5.213 7.500 C 5.462 10.100, 5.899 10.500, 8.486 10.500 C 10.700 10.500, 11.555 9.983, 11.790 8.500 C 12.043 6.908, 11.906 6.796, 11.121 7.950 C 10.386 9.030, 10.034 8.264, 9.742 4.950 C 9.387 0.928, 9.326 0.837, 9.104 4 M 24.232 5 C 24.232 6.925, 24.438 7.713, 24.689 6.750 C 24.941 5.787, 24.941 4.213, 24.689 3.250 C 24.438 2.288, 24.232 3.075, 24.232 5 M 26.158 4 C 26.158 5.375, 26.385 5.938, 26.662 5.250 C 26.940 4.563, 26.940 3.438, 26.662 2.750 C 26.385 2.063, 26.158 2.625, 26.158 4 M 22.079 6.583 C 22.127 7.748, 22.364 7.985, 22.683 7.188 C 22.972 6.466, 22.936 5.603, 22.604 5.271 C 22.272 4.939, 22.036 5.529, 22.079 6.583 M 20.158 8 C 20.158 9.375, 20.385 9.938, 20.662 9.250 C 20.940 8.563, 20.940 7.438, 20.662 6.750 C 20.385 6.063, 20.158 6.625, 20.158 8 M 26.079 8.583 C 26.127 9.748, 26.364 9.985, 26.683 9.188 C 26.972 8.466, 26.936 7.603, 26.604 7.271 C 26.272 6.939, 26.036 7.529, 26.079 8.583 M 6.250 12.689 C 7.213 12.941, 8.787 12.941, 9.750 12.689 C 10.713 12.438, 9.925 12.232, 8 12.232 C 6.075 12.232, 5.287 12.438, 6.250 12.689 M 21.250 12.689 C 22.212 12.941, 23.788 12.941, 24.750 12.689 C 25.712 12.438, 24.925 12.232, 23 12.232 C 21.075 12.232, 20.288 12.438, 21.250 12.689" stroke="none" fill="black" fill-rule="evenodd"/>
</svg>