<svg xmlns="http://www.w3.org/2000/svg" width="32" height="16" viewBox="0 0 32 16" version="1.1">
	<path d="M 0 8.025 L 0 16.050 16.250 15.775 L 32.500 15.500 32.792 7.750 L 33.084 0 16.542 0 L 0 0 0 8.025 M 0.343 8.500 C 0.346 12.900, 0.522 14.576, 0.733 12.224 C 0.945 9.872, 0.942 6.272, 0.727 4.224 C 0.512 2.176, 0.339 4.100, 0.343 8.500 M 18.500 6 C 19.495 7.100, 20.535 8, 20.810 8 C 21.085 8, 20.495 7.100, 19.500 6 C 18.505 4.900, 17.465 4, 17.190 4 C 16.915 4, 17.505 4.900, 18.500 6 M 22.459 7.067 C 21.433 8.727, 22.354 8.957, 23.789 7.399 C 24.499 6.630, 24.638 6, 24.098 6 C 23.559 6, 22.821 6.480, 22.459 7.067 M 24 12.500 C 28.932 15.141, 31 15.567, 31 13.941 C 31 13.359, 30.565 13.151, 30.034 13.479 C 29.503 13.807, 27.271 13.159, 25.074 12.038 C 19.462 9.175, 18.535 9.574, 24 12.500" stroke="none" fill="black" fill-rule="evenodd"/>
</svg>