<svg xmlns="http://www.w3.org/2000/svg" width="32" height="16" viewBox="0 0 32 16" version="1.1">
	<path d="M 0 8.025 L 0 16.050 16.250 15.775 L 32.500 15.500 32.792 7.750 L 33.084 0 16.542 0 L 0 0 0 8.025 M 0 8.500 C 0 12.808, 0.291 16.043, 0.646 15.688 C 1.360 14.973, 1.193 1.860, 0.461 1.127 C 0.207 0.874, 0 4.192, 0 8.500 M 5.384 6.442 C 4.247 9.406, 5.468 11.495, 8.509 11.787 C 10.806 12.007, 11.152 11.837, 10 11.052 C 8.740 10.194, 8.820 10.017, 10.500 9.945 L 12.500 9.859 10.500 9.043 C 8.815 8.356, 9.051 8.156, 12 7.774 C 15.235 7.354, 15.160 7.307, 11 7.145 C 7.688 7.016, 6.896 6.713, 8 6 C 9.276 5.175, 9.235 5.028, 7.719 5.015 C 6.739 5.007, 5.688 5.649, 5.384 6.442 M 22.250 5.662 C 21.563 5.940, 21.052 7.367, 21.116 8.833 C 21.205 10.887, 21.340 11.040, 21.700 9.500 C 21.958 8.400, 22.892 6.938, 23.775 6.250 C 25.379 5.002, 24.615 4.708, 22.250 5.662 M 3.232 9 C 3.232 10.925, 3.438 11.713, 3.689 10.750 C 3.941 9.787, 3.941 8.213, 3.689 7.250 C 3.438 6.287, 3.232 7.075, 3.232 9 M 19.232 9 C 19.232 10.925, 19.438 11.713, 19.689 10.750 C 19.941 9.787, 19.941 8.213, 19.689 7.250 C 19.438 6.287, 19.232 7.075, 19.232 9 M 25.762 7.707 C 27.006 7.946, 28.806 7.937, 29.762 7.687 C 30.718 7.437, 29.700 7.241, 27.500 7.252 C 25.300 7.263, 24.518 7.468, 25.762 7.707 M 28.500 11 C 28.091 12.289, 26.912 13.048, 25.183 13.136 C 22.735 13.260, 22.703 13.311, 24.813 13.714 C 26.395 14.016, 27.882 13.340, 29.515 11.578 C 31.103 9.865, 31.440 9, 30.520 9 C 29.758 9, 28.849 9.900, 28.500 11 M 18.998 13.546 C 17.550 14.348, 17.130 14.938, 18 14.949 C 19.786 14.973, 22.642 13.309, 21.970 12.636 C 21.710 12.376, 20.373 12.786, 18.998 13.546" stroke="none" fill="black" fill-rule="evenodd"/>
</svg>