<svg xmlns="http://www.w3.org/2000/svg" width="32" height="16" viewBox="0 0 32 16" version="1.1">
	<path d="M 0 8 L 0 16 12.500 16 L 25 16 25 13.117 C 25 11.074, 25.583 10.081, 27 9.710 C 28.100 9.423, 29 9.595, 29 10.094 C 29 10.592, 28.325 11, 27.500 11 C 26.557 11, 26 11.951, 26 13.563 C 26 15.853, 26.347 16.093, 29.250 15.813 L 32.500 15.500 32.792 7.750 L 33.084 0 16.542 0 L 0 0 0 8 M 0.343 8.500 C 0.346 12.900, 0.522 14.576, 0.733 12.224 C 0.945 9.872, 0.942 6.272, 0.727 4.224 C 0.512 2.176, 0.339 4.100, 0.343 8.500 M 22.162 5.543 C 20.487 9.220, 20.807 10.005, 22.618 6.662 C 23.464 5.100, 23.969 3.636, 23.741 3.407 C 23.512 3.179, 22.802 4.140, 22.162 5.543 M 23.195 12.500 C 23.215 14.150, 23.439 14.704, 23.693 13.731 C 23.947 12.758, 23.930 11.408, 23.656 10.731 C 23.382 10.054, 23.175 10.850, 23.195 12.500" stroke="none" fill="black" fill-rule="evenodd"/>
</svg>