<svg xmlns="http://www.w3.org/2000/svg" width="32" height="16" viewBox="0 0 32 16" version="1.1">
	<path d="M 0 8.025 L 0 16.050 16.250 15.775 L 32.500 15.500 32.792 7.750 L 33.084 0 16.542 0 L 0 0 0 8.025 M 0.343 8.500 C 0.346 12.900, 0.522 14.576, 0.733 12.224 C 0.945 9.872, 0.942 6.272, 0.727 4.224 C 0.512 2.176, 0.339 4.100, 0.343 8.500 M 25.924 4.750 L 23.500 7.500 26.250 5.076 C 27.762 3.742, 29 2.505, 29 2.326 C 29 1.541, 28.190 2.180, 25.924 4.750 M 28.086 5.382 L 25.672 8.500 28.533 5.780 C 30.106 4.284, 31.193 2.881, 30.947 2.662 C 30.701 2.443, 29.414 3.667, 28.086 5.382 M 20.695 8.513 C 19.781 10.431, 19.239 12, 19.490 12 C 20.175 12, 23.210 5.877, 22.753 5.420 C 22.536 5.203, 21.610 6.594, 20.695 8.513 M 22 12.500 C 16.098 15.660, 17.371 15.666, 24.151 12.510 C 27.093 11.140, 28.825 10.035, 28 10.055 C 27.175 10.074, 24.475 11.175, 22 12.500" stroke="none" fill="black" fill-rule="evenodd"/>
</svg>