<svg xmlns="http://www.w3.org/2000/svg" width="32" height="16" viewBox="0 0 32 16" version="1.1">
	<path d="M 0 8.025 L 0 16.050 16.250 15.775 L 32.500 15.500 32.792 7.750 L 33.084 0 16.542 0 L 0 0 0 8.025 M 0.343 8.500 C 0.346 12.900, 0.522 14.576, 0.733 12.224 C 0.945 9.872, 0.942 6.272, 0.727 4.224 C 0.512 2.176, 0.339 4.100, 0.343 8.500 M 21 7.500 C 19.625 8.286, 18.950 8.929, 19.500 8.929 C 20.050 8.929, 21.625 8.286, 23 7.500 C 24.375 6.714, 25.050 6.071, 24.500 6.071 C 23.950 6.071, 22.375 6.714, 21 7.500 M 27.269 8.693 C 28.242 8.947, 29.592 8.930, 30.269 8.656 C 30.946 8.382, 30.150 8.175, 28.500 8.195 C 26.850 8.215, 26.296 8.439, 27.269 8.693 M 25.710 12 C 25.423 13.100, 25.595 14, 26.094 14 C 26.592 14, 27 13.355, 27 12.566 C 27 11.770, 28.223 10.948, 29.750 10.716 C 32.403 10.314, 32.389 10.294, 29.367 10.150 C 27.002 10.037, 26.105 10.490, 25.710 12" stroke="none" fill="black" fill-rule="evenodd"/>
</svg>