<svg xmlns="http://www.w3.org/2000/svg" width="32" height="16" viewBox="0 0 32 16" version="1.1">
	<path d="M 0 8.025 L 0 16.050 16.250 15.775 L 32.500 15.500 32.792 7.750 L 33.084 0 16.542 0 L 0 0 0 8.025 M 0.343 8.500 C 0.346 12.900, 0.522 14.576, 0.733 12.224 C 0.945 9.872, 0.942 6.272, 0.727 4.224 C 0.512 2.176, 0.339 4.100, 0.343 8.500 M 28.189 6.549 C 26.985 9.026, 26.004 11.604, 26.010 12.277 C 26.015 12.950, 27.150 11.072, 28.531 8.105 C 29.912 5.137, 30.893 2.560, 30.710 2.377 C 30.527 2.194, 29.392 4.071, 28.189 6.549 M 24 5 C 22.075 6.054, 20.860 6.935, 21.300 6.958 C 22.359 7.014, 28 4.081, 28 3.474 C 28 2.820, 27.941 2.842, 24 5 M 19.924 10.750 L 17.500 13.500 20.250 11.076 C 21.762 9.742, 23 8.505, 23 8.326 C 23 7.541, 22.190 8.180, 19.924 10.750 M 20.694 12.532 C 19.151 13.889, 18.285 15, 18.770 15 C 19.255 15, 20.708 13.875, 22 12.500 C 24.989 9.319, 24.328 9.335, 20.694 12.532" stroke="none" fill="black" fill-rule="evenodd"/>
</svg>