<svg xmlns="http://www.w3.org/2000/svg" width="32" height="16" viewBox="0 0 32 16" version="1.1">
	<path d="M 0 8 L 0 16 11.981 16 L 23.962 16 26.434 11.250 C 27.794 8.637, 28.928 6.855, 28.953 7.290 C 28.979 7.724, 28.076 9.890, 26.947 12.103 L 24.895 16.127 28.697 15.814 L 32.500 15.500 32.792 7.750 L 33.084 0 16.542 0 L 0 0 0 8 M 0.343 8.500 C 0.346 12.900, 0.522 14.576, 0.733 12.224 C 0.945 9.872, 0.942 6.272, 0.727 4.224 C 0.512 2.176, 0.339 4.100, 0.343 8.500 M 23 3.927 C 23 5.873, 22.414 7.007, 21.250 7.311 C 19.933 7.655, 20.057 7.797, 21.750 7.884 C 23.677 7.983, 24 7.497, 24 4.500 C 24 2.575, 23.775 1, 23.500 1 C 23.225 1, 23 2.317, 23 3.927 M 25.195 3.500 C 25.215 5.150, 25.439 5.704, 25.693 4.731 C 25.947 3.758, 25.930 2.408, 25.656 1.731 C 25.382 1.054, 25.175 1.850, 25.195 3.500" stroke="none" fill="black" fill-rule="evenodd"/>
</svg>