<svg xmlns="http://www.w3.org/2000/svg" width="32" height="16" viewBox="0 0 32 16" version="1.1">
	<path d="M 0 8.025 L 0 16.050 16.250 15.775 L 32.500 15.500 32.792 7.750 L 33.084 0 16.542 0 L 0 0 0 8.025 M 0.343 8.500 C 0.346 12.900, 0.522 14.576, 0.733 12.224 C 0.945 9.872, 0.942 6.272, 0.727 4.224 C 0.512 2.176, 0.339 4.100, 0.343 8.500 M 23 5.437 C 23 6.308, 21.721 7.032, 19.750 7.277 C 16.550 7.674, 16.558 7.682, 20.250 7.840 C 23.387 7.974, 24 7.673, 24 6 C 24 4.900, 23.775 4, 23.500 4 C 23.225 4, 23 4.646, 23 5.437 M 27 10.500 C 24.525 11.825, 22.855 12.930, 23.290 12.955 C 24.352 13.016, 32 9.086, 32 8.480 C 32 7.817, 32.041 7.800, 27 10.500 M 18.269 9.693 C 19.242 9.947, 20.592 9.930, 21.269 9.656 C 21.946 9.382, 21.150 9.175, 19.500 9.195 C 17.850 9.215, 17.296 9.439, 18.269 9.693" stroke="none" fill="black" fill-rule="evenodd"/>
</svg>