<svg xmlns="http://www.w3.org/2000/svg" width="32" height="16" viewBox="0 0 32 16" version="1.1">
	<path d="M 0 8.025 L 0 16.050 16.250 15.775 L 32.500 15.500 32.792 7.750 L 33.084 0 16.542 0 L 0 0 0 8.025 M 0.335 8.500 C 0.343 12.900, 0.522 14.588, 0.732 12.250 C 1.097 8.200, 1.265 8.003, 4.307 8.070 C 6.998 8.130, 7.186 8.276, 5.500 9 L 3.500 9.859 5.500 9.945 C 7.180 10.017, 7.260 10.194, 6 11.052 C 4.848 11.837, 5.197 12.007, 7.500 11.787 C 10.100 11.538, 10.500 11.101, 10.500 8.514 C 10.500 6.300, 9.983 5.445, 8.500 5.210 C 6.850 4.948, 6.763 5.074, 8 5.931 C 9.144 6.723, 8.507 6.973, 5.313 6.985 C 1.335 6.999, 1.107 6.838, 0.723 3.750 C 0.502 1.963, 0.327 4.100, 0.335 8.500 M 12.232 9 C 12.232 10.925, 12.438 11.713, 12.689 10.750 C 12.941 9.787, 12.941 8.213, 12.689 7.250 C 12.438 6.287, 12.232 7.075, 12.232 9 M 28.232 9 C 28.232 10.925, 28.438 11.713, 28.689 10.750 C 28.941 9.787, 28.941 8.213, 28.689 7.250 C 28.438 6.287, 28.232 7.075, 28.232 9 M 19.750 7.706 C 20.988 7.944, 23.012 7.944, 24.250 7.706 C 25.488 7.467, 24.475 7.272, 22 7.272 C 19.525 7.272, 18.512 7.467, 19.750 7.706 M 20.750 9.662 C 21.438 9.940, 22.563 9.940, 23.250 9.662 C 23.938 9.385, 23.375 9.158, 22 9.158 C 20.625 9.158, 20.063 9.385, 20.750 9.662 M 21.813 11.683 C 22.534 11.972, 23.397 11.936, 23.729 11.604 C 24.061 11.272, 23.471 11.036, 22.417 11.079 C 21.252 11.127, 21.015 11.364, 21.813 11.683 M 23.269 13.693 C 24.242 13.947, 25.592 13.930, 26.269 13.656 C 26.946 13.382, 26.150 13.175, 24.500 13.195 C 22.850 13.215, 22.296 13.439, 23.269 13.693" stroke="none" fill="black" fill-rule="evenodd"/>
</svg>