<svg xmlns="http://www.w3.org/2000/svg" width="32" height="16" viewBox="0 0 32 16" version="1.1">
	<path d="M 0 8.078 L 0 16.155 16.250 15.828 L 32.500 15.500 32.792 7.750 L 33.084 0 16.542 0 L 0 0 0 8.078 M 0.343 8.500 C 0.346 12.900, 0.522 14.576, 0.733 12.224 C 0.945 9.872, 0.942 6.272, 0.727 4.224 C 0.512 2.176, 0.339 4.100, 0.343 8.500 M 18.634 4.489 C 18.951 5.314, 19.532 5.789, 19.925 5.546 C 20.319 5.303, 22.007 5.934, 23.677 6.950 C 25.734 8.201, 27.162 8.493, 28.106 7.856 C 29.268 7.073, 29.250 6.957, 28 7.158 C 27.175 7.291, 24.601 6.407, 22.279 5.194 C 19.071 3.518, 18.197 3.349, 18.634 4.489 M 22.459 12.067 C 22.096 12.653, 22.070 13.403, 22.400 13.733 C 22.730 14.063, 23 13.739, 23 13.012 C 23 12.089, 23.679 12.265, 25.250 13.595 L 27.500 15.500 25.595 13.250 C 23.404 10.662, 23.341 10.639, 22.459 12.067" stroke="none" fill="black" fill-rule="evenodd"/>
</svg>