<svg xmlns="http://www.w3.org/2000/svg" width="160" height="160" viewBox="0 0 160 160" version="1.1">
	<path d="M 65.792 32.033 C 64.852 32.594, 59.286 41.537, 53.422 51.907 L 42.760 70.762 30.880 71.186 C 16.518 71.698, 13.695 73.075, 13.194 79.812 C 12.757 85.693, 24.659 142.510, 27.352 147.401 C 31.647 155.200, 30.734 155.075, 81.195 154.770 L 125.890 154.500 129.378 151.119 C 131.297 149.259, 133.342 146.559, 133.923 145.119 C 135.959 140.072, 147.077 83.461, 146.790 79.600 C 146.573 76.678, 145.792 75.173, 143.677 73.600 C 141.245 71.790, 139.155 71.452, 128.555 71.151 L 116.255 70.801 106.967 54.151 C 95.160 32.983, 93.708 31, 90.022 31 C 87.196 31, 83 34.817, 83 37.388 C 83 38.003, 87.024 45.705, 91.942 54.503 L 100.884 70.500 90.497 70.783 C 84.785 70.939, 75.153 70.939, 69.093 70.783 L 58.075 70.500 66.549 55.500 C 71.209 47.250, 75.290 39.658, 75.617 38.630 C 77.017 34.225, 70.006 29.517, 65.792 32.033 M 27.655 86.829 C 25.770 88.912, 25.520 92.234, 27.035 95.066 C 28.038 96.940, 29.682 97, 80 97 C 130.318 97, 131.962 96.940, 132.965 95.066 C 134.545 92.114, 134.203 88.494, 132.171 86.655 C 130.520 85.161, 125.429 85, 79.826 85 C 32.157 85, 29.217 85.103, 27.655 86.829 M 32.655 108.829 C 30.770 110.912, 30.520 114.234, 32.035 117.066 C 33.036 118.936, 34.626 119, 80 119 C 125.374 119, 126.964 118.936, 127.965 117.066 C 129.545 114.114, 129.203 110.494, 127.171 108.655 C 125.526 107.166, 120.776 107, 79.826 107 C 37.001 107, 34.212 107.108, 32.655 108.829 M 37.655 130.829 C 35.770 132.912, 35.520 136.234, 37.035 139.066 C 38.033 140.931, 39.569 141, 80 141 C 120.431 141, 121.967 140.931, 122.965 139.066 C 124.545 136.114, 124.203 132.494, 122.171 130.655 C 120.533 129.172, 116.124 129, 79.826 129 C 41.845 129, 39.206 129.114, 37.655 130.829" stroke="none" fill="black" fill-rule="evenodd"/>
</svg>