<svg xmlns="http://www.w3.org/2000/svg" width="32" height="16" viewBox="0 0 32 16" version="1.1">
	<path d="M 0 8.025 L 0 16.050 16.250 15.775 L 32.500 15.500 32.792 7.750 L 33.084 0 16.542 0 L 0 0 0 8.025 M 0.343 8.500 C 0.346 12.900, 0.522 14.576, 0.733 12.224 C 0.945 9.872, 0.942 6.272, 0.727 4.224 C 0.512 2.176, 0.339 4.100, 0.343 8.500 M 19.946 5.750 L 16.500 9.500 20.250 6.054 C 23.740 2.846, 24.460 2, 23.696 2 C 23.529 2, 21.842 3.688, 19.946 5.750 M 8.072 8.426 C 6.287 10.268, 5.244 12.033, 5.755 12.348 C 6.265 12.664, 8.144 11.415, 9.928 9.574 C 11.713 7.732, 12.756 5.967, 12.245 5.652 C 11.735 5.336, 9.856 6.585, 8.072 8.426 M 24.437 9.250 L 21.500 12.500 24.750 9.563 C 26.538 7.948, 28 6.485, 28 6.313 C 28 5.540, 27.175 6.221, 24.437 9.250 M 26.453 11.250 L 22.500 15.500 26.750 11.547 C 29.087 9.373, 31 7.460, 31 7.297 C 31 6.540, 30.129 7.298, 26.453 11.250" stroke="none" fill="black" fill-rule="evenodd"/>
</svg>