<svg xmlns="http://www.w3.org/2000/svg" width="32" height="16" viewBox="0 0 32 16" version="1.1">
	<path d="M 0 8 L 0 16 11.997 16 L 23.994 16 28.247 12.292 L 32.500 8.584 29 12.365 L 25.500 16.147 29 15.823 L 32.500 15.500 32.792 7.750 L 33.084 0 16.542 0 L 0 0 0 8 M 0.335 8.500 C 0.343 12.900, 0.522 14.571, 0.734 12.213 L 1.119 7.926 4.902 10.923 L 8.686 13.919 11.993 10.507 L 15.301 7.094 12.632 5.878 C 10.227 4.782, 9.642 4.951, 6.731 7.581 L 3.500 10.500 6.409 7.280 C 8.960 4.455, 9.107 3.978, 7.608 3.403 C 6.529 2.989, 5.021 3.571, 3.520 4.981 L 1.143 7.215 0.731 3.857 C 0.505 2.011, 0.327 4.100, 0.335 8.500 M 19.924 5.750 L 17.500 8.500 20.500 6 C 22.150 4.625, 23.688 3.388, 23.917 3.250 C 24.146 3.112, 23.887 3, 23.341 3 C 22.795 3, 21.258 4.237, 19.924 5.750 M 23.437 8.250 L 20.500 11.500 23.995 8.500 C 25.917 6.850, 27.680 5.388, 27.912 5.250 C 28.144 5.112, 27.893 5, 27.354 5 C 26.815 5, 25.052 6.462, 23.437 8.250 M 10.437 10.250 L 7.500 13.500 10.750 10.563 C 12.538 8.948, 14 7.485, 14 7.313 C 14 6.540, 13.175 7.221, 10.437 10.250" stroke="none" fill="black" fill-rule="evenodd"/>
</svg>