<svg xmlns="http://www.w3.org/2000/svg" width="32" height="16" viewBox="0 0 32 16" version="1.1">
	<path d="M 0 8.121 L 0 16 8.941 16 C 13.859 16, 18.160 15.550, 18.500 15 C 18.840 14.450, 20.468 14, 22.118 14 C 24.057 14, 24.876 13.608, 24.434 12.893 C 23.973 12.148, 24.445 12.006, 25.875 12.460 C 29.798 13.705, 28.458 9.332, 24.016 6.392 C 21.825 4.942, 20.274 3.366, 20.568 2.889 C 20.863 2.413, 20.478 2.263, 19.712 2.557 C 18.947 2.851, 17.735 2.386, 17.020 1.524 C 16.019 0.318, 13.903 -0.011, 7.859 0.099 L 0 0.242 0 8.121 M 24.183 2.532 C 26.758 3.873, 29.571 5.977, 30.433 7.208 C 31.950 9.374, 32 9.295, 32 4.723 L 32 0 25.750 0.047 L 19.500 0.093 24.183 2.532 M 22 3.376 C 22 3.610, 23.602 4.748, 25.560 5.903 C 27.518 7.058, 28.840 7.549, 28.497 6.995 C 27.827 5.911, 22 2.665, 22 3.376 M 11 7 C 11 7.550, 11.450 8, 12 8 C 12.550 8, 13 7.550, 13 7 C 13 6.450, 12.550 6, 12 6 C 11.450 6, 11 6.450, 11 7 M 30.362 12.215 C 30.640 13.744, 30.345 15.089, 29.673 15.363 C 29.028 15.627, 29.296 15.878, 30.270 15.921 C 31.645 15.982, 31.933 15.417, 31.564 13.377 C 31.302 11.935, 30.816 10.482, 30.483 10.150 C 30.151 9.817, 30.096 10.746, 30.362 12.215" stroke="none" fill="black" fill-rule="evenodd"/>
</svg>