<svg xmlns="http://www.w3.org/2000/svg" width="32" height="16" viewBox="0 0 32 16" version="1.1">
	<path d="M 0 3.500 C 0 5.425, 0.402 7, 0.893 7 C 2.134 7, 3.147 4.046, 2.349 2.755 C 1.981 2.160, 2.160 1.981, 2.755 2.349 C 4.046 3.147, 7 2.134, 7 0.893 C 7 0.402, 5.425 0, 3.500 0 C 0.167 0, 0 0.167, 0 3.500 M 8 0.893 C 8 2.054, 10.918 3.169, 12.079 2.451 C 12.573 2.146, 12.731 2.536, 12.431 3.319 C 12.131 4.102, 12.518 5.375, 13.292 6.150 C 14.502 7.359, 14.501 7.743, 13.282 8.881 C 12.503 9.609, 12.069 10.738, 12.319 11.388 C 12.569 12.041, 11.928 12.571, 10.886 12.571 C 8.699 12.571, 8.531 11.724, 10.190 9.068 C 12.453 5.443, 7.676 2.275, 4.933 5.581 C 3.903 6.821, 3.877 7.573, 4.810 9.068 C 6.476 11.735, 6.300 12.571, 4.073 12.571 C 3.014 12.571, 2.340 12.258, 2.577 11.876 C 3.196 10.874, 1.948 8, 0.893 8 C 0.402 8, 0 9.800, 0 12 L 0 16 11.810 16 L 23.619 16 27.060 12.023 C 28.952 9.835, 30.860 8.035, 31.301 8.023 C 31.741 8.010, 30.731 9.462, 29.055 11.250 C 27.380 13.038, 26.007 14.838, 26.005 15.250 C 25.997 16.410, 31.798 16.135, 32.537 14.941 C 32.897 14.358, 32.877 10.758, 32.494 6.941 L 31.797 -0 19.899 -0 C 13.354 -0, 8 0.402, 8 0.893 M 20.571 4.571 C 19.707 5.436, 19.014 6.673, 19.030 7.321 C 19.047 7.970, 19.511 7.727, 20.062 6.782 C 20.613 5.837, 21.837 4.613, 22.782 4.062 C 23.727 3.511, 23.970 3.047, 23.321 3.030 C 22.673 3.014, 21.436 3.707, 20.571 4.571 M 5.379 6.454 C 5.073 7.253, 5.463 8.823, 6.248 9.943 C 7.665 11.966, 7.681 11.964, 8.955 9.585 C 9.659 8.268, 9.931 6.698, 9.559 6.095 C 8.589 4.525, 6.035 4.744, 5.379 6.454 M 21.980 6.524 C 20.142 8.739, 21.188 8.994, 23.250 6.833 C 24.212 5.825, 24.605 5, 24.122 5 C 23.640 5, 22.676 5.686, 21.980 6.524 M 7.079 8.583 C 7.127 9.748, 7.364 9.985, 7.683 9.188 C 7.972 8.466, 7.936 7.603, 7.604 7.271 C 7.272 6.939, 7.036 7.529, 7.079 8.583 M 26.237 9.760 C 25.069 12.251, 25.097 12.332, 26.603 10.826 C 27.499 9.930, 28.067 8.717, 27.866 8.131 C 27.665 7.545, 26.931 8.278, 26.237 9.760 M 0.272 12 C 0.272 14.475, 0.467 15.488, 0.706 14.250 C 0.944 13.012, 0.944 10.988, 0.706 9.750 C 0.467 8.512, 0.272 9.525, 0.272 12" stroke="none" fill="black" fill-rule="evenodd"/>
</svg>