<svg xmlns="http://www.w3.org/2000/svg" width="32" height="16" viewBox="0 0 32 16" version="1.1">
	<path d="M 0 8 L 0 16 12.031 16 C 22.605 16, 24.132 15.788, 24.635 14.250 C 25.945 10.241, 27.956 6.596, 27.977 8.191 C 27.990 9.121, 27.550 10.160, 27 10.500 C 26.450 10.840, 26 12.245, 26 13.622 C 26 15.845, 26.365 16.092, 29.250 15.813 L 32.500 15.500 32.792 7.750 L 33.084 0 16.542 0 L 0 0 0 8 M 0.343 8.500 C 0.346 12.900, 0.522 14.576, 0.733 12.224 C 0.945 9.872, 0.942 6.272, 0.727 4.224 C 0.512 2.176, 0.339 4.100, 0.343 8.500 M 5.379 6.454 C 5.073 7.253, 5.463 8.823, 6.248 9.943 C 7.665 11.966, 7.681 11.964, 8.955 9.585 C 9.659 8.268, 9.931 6.698, 9.559 6.095 C 8.589 4.525, 6.035 4.744, 5.379 6.454 M 21.980 6.524 C 20.142 8.739, 21.188 8.994, 23.250 6.833 C 24.212 5.825, 24.605 5, 24.122 5 C 23.640 5, 22.676 5.686, 21.980 6.524 M 7.079 8.583 C 7.127 9.748, 7.364 9.985, 7.683 9.188 C 7.972 8.466, 7.936 7.603, 7.604 7.271 C 7.272 6.939, 7.036 7.529, 7.079 8.583" stroke="none" fill="black" fill-rule="evenodd"/>
</svg>