<svg xmlns="http://www.w3.org/2000/svg" width="32" height="16" viewBox="0 0 32 16" version="1.1">
	<path d="M 0 8 L 0 16 14.456 16 L 28.912 16 29.257 8.750 L 29.603 1.500 29.801 8.833 C 29.946 14.188, 30.337 16.055, 31.250 15.753 C 32.069 15.482, 32.601 12.697, 32.792 7.670 L 33.084 0 16.542 0 L 0 0 0 8 M 0.343 8.500 C 0.346 12.900, 0.522 14.576, 0.733 12.224 C 0.945 9.872, 0.942 6.272, 0.727 4.224 C 0.512 2.176, 0.339 4.100, 0.343 8.500 M 3 8 L 3 15 7.500 15 L 12 15 12 8 L 12 1 7.500 1 L 3 1 3 8 M 19.415 2.362 C 19.127 3.111, 19.056 6.374, 19.257 9.612 L 19.622 15.500 19.811 8.807 L 20 2.115 24.250 1.732 L 28.500 1.349 24.219 1.175 C 21.398 1.060, 19.759 1.465, 19.415 2.362 M 4 4.500 C 4 5.548, 5.056 6, 7.500 6 C 9.944 6, 11 5.548, 11 4.500 C 11 3.452, 9.944 3, 7.500 3 C 5.056 3, 4 3.452, 4 4.500 M 22.269 4.693 C 23.242 4.947, 24.592 4.930, 25.269 4.656 C 25.946 4.382, 25.150 4.175, 23.500 4.195 C 21.850 4.215, 21.296 4.439, 22.269 4.693 M 27 4.937 C 27 5.452, 25.538 6.055, 23.750 6.277 C 20.550 6.674, 20.558 6.682, 24.250 6.840 C 26.988 6.957, 28 6.595, 28 5.500 C 28 4.675, 27.775 4, 27.500 4 C 27.225 4, 27 4.421, 27 4.937 M 8.813 13.683 C 9.534 13.972, 10.397 13.936, 10.729 13.604 C 11.061 13.272, 10.471 13.036, 9.417 13.079 C 8.252 13.127, 8.015 13.364, 8.813 13.683 M 25.813 14.683 C 26.534 14.972, 27.397 14.936, 27.729 14.604 C 28.061 14.272, 27.471 14.036, 26.417 14.079 C 25.252 14.127, 25.015 14.364, 25.813 14.683" stroke="none" fill="black" fill-rule="evenodd"/>
</svg>