<svg xmlns="http://www.w3.org/2000/svg" width="32" height="16" viewBox="0 0 32 16" version="1.1">
	<path d="M 0 8 L 0 16 4.343 16 C 6.732 16, 14.157 15.706, 20.843 15.346 L 33 14.693 33 7.346 L 33 0 16.500 0 L 0 0 0 8 M 0.079 8.321 C 0.009 15.274, 0.167 15.976, 1.500 14.643 C 3.195 12.948, 3.518 11.562, 2 12.500 C 1.450 12.840, 1 12.641, 1 12.059 C 1 11.477, 1.450 11, 2 11 C 2.550 11, 3 10.523, 3 9.941 C 3 9.359, 2.550 9.160, 2 9.500 C 1.450 9.840, 1 9.641, 1 9.059 C 1 8.477, 1.450 8, 2 8 C 2.550 8, 3 7.523, 3 6.941 C 3 6.359, 2.550 6.160, 2 6.500 C 1.450 6.840, 1 6.641, 1 6.059 C 1 5.477, 2.125 5, 3.500 5 C 4.875 5, 6 4.550, 6 4 C 6 3.450, 4.912 3, 3.583 3 C 2.254 3, 0.940 2.438, 0.662 1.750 C 0.385 1.063, 0.122 4.020, 0.079 8.321 M 6.750 1.662 C 7.438 1.940, 8.563 1.940, 9.250 1.662 C 9.938 1.385, 9.375 1.158, 8 1.158 C 6.625 1.158, 6.063 1.385, 6.750 1.662 M 22.750 1.662 C 23.438 1.940, 24.563 1.940, 25.250 1.662 C 25.938 1.385, 25.375 1.158, 24 1.158 C 22.625 1.158, 22.063 1.385, 22.750 1.662 M 7.500 4 C 7.160 4.550, 7.359 5, 7.941 5 C 8.523 5, 9 4.550, 9 4 C 9 3.450, 8.802 3, 8.559 3 C 8.316 3, 7.840 3.450, 7.500 4 M 10.500 4 C 10.160 4.550, 10.359 5, 10.941 5 C 11.523 5, 12 4.550, 12 4 C 12 3.450, 11.802 3, 11.559 3 C 11.316 3, 10.840 3.450, 10.500 4 M 13.500 4 C 13.160 4.550, 13.359 5, 13.941 5 C 14.523 5, 15 4.550, 15 4 C 15 3.450, 14.802 3, 14.559 3 C 14.316 3, 13.840 3.450, 13.500 4 M 17 3.861 C 17 4.335, 18.125 4.508, 19.500 4.245 C 22.709 3.631, 22.709 3, 19.500 3 C 18.125 3, 17 3.388, 17 3.861 M 23.500 4 C 23.160 4.550, 23.359 5, 23.941 5 C 24.523 5, 25 4.550, 25 4 C 25 3.450, 24.802 3, 24.559 3 C 24.316 3, 23.840 3.450, 23.500 4 M 26.500 4 C 26.160 4.550, 26.359 5, 26.941 5 C 27.523 5, 28 4.550, 28 4 C 28 3.450, 27.802 3, 27.559 3 C 27.316 3, 26.840 3.450, 26.500 4 M 29.500 4 C 29.160 4.550, 29.359 5, 29.941 5 C 30.523 5, 31 4.550, 31 4 C 31 3.450, 30.802 3, 30.559 3 C 30.316 3, 29.840 3.450, 29.500 4 M 4.500 7 C 4.160 7.550, 4.359 8, 4.941 8 C 5.523 8, 6 7.550, 6 7 C 6 6.450, 5.802 6, 5.559 6 C 5.316 6, 4.840 6.450, 4.500 7 M 7.500 7 C 7.160 7.550, 7.359 8, 7.941 8 C 8.523 8, 9 7.550, 9 7 C 9 6.450, 8.802 6, 8.559 6 C 8.316 6, 7.840 6.450, 7.500 7 M 10.500 7 C 10.160 7.550, 10.359 8, 10.941 8 C 11.523 8, 12 7.550, 12 7 C 12 6.450, 11.802 6, 11.559 6 C 11.316 6, 10.840 6.450, 10.500 7 M 13.500 7 C 13.160 7.550, 13.359 8, 13.941 8 C 14.523 8, 15 7.550, 15 7 C 15 6.450, 14.802 6, 14.559 6 C 14.316 6, 13.840 6.450, 13.500 7 M 17.500 7 C 17.160 7.550, 17.359 8, 17.941 8 C 18.523 8, 19 7.550, 19 7 C 19 6.450, 18.802 6, 18.559 6 C 18.316 6, 17.840 6.450, 17.500 7 M 20.500 7 C 20.160 7.550, 20.359 8, 20.941 8 C 21.523 8, 22 7.550, 22 7 C 22 6.450, 21.802 6, 21.559 6 C 21.316 6, 20.840 6.450, 20.500 7 M 23.500 7 C 23.160 7.550, 23.359 8, 23.941 8 C 24.523 8, 25 7.550, 25 7 C 25 6.450, 24.802 6, 24.559 6 C 24.316 6, 23.840 6.450, 23.500 7 M 26.500 7 C 26.160 7.550, 26.359 8, 26.941 8 C 27.523 8, 28 7.550, 28 7 C 28 6.450, 27.802 6, 27.559 6 C 27.316 6, 26.840 6.450, 26.500 7 M 29.500 7 C 29.160 7.550, 29.359 8, 29.941 8 C 30.523 8, 31 7.550, 31 7 C 31 6.450, 30.802 6, 30.559 6 C 30.316 6, 29.840 6.450, 29.500 7 M 4.500 10 C 4.160 10.550, 4.359 11, 4.941 11 C 5.523 11, 6 10.550, 6 10 C 6 9.450, 5.802 9, 5.559 9 C 5.316 9, 4.840 9.450, 4.500 10 M 7.500 10 C 7.160 10.550, 7.359 11, 7.941 11 C 8.523 11, 9 10.550, 9 10 C 9 9.450, 8.802 9, 8.559 9 C 8.316 9, 7.840 9.450, 7.500 10 M 10.500 10 C 10.160 10.550, 10.359 11, 10.941 11 C 11.523 11, 12 10.550, 12 10 C 12 9.450, 11.802 9, 11.559 9 C 11.316 9, 10.840 9.450, 10.500 10 M 13.500 10 C 13.160 10.550, 13.359 11, 13.941 11 C 14.523 11, 15 10.550, 15 10 C 15 9.450, 14.802 9, 14.559 9 C 14.316 9, 13.840 9.450, 13.500 10 M 17.500 10 C 17.160 10.550, 17.359 11, 17.941 11 C 18.523 11, 19 10.550, 19 10 C 19 9.450, 18.802 9, 18.559 9 C 18.316 9, 17.840 9.450, 17.500 10 M 20.500 10 C 20.160 10.550, 20.359 11, 20.941 11 C 21.523 11, 22 10.550, 22 10 C 22 9.450, 21.802 9, 21.559 9 C 21.316 9, 20.840 9.450, 20.500 10 M 23.500 10 C 23.160 10.550, 23.359 11, 23.941 11 C 24.523 11, 25 10.550, 25 10 C 25 9.450, 24.802 9, 24.559 9 C 24.316 9, 23.840 9.450, 23.500 10 M 26.500 10 C 26.160 10.550, 26.359 11, 26.941 11 C 27.523 11, 28 10.550, 28 10 C 28 9.450, 27.802 9, 27.559 9 C 27.316 9, 26.840 9.450, 26.500 10 M 29.500 10 C 29.160 10.550, 29.359 11, 29.941 11 C 30.523 11, 31 10.550, 31 10 C 31 9.450, 30.802 9, 30.559 9 C 30.316 9, 29.840 9.450, 29.500 10 M 4.500 13 C 4.160 13.550, 4.359 14, 4.941 14 C 5.523 14, 6 13.550, 6 13 C 6 12.450, 5.802 12, 5.559 12 C 5.316 12, 4.840 12.450, 4.500 13 M 7.500 13 C 7.160 13.550, 7.359 14, 7.941 14 C 8.523 14, 9 13.550, 9 13 C 9 12.450, 8.802 12, 8.559 12 C 8.316 12, 7.840 12.450, 7.500 13 M 10 13 C 10 13.550, 10.450 14, 11 14 C 11.550 14, 12 13.550, 12 13 C 12 12.450, 11.550 12, 11 12 C 10.450 12, 10 12.450, 10 13 M 13 13 C 13 13.550, 13.450 14, 14 14 C 14.550 14, 15 13.550, 15 13 C 15 12.450, 14.550 12, 14 12 C 13.450 12, 13 12.450, 13 13 M 17.500 13 C 17.160 13.550, 17.359 14, 17.941 14 C 18.523 14, 19 13.550, 19 13 C 19 12.450, 18.802 12, 18.559 12 C 18.316 12, 17.840 12.450, 17.500 13 M 20.500 13 C 20.160 13.550, 20.359 14, 20.941 14 C 21.523 14, 22 13.550, 22 13 C 22 12.450, 21.802 12, 21.559 12 C 21.316 12, 20.840 12.450, 20.500 13 M 23.500 13 C 23.160 13.550, 23.359 14, 23.941 14 C 24.523 14, 25 13.550, 25 13 C 25 12.450, 24.802 12, 24.559 12 C 24.316 12, 23.840 12.450, 23.500 13 M 26 13.059 C 26 13.641, 26.450 13.840, 27 13.500 C 27.550 13.160, 28 12.684, 28 12.441 C 28 12.198, 27.550 12, 27 12 C 26.450 12, 26 12.477, 26 13.059 M 29 13.059 C 29 13.641, 29.450 13.840, 30 13.500 C 30.550 13.160, 31 12.684, 31 12.441 C 31 12.198, 30.550 12, 30 12 C 29.450 12, 29 12.477, 29 13.059" stroke="none" fill="black" fill-rule="evenodd"/>
</svg>