<svg xmlns="http://www.w3.org/2000/svg" width="160" height="160" viewBox="0 0 160 160" version="1.1">
	<path d="M 27.272 58.211 C 26.047 58.802, 24.779 60.122, 24.455 61.143 C 23.996 62.587, 22.872 63, 19.400 63 C 12.850 63, 8.493 65.146, 7.135 69.042 C 6.368 71.244, 6 84.241, 6 109.181 C 6 150.318, 6.204 151.830, 12.042 153.865 C 16.637 155.466, 143.363 155.466, 147.958 153.865 C 153.796 151.830, 154 150.318, 154 109.181 C 154 84.241, 153.632 71.244, 152.865 69.042 C 150.770 63.033, 150.460 63, 95.600 63 C 48.367 63, 46.108 62.917, 45.548 61.152 C 45.226 60.135, 43.824 58.785, 42.434 58.152 C 39.307 56.727, 30.273 56.762, 27.272 58.211 M 125.571 75.571 C 123.769 77.374, 123.525 81.244, 125.035 84.066 C 125.879 85.642, 127.161 86, 131.964 86 C 138.695 86, 141 84.469, 141 80 C 141 75.648, 138.665 74, 132.500 74 C 128.963 74, 126.609 74.534, 125.571 75.571 M 70.934 89.750 C 63.170 93.686, 59.500 99.864, 59.500 109 C 59.500 114.640, 59.959 116.408, 62.505 120.578 C 66.241 126.698, 73.876 131, 81 131 C 88.124 131, 95.759 126.698, 99.495 120.578 C 102.041 116.408, 102.500 114.640, 102.500 109 C 102.500 103.360, 102.041 101.592, 99.495 97.422 C 95.759 91.302, 88.124 87, 81 87 C 77.918 87, 74.536 87.924, 70.934 89.750" stroke="none" fill="black" fill-rule="evenodd"/>
</svg>