<svg xmlns="http://www.w3.org/2000/svg" width="32" height="16" viewBox="0 0 32 16" version="1.1">
	<path d="M 0 8.055 L 0 16.110 16.250 15.805 L 32.500 15.500 32.792 7.750 L 33.084 0 16.542 0 L 0 0 0 8.055 M 0.296 8.500 C 0.309 12.900, 0.498 15.083, 0.716 13.352 C 0.976 11.281, 1.776 10.030, 3.056 9.696 C 5.573 9.037, 5.574 5.963, 3.056 5.304 C 1.987 5.025, 0.923 3.829, 0.692 2.648 C 0.461 1.467, 0.283 4.100, 0.296 8.500 M 4.008 1.974 C 2.839 2.713, 2.779 3.179, 3.731 4.131 C 5.409 5.809, 9.875 5.856, 11.241 4.209 C 13.348 1.671, 7.396 -0.168, 4.008 1.974 M 19.455 3.455 C 18.105 4.805, 17.025 6.942, 17.056 8.205 C 17.100 9.986, 17.380 9.717, 18.306 7 C 19.208 4.357, 20.357 3.208, 23 2.306 C 25.717 1.380, 25.986 1.100, 24.205 1.056 C 22.942 1.025, 20.805 2.105, 19.455 3.455 M 10.380 6.452 C 9.668 8.308, 10.707 10, 12.559 10 C 13.429 10, 14 9.010, 14 7.500 C 14 4.752, 11.329 3.979, 10.380 6.452 M 6 7.500 C 6 8.325, 6.675 9, 7.500 9 C 8.325 9, 9 8.325, 9 7.500 C 9 6.675, 8.325 6, 7.500 6 C 6.675 6, 6 6.675, 6 7.500 M 22.459 7.067 C 21.433 8.727, 22.354 8.957, 23.789 7.399 C 24.499 6.630, 24.638 6, 24.098 6 C 23.559 6, 22.821 6.480, 22.459 7.067 M 31.136 8.250 C 31.061 9.762, 30.100 11.900, 29 13 C 27.900 14.100, 27.440 15, 27.977 15 C 29.681 15, 32.172 10.206, 31.713 7.808 C 31.322 5.758, 31.257 5.807, 31.136 8.250 M 26 8.260 C 26 9.136, 25.212 10.059, 24.250 10.311 C 22.610 10.739, 22.612 10.775, 24.281 10.884 C 26.089 11.002, 27.765 8.431, 26.624 7.290 C 26.281 6.947, 26 7.384, 26 8.260 M 3.759 10.791 C 1.652 13.329, 7.604 15.168, 10.992 13.026 C 12.161 12.287, 12.221 11.821, 11.269 10.869 C 9.591 9.191, 5.125 9.144, 3.759 10.791" stroke="none" fill="black" fill-rule="evenodd"/>
</svg>