<svg xmlns="http://www.w3.org/2000/svg" width="32" height="16" viewBox="0 0 32 16" version="1.1">
	<path d="M 0 3.300 C 0 5.115, 0.563 7.206, 1.250 7.947 C 2.250 9.024, 2.250 9.152, 1.250 8.588 C 0.339 8.073, 0 8.989, 0 11.966 L 0 16.050 16.250 15.775 L 32.500 15.500 32.717 7.750 L 32.934 -0 16.467 -0 L 0 0 0 3.300 M 0.232 4 C 0.232 5.925, 0.438 6.713, 0.689 5.750 C 0.941 4.787, 0.941 3.212, 0.689 2.250 C 0.438 1.288, 0.232 2.075, 0.232 4 M 24.985 4.895 C 22.354 7.661, 20.876 8.535, 19.890 7.911 C 16.517 5.775, 16.140 7.291, 19.120 11 C 20.888 13.200, 22.702 15, 23.151 15 C 23.599 15, 25.064 12.834, 26.405 10.187 C 27.747 7.540, 29.554 4.785, 30.422 4.065 C 32.469 2.366, 32.434 1, 30.345 1 C 29.435 1, 27.023 2.753, 24.985 4.895 M 0.272 12 C 0.272 14.475, 0.467 15.488, 0.706 14.250 C 0.944 13.012, 0.944 10.988, 0.706 9.750 C 0.467 8.512, 0.272 9.525, 0.272 12" stroke="none" fill="black" fill-rule="evenodd"/>
</svg>