<svg xmlns="http://www.w3.org/2000/svg" width="16" height="16" viewBox="0 0 16 16" version="1.1">
	<path d="M 0 8.040 L 0 16.081 8.250 15.790 L 16.500 15.500 16.792 7.750 L 17.084 0 8.542 0 L 0 0 0 8.040 M 0.343 8.500 C 0.346 12.900, 0.522 14.576, 0.733 12.224 C 0.945 9.872, 0.942 6.272, 0.727 4.224 C 0.512 2.176, 0.339 4.100, 0.343 8.500 M 5.684 2.898 C 5.957 3.942, 5.427 5.945, 4.507 7.349 C 2.577 10.294, 3.233 13.622, 5.910 14.472 C 10.478 15.921, 13.268 11.584, 10.493 7.349 C 9.573 5.945, 9.043 3.942, 9.316 2.898 C 9.698 1.438, 9.279 1, 7.500 1 C 5.721 1, 5.302 1.438, 5.684 2.898 M 4.358 9.511 C 3.407 11.989, 6.571 14.760, 8.769 13.374 C 9.721 12.773, 10.500 11.431, 10.500 10.391 C 10.500 7.868, 5.275 7.119, 4.358 9.511 M 5 10.059 C 5 10.641, 5.450 10.840, 6 10.500 C 6.550 10.160, 7 9.684, 7 9.441 C 7 9.198, 6.550 9, 6 9 C 5.450 9, 5 9.477, 5 10.059 M 6.813 12.683 C 7.534 12.972, 8.397 12.936, 8.729 12.604 C 9.061 12.272, 8.471 12.036, 7.417 12.079 C 6.252 12.127, 6.015 12.364, 6.813 12.683" stroke="none" fill="black" fill-rule="evenodd"/>
</svg>