<svg xmlns="http://www.w3.org/2000/svg" width="16" height="16" viewBox="0 0 16 16" version="1.1">
	<path d="M 0.227 8.188 L 0.084 16 3.935 16 C 6.398 16, 7.989 15.471, 8.349 14.532 C 8.933 13.012, 7.495 11.405, 6.749 12.744 C 6.517 13.160, 6.459 12.952, 6.620 12.282 C 6.955 10.889, 5.387 9.600, 4.749 10.744 C 4.517 11.160, 4.459 10.952, 4.620 10.282 C 4.955 8.889, 3.387 7.600, 2.749 8.744 C 2.517 9.160, 2.444 8.992, 2.586 8.372 C 2.728 7.751, 2.318 6.626, 1.676 5.872 C 1.034 5.117, 2.773 6.638, 5.539 9.251 C 10.292 13.739, 10.665 13.907, 12.286 12.286 C 13.907 10.665, 13.739 10.292, 9.251 5.539 C 6.638 2.773, 5.117 1.034, 5.872 1.676 C 6.626 2.318, 7.751 2.728, 8.372 2.586 C 8.992 2.444, 9.160 2.517, 8.744 2.749 C 7.600 3.387, 8.889 4.955, 10.282 4.620 C 10.952 4.459, 11.160 4.517, 10.744 4.749 C 9.600 5.387, 10.889 6.955, 12.282 6.620 C 12.952 6.459, 13.160 6.517, 12.744 6.749 C 11.324 7.541, 13.059 8.914, 14.782 8.362 C 16.241 7.894, 16.274 7.974, 15 8.890 C 14.175 9.484, 13.916 9.976, 14.424 9.985 C 14.933 9.993, 14.305 11.111, 13.029 12.469 C 11.753 13.827, 10.325 14.701, 9.855 14.410 C 9.385 14.120, 9 14.386, 9 15.001 C 9 15.683, 10.465 15.999, 12.750 15.810 L 16.500 15.500 16.573 7.780 L 16.647 0.059 8.508 0.217 L 0.370 0.376 0.227 8.188 M 0.079 2.250 C 0.036 3.212, 0.395 4, 0.878 4 C 1.360 4, 2.373 3.212, 3.128 2.250 C 4.354 0.686, 4.324 0.638, 2.847 1.792 C 1.497 2.847, 1.100 2.847, 0.676 1.792 C 0.347 0.970, 0.129 1.137, 0.079 2.250 M 5 4.378 C 5 4.585, 5.787 5.373, 6.750 6.128 C 8.336 7.371, 8.371 7.336, 7.128 5.750 C 5.821 4.084, 5 3.555, 5 4.378 M 0.272 12 C 0.272 14.475, 0.467 15.488, 0.706 14.250 C 0.944 13.012, 0.944 10.988, 0.706 9.750 C 0.467 8.512, 0.272 9.525, 0.272 12" stroke="none" fill="black" fill-rule="evenodd"/>
</svg>