<svg xmlns="http://www.w3.org/2000/svg" width="32" height="16" viewBox="0 0 32 16" version="1.1">
	<path d="M 0 8 L 0 16 8.469 16 C 15.461 16, 16.840 15.747, 16.380 14.548 C 16.074 13.749, 16.200 12.512, 16.661 11.798 C 17.123 11.084, 17.500 9.600, 17.500 8.500 C 17.500 6.523, 19.944 5.569, 20.061 7.500 C 20.094 8.050, 20.927 9.400, 21.912 10.500 C 22.896 11.600, 23.980 13.287, 24.320 14.250 C 24.659 15.212, 25.603 16, 26.418 16 C 27.381 16, 26.712 14.706, 24.506 12.297 L 21.114 8.595 25.217 5.082 C 29.782 1.175, 33.418 -0.224, 30.431 3.076 C 28.884 4.786, 29.107 5.422, 31.157 5.149 C 32.623 4.954, 31.217 8.164, 28.675 10.817 L 25.967 13.644 28.388 14.940 C 32.136 16.946, 33 15.566, 33 7.569 L 33 0.256 24.500 0.088 C 16.163 -0.076, 16 -0.034, 16 2.305 C 16 5.478, 12.831 8.431, 11.189 6.789 C 10.277 5.877, 10.621 4.961, 12.689 2.802 L 15.374 -0 7.687 -0 L 0 0 0 8 M 0.343 8.500 C 0.346 12.900, 0.522 14.576, 0.733 12.224 C 0.945 9.872, 0.942 6.272, 0.727 4.224 C 0.512 2.176, 0.339 4.100, 0.343 8.500 M 20.080 4 C 21.538 7.061, 22 7.628, 22 6.358 C 22 5.821, 21.300 4.509, 20.445 3.441 C 18.978 1.611, 18.958 1.643, 20.080 4 M 27.647 3.838 C 26.092 5.556, 26.108 5.787, 27.893 7.403 C 28.968 8.376, 30.058 8.715, 30.390 8.178 C 30.713 7.655, 30.302 6.666, 29.477 5.981 C 28.335 5.033, 28.247 4.407, 29.110 3.367 C 30.810 1.319, 29.564 1.719, 27.647 3.838 M 11.553 4.915 C 11.231 5.436, 11.394 6.125, 11.915 6.447 C 12.436 6.769, 13.125 6.606, 13.447 6.085 C 13.769 5.564, 13.606 4.875, 13.085 4.553 C 12.564 4.231, 11.875 4.394, 11.553 4.915 M 27 5.378 C 27 5.585, 27.788 6.373, 28.750 7.128 C 30.336 8.371, 30.371 8.336, 29.128 6.750 C 27.821 5.084, 27 4.555, 27 5.378" stroke="none" fill="black" fill-rule="evenodd"/>
</svg>