<svg xmlns="http://www.w3.org/2000/svg" width="32" height="16" viewBox="0 0 32 16" version="1.1">
	<path d="M -0 8.103 L -0 16.206 12.295 15.853 C 26.199 15.454, 29.286 14.273, 30.883 8.745 C 31.815 5.515, 31.820 5.513, 31.910 8.295 C 31.966 10.039, 31.050 12.041, 29.477 13.614 L 26.954 16.137 29.727 15.819 C 32.462 15.504, 32.504 15.395, 32.792 7.750 L 33.084 0 16.542 0 L 0 0 -0 8.103 M 0.343 8.500 C 0.346 12.900, 0.522 14.576, 0.733 12.224 C 0.945 9.872, 0.942 6.272, 0.727 4.224 C 0.512 2.176, 0.339 4.100, 0.343 8.500 M 4.882 2.750 C 4.816 3.163, 4.816 3.838, 4.882 4.250 C 4.947 4.663, 4.438 4.888, 3.750 4.750 C 1.630 4.326, 1.723 9.439, 3.870 11.383 C 6.010 13.319, 10.654 13.206, 10.250 11.226 C 10.113 10.552, 10.563 10.112, 11.250 10.250 C 12.028 10.406, 12.500 9.367, 12.500 7.500 C 12.500 5.539, 12.042 4.595, 11.176 4.775 C 10.447 4.926, 10.117 4.619, 10.442 4.094 C 10.767 3.568, 10.525 2.824, 9.905 2.441 C 9.284 2.058, 8.384 2.364, 7.904 3.122 C 7.271 4.120, 7.026 4.155, 7.015 3.250 C 6.999 1.924, 5.083 1.475, 4.882 2.750 M 19.655 3.829 C 18.745 4.835, 18.039 6.747, 18.086 8.079 C 18.167 10.355, 18.223 10.329, 19.025 7.655 C 19.494 6.090, 20.693 4.192, 21.689 3.437 C 22.685 2.681, 23.007 2.049, 22.405 2.032 C 21.803 2.014, 20.565 2.823, 19.655 3.829 M 24 3.500 C 24 4.325, 24.177 5, 24.393 5 C 24.609 5, 25.045 4.325, 25.362 3.500 C 25.678 2.675, 25.501 2, 24.969 2 C 24.436 2, 24 2.675, 24 3.500 M 5.872 8.750 C 4.678 10.273, 4.695 10.350, 6 9.346 C 6.825 8.711, 8.625 7.985, 10 7.732 L 12.500 7.272 9.872 7.136 C 8.424 7.061, 6.629 7.785, 5.872 8.750 M 22.872 9.750 C 21.678 11.273, 21.695 11.350, 23 10.346 C 23.825 9.711, 25.625 8.985, 27 8.732 L 29.500 8.272 26.872 8.136 C 25.424 8.061, 23.629 8.785, 22.872 9.750" stroke="none" fill="black" fill-rule="evenodd"/>
</svg>