<svg xmlns="http://www.w3.org/2000/svg" width="32" height="16" viewBox="0 0 32 16" version="1.1">
	<path d="M 0 8.025 L 0 16.050 16.250 15.775 L 32.500 15.500 32.792 7.750 L 33.084 0 16.542 0 L 0 0 0 8.025 M 0.343 8.500 C 0.346 12.900, 0.522 14.576, 0.733 12.224 C 0.945 9.872, 0.942 6.272, 0.727 4.224 C 0.512 2.176, 0.339 4.100, 0.343 8.500 M 5 6.500 C 5 10.976, 5.019 11, 8.500 11 C 11.981 11, 12 10.976, 12 6.500 C 12 2.024, 11.981 2, 8.500 2 C 5.019 2, 5 2.024, 5 6.500 M 20.175 6.750 L 20.349 11.500 20.729 7.309 C 21.080 3.445, 21.358 3.087, 24.305 2.719 C 27.384 2.335, 27.364 2.314, 23.750 2.160 L 20 2 20.175 6.750 M 28 7.943 L 28 13.885 23.750 14.268 L 19.500 14.651 24.250 14.825 L 29 15 29 8.500 C 29 4.925, 28.775 2, 28.500 2 C 28.225 2, 28 4.674, 28 7.943 M 6 5 C 6 6.467, 6.667 7, 8.500 7 C 10.333 7, 11 6.467, 11 5 C 11 3.533, 10.333 3, 8.500 3 C 6.667 3, 6 3.533, 6 5 M 22 4.969 C 22 5.501, 22.675 5.678, 23.500 5.362 C 24.325 5.045, 25 4.609, 25 4.393 C 25 4.177, 24.325 4, 23.500 4 C 22.675 4, 22 4.436, 22 4.969 M 26 5.430 C 26 6.217, 24.988 7.056, 23.750 7.294 C 21.821 7.666, 21.892 7.747, 24.250 7.864 C 26.379 7.969, 27 7.548, 27 6 C 27 4.900, 26.775 4, 26.500 4 C 26.225 4, 26 4.644, 26 5.430 M 8.813 9.683 C 9.534 9.972, 10.397 9.936, 10.729 9.604 C 11.061 9.272, 10.471 9.036, 9.417 9.079 C 8.252 9.127, 8.015 9.364, 8.813 9.683 M 24.813 10.683 C 25.534 10.972, 26.397 10.936, 26.729 10.604 C 27.061 10.272, 26.471 10.036, 25.417 10.079 C 24.252 10.127, 24.015 10.364, 24.813 10.683 M 6.762 12.707 C 8.006 12.946, 9.806 12.937, 10.762 12.687 C 11.718 12.437, 10.700 12.241, 8.500 12.252 C 6.300 12.263, 5.518 12.468, 6.762 12.707 M 21.762 12.707 C 23.006 12.946, 24.806 12.937, 25.762 12.687 C 26.718 12.437, 25.700 12.241, 23.500 12.252 C 21.300 12.263, 20.518 12.468, 21.762 12.707" stroke="none" fill="black" fill-rule="evenodd"/>
</svg>