<svg xmlns="http://www.w3.org/2000/svg" width="32" height="16" viewBox="0 0 32 16" version="1.1">
	<path d="M -0 7.980 L -0 15.961 15.103 15.909 C 23.410 15.881, 30.835 15.617, 31.603 15.322 C 32.625 14.930, 33 12.800, 33 7.393 L 33 0 16.500 0 L 0 0 -0 7.980 M 0.015 8.889 C 0.024 13.075, 0.361 16.028, 0.765 15.451 C 1.169 14.874, 4.382 14.424, 7.906 14.451 C 12.173 14.484, 14.454 14.083, 14.739 13.250 C 15.041 12.368, 13.800 12, 10.524 12 C 7.971 12, 6.114 12.375, 6.397 12.833 C 6.680 13.292, 6.369 13.668, 5.706 13.669 C 4.867 13.670, 4.601 11.937, 4.832 7.968 C 5.149 2.520, 5.049 2.242, 2.582 1.771 L -0 1.277 0.015 8.889 M 17.189 8.250 L 17.378 14.500 17.737 8.814 C 18.010 4.497, 18.506 3.020, 19.798 2.680 C 21.021 2.358, 20.866 2.199, 19.250 2.116 C 17.125 2.006, 17.011 2.349, 17.189 8.250 M 22.286 6.500 C 22.294 9.250, 22.488 10.256, 22.718 8.736 C 22.947 7.216, 22.941 4.966, 22.704 3.736 C 22.467 2.506, 22.279 3.750, 22.286 6.500 M 8 6 C 8 8.762, 8.278 9, 11.500 9 C 14.722 9, 15 8.762, 15 6 C 15 3.238, 14.722 3, 11.500 3 C 8.278 3, 8 3.238, 8 6 M 24.150 6.250 C 24.285 9.188, 24.339 9.242, 24.711 6.809 C 25.041 4.646, 25.748 4.039, 28.311 3.719 C 31.376 3.336, 31.355 3.314, 27.750 3.160 C 24.125 3.005, 24.005 3.108, 24.150 6.250 M 9 6 C 9 7.467, 9.667 8, 11.500 8 C 13.333 8, 14 7.467, 14 6 C 14 4.533, 13.333 4, 11.500 4 C 9.667 4, 9 4.533, 9 6 M 26 5.969 C 26 6.501, 26.675 6.678, 27.500 6.362 C 28.325 6.045, 29 5.609, 29 5.393 C 29 5.177, 28.325 5, 27.500 5 C 26.675 5, 26 5.436, 26 5.969 M 30 6.430 C 30 7.217, 28.988 8.056, 27.750 8.294 C 25.821 8.666, 25.892 8.747, 28.250 8.864 C 30.379 8.969, 31 8.548, 31 7 C 31 5.900, 30.775 5, 30.500 5 C 30.225 5, 30 5.644, 30 6.430 M 29.813 10.683 C 30.534 10.972, 31.397 10.936, 31.729 10.604 C 32.061 10.272, 31.471 10.036, 30.417 10.079 C 29.252 10.127, 29.015 10.364, 29.813 10.683 M 24.264 12.718 C 25.784 12.947, 28.034 12.941, 29.264 12.704 C 30.494 12.467, 29.250 12.279, 26.500 12.286 C 23.750 12.294, 22.744 12.488, 24.264 12.718" stroke="none" fill="black" fill-rule="evenodd"/>
</svg>