<svg xmlns="http://www.w3.org/2000/svg" width="32" height="16" viewBox="0 0 32 16" version="1.1">
	<path d="M 0 8.057 L 0 16.114 16.250 15.807 L 32.500 15.500 32.792 7.750 L 33.084 0 16.542 0 L 0 0 0 8.057 M 0.311 8.500 C 0.290 12.900, 0.465 15.502, 0.701 14.283 C 1.024 12.616, 2.045 11.923, 4.815 11.488 C 6.842 11.170, 9.850 10.526, 11.500 10.057 C 13.954 9.359, 13.283 9.186, 7.807 9.102 L 1.115 9 0.732 4.750 C 0.522 2.412, 0.332 4.100, 0.311 8.500 M 4 4 C 4 6.762, 4.278 7, 7.500 7 C 10.722 7, 11 6.762, 11 4 C 11 1.238, 10.722 1, 7.500 1 C 4.278 1, 4 1.238, 4 4 M 20.150 4.250 C 20.285 7.188, 20.339 7.242, 20.711 4.809 C 21.041 2.646, 21.748 2.039, 24.311 1.719 C 27.376 1.336, 27.355 1.314, 23.750 1.160 C 20.125 1.005, 20.005 1.108, 20.150 4.250 M 28.252 4.500 C 28.263 6.700, 28.468 7.482, 28.707 6.238 C 28.946 4.994, 28.937 3.194, 28.687 2.238 C 28.437 1.282, 28.241 2.300, 28.252 4.500 M 5 4 C 5 5.467, 5.667 6, 7.500 6 C 9.333 6, 10 5.467, 10 4 C 10 2.533, 9.333 2, 7.500 2 C 5.667 2, 5 2.533, 5 4 M 22 3.969 C 22 4.501, 22.675 4.678, 23.500 4.362 C 24.325 4.045, 25 3.609, 25 3.393 C 25 3.177, 24.325 3, 23.500 3 C 22.675 3, 22 3.436, 22 3.969 M 26 4.430 C 26 5.217, 24.988 6.056, 23.750 6.294 C 21.821 6.666, 21.892 6.747, 24.250 6.864 C 26.379 6.969, 27 6.548, 27 5 C 27 3.900, 26.775 3, 26.500 3 C 26.225 3, 26 3.644, 26 4.430 M 17.667 9.667 C 17.300 10.033, 17.007 10.821, 17.015 11.417 C 17.025 12.101, 17.310 12.061, 17.789 11.307 C 18.207 10.650, 21.237 9.948, 24.524 9.746 L 30.500 9.378 24.417 9.189 C 21.071 9.085, 18.033 9.300, 17.667 9.667 M 31 11.417 C 31 12.196, 30.438 13.060, 29.750 13.338 C 29.003 13.639, 29.205 13.874, 30.250 13.921 C 31.360 13.971, 32 13.268, 32 12 C 32 10.900, 31.775 10, 31.500 10 C 31.225 10, 31 10.637, 31 11.417 M 7.826 11.724 C 5.805 11.937, 3.613 12.762, 2.954 13.556 C 1.933 14.786, 2.597 15, 7.437 15 C 11.030 15, 12.887 14.627, 12.490 13.984 C 12.144 13.425, 11.443 13.226, 10.931 13.543 C 10.419 13.859, 10 13.852, 10 13.527 C 10 13.202, 11.012 12.529, 12.250 12.031 C 14.571 11.098, 14.080 11.064, 7.826 11.724 M 22.250 12.689 C 23.212 12.941, 24.788 12.941, 25.750 12.689 C 26.712 12.438, 25.925 12.232, 24 12.232 C 22.075 12.232, 21.288 12.438, 22.250 12.689" stroke="none" fill="black" fill-rule="evenodd"/>
</svg>