<svg xmlns="http://www.w3.org/2000/svg" width="16" height="16" viewBox="0 0 16 16" version="1.1">
	<path d="M 0 7.850 L 0 15.700 8.250 15.600 L 16.500 15.500 16.792 7.750 L 17.084 0 8.542 0 L 0 0 0 7.850 M 0.217 8.500 C 0.078 15.731, 0.205 16.313, 1.532 14.559 C 2.374 13.445, 2.599 12.370, 2.060 12.037 C 1.543 11.718, 0.952 8.991, 0.745 5.978 C 0.444 1.574, 0.340 2.069, 0.217 8.500 M 6.248 1.773 C 5.009 1.975, 3.541 2.989, 2.985 4.028 C 1.714 6.402, 4.271 8, 9.341 8 C 12.421 8, 12.757 7.746, 12.320 5.750 C 11.923 3.942, 12.037 3.795, 12.898 5 C 13.487 5.825, 13.976 5.993, 13.985 5.372 C 13.993 4.752, 13.325 3.685, 12.500 3 C 11.675 2.315, 11 2.090, 11 2.500 C 11 2.910, 10.438 2.831, 9.750 2.326 C 9.063 1.820, 7.487 1.572, 6.248 1.773 M 8.750 2.998 C 10.923 5.435, 10.127 6.282, 6.250 5.659 C 3.677 5.246, 2.971 5.357, 4 6.013 C 6.764 7.775, 10.721 7.173, 11.316 4.901 C 11.617 3.747, 11.599 3.068, 11.274 3.392 C 10.950 3.717, 9.968 3.446, 9.092 2.790 C 7.759 1.790, 7.703 1.824, 8.750 2.998 M 9.699 8.966 C 5.590 9.761, 2.301 12, 5.241 12 C 6.144 12, 7.161 11.548, 7.502 10.996 C 7.843 10.444, 9.107 10.239, 10.311 10.541 C 11.524 10.845, 13.392 10.414, 14.500 9.576 C 16.753 7.872, 15.906 7.764, 9.699 8.966 M 6.162 12.484 C 4.875 13.193, 4.266 14.046, 4.807 14.381 C 5.349 14.716, 6.851 14.107, 8.146 13.028 C 10.790 10.825, 9.711 10.529, 6.162 12.484" stroke="none" fill="black" fill-rule="evenodd"/>
</svg>