<svg xmlns="http://www.w3.org/2000/svg" width="32" height="16" viewBox="0 0 32 16" version="1.1">
	<path d="M 0 8 L 0 16 3.500 16 C 6.433 16, 7.016 15.636, 7.100 13.750 C 7.195 11.591, 7.232 11.602, 8 14 C 8.768 16.398, 8.805 16.409, 8.900 14.250 C 8.981 12.439, 9.585 12, 12 12 C 14.333 12, 15 12.444, 15 14 C 15 15.733, 15.667 16, 20 16 C 24.333 16, 25 15.733, 25 14 C 25 12.452, 25.621 12.031, 27.750 12.136 C 30.108 12.253, 30.179 12.334, 28.250 12.706 C 24.538 13.421, 25.427 16.182, 29.250 15.813 L 32.500 15.500 32.792 7.750 L 33.084 0 16.542 0 L 0 0 0 8 M 0.150 8.750 C 0.232 13.013, 0.487 15.262, 0.716 13.750 C 1.089 11.287, 1.543 11, 5.066 11 C 8.770 11, 9 10.825, 9 8 C 9 5.667, 8.556 5, 7 5 C 5.667 5, 5 4.333, 5 3 C 5 1.533, 4.333 1, 2.500 1 C 0.035 1, 0.002 1.110, 0.150 8.750 M 17.180 6.250 L 17.360 11.500 17.732 6.813 C 17.999 3.453, 18.585 2, 19.802 1.679 C 21.017 1.359, 20.859 1.199, 19.250 1.116 C 17.166 1.009, 17.013 1.388, 17.180 6.250 M 6 3 C 6 3.550, 6.477 4, 7.059 4 C 7.641 4, 7.840 3.550, 7.500 3 C 7.160 2.450, 6.684 2, 6.441 2 C 6.198 2, 6 2.450, 6 3 M 22.813 5.683 C 23.534 5.972, 24.397 5.936, 24.729 5.604 C 25.061 5.272, 24.471 5.036, 23.417 5.079 C 22.252 5.127, 22.015 5.364, 22.813 5.683 M 2.750 6.662 C 3.438 6.940, 4.563 6.940, 5.250 6.662 C 5.938 6.385, 5.375 6.158, 4 6.158 C 2.625 6.158, 2.063 6.385, 2.750 6.662 M 28.500 8.585 C 25.614 10.899, 25.588 10.990, 27.809 10.995 C 29.079 10.998, 29.857 10.578, 29.538 10.061 C 29.219 9.545, 29.751 8.679, 30.721 8.136 C 31.690 7.594, 32.262 6.932, 31.992 6.665 C 31.721 6.398, 30.150 7.262, 28.500 8.585 M 19.750 7.662 C 20.438 7.940, 21.563 7.940, 22.250 7.662 C 22.938 7.385, 22.375 7.158, 21 7.158 C 19.625 7.158, 19.063 7.385, 19.750 7.662 M 5.813 8.683 C 6.534 8.972, 7.397 8.936, 7.729 8.604 C 8.061 8.272, 7.471 8.036, 6.417 8.079 C 5.252 8.127, 5.015 8.364, 5.813 8.683 M 13.500 10 C 13.840 10.550, 14.316 11, 14.559 11 C 14.802 11, 15 10.550, 15 10 C 15 9.450, 14.523 9, 13.941 9 C 13.359 9, 13.160 9.450, 13.500 10 M 22.813 9.683 C 23.534 9.972, 24.397 9.936, 24.729 9.604 C 25.061 9.272, 24.471 9.036, 23.417 9.079 C 22.252 9.127, 22.015 9.364, 22.813 9.683 M 18.269 12.693 C 19.242 12.947, 20.592 12.930, 21.269 12.656 C 21.946 12.382, 21.150 12.175, 19.500 12.195 C 17.850 12.215, 17.296 12.439, 18.269 12.693" stroke="none" fill="black" fill-rule="evenodd"/>
</svg>