<svg xmlns="http://www.w3.org/2000/svg" width="32" height="16" viewBox="0 0 32 16" version="1.1">
	<path d="M 0 8.144 L 0 16.287 13.102 15.756 C 24.646 15.288, 26.580 14.954, 29.352 12.954 L 32.500 10.683 30 13.437 L 27.500 16.191 30 15.845 C 32.392 15.515, 32.513 15.165, 32.792 7.750 L 33.084 0 16.542 0 L 0 0 0 8.144 M 0.343 8.500 C 0.346 12.900, 0.522 14.576, 0.733 12.224 C 0.945 9.872, 0.942 6.272, 0.727 4.224 C 0.512 2.176, 0.339 4.100, 0.343 8.500 M 8.395 3.830 C 8.793 4.474, 9.958 5, 10.986 5 C 12.013 5, 13.059 5.787, 13.311 6.750 C 13.655 8.067, 13.797 7.943, 13.884 6.250 C 13.953 4.920, 13.420 4, 12.582 4 C 11.802 4, 10.378 3.699, 9.418 3.330 C 8.227 2.873, 7.902 3.032, 8.395 3.830 M 6.395 5.830 C 6.793 6.474, 7.958 7, 8.986 7 C 10.013 7, 11.059 7.787, 11.311 8.750 C 11.655 10.067, 11.797 9.943, 11.884 8.250 C 11.953 6.920, 11.420 6, 10.582 6 C 9.802 6, 8.378 5.699, 7.418 5.330 C 6.227 4.873, 5.902 5.032, 6.395 5.830 M 4 8.393 C 4 9.512, 4.911 10, 7 10 C 8.650 10, 10 9.550, 10 9 C 10 8.450, 9.362 8, 8.582 8 C 7.802 8, 6.452 7.727, 5.582 7.393 C 4.544 6.995, 4 7.338, 4 8.393 M 20.459 8.067 C 19.433 9.727, 20.354 9.957, 21.789 8.399 C 22.499 7.630, 22.638 7, 22.098 7 C 21.559 7, 20.821 7.480, 20.459 8.067 M 28.149 10.604 C 27.406 11.444, 26.996 12.330, 27.239 12.572 C 27.481 12.814, 28.496 12.110, 29.494 11.006 C 30.493 9.903, 30.903 9.017, 30.405 9.038 C 29.907 9.059, 28.892 9.764, 28.149 10.604 M 18 11.776 C 18 12.203, 19.800 12.381, 22 12.171 C 24.200 11.962, 26 11.612, 26 11.395 C 26 11.178, 24.200 11, 22 11 C 19.800 11, 18 11.349, 18 11.776" stroke="none" fill="black" fill-rule="evenodd"/>
</svg>