<svg xmlns="http://www.w3.org/2000/svg" width="32" height="16" viewBox="0 0 32 16" version="1.1">
	<path d="M 0 8.057 L 0 16.114 16.250 15.807 L 32.500 15.500 32.792 7.750 L 33.084 0 16.542 0 L 0 0 0 8.057 M 0.155 8 L -0.004 15.500 6.248 15.155 C 13.424 14.758, 15.055 13.807, 14.864 10.128 C 14.741 7.751, 14.686 7.716, 14.292 9.765 C 14.053 11.010, 13.459 11.784, 12.972 11.483 C 12.486 11.182, 12.323 10.321, 12.612 9.569 C 12.900 8.817, 12.716 7.943, 12.202 7.625 C 11.689 7.308, 11.485 5.912, 11.751 4.524 C 12.156 2.403, 11.855 1.998, 9.867 1.986 C 8.565 1.979, 6.447 1.691, 5.160 1.346 C 3.070 0.787, 2.845 1.029, 3.053 3.610 C 3.182 5.199, 2.885 7.400, 2.394 8.500 C 1.675 10.109, 1.384 9.521, 0.907 5.500 C 0.362 0.901, 0.301 1.102, 0.155 8 M 19.374 2.467 C 19.065 3.274, 19.043 4.511, 19.327 5.217 C 19.610 5.923, 19.878 5.525, 19.921 4.333 C 19.964 3.142, 20.563 1.940, 21.250 1.662 C 22.229 1.267, 22.222 1.141, 21.219 1.079 C 20.514 1.036, 19.684 1.660, 19.374 2.467 M 24.269 2.693 C 25.242 2.947, 26.592 2.930, 27.269 2.656 C 27.946 2.382, 27.150 2.175, 25.500 2.195 C 23.850 2.215, 23.296 2.439, 24.269 2.693 M 4.813 3.683 C 5.534 3.972, 6.397 3.936, 6.729 3.604 C 7.061 3.272, 6.471 3.036, 5.417 3.079 C 4.252 3.127, 4.015 3.364, 4.813 3.683 M 21.813 4.683 C 22.534 4.972, 23.397 4.936, 23.729 4.604 C 24.061 4.272, 23.471 4.036, 22.417 4.079 C 21.252 4.127, 21.015 4.364, 21.813 4.683 M 6.269 6.693 C 7.242 6.947, 8.592 6.930, 9.269 6.656 C 9.946 6.382, 9.150 6.175, 7.500 6.195 C 5.850 6.215, 5.296 6.439, 6.269 6.693 M 18.345 8.543 C 17.445 10.889, 18.417 11.164, 19.796 8.955 C 20.569 7.717, 20.635 7, 19.977 7 C 19.405 7, 18.671 7.694, 18.345 8.543 M 23.269 7.693 C 24.242 7.947, 25.592 7.930, 26.269 7.656 C 26.946 7.382, 26.150 7.175, 24.500 7.195 C 22.850 7.215, 22.296 7.439, 23.269 7.693 M 10.638 9.500 C 10.242 10.533, 8.628 11, 5.448 11 C -0.544 11, -0.128 13.370, 5.942 13.813 C 11.217 14.198, 13.794 13.394, 12.245 11.845 C 11.646 11.246, 11.394 10.136, 11.685 9.378 C 11.976 8.620, 11.989 8, 11.714 8 C 11.439 8, 10.955 8.675, 10.638 9.500 M 29.932 10.500 C 29.525 13.328, 29.185 13.534, 24 14.087 L 18.500 14.674 23.628 14.837 C 29.344 15.019, 31.403 13.566, 30.759 9.805 C 30.417 7.804, 30.307 7.896, 29.932 10.500 M 7 12 L 3.500 12.737 6.691 12.868 C 8.446 12.941, 10.160 12.550, 10.500 12 C 10.840 11.450, 10.979 11.059, 10.809 11.132 C 10.639 11.204, 8.925 11.595, 7 12 M 21.250 12.689 C 22.212 12.941, 23.788 12.941, 24.750 12.689 C 25.712 12.438, 24.925 12.232, 23 12.232 C 21.075 12.232, 20.288 12.438, 21.250 12.689" stroke="none" fill="black" fill-rule="evenodd"/>
</svg>