<svg xmlns="http://www.w3.org/2000/svg" width="32" height="16" viewBox="0 0 32 16" version="1.1">
	<path d="M 0 8.144 L 0 16.287 13.102 15.756 C 24.646 15.288, 26.580 14.954, 29.352 12.954 L 32.500 10.683 30 13.437 L 27.500 16.191 30 15.845 C 32.392 15.515, 32.513 15.165, 32.792 7.750 L 33.084 0 16.542 0 L 0 0 0 8.144 M 0.343 8.500 C 0.346 12.900, 0.522 14.576, 0.733 12.224 C 0.945 9.872, 0.942 6.272, 0.727 4.224 C 0.512 2.176, 0.339 4.100, 0.343 8.500 M 6 2.893 C 6 4.567, 6.616 5, 9 5 C 11 5, 12 4.500, 12 3.500 C 12 2.675, 11.362 2, 10.582 2 C 9.802 2, 8.452 1.727, 7.582 1.393 C 6.448 0.958, 6 1.383, 6 2.893 M 22.345 2.543 C 22.019 3.392, 22.034 4.367, 22.376 4.710 C 22.719 5.053, 23 4.621, 23 3.750 C 23 2.879, 23.563 1.940, 24.250 1.662 C 25.229 1.267, 25.222 1.141, 24.219 1.079 C 23.514 1.036, 22.671 1.694, 22.345 2.543 M 7.813 3.683 C 8.534 3.972, 9.397 3.936, 9.729 3.604 C 10.061 3.272, 9.471 3.036, 8.417 3.079 C 7.252 3.127, 7.015 3.364, 7.813 3.683 M 13.116 4.750 C 13.052 5.438, 11.539 6.061, 9.750 6.136 C 7.400 6.235, 7.123 6.392, 8.750 6.706 C 9.996 6.946, 11 7.873, 11 8.784 C 11 10.290, 11.135 10.294, 12.596 8.832 C 13.474 7.955, 13.976 6.396, 13.712 5.368 C 13.448 4.341, 13.180 4.063, 13.116 4.750 M 24.813 4.683 C 25.534 4.972, 26.397 4.936, 26.729 4.604 C 27.061 4.272, 26.471 4.036, 25.417 4.079 C 24.252 4.127, 24.015 4.364, 24.813 4.683 M 29 5 C 29 5.550, 27.845 6, 26.434 6 C 23.402 6, 20 7.643, 20 9.107 C 20 9.677, 20.707 9.436, 21.571 8.571 C 22.436 7.707, 24.686 7, 26.571 7 C 28.952 7, 30 6.542, 30 5.500 C 30 4.675, 29.775 4, 29.500 4 C 29.225 4, 29 4.450, 29 5 M 4 8.393 C 4 9.512, 4.911 10, 7 10 C 8.650 10, 10 9.550, 10 9 C 10 8.450, 9.362 8, 8.582 8 C 7.802 8, 6.452 7.727, 5.582 7.393 C 4.544 6.995, 4 7.338, 4 8.393 M 28.573 10.521 C 27.513 11.323, 26.878 12.212, 27.162 12.496 C 27.447 12.780, 28.496 12.110, 29.494 11.006 C 31.621 8.657, 31.277 8.476, 28.573 10.521 M 18 11.776 C 18 12.203, 19.800 12.381, 22 12.171 C 24.200 11.962, 26 11.612, 26 11.395 C 26 11.178, 24.200 11, 22 11 C 19.800 11, 18 11.349, 18 11.776" stroke="none" fill="black" fill-rule="evenodd"/>
</svg>