<svg xmlns="http://www.w3.org/2000/svg" width="483" height="265" viewBox="0 0 483 265" version="1.1">
	<path d="M 124.994 59.876 C 120.053 61.494, 116.244 63.958, 113.035 67.612 L 109.774 71.327 116.137 74.176 C 124.678 77.999, 131.138 81.535, 131.277 82.461 C 131.436 83.530, 122.637 98.995, 121.868 98.998 C 121.520 98.999, 116.575 96.767, 110.880 94.038 C 105.184 91.309, 100.228 89.396, 99.866 89.788 C 98.861 90.876, 65.954 149.301, 66.245 149.481 C 66.385 149.568, 68.392 150.182, 70.705 150.846 C 76.550 152.524, 80.736 156.352, 82.162 161.324 C 82.821 163.621, 83.445 165.628, 83.548 165.785 C 83.652 165.941, 85.619 165.646, 87.919 165.129 C 93.397 163.899, 97.625 165.131, 102.635 169.420 L 106.640 172.847 124.530 141.174 C 134.370 123.753, 143.840 107.250, 145.574 104.500 C 147.308 101.750, 149.983 97.025, 151.520 94 C 159.438 78.409, 149.775 60.738, 132.622 59.442 C 129.805 59.230, 126.372 59.425, 124.994 59.876 M 399.500 64.378 C 390.559 67.302, 380.995 72.160, 383 72.760 C 387.273 74.039, 398 79.429, 398 80.298 C 398 80.849, 396.204 84.414, 394.010 88.221 L 390.020 95.142 393.260 99.174 C 396.192 102.823, 396.500 103.844, 396.500 109.931 C 396.500 115.716, 396.118 117.156, 393.767 120.239 C 389.371 126.002, 381.127 128.245, 374 125.617 C 372.892 125.209, 369.753 129.903, 362 143.563 C 356.225 153.737, 351.211 162.559, 350.858 163.166 C 350.434 163.894, 348.342 163.198, 344.718 161.125 C 340.068 158.464, 339.129 158.221, 338.620 159.547 C 337.815 161.647, 341.271 164.701, 349.286 168.972 C 354.859 171.942, 356.142 172.278, 358.151 171.300 C 359.443 170.670, 361.727 169.890, 363.228 169.564 C 366.555 168.843, 366.891 169.877, 367.249 181.955 L 367.500 190.410 376.600 179.455 C 381.606 173.430, 386.218 167.517, 386.850 166.316 C 388.457 163.263, 388.283 157.447, 386.480 153.961 C 384.990 151.080, 385.048 150.913, 389.415 145.552 C 406.261 124.869, 411.312 111.780, 411.429 88.500 C 411.502 74.174, 409.740 61.959, 407.613 62.045 C 407.001 62.069, 403.350 63.119, 399.500 64.378 M 372.451 101.250 C 361.586 111.281, 373.684 127.386, 386.935 120.534 C 390.203 118.844, 393 113.955, 393 109.933 C 393 106.431, 390.161 101.526, 387.080 99.706 C 382.260 96.859, 376.554 97.462, 372.451 101.250 M 230 107.500 L 230 116 221 116 L 212 116 212 121 L 212 126 221 126 L 230 126 230 134.500 L 230 143 234.500 143 L 239 143 239 134.500 L 239 126 247.500 126 L 256 126 256 121 L 256 116 247.500 116 L 239 116 239 107.500 L 239 99 234.500 99 L 230 99 230 107.500 M 333.500 128.842 C 331.850 129.850, 329.954 131.338, 329.286 132.147 C 327.907 133.818, 317.717 161.050, 318.265 161.598 C 318.462 161.795, 321.861 159.941, 325.818 157.478 C 329.776 155.015, 333.858 153, 334.890 153 C 336.907 153, 337.959 150.459, 337.994 145.500 C 338.006 143.850, 338.850 139.012, 339.870 134.750 L 341.725 127 339.112 127.004 C 337.676 127.006, 335.150 127.833, 333.500 128.842 M 339.656 170.133 C 336.848 171.765, 335.137 176.923, 334.376 186.046 L 333.686 194.312 338.554 190.963 C 348.142 184.366, 351 181.150, 351 176.956 C 351 170.879, 344.794 167.146, 339.656 170.133 M 68.702 182.750 C 69.420 190.227, 69.340 190.164, 74.929 187.708 C 77.692 186.493, 79.963 185.172, 79.976 184.770 C 80 184.054, 70.103 178.028, 68.873 178.009 C 68.528 178.004, 68.451 180.137, 68.702 182.750" stroke="none" fill="black" fill-rule="evenodd"/>
</svg>