<svg xmlns="http://www.w3.org/2000/svg" width="32" height="16" viewBox="0 0 32 16" version="1.1">
	<path d="M 0 8 L 0 16 13.941 16 C 23.053 16, 28.119 15.617, 28.566 14.893 C 29.053 14.106, 29.470 14.143, 30.013 15.021 C 31.731 17.802, 33 14.582, 33 7.441 L 33 0 16.500 0 L 0 0 0 8 M 0.343 8.500 C 0.346 12.900, 0.522 14.576, 0.733 12.224 C 0.945 9.872, 0.942 6.272, 0.727 4.224 C 0.512 2.176, 0.339 4.100, 0.343 8.500 M 9 4.500 C 9 7.722, 9.238 8, 12 8 C 14.333 8, 15 7.556, 15 6 C 15 4.889, 14.333 4, 13.500 4 C 12.675 4, 12 3.325, 12 2.500 C 12 1.675, 11.325 1, 10.500 1 C 9.452 1, 9 2.056, 9 4.500 M 13 2 C 13 2.550, 13.477 3, 14.059 3 C 14.641 3, 14.840 2.550, 14.500 2 C 14.160 1.450, 13.684 1, 13.441 1 C 13.198 1, 13 1.450, 13 2 M 25.150 4.750 C 25.286 8.151, 25.341 8.221, 25.740 5.503 C 25.982 3.855, 26.702 2.174, 27.340 1.769 C 28.093 1.290, 27.886 1.025, 26.750 1.015 C 25.365 1.003, 25.031 1.783, 25.150 4.750 M 23.079 6.583 C 23.127 7.748, 23.364 7.985, 23.683 7.188 C 23.972 6.466, 23.936 5.603, 23.604 5.271 C 23.272 4.939, 23.036 5.529, 23.079 6.583 M 11.269 10.693 C 12.242 10.947, 13.592 10.930, 14.269 10.656 C 14.946 10.382, 14.150 10.175, 12.500 10.195 C 10.850 10.215, 10.296 10.439, 11.269 10.693 M 20.139 12.086 C 18.531 13.390, 18.253 14, 19.267 14 C 20.764 14, 23.624 11.288, 22.893 10.562 C 22.677 10.348, 21.438 11.033, 20.139 12.086 M 27.269 10.693 C 28.242 10.947, 29.592 10.930, 30.269 10.656 C 30.946 10.382, 30.150 10.175, 28.500 10.195 C 26.850 10.215, 26.296 10.439, 27.269 10.693 M 28.750 12.662 C 29.438 12.940, 30.563 12.940, 31.250 12.662 C 31.938 12.385, 31.375 12.158, 30 12.158 C 28.625 12.158, 28.063 12.385, 28.750 12.662" stroke="none" fill="black" fill-rule="evenodd"/>
</svg>