<svg xmlns="http://www.w3.org/2000/svg" width="32" height="16" viewBox="0 0 32 16" version="1.1">
	<path d="M 0 8 L 0 16 14.952 16 L 29.905 16 30.260 9.750 L 30.615 3.500 30.807 9.809 C 31.081 18.762, 33 16.690, 33 7.441 L 33 0 16.500 0 L 0 0 0 8 M 0.343 8.500 C 0.346 12.900, 0.522 14.576, 0.733 12.224 C 0.945 9.872, 0.942 6.272, 0.727 4.224 C 0.512 2.176, 0.339 4.100, 0.343 8.500 M 3.750 1.706 C 4.988 1.944, 7.012 1.944, 8.250 1.706 C 9.488 1.467, 8.475 1.272, 6 1.272 C 3.525 1.272, 2.512 1.467, 3.750 1.706 M 19.750 1.706 C 20.988 1.944, 23.012 1.944, 24.250 1.706 C 25.488 1.467, 24.475 1.272, 22 1.272 C 19.525 1.272, 18.512 1.467, 19.750 1.706 M 11 3 C 11 3.550, 11.477 4, 12.059 4 C 12.641 4, 12.840 3.550, 12.500 3 C 12.160 2.450, 11.684 2, 11.441 2 C 11.198 2, 11 2.450, 11 3 M 2.070 5.750 C 2.133 8.187, 2.238 8.272, 3 6.500 C 3.820 4.592, 3.863 4.603, 3.930 6.750 C 3.968 7.988, 3.550 9, 3 9 C 2.450 9, 2 10.350, 2 12 C 2 14.970, 2.056 15, 7.500 15 L 13 15 12.900 9.750 C 12.841 6.624, 12.537 5.309, 12.150 6.500 C 11.274 9.194, 9 9.513, 9 6.941 C 9 5.809, 9.445 5.157, 9.989 5.493 C 10.555 5.843, 10.723 5.442, 10.382 4.552 C 9.984 3.517, 8.489 3, 5.893 3 C 2.296 3, 2.005 3.209, 2.070 5.750 M 18.136 5.750 C 18.249 8.021, 18.346 8.118, 18.698 6.307 C 19.026 4.618, 19.973 4.024, 22.812 3.725 L 26.500 3.336 22.250 3.168 C 18.210 3.008, 18.007 3.136, 18.136 5.750 M 5.639 5.694 C 4.463 6.870, 4.983 8.667, 6.500 8.667 C 7.325 8.667, 8 8.093, 8 7.392 C 8 5.859, 6.531 4.802, 5.639 5.694 M 28.195 7.500 C 28.215 9.150, 28.439 9.704, 28.693 8.731 C 28.947 7.758, 28.930 6.408, 28.656 5.731 C 28.382 5.054, 28.175 5.850, 28.195 7.500 M 20.116 7.250 C 20.052 8.213, 19.550 9, 19 9 C 18.450 9, 18.061 10.462, 18.136 12.250 C 18.251 15.002, 18.344 15.117, 18.737 13 C 18.993 11.625, 19.651 10.221, 20.199 9.880 C 20.748 9.539, 20.980 8.414, 20.714 7.380 C 20.292 5.733, 20.218 5.717, 20.116 7.250 M 24.079 8.583 C 24.127 9.748, 24.364 9.985, 24.683 9.188 C 24.972 8.466, 24.936 7.603, 24.604 7.271 C 24.272 6.939, 24.036 7.529, 24.079 8.583 M 6.923 10.250 C 6.217 12.557, 6.437 14, 7.495 14 C 8.320 14, 8.617 13.253, 8.290 12 C 7.839 10.277, 7.175 9.427, 6.923 10.250 M 23.813 14.683 C 24.534 14.972, 25.397 14.936, 25.729 14.604 C 26.061 14.272, 25.471 14.036, 24.417 14.079 C 23.252 14.127, 23.015 14.364, 23.813 14.683" stroke="none" fill="black" fill-rule="evenodd"/>
</svg>