<svg xmlns="http://www.w3.org/2000/svg" width="32" height="16" viewBox="0 0 32 16" version="1.1">
	<path d="M 0 3.427 C 0 5.849, 0.513 6.987, 1.750 7.311 C 3.417 7.746, 3.417 7.774, 1.750 7.884 C 0.394 7.974, 0 8.901, 0 12 L 0 16 11.927 16 C 22.445 16, 23.907 15.793, 24.311 14.250 C 24.733 12.634, 24.777 12.638, 24.884 14.310 C 24.978 15.775, 25.716 16.062, 28.750 15.810 L 32.500 15.500 32.717 7.750 L 32.934 -0 20.540 -0 C 9.578 -0, 8.094 0.202, 7.689 1.750 C 7.254 3.417, 7.226 3.417, 7.116 1.750 C 7.029 0.439, 6.122 0, 3.500 0 C 0.181 0, 0 0.177, 0 3.427 M 0.150 4.250 C 0.293 7.364, 0.317 7.382, 0.722 4.688 C 1.093 2.218, 1.349 2.035, 2.822 3.188 C 4.327 4.365, 4.359 4.320, 3.128 2.750 C 1.051 0.102, -0.017 0.639, 0.150 4.250 M 11.872 2.750 C 10.629 4.336, 10.664 4.371, 12.250 3.128 C 13.213 2.373, 14 1.585, 14 1.378 C 14 0.555, 13.179 1.084, 11.872 2.750 M 24.079 2.583 C 24.127 3.748, 24.364 3.985, 24.683 3.188 C 24.972 2.466, 24.936 1.603, 24.604 1.271 C 24.272 0.939, 24.036 1.529, 24.079 2.583 M 28.872 3.750 C 27.629 5.336, 27.664 5.371, 29.250 4.128 C 30.916 2.821, 31.445 2, 30.622 2 C 30.415 2, 29.627 2.788, 28.872 3.750 M 5.046 5.444 C 2.345 8.699, 6.815 12.614, 9.811 9.618 C 11.084 8.344, 11.215 7.563, 10.376 6.231 C 8.916 3.913, 6.601 3.571, 5.046 5.444 M 12.813 7.683 C 13.534 7.972, 14.397 7.936, 14.729 7.604 C 15.061 7.272, 14.471 7.036, 13.417 7.079 C 12.252 7.127, 12.015 7.364, 12.813 7.683 M 25.286 9.750 C 23.860 11.199, 23.549 12, 24.413 12 C 25.975 12, 28.348 9.430, 27.845 8.284 C 27.655 7.853, 26.504 8.512, 25.286 9.750 M 0.150 11.917 C 0.067 14.346, 0.117 16.146, 0.261 15.917 C 0.404 15.687, 1.417 14.383, 2.511 13.017 C 3.911 11.269, 4.004 10.918, 2.822 11.830 C 1.354 12.963, 1.092 12.774, 0.722 10.312 C 0.427 8.346, 0.255 8.829, 0.150 11.917 M 17.813 8.683 C 18.534 8.972, 19.397 8.936, 19.729 8.604 C 20.061 8.272, 19.471 8.036, 18.417 8.079 C 17.252 8.127, 17.015 8.364, 17.813 8.683 M 29.813 8.683 C 30.534 8.972, 31.397 8.936, 31.729 8.604 C 32.061 8.272, 31.471 8.036, 30.417 8.079 C 29.252 8.127, 29.015 8.364, 29.813 8.683 M 11 11.378 C 11 11.585, 11.787 12.373, 12.750 13.128 C 14.336 14.371, 14.371 14.336, 13.128 12.750 C 11.821 11.084, 11 10.555, 11 11.378 M 7.079 13.583 C 7.127 14.748, 7.364 14.985, 7.683 14.188 C 7.972 13.466, 7.936 12.603, 7.604 12.271 C 7.272 11.939, 7.036 12.529, 7.079 13.583 M 18.872 13.750 C 17.629 15.336, 17.664 15.371, 19.250 14.128 C 20.916 12.821, 21.445 12, 20.622 12 C 20.415 12, 19.627 12.787, 18.872 13.750" stroke="none" fill="black" fill-rule="evenodd"/>
</svg>