<svg xmlns="http://www.w3.org/2000/svg" width="32" height="16" viewBox="0 0 32 16" version="1.1">
	<path d="M 0 8 L 0 16 14.250 15.986 C 33.903 15.968, 33 16.382, 33 7.383 L 33 0 16.500 0 L 0 0 0 8 M 0.343 8.500 C 0.346 12.900, 0.522 14.576, 0.733 12.224 C 0.945 9.872, 0.942 6.272, 0.727 4.224 C 0.512 2.176, 0.339 4.100, 0.343 8.500 M 24.250 5.723 C 21.984 6.005, 21.024 6.637, 21.079 7.813 C 21.128 8.854, 21.351 9.021, 21.662 8.250 C 21.940 7.563, 23.479 7, 25.083 7 C 26.688 7, 28 6.550, 28 6 C 28 5.450, 27.887 5.072, 27.750 5.160 C 27.613 5.248, 26.038 5.502, 24.250 5.723 M 29.500 6 C 29.160 6.550, 29.359 7, 29.941 7 C 30.523 7, 31 6.550, 31 6 C 31 5.450, 30.802 5, 30.559 5 C 30.316 5, 29.840 5.450, 29.500 6 M 20.500 13 L 17.500 13.763 20.750 13.882 C 22.538 13.947, 24 13.550, 24 13 C 24 12.450, 23.887 12.053, 23.750 12.118 C 23.613 12.183, 22.150 12.580, 20.500 13" stroke="none" fill="black" fill-rule="evenodd"/>
</svg>