<svg xmlns="http://www.w3.org/2000/svg" width="32" height="16" viewBox="0 0 32 16" version="1.1">
	<path d="M 0 8 L 0 16 9 16 C 16.333 16, 18 15.722, 18 14.500 C 18 13.675, 18.436 13, 18.969 13 C 19.501 13, 19.670 13.697, 19.343 14.549 C 18.836 15.871, 19.754 16.053, 25.624 15.799 L 32.500 15.500 32.792 7.750 L 33.084 0 16.542 0 L 0 0 0 8 M 0.196 8.750 L 0.392 16.500 0.742 9.750 C 1.011 4.544, 1.438 3, 2.605 3 C 3.437 3, 3.840 2.550, 3.500 2 C 3.160 1.450, 2.234 1, 1.441 1 C 0.293 1, 0.040 2.578, 0.196 8.750 M 21 3 C 21 3.550, 20.325 4, 19.500 4 C 18.675 4, 18.036 4.787, 18.079 5.750 C 18.126 6.795, 18.361 6.997, 18.662 6.250 C 18.940 5.563, 19.804 5, 20.583 5 C 21.363 5, 22 4.325, 22 3.500 C 22 2.675, 21.775 2, 21.500 2 C 21.225 2, 21 2.450, 21 3 M 26.813 4.683 C 27.534 4.972, 28.397 4.936, 28.729 4.604 C 29.061 4.272, 28.471 4.036, 27.417 4.079 C 26.252 4.127, 26.015 4.364, 26.813 4.683 M 5 7 C 5 7.550, 5.702 8, 6.559 8 C 7.416 8, 7.840 7.550, 7.500 7 C 7.160 6.450, 6.459 6, 5.941 6 C 5.423 6, 5 6.450, 5 7 M 25 7.930 C 25 8.442, 23.988 9.056, 22.750 9.294 C 20.821 9.666, 20.892 9.747, 23.250 9.864 C 25.088 9.955, 26 9.503, 26 8.500 C 26 7.675, 25.775 7, 25.500 7 C 25.225 7, 25 7.419, 25 7.930 M 18 10 C 18 11.100, 18.173 12, 18.383 12 C 18.594 12, 19.002 11.100, 19.290 10 C 19.577 8.900, 19.405 8, 18.906 8 C 18.408 8, 18 8.900, 18 10 M 5 12 C 5 12.550, 5.702 13, 6.559 13 C 7.416 13, 7.840 12.550, 7.500 12 C 7.160 11.450, 6.459 11, 5.941 11 C 5.423 11, 5 11.450, 5 12 M 25 12.930 C 25 13.442, 23.988 14.056, 22.750 14.294 C 20.821 14.666, 20.892 14.747, 23.250 14.864 C 25.088 14.955, 26 14.503, 26 13.500 C 26 12.675, 25.775 12, 25.500 12 C 25.225 12, 25 12.419, 25 12.930" stroke="none" fill="black" fill-rule="evenodd"/>
</svg>