<svg xmlns="http://www.w3.org/2000/svg" width="32" height="16" viewBox="0 0 32 16" version="1.1">
	<path d="M 0 8 L 0 16 7.250 15.993 C 11.238 15.989, 17.515 15.701, 21.201 15.353 L 27.902 14.720 28.271 10.110 L 28.640 5.500 28.820 10.823 C 28.971 15.302, 29.278 16.094, 30.750 15.812 C 32.206 15.535, 32.549 14.177, 32.792 7.739 L 33.084 0 16.542 0 L 0 0 0 8 M 0.343 8.500 C 0.346 12.900, 0.522 14.576, 0.733 12.224 C 0.945 9.872, 0.942 6.272, 0.727 4.224 C 0.512 2.176, 0.339 4.100, 0.343 8.500 M 4 8.500 L 4 14 8 14 L 12 14 12 10 C 12 7.111, 11.583 6, 10.500 6 C 9.675 6, 9 5.325, 9 4.500 C 9 3.567, 8.056 3, 6.500 3 C 4.136 3, 4 3.300, 4 8.500 M 19.185 8.750 L 19.370 14.500 19.735 9.313 C 20.045 4.910, 20.433 4.061, 22.300 3.699 C 24.125 3.345, 24.032 3.249, 21.750 3.136 C 19.033 3.002, 19.002 3.069, 19.185 8.750 M 5.813 6.683 C 6.534 6.972, 7.397 6.936, 7.729 6.604 C 8.061 6.272, 7.471 6.036, 6.417 6.079 C 5.252 6.127, 5.015 6.364, 5.813 6.683 M 21.813 7.683 C 22.534 7.972, 23.397 7.936, 23.729 7.604 C 24.061 7.272, 23.471 7.036, 22.417 7.079 C 21.252 7.127, 21.015 7.364, 21.813 7.683 M 6.250 8.689 C 7.213 8.941, 8.787 8.941, 9.750 8.689 C 10.713 8.438, 9.925 8.232, 8 8.232 C 6.075 8.232, 5.287 8.438, 6.250 8.689 M 22.250 9.689 C 23.212 9.941, 24.788 9.941, 25.750 9.689 C 26.712 9.438, 25.925 9.232, 24 9.232 C 22.075 9.232, 21.288 9.438, 22.250 9.689 M 6.250 10.689 C 7.213 10.941, 8.787 10.941, 9.750 10.689 C 10.713 10.438, 9.925 10.232, 8 10.232 C 6.075 10.232, 5.287 10.438, 6.250 10.689 M 22.250 11.689 C 23.212 11.941, 24.788 11.941, 25.750 11.689 C 26.712 11.438, 25.925 11.232, 24 11.232 C 22.075 11.232, 21.288 11.438, 22.250 11.689 M 5.750 12.662 C 6.438 12.940, 7.563 12.940, 8.250 12.662 C 8.938 12.385, 8.375 12.158, 7 12.158 C 5.625 12.158, 5.063 12.385, 5.750 12.662 M 21.750 13.662 C 22.438 13.940, 23.563 13.940, 24.250 13.662 C 24.938 13.385, 24.375 13.158, 23 13.158 C 21.625 13.158, 21.063 13.385, 21.750 13.662" stroke="none" fill="black" fill-rule="evenodd"/>
</svg>