<svg xmlns="http://www.w3.org/2000/svg" width="32" height="16" viewBox="0 0 32 16" version="1.1">
	<path d="M 0 8.021 L 0 16.043 16.250 15.771 L 32.500 15.500 32.792 7.750 L 33.084 0 16.542 0 L 0 0 0 8.021 M 0.100 8.750 C 0.169 14.160, 0.441 15.745, 1 14 C 2.169 10.350, 2.169 1, 1 1 C 0.411 1, 0.041 4.184, 0.100 8.750 M 17.310 6.500 C 17.315 9.800, 17.502 11.029, 17.725 9.232 C 17.947 7.435, 17.943 4.735, 17.715 3.232 C 17.486 1.729, 17.304 3.200, 17.310 6.500 M 3.310 7.500 C 3.315 10.800, 3.502 12.029, 3.725 10.232 C 3.947 8.435, 3.943 5.735, 3.715 4.232 C 3.486 2.729, 3.304 4.200, 3.310 7.500 M 19.310 7.500 C 19.315 10.800, 19.502 12.029, 19.725 10.232 C 19.947 8.435, 19.943 5.735, 19.715 4.232 C 19.486 2.729, 19.304 4.200, 19.310 7.500 M 5.310 8.500 C 5.315 11.800, 5.502 13.029, 5.725 11.232 C 5.947 9.435, 5.943 6.735, 5.715 5.232 C 5.486 3.729, 5.304 5.200, 5.310 8.500 M 21.310 8.500 C 21.315 11.800, 21.502 13.029, 21.725 11.232 C 21.947 9.435, 21.943 6.735, 21.715 5.232 C 21.486 3.729, 21.304 5.200, 21.310 8.500 M 7 9.500 L 7 15 11 15 L 15 15 15 11 C 15 8.111, 14.583 7, 13.500 7 C 12.675 7, 12 6.325, 12 5.500 C 12 4.567, 11.056 4, 9.500 4 C 7.136 4, 7 4.300, 7 9.500 M 23.185 9.750 L 23.370 15.500 23.735 10.313 C 24.045 5.910, 24.433 5.061, 26.300 4.699 C 28.125 4.345, 28.032 4.249, 25.750 4.136 C 23.033 4.002, 23.002 4.069, 23.185 9.750 M 8.813 7.683 C 9.534 7.972, 10.397 7.936, 10.729 7.604 C 11.061 7.272, 10.471 7.036, 9.417 7.079 C 8.252 7.127, 8.015 7.364, 8.813 7.683 M 25.813 8.683 C 26.534 8.972, 27.397 8.936, 27.729 8.604 C 28.061 8.272, 27.471 8.036, 26.417 8.079 C 25.252 8.127, 25.015 8.364, 25.813 8.683 M 9.250 9.689 C 10.213 9.941, 11.787 9.941, 12.750 9.689 C 13.713 9.438, 12.925 9.232, 11 9.232 C 9.075 9.232, 8.287 9.438, 9.250 9.689 M 26.250 10.689 C 27.212 10.941, 28.788 10.941, 29.750 10.689 C 30.712 10.438, 29.925 10.232, 28 10.232 C 26.075 10.232, 25.288 10.438, 26.250 10.689 M 9.250 11.689 C 10.213 11.941, 11.787 11.941, 12.750 11.689 C 13.713 11.438, 12.925 11.232, 11 11.232 C 9.075 11.232, 8.287 11.438, 9.250 11.689 M 26.250 12.689 C 27.212 12.941, 28.788 12.941, 29.750 12.689 C 30.712 12.438, 29.925 12.232, 28 12.232 C 26.075 12.232, 25.288 12.438, 26.250 12.689 M 8.750 13.662 C 9.438 13.940, 10.563 13.940, 11.250 13.662 C 11.938 13.385, 11.375 13.158, 10 13.158 C 8.625 13.158, 8.063 13.385, 8.750 13.662 M 25.750 14.662 C 26.438 14.940, 27.563 14.940, 28.250 14.662 C 28.938 14.385, 28.375 14.158, 27 14.158 C 25.625 14.158, 25.063 14.385, 25.750 14.662" stroke="none" fill="black" fill-rule="evenodd"/>
</svg>