<svg xmlns="http://www.w3.org/2000/svg" width="32" height="16" viewBox="0 0 32 16" version="1.1">
	<path d="M 0 8 L 0 16 14.458 16 L 28.916 16 29.257 8.250 L 29.598 0.500 29.799 8.333 C 29.947 14.086, 30.332 16.057, 31.250 15.753 C 32.069 15.482, 32.601 12.697, 32.792 7.670 L 33.084 0 16.542 0 L 0 0 0 8 M 0.343 8.500 C 0.346 12.900, 0.522 14.576, 0.733 12.224 C 0.945 9.872, 0.942 6.272, 0.727 4.224 C 0.512 2.176, 0.339 4.100, 0.343 8.500 M 19.196 8.250 L 19.392 15.500 19.740 8.805 L 20.089 2.111 24.294 1.730 L 28.500 1.349 23.750 1.175 L 19 1 19.196 8.250 M 5 4.500 C 5 5.433, 5.944 6, 7.500 6 C 9.056 6, 10 5.433, 10 4.500 C 10 3.567, 9.056 3, 7.500 3 C 5.944 3, 5 3.567, 5 4.500 M 22.813 4.683 C 23.534 4.972, 24.397 4.936, 24.729 4.604 C 25.061 4.272, 24.471 4.036, 23.417 4.079 C 22.252 4.127, 22.015 4.364, 22.813 4.683 M 26 4.930 C 26 5.442, 24.988 6.056, 23.750 6.294 C 21.821 6.666, 21.892 6.747, 24.250 6.864 C 26.088 6.955, 27 6.503, 27 5.500 C 27 4.675, 26.775 4, 26.500 4 C 26.225 4, 26 4.419, 26 4.930" stroke="none" fill="black" fill-rule="evenodd"/>
</svg>