<svg xmlns="http://www.w3.org/2000/svg" width="32" height="16" viewBox="0 0 32 16" version="1.1">
	<path d="M 0 8 L 0 16 14.458 16 L 28.916 16 29.257 8.250 L 29.598 0.500 29.799 8.333 C 29.947 14.086, 30.332 16.057, 31.250 15.753 C 32.069 15.482, 32.601 12.697, 32.792 7.670 L 33.084 0 16.542 0 L 0 0 0 8 M 0.343 8.500 C 0.346 12.900, 0.522 14.576, 0.733 12.224 C 0.945 9.872, 0.942 6.272, 0.727 4.224 C 0.512 2.176, 0.339 4.100, 0.343 8.500 M 4 2.059 C 4 2.641, 4.450 2.840, 5 2.500 C 5.550 2.160, 6 1.684, 6 1.441 C 6 1.198, 5.550 1, 5 1 C 4.450 1, 4 1.477, 4 2.059 M 6.894 3.250 C 6.836 4.488, 6.873 6.773, 6.978 8.329 C 7.082 9.885, 6.385 12.022, 5.429 13.079 C 3.740 14.944, 3.810 15, 7.845 15 L 12 15 12 8 C 12 1.200, 11.929 1, 9.500 1 C 7.605 1, 6.974 1.545, 6.894 3.250 M 19.328 7.500 C 19.333 11.350, 19.513 12.802, 19.730 10.728 C 19.946 8.653, 19.943 5.503, 19.722 3.728 C 19.501 1.952, 19.324 3.650, 19.328 7.500 M 23.116 3.250 C 23.198 4.844, 23.362 5.008, 23.677 3.811 C 23.922 2.883, 25.108 1.932, 26.311 1.698 C 28.113 1.348, 28.014 1.248, 25.750 1.136 C 23.494 1.024, 23.021 1.404, 23.116 3.250 M 23 9.300 C 23 11.115, 22.438 13.231, 21.750 14.002 C 20.697 15.182, 20.760 15.208, 22.145 14.167 C 23.835 12.896, 25.232 6, 23.799 6 C 23.360 6, 23 7.485, 23 9.300" stroke="none" fill="black" fill-rule="evenodd"/>
</svg>