<svg xmlns="http://www.w3.org/2000/svg" width="32" height="16" viewBox="0 0 32 16" version="1.1">
	<path d="M 0.314 8.022 L 0.500 16.044 16.417 15.772 L 32.333 15.500 32.590 7.750 L 32.846 -0 16.488 -0 L 0.129 -0 0.314 8.022 M 0.232 4 C 0.232 5.925, 0.438 6.713, 0.689 5.750 C 0.941 4.787, 0.941 3.212, 0.689 2.250 C 0.438 1.288, 0.232 2.075, 0.232 4 M 7 2.622 C 7 4.012, 6.749 4.052, 5.250 2.903 C 4.287 2.165, 4.591 2.784, 5.924 4.280 C 8.495 7.164, 9.599 7.823, 8.387 5.750 C 7.985 5.063, 8.675 5.395, 9.921 6.489 C 11.166 7.583, 12.628 9.304, 13.168 10.315 C 14.030 11.925, 13.908 12.021, 12.178 11.095 C 10.546 10.222, 9.923 10.469, 8.579 12.520 L 6.954 15 10.977 15 L 15 15 15 10 C 15 6.222, 14.633 5, 13.500 5 C 12.667 5, 12 4.111, 12 3 C 12 1.533, 11.333 1, 9.500 1 C 7.861 1, 7 1.559, 7 2.622 M 23.015 2.750 C 23.025 3.861, 23.299 4.086, 23.765 3.366 C 24.169 2.742, 25.400 2.007, 26.500 1.732 C 28.033 1.349, 27.858 1.205, 25.750 1.116 C 23.748 1.032, 23.004 1.476, 23.015 2.750 M 13 3 C 13 3.550, 13.477 4, 14.059 4 C 14.641 4, 14.840 3.550, 14.500 3 C 14.160 2.450, 13.684 2, 13.441 2 C 13.198 2, 13 2.450, 13 3 M 2.384 7.442 C 1.247 10.406, 2.468 12.495, 5.509 12.787 C 7.806 13.007, 8.152 12.837, 7 12.052 C 5.740 11.194, 5.820 11.017, 7.500 10.945 L 9.500 10.859 7.500 9.922 C 5.862 9.154, 6.079 9.044, 8.697 9.311 C 10.456 9.491, 11.667 9.270, 11.388 8.819 C 11.110 8.369, 9.221 7.993, 7.191 7.985 C 4.440 7.973, 3.882 7.723, 5 7 C 6.276 6.175, 6.235 6.028, 4.719 6.015 C 3.739 6.007, 2.688 6.649, 2.384 7.442 M 19.250 6.662 C 18.563 6.940, 18.052 8.367, 18.116 9.833 C 18.205 11.887, 18.340 12.040, 18.700 10.500 C 18.958 9.400, 19.892 7.938, 20.775 7.250 C 22.379 6.002, 21.615 5.708, 19.250 6.662 M 22.250 8.689 C 23.212 8.941, 24.788 8.941, 25.750 8.689 C 26.712 8.438, 25.925 8.232, 24 8.232 C 22.075 8.232, 21.288 8.438, 22.250 8.689 M 26 10.762 C 26 11.364, 25.293 12.564, 24.429 13.429 C 23.564 14.293, 23.323 15, 23.893 15 C 25.159 15, 27.390 11.056, 26.581 10.248 C 26.261 9.928, 26 10.160, 26 10.762 M 0.079 14.583 C 0.127 15.748, 0.364 15.985, 0.683 15.188 C 0.972 14.466, 0.936 13.603, 0.604 13.271 C 0.272 12.939, 0.036 13.529, 0.079 14.583 M 17.500 14 C 17.160 14.550, 17.359 15, 17.941 15 C 18.523 15, 19 14.550, 19 14 C 19 13.450, 18.802 13, 18.559 13 C 18.316 13, 17.840 13.450, 17.500 14" stroke="none" fill="black" fill-rule="evenodd"/>
</svg>