<svg xmlns="http://www.w3.org/2000/svg" width="32" height="16" viewBox="0 0 32 16" version="1.1">
	<path d="M 0 8 L 0 16 13.326 16 C 26.241 16, 26.724 15.923, 28.996 13.504 C 31.813 10.506, 33.142 11.075, 30.411 14.110 C 28.526 16.203, 28.527 16.227, 30.500 15.855 C 32.264 15.523, 32.535 14.564, 32.792 7.739 L 33.084 0 16.542 0 L 0 0 0 8 M 0.136 8.889 C 0.211 13.075, 0.467 15.488, 0.706 14.250 C 0.977 12.843, 1.863 12, 3.070 12 C 4.333 12, 5 11.309, 5 10 C 5 8.667, 5.667 8, 7 8 C 8.100 8, 9 7.550, 9 7 C 9 6.450, 8.100 6, 7 6 C 5.708 6, 5 5.333, 5 4.117 C 5 2.902, 4.113 2.064, 2.500 1.755 C 0.001 1.278, 0 1.282, 0.136 8.889 M 17.180 7.250 L 17.360 12.500 17.732 7.813 C 17.999 4.453, 18.585 3, 19.802 2.679 C 21.017 2.359, 20.859 2.199, 19.250 2.116 C 17.166 2.009, 17.013 2.388, 17.180 7.250 M 6 4 C 6 4.550, 6.477 5, 7.059 5 C 7.641 5, 7.840 4.550, 7.500 4 C 7.160 3.450, 6.684 3, 6.441 3 C 6.198 3, 6 3.450, 6 4 M 22.813 6.683 C 23.534 6.972, 24.397 6.936, 24.729 6.604 C 25.061 6.272, 24.471 6.036, 23.417 6.079 C 22.252 6.127, 22.015 6.364, 22.813 6.683 M 19.264 13.718 C 20.784 13.947, 23.034 13.941, 24.264 13.704 C 25.494 13.467, 24.250 13.279, 21.500 13.286 C 18.750 13.294, 17.744 13.488, 19.264 13.718" stroke="none" fill="black" fill-rule="evenodd"/>
</svg>