<svg xmlns="http://www.w3.org/2000/svg" width="16" height="16" viewBox="0 0 16 16" version="1.1">
	<path d="M 0.210 8.130 C 0.177 15.731, 0.256 16, 2.523 16 C 3.814 16, 6.050 15.551, 7.492 15.003 C 9.324 14.307, 9.916 14.327, 9.457 15.069 C 9.025 15.768, 10.119 16.024, 12.650 15.816 C 16.375 15.510, 16.508 15.370, 16.743 11.500 L 16.986 7.500 15.243 10.927 C 14.284 12.812, 12.825 14.526, 12 14.735 C 10.982 14.994, 11.062 14.760, 12.250 14.008 C 14.700 12.458, 14.431 10.978, 11.750 11.262 C 10.326 11.413, 9.601 11.014, 9.775 10.176 C 9.926 9.447, 9.608 9.124, 9.068 9.458 C 8.529 9.791, 8.341 10.725, 8.651 11.532 C 9.007 12.461, 8.602 13, 7.548 13 C 6.531 13, 6.163 12.544, 6.605 11.830 C 7.098 11.032, 6.773 10.873, 5.582 11.330 C 4.622 11.699, 3.622 12, 3.359 12 C 3.097 12, 3.220 12.563, 3.633 13.250 C 4.095 14.019, 3.698 13.943, 2.602 13.053 C 0.986 11.741, 0.968 11.496, 2.410 10.442 C 4.129 9.185, 4.646 7.483, 3 8.500 C 2.450 8.840, 2 8.679, 2 8.142 C 2 7.606, 2.562 6.956, 3.250 6.698 C 4.133 6.367, 3.960 5.814, 2.660 4.812 C 0.995 3.530, 0.970 3.270, 2.398 2.085 C 3.719 0.989, 4.077 1.038, 4.595 2.387 C 4.936 3.274, 5.642 4, 6.166 4 C 6.690 4, 6.840 3.550, 6.500 3 C 6.160 2.450, 6.610 2, 7.500 2 C 8.390 2, 8.840 2.450, 8.500 3 C 8.160 3.550, 8.407 4, 9.048 4 C 9.718 4, 9.946 3.302, 9.584 2.359 C 9.057 0.986, 9.204 0.924, 10.477 1.981 C 11.315 2.676, 12 2.910, 12 2.500 C 12 2.090, 12.670 2.311, 13.489 2.991 C 15.270 4.469, 14.544 6.146, 12.468 5.349 C 11.661 5.040, 11 5.284, 11 5.893 C 11 6.502, 11.675 7, 12.500 7 C 13.325 7, 14 7.498, 14 8.107 C 14 8.716, 13.325 8.955, 12.500 8.638 C 11.675 8.322, 11 8.499, 11 9.031 C 11 9.564, 11.810 10, 12.799 10 C 13.929 10, 15.045 8.765, 15.799 6.679 C 18.101 0.314, 17.896 0.130, 8.622 0.198 L 0.244 0.260 0.210 8.130 M 0.195 3.500 C 0.215 5.150, 0.439 5.704, 0.693 4.731 C 0.947 3.758, 0.930 2.408, 0.656 1.731 C 0.382 1.054, 0.175 1.850, 0.195 3.500 M 5.336 6.567 C 5.005 7.429, 5.219 8.619, 5.811 9.211 C 6.580 9.980, 6.716 9.630, 6.286 7.986 C 5.769 6.009, 5.989 5.764, 7.843 6.249 C 9.031 6.559, 9.751 6.405, 9.442 5.907 C 8.543 4.451, 5.990 4.862, 5.336 6.567 M 0.252 12.500 C 0.263 14.700, 0.468 15.482, 0.707 14.238 C 0.946 12.994, 0.937 11.194, 0.687 10.238 C 0.437 9.282, 0.241 10.300, 0.252 12.500" stroke="none" fill="black" fill-rule="evenodd"/>
</svg>