<svg xmlns="http://www.w3.org/2000/svg" width="32" height="16" viewBox="0 0 32 16" version="1.1">
	<path d="M 0 8 L 0 16 13.186 16 C 25.347 16, 26.551 15.831, 28.686 13.826 C 31.056 11.599, 32.006 12.556, 29.750 14.897 C 28.739 15.946, 28.882 16.126, 30.500 15.836 C 32.266 15.520, 32.534 14.571, 32.792 7.739 L 33.084 0 16.542 0 L 0 0 0 8 M 0.343 8.500 C 0.346 12.900, 0.522 14.576, 0.733 12.224 C 0.945 9.872, 0.942 6.272, 0.727 4.224 C 0.512 2.176, 0.339 4.100, 0.343 8.500 M 6.473 2.044 C 6.008 2.796, 10.658 2.675, 11.419 1.915 C 11.702 1.632, 10.794 1.400, 9.402 1.400 C 8.010 1.400, 6.692 1.690, 6.473 2.044 M 22 2.500 C 18.806 4.326, 19.489 4.334, 24.500 2.529 C 26.700 1.736, 27.600 1.084, 26.500 1.079 C 25.400 1.075, 23.375 1.714, 22 2.500 M 29.667 1.667 C 29.300 2.033, 29.060 4.396, 29.134 6.917 L 29.267 11.500 29.989 6.500 C 30.756 1.178, 30.719 0.615, 29.667 1.667 M 26.667 4.667 C 26.300 5.033, 26.056 7.171, 26.125 9.417 L 26.250 13.500 26.998 9 C 27.789 4.239, 27.739 3.594, 26.667 4.667 M 4.813 5.683 C 5.534 5.972, 6.397 5.936, 6.729 5.604 C 7.061 5.272, 6.471 5.036, 5.417 5.079 C 4.252 5.127, 4.015 5.364, 4.813 5.683 M 21.269 5.693 C 22.242 5.947, 23.592 5.930, 24.269 5.656 C 24.946 5.382, 24.150 5.175, 22.500 5.195 C 20.850 5.215, 20.296 5.439, 21.269 5.693 M 2 9 C 2 10.467, 2.667 11, 4.500 11 C 6.333 11, 7 10.467, 7 9 C 7 7.533, 6.333 7, 4.500 7 C 2.667 7, 2 7.533, 2 9 M 18.116 9.250 C 18.198 10.844, 18.362 11.008, 18.677 9.811 C 18.922 8.883, 20.108 7.932, 21.311 7.698 C 23.113 7.348, 23.014 7.248, 20.750 7.136 C 18.494 7.024, 18.021 7.404, 18.116 9.250 M 3.812 9.683 C 4.534 9.972, 5.397 9.936, 5.729 9.604 C 6.061 9.272, 5.471 9.036, 4.417 9.079 C 3.252 9.127, 3.015 9.364, 3.812 9.683 M 20.813 10.683 C 21.534 10.972, 22.397 10.936, 22.729 10.604 C 23.061 10.272, 22.471 10.036, 21.417 10.079 C 20.252 10.127, 20.015 10.364, 20.813 10.683 M 8 12.117 C 8 12.741, 7.118 13.003, 6 12.710 C 4.900 12.423, 4 12.595, 4 13.094 C 4 13.592, 5.125 14, 6.500 14 C 8.056 14, 9 13.433, 9 12.500 C 9 11.675, 8.775 11, 8.500 11 C 8.225 11, 8 11.502, 8 12.117 M 23.211 12.538 C 22.145 13.746, 22.189 14, 23.461 14 C 24.307 14, 25 13.325, 25 12.500 C 25 10.676, 24.850 10.680, 23.211 12.538 M 10.872 13.750 C 9.629 15.336, 9.664 15.371, 11.250 14.128 C 12.916 12.821, 13.445 12, 12.622 12 C 12.415 12, 11.627 12.787, 10.872 13.750" stroke="none" fill="black" fill-rule="evenodd"/>
</svg>