<svg xmlns="http://www.w3.org/2000/svg" width="32" height="16" viewBox="0 0 32 16" version="1.1">
	<path d="M 0 8 L 0 16 13.186 16 C 25.347 16, 26.551 15.831, 28.686 13.826 C 31.056 11.599, 32.006 12.556, 29.750 14.897 C 28.739 15.946, 28.882 16.126, 30.500 15.836 C 32.266 15.520, 32.534 14.571, 32.792 7.739 L 33.084 0 16.542 0 L 0 0 0 8 M 0.343 8.500 C 0.346 12.900, 0.522 14.576, 0.733 12.224 C 0.945 9.872, 0.942 6.272, 0.727 4.224 C 0.512 2.176, 0.339 4.100, 0.343 8.500 M 7.451 2.079 C 7.198 2.489, 7.655 2.727, 8.466 2.608 C 10.556 2.301, 11.307 1.333, 9.456 1.333 C 8.607 1.333, 7.705 1.669, 7.451 2.079 M 22 2.500 C 18.806 4.326, 19.489 4.334, 24.500 2.529 C 26.700 1.736, 27.600 1.084, 26.500 1.079 C 25.400 1.075, 23.375 1.714, 22 2.500 M 29.667 1.667 C 29.300 2.033, 29.060 4.396, 29.134 6.917 L 29.267 11.500 29.989 6.500 C 30.756 1.178, 30.719 0.615, 29.667 1.667 M 26.667 4.667 C 26.300 5.033, 26.056 7.171, 26.125 9.417 L 26.250 13.500 26.998 9 C 27.789 4.239, 27.739 3.594, 26.667 4.667 M 4 7 C 4 8.467, 4.667 9, 6.500 9 C 8.333 9, 9 8.467, 9 7 C 9 5.533, 8.333 5, 6.500 5 C 4.667 5, 4 5.533, 4 7 M 20.116 7.250 C 20.198 8.844, 20.362 9.008, 20.677 7.811 C 20.922 6.883, 22.108 5.932, 23.311 5.698 C 25.113 5.348, 25.014 5.248, 22.750 5.136 C 20.494 5.024, 20.021 5.404, 20.116 7.250 M 5.813 7.683 C 6.534 7.972, 7.397 7.936, 7.729 7.604 C 8.061 7.272, 7.471 7.036, 6.417 7.079 C 5.252 7.127, 5.015 7.364, 5.813 7.683 M 22.813 8.683 C 23.534 8.972, 24.397 8.936, 24.729 8.604 C 25.061 8.272, 24.471 8.036, 23.417 8.079 C 22.252 8.127, 22.015 8.364, 22.813 8.683 M 4 12 C 4 13.467, 4.667 14, 6.500 14 C 8.333 14, 9 13.467, 9 12 C 9 10.533, 8.333 10, 6.500 10 C 4.667 10, 4 10.533, 4 12 M 20.116 12.250 C 20.198 13.844, 20.362 14.008, 20.677 12.811 C 20.922 11.883, 22.108 10.932, 23.311 10.698 C 25.113 10.348, 25.014 10.248, 22.750 10.136 C 20.494 10.024, 20.021 10.404, 20.116 12.250 M 5.813 12.683 C 6.534 12.972, 7.397 12.936, 7.729 12.604 C 8.061 12.272, 7.471 12.036, 6.417 12.079 C 5.252 12.127, 5.015 12.364, 5.813 12.683 M 10.872 13.750 C 9.629 15.336, 9.664 15.371, 11.250 14.128 C 12.916 12.821, 13.445 12, 12.622 12 C 12.415 12, 11.627 12.787, 10.872 13.750 M 22.813 13.683 C 23.534 13.972, 24.397 13.936, 24.729 13.604 C 25.061 13.272, 24.471 13.036, 23.417 13.079 C 22.252 13.127, 22.015 13.364, 22.813 13.683" stroke="none" fill="black" fill-rule="evenodd"/>
</svg>