<svg xmlns="http://www.w3.org/2000/svg" width="32" height="16" viewBox="0 0 32 16" version="1.1">
	<path d="M 0 8.036 L 0 16.072 16.250 15.786 L 32.500 15.500 32.792 7.750 L 33.084 0 16.542 0 L 0 0 0 8.036 M 0.343 8.500 C 0.346 12.900, 0.522 14.576, 0.733 12.224 C 0.945 9.872, 0.942 6.272, 0.727 4.224 C 0.512 2.176, 0.339 4.100, 0.343 8.500 M 11.586 1.917 C 11.406 2.237, 11.314 4.930, 11.380 7.901 C 11.469 11.903, 11.894 13.361, 13.020 13.529 C 14.216 13.707, 14.598 12.435, 14.815 7.544 C 15.043 2.418, 14.814 1.333, 13.502 1.333 C 12.627 1.333, 11.765 1.596, 11.586 1.917 M 27.196 8.250 L 27.392 15.500 27.740 8.815 C 28.015 3.542, 28.449 2.035, 29.794 1.681 C 31.024 1.357, 30.873 1.200, 29.250 1.116 C 27.096 1.005, 27.008 1.310, 27.196 8.250 M 2.310 9.500 C 2.315 12.800, 2.502 14.029, 2.725 12.232 C 2.947 10.435, 2.943 7.735, 2.715 6.232 C 2.486 4.729, 2.304 6.200, 2.310 9.500 M 18.310 9.500 C 18.315 12.800, 18.502 14.029, 18.725 12.232 C 18.947 10.435, 18.943 7.735, 18.715 6.232 C 18.486 4.729, 18.304 6.200, 18.310 9.500 M 5.079 7.583 C 5.127 8.748, 5.364 8.985, 5.683 8.188 C 5.972 7.466, 5.936 6.603, 5.604 6.271 C 5.272 5.939, 5.036 6.529, 5.079 7.583 M 7.079 7.583 C 7.127 8.748, 7.364 8.985, 7.683 8.188 C 7.972 7.466, 7.936 6.603, 7.604 6.271 C 7.272 5.939, 7.036 6.529, 7.079 7.583 M 9.079 7.583 C 9.127 8.748, 9.364 8.985, 9.683 8.188 C 9.972 7.466, 9.936 6.603, 9.604 6.271 C 9.272 5.939, 9.036 6.529, 9.079 7.583 M 20.079 7.583 C 20.127 8.748, 20.364 8.985, 20.683 8.188 C 20.972 7.466, 20.936 6.603, 20.604 6.271 C 20.272 5.939, 20.036 6.529, 20.079 7.583 M 22.079 7.583 C 22.127 8.748, 22.364 8.985, 22.683 8.188 C 22.972 7.466, 22.936 6.603, 22.604 6.271 C 22.272 5.939, 22.036 6.529, 22.079 7.583 M 24.079 7.583 C 24.127 8.748, 24.364 8.985, 24.683 8.188 C 24.972 7.466, 24.936 6.603, 24.604 6.271 C 24.272 5.939, 24.036 6.529, 24.079 7.583 M 20.116 12.250 C 20.198 13.846, 20.362 14.009, 20.678 12.810 C 20.923 11.881, 22.333 10.936, 23.812 10.710 C 26.239 10.340, 26.184 10.285, 23.250 10.150 C 20.471 10.022, 20.017 10.326, 20.116 12.250 M 6.750 13.662 C 7.438 13.940, 8.563 13.940, 9.250 13.662 C 9.938 13.385, 9.375 13.158, 8 13.158 C 6.625 13.158, 6.063 13.385, 6.750 13.662 M 23.813 13.683 C 24.534 13.972, 25.397 13.936, 25.729 13.604 C 26.061 13.272, 25.471 13.036, 24.417 13.079 C 23.252 13.127, 23.015 13.364, 23.813 13.683" stroke="none" fill="black" fill-rule="evenodd"/>
</svg>