<svg xmlns="http://www.w3.org/2000/svg" width="32" height="16" viewBox="0 0 32 16" version="1.1">
	<path d="M 0 8.025 L 0 16.050 16.250 15.775 L 32.500 15.500 32.792 7.750 L 33.084 0 16.542 0 L 0 0 0 8.025 M 0.158 8 L -0.005 15.500 7.498 15.171 L 15 14.842 15 10.921 L 15 7 8.063 7 L 1.127 7 0.723 3.750 C 0.502 1.963, 0.247 3.875, 0.158 8 M 20.250 1.689 C 21.212 1.941, 22.788 1.941, 23.750 1.689 C 24.712 1.438, 23.925 1.232, 22 1.232 C 20.075 1.232, 19.288 1.438, 20.250 1.689 M 23.500 3.478 C 20.750 4.774, 18.800 5.871, 19.167 5.917 C 20.215 6.048, 29 2.133, 29 1.536 C 29 0.849, 29.321 0.736, 23.500 3.478 M 30.158 3 C 30.158 4.375, 30.385 4.938, 30.662 4.250 C 30.940 3.563, 30.940 2.438, 30.662 1.750 C 30.385 1.063, 30.158 1.625, 30.158 3 M 7.689 3.114 C 6.693 3.693, 5.306 3.948, 4.606 3.679 C 3.906 3.410, 3.333 3.823, 3.333 4.595 C 3.333 5.635, 4.656 5.966, 8.417 5.868 C 13.219 5.744, 13.306 5.696, 10 5 L 6.500 4.263 9.809 4.132 C 11.734 4.055, 12.859 3.582, 12.500 3 C 11.715 1.730, 9.999 1.771, 7.689 3.114 M 25.269 5.693 C 26.242 5.947, 27.592 5.930, 28.269 5.656 C 28.946 5.382, 28.150 5.175, 26.500 5.195 C 24.850 5.215, 24.296 5.439, 25.269 5.693 M 17.168 11.250 L 17.336 15.500 17.726 11.794 L 18.115 8.089 24.808 7.740 L 31.500 7.392 24.250 7.196 L 17 7 17.168 11.250 M 5 9.500 C 5 10.548, 6.056 11, 8.500 11 C 10.944 11, 12 10.548, 12 9.500 C 12 8.452, 10.944 8, 8.500 8 C 6.056 8, 5 8.452, 5 9.500 M 7.269 9.693 C 8.242 9.947, 9.592 9.930, 10.269 9.656 C 10.946 9.382, 10.150 9.175, 8.500 9.195 C 6.850 9.215, 6.296 9.439, 7.269 9.693 M 23.269 9.693 C 24.242 9.947, 25.592 9.930, 26.269 9.656 C 26.946 9.382, 26.150 9.175, 24.500 9.195 C 22.850 9.215, 22.296 9.439, 23.269 9.693 M 28 9.937 C 28 10.452, 26.538 11.055, 24.750 11.277 C 21.550 11.674, 21.558 11.682, 25.250 11.840 C 27.988 11.957, 29 11.595, 29 10.500 C 29 9.675, 28.775 9, 28.500 9 C 28.225 9, 28 9.421, 28 9.937 M 4.603 13.167 C 4.886 13.625, 6.640 14, 8.500 14 C 10.360 14, 12.114 13.625, 12.397 13.167 C 12.680 12.708, 10.927 12.333, 8.500 12.333 C 6.073 12.333, 4.320 12.708, 4.603 13.167 M 25 14 L 21.500 14.737 25.191 14.868 C 27.221 14.941, 29.160 14.550, 29.500 14 C 30.170 12.915, 30.154 12.915, 25 14" stroke="none" fill="black" fill-rule="evenodd"/>
</svg>