<svg xmlns="http://www.w3.org/2000/svg" width="32" height="16" viewBox="0 0 32 16" version="1.1">
	<path d="M 0 8.025 L 0 16.050 16.250 15.775 L 32.500 15.500 32.792 7.750 L 33.084 0 16.542 0 L 0 0 0 8.025 M 0.343 8.500 C 0.346 12.900, 0.522 14.576, 0.733 12.224 C 0.945 9.872, 0.942 6.272, 0.727 4.224 C 0.512 2.176, 0.339 4.100, 0.343 8.500 M 3.459 8.067 C 3.096 8.653, 3.014 9.348, 3.276 9.610 C 3.538 9.872, 4.019 9.392, 4.345 8.543 C 5.021 6.781, 4.445 6.471, 3.459 8.067 M 6.469 8.050 C 6.101 8.646, 6.070 9.403, 6.400 9.733 C 6.730 10.063, 7.007 9.696, 7.015 8.917 C 7.028 7.750, 7.202 7.765, 8 9 C 8.582 9.901, 8.975 10.025, 8.985 9.309 C 9.006 7.625, 7.269 6.756, 6.469 8.050 M 10.459 8.067 C 10.096 8.653, 10.014 9.348, 10.276 9.610 C 10.538 9.872, 11.019 9.392, 11.345 8.543 C 12.021 6.781, 11.445 6.471, 10.459 8.067 M 19.459 8.067 C 19.096 8.653, 19.014 9.348, 19.276 9.610 C 19.538 9.872, 20.019 9.392, 20.345 8.543 C 21.021 6.781, 20.445 6.471, 19.459 8.067 M 22.459 8.067 C 22.096 8.653, 22.014 9.348, 22.276 9.610 C 22.538 9.872, 23.019 9.392, 23.345 8.543 C 24.021 6.781, 23.445 6.471, 22.459 8.067 M 26.459 8.067 C 26.096 8.653, 26.014 9.348, 26.276 9.610 C 26.538 9.872, 27.019 9.392, 27.345 8.543 C 28.021 6.781, 27.445 6.471, 26.459 8.067 M 29 8.948 C 29 10.584, 28.161 10.954, 23.750 11.263 L 18.500 11.630 24.250 11.815 C 29.766 11.992, 30 11.898, 30 9.500 C 30 8.125, 29.775 7, 29.500 7 C 29.225 7, 29 7.876, 29 8.948" stroke="none" fill="black" fill-rule="evenodd"/>
</svg>