<svg xmlns="http://www.w3.org/2000/svg" width="32" height="16" viewBox="0 0 32 16" version="1.1">
	<path d="M 0.667 0.667 C 0.300 1.033, -0 2.819, 0 4.635 C 0 7.160, 0.353 7.802, 1.500 7.362 C 2.325 7.045, 3 7.284, 3 7.893 C 3 8.502, 2.325 9, 1.500 9 C 0.452 9, 0 10.056, 0 12.500 C 0 15.925, 0.087 16, 4.059 16 C 6.510 16, 7.873 15.604, 7.500 15 C 7.160 14.450, 7.359 14, 7.941 14 C 8.523 14, 9 14.450, 9 15 C 9 15.550, 10.462 15.964, 12.250 15.921 C 14.038 15.878, 14.938 15.615, 14.250 15.338 C 13.562 15.060, 13 14.351, 13 13.762 C 13 13.172, 13.911 13.514, 15.024 14.521 C 16.575 15.925, 17.322 16.078, 18.224 15.176 C 18.871 14.529, 20.322 14.032, 21.450 14.070 C 23.480 14.140, 23.480 14.149, 21.500 15 C 19.728 15.762, 19.813 15.867, 22.250 15.930 C 23.762 15.968, 25 15.550, 25 15 C 25 14.450, 26.012 14.032, 27.250 14.070 C 29.405 14.138, 29.416 14.179, 27.500 15.044 C 25.924 15.755, 26.242 15.886, 29 15.660 L 32.500 15.372 32.735 7.682 L 32.970 -0.008 20.471 0.069 C 13.071 0.115, 8.206 0.524, 8.545 1.073 C 8.860 1.583, 8.641 2, 8.059 2 C 7.477 2, 7 1.550, 7 1 C 7 -0.109, 1.720 -0.387, 0.667 0.667 M 0.160 4.750 C 0.319 8.469, 0.323 8.473, 0.725 5.231 C 0.947 3.433, 1.550 2.222, 2.065 2.540 C 2.579 2.858, 3 2.641, 3 2.059 C 3 1.477, 2.325 1, 1.500 1 C 0.405 1, 0.043 2.012, 0.160 4.750 M 11.717 2.994 C 10.949 4.090, 10.023 4.690, 9.660 4.327 C 9.297 3.964, 9 4.192, 9 4.833 C 9 6.688, 10.463 6.200, 13 3.500 C 14.292 2.125, 14.846 1, 14.231 1 C 13.616 1, 12.485 1.897, 11.717 2.994 M 28.980 3.524 C 27.048 5.853, 28.426 6.291, 30.494 4.006 C 31.493 2.903, 31.845 2, 31.277 2 C 30.710 2, 29.676 2.686, 28.980 3.524 M 4 8 L 4 13 8 13 C 11.778 13, 12 12.833, 12 10 C 12 7.667, 11.556 7, 10 7 C 8.667 7, 8 6.333, 8 5 C 8 3.667, 7.333 3, 6 3 C 4.267 3, 4 3.667, 4 8 M 20.180 8.250 L 20.360 13.500 20.732 8.813 C 20.999 5.453, 21.585 4, 22.802 3.679 C 24.017 3.359, 23.859 3.199, 22.250 3.116 C 20.166 3.009, 20.013 3.388, 20.180 8.250 M 13 8 C 13 8.550, 13.423 9, 13.941 9 C 14.459 9, 15.160 8.550, 15.500 8 C 15.840 7.450, 15.416 7, 14.559 7 C 13.702 7, 13 7.450, 13 8 M 25.813 7.683 C 26.534 7.972, 27.397 7.936, 27.729 7.604 C 28.061 7.272, 27.471 7.036, 26.417 7.079 C 25.252 7.127, 25.015 7.364, 25.813 7.683 M 5.750 8.662 C 6.438 8.940, 7.563 8.940, 8.250 8.662 C 8.938 8.385, 8.375 8.158, 7 8.158 C 5.625 8.158, 5.063 8.385, 5.750 8.662 M 30.250 8.662 C 29.563 8.940, 29.052 10.142, 29.116 11.333 C 29.207 13.024, 29.332 13.116, 29.689 11.750 C 30.382 9.101, 31.815 9.654, 32.284 12.750 C 32.619 14.962, 32.730 14.766, 32.850 11.750 C 32.998 8.043, 32.691 7.677, 30.250 8.662 M 22.750 9.662 C 23.438 9.940, 24.563 9.940, 25.250 9.662 C 25.938 9.385, 25.375 9.158, 24 9.158 C 22.625 9.158, 22.063 9.385, 22.750 9.662 M 8.813 10.683 C 9.534 10.972, 10.397 10.936, 10.729 10.604 C 11.061 10.272, 10.471 10.036, 9.417 10.079 C 8.252 10.127, 8.015 10.364, 8.813 10.683 M 25.813 11.683 C 26.534 11.972, 27.397 11.936, 27.729 11.604 C 28.061 11.272, 27.471 11.036, 26.417 11.079 C 25.252 11.127, 25.015 11.364, 25.813 11.683 M 1.500 14 C 1.160 14.550, 1.359 15, 1.941 15 C 2.523 15, 3 14.550, 3 14 C 3 13.450, 2.802 13, 2.559 13 C 2.316 13, 1.840 13.450, 1.500 14" stroke="none" fill="black" fill-rule="evenodd"/>
</svg>