<svg xmlns="http://www.w3.org/2000/svg" width="32" height="16" viewBox="0 0 32 16" version="1.1">
	<path d="M 0.667 0.667 C -0.425 1.758, -0.111 8.187, 1 7.500 C 1.550 7.160, 2 7.359, 2 7.941 C 2 8.523, 1.550 9, 1 9 C 0.450 9, 0 10.575, 0 12.500 C 0 15.903, 0.109 16, 3.906 16 C 7.320 16, 7.747 15.748, 7.290 14 C 6.997 12.882, 7.259 12, 7.883 12 C 8.498 12, 9 12.918, 9 14.041 C 9 15.811, 9.563 16.050, 13.250 15.849 C 16.001 15.699, 17.961 14.979, 18.807 13.809 C 19.525 12.814, 20.813 12, 21.667 12 C 22.799 12, 22.580 12.534, 20.861 13.967 L 18.500 15.933 21.750 15.967 C 24.344 15.993, 25 15.597, 25 14 C 25 12.732, 25.640 12.029, 26.750 12.079 C 27.795 12.126, 27.997 12.361, 27.250 12.662 C 26.562 12.940, 26 13.833, 26 14.647 C 26 15.714, 26.906 16.039, 29.250 15.813 L 32.500 15.500 32.735 7.750 L 32.970 0 24.600 0 C 16.581 0, 16.153 0.115, 14.393 2.750 C 13.382 4.263, 12.672 5.889, 12.816 6.364 C 12.959 6.839, 11.484 7.042, 9.538 6.815 C 7.592 6.587, 6 6.761, 6 7.201 C 6 7.640, 7.125 8, 8.500 8 C 10.056 8, 11 8.567, 11 9.500 C 11 10.583, 9.889 11, 7 11 C 3.256 11, 3 10.815, 3 8.111 C 3 6.442, 3.528 5.242, 4.250 5.269 C 9.232 5.454, 11.674 4.698, 13.297 2.469 L 15.093 0 11.640 0 C 8.680 -0, 8.262 0.285, 8.710 2 C 9.003 3.118, 8.741 4, 8.117 4 C 7.502 4, 7 3.100, 7 2 C 7 0.471, 6.333 0, 4.167 0 C 2.608 0, 1.033 0.300, 0.667 0.667 M 0.150 4.750 C 0.267 7.674, 0.390 7.906, 0.711 5.805 C 1.022 3.766, 1.533 3.264, 2.811 3.742 C 4.284 4.294, 4.324 4.158, 3.128 2.687 C 0.960 0.022, -0.012 0.696, 0.150 4.750 M 30 3.500 C 29.293 4.352, 28.940 5.273, 29.215 5.548 C 29.490 5.823, 30.293 5.352, 31 4.500 C 31.707 3.648, 32.060 2.727, 31.785 2.452 C 31.510 2.177, 30.707 2.648, 30 3.500 M 22.762 5.707 C 24.006 5.946, 25.806 5.937, 26.762 5.687 C 27.718 5.437, 26.700 5.241, 24.500 5.252 C 22.300 5.263, 21.518 5.468, 22.762 5.707 M 19.195 8.500 C 19.215 10.150, 19.439 10.704, 19.693 9.731 C 19.947 8.758, 19.930 7.408, 19.656 6.731 C 19.382 6.054, 19.175 6.850, 19.195 8.500 M 13.500 8 C 11.870 8.701, 11.812 8.872, 13.191 8.930 C 14.121 8.968, 15.160 8.550, 15.500 8 C 16.211 6.850, 16.176 6.850, 13.500 8 M 24.813 8.683 C 25.534 8.972, 26.397 8.936, 26.729 8.604 C 27.061 8.272, 26.471 8.036, 25.417 8.079 C 24.252 8.127, 24.015 8.364, 24.813 8.683 M 29.750 8.689 C 28.788 8.941, 28 9.522, 28 9.980 C 28 10.438, 28.966 10.560, 30.146 10.252 C 32.021 9.761, 32.228 10.026, 31.785 12.345 C 31.506 13.805, 31.665 15, 32.139 15 C 32.612 15, 33 13.425, 33 11.500 C 33 9.575, 32.663 8.052, 32.250 8.116 C 31.837 8.180, 30.712 8.438, 29.750 8.689 M 7.813 9.683 C 8.534 9.972, 9.397 9.936, 9.729 9.604 C 10.061 9.272, 9.471 9.036, 8.417 9.079 C 7.252 9.127, 7.015 9.364, 7.813 9.683 M 24.813 10.683 C 25.534 10.972, 26.397 10.936, 26.729 10.604 C 27.061 10.272, 26.471 10.036, 25.417 10.079 C 24.252 10.127, 24.015 10.364, 24.813 10.683 M 12 11.755 C 12 12.305, 12.675 13.315, 13.500 14 C 14.337 14.694, 15 14.803, 15 14.245 C 15 13.695, 14.325 12.685, 13.500 12 C 12.663 11.306, 12 11.197, 12 11.755 M 1.459 13.067 C 0.383 14.808, 1.608 15.177, 2.980 13.524 C 3.769 12.574, 3.845 12, 3.181 12 C 2.597 12, 1.821 12.480, 1.459 13.067" stroke="none" fill="black" fill-rule="evenodd"/>
</svg>