<svg xmlns="http://www.w3.org/2000/svg" width="32" height="16" viewBox="0 0 32 16" version="1.1">
	<path d="M 0 8.025 L 0 16.050 16.250 15.775 L 32.500 15.500 32.792 7.750 L 33.084 0 16.542 0 L 0 0 0 8.025 M 0.150 8.750 C 0.232 13.013, 0.487 15.262, 0.716 13.750 C 1.074 11.386, 1.599 11, 4.450 11 C 7.044 11, 7.898 10.510, 8.370 8.750 C 9.285 5.335, 9.162 5, 7 5 C 5.667 5, 5 4.333, 5 3 C 5 1.533, 4.333 1, 2.500 1 C 0.035 1, 0.002 1.110, 0.150 8.750 M 17.180 6.250 L 17.360 11.500 17.732 6.813 C 17.999 3.453, 18.585 2, 19.802 1.679 C 21.017 1.359, 20.859 1.199, 19.250 1.116 C 17.166 1.009, 17.013 1.388, 17.180 6.250 M 6 3 C 6 3.550, 6.477 4, 7.059 4 C 7.641 4, 7.840 3.550, 7.500 3 C 7.160 2.450, 6.684 2, 6.441 2 C 6.198 2, 6 2.450, 6 3 M 22.813 5.683 C 23.534 5.972, 24.397 5.936, 24.729 5.604 C 25.061 5.272, 24.471 5.036, 23.417 5.079 C 22.252 5.127, 22.015 5.364, 22.813 5.683 M 2.750 6.662 C 3.438 6.940, 4.563 6.940, 5.250 6.662 C 5.938 6.385, 5.375 6.158, 4 6.158 C 2.625 6.158, 2.063 6.385, 2.750 6.662 M 19.750 7.662 C 20.438 7.940, 21.563 7.940, 22.250 7.662 C 22.938 7.385, 22.375 7.158, 21 7.158 C 19.625 7.158, 19.063 7.385, 19.750 7.662 M 9 10 C 9 10.550, 10.350 11, 12 11 C 13.650 11, 15 10.550, 15 10 C 15 9.450, 13.650 9, 12 9 C 10.350 9, 9 9.450, 9 10 M 25 9.827 C 25 10.282, 26.350 10.455, 28 10.213 C 29.650 9.971, 31 9.599, 31 9.387 C 31 9.174, 29.650 9, 28 9 C 26.350 9, 25 9.372, 25 9.827 M 18.762 12.707 C 20.006 12.946, 21.806 12.937, 22.762 12.687 C 23.718 12.437, 22.700 12.241, 20.500 12.252 C 18.300 12.263, 17.518 12.468, 18.762 12.707 M 10 13.787 C 10 14.220, 10.900 14.642, 12 14.725 C 13.100 14.808, 14 14.454, 14 13.938 C 14 13.422, 13.100 13, 12 13 C 10.900 13, 10 13.354, 10 13.787 M 26 13.906 C 26 14.405, 26.900 14.577, 28 14.290 C 29.100 14.002, 30 13.594, 30 13.383 C 30 13.173, 29.100 13, 28 13 C 26.900 13, 26 13.408, 26 13.906" stroke="none" fill="black" fill-rule="evenodd"/>
</svg>