<svg xmlns="http://www.w3.org/2000/svg" width="16" height="16" viewBox="0 0 16 16" version="1.1">
	<path d="M 0 8.040 L 0 16.081 8.250 15.790 L 16.500 15.500 16.792 7.750 L 17.084 0 8.542 0 L 0 0 0 8.040 M 0.343 8.500 C 0.346 12.900, 0.522 14.576, 0.733 12.224 C 0.945 9.872, 0.942 6.272, 0.727 4.224 C 0.512 2.176, 0.339 4.100, 0.343 8.500 M 4 3 C 2.755 4.245, 2.039 6.226, 2.102 8.250 L 2.205 11.500 2.984 8.209 C 3.413 6.399, 4.562 4.037, 5.537 2.959 C 7.865 0.386, 6.579 0.421, 4 3 M 10 2.800 C 10 3.240, 10.540 4.140, 11.200 4.800 C 12.133 5.733, 12.101 6.278, 11.053 7.250 C 9.976 8.250, 9.848 8.250, 10.412 7.250 C 10.830 6.509, 10.548 6, 9.720 6 C 8.950 6, 7.730 7.237, 7.008 8.750 L 5.695 11.500 4.947 9 C 4.323 6.913, 4.183 6.835, 4.100 8.527 C 3.985 10.855, 6.598 15, 8.179 15 C 8.813 15, 8.688 14.314, 7.872 13.308 C 6.701 11.864, 6.708 11.741, 7.920 12.472 C 8.956 13.097, 9.183 12.918, 8.758 11.811 C 8.328 10.692, 8.777 10.360, 10.468 10.546 C 12.233 10.740, 12.652 10.387, 12.293 9.012 C 12.036 8.029, 12.391 6.876, 13.083 6.449 C 14 5.882, 14.143 6.189, 13.611 7.586 C 13.062 9.028, 13.166 9.218, 14.034 8.357 C 14.903 7.495, 14.766 6.573, 13.478 4.607 C 11.832 2.095, 10 1.143, 10 2.800" stroke="none" fill="black" fill-rule="evenodd"/>
</svg>