<svg xmlns="http://www.w3.org/2000/svg" width="32" height="16" viewBox="0 0 32 16" version="1.1">
	<path d="M 0.314 7.999 L 0.500 15.997 14.500 15.985 C 29.788 15.972, 33 15.510, 33 13.324 C 33 12.531, 32.663 12.091, 32.250 12.345 C 31.837 12.600, 31.500 11.277, 31.500 9.405 C 31.500 7.532, 31.837 6, 32.250 6 C 32.663 6, 33 4.650, 33 3 L 33 0 16.564 -0 L 0.129 -0 0.314 7.999 M 0.232 4 C 0.232 5.925, 0.438 6.713, 0.689 5.750 C 0.941 4.787, 0.941 3.212, 0.689 2.250 C 0.438 1.288, 0.232 2.075, 0.232 4 M 2.384 7.442 C 1.247 10.406, 2.468 12.495, 5.509 12.787 C 7.806 13.007, 8.152 12.837, 7 12.052 C 5.740 11.194, 5.820 11.017, 7.500 10.945 L 9.500 10.859 7.500 10.043 C 5.815 9.356, 6.051 9.156, 9 8.774 C 12.235 8.354, 12.160 8.307, 8 8.145 C 4.688 8.016, 3.896 7.713, 5 7 C 6.276 6.175, 6.235 6.028, 4.719 6.015 C 3.739 6.007, 2.688 6.649, 2.384 7.442 M 19.250 6.662 C 18.563 6.940, 18.052 8.367, 18.116 9.833 C 18.205 11.887, 18.340 12.040, 18.700 10.500 C 18.958 9.400, 19.892 7.938, 20.775 7.250 C 22.379 6.002, 21.615 5.708, 19.250 6.662 M 22.762 8.707 C 24.006 8.946, 25.806 8.937, 26.762 8.687 C 27.718 8.437, 26.700 8.241, 24.500 8.252 C 22.300 8.263, 21.518 8.468, 22.762 8.707 M 27.797 9.680 C 26.860 9.927, 25.818 11, 25.480 12.064 C 25.091 13.289, 23.880 14.050, 22.183 14.136 C 19.816 14.256, 19.766 14.324, 21.757 14.707 C 23.315 15.007, 24.963 14.191, 27.083 12.070 C 28.772 10.382, 30.007 9.052, 29.827 9.116 C 29.647 9.180, 28.734 9.434, 27.797 9.680 M 0.079 14.583 C 0.127 15.748, 0.364 15.985, 0.683 15.188 C 0.972 14.466, 0.936 13.603, 0.604 13.271 C 0.272 12.939, 0.036 13.529, 0.079 14.583 M 17.500 14 C 17.160 14.550, 17.359 15, 17.941 15 C 18.523 15, 19 14.550, 19 14 C 19 13.450, 18.802 13, 18.559 13 C 18.316 13, 17.840 13.450, 17.500 14" stroke="none" fill="black" fill-rule="evenodd"/>
</svg>