<svg xmlns="http://www.w3.org/2000/svg" width="32" height="16" viewBox="0 0 32 16" version="1.1">
	<path d="M 0 8.025 L 0 16.050 16.250 15.775 L 32.500 15.500 32.792 7.750 L 33.084 0 16.542 0 L 0 0 0 8.025 M 0.300 8.500 C 0.300 12.900, 0.487 15.262, 0.716 13.750 C 1.125 11.052, 1.265 11, 8.125 11 C 12.533 11, 14.890 10.630, 14.500 10 C 14.160 9.450, 12.769 9, 11.410 9 C 10.050 9, 8.678 8.325, 8.362 7.500 C 8.010 6.583, 6.494 6, 4.459 6 C 1.598 6, 1.075 5.615, 0.716 3.250 C 0.487 1.737, 0.300 4.100, 0.300 8.500 M 26.750 5.689 C 25.788 5.941, 25 6.579, 25 7.109 C 25 7.688, 25.795 7.645, 27 7 C 28.100 6.411, 29 5.720, 29 5.465 C 29 5.209, 28.887 5.052, 28.750 5.116 C 28.613 5.180, 27.712 5.438, 26.750 5.689 M 9 7 C 9 7.550, 9.927 8, 11.059 8 C 12.191 8, 12.840 7.550, 12.500 7 C 12.160 6.450, 11.234 6, 10.441 6 C 9.648 6, 9 6.450, 9 7 M 17.136 8.750 C 17.249 11.018, 17.347 11.116, 17.698 9.309 C 18.007 7.717, 18.995 7.008, 21.312 6.719 C 24.375 6.336, 24.353 6.314, 20.750 6.160 C 17.257 6.011, 17.009 6.189, 17.136 8.750 M 3.553 7.915 C 3.231 8.436, 3.394 9.125, 3.915 9.447 C 4.436 9.769, 5.125 9.606, 5.447 9.085 C 5.769 8.564, 5.606 7.875, 5.085 7.553 C 4.564 7.231, 3.875 7.394, 3.553 7.915 M 21 10.059 C 21 10.641, 21.450 10.840, 22 10.500 C 22.550 10.160, 23 9.684, 23 9.441 C 23 9.198, 22.550 9, 22 9 C 21.450 9, 21 9.477, 21 10.059 M 27.269 9.693 C 28.242 9.947, 29.592 9.930, 30.269 9.656 C 30.946 9.382, 30.150 9.175, 28.500 9.195 C 26.850 9.215, 26.296 9.439, 27.269 9.693 M 20 13.500 C 18.663 15.111, 19.972 15.605, 21.550 14.085 C 22.073 13.581, 23.625 12.968, 25 12.721 C 27.174 12.331, 27.093 12.255, 24.372 12.136 C 22.652 12.061, 20.685 12.675, 20 13.500 M 30.020 13.476 C 29.231 14.426, 29.155 15, 29.819 15 C 31.027 15, 32.436 13.103, 31.743 12.409 C 31.491 12.158, 30.716 12.638, 30.020 13.476" stroke="none" fill="black" fill-rule="evenodd"/>
</svg>