<svg xmlns="http://www.w3.org/2000/svg" width="32" height="16" viewBox="0 0 32 16" version="1.1">
	<path d="M 0 8.025 L 0 16.050 16.250 15.775 L 32.500 15.500 32.792 7.750 L 33.084 0 16.542 0 L 0 0 0 8.025 M 0.343 8.500 C 0.346 12.900, 0.522 14.576, 0.733 12.224 C 0.945 9.872, 0.942 6.272, 0.727 4.224 C 0.512 2.176, 0.339 4.100, 0.343 8.500 M 4.750 4.662 C 5.438 4.940, 6.563 4.940, 7.250 4.662 C 7.938 4.385, 7.375 4.158, 6 4.158 C 4.625 4.158, 4.063 4.385, 4.750 4.662 M 21.813 4.683 C 22.534 4.972, 23.397 4.936, 23.729 4.604 C 24.061 4.272, 23.471 4.036, 22.417 4.079 C 21.252 4.127, 21.015 4.364, 21.813 4.683 M 3 9 C 3 11.889, 3.167 12, 7.500 12 C 11.833 12, 12 11.889, 12 9 C 12 6.111, 11.833 6, 7.500 6 C 3.167 6, 3 6.111, 3 9 M 19.150 9.250 C 19.286 12.195, 19.338 12.247, 19.711 9.805 C 20.070 7.449, 20.651 7.061, 24.311 6.729 L 28.500 6.349 23.750 6.175 L 19 6 19.150 9.250 M 29 9.945 C 29 12.740, 28.757 12.910, 24.250 13.265 L 19.500 13.640 24.750 13.820 L 30 14 30 10.500 C 30 8.575, 29.775 7, 29.500 7 C 29.225 7, 29 8.325, 29 9.945" stroke="none" fill="black" fill-rule="evenodd"/>
</svg>