<svg xmlns="http://www.w3.org/2000/svg" width="32" height="16" viewBox="0 0 32 16" version="1.1">
	<path d="M 0 8.025 L 0 16.050 16.250 15.775 L 32.500 15.500 32.792 7.750 L 33.084 0 16.542 0 L 0 0 0 8.025 M 0.343 8.500 C 0.346 12.900, 0.522 14.576, 0.733 12.224 C 0.945 9.872, 0.942 6.272, 0.727 4.224 C 0.512 2.176, 0.339 4.100, 0.343 8.500 M 2.390 4.427 C 2.088 5.212, 1.990 6.900, 2.171 8.177 C 2.453 10.169, 3.154 10.543, 7.088 10.798 C 10.294 11.007, 12.062 10.630, 12.960 9.548 C 14.087 8.190, 13.701 8, 9.822 8 C 7.390 8, 4.769 8.563, 3.998 9.250 C 2.806 10.313, 2.794 10.239, 3.921 8.750 C 4.649 7.787, 6.540 7, 8.122 7 C 11.727 7, 11.797 5.877, 8.293 4.250 C 4.780 2.619, 3.064 2.670, 2.390 4.427 M 19.046 4.445 C 18.386 5.240, 18.045 6.927, 18.287 8.195 C 18.673 10.216, 18.744 10.158, 18.864 7.718 C 18.956 5.844, 19.734 4.640, 21.250 4.031 C 22.773 3.419, 22.974 3.106, 21.872 3.063 C 20.977 3.029, 19.705 3.650, 19.046 4.445 M 20.872 9.750 C 19.675 11.277, 19.693 11.350, 21.013 10.325 C 21.845 9.678, 24.320 8.966, 26.513 8.743 L 30.500 8.336 26.372 8.168 C 23.483 8.050, 21.833 8.525, 20.872 9.750 M 30.237 9.992 C 29.374 11.374, 27.607 11.994, 23.775 12.262 L 18.500 12.630 23.595 12.815 C 27.579 12.960, 29.086 12.563, 30.506 10.994 C 31.504 9.890, 32.119 8.786, 31.873 8.539 C 31.626 8.293, 30.890 8.947, 30.237 9.992" stroke="none" fill="black" fill-rule="evenodd"/>
</svg>