<svg xmlns="http://www.w3.org/2000/svg" width="32" height="16" viewBox="0 0 32 16" version="1.1">
	<path d="M 0 8 L 0 16 8.750 15.993 C 13.563 15.989, 20.538 15.699, 24.250 15.348 C 30.960 14.715, 31.001 14.692, 31.132 11.605 L 31.263 8.500 32 12 C 32.575 14.731, 32.766 13.798, 32.868 7.750 L 33 0 16.500 0 L 0 0 0 8 M 0.188 8.500 L 0.218 16.500 1.385 10.500 C 2.027 7.200, 2.271 4.275, 1.926 4 C 1.582 3.725, 1.043 2.825, 0.729 2 C 0.415 1.175, 0.171 4.100, 0.188 8.500 M 2.750 2.662 C 3.438 2.940, 4.563 2.940, 5.250 2.662 C 5.938 2.385, 5.375 2.158, 4 2.158 C 2.625 2.158, 2.063 2.385, 2.750 2.662 M 19.813 2.683 C 20.534 2.972, 21.397 2.936, 21.729 2.604 C 22.061 2.272, 21.471 2.036, 20.417 2.079 C 19.252 2.127, 19.015 2.364, 19.813 2.683 M 4.750 4.662 C 5.438 4.940, 6.563 4.940, 7.250 4.662 C 7.938 4.385, 7.375 4.158, 6 4.158 C 4.625 4.158, 4.063 4.385, 4.750 4.662 M 17 7 C 17 10.856, 17.647 10.856, 18.213 7 C 18.455 5.350, 18.282 4, 17.827 4 C 17.372 4, 17 5.350, 17 7 M 21.813 4.683 C 22.534 4.972, 23.397 4.936, 23.729 4.604 C 24.061 4.272, 23.471 4.036, 22.417 4.079 C 21.252 4.127, 21.015 4.364, 21.813 4.683 M 3 9 C 3 10.650, 3.174 12, 3.387 12 C 3.599 12, 3.971 10.650, 4.213 9 C 4.455 7.350, 4.282 6, 3.827 6 C 3.372 6, 3 7.350, 3 9 M 6.750 6.662 C 7.438 6.940, 8.563 6.940, 9.250 6.662 C 9.938 6.385, 9.375 6.158, 8 6.158 C 6.625 6.158, 6.063 6.385, 6.750 6.662 M 19 9 C 19 12.856, 19.647 12.856, 20.213 9 C 20.455 7.350, 20.282 6, 19.827 6 C 19.372 6, 19 7.350, 19 9 M 23.813 6.683 C 24.534 6.972, 25.397 6.936, 25.729 6.604 C 26.061 6.272, 25.471 6.036, 24.417 6.079 C 23.252 6.127, 23.015 6.364, 23.813 6.683 M 5 11 C 5 13.889, 5.167 14, 9.500 14 C 13.833 14, 14 13.889, 14 11 C 14 8.111, 13.833 8, 9.500 8 C 5.167 8, 5 8.111, 5 11 M 21.150 11.250 C 21.286 14.195, 21.338 14.247, 21.711 11.805 C 22.070 9.449, 22.651 9.061, 26.311 8.729 L 30.500 8.349 25.750 8.175 L 21 8 21.150 11.250" stroke="none" fill="black" fill-rule="evenodd"/>
</svg>