<svg xmlns="http://www.w3.org/2000/svg" width="32" height="16" viewBox="0 0 32 16" version="1.1">
	<path d="M 0 8.090 L 0 16.179 16.250 15.610 L 32.500 15.040 32.792 7.520 L 33.084 0 16.542 0 L 0 0 0 8.090 M 0.343 8.500 C 0.346 12.900, 0.522 14.576, 0.733 12.224 C 0.945 9.872, 0.942 6.272, 0.727 4.224 C 0.512 2.176, 0.339 4.100, 0.343 8.500 M 3 4.500 C 3 7.981, 3.024 8, 7.500 8 C 11.976 8, 12 7.981, 12 4.500 C 12 1.019, 11.976 1, 7.500 1 C 3.024 1, 3 1.019, 3 4.500 M 19.160 4.750 C 19.314 8.364, 19.335 8.384, 19.719 5.305 C 20.087 2.358, 20.445 2.080, 24.309 1.729 L 28.500 1.349 23.750 1.175 L 19 1 19.160 4.750 M 17.320 8 C 17.320 11.575, 17.502 13.037, 17.723 11.250 C 17.945 9.462, 17.945 6.537, 17.723 4.750 C 17.502 2.962, 17.320 4.425, 17.320 8 M 31.328 8.500 C 31.333 12.350, 31.513 13.802, 31.730 11.728 C 31.946 9.653, 31.943 6.503, 31.722 4.728 C 31.501 2.952, 31.324 4.650, 31.328 8.500 M 29 5.948 C 29 8.790, 28.813 8.909, 23.750 9.263 L 18.500 9.630 24.250 9.815 L 30 10 30 6.500 C 30 4.575, 29.775 3, 29.500 3 C 29.225 3, 29 4.326, 29 5.948 M 6 12 C 6 13.556, 6.667 14, 9 14 C 11.333 14, 12 13.556, 12 12 C 12 10.444, 11.333 10, 9 10 C 6.667 10, 6 10.444, 6 12 M 7 12 C 7 12.550, 7.450 13, 8 13 C 8.550 13, 9 12.550, 9 12 C 9 11.450, 8.550 11, 8 11 C 7.450 11, 7 11.450, 7 12 M 22.079 12.583 C 22.127 13.748, 22.364 13.985, 22.683 13.188 C 22.972 12.466, 22.936 11.603, 22.604 11.271 C 22.272 10.939, 22.036 11.529, 22.079 12.583 M 24.638 12.500 C 24.322 13.325, 24.451 14, 24.924 14 C 25.398 14, 26.045 13.325, 26.362 12.500 C 26.678 11.675, 26.549 11, 26.076 11 C 25.602 11, 24.955 11.675, 24.638 12.500 M 28.079 12.583 C 28.127 13.748, 28.364 13.985, 28.683 13.188 C 28.972 12.466, 28.936 11.603, 28.604 11.271 C 28.272 10.939, 28.036 11.529, 28.079 12.583" stroke="none" fill="black" fill-rule="evenodd"/>
</svg>