<svg xmlns="http://www.w3.org/2000/svg" width="32" height="16" viewBox="0 0 32 16" version="1.1">
	<path d="M -0 8.041 L -0 16.082 16.250 15.684 L 32.500 15.286 32.792 7.643 L 33.084 0 16.542 0 L 0 0 -0 8.041 M 0.223 8.500 C 0.156 14.088, 0.395 15.833, 1.017 14.287 C 1.507 13.070, 2.829 11.499, 3.954 10.797 C 5.079 10.094, 6 8.675, 6 7.643 C 6 6.192, 5.446 5.873, 3.552 6.235 C 1.437 6.639, 1.051 6.281, 0.712 3.601 C 0.497 1.896, 0.277 4.100, 0.223 8.500 M 7 6 C 7 9.905, 7.083 10, 10.500 10 C 12.425 10, 14 10.338, 14.001 10.750 C 14.001 11.162, 11.837 11.350, 9.192 11.166 C 5.716 10.925, 4.020 11.272, 3.069 12.416 C 1.903 13.822, 2.268 14, 6.319 14 C 8.828 14, 11.148 13.570, 11.473 13.044 C 11.798 12.518, 12.725 12.341, 13.532 12.651 C 14.676 13.090, 15 12.307, 15 9.107 C 15 6.123, 14.590 5, 13.500 5 C 12.675 5, 12 4.325, 12 3.500 C 12 2.567, 11.056 2, 9.500 2 C 7.250 2, 7 2.400, 7 6 M 23.168 6.250 L 23.336 10.500 23.725 6.812 C 24.024 3.973, 24.618 3.026, 26.307 2.698 C 28.118 2.346, 28.021 2.249, 25.750 2.136 C 23.136 2.007, 23.008 2.210, 23.168 6.250 M 9.250 6.689 C 10.213 6.941, 11.787 6.941, 12.750 6.689 C 13.713 6.438, 12.925 6.232, 11 6.232 C 9.075 6.232, 8.287 6.438, 9.250 6.689 M 18.046 7.445 C 17.386 8.240, 17.045 9.927, 17.287 11.195 C 17.673 13.216, 17.744 13.158, 17.864 10.718 C 17.956 8.844, 18.734 7.640, 20.250 7.031 C 21.773 6.419, 21.974 6.106, 20.872 6.063 C 19.977 6.029, 18.705 6.650, 18.046 7.445 M 26.250 7.689 C 27.212 7.941, 28.788 7.941, 29.750 7.689 C 30.712 7.438, 29.925 7.232, 28 7.232 C 26.075 7.232, 25.288 7.438, 26.250 7.689 M 9.250 8.689 C 10.213 8.941, 11.787 8.941, 12.750 8.689 C 13.713 8.438, 12.925 8.232, 11 8.232 C 9.075 8.232, 8.287 8.438, 9.250 8.689 M 26.250 9.689 C 27.212 9.941, 28.788 9.941, 29.750 9.689 C 30.712 9.438, 29.925 9.232, 28 9.232 C 26.075 9.232, 25.288 9.438, 26.250 9.689 M 19.872 12.750 C 18.675 14.277, 18.693 14.350, 20.013 13.325 C 20.845 12.678, 23.320 11.966, 25.513 11.743 L 29.500 11.336 25.372 11.168 C 22.483 11.050, 20.833 11.525, 19.872 12.750 M 28.750 14.662 C 29.438 14.940, 30.563 14.940, 31.250 14.662 C 31.938 14.385, 31.375 14.158, 30 14.158 C 28.625 14.158, 28.063 14.385, 28.750 14.662" stroke="none" fill="black" fill-rule="evenodd"/>
</svg>