<svg xmlns="http://www.w3.org/2000/svg" width="32" height="16" viewBox="0 0 32 16" version="1.1">
	<path d="M 0 8.025 L 0 16.050 16.250 15.775 L 32.500 15.500 32.792 7.750 L 33.084 0 16.542 0 L 0 0 0 8.025 M 0.343 8.500 C 0.346 12.900, 0.522 14.576, 0.733 12.224 C 0.945 9.872, 0.942 6.272, 0.727 4.224 C 0.512 2.176, 0.339 4.100, 0.343 8.500 M 22.500 2 C 22.160 2.550, 22.332 3, 22.882 3 C 23.432 3, 24.160 2.550, 24.500 2 C 24.840 1.450, 24.668 1, 24.118 1 C 23.568 1, 22.840 1.450, 22.500 2 M 28.710 4 C 28.423 5.100, 28.595 6, 29.094 6 C 29.592 6, 30 5.100, 30 4 C 30 2.900, 29.827 2, 29.617 2 C 29.406 2, 28.998 2.900, 28.710 4 M 20.500 5 C 20.160 5.550, 20.332 6, 20.882 6 C 21.432 6, 22.160 5.550, 22.500 5 C 22.840 4.450, 22.668 4, 22.118 4 C 21.568 4, 20.840 4.450, 20.500 5 M 17.813 12.683 C 18.534 12.972, 19.397 12.936, 19.729 12.604 C 20.061 12.272, 19.471 12.036, 18.417 12.079 C 17.252 12.127, 17.015 12.364, 17.813 12.683 M 25.813 12.683 C 26.534 12.972, 27.397 12.936, 27.729 12.604 C 28.061 12.272, 27.471 12.036, 26.417 12.079 C 25.252 12.127, 25.015 12.364, 25.813 12.683 M 21.762 14.707 C 23.006 14.946, 24.806 14.937, 25.762 14.687 C 26.718 14.437, 25.700 14.241, 23.500 14.252 C 21.300 14.263, 20.518 14.468, 21.762 14.707 M 28.750 14.662 C 29.438 14.940, 30.563 14.940, 31.250 14.662 C 31.938 14.385, 31.375 14.158, 30 14.158 C 28.625 14.158, 28.063 14.385, 28.750 14.662" stroke="none" fill="black" fill-rule="evenodd"/>
</svg>