<svg xmlns="http://www.w3.org/2000/svg" width="32" height="16" viewBox="0 0 32 16" version="1.1">
	<path d="M 0 8.025 L 0 16.050 16.250 15.775 L 32.500 15.500 32.792 7.750 L 33.084 0 16.542 0 L 0 0 0 8.025 M 0.343 8.500 C 0.346 12.900, 0.522 14.576, 0.733 12.224 C 0.945 9.872, 0.942 6.272, 0.727 4.224 C 0.512 2.176, 0.339 4.100, 0.343 8.500 M 22.500 2 C 21.718 3.266, 23.042 3.266, 25 2 C 26.293 1.165, 26.266 1.029, 24.809 1.015 C 23.879 1.007, 22.840 1.450, 22.500 2 M 29.710 4 C 29.423 5.100, 29.595 6, 30.094 6 C 30.592 6, 31 5.100, 31 4 C 31 2.900, 30.827 2, 30.617 2 C 30.406 2, 29.998 2.900, 29.710 4 M 20.500 5 C 20.160 5.550, 20.332 6, 20.882 6 C 21.432 6, 22.160 5.550, 22.500 5 C 22.840 4.450, 22.668 4, 22.118 4 C 21.568 4, 20.840 4.450, 20.500 5 M 31.232 10 C 31.232 11.925, 31.438 12.713, 31.689 11.750 C 31.941 10.787, 31.941 9.213, 31.689 8.250 C 31.438 7.287, 31.232 8.075, 31.232 10 M 17.813 12.683 C 18.534 12.972, 19.397 12.936, 19.729 12.604 C 20.061 12.272, 19.471 12.036, 18.417 12.079 C 17.252 12.127, 17.015 12.364, 17.813 12.683 M 26.211 13.538 C 25.150 14.740, 25.176 15, 26.354 15 C 27.141 15, 28.045 14.325, 28.362 13.500 C 29.090 11.603, 27.899 11.624, 26.211 13.538 M 20.750 14.662 C 21.438 14.940, 22.563 14.940, 23.250 14.662 C 23.938 14.385, 23.375 14.158, 22 14.158 C 20.625 14.158, 20.063 14.385, 20.750 14.662" stroke="none" fill="black" fill-rule="evenodd"/>
</svg>