<svg xmlns="http://www.w3.org/2000/svg" width="32" height="16" viewBox="0 0 32 16" version="1.1">
	<path d="M 0 8.025 L 0 16.050 16.250 15.775 L 32.500 15.500 32.792 7.750 L 33.084 0 16.542 0 L 0 0 0 8.025 M 0.343 8.500 C 0.346 12.900, 0.522 14.576, 0.733 12.224 C 0.945 9.872, 0.942 6.272, 0.727 4.224 C 0.512 2.176, 0.339 4.100, 0.343 8.500 M 22.638 8.500 C 22.322 9.325, 22.499 10, 23.031 10 C 23.564 10, 24 9.325, 24 8.500 C 24 7.675, 23.823 7, 23.607 7 C 23.391 7, 22.955 7.675, 22.638 8.500 M 21.500 12 C 20.718 13.266, 22.042 13.266, 24 12 C 25.293 11.165, 25.266 11.029, 23.809 11.015 C 22.879 11.007, 21.840 11.450, 21.500 12 M 20.813 14.683 C 21.534 14.972, 22.397 14.936, 22.729 14.604 C 23.061 14.272, 22.471 14.036, 21.417 14.079 C 20.252 14.127, 20.015 14.364, 20.813 14.683 M 26.269 14.693 C 27.242 14.947, 28.592 14.930, 29.269 14.656 C 29.946 14.382, 29.150 14.175, 27.500 14.195 C 25.850 14.215, 25.296 14.439, 26.269 14.693" stroke="none" fill="black" fill-rule="evenodd"/>
</svg>