<svg xmlns="http://www.w3.org/2000/svg" width="32" height="16" viewBox="0 0 32 16" version="1.1">
	<path d="M 0 6.085 C 0 10.142, 0.393 12.005, 1.250 12.015 C 2.024 12.025, 2.119 12.310, 1.500 12.765 C 0.950 13.169, 0.382 14.079, 0.238 14.787 C -0.103 16.456, 27.734 16.279, 29.942 14.598 C 31.068 13.741, 31.202 13.802, 30.553 14.880 C 29.991 15.812, 30.144 16.119, 31.023 15.826 C 32.579 15.307, 33.200 12.242, 31.911 11.445 C 31.410 11.135, 31.007 10.346, 31.015 9.691 C 31.025 8.975, 31.418 9.099, 32 10 C 32.688 11.064, 32.974 9.819, 32.985 5.715 L 33 -0.070 16.500 0.050 L 0 0.170 0 6.085 M 0 6.667 C 0 13.513, 0.511 13.351, 1.313 6.250 C 1.660 3.175, 1.511 1, 0.953 1 C 0.429 1, 0 3.550, 0 6.667 M 19.459 2.067 C 18.433 3.727, 19.354 3.957, 20.789 2.399 C 21.499 1.630, 21.638 1, 21.098 1 C 20.559 1, 19.821 1.480, 19.459 2.067 M 23 3.260 C 23 4.136, 22.212 5.059, 21.250 5.311 C 19.610 5.739, 19.612 5.775, 21.281 5.884 C 23.089 6.002, 24.765 3.431, 23.624 2.290 C 23.281 1.947, 23 2.384, 23 3.260 M 23.750 6.208 C 21.688 8.294, 20.415 10, 20.923 10 C 22.150 10, 28.168 3.946, 27.793 3.088 C 27.632 2.719, 25.813 4.123, 23.750 6.208 M 14.028 7.466 C 13.359 8.273, 12.966 9.383, 13.155 9.934 C 13.345 10.484, 14.020 9.824, 14.656 8.467 C 15.974 5.654, 15.783 5.351, 14.028 7.466 M 28.732 8 C 27.574 9.353, 27.424 10, 28.269 10 C 28.957 10, 30.081 9.100, 30.768 8 C 32.386 5.410, 30.950 5.410, 28.732 8" stroke="none" fill="black" fill-rule="evenodd"/>
</svg>