<svg xmlns="http://www.w3.org/2000/svg" width="32" height="16" viewBox="0 0 32 16" version="1.1">
	<path d="M 0 8 L 0 16 10.923 16 L 21.846 16 18.923 13.077 C 15.523 9.677, 15.186 6.218, 17.929 2.861 C 19.477 0.967, 20.109 0.747, 21.129 1.750 C 21.828 2.438, 22.846 3, 23.391 3 C 23.936 3, 23.509 2.339, 22.441 1.532 C 21.035 0.468, 17.674 0.055, 10.250 0.032 L 0 0 0 8 M 27.214 1.060 C 28.157 1.609, 29.619 3.046, 30.464 4.252 C 31.981 6.418, 32 6.406, 32 3.223 C 32 0.247, 31.751 0.002, 28.750 0.030 C 26.101 0.055, 25.817 0.246, 27.214 1.060 M 2.513 1.978 C 2.181 2.517, 3.392 3.644, 5.204 4.484 C 8.060 5.807, 8.147 5.944, 5.854 5.512 C 2.910 4.958, 0.907 7.643, 3.517 8.645 C 4.333 8.958, 5 10.066, 5 11.107 C 5 14.119, 6.990 13.299, 7.647 10.016 C 7.975 8.375, 8.616 7.263, 9.072 7.544 C 9.938 8.080, 12 4.916, 12 3.051 C 12 2.406, 10.818 2.180, 9.061 2.489 C 7.445 2.774, 5.843 2.555, 5.502 2.003 C 4.713 0.727, 3.294 0.715, 2.513 1.978 M 28.178 6.778 C 27.475 8.031, 26.524 8.824, 26.064 8.540 C 25.605 8.256, 24.996 9.238, 24.713 10.723 C 24.125 13.798, 26.160 15.917, 29.750 15.968 C 31.440 15.992, 32 15.428, 32 13.700 C 32 12.435, 31.588 10.973, 31.085 10.450 C 30.581 9.928, 30.009 8.375, 29.813 7 L 29.456 4.500 28.178 6.778 M 18 9.306 C 18 10.640, 20.490 14, 21.478 14 C 22.303 14, 20.643 9.949, 19.392 8.910 C 18.304 8.008, 18 8.094, 18 9.306 M 12 11 C 12 11.550, 12.450 12, 13 12 C 13.550 12, 14 11.550, 14 11 C 14 10.450, 13.550 10, 13 10 C 12.450 10, 12 10.450, 12 11 M 28.270 11.925 C 28.650 13.378, 28.372 13.710, 27.137 13.278 C 25.801 12.811, 25.731 12.955, 26.757 14.060 C 27.811 15.195, 28.275 15.154, 29.625 13.803 C 31.248 12.181, 30.788 10, 28.824 10 C 28.243 10, 27.993 10.866, 28.270 11.925" stroke="none" fill="black" fill-rule="evenodd"/>
</svg>