<svg xmlns="http://www.w3.org/2000/svg" width="469" height="159" viewBox="0 0 469 159" version="1.1">
	<path d="M 461 0.927 C 461 1.436, 460.212 2.059, 459.250 2.311 C 458.288 2.562, 460.200 2.768, 463.500 2.768 C 466.800 2.768, 468.712 2.562, 467.750 2.311 C 466.788 2.059, 466 1.436, 466 0.927 C 466 0.417, 464.875 0, 463.500 0 C 462.125 0, 461 0.417, 461 0.927 M 3.313 3.805 C 6.418 7.046, 6.922 11.613, 4.250 12.311 C 3.288 12.562, 4.525 12.768, 7 12.768 C 9.475 12.768, 10.713 12.562, 9.750 12.311 C 7.078 11.613, 7.582 7.046, 10.687 3.805 L 13.374 1 7 1 L 0.626 1 3.313 3.805 M 31 1.889 C 29.059 2.425, 28.427 3.340, 28.172 5.986 C 27.992 7.860, 27.092 9.943, 26.174 10.615 C 24.238 12.031, 25.180 13.529, 27.457 12.655 C 28.431 12.281, 29 10.803, 29 8.648 C 29 5.952, 29.474 5.106, 31.250 4.630 C 34.735 3.696, 35 3.828, 35 6.500 C 35 8.056, 34.433 9, 33.500 9 C 32.675 9, 32 9.708, 32 10.573 C 32 11.532, 32.684 12.017, 33.750 11.814 C 35.103 11.557, 35.569 10.291, 35.802 6.241 C 36.123 0.685, 35.945 0.525, 31 1.889 M 50.655 2.829 C 47.406 6.419, 49.770 11, 54.871 11 C 56.372 11, 58.132 11.533, 58.783 12.183 C 59.434 12.834, 60.282 13.052, 60.667 12.667 C 61.052 12.282, 60.834 11.434, 60.183 10.783 C 59.532 10.132, 59 8.372, 59 6.871 C 59 1.679, 53.922 -0.781, 50.655 2.829 M 126.580 2.750 C 126.144 4.121, 125.063 5, 123.810 5 C 122.012 5, 121.927 5.207, 123.127 6.654 C 123.882 7.563, 124.353 9.172, 124.174 10.229 C 123.891 11.904, 124.124 12.004, 125.988 11.006 C 127.631 10.127, 128.484 10.157, 129.661 11.134 C 130.963 12.214, 131.142 12.096, 130.847 10.357 C 130.656 9.230, 131.118 7.563, 131.873 6.654 C 133.070 5.211, 132.994 5, 131.275 5 C 130.192 5, 128.853 3.988, 128.301 2.750 L 127.295 0.500 126.580 2.750 M 150.580 2.750 C 150.144 4.121, 149.063 5, 147.810 5 C 146.012 5, 145.927 5.207, 147.127 6.654 C 147.882 7.563, 148.353 9.172, 148.174 10.229 C 147.891 11.904, 148.124 12.004, 149.988 11.006 C 151.631 10.127, 152.484 10.157, 153.661 11.134 C 154.963 12.214, 155.142 12.096, 154.847 10.357 C 154.656 9.230, 155.118 7.563, 155.873 6.654 C 157.070 5.211, 156.994 5, 155.275 5 C 154.192 5, 152.853 3.988, 152.301 2.750 L 151.295 0.500 150.580 2.750 M 172.388 2.432 C 172.056 3.297, 172.062 5.110, 172.401 6.462 C 172.862 8.298, 172.510 9.192, 171.009 9.995 C 167.426 11.913, 168.870 13, 175 13 C 181.004 13, 182.537 11.961, 179.250 10.118 C 178.060 9.451, 177.500 7.915, 177.500 5.319 C 177.500 2.118, 177.135 1.448, 175.246 1.180 C 173.892 0.988, 172.750 1.488, 172.388 2.432 M 338.655 2.829 C 335.406 6.419, 337.770 11, 342.871 11 C 344.372 11, 346.132 11.533, 346.783 12.183 C 347.434 12.834, 348.282 13.052, 348.667 12.667 C 349.052 12.282, 348.834 11.434, 348.183 10.783 C 347.533 10.132, 347 8.372, 347 6.871 C 347 1.679, 341.922 -0.781, 338.655 2.829 M 362.655 2.829 C 359.406 6.419, 361.770 11, 366.871 11 C 368.372 11, 370.132 11.533, 370.783 12.183 C 371.434 12.834, 372.282 13.052, 372.667 12.667 C 373.052 12.282, 372.834 11.434, 372.183 10.783 C 371.533 10.132, 371 8.372, 371 6.871 C 371 1.679, 365.922 -0.781, 362.655 2.829 M 390 3.500 C 390 4.875, 390.450 6, 391 6 C 391.550 6, 392 4.875, 392 3.500 C 392 2.125, 391.550 1, 391 1 C 390.450 1, 390 2.125, 390 3.500 M 419 7 C 419 10.333, 419.444 13, 420 13 C 420.556 13, 421 10.333, 421 7 C 421 3.667, 420.556 1, 420 1 C 419.444 1, 419 3.667, 419 7 M 462.813 1.683 C 463.534 1.972, 464.397 1.936, 464.729 1.604 C 465.061 1.272, 464.471 1.036, 463.417 1.079 C 462.252 1.127, 462.015 1.364, 462.813 1.683 M 75.769 5.231 L 79 8.462 82.231 5.231 L 85.462 2 79 2 L 72.538 2 75.769 5.231 M 96.963 4.068 C 96.137 5.612, 96.572 6.653, 99.270 9.598 L 102.595 13.226 105.808 9.566 C 108.377 6.640, 108.820 5.532, 108.020 4.037 C 106.583 1.352, 98.405 1.375, 96.963 4.068 M 193 7.500 L 193 13 199 13 L 205 13 205 7.500 L 205 2 199 2 L 193 2 193 7.500 M 217 4.500 C 217 6.500, 217.500 7, 219.500 7 C 221.500 7, 222 6.500, 222 4.500 C 222 2.500, 221.500 2, 219.500 2 C 217.500 2, 217 2.500, 217 4.500 M 223 4.500 C 223 6.500, 223.500 7, 225.500 7 C 227.500 7, 228 6.500, 228 4.500 C 228 2.500, 227.500 2, 225.500 2 C 223.500 2, 223 2.500, 223 4.500 M 241 3.500 C 241 4.325, 241.675 5, 242.500 5 C 243.325 5, 244 4.325, 244 3.500 C 244 2.675, 243.325 2, 242.500 2 C 241.675 2, 241 2.675, 241 3.500 M 245 3.500 C 245 4.325, 245.675 5, 246.500 5 C 247.325 5, 248 4.325, 248 3.500 C 248 2.675, 247.325 2, 246.500 2 C 245.675 2, 245 2.675, 245 3.500 M 249 3.500 C 249 4.325, 249.675 5, 250.500 5 C 251.325 5, 252 4.325, 252 3.500 C 252 2.675, 251.325 2, 250.500 2 C 249.675 2, 249 2.675, 249 3.500 M 265 3.500 C 265 4.325, 265.675 5, 266.500 5 C 267.325 5, 268 4.325, 268 3.500 C 268 2.675, 267.325 2, 266.500 2 C 265.675 2, 265 2.675, 265 3.500 M 269 3.500 C 269 4.583, 270.111 5, 273 5 C 275.889 5, 277 4.583, 277 3.500 C 277 2.417, 275.889 2, 273 2 C 270.111 2, 269 2.417, 269 3.500 M 296.500 5 C 294.499 7.089, 293.307 7.670, 292.463 6.969 C 291.648 6.293, 290.907 6.407, 290.145 7.325 C 289.286 8.361, 289.558 9.176, 291.315 10.826 L 293.605 12.978 297.851 8.652 C 301.332 5.105, 301.849 4.119, 300.718 3.181 C 299.636 2.283, 298.728 2.675, 296.500 5 M 314.473 3.044 C 314.118 3.618, 314.372 4.743, 315.036 5.544 C 315.984 6.686, 315.969 7.333, 314.965 8.542 C 313.142 10.738, 315.262 12.858, 317.458 11.035 C 318.711 9.995, 319.289 9.995, 320.542 11.035 C 322.738 12.858, 324.858 10.738, 323.035 8.542 C 321.995 7.289, 321.995 6.711, 323.035 5.458 C 324.880 3.235, 322.729 1.150, 320.500 3 C 319.300 3.996, 318.634 4.034, 317.758 3.158 C 316.323 1.723, 315.311 1.688, 314.473 3.044 M 386.035 3.934 C 384.499 6.805, 384.767 8.767, 387 11 C 389.546 13.546, 392.454 13.546, 395 11 C 397.354 8.646, 397.548 6.131, 395.582 3.443 C 393.720 0.896, 392.476 2.188, 394.173 4.906 C 395.861 7.608, 394.221 10.500, 391 10.500 C 387.842 10.500, 386.135 7.614, 387.757 5.017 C 389.252 2.623, 389.310 2, 388.035 2 C 387.505 2, 386.605 2.870, 386.035 3.934 M 436.853 2.672 C 434.972 3.169, 433.952 6.102, 434.686 8.908 C 435.617 12.469, 442.383 12.469, 443.314 8.908 C 443.912 6.619, 443.086 3, 441.965 3 C 441.524 3, 440.564 2.828, 439.832 2.619 C 439.099 2.409, 437.759 2.433, 436.853 2.672 M 51.389 4.430 C 50.393 7.025, 51.788 9.169, 54.246 8.820 C 57.450 8.365, 57.450 3.635, 54.246 3.180 C 52.893 2.988, 51.750 3.488, 51.389 4.430 M 196 5 C 196 6.556, 196.667 7, 199 7 C 201.333 7, 202 6.556, 202 5 C 202 3.444, 201.333 3, 199 3 C 196.667 3, 196 3.444, 196 5 M 339.389 4.430 C 338.393 7.025, 339.788 9.169, 342.246 8.820 C 343.898 8.585, 344.500 7.833, 344.500 6 C 344.500 4.167, 343.898 3.415, 342.246 3.180 C 340.893 2.988, 339.750 3.488, 339.389 4.430 M 363.389 4.430 C 362.393 7.025, 363.788 9.169, 366.246 8.820 C 367.898 8.585, 368.500 7.833, 368.500 6 C 368.500 4.167, 367.898 3.415, 366.246 3.180 C 364.893 2.988, 363.750 3.488, 363.389 4.430 M 73 7 C 73 10.238, 73.095 10.333, 74.714 8.714 C 76.333 7.095, 76.333 6.905, 74.714 5.286 C 73.095 3.667, 73 3.762, 73 7 M 82.958 5.550 C 81.896 6.831, 81.961 7.390, 83.336 8.764 C 84.888 10.317, 85 10.212, 85 7.214 C 85 3.568, 84.763 3.375, 82.958 5.550 M 340.446 5.087 C 339.416 6.755, 341.733 8.667, 343.113 7.287 C 344.267 6.133, 343.545 4, 342 4 C 341.515 4, 340.816 4.489, 340.446 5.087 M 459 8.500 L 459 13 463.500 13 L 468 13 468 8.500 L 468 4 463.500 4 L 459 4 459 8.500 M 150.212 5.869 C 148.980 6.630, 149.867 8.380, 151.655 8.718 C 153.289 9.027, 154.142 6.269, 152.596 5.675 C 151.894 5.406, 150.821 5.493, 150.212 5.869 M 364 6 C 364 6.550, 364.900 7, 366 7 C 367.100 7, 368 6.550, 368 6 C 368 5.450, 367.100 5, 366 5 C 364.900 5, 364 5.450, 364 6 M 416 9 C 416 11.200, 416.450 13, 417 13 C 417.550 13, 418 11.200, 418 9 C 418 6.800, 417.550 5, 417 5 C 416.450 5, 416 6.800, 416 9 M 437.446 6.087 C 436.416 7.755, 438.733 9.667, 440.113 8.287 C 441.267 7.133, 440.545 5, 439 5 C 438.515 5, 437.816 5.489, 437.446 6.087 M 241 7.500 C 241 8.325, 241.675 9, 242.500 9 C 243.325 9, 244 8.325, 244 7.500 C 244 6.675, 243.325 6, 242.500 6 C 241.675 6, 241 6.675, 241 7.500 M 245 7.500 C 245 8.325, 245.675 9, 246.500 9 C 247.325 9, 248 8.325, 248 7.500 C 248 6.675, 247.325 6, 246.500 6 C 245.675 6, 245 6.675, 245 7.500 M 249 7.500 C 249 8.325, 249.675 9, 250.500 9 C 251.325 9, 252 8.325, 252 7.500 C 252 6.675, 251.325 6, 250.500 6 C 249.675 6, 249 6.675, 249 7.500 M 265 7.500 C 265 8.325, 265.675 9, 266.500 9 C 267.325 9, 268 8.325, 268 7.500 C 268 6.675, 267.325 6, 266.500 6 C 265.675 6, 265 6.675, 265 7.500 M 269 7.500 C 269 8.583, 270.111 9, 273 9 C 275.889 9, 277 8.583, 277 7.500 C 277 6.417, 275.889 6, 273 6 C 270.111 6, 269 6.417, 269 7.500 M 74.392 10.119 C 72.743 11.942, 72.888 12, 79.059 12 C 85.102 12, 85.340 11.911, 83.696 10.267 C 81.308 7.879, 76.489 7.803, 74.392 10.119 M 196 10 C 196 11.556, 196.667 12, 199 12 C 201.333 12, 202 11.556, 202 10 C 202 8.444, 201.333 8, 199 8 C 196.667 8, 196 8.444, 196 10 M 217 10.500 C 217 12.500, 217.500 13, 219.500 13 C 221.500 13, 222 12.500, 222 10.500 C 222 8.500, 221.500 8, 219.500 8 C 217.500 8, 217 8.500, 217 10.500 M 223 10.500 C 223 12.500, 223.500 13, 225.500 13 C 227.500 13, 228 12.500, 228 10.500 C 228 8.500, 227.500 8, 225.500 8 C 223.500 8, 223 8.500, 223 10.500 M 413 10.500 C 413 11.875, 413.450 13, 414 13 C 414.550 13, 415 11.875, 415 10.500 C 415 9.125, 414.550 8, 414 8 C 413.450 8, 413 9.125, 413 10.500 M 241 11.500 C 241 12.325, 241.675 13, 242.500 13 C 243.325 13, 244 12.325, 244 11.500 C 244 10.675, 243.325 10, 242.500 10 C 241.675 10, 241 10.675, 241 11.500 M 245 11.500 C 245 12.325, 245.675 13, 246.500 13 C 247.325 13, 248 12.325, 248 11.500 C 248 10.675, 247.325 10, 246.500 10 C 245.675 10, 245 10.675, 245 11.500 M 249 11.500 C 249 12.325, 249.675 13, 250.500 13 C 251.325 13, 252 12.325, 252 11.500 C 252 10.675, 251.325 10, 250.500 10 C 249.675 10, 249 10.675, 249 11.500 M 265 11.500 C 265 12.325, 265.675 13, 266.500 13 C 267.325 13, 268 12.325, 268 11.500 C 268 10.675, 267.325 10, 266.500 10 C 265.675 10, 265 10.675, 265 11.500 M 269 11.500 C 269 12.583, 270.111 13, 273 13 C 275.889 13, 277 12.583, 277 11.500 C 277 10.417, 275.889 10, 273 10 C 270.111 10, 269 10.417, 269 11.500 M 410 11.500 C 410 12.325, 410.450 13, 411 13 C 411.550 13, 412 12.325, 412 11.500 C 412 10.675, 411.550 10, 411 10 C 410.450 10, 410 10.675, 410 11.500 M 2.500 28 C 0.919 29.650, 0.160 31, 0.813 31 C 1.466 31, 2 32.350, 2 34 C 2 36, 2.500 37, 3.500 37 C 4.333 37, 5 36.111, 5 35 C 5 33.889, 5.667 33, 6.500 33 C 7.333 33, 8 33.889, 8 35 C 8 36.111, 8.667 37, 9.500 37 C 10.500 37, 11 36, 11 34 C 11 32.350, 11.534 31, 12.187 31 C 12.840 31, 12.081 29.650, 10.500 28 C 8.919 26.350, 7.119 25, 6.500 25 C 5.881 25, 4.081 26.350, 2.500 28 M 26 31 L 26 37 30.500 37 C 34.976 37, 35 36.981, 35 33.500 C 35 30.667, 34.619 30, 33 30 C 31.533 30, 31 29.333, 31 27.500 C 31 25.500, 30.500 25, 28.500 25 C 26.111 25, 26 25.267, 26 31 M 51 27 C 49.900 28.100, 49 29.900, 49 31 C 49 32.100, 49.900 33.900, 51 35 C 52.100 36.100, 53.900 37, 55 37 C 57.576 37, 61 33.576, 61 31 C 61 29.900, 60.100 28.100, 59 27 C 57.900 25.900, 56.100 25, 55 25 C 53.900 25, 52.100 25.900, 51 27 M 74.139 30.589 C 72.962 33.663, 72 36.363, 72 36.589 C 72 36.815, 73.350 37, 75 37 C 77.333 37, 78 36.556, 78 35 C 78 33.900, 78.450 33, 79 33 C 79.550 33, 80 33.900, 80 35 C 80 36.556, 80.667 37, 83 37 C 84.650 37, 86 36.815, 86 36.589 C 86 36.363, 85.038 33.663, 83.861 30.589 C 81.989 25.696, 81.383 25, 79 25 C 76.617 25, 76.011 25.696, 74.139 30.589 M 101 27.500 C 101 28.875, 100.495 30, 99.878 30 C 99.102 30, 99.140 30.464, 100 31.500 C 101.040 32.753, 100.896 33, 99.122 33 C 97.667 33, 97 33.628, 97 35 C 97 36.758, 97.667 37, 102.500 37 C 107.333 37, 108 36.758, 108 35 C 108 33.628, 107.333 33, 105.878 33 C 104.104 33, 103.960 32.753, 105 31.500 C 105.860 30.464, 105.898 30, 105.122 30 C 104.505 30, 104 28.875, 104 27.500 C 104 25.944, 103.433 25, 102.500 25 C 101.567 25, 101 25.944, 101 27.500 M 123 27 C 121.900 28.100, 121 29.900, 121 31 C 121 33.576, 124.424 37, 127 37 C 128.100 37, 129.900 36.100, 131 35 C 132.100 33.900, 133 32.100, 133 31 C 133 29.900, 132.100 28.100, 131 27 C 129.900 25.900, 128.100 25, 127 25 C 125.900 25, 124.100 25.900, 123 27 M 147 27 C 145.900 28.100, 145 29.900, 145 31 C 145 33.576, 148.424 37, 151 37 C 152.100 37, 153.900 36.100, 155 35 C 156.100 33.900, 157 32.100, 157 31 C 157 29.900, 156.100 28.100, 155 27 C 153.900 25.900, 152.100 25, 151 25 C 149.900 25, 148.100 25.900, 147 27 M 170.515 25.976 C 170.183 26.513, 169.644 29.213, 169.316 31.976 L 168.721 37 175 37 L 181.279 37 180.684 31.976 C 180.356 29.213, 179.817 26.513, 179.485 25.976 C 178.700 24.706, 171.300 24.706, 170.515 25.976 M 195 27 C 193.900 28.100, 193 29.900, 193 31 C 193 33.576, 196.424 37, 199 37 C 200.100 37, 201.900 36.100, 203 35 C 204.100 33.900, 205 32.100, 205 31 C 205 29.900, 204.100 28.100, 203 27 C 201.900 25.900, 200.100 25, 199 25 C 197.900 25, 196.100 25.900, 195 27 M 218.999 27.001 C 217.900 28.100, 217 29.900, 217 31 C 217 33.576, 220.424 37, 223 37 C 225.083 37, 229 33.736, 229 32 C 229 30.331, 227.558 30.877, 226.193 33.063 C 224.675 35.493, 221.224 35.329, 219.607 32.750 C 218.172 30.460, 219.877 27.622, 222.963 27.166 C 224.392 26.955, 224.976 27.230, 224.552 27.916 C 224.154 28.561, 224.716 29, 225.941 29 C 227.236 29, 227.999 28.351, 227.998 27.250 C 227.995 24.591, 221.587 24.413, 218.999 27.001 M 242.999 27.001 C 240.978 29.022, 240.365 31, 241.759 31 C 242.177 31, 243.081 30.100, 243.768 29 C 244.455 27.900, 245.940 27, 247.067 27 C 248.195 27, 248.840 27.450, 248.500 28 C 248.160 28.550, 248.809 29, 249.941 29 C 251.236 29, 251.999 28.351, 251.998 27.250 C 251.995 24.591, 245.587 24.413, 242.999 27.001 M 266 31 L 266 37 271.500 37 L 277 37 277 31 L 277 25 271.500 25 L 266 25 266 31 M 291 27 C 291 28.100, 290.550 29, 290 29 C 289.450 29, 289 30.800, 289 33 L 289 37 294.500 37 L 300 37 300 33 C 300 30.800, 299.550 29, 299 29 C 298.450 29, 298 28.100, 298 27 C 298 25.381, 297.333 25, 294.500 25 C 291.667 25, 291 25.381, 291 27 M 339.223 26.557 C 337.564 27.718, 337.026 29.051, 337.102 31.807 L 337.205 35.500 338.002 32.121 C 338.826 28.631, 340.398 27.031, 343 27.031 C 345.602 27.031, 347.174 28.631, 347.998 32.121 L 348.795 35.500 348.898 31.807 C 349.004 27.983, 346.419 25, 343 25 C 342.145 25, 340.445 25.701, 339.223 26.557 M 433 27.914 C 433 30.527, 433.256 30.759, 435.481 30.164 C 436.846 29.799, 437.971 29.163, 437.981 28.750 C 438.066 25.405, 437.798 25, 435.500 25 C 433.405 25, 433 25.472, 433 27.914 M 439.565 27.250 C 439.950 28.488, 440.655 29.650, 441.132 29.833 C 441.609 30.017, 442 30.804, 442 31.583 C 442 32.362, 442.675 33, 443.500 33 C 445.316 33, 445.491 31.365, 443.750 30.662 C 442.750 30.259, 442.750 30.142, 443.750 30.079 C 444.438 30.036, 445 28.875, 445 27.500 C 445 25.377, 444.538 25, 441.933 25 C 439.211 25, 438.944 25.254, 439.565 27.250 M 457.300 30 C 457.300 33.025, 457.487 34.263, 457.716 32.750 C 457.945 31.238, 457.945 28.763, 457.716 27.250 C 457.487 25.738, 457.300 26.975, 457.300 30 M 459.300 30 C 459.300 33.025, 459.487 34.263, 459.716 32.750 C 459.945 31.238, 459.945 28.763, 459.716 27.250 C 459.487 25.738, 459.300 26.975, 459.300 30 M 462 30 C 462 32.750, 462.450 35, 463 35 C 463.550 35, 464 32.750, 464 30 C 464 27.250, 463.550 25, 463 25 C 462.450 25, 462 27.250, 462 30 M 465.300 30 C 465.300 33.025, 465.487 34.263, 465.716 32.750 C 465.945 31.238, 465.945 28.763, 465.716 27.250 C 465.487 25.738, 465.300 26.975, 465.300 30 M 467 30 C 467 32.750, 467.450 35, 468 35 C 468.550 35, 469 32.750, 469 30 C 469 27.250, 468.550 25, 468 25 C 467.450 25, 467 27.250, 467 30 M 32 27.500 C 32 28.325, 32.730 29, 33.622 29 C 34.951 29, 35.020 28.729, 34 27.500 C 33.315 26.675, 32.585 26, 32.378 26 C 32.170 26, 32 26.675, 32 27.500 M 314.310 31.500 C 314.315 34.800, 314.502 36.029, 314.725 34.232 C 314.947 32.435, 314.943 29.735, 314.715 28.232 C 314.486 26.729, 314.304 28.200, 314.310 31.500 M 316.492 26.841 C 316.221 27.112, 316 28.496, 316 29.917 C 316.001 32.235, 316.385 32.500, 319.750 32.500 C 323.185 32.500, 323.524 32.248, 323.792 29.500 C 324.065 26.687, 323.862 26.495, 320.534 26.425 C 318.581 26.383, 316.763 26.571, 316.492 26.841 M 434 27.500 C 434 28.325, 434.675 29, 435.500 29 C 436.325 29, 437 28.325, 437 27.500 C 437 26.675, 436.325 26, 435.500 26 C 434.675 26, 434 26.675, 434 27.500 M 441 27.500 C 441 28.325, 441.675 29, 442.500 29 C 443.325 29, 444 28.325, 444 27.500 C 444 26.675, 443.325 26, 442.500 26 C 441.675 26, 441 26.675, 441 27.500 M 52.040 28.452 C 49.383 31.653, 53.285 36.570, 56.750 34.388 C 58.972 32.989, 59.515 30.325, 57.960 28.452 C 56.416 26.591, 53.584 26.591, 52.040 28.452 M 124.040 28.452 C 121.383 31.653, 125.285 36.570, 128.750 34.388 C 130.972 32.989, 131.515 30.325, 129.960 28.452 C 128.416 26.591, 125.584 26.591, 124.040 28.452 M 148.040 28.452 C 146.485 30.325, 147.028 32.989, 149.250 34.388 C 152.715 36.570, 156.617 31.653, 153.960 28.452 C 152.416 26.591, 149.584 26.591, 148.040 28.452 M 171.665 29.175 C 171.167 31.076, 173.171 33.936, 175 33.936 C 175.275 33.936, 176.266 33.354, 177.202 32.643 C 179.850 30.631, 178.434 27, 175 27 C 173 27, 172.076 27.603, 171.665 29.175 M 196.040 28.452 C 193.383 31.653, 197.285 36.570, 200.750 34.388 C 202.972 32.989, 203.515 30.325, 201.960 28.452 C 200.416 26.591, 197.584 26.591, 196.040 28.452 M 267 31.500 L 267 36 271.500 36 L 276 36 276 31.500 L 276 27 271.500 27 L 267 27 267 31.500 M 293 28 C 293 28.550, 293.675 29, 294.500 29 C 295.325 29, 296 28.550, 296 28 C 296 27.450, 295.325 27, 294.500 27 C 293.675 27, 293 27.450, 293 28 M 363.750 28.299 C 360.133 29.729, 360.251 32.279, 364 33.694 L 367 34.826 367 30.913 C 367 28.761, 366.887 27.048, 366.750 27.106 C 366.613 27.165, 365.262 27.702, 363.750 28.299 M 387.750 28.299 C 384.133 29.729, 384.251 32.279, 388 33.694 L 391 34.826 391 30.913 C 391 28.761, 390.887 27.048, 390.750 27.106 C 390.613 27.165, 389.262 27.702, 387.750 28.299 M 411.750 28.299 C 408.133 29.729, 408.251 32.279, 412 33.694 L 415 34.826 415 30.913 C 415 28.761, 414.887 27.048, 414.750 27.106 C 414.613 27.165, 413.262 27.702, 411.750 28.299 M 418.455 31 C 418.455 33.110, 418.802 34.622, 419.227 34.360 C 419.652 34.097, 420 32.585, 420 31 C 420 29.415, 419.652 27.903, 419.227 27.640 C 418.802 27.378, 418.455 28.890, 418.455 31 M 54.079 29.750 C 54.026 31.262, 54.574 31.995, 55.750 31.985 C 56.829 31.975, 57.078 31.688, 56.400 31.235 C 55.795 30.831, 55.043 29.825, 54.729 29 C 54.347 27.998, 54.132 28.247, 54.079 29.750 M 125.739 29.889 C 125.467 30.928, 125.640 32.391, 126.123 33.139 C 126.863 34.287, 127.137 34.287, 127.877 33.139 C 128.842 31.644, 128.219 28, 127 28 C 126.578 28, 126.011 28.850, 125.739 29.889 M 149.746 29.250 C 149.197 30.883, 150.019 34, 151 34 C 151.981 34, 152.803 30.883, 152.254 29.250 C 152.023 28.563, 151.458 28, 151 28 C 150.542 28, 149.977 28.563, 149.746 29.250 M 271.269 28.693 C 272.242 28.947, 273.592 28.930, 274.269 28.656 C 274.946 28.382, 274.150 28.175, 272.500 28.195 C 270.850 28.215, 270.296 28.439, 271.269 28.693 M 392.333 31 C 392.333 32.602, 392.708 33.680, 393.167 33.397 C 393.625 33.114, 394 32.035, 394 31 C 394 29.965, 393.625 28.886, 393.167 28.603 C 392.708 28.320, 392.333 29.398, 392.333 31 M 416.333 31 C 416.333 32.602, 416.708 33.680, 417.167 33.397 C 417.625 33.114, 418 32.035, 418 31 C 418 29.965, 417.625 28.886, 417.167 28.603 C 416.708 28.320, 416.333 29.398, 416.333 31 M 78 30.500 C 78 31.325, 78.450 32, 79 32 C 79.550 32, 80 31.325, 80 30.500 C 80 29.675, 79.550 29, 79 29 C 78.450 29, 78 29.675, 78 30.500 M 198 31 C 198 32.311, 198.485 32.751, 199.500 32.362 C 200.325 32.045, 201 31.432, 201 31 C 201 30.568, 200.325 29.955, 199.500 29.638 C 198.485 29.249, 198 29.689, 198 31 M 368.429 31 C 368.429 31.864, 369.136 32.571, 370 32.571 C 370.864 32.571, 371.571 31.864, 371.571 31 C 371.571 30.136, 370.864 29.429, 370 29.429 C 369.136 29.429, 368.429 30.136, 368.429 31 M 271.269 30.693 C 272.242 30.947, 273.592 30.930, 274.269 30.656 C 274.946 30.382, 274.150 30.175, 272.500 30.195 C 270.850 30.215, 270.296 30.439, 271.269 30.693 M 250.232 33 C 249.545 34.100, 248.060 35, 246.933 35 C 245.805 35, 245.160 34.550, 245.500 34 C 245.840 33.450, 245.191 33, 244.059 33 C 242.764 33, 242.001 33.649, 242.002 34.750 C 242.005 37.409, 248.413 37.587, 251.001 34.999 C 253.022 32.978, 253.635 31, 252.241 31 C 251.823 31, 250.919 31.900, 250.232 33 M 434.019 31.833 C 433.458 32.017, 433 33.254, 433 34.583 C 433 36.494, 433.523 37, 435.500 37 C 437.500 37, 438 36.500, 438 34.500 C 438 33.125, 438.459 32, 439.020 32 C 439.580 32, 439.856 33.013, 439.632 34.250 C 439.285 36.173, 439.682 36.518, 442.363 36.623 C 444.088 36.691, 444.707 36.544, 443.738 36.297 C 442.769 36.051, 442.233 35.433, 442.547 34.924 C 442.861 34.416, 442.641 34, 442.059 34 C 441.477 34, 441 33.343, 441 32.540 C 441 31.191, 437.168 30.803, 434.019 31.833 M 271.269 32.693 C 272.242 32.947, 273.592 32.930, 274.269 32.656 C 274.946 32.382, 274.150 32.175, 272.500 32.195 C 270.850 32.215, 270.296 32.439, 271.269 32.693 M 339 34.500 C 339 35.875, 339.450 37, 340 37 C 340.550 37, 341 35.875, 341 34.500 C 341 33.125, 340.550 32, 340 32 C 339.450 32, 339 33.125, 339 34.500 M 345 34.500 C 345 35.875, 345.450 37, 346 37 C 346.550 37, 347 35.875, 347 34.500 C 347 33.125, 346.550 32, 346 32 C 345.450 32, 345 33.125, 345 34.500 M 434 34.500 C 434 35.325, 434.675 36, 435.500 36 C 436.325 36, 437 35.325, 437 34.500 C 437 33.675, 436.325 33, 435.500 33 C 434.675 33, 434 33.675, 434 34.500 M 271.269 34.693 C 272.242 34.947, 273.592 34.930, 274.269 34.656 C 274.946 34.382, 274.150 34.175, 272.500 34.195 C 270.850 34.215, 270.296 34.439, 271.269 34.693 M 458.813 36.683 C 459.534 36.972, 460.397 36.936, 460.729 36.604 C 461.061 36.272, 460.471 36.036, 459.417 36.079 C 458.252 36.127, 458.015 36.364, 458.813 36.683 M 1 51.804 C 1 53.698, 2.141 55.713, 4.516 58.015 L 8.032 61.423 10.727 58.727 L 13.423 56.032 10.015 52.516 C 5.557 47.916, 1 47.556, 1 51.804 M 25 51.804 C 25 53.698, 26.141 55.713, 28.516 58.015 L 32.032 61.423 34.727 58.727 L 37.423 56.032 34.015 52.516 C 29.557 47.916, 25 47.556, 25 51.804 M 34.979 52.478 C 38.276 55.880, 38.310 56, 36.514 57.984 C 33.821 60.960, 35.243 61.435, 38.014 58.485 L 40.370 55.977 36.989 52.489 C 35.129 50.570, 33.158 49, 32.608 49 C 32.058 49, 33.125 50.565, 34.979 52.478 M 50.667 49.667 C 50.300 50.033, 50 52.733, 50 55.667 L 50 61 54.500 61 L 59 61 59 56.060 L 59 51.121 55.250 50.728 L 51.500 50.336 55.698 50.168 L 59.895 50 60.263 55.250 L 60.630 60.500 60.815 54.750 L 61 49 56.167 49 C 53.508 49, 51.033 49.300, 50.667 49.667 M 74 55.222 L 74 61.444 76.204 59.240 L 78.409 57.036 80.704 59.192 L 83 61.349 83 55.174 L 83 49 78.500 49 L 74 49 74 55.222 M 100 51 C 100 52.111, 99.333 53, 98.500 53 C 97.452 53, 97 54.056, 97 56.500 C 97 58.425, 97.450 60, 98 60 C 98.550 60, 99 59.550, 99 59 C 99 58.450, 100.800 58, 103 58 C 105.200 58, 107 58.450, 107 59 C 107 59.550, 107.450 60, 108 60 C 109.641 60, 109.185 53.285, 107.500 52.638 C 106.675 52.322, 106 51.374, 106 50.531 C 106 49.497, 105.027 49, 103 49 C 100.667 49, 100 49.444, 100 51 M 150 50.247 C 150 51.025, 148.936 53.762, 147.636 56.331 C 145.501 60.548, 145.442 61, 147.025 61 C 148.080 61, 148.723 60.304, 148.639 59.250 C 148.551 58.143, 149.325 57.384, 150.750 57.181 C 152.462 56.937, 153 57.356, 153 58.930 C 153 60.309, 153.645 61, 154.931 61 C 156.793 61, 156.779 60.796, 154.537 55.285 C 152.313 49.820, 150 47.251, 150 50.247 M 170.500 54.958 L 170.500 61.001 173.628 61 C 177.291 61, 179.549 58.793, 178.476 56.263 C 178.066 55.293, 177.678 53.375, 177.615 52 C 177.518 49.892, 176.951 49.454, 174 49.207 L 170.500 48.915 170.500 54.958 M 198.181 52.211 C 198.046 53.977, 197.310 56.677, 196.545 58.211 C 195.236 60.835, 195.282 61, 197.327 60.995 C 199.208 60.991, 199.537 60.362, 199.772 56.321 C 199.922 53.753, 200.539 51.055, 201.145 50.326 C 201.993 49.303, 201.808 49, 200.335 49 C 198.903 49, 198.364 49.803, 198.181 52.211 M 216.933 49.333 C 216.541 53.255, 216.900 60, 217.500 60 C 218.418 60, 218.541 50.207, 217.633 49.300 C 217.285 48.952, 216.970 48.967, 216.933 49.333 M 220 50.406 C 220 51.344, 220.702 51.629, 222.106 51.262 C 224.077 50.747, 224.190 51.041, 223.856 55.856 C 223.575 59.921, 223.815 61.001, 225 61.001 C 226.185 61.001, 226.425 59.921, 226.144 55.856 C 225.810 51.041, 225.923 50.747, 227.894 51.262 C 229.298 51.629, 230 51.344, 230 50.406 C 230 49.385, 228.630 49, 225 49 C 221.370 49, 220 49.385, 220 50.406 M 242 50.406 C 242 51.347, 242.702 51.629, 244.119 51.259 C 246.068 50.749, 246.207 51.037, 245.843 54.852 C 245.532 58.105, 245.782 59, 247 59 C 248.218 59, 248.468 58.105, 248.157 54.852 C 247.793 51.037, 247.932 50.749, 249.881 51.259 C 251.298 51.629, 252 51.347, 252 50.406 C 252 49.385, 250.630 49, 247 49 C 243.370 49, 242 49.385, 242 50.406 M 173 52 C 173 53.289, 173.506 53.998, 174.250 53.750 C 174.938 53.521, 175.500 52.733, 175.500 52 C 175.500 51.267, 174.938 50.479, 174.250 50.250 C 173.506 50.002, 173 50.711, 173 52 M 265 51 C 265 51.550, 266.575 52, 268.500 52 C 270.425 52, 272 51.550, 272 51 C 272 50.450, 270.425 50, 268.500 50 C 266.575 50, 265 50.450, 265 51 M 291 51 C 291 51.550, 292.800 52, 295 52 C 297.200 52, 299 51.550, 299 51 C 299 50.450, 297.200 50, 295 50 C 292.800 50, 291 50.450, 291 51 M 318 51 C 318 51.550, 319.575 52, 321.500 52 C 323.425 52, 325 51.550, 325 51 C 325 50.450, 323.425 50, 321.500 50 C 319.575 50, 318 50.450, 318 51 M 337 51 C 337 51.556, 339.667 52, 343 52 C 346.333 52, 349 51.556, 349 51 C 349 50.444, 346.333 50, 343 50 C 339.667 50, 337 50.444, 337 51 M 361 51 C 361 51.550, 361.450 52, 362 52 C 362.550 52, 363 51.550, 363 51 C 363 50.450, 362.550 50, 362 50 C 361.450 50, 361 50.450, 361 51 M 364 51 C 364 51.550, 366.025 52, 368.500 52 C 370.975 52, 373 51.550, 373 51 C 373 50.450, 370.975 50, 368.500 50 C 366.025 50, 364 50.450, 364 51 M 388 52.559 C 388 53.966, 387.641 54.896, 387.202 54.625 C 386.763 54.354, 385.751 54.545, 384.952 55.051 C 383.572 55.924, 384.802 56.405, 386.740 55.750 C 387.147 55.612, 387.769 56.850, 388.122 58.500 C 388.606 60.764, 388.792 60.089, 388.882 55.750 C 388.947 52.587, 388.775 50, 388.500 50 C 388.225 50, 388 51.152, 388 52.559 M 390 51 C 390 51.550, 390.450 52, 391 52 C 391.550 52, 392 51.550, 392 51 C 392 50.450, 391.550 50, 391 50 C 390.450 50, 390 50.450, 390 51 M 409 51 C 409 51.550, 409.450 52, 410 52 C 410.550 52, 411 51.550, 411 51 C 411 50.450, 410.550 50, 410 50 C 409.450 50, 409 50.450, 409 51 M 417.268 55.500 C 417.285 58.800, 417.488 60.255, 417.718 58.733 C 417.948 57.211, 418.464 56.169, 418.866 56.417 C 419.267 56.665, 420.249 56.455, 421.048 55.949 C 422.428 55.076, 421.198 54.595, 419.260 55.250 C 418.853 55.388, 418.231 54.150, 417.878 52.500 C 417.434 50.423, 417.246 51.346, 417.268 55.500 M 457 55.500 L 457 61 463 61 L 469 61 469 55.500 L 469 50 463 50 L 457 50 457 55.500 M 122.750 51.689 C 121.458 52.027, 121 53.175, 121 56.073 L 121 60 127 60 L 133 60 133 56.117 C 133 52.935, 132.594 52.124, 130.750 51.630 C 128.273 50.966, 125.436 50.987, 122.750 51.689 M 433 55 L 433 59 437.500 59 C 440.984 59, 442 58.634, 442 57.378 C 442 56.049, 442.271 55.980, 443.500 57 C 444.781 58.063, 445 57.771, 445 55 C 445 52.229, 444.781 51.937, 443.500 53 C 442.271 54.020, 442 53.951, 442 52.622 C 442 51.366, 440.984 51, 437.500 51 L 433 51 433 55 M 458 54.622 C 458 57.539, 458.261 58.028, 459.342 57.131 C 460.080 56.519, 460.990 56.324, 461.365 56.698 C 461.740 57.073, 462.751 56.373, 463.613 55.142 C 464.856 53.368, 465.472 53.147, 466.590 54.075 C 467.728 55.019, 468 54.835, 468 53.122 C 468 51.242, 467.429 51, 463 51 L 458 51 458 54.622 M 459 53.500 C 459 54.325, 459.675 55, 460.500 55 C 461.325 55, 462 54.325, 462 53.500 C 462 52.675, 461.325 52, 460.500 52 C 459.675 52, 459 52.675, 459 53.500 M 150 54.500 C 150 55.325, 150.450 56, 151 56 C 151.550 56, 152 55.325, 152 54.500 C 152 53.675, 151.550 53, 151 53 C 150.450 53, 150 53.675, 150 54.500 M 265 54 C 265 54.550, 267.475 55, 270.500 55 C 273.525 55, 276 54.550, 276 54 C 276 53.450, 273.525 53, 270.500 53 C 267.475 53, 265 53.450, 265 54 M 289 54 C 289 54.556, 291.667 55, 295 55 C 298.333 55, 301 54.556, 301 54 C 301 53.444, 298.333 53, 295 53 C 291.667 53, 289 53.444, 289 54 M 314 54 C 314 54.550, 316.475 55, 319.500 55 C 322.525 55, 325 54.550, 325 54 C 325 53.450, 322.525 53, 319.500 53 C 316.475 53, 314 53.450, 314 54 M 337 54 C 337 54.556, 339.667 55, 343 55 C 346.333 55, 349 54.556, 349 54 C 349 53.444, 346.333 53, 343 53 C 339.667 53, 337 53.444, 337 54 M 361 54 C 361 54.550, 361.450 55, 362 55 C 362.550 55, 363 54.550, 363 54 C 363 53.450, 362.550 53, 362 53 C 361.450 53, 361 53.450, 361 54 M 364 54 C 364 54.550, 366.025 55, 368.500 55 C 370.975 55, 373 54.550, 373 54 C 373 53.450, 370.975 53, 368.500 53 C 366.025 53, 364 53.450, 364 54 M 390 54 C 390 54.550, 391.350 55, 393 55 C 394.650 55, 396 54.550, 396 54 C 396 53.450, 394.650 53, 393 53 C 391.350 53, 390 53.450, 390 54 M 409 54 C 409 54.550, 410.350 55, 412 55 C 413.650 55, 415 54.550, 415 54 C 415 53.450, 413.650 53, 412 53 C 410.350 53, 409 53.450, 409 54 M 101.250 54.689 C 102.213 54.941, 103.787 54.941, 104.750 54.689 C 105.713 54.438, 104.925 54.232, 103 54.232 C 101.075 54.232, 100.287 54.438, 101.250 54.689 M 125 56 C 125 57.333, 125.667 58, 127 58 C 128.333 58, 129 57.333, 129 56 C 129 54.667, 128.333 54, 127 54 C 125.667 54, 125 54.667, 125 56 M 126 56 C 126 56.550, 126.450 57, 127 57 C 127.550 57, 128 56.550, 128 56 C 128 55.450, 127.550 55, 127 55 C 126.450 55, 126 55.450, 126 56 M 173 57 C 173 58.100, 173.600 59, 174.333 59 C 176.214 59, 176.952 58.038, 176.324 56.402 C 175.508 54.275, 173 54.726, 173 57 M 265 57 C 265 57.550, 267.025 58, 269.500 58 C 271.975 58, 274 57.550, 274 57 C 274 56.450, 271.975 56, 269.500 56 C 267.025 56, 265 56.450, 265 57 M 291 57 C 291 57.550, 292.800 58, 295 58 C 297.200 58, 299 57.550, 299 57 C 299 56.450, 297.200 56, 295 56 C 292.800 56, 291 56.450, 291 57 M 316 57 C 316 57.550, 318.025 58, 320.500 58 C 322.975 58, 325 57.550, 325 57 C 325 56.450, 322.975 56, 320.500 56 C 318.025 56, 316 56.450, 316 57 M 337 57 C 337 57.556, 339.667 58, 343 58 C 346.333 58, 349 57.556, 349 57 C 349 56.444, 346.333 56, 343 56 C 339.667 56, 337 56.444, 337 57 M 361 57 C 361 57.550, 361.450 58, 362 58 C 362.550 58, 363 57.550, 363 57 C 363 56.450, 362.550 56, 362 56 C 361.450 56, 361 56.450, 361 57 M 364 57 C 364 57.550, 366.025 58, 368.500 58 C 370.975 58, 373 57.550, 373 57 C 373 56.450, 370.975 56, 368.500 56 C 366.025 56, 364 56.450, 364 57 M 390 57 C 390 57.550, 390.900 58, 392 58 C 393.100 58, 394 57.550, 394 57 C 394 56.450, 393.100 56, 392 56 C 390.900 56, 390 56.450, 390 57 M 409 57 C 409 57.550, 409.900 58, 411 58 C 412.100 58, 413 57.550, 413 57 C 413 56.450, 412.100 56, 411 56 C 409.900 56, 409 56.450, 409 57 M 100 60 C 100 60.550, 101.350 61, 103 61 C 104.650 61, 106 60.550, 106 60 C 106 59.450, 104.650 59, 103 59 C 101.350 59, 100 59.450, 100 60 M 241.344 60.250 C 240.796 61.139, 240.657 61.115, 247 61.200 C 249.750 61.237, 251.887 60.926, 251.750 60.509 C 251.422 59.514, 241.944 59.278, 241.344 60.250 M 265 60 C 265 60.556, 267.667 61, 271 61 C 274.333 61, 277 60.556, 277 60 C 277 59.444, 274.333 59, 271 59 C 267.667 59, 265 59.444, 265 60 M 289 60 C 289 60.556, 291.667 61, 295 61 C 298.333 61, 301 60.556, 301 60 C 301 59.444, 298.333 59, 295 59 C 291.667 59, 289 59.444, 289 60 M 313 60 C 313 60.556, 315.667 61, 319 61 C 322.333 61, 325 60.556, 325 60 C 325 59.444, 322.333 59, 319 59 C 315.667 59, 313 59.444, 313 60 M 337 60 C 337 60.556, 339.667 61, 343 61 C 346.333 61, 349 60.556, 349 60 C 349 59.444, 346.333 59, 343 59 C 339.667 59, 337 59.444, 337 60 M 361 60 C 361 60.550, 361.450 61, 362 61 C 362.550 61, 363 60.550, 363 60 C 363 59.450, 362.550 59, 362 59 C 361.450 59, 361 59.450, 361 60 M 364 60 C 364 60.550, 366.025 61, 368.500 61 C 370.975 61, 373 60.550, 373 60 C 373 59.450, 370.975 59, 368.500 59 C 366.025 59, 364 59.450, 364 60 M 390 60 C 390 60.550, 391.575 61, 393.500 61 C 395.425 61, 397 60.550, 397 60 C 397 59.450, 395.425 59, 393.500 59 C 391.575 59, 390 59.450, 390 60 M 409 60 C 409 60.550, 410.575 61, 412.500 61 C 414.425 61, 416 60.550, 416 60 C 416 59.450, 414.425 59, 412.500 59 C 410.575 59, 409 59.450, 409 60 M 75.900 76.482 C 74.027 80.014, 73.745 81.375, 74.605 82.747 C 75.967 84.920, 79.626 85.555, 81.555 83.954 C 83.639 82.224, 83.338 79.391, 80.647 75.431 L 78.294 71.969 75.900 76.482 M 10.188 74.063 C 10.428 74.784, 11.216 75.572, 11.938 75.813 C 12.688 76.063, 13.063 75.688, 12.813 74.938 C 12.572 74.216, 11.784 73.428, 11.063 73.188 C 10.313 72.938, 9.938 73.313, 10.188 74.063 M 28.571 74.571 C 26.366 76.776, 26.615 79.440, 29.318 82.583 L 31.636 85.278 33.818 82.504 C 35.018 80.979, 36 78.923, 36 77.937 C 36 75.820, 33.429 73, 31.500 73 C 30.754 73, 29.436 73.707, 28.571 74.571 M 51 75 C 49.900 76.100, 49 77.900, 49 79 C 49 81.576, 52.424 85, 55 85 C 57.576 85, 61 81.576, 61 79 C 61 77.900, 60.100 76.100, 59 75 C 57.900 73.900, 56.100 73, 55 73 C 53.900 73, 52.100 73.900, 51 75 M 171.479 76.022 L 168.583 79.045 171.792 82.253 L 175 85.462 178.208 82.253 L 181.417 79.045 178.521 76.022 C 176.929 74.360, 175.344 73, 175 73 C 174.656 73, 173.071 74.360, 171.479 76.022 M 98.200 75.200 C 96.650 76.750, 96.650 82.250, 98.200 83.800 C 98.860 84.460, 100.795 85, 102.500 85 C 106.100 85, 108.009 83.449, 107.978 80.550 C 107.956 78.589, 107.877 78.602, 106.154 80.843 C 103.485 84.311, 99.500 83.515, 99.500 79.514 C 99.500 77.314, 100.027 76.432, 101.500 76.167 C 104.978 75.539, 105.618 74, 102.400 74 C 100.750 74, 98.860 74.540, 98.200 75.200 M 104.884 76.807 C 103.445 78.288, 101.928 80.107, 101.513 80.850 C 100.304 83.013, 104.101 80.645, 106.750 77.584 C 110.603 73.133, 109.073 72.496, 104.884 76.807 M 122.200 75.200 C 120.650 76.750, 120.650 82.250, 122.200 83.800 C 123.897 85.497, 129.514 85.291, 131.020 83.476 C 132.638 81.526, 131.517 80.326, 129.579 81.934 C 127.066 84.020, 123.540 82.850, 123.190 79.814 C 122.949 77.730, 123.510 76.785, 125.690 75.604 L 128.500 74.080 125.950 74.040 C 124.547 74.018, 122.860 74.540, 122.200 75.200 M 146.200 75.200 C 145.540 75.860, 145 77.795, 145 79.500 C 145 81.205, 145.540 83.140, 146.200 83.800 C 146.860 84.460, 148.795 85, 150.500 85 C 153.835 85, 156 83.482, 156 81.145 C 156 79.969, 155.632 80.023, 154.082 81.425 C 151.440 83.816, 147.589 83.131, 147.173 80.195 C 146.784 77.448, 148.614 74.915, 150.472 75.628 C 151.201 75.907, 152.095 75.656, 152.458 75.068 C 153.384 73.570, 147.711 73.689, 146.200 75.200 M 153.489 76.012 C 152.465 77.144, 151.050 77.849, 150.345 77.579 C 148.243 76.772, 147.911 78.610, 149.844 80.359 C 151.520 81.876, 151.833 81.783, 154.514 78.986 C 156.461 76.953, 157.059 75.659, 156.370 74.970 C 155.680 74.280, 154.752 74.616, 153.489 76.012 M 195 79.500 C 195 82.525, 195.450 85, 196 85 C 196.550 85, 197 84.022, 197 82.826 L 197 80.651 199.500 83 L 202 85.349 202 79.500 L 202 73.651 199.500 76 L 197 78.349 197 76.174 C 197 74.978, 196.550 74, 196 74 C 195.450 74, 195 76.475, 195 79.500 M 217 79.500 C 217 82.525, 217.450 85, 218 85 C 218.550 85, 219 84.022, 219 82.826 L 219 80.651 221.500 83 L 224 85.349 224 83 L 224 80.651 226.500 83 L 229 85.349 229 79.500 L 229 73.651 226.500 76 L 224 78.349 224 76 L 224 73.651 221.500 76 L 219 78.349 219 76.174 C 219 74.978, 218.550 74, 218 74 C 217.450 74, 217 76.475, 217 79.500 M 244.746 76.731 L 241.992 79.618 244.996 82.496 L 248 85.374 248 83.013 L 248 80.651 250.500 83 L 253 85.349 253 79.500 L 253 73.651 250.582 75.923 L 248.165 78.194 247.832 76.019 C 247.510 73.911, 247.415 73.933, 244.746 76.731 M 267 79.455 L 267 85.113 270.868 82.807 C 272.996 81.538, 274.908 80.121, 275.118 79.658 C 275.328 79.195, 273.587 77.687, 271.250 76.307 L 267 73.797 267 79.455 M 337 79.500 L 337 85.349 339.418 83.077 L 341.835 80.806 342.168 82.981 C 342.490 85.089, 342.585 85.067, 345.254 82.269 L 348.008 79.382 345.004 76.504 L 342 73.626 342 75.987 L 342 78.349 339.500 76 L 337 73.651 337 79.500 M 361 79.500 L 361 85.349 363.500 83 L 366 80.651 366 83 L 366 85.349 368.500 83 L 371 80.651 371 82.826 C 371 84.022, 371.450 85, 372 85 C 372.550 85, 373 82.525, 373 79.500 C 373 76.475, 372.550 74, 372 74 C 371.450 74, 371 74.978, 371 76.174 L 371 78.349 368.500 76 L 366 73.651 366 76 L 366 78.349 363.500 76 L 361 73.651 361 79.500 M 388 79.500 L 388 85.349 390.500 83 L 393 80.651 393 82.826 C 393 84.022, 393.450 85, 394 85 C 394.550 85, 395 82.525, 395 79.500 C 395 76.475, 394.550 74, 394 74 C 393.450 74, 393 74.978, 393 76.174 L 393 78.349 390.500 76 L 388 73.651 388 79.500 M 412.500 77 L 409.626 80 415.500 80 L 421.374 80 418.500 77 C 416.919 75.350, 415.569 74, 415.500 74 C 415.431 74, 414.081 75.350, 412.500 77 M 436.683 76.809 L 433.992 79.618 437.003 82.502 C 439.345 84.747, 440.280 85.120, 441.214 84.186 C 442.148 83.252, 442.040 82.611, 440.728 81.299 C 439.189 79.761, 439.180 79.459, 440.618 77.869 C 442.097 76.235, 441.814 74, 440.128 74 C 439.713 74, 438.163 75.264, 436.683 76.809 M 460.461 75.063 C 460.100 75.648, 460.514 76.910, 461.382 77.869 C 462.820 79.459, 462.811 79.761, 461.272 81.299 C 459.960 82.611, 459.852 83.252, 460.786 84.186 C 461.720 85.120, 462.655 84.747, 464.997 82.502 L 468.008 79.618 465.317 76.809 C 462.397 73.761, 461.471 73.428, 460.461 75.063 M 5.494 78.007 C 3.242 80.357, 2.877 81.277, 3.822 82.222 C 4.767 83.167, 5.709 82.752, 8.140 80.322 C 9.850 78.611, 10.942 76.715, 10.566 76.106 C 9.516 74.408, 8.619 74.745, 5.494 78.007 M 52.200 76.200 C 50.079 78.321, 51.455 83, 54.200 83 C 54.640 83, 55 81.200, 55 79 C 55 74.865, 54.267 74.133, 52.200 76.200 M 127.250 76.674 C 124.208 78.796, 124.420 79.655, 127.926 79.412 C 132.095 79.123, 133.378 78.161, 131.926 76.411 C 130.487 74.677, 130.080 74.700, 127.250 76.674 M 291 79.500 C 291 82.833, 291.389 84, 292.500 84 C 293.611 84, 294 82.833, 294 79.500 C 294 76.167, 293.611 75, 292.500 75 C 291.389 75, 291 76.167, 291 79.500 M 295 79.500 C 295 82.833, 295.389 84, 296.500 84 C 297.611 84, 298 82.833, 298 79.500 C 298 76.167, 297.611 75, 296.500 75 C 295.389 75, 295 76.167, 295 79.500 M 315 79.500 L 315 84 319.500 84 L 324 84 324 79.500 L 324 75 319.500 75 L 315 75 315 79.500 M 30 77.500 C 30 78.325, 30.675 79, 31.500 79 C 32.325 79, 33 78.325, 33 77.500 C 33 76.675, 32.325 76, 31.500 76 C 30.675 76, 30 76.675, 30 77.500 M 172 77 C 172 77.550, 172.450 78, 173 78 C 173.550 78, 174 77.550, 174 77 C 174 76.450, 173.550 76, 173 76 C 172.450 76, 172 76.450, 172 77 M 176 77 C 176 77.550, 176.450 78, 177 78 C 177.550 78, 178 77.550, 178 77 C 178 76.450, 177.550 76, 177 76 C 176.450 76, 176 76.450, 176 77 M 172 81 C 172 81.550, 172.450 82, 173 82 C 173.550 82, 174 81.550, 174 81 C 174 80.450, 173.550 80, 173 80 C 172.450 80, 172 80.450, 172 81 M 176 81 C 176 81.550, 176.450 82, 177 82 C 177.550 82, 178 81.550, 178 81 C 178 80.450, 177.550 80, 177 80 C 176.450 80, 176 80.450, 176 81 M 410 82 C 410 82.550, 412.475 83, 415.500 83 C 418.525 83, 421 82.550, 421 82 C 421 81.450, 418.525 81, 415.500 81 C 412.475 81, 410 81.450, 410 82 M 1.469 83.050 C 0.519 84.588, 1.820 85.580, 3.104 84.296 C 3.822 83.578, 3.839 83.019, 3.156 82.597 C 2.596 82.251, 1.837 82.455, 1.469 83.050 M 3 99 C 1.900 100.100, 1 101.900, 1 103 C 1 105.576, 4.424 109, 7 109 C 9.576 109, 13 105.576, 13 103 C 13 100.424, 9.576 97, 7 97 C 5.900 97, 4.100 97.900, 3 99 M 27 99 C 25.900 100.100, 25 101.900, 25 103 C 25 105.576, 28.424 109, 31 109 C 33.576 109, 37 105.576, 37 103 C 37 101.900, 36.100 100.100, 35 99 C 33.900 97.900, 32.100 97, 31 97 C 29.900 97, 28.100 97.900, 27 99 M 51 99 C 49.900 100.100, 49 101.900, 49 103 C 49 105.576, 52.424 109, 55 109 C 57.576 109, 61 105.576, 61 103 C 61 101.900, 60.100 100.100, 59 99 C 57.900 97.900, 56.100 97, 55 97 C 53.900 97, 52.100 97.900, 51 99 M 75 99 C 73.900 100.100, 73 101.900, 73 103 C 73 104.100, 73.900 105.900, 75 107 C 76.100 108.100, 77.900 109, 79 109 C 80.100 109, 81.900 108.100, 83 107 C 84.100 105.900, 85 104.100, 85 103 C 85 101.900, 84.100 100.100, 83 99 C 81.900 97.900, 80.100 97, 79 97 C 77.900 97, 76.100 97.900, 75 99 M 99 99 C 97.900 100.100, 97 101.900, 97 103 C 97 104.100, 97.900 105.900, 99 107 C 100.100 108.100, 101.900 109, 103 109 C 104.100 109, 105.900 108.100, 107 107 C 108.100 105.900, 109 104.100, 109 103 C 109 101.900, 108.100 100.100, 107 99 C 105.900 97.900, 104.100 97, 103 97 C 101.900 97, 100.100 97.900, 99 99 M 123 99 C 121.900 100.100, 121 101.900, 121 103 C 121 104.100, 121.900 105.900, 123 107 C 124.100 108.100, 125.900 109, 127 109 C 128.100 109, 129.900 108.100, 131 107 C 132.100 105.900, 133 104.100, 133 103 C 133 101.900, 132.100 100.100, 131 99 C 129.900 97.900, 128.100 97, 127 97 C 125.900 97, 124.100 97.900, 123 99 M 147.680 100.055 L 144.860 103.014 147.853 106.007 L 150.846 109 153.846 106 L 156.846 103 153.846 100 C 152.196 98.350, 150.768 97.022, 150.673 97.048 C 150.578 97.075, 149.231 98.428, 147.680 100.055 M 171 99 C 169.900 100.100, 169 101.900, 169 103 C 169 104.100, 169.900 105.900, 171 107 C 172.100 108.100, 173.900 109, 175 109 C 176.100 109, 177.900 108.100, 179 107 C 180.100 105.900, 181 104.100, 181 103 C 181 101.900, 180.100 100.100, 179 99 C 177.900 97.900, 176.100 97, 175 97 C 173.900 97, 172.100 97.900, 171 99 M 195 99 C 193.900 100.100, 193 101.900, 193 103 C 193 104.100, 193.900 105.900, 195 107 C 196.100 108.100, 197.900 109, 199 109 C 200.100 109, 201.900 108.100, 203 107 C 204.100 105.900, 205 104.100, 205 103 C 205 101.900, 204.100 100.100, 203 99 C 201.900 97.900, 200.100 97, 199 97 C 197.900 97, 196.100 97.900, 195 99 M 219 99 C 217.900 100.100, 217 101.900, 217 103 C 217 104.100, 217.900 105.900, 219 107 C 220.100 108.100, 221.900 109, 223 109 C 224.100 109, 225.900 108.100, 227 107 C 228.100 105.900, 229 104.100, 229 103 C 229 101.900, 228.100 100.100, 227 99 C 225.900 97.900, 224.100 97, 223 97 C 221.900 97, 220.100 97.900, 219 99 M 293.107 99.850 C 291.274 102.424, 291.151 103, 292.432 103 C 293.508 103, 294 103.942, 294 106 C 294 108, 294.500 109, 295.500 109 C 296.492 109, 297 108.008, 297 106.073 C 297 104.285, 297.582 103.021, 298.498 102.823 C 299.701 102.564, 299.539 101.930, 297.672 99.600 L 295.349 96.700 293.107 99.850 M 317 99.927 C 317 101.715, 316.418 102.979, 315.502 103.177 C 314.299 103.436, 314.461 104.070, 316.328 106.400 L 318.651 109.300 320.893 106.150 C 322.726 103.576, 322.849 103, 321.568 103 C 320.492 103, 320 102.058, 320 100 C 320 98, 319.500 97, 318.500 97 C 317.508 97, 317 97.992, 317 99.927 M 369.430 97.887 C 369.731 98.374, 369.313 99.325, 368.500 100 C 367.687 100.675, 367.287 101.655, 367.610 102.178 C 367.947 102.723, 368.940 102.459, 369.930 101.563 C 370.883 100.701, 371.963 100.297, 372.331 100.664 C 372.699 101.032, 373 100.358, 373 99.167 C 373 97.646, 372.386 97, 370.941 97 C 369.809 97, 369.129 97.399, 369.430 97.887 M 394 98.500 C 393.325 99.313, 392.374 99.731, 391.887 99.430 C 391.399 99.129, 391 99.809, 391 100.941 C 391 102.386, 390.354 103, 388.833 103 C 387.642 103, 386.968 103.301, 387.336 103.669 C 387.703 104.037, 387.299 105.117, 386.437 106.070 C 385.541 107.060, 385.277 108.053, 385.822 108.390 C 386.345 108.713, 387.325 108.313, 388 107.500 C 388.675 106.687, 389.626 106.269, 390.113 106.570 C 390.601 106.871, 391 106.191, 391 105.059 C 391 103.614, 391.646 103, 393.167 103 C 394.358 103, 395.032 102.699, 394.664 102.331 C 394.297 101.963, 394.701 100.883, 395.563 99.930 C 396.459 98.940, 396.723 97.947, 396.178 97.610 C 395.655 97.287, 394.675 97.687, 394 98.500 M 342.636 99.506 C 342.321 100.328, 341.389 101, 340.567 101 C 339.065 101, 337 103.890, 337 105.991 C 337 106.691, 337.837 106.527, 339.223 105.557 C 341.996 103.614, 342.767 103.602, 343.177 105.498 C 343.436 106.701, 344.070 106.539, 346.400 104.672 L 349.300 102.349 346.254 100.181 C 343.699 98.362, 343.117 98.253, 342.636 99.506 M 413 100 C 413 101.333, 412.333 102, 411 102 C 409.889 102, 409 102.667, 409 103.500 C 409 104.333, 409.889 105, 411 105 C 412.333 105, 413 105.667, 413 107 C 413 108.111, 413.667 109, 414.500 109 C 415.333 109, 416 108.111, 416 107 C 416 105.667, 416.667 105, 418 105 C 419.111 105, 420 104.333, 420 103.500 C 420 102.667, 419.111 102, 418 102 C 416.667 102, 416 101.333, 416 100 C 416 98.889, 415.333 98, 414.500 98 C 413.667 98, 413 98.889, 413 100 M 462 98.969 C 462 99.501, 461.247 99.648, 460.326 99.295 C 459.078 98.816, 458.810 99.061, 459.270 100.262 C 459.610 101.147, 459.350 102.125, 458.694 102.435 C 457.769 102.873, 457.769 103.127, 458.694 103.565 C 459.350 103.875, 459.610 104.853, 459.270 105.738 C 458.817 106.920, 459.080 107.183, 460.262 106.730 C 461.147 106.390, 462.125 106.650, 462.435 107.306 C 462.873 108.231, 463.127 108.231, 463.565 107.306 C 463.875 106.650, 464.853 106.390, 465.738 106.730 C 466.920 107.183, 467.183 106.920, 466.730 105.738 C 466.390 104.853, 466.650 103.875, 467.306 103.565 C 468.231 103.127, 468.231 102.873, 467.306 102.435 C 466.650 102.125, 466.390 101.147, 466.730 100.262 C 467.190 99.061, 466.922 98.816, 465.674 99.295 C 464.753 99.648, 464 99.501, 464 98.969 C 464 98.436, 463.550 98, 463 98 C 462.450 98, 462 98.436, 462 98.969 M 172.040 100.452 C 169.383 103.653, 173.285 108.570, 176.750 106.388 C 180.212 104.207, 178.979 99, 175 99 C 174.035 99, 172.703 99.653, 172.040 100.452 M 196.040 100.452 C 193.383 103.653, 197.285 108.570, 200.750 106.388 C 204.212 104.207, 202.979 99, 199 99 C 198.035 99, 196.703 99.653, 196.040 100.452 M 220.040 100.452 C 219.377 101.251, 218.985 102.634, 219.167 103.525 C 219.430 104.805, 220.119 104.499, 222.437 102.074 C 225.136 99.250, 225.206 99, 223.310 99 C 222.174 99, 220.703 99.653, 220.040 100.452 M 243.600 101.328 L 240.700 103.651 243.850 105.893 C 246.424 107.726, 247 107.849, 247 106.568 C 247 105.492, 247.942 105, 250 105 C 252 105, 253 104.500, 253 103.500 C 253 102.508, 252.008 102, 250.073 102 C 248.285 102, 247.021 101.418, 246.823 100.502 C 246.564 99.299, 245.930 99.461, 243.600 101.328 M 271 100.432 C 271 101.508, 270.058 102, 268 102 C 266 102, 265 102.500, 265 103.500 C 265 104.492, 265.992 105, 267.927 105 C 269.715 105, 270.979 105.582, 271.177 106.498 C 271.436 107.701, 272.070 107.539, 274.400 105.672 L 277.300 103.349 274.150 101.107 C 271.576 99.274, 271 99.151, 271 100.432 M 5.195 101.555 C 4.115 102.778, 4.158 103.301, 5.445 104.588 C 6.852 105.994, 7.150 105.993, 8.571 104.571 C 9.968 103.175, 9.976 102.833, 8.643 101.500 C 6.838 99.696, 6.836 99.696, 5.195 101.555 M 52.889 100.667 C 52.828 100.850, 52.728 102, 52.667 103.222 C 52.581 104.943, 53.107 105.444, 55 105.444 C 58.377 105.444, 58.588 100.746, 55.222 100.498 C 54 100.408, 52.950 100.484, 52.889 100.667 M 101 101.059 C 101 101.641, 101.526 101.793, 102.170 101.395 C 102.968 100.902, 103.127 101.228, 102.669 102.420 C 102.223 103.582, 102.418 104.028, 103.249 103.751 C 105.483 103.007, 105.342 100, 103.073 100 C 101.933 100, 101 100.477, 101 101.059 M 148.619 100.808 C 148.272 101.370, 148.553 102.093, 149.244 102.415 C 150.252 102.884, 150.252 103.116, 149.244 103.585 C 148.553 103.907, 148.272 104.630, 148.619 105.192 C 149.018 105.837, 149.572 105.714, 150.125 104.857 C 150.851 103.731, 151.181 103.755, 152.066 105 C 152.906 106.183, 152.997 106.025, 152.498 104.250 C 152.111 102.874, 152.303 102, 152.992 102 C 153.611 102, 153.810 101.502, 153.434 100.893 C 152.957 100.121, 152.485 100.197, 151.875 101.143 C 151.138 102.286, 150.862 102.286, 150.125 101.143 C 149.572 100.286, 149.018 100.163, 148.619 100.808 M 79.583 101.750 C 79.171 102.162, 78.421 102.556, 77.917 102.625 C 77.412 102.694, 76.720 102.806, 76.378 102.875 C 76.035 102.944, 76.325 103.686, 77.021 104.525 C 78.151 105.887, 78.486 105.870, 80.143 104.370 C 82.092 102.607, 82.580 101, 81.167 101 C 80.708 101, 79.996 101.338, 79.583 101.750 M 173 103 C 173 104.333, 173.667 105, 175 105 C 176.333 105, 177 104.333, 177 103 C 177 101.667, 176.333 101, 175 101 C 173.667 101, 173 101.667, 173 103 M 199.500 102 C 199.149 102.568, 198.474 102.793, 198 102.500 C 196.521 101.586, 195.949 103.713, 197.359 104.883 C 198.371 105.723, 199.114 105.532, 200.413 104.096 C 201.446 102.954, 201.734 101.953, 201.134 101.583 C 200.586 101.244, 199.851 101.432, 199.500 102 M 223.563 103.926 C 220.864 106.750, 220.794 107, 222.690 107 C 225.184 107, 227.289 104.700, 226.833 102.475 C 226.570 101.195, 225.881 101.501, 223.563 103.926 M 28 103 C 28 103.550, 29.350 104, 31 104 C 32.650 104, 34 103.550, 34 103 C 34 102.450, 32.650 102, 31 102 C 29.350 102, 28 102.450, 28 103 M 125.429 104 C 125.429 105.212, 126.095 106, 127.121 106 C 128.320 106, 128.661 105.418, 128.290 104 C 128.002 102.900, 127.241 102, 126.598 102 C 125.955 102, 125.429 102.900, 125.429 104 M 435 103.500 C 435 104.611, 436.167 105, 439.500 105 C 442.833 105, 444 104.611, 444 103.500 C 444 102.389, 442.833 102, 439.500 102 C 436.167 102, 435 102.389, 435 103.500 M 364 104.500 C 363.325 105.313, 362.374 105.731, 361.887 105.430 C 361.399 105.129, 361 105.809, 361 106.941 C 361 108.386, 361.646 109, 363.167 109 C 364.358 109, 365.032 108.699, 364.664 108.331 C 364.297 107.963, 364.701 106.883, 365.563 105.930 C 366.459 104.940, 366.723 103.947, 366.178 103.610 C 365.655 103.287, 364.675 103.687, 364 104.500 M 78.200 121.200 C 77.540 121.860, 76.964 123.773, 76.921 125.450 C 76.878 127.127, 76.614 127.935, 76.336 127.244 C 75.630 125.495, 74 126.721, 74 129 C 74 132.065, 76.158 132.520, 78.310 129.909 L 80.297 127.500 79.629 130.250 C 78.895 133.277, 79.205 133.496, 82.066 131.965 C 84.408 130.711, 84.675 125.805, 82.500 124 C 81.382 123.072, 81 123.056, 81 123.937 C 81 124.586, 80.532 124.829, 79.959 124.475 C 79.387 124.121, 79.192 122.970, 79.527 121.916 C 80.230 119.701, 79.885 119.515, 78.200 121.200 M 3 123 C 1.900 124.100, 1 125.900, 1 127 C 1 129.576, 4.424 133, 7 133 C 9.576 133, 13 129.576, 13 127 C 13 124.424, 9.576 121, 7 121 C 5.900 121, 4.100 121.900, 3 123 M 25.729 122.942 C 25.507 123.799, 25.515 125.063, 25.746 125.750 C 26.342 127.522, 30 127.307, 30 125.500 C 30 124.675, 30.450 124, 31 124 C 31.550 124, 32 124.675, 32 125.500 C 32 127.307, 35.658 127.522, 36.254 125.750 C 37.321 122.580, 35.882 121.385, 31 121.385 C 27.433 121.385, 26.025 121.801, 25.729 122.942 M 55 122.752 C 52.643 123.929, 51.391 125.317, 51.165 127 C 50.981 128.375, 50.419 129.928, 49.915 130.450 C 48.535 131.883, 48.812 133.588, 50.200 132.200 C 50.860 131.540, 52.859 131, 54.643 131 C 58.426 131, 61 128.075, 61 123.777 C 61 120.540, 59.828 120.339, 55 122.752 M 125.500 122.386 C 123.849 123.105, 121.854 124.471, 121.065 125.421 C 119.785 126.964, 119.968 127.464, 122.761 130.075 C 124.483 131.684, 126.124 133, 126.407 133 C 126.916 133, 130 123.403, 130 121.818 C 130 120.717, 129.056 120.836, 125.500 122.386 M 147.234 126.406 C 145.455 129.380, 144 132.080, 144 132.406 C 144 132.733, 147.150 133, 151 133 C 154.850 133, 158 132.733, 158 132.406 C 158 131.452, 151.586 121, 151 121 C 150.707 121, 149.012 123.433, 147.234 126.406 M 174 123.345 C 174 124.635, 173.100 126.505, 172 127.500 C 170.900 128.495, 170 129.780, 170 130.355 C 170 130.996, 170.464 130.936, 171.200 130.200 C 172.956 128.444, 174.219 128.736, 173.579 130.750 C 173.152 132.095, 173.597 132.500, 175.500 132.500 C 177.403 132.500, 177.848 132.095, 177.421 130.750 C 176.781 128.736, 178.044 128.444, 179.800 130.200 C 180.536 130.936, 181 130.996, 181 130.355 C 181 129.780, 180.100 128.495, 179 127.500 C 177.900 126.505, 177 124.635, 177 123.345 C 177 121.927, 176.407 121, 175.500 121 C 174.593 121, 174 121.927, 174 123.345 M 193.994 121.833 C 193.447 122.017, 193 122.579, 193 123.083 C 193 123.588, 195.475 124, 198.500 124 C 201.525 124, 204 123.550, 204 123 C 204 122.450, 203.662 121.967, 203.250 121.928 C 199.988 121.613, 194.808 121.560, 193.994 121.833 M 228 121.786 C 228 122.454, 227.409 123, 226.687 123 C 225.965 123, 224.081 124.350, 222.500 126 C 220.919 127.650, 219.035 129, 218.313 129 C 217.591 129, 217 129.450, 217 130 C 217 132.046, 220.720 130.902, 223.500 128 C 226.882 124.470, 228 124.238, 228 127.067 C 228 128.680, 227.560 128.995, 226 128.500 C 224.784 128.114, 224 128.320, 224 129.026 C 224 129.665, 224.900 130.423, 226 130.710 C 227.100 130.998, 228 131.727, 228 132.331 C 228 132.935, 228.749 132.680, 229.664 131.764 C 231.039 130.390, 231.104 129.831, 230.042 128.550 C 228.993 127.287, 228.993 126.713, 230.042 125.450 C 231.104 124.169, 231.039 123.610, 229.664 122.236 C 228.606 121.177, 228 121.014, 228 121.786 M 266 122.500 C 266 123.325, 266.675 124, 267.500 124 C 268.325 124, 269 123.325, 269 122.500 C 269 121.675, 268.325 121, 267.500 121 C 266.675 121, 266 121.675, 266 122.500 M 273 122.500 C 273 123.325, 273.675 124, 274.500 124 C 275.325 124, 276 123.325, 276 122.500 C 276 121.675, 275.325 121, 274.500 121 C 273.675 121, 273 121.675, 273 122.500 M 371 122 C 371 122.550, 368.698 123, 365.883 123 C 361.065 123, 360.802 123.131, 361.370 125.250 C 361.701 126.487, 361.979 127.838, 361.986 128.250 C 361.994 128.662, 363.575 129, 365.500 129 C 367.425 129, 369 129.450, 369 130 C 369 130.550, 367.623 131, 365.941 131 C 364.259 131, 363.101 131.354, 363.368 131.786 C 363.898 132.643, 368.662 132.672, 369.511 131.823 C 370.567 130.766, 372.681 121, 371.854 121 C 371.384 121, 371 121.450, 371 122 M 437 122.500 C 436.140 123.536, 436.102 124, 436.878 124 C 437.495 124, 438 125.350, 438 127 C 438 128.686, 437.468 130, 436.786 130 C 436.028 130, 436.216 130.644, 437.286 131.714 C 438.905 133.333, 439.095 133.333, 440.714 131.714 C 441.784 130.644, 441.972 130, 441.214 130 C 440.532 130, 440 128.686, 440 127 C 440 125.350, 440.505 124, 441.122 124 C 441.898 124, 441.860 123.536, 441 122.500 C 440.315 121.675, 439.415 121, 439 121 C 438.585 121, 437.685 121.675, 437 122.500 M 98.306 124.500 L 95.500 127 98.306 129.500 C 99.849 130.875, 101.961 132, 103 132 C 104.039 132, 106.151 130.875, 107.694 129.500 L 110.500 127 107.694 124.500 C 106.151 123.125, 104.039 122, 103 122 C 101.961 122, 99.849 123.125, 98.306 124.500 M 241 126 C 241 128.200, 241.450 130, 242 130 C 242.550 130, 243 130.745, 243 131.655 C 243 133.195, 243.127 133.195, 244.829 131.655 C 245.835 130.745, 248.085 130, 249.829 130 C 252.862 130, 253 129.826, 253 126 L 253 122 247 122 L 241 122 241 126 M 386 123 C 384.954 123.676, 386.469 123.938, 391 123.866 C 396.077 123.786, 396.843 123.596, 394.500 123 C 390.167 121.897, 387.706 121.897, 386 123 M 410.250 122.662 C 409.563 122.940, 409.014 124.367, 409.030 125.833 C 409.057 128.127, 409.203 128.256, 410.080 126.750 C 410.834 125.456, 412.390 125, 416.050 125 C 421.876 125, 422.624 123.530, 417.250 122.642 C 413.017 121.942, 412.027 121.945, 410.250 122.662 M 217 123.883 C 217 124.805, 221.120 126.214, 221.806 125.527 C 222.023 125.310, 221.904 124.653, 221.541 124.067 C 220.748 122.783, 217 122.632, 217 123.883 M 291.515 125.984 C 289.300 128.297, 288.890 129.290, 289.783 130.183 C 290.676 131.076, 291.386 130.961, 292.783 129.697 C 294.486 128.155, 294.729 128.157, 296.299 129.728 C 297.628 131.057, 298.245 131.155, 299.208 130.192 C 300.172 129.228, 299.793 128.332, 297.424 125.962 L 294.417 122.955 291.515 125.984 M 314.450 124.081 C 314.082 124.676, 315.049 126.486, 316.599 128.104 L 319.417 131.045 322.424 128.038 C 324.751 125.711, 325.161 124.761, 324.239 123.839 C 323.317 122.917, 322.622 123.032, 321.167 124.349 C 319.489 125.867, 319.150 125.886, 318.021 124.525 C 316.530 122.729, 315.374 122.585, 314.450 124.081 M 336 124.500 C 335.140 125.536, 335.102 126, 335.878 126 C 336.495 126, 337 127.350, 337 129 C 337 131.841, 337.216 132, 341.059 132 C 343.510 132, 344.873 131.604, 344.500 131 C 344.160 130.450, 342.784 130, 341.441 130 C 339.667 130, 339 129.454, 339 128 C 339 126.900, 339.505 126, 340.122 126 C 340.898 126, 340.860 125.536, 340 124.500 C 339.315 123.675, 338.415 123, 338 123 C 337.585 123, 336.685 123.675, 336 124.500 M 341.500 124 C 341.840 124.550, 343.216 125, 344.559 125 C 346.333 125, 347 125.546, 347 127 C 347 128.100, 346.454 129, 345.786 129 C 345.028 129, 345.216 129.644, 346.286 130.714 C 347.905 132.333, 348.095 132.333, 349.714 130.714 C 350.784 129.644, 350.972 129, 350.214 129 C 349.532 129, 349 127.686, 349 126 C 349 123.159, 348.784 123, 344.941 123 C 342.490 123, 341.127 123.396, 341.500 124 M 6 126 C 6 127.100, 6.450 128, 7 128 C 7.550 128, 8 127.100, 8 126 C 8 124.900, 7.550 124, 7 124 C 6.450 124, 6 124.900, 6 126 M 54.306 126.592 L 51.500 129.183 55 126.916 C 59.557 123.963, 59.516 124, 58.222 124 C 57.611 124, 55.849 125.166, 54.306 126.592 M 130.410 125.627 C 130.754 126.521, 130.513 127.882, 129.875 128.651 C 127.917 131.010, 129.919 131.526, 132.195 129.249 C 133.984 127.461, 134.123 126.854, 133.045 125.555 C 131.349 123.511, 129.617 123.558, 130.410 125.627 M 458.049 125.441 C 456.869 126.863, 456.910 127.338, 458.336 128.764 C 459.394 129.823, 460 129.986, 460 129.214 C 460 128.532, 461.314 128, 463 128 C 464.686 128, 466 128.532, 466 129.214 C 466 129.972, 466.644 129.784, 467.714 128.714 C 469.333 127.095, 469.333 126.905, 467.714 125.286 C 466.644 124.216, 466 124.028, 466 124.786 C 466 126.308, 460.301 126.404, 459.797 124.890 C 459.568 124.204, 458.901 124.414, 458.049 125.441 M 193 129 L 193 133 198.500 133 L 204 133 204 129 L 204 125 198.500 125 L 193 125 193 129 M 266 127.066 C 266 130.763, 267.885 133, 271 133 C 274.115 133, 276 130.763, 276 127.066 C 276 124.266, 273.220 124.427, 272.820 127.250 C 272.644 128.488, 271.825 129.500, 271 129.500 C 270.175 129.500, 269.356 128.488, 269.180 127.250 C 268.780 124.427, 266 124.266, 266 127.066 M 385 129 L 385 133 391 133 L 397 133 397 129 L 397 125 391 125 L 385 125 385 129 M 99.030 126.550 C 98.938 129.731, 105.273 131.338, 106.393 128.418 C 107.329 125.978, 107.055 125.301, 105.920 127.250 C 105.359 128.213, 104.045 129, 103 129 C 101.955 129, 100.641 128.213, 100.080 127.250 C 99.519 126.287, 99.047 125.972, 99.030 126.550 M 123 126.711 C 123 127.285, 123.787 128.373, 124.750 129.128 C 126.369 130.397, 126.390 130.350, 125.033 128.500 C 124.226 127.400, 123.439 126.313, 123.283 126.083 C 123.127 125.854, 123 126.137, 123 126.711 M 410.526 128.950 C 409.687 130.573, 409 132.148, 409 132.450 C 409 132.753, 411.688 133, 414.974 133 C 420.579 133, 421.043 132.817, 422.474 130.050 C 423.313 128.427, 424 126.852, 424 126.550 C 424 126.247, 421.312 126, 418.026 126 C 412.421 126, 411.957 126.183, 410.526 128.950 M 148.145 128.729 C 147.160 130.569, 147.386 130.727, 151 130.727 C 154.614 130.727, 154.840 130.569, 153.855 128.729 C 152.991 127.115, 152.613 126.996, 151.893 128.115 C 151.132 129.295, 150.868 129.295, 150.107 128.115 C 149.387 126.996, 149.009 127.115, 148.145 128.729 M 26 131 C 26 132.333, 26.667 133, 28 133 C 29.333 133, 30 132.333, 30 131 C 30 129.667, 29.333 129, 28 129 C 26.667 129, 26 129.667, 26 131 M 32 131 C 32 132.333, 32.667 133, 34 133 C 35.333 133, 36 132.333, 36 131 C 36 129.667, 35.333 129, 34 129 C 32.667 129, 32 129.667, 32 131 M 197 145.640 C 197 146.542, 196.324 147.779, 195.497 148.390 C 194.168 149.371, 194.197 149.931, 195.747 153.217 C 197.105 156.098, 198.091 156.942, 200.125 156.967 C 202.275 156.994, 202.863 156.435, 203.375 153.875 C 204.340 149.048, 204.154 148.184, 202 147.500 C 200.900 147.151, 200 146.221, 200 145.433 C 200 144.645, 199.325 144, 198.500 144 C 197.675 144, 197 144.738, 197 145.640 M 2.647 146.750 C 2.378 147.713, 1.868 149.512, 1.512 150.750 C 0.891 152.909, 1.113 153, 7 153 C 12.362 153, 13.073 152.780, 12.647 151.250 C 10.864 144.859, 10.992 145, 7 145 C 4.171 145, 3.004 145.469, 2.647 146.750 M 53.212 146.188 C 52.546 146.854, 52 148.120, 52 149 C 52 149.880, 51.499 151.101, 50.887 151.713 C 49.053 153.547, 50.871 155, 55 155 C 59.546 155, 60.517 153.946, 58.878 150.791 C 58.224 149.531, 57.389 147.852, 57.023 147.060 C 56.106 145.077, 54.655 144.745, 53.212 146.188 M 75.471 147.464 C 74.387 148.584, 73.500 150.175, 73.500 151 C 73.500 152.988, 77.037 156.571, 79 156.571 C 80.963 156.571, 84.500 152.988, 84.500 151 C 84.500 149.012, 80.963 145.429, 79 145.429 C 78.143 145.429, 76.555 146.345, 75.471 147.464 M 101.500 147 C 101.151 148.100, 99.996 149, 98.933 149 C 97.472 149, 97 149.700, 97 151.869 C 97 154.408, 97.432 154.810, 100.750 155.358 C 106.332 156.281, 106.582 156.214, 107.839 153.453 C 109.465 149.885, 109.298 149, 107 149 C 105.667 149, 105 148.333, 105 147 C 105 145.900, 104.355 145, 103.567 145 C 102.779 145, 101.849 145.900, 101.500 147 M 198.063 147.357 C 198.016 149.491, 197.615 150.066, 196.477 149.629 C 195.222 149.148, 195.146 149.405, 196.044 151.082 C 196.808 152.510, 197.935 153.027, 199.809 152.810 C 202.743 152.470, 204.321 149, 201.541 149 C 200.658 149, 199.529 147.988, 199.031 146.750 C 198.174 144.616, 198.123 144.648, 198.063 147.357 M 218.747 148.783 C 217.197 152.069, 217.168 152.629, 218.497 153.610 C 219.324 154.221, 220 155.458, 220 156.360 C 220 157.262, 220.675 158, 221.500 158 C 222.325 158, 223 157.355, 223 156.567 C 223 155.779, 223.900 154.849, 225 154.500 C 227.154 153.816, 227.340 152.952, 226.375 148.125 C 225.863 145.565, 225.275 145.006, 223.125 145.033 C 221.091 145.058, 220.105 145.902, 218.747 148.783 M 243 147 C 241.900 148.100, 241 149.900, 241 151 C 241 152.100, 241.900 153.900, 243 155 C 244.100 156.100, 245.900 157, 247 157 C 248.100 157, 249.900 156.100, 251 155 C 252.100 153.900, 253 152.100, 253 151 C 253 149.900, 252.100 148.100, 251 147 C 249.900 145.900, 248.100 145, 247 145 C 245.900 145, 244.100 145.900, 243 147 M 267 147 C 265.900 148.100, 265 149.900, 265 151 C 265 152.100, 265.900 153.900, 267 155 C 268.100 156.100, 269.900 157, 271 157 C 272.100 157, 273.900 156.100, 275 155 C 276.100 153.900, 277 152.100, 277 151 C 277 149.900, 276.100 148.100, 275 147 C 273.900 145.900, 272.100 145, 271 145 C 269.900 145, 268.100 145.900, 267 147 M 291 147 C 289.900 148.100, 289 149.900, 289 151 C 289 152.100, 289.900 153.900, 291 155 C 292.100 156.100, 293.900 157, 295 157 C 296.100 157, 297.900 156.100, 299 155 C 300.100 153.900, 301 152.100, 301 151 C 301 149.900, 300.100 148.100, 299 147 C 297.900 145.900, 296.100 145, 295 145 C 293.900 145, 292.100 145.900, 291 147 M 315 147 C 313.900 148.100, 313 149.900, 313 151 C 313 152.100, 313.900 153.900, 315 155 C 316.100 156.100, 317.900 157, 319 157 C 320.100 157, 321.900 156.100, 323 155 C 324.100 153.900, 325 152.100, 325 151 C 325 149.900, 324.100 148.100, 323 147 C 321.900 145.900, 320.100 145, 319 145 C 317.900 145, 316.100 145.900, 315 147 M 339 147 C 337.900 148.100, 337 149.900, 337 151 C 337 152.100, 337.900 153.900, 339 155 C 340.100 156.100, 341.900 157, 343 157 C 344.100 157, 345.900 156.100, 347 155 C 348.100 153.900, 349 152.100, 349 151 C 349 149.900, 348.100 148.100, 347 147 C 345.900 145.900, 344.100 145, 343 145 C 341.900 145, 340.100 145.900, 339 147 M 367.324 146.750 C 366.987 147.713, 365.337 149.963, 363.657 151.752 C 361.288 154.275, 360.872 155.272, 361.800 156.200 C 362.728 157.128, 363.725 156.712, 366.248 154.343 C 368.037 152.663, 370.288 151.013, 371.250 150.676 C 372.212 150.339, 373 149.551, 373 148.924 C 373 148.298, 372.325 148.045, 371.500 148.362 C 370.612 148.703, 370 148.372, 370 147.552 C 370 146.790, 370.563 145.940, 371.250 145.662 C 371.938 145.385, 371.473 145.122, 370.219 145.079 C 368.895 145.033, 367.680 145.735, 367.324 146.750 M 412.250 145.716 C 413.762 145.945, 416.238 145.945, 417.750 145.716 C 419.262 145.487, 418.025 145.300, 415 145.300 C 411.975 145.300, 410.738 145.487, 412.250 145.716 M 437 146 C 437 146.550, 436.100 147, 435 147 C 433.533 147, 433 147.667, 433 149.500 C 433 151.889, 433.267 152, 439 152 C 444.733 152, 445 151.889, 445 149.500 C 445 147.667, 444.467 147, 443 147 C 441.900 147, 441 146.550, 441 146 C 441 145.450, 440.100 145, 439 145 C 437.900 145, 437 145.450, 437 146 M 457.079 147.250 C 457.132 148.753, 457.347 149.002, 457.729 148 C 458.043 147.175, 458.795 146.169, 459.400 145.765 C 460.078 145.312, 459.829 145.025, 458.750 145.015 C 457.574 145.005, 457.026 145.738, 457.079 147.250 M 466.189 145.677 C 467.117 145.923, 468.077 146.883, 468.323 147.811 C 468.638 149.008, 468.802 148.844, 468.884 147.250 C 468.973 145.518, 468.482 145.027, 466.750 145.116 C 465.156 145.198, 464.992 145.362, 466.189 145.677 M 30.250 147.967 C 26.413 149.296, 26 149.757, 26 152.719 C 26 154.938, 26.476 156, 27.469 156 C 28.344 156, 28.711 155.411, 28.378 154.544 C 27.917 153.342, 28.391 153.252, 31.094 154.027 C 32.894 154.543, 34.538 154.795, 34.746 154.587 C 34.955 154.379, 34.985 152.473, 34.813 150.352 L 34.500 146.496 30.250 147.967 M 36.300 151 C 36.300 154.025, 36.487 155.262, 36.716 153.750 C 36.945 152.238, 36.945 149.762, 36.716 148.250 C 36.487 146.738, 36.300 147.975, 36.300 151 M 102.161 148.547 C 100.551 152.080, 100.708 153.674, 102.741 154.454 C 103.906 154.901, 105.106 154.357, 106.364 152.811 C 108.234 150.514, 108.231 150.498, 105.731 150.194 C 103.793 149.958, 103.333 149.442, 103.725 147.944 C 104.447 145.183, 103.532 145.536, 102.161 148.547 M 123.750 146.716 C 121.470 147.062, 121 147.634, 121 150.066 C 121 152.377, 121.445 153, 123.094 153 C 124.346 153, 125.397 153.803, 125.710 155 C 125.998 156.100, 126.856 157, 127.617 157 C 128.377 157, 129 156.100, 129 155 C 129 153.667, 129.667 153, 131 153 C 133.321 153, 133.622 150.403, 131.608 147.750 C 130.302 146.029, 129.223 145.887, 123.750 146.716 M 148.272 147.885 C 145.877 149.083, 145.038 150.178, 145.022 152.125 C 145.004 154.272, 145.569 154.864, 148.125 155.375 C 152.952 156.340, 153.816 156.154, 154.500 154 C 154.849 152.900, 155.779 152, 156.567 152 C 157.355 152, 158 151.325, 158 150.500 C 158 149.675, 157.148 149, 156.107 149 C 155.066 149, 153.955 148.325, 153.638 147.500 C 152.959 145.729, 152.519 145.761, 148.272 147.885 M 172.394 147.417 C 172.059 148.288, 170.934 149, 169.893 149 C 168.852 149, 168 149.675, 168 150.500 C 168 151.325, 168.645 152, 169.433 152 C 170.221 152, 171.151 152.900, 171.500 154 C 172.184 156.154, 173.048 156.340, 177.875 155.375 C 180.434 154.863, 181 154.269, 181 152.094 C 181 150.050, 180.251 149.118, 177.750 148.047 C 175.963 147.281, 174.163 146.470, 173.751 146.244 C 173.338 146.018, 172.728 146.546, 172.394 147.417 M 385 147.500 C 385 148.667, 386.333 149, 391 149 C 395.667 149, 397 148.667, 397 147.500 C 397 146.333, 395.667 146, 391 146 C 386.333 146, 385 146.333, 385 147.500 M 126.250 147.667 C 124.570 148.339, 124.676 150.189, 126.592 153.636 C 127.874 155.941, 128.087 156.061, 127.686 154.250 C 127.271 152.378, 127.612 152, 129.716 152 C 132.095 152, 132.158 151.871, 130.786 149.805 C 129.188 147.398, 128.148 146.907, 126.250 147.667 M 150.596 148.306 C 148.368 149.935, 148.811 154.348, 151.250 154.813 C 152.329 155.019, 153 154.531, 153 153.541 C 153 152.658, 154.012 151.529, 155.250 151.031 C 157.384 150.174, 157.352 150.123, 154.643 150.063 C 152.528 150.016, 151.936 149.610, 152.362 148.500 C 153.065 146.666, 152.868 146.645, 150.596 148.306 M 173.629 148.477 C 174.066 149.615, 173.491 150.016, 171.357 150.063 C 168.648 150.123, 168.616 150.174, 170.750 151.031 C 171.988 151.529, 173 152.658, 173 153.541 C 173 156.321, 176.470 154.743, 176.810 151.809 C 177.027 149.935, 176.510 148.808, 175.082 148.044 C 173.405 147.146, 173.148 147.222, 173.629 148.477 M 340 149.428 C 340 151.735, 340.247 151.938, 341.944 151.030 C 344.230 149.806, 345.540 148, 344.141 148 C 343.603 148, 342.452 147.727, 341.582 147.393 C 340.385 146.934, 340 147.430, 340 149.428 M 411 147.800 C 411 148.240, 411.498 149.098, 412.107 149.707 C 412.716 150.316, 413.553 152.319, 413.967 154.157 C 414.610 157.012, 414.825 157.208, 415.441 155.500 C 416.069 153.760, 417.652 150.109, 418.801 147.750 C 419.002 147.338, 417.329 147, 415.083 147 C 412.837 147, 411 147.360, 411 147.800 M 459 148.417 C 459 149.196, 459.563 150.096, 460.250 150.417 C 461.250 150.883, 461.250 151.117, 460.250 151.583 C 458.539 152.382, 458.667 155, 460.417 155 C 461.196 155, 462.096 154.438, 462.417 153.750 C 462.883 152.750, 463.117 152.750, 463.583 153.750 C 464.382 155.461, 467 155.333, 467 153.583 C 467 152.804, 466.438 151.904, 465.750 151.583 C 464.750 151.117, 464.750 150.883, 465.750 150.417 C 466.438 150.096, 467 149.196, 467 148.417 C 467 146.667, 464.382 146.539, 463.583 148.250 C 463.117 149.250, 462.883 149.250, 462.417 148.250 C 461.618 146.539, 459 146.667, 459 148.417 M 293.607 148.826 C 292.929 149.925, 294.026 154, 295 154 C 295.974 154, 297.071 149.925, 296.393 148.826 C 296.112 148.372, 295.485 148, 295 148 C 294.515 148, 293.888 148.372, 293.607 148.826 M 317.649 150.233 C 316.972 152.823, 318.487 154.913, 319.967 153.433 C 321.021 152.379, 320.242 148, 319 148 C 318.578 148, 317.971 149.005, 317.649 150.233 M 219.044 150.918 C 218.146 152.595, 218.222 152.852, 219.477 152.371 C 220.615 151.934, 221.016 152.509, 221.063 154.643 C 221.123 157.352, 221.174 157.384, 222.031 155.250 C 222.529 154.012, 223.658 153, 224.541 153 C 227.321 153, 225.743 149.530, 222.809 149.190 C 220.935 148.973, 219.808 149.490, 219.044 150.918 M 245.750 149.689 C 243.322 150.324, 243.563 151.652, 246.233 152.351 C 248.733 153.005, 250.579 151.746, 249.554 150.087 C 248.855 148.957, 248.640 148.934, 245.750 149.689 M 268.488 150.019 C 267.426 151.738, 269.224 153.016, 271.767 152.351 C 273.934 151.784, 274.932 150, 273.082 150 C 272.577 150, 271.497 149.744, 270.683 149.432 C 269.869 149.119, 268.881 149.384, 268.488 150.019 M 385 151.500 C 385 152.667, 386.333 153, 391 153 C 395.667 153, 397 152.667, 397 151.500 C 397 150.333, 395.667 150, 391 150 C 386.333 150, 385 150.333, 385 151.500 M 392.269 151.693 C 393.242 151.947, 394.592 151.930, 395.269 151.656 C 395.946 151.382, 395.150 151.175, 393.500 151.195 C 391.850 151.215, 391.296 151.439, 392.269 151.693 M 343.543 153.931 C 342.541 155.552, 344.718 156.045, 346.009 154.489 C 347.014 153.278, 346.953 153, 345.681 153 C 344.822 153, 343.859 153.419, 343.543 153.931 M 433 154.500 C 433 155.667, 434.333 156, 439 156 C 443.667 156, 445 155.667, 445 154.500 C 445 153.333, 443.667 153, 439 153 C 434.333 153, 433 153.333, 433 154.500 M 1 155.500 C 1 156.667, 2.333 157, 7 157 C 11.667 157, 13 156.667, 13 155.500 C 13 154.333, 11.667 154, 7 154 C 2.333 154, 1 154.333, 1 155.500 M 385 155.500 C 385 156.667, 386.333 157, 391 157 C 395.667 157, 397 156.667, 397 155.500 C 397 154.333, 395.667 154, 391 154 C 386.333 154, 385 154.333, 385 155.500 M 457 155.333 C 457 156.260, 457.777 156.993, 458.750 156.985 C 459.749 156.976, 460.071 156.649, 459.500 156.223 C 458.950 155.813, 458.163 155.069, 457.750 154.572 C 457.337 154.074, 457 154.417, 457 155.333 M 468 154.927 C 468 155.436, 467.212 156.059, 466.250 156.311 C 464.933 156.655, 465.057 156.797, 466.750 156.884 C 468.135 156.955, 469 156.423, 469 155.500 C 469 154.675, 468.775 154, 468.500 154 C 468.225 154, 468 154.417, 468 154.927 M 393.813 155.683 C 394.534 155.972, 395.397 155.936, 395.729 155.604 C 396.061 155.272, 395.471 155.036, 394.417 155.079 C 393.252 155.127, 393.015 155.364, 393.813 155.683" stroke="none" fill="black" fill-rule="evenodd"/>
</svg>