<svg xmlns="http://www.w3.org/2000/svg" width="640" height="480" viewBox="0 0 640 480" version="1.1">
	<path d="M 13.538 1.062 C 13.987 1.787, 18.652 1.682, 19.404 0.929 C 19.680 0.654, 18.384 0.429, 16.526 0.429 C 14.667 0.429, 13.323 0.713, 13.538 1.062 M 621.538 1.062 C 621.987 1.787, 626.652 1.682, 627.404 0.929 C 627.680 0.654, 626.384 0.429, 624.526 0.429 C 622.667 0.429, 621.323 0.713, 621.538 1.062 M 32.079 2.583 C 32.127 3.748, 32.364 3.985, 32.683 3.188 C 32.972 2.466, 32.936 1.603, 32.604 1.271 C 32.272 0.939, 32.036 1.529, 32.079 2.583 M 608.079 2.583 C 608.127 3.748, 608.364 3.985, 608.683 3.188 C 608.972 2.466, 608.936 1.603, 608.604 1.271 C 608.272 0.939, 608.036 1.529, 608.079 2.583 M 32.079 6.583 C 32.127 7.748, 32.364 7.985, 32.683 7.188 C 32.972 6.466, 32.936 5.603, 32.604 5.271 C 32.272 4.939, 32.036 5.529, 32.079 6.583 M 608.079 6.583 C 608.127 7.748, 608.364 7.985, 608.683 7.188 C 608.972 6.466, 608.936 5.603, 608.604 5.271 C 608.272 4.939, 608.036 5.529, 608.079 6.583 M 10.923 11.923 C 7.074 15.773, 7.095 19.386, 10.987 22.802 C 15.030 26.349, 18.287 26.353, 21.676 22.816 C 25.286 19.049, 25.352 15.831, 21.899 12.051 C 18.302 8.112, 14.775 8.071, 10.923 11.923 M 32.079 10.583 C 32.127 11.748, 32.364 11.985, 32.683 11.188 C 32.972 10.466, 32.936 9.603, 32.604 9.271 C 32.272 8.939, 32.036 9.529, 32.079 10.583 M 608.079 10.583 C 608.127 11.748, 608.364 11.985, 608.683 11.188 C 608.972 10.466, 608.936 9.603, 608.604 9.271 C 608.272 8.939, 608.036 9.529, 608.079 10.583 M 618.923 11.923 C 615.074 15.773, 615.095 19.386, 618.987 22.802 C 623.030 26.349, 626.287 26.353, 629.676 22.816 C 633.286 19.049, 633.352 15.831, 629.899 12.051 C 626.302 8.112, 622.775 8.071, 618.923 11.923 M 16.435 12.105 C 16.120 12.615, 15.503 12.811, 15.065 12.540 C 14.279 12.054, 10.264 15.837, 10.750 16.605 C 10.887 16.822, 10.966 17.113, 10.923 17.250 C 9.784 20.974, 12.367 24.337, 16.539 24.560 C 19.501 24.718, 23.381 20.801, 23.559 17.472 C 23.756 13.779, 18.055 9.484, 16.435 12.105 M 624.435 12.105 C 624.120 12.615, 623.503 12.811, 623.065 12.540 C 622.279 12.054, 618.264 15.837, 618.750 16.605 C 618.888 16.822, 618.966 17.113, 618.923 17.250 C 617.784 20.974, 620.367 24.337, 624.539 24.560 C 627.501 24.718, 631.381 20.801, 631.559 17.472 C 631.756 13.779, 626.055 9.484, 624.435 12.105 M 16.435 13.105 C 16.120 13.615, 15.474 13.793, 15 13.500 C 14.193 13.001, 12.705 14.569, 12.390 16.250 C 12.313 16.663, 12.159 17.113, 12.048 17.250 C 11.107 18.418, 11.474 21.149, 12.710 22.174 C 16.541 25.354, 22.286 22.586, 22.561 17.428 C 22.748 13.941, 17.992 10.586, 16.435 13.105 M 624.435 13.105 C 624.120 13.615, 623.474 13.793, 623 13.500 C 622.193 13.001, 620.705 14.569, 620.390 16.250 C 620.313 16.663, 620.159 17.113, 620.048 17.250 C 619.107 18.418, 619.474 21.149, 620.710 22.174 C 624.541 25.354, 630.286 22.586, 630.561 17.428 C 630.748 13.941, 625.992 10.586, 624.435 13.105 M 16.485 13.848 C 16.127 14.207, 15.308 14.500, 14.667 14.500 C 14.025 14.500, 13.444 15.063, 13.375 15.750 C 13.306 16.438, 13.159 17.113, 13.048 17.250 C 12.209 18.291, 12.394 21.126, 13.339 21.716 C 17.133 24.084, 21.325 21.859, 21.566 17.349 C 21.727 14.334, 18.336 11.998, 16.485 13.848 M 32.079 14.583 C 32.127 15.748, 32.364 15.985, 32.683 15.188 C 32.972 14.466, 32.936 13.603, 32.604 13.271 C 32.272 12.939, 32.036 13.529, 32.079 14.583 M 608.079 14.583 C 608.127 15.748, 608.364 15.985, 608.683 15.188 C 608.972 14.466, 608.936 13.603, 608.604 13.271 C 608.272 12.939, 608.036 13.529, 608.079 14.583 M 624.485 13.848 C 624.127 14.207, 623.308 14.500, 622.667 14.500 C 622.025 14.500, 621.444 15.063, 621.375 15.750 C 621.306 16.438, 621.159 17.113, 621.048 17.250 C 620.209 18.291, 620.394 21.126, 621.339 21.716 C 625.133 24.084, 629.325 21.859, 629.566 17.349 C 629.727 14.334, 626.336 11.998, 624.485 13.848 M 16.435 15.105 C 16.120 15.615, 15.373 15.731, 14.776 15.362 C 14.153 14.977, 13.977 15.153, 14.362 15.776 C 14.731 16.373, 14.615 17.120, 14.105 17.435 C 12.255 18.578, 13.664 21.499, 16.095 21.561 C 19.451 21.647, 20.715 20.450, 20.549 17.344 C 20.407 14.685, 17.629 13.174, 16.435 15.105 M 624.435 15.105 C 624.120 15.615, 623.373 15.731, 622.776 15.362 C 622.153 14.977, 621.977 15.153, 622.362 15.776 C 622.731 16.373, 622.615 17.120, 622.105 17.435 C 620.255 18.578, 621.664 21.499, 624.095 21.561 C 627.451 21.647, 628.715 20.450, 628.549 17.344 C 628.407 14.685, 625.629 13.174, 624.435 15.105 M 15.778 16.768 C 13.696 19.276, 14.083 20.687, 16.813 20.541 C 18.842 20.432, 19.432 19.854, 19.538 17.868 C 19.689 15.049, 17.689 14.464, 15.778 16.768 M 623.778 16.768 C 621.696 19.276, 622.083 20.687, 624.813 20.541 C 626.842 20.432, 627.432 19.854, 627.538 17.868 C 627.689 15.049, 625.689 14.464, 623.778 16.768 M 16.020 17.476 C 15.324 18.314, 14.923 19.034, 15.128 19.077 C 18.207 19.709, 18.765 19.604, 18.592 18.425 C 18.264 16.188, 17.364 15.856, 16.020 17.476 M 624.020 17.476 C 623.324 18.314, 622.923 19.034, 623.128 19.077 C 626.207 19.709, 626.765 19.604, 626.592 18.425 C 626.264 16.188, 625.364 15.856, 624.020 17.476 M 32.079 18.583 C 32.127 19.748, 32.364 19.985, 32.683 19.188 C 32.972 18.466, 32.936 17.603, 32.604 17.271 C 32.272 16.939, 32.036 17.529, 32.079 18.583 M 608.079 18.583 C 608.127 19.748, 608.364 19.985, 608.683 19.188 C 608.972 18.466, 608.936 17.603, 608.604 17.271 C 608.272 16.939, 608.036 17.529, 608.079 18.583 M 32.079 22.583 C 32.127 23.748, 32.364 23.985, 32.683 23.188 C 32.972 22.466, 32.936 21.603, 32.604 21.271 C 32.272 20.939, 32.036 21.529, 32.079 22.583 M 608.079 22.583 C 608.127 23.748, 608.364 23.985, 608.683 23.188 C 608.972 22.466, 608.936 21.603, 608.604 21.271 C 608.272 20.939, 608.036 21.529, 608.079 22.583 M 32.079 26.583 C 32.127 27.748, 32.364 27.985, 32.683 27.188 C 32.972 26.466, 32.936 25.603, 32.604 25.271 C 32.272 24.939, 32.036 25.529, 32.079 26.583 M 608.079 26.583 C 608.127 27.748, 608.364 27.985, 608.683 27.188 C 608.972 26.466, 608.936 25.603, 608.604 25.271 C 608.272 24.939, 608.036 25.529, 608.079 26.583 M 32.079 30.583 C 32.127 31.748, 32.364 31.985, 32.683 31.188 C 32.972 30.466, 32.936 29.603, 32.604 29.271 C 32.272 28.939, 32.036 29.529, 32.079 30.583 M 608.079 30.583 C 608.127 31.748, 608.364 31.985, 608.683 31.188 C 608.972 30.466, 608.936 29.603, 608.604 29.271 C 608.272 28.939, 608.036 29.529, 608.079 30.583 M 11.455 35.455 C 8.303 38.606, 8.313 42.459, 11.481 45.394 C 14.527 48.217, 18.294 48.151, 21.222 45.222 C 24.151 42.294, 24.217 38.527, 21.394 35.481 C 18.459 32.313, 14.606 32.303, 11.455 35.455 M 619.455 35.455 C 616.303 38.606, 616.313 42.459, 619.481 45.394 C 622.527 48.217, 626.294 48.151, 629.222 45.222 C 632.151 42.294, 632.217 38.527, 629.394 35.481 C 626.459 32.313, 622.606 32.303, 619.455 35.455 M 16.435 36.105 C 16.120 36.615, 15.474 36.793, 15 36.500 C 14.193 36.001, 12.705 37.569, 12.390 39.250 C 12.313 39.663, 12.159 40.112, 12.048 40.250 C 11.107 41.418, 11.474 44.149, 12.710 45.174 C 16.541 48.354, 22.286 45.586, 22.561 40.428 C 22.748 36.941, 17.992 33.586, 16.435 36.105 M 624.435 36.105 C 624.120 36.615, 623.474 36.793, 623 36.500 C 622.193 36.001, 620.705 37.569, 620.390 39.250 C 620.313 39.663, 620.159 40.112, 620.048 40.250 C 619.107 41.418, 619.474 44.149, 620.710 45.174 C 624.541 48.354, 630.286 45.586, 630.561 40.428 C 630.748 36.941, 625.992 33.586, 624.435 36.105 M 16.485 36.848 C 16.127 37.207, 15.308 37.500, 14.667 37.500 C 14.025 37.500, 13.444 38.063, 13.375 38.750 C 13.306 39.438, 13.159 40.112, 13.048 40.250 C 12.209 41.291, 12.394 44.126, 13.339 44.716 C 17.133 47.084, 21.325 44.859, 21.566 40.349 C 21.727 37.334, 18.336 34.998, 16.485 36.848 M 624.485 36.848 C 624.127 37.207, 623.308 37.500, 622.667 37.500 C 622.025 37.500, 621.444 38.063, 621.375 38.750 C 621.306 39.438, 621.159 40.112, 621.048 40.250 C 620.209 41.291, 620.394 44.126, 621.339 44.716 C 625.133 47.084, 629.325 44.859, 629.566 40.349 C 629.727 37.334, 626.336 34.998, 624.485 36.848 M 16.435 38.105 C 16.120 38.615, 15.373 38.731, 14.776 38.362 C 14.153 37.977, 13.977 38.153, 14.362 38.776 C 14.731 39.373, 14.615 40.120, 14.105 40.435 C 12.255 41.578, 13.664 44.499, 16.095 44.561 C 19.451 44.647, 20.715 43.450, 20.549 40.344 C 20.407 37.685, 17.629 36.174, 16.435 38.105 M 624.435 38.105 C 624.120 38.615, 623.373 38.731, 622.776 38.362 C 622.153 37.977, 621.977 38.153, 622.362 38.776 C 622.731 39.373, 622.615 40.120, 622.105 40.435 C 620.255 41.578, 621.664 44.499, 624.095 44.561 C 627.451 44.647, 628.715 43.450, 628.549 40.344 C 628.407 37.685, 625.629 36.174, 624.435 38.105 M 15.778 39.768 C 13.696 42.276, 14.083 43.687, 16.813 43.541 C 18.842 43.432, 19.432 42.854, 19.538 40.868 C 19.689 38.049, 17.689 37.464, 15.778 39.768 M 623.778 39.768 C 621.696 42.276, 622.083 43.687, 624.813 43.541 C 626.842 43.432, 627.432 42.854, 627.538 40.868 C 627.689 38.049, 625.689 37.464, 623.778 39.768 M 16.020 40.476 C 15.324 41.314, 14.923 42.034, 15.128 42.077 C 18.207 42.709, 18.765 42.604, 18.592 41.425 C 18.264 39.188, 17.364 38.856, 16.020 40.476 M 624.020 40.476 C 623.324 41.314, 622.923 42.034, 623.128 42.077 C 626.207 42.709, 626.765 42.604, 626.592 41.425 C 626.264 39.188, 625.364 38.856, 624.020 40.476 M 11.455 56.455 C 10.105 57.805, 9 59.969, 9 61.263 C 9 63.841, 11.209 67.427, 12.919 67.625 C 13.514 67.694, 14.225 67.862, 14.500 68 C 15.828 68.664, 17.620 68.533, 18.750 67.689 C 19.438 67.175, 20 67.090, 20 67.500 C 20 67.910, 20.670 67.689, 21.489 67.009 C 22.308 66.329, 22.751 65.405, 22.473 64.956 C 22.195 64.506, 22.385 63.880, 22.895 63.565 C 23.659 63.092, 23.698 60.176, 22.952 59.250 C 22.841 59.112, 22.694 58.514, 22.625 57.919 C 22.427 56.209, 18.841 54, 16.263 54 C 14.969 54, 12.805 55.105, 11.455 56.455 M 619.455 56.455 C 618.105 57.805, 617 59.969, 617 61.263 C 617 63.841, 619.209 67.427, 620.919 67.625 C 621.514 67.694, 622.225 67.862, 622.500 68 C 623.828 68.664, 625.620 68.533, 626.750 67.689 C 627.438 67.175, 628 67.090, 628 67.500 C 628 67.910, 628.670 67.689, 629.489 67.009 C 630.308 66.329, 630.751 65.405, 630.473 64.956 C 630.195 64.506, 630.385 63.880, 630.895 63.565 C 631.659 63.092, 631.698 60.176, 630.952 59.250 C 630.841 59.112, 630.694 58.514, 630.625 57.919 C 630.427 56.209, 626.841 54, 624.263 54 C 622.969 54, 620.805 55.105, 619.455 56.455 M 13.720 58.906 C 11.383 61.480, 10.581 66.486, 12.500 66.515 C 13.050 66.524, 13.950 66.778, 14.500 67.080 C 15.441 67.597, 17.383 67.558, 18.500 67 C 18.775 66.862, 19.563 66.694, 20.250 66.625 C 20.938 66.556, 21.556 65.938, 21.625 65.250 C 21.694 64.563, 21.863 63.775, 22 63.500 C 22.612 62.277, 22.563 60.418, 21.896 59.500 C 21.497 58.950, 21.137 58.067, 21.096 57.539 C 20.937 55.463, 16.017 56.376, 13.720 58.906 M 621.720 58.906 C 619.383 61.480, 618.581 66.486, 620.500 66.515 C 621.050 66.524, 621.950 66.778, 622.500 67.080 C 623.441 67.597, 625.383 67.558, 626.500 67 C 626.775 66.862, 627.563 66.694, 628.250 66.625 C 628.938 66.556, 629.556 65.938, 629.625 65.250 C 629.694 64.563, 629.862 63.775, 630 63.500 C 630.612 62.277, 630.563 60.418, 629.896 59.500 C 629.497 58.950, 629.137 58.067, 629.096 57.539 C 628.937 55.463, 624.017 56.376, 621.720 58.906 M 14.258 59.267 C 12.657 61.036, 11.641 65.970, 12.907 65.829 C 13.233 65.793, 13.725 65.851, 14 65.958 C 15.920 66.707, 18.082 66.677, 18.565 65.895 C 18.880 65.385, 19.568 65.233, 20.094 65.558 C 20.619 65.883, 20.985 65.778, 20.906 65.324 C 20.828 64.871, 20.851 64.275, 20.958 64 C 21.707 62.080, 21.677 59.918, 20.895 59.435 C 20.385 59.120, 20.171 58.533, 20.419 58.131 C 21.426 56.502, 15.826 57.535, 14.258 59.267 M 622.258 59.267 C 620.657 61.036, 619.641 65.970, 620.907 65.829 C 621.233 65.793, 621.725 65.851, 622 65.958 C 623.920 66.707, 626.082 66.677, 626.565 65.895 C 626.880 65.385, 627.568 65.233, 628.094 65.558 C 628.619 65.883, 628.985 65.778, 628.906 65.324 C 628.828 64.871, 628.851 64.275, 628.958 64 C 629.707 62.080, 629.677 59.918, 628.895 59.435 C 628.385 59.120, 628.171 58.533, 628.419 58.131 C 629.426 56.502, 623.826 57.535, 622.258 59.267 M 14.838 59.696 C 12.404 62.628, 13.180 65.091, 16.706 65.627 C 18.099 65.839, 20.318 63.443, 20.617 61.403 C 21.019 58.663, 16.743 57.400, 14.838 59.696 M 622.838 59.696 C 620.404 62.628, 621.180 65.091, 624.706 65.627 C 626.099 65.839, 628.318 63.443, 628.617 61.403 C 629.019 58.663, 624.743 57.400, 622.838 59.696 M 15.232 60.345 C 13.868 62.188, 14.353 64.288, 16.206 64.560 C 18.106 64.839, 19.655 63.239, 19.561 61.095 C 19.484 59.334, 16.379 58.796, 15.232 60.345 M 623.232 60.345 C 621.868 62.188, 622.353 64.288, 624.206 64.560 C 626.106 64.839, 627.655 63.239, 627.561 61.095 C 627.484 59.334, 624.379 58.796, 623.232 60.345 M 15.923 60.417 C 15.881 60.462, 15.703 61.241, 15.527 62.146 C 15.328 63.174, 15.795 63.706, 16.771 63.563 C 18.721 63.277, 19.283 60.333, 17.387 60.333 C 16.624 60.333, 15.966 60.371, 15.923 60.417 M 623.923 60.417 C 623.881 60.462, 623.703 61.241, 623.527 62.146 C 623.328 63.174, 623.795 63.706, 624.771 63.563 C 626.721 63.277, 627.283 60.333, 625.387 60.333 C 624.624 60.333, 623.966 60.371, 623.923 60.417 M 32.079 66.583 C 32.127 67.748, 32.364 67.985, 32.683 67.188 C 32.972 66.466, 32.936 65.603, 32.604 65.271 C 32.272 64.939, 32.036 65.529, 32.079 66.583 M 608.079 66.583 C 608.127 67.748, 608.364 67.985, 608.683 67.188 C 608.972 66.466, 608.936 65.603, 608.604 65.271 C 608.272 64.939, 608.036 65.529, 608.079 66.583 M 32.079 70.583 C 32.127 71.748, 32.364 71.985, 32.683 71.188 C 32.972 70.466, 32.936 69.603, 32.604 69.271 C 32.272 68.939, 32.036 69.529, 32.079 70.583 M 608.079 70.583 C 608.127 71.748, 608.364 71.985, 608.683 71.188 C 608.972 70.466, 608.936 69.603, 608.604 69.271 C 608.272 68.939, 608.036 69.529, 608.079 70.583 M 32.079 74.583 C 32.127 75.748, 32.364 75.985, 32.683 75.188 C 32.972 74.466, 32.936 73.603, 32.604 73.271 C 32.272 72.939, 32.036 73.529, 32.079 74.583 M 608.079 74.583 C 608.127 75.748, 608.364 75.985, 608.683 75.188 C 608.972 74.466, 608.936 73.603, 608.604 73.271 C 608.272 72.939, 608.036 73.529, 608.079 74.583 M 11.455 77.455 C 8.303 80.606, 8.313 84.459, 11.481 87.394 C 14.527 90.217, 18.294 90.151, 21.222 87.222 C 24.151 84.294, 24.217 80.527, 21.394 77.481 C 18.459 74.313, 14.606 74.303, 11.455 77.455 M 619.455 77.455 C 616.303 80.606, 616.313 84.459, 619.481 87.394 C 622.527 90.217, 626.294 90.151, 629.222 87.222 C 632.151 84.294, 632.217 80.527, 629.394 77.481 C 626.459 74.313, 622.606 74.303, 619.455 77.455 M 16.435 78.105 C 16.120 78.615, 15.474 78.793, 15 78.500 C 14.193 78.001, 12.705 79.569, 12.390 81.250 C 12.313 81.662, 12.159 82.112, 12.048 82.250 C 11.107 83.418, 11.474 86.149, 12.710 87.174 C 16.541 90.354, 22.286 87.586, 22.561 82.428 C 22.748 78.941, 17.992 75.586, 16.435 78.105 M 32.079 78.583 C 32.127 79.748, 32.364 79.985, 32.683 79.188 C 32.972 78.466, 32.936 77.603, 32.604 77.271 C 32.272 76.939, 32.036 77.529, 32.079 78.583 M 608.079 78.583 C 608.127 79.748, 608.364 79.985, 608.683 79.188 C 608.972 78.466, 608.936 77.603, 608.604 77.271 C 608.272 76.939, 608.036 77.529, 608.079 78.583 M 624.435 78.105 C 624.120 78.615, 623.474 78.793, 623 78.500 C 622.193 78.001, 620.705 79.569, 620.390 81.250 C 620.313 81.662, 620.159 82.112, 620.048 82.250 C 619.107 83.418, 619.474 86.149, 620.710 87.174 C 624.541 90.354, 630.286 87.586, 630.561 82.428 C 630.748 78.941, 625.992 75.586, 624.435 78.105 M 16.485 78.848 C 16.127 79.207, 15.308 79.500, 14.667 79.500 C 14.025 79.500, 13.444 80.063, 13.375 80.750 C 13.306 81.438, 13.159 82.112, 13.048 82.250 C 12.209 83.291, 12.394 86.126, 13.339 86.716 C 17.133 89.084, 21.325 86.859, 21.566 82.349 C 21.727 79.334, 18.336 76.998, 16.485 78.848 M 624.485 78.848 C 624.127 79.207, 623.308 79.500, 622.667 79.500 C 622.025 79.500, 621.444 80.063, 621.375 80.750 C 621.306 81.438, 621.159 82.112, 621.048 82.250 C 620.209 83.291, 620.394 86.126, 621.339 86.716 C 625.133 89.084, 629.325 86.859, 629.566 82.349 C 629.727 79.334, 626.336 76.998, 624.485 78.848 M 16.435 80.105 C 16.120 80.615, 15.373 80.731, 14.776 80.362 C 14.153 79.977, 13.977 80.153, 14.362 80.776 C 14.731 81.373, 14.615 82.120, 14.105 82.435 C 12.255 83.578, 13.664 86.499, 16.095 86.561 C 19.451 86.647, 20.715 85.450, 20.549 82.344 C 20.407 79.685, 17.629 78.174, 16.435 80.105 M 624.435 80.105 C 624.120 80.615, 623.373 80.731, 622.776 80.362 C 622.153 79.977, 621.977 80.153, 622.362 80.776 C 622.731 81.373, 622.615 82.120, 622.105 82.435 C 620.255 83.578, 621.664 86.499, 624.095 86.561 C 627.451 86.647, 628.715 85.450, 628.549 82.344 C 628.407 79.685, 625.629 78.174, 624.435 80.105 M 15.778 81.768 C 13.696 84.276, 14.083 85.687, 16.813 85.541 C 18.842 85.432, 19.432 84.854, 19.538 82.868 C 19.689 80.049, 17.689 79.464, 15.778 81.768 M 623.778 81.768 C 621.696 84.276, 622.083 85.687, 624.813 85.541 C 626.842 85.432, 627.432 84.854, 627.538 82.868 C 627.689 80.049, 625.689 79.464, 623.778 81.768 M 16.020 82.476 C 15.324 83.314, 14.923 84.034, 15.128 84.077 C 18.207 84.709, 18.765 84.604, 18.592 83.425 C 18.264 81.188, 17.364 80.856, 16.020 82.476 M 32.079 82.583 C 32.127 83.748, 32.364 83.985, 32.683 83.188 C 32.972 82.466, 32.936 81.603, 32.604 81.271 C 32.272 80.939, 32.036 81.529, 32.079 82.583 M 608.079 82.583 C 608.127 83.748, 608.364 83.985, 608.683 83.188 C 608.972 82.466, 608.936 81.603, 608.604 81.271 C 608.272 80.939, 608.036 81.529, 608.079 82.583 M 624.020 82.476 C 623.324 83.314, 622.923 84.034, 623.128 84.077 C 626.207 84.709, 626.765 84.604, 626.592 83.425 C 626.264 81.188, 625.364 80.856, 624.020 82.476 M 32.079 86.583 C 32.127 87.748, 32.364 87.985, 32.683 87.188 C 32.972 86.466, 32.936 85.603, 32.604 85.271 C 32.272 84.939, 32.036 85.529, 32.079 86.583 M 608.079 86.583 C 608.127 87.748, 608.364 87.985, 608.683 87.188 C 608.972 86.466, 608.936 85.603, 608.604 85.271 C 608.272 84.939, 608.036 85.529, 608.079 86.583 M 32.079 90.583 C 32.127 91.748, 32.364 91.985, 32.683 91.188 C 32.972 90.466, 32.936 89.603, 32.604 89.271 C 32.272 88.939, 32.036 89.529, 32.079 90.583 M 608.079 90.583 C 608.127 91.748, 608.364 91.985, 608.683 91.188 C 608.972 90.466, 608.936 89.603, 608.604 89.271 C 608.272 88.939, 608.036 89.529, 608.079 90.583 M 32.079 94.583 C 32.127 95.748, 32.364 95.985, 32.683 95.188 C 32.972 94.466, 32.936 93.603, 32.604 93.271 C 32.272 92.939, 32.036 93.529, 32.079 94.583 M 608.079 94.583 C 608.127 95.748, 608.364 95.985, 608.683 95.188 C 608.972 94.466, 608.936 93.603, 608.604 93.271 C 608.272 92.939, 608.036 93.529, 608.079 94.583 M 10.923 99.923 C 7.074 103.773, 7.095 107.386, 10.987 110.802 C 15.030 114.349, 18.287 114.353, 21.676 110.816 C 25.286 107.049, 25.352 103.831, 21.899 100.051 C 18.302 96.112, 14.775 96.071, 10.923 99.923 M 618.923 99.923 C 615.074 103.773, 615.095 107.386, 618.987 110.802 C 623.030 114.349, 626.287 114.353, 629.676 110.816 C 633.286 107.049, 633.352 103.831, 629.899 100.051 C 626.302 96.112, 622.775 96.071, 618.923 99.923 M 16.435 100.105 C 16.120 100.615, 15.503 100.811, 15.065 100.540 C 14.279 100.054, 10.264 103.837, 10.750 104.605 C 10.887 104.822, 10.966 105.112, 10.923 105.250 C 9.784 108.974, 12.367 112.337, 16.539 112.560 C 19.501 112.718, 23.381 108.801, 23.559 105.472 C 23.756 101.779, 18.055 97.484, 16.435 100.105 M 624.435 100.105 C 624.120 100.615, 623.503 100.811, 623.065 100.540 C 622.279 100.054, 618.264 103.837, 618.750 104.605 C 618.888 104.822, 618.966 105.112, 618.923 105.250 C 617.784 108.974, 620.367 112.337, 624.539 112.560 C 627.501 112.718, 631.381 108.801, 631.559 105.472 C 631.756 101.779, 626.055 97.484, 624.435 100.105 M 16.435 101.105 C 16.120 101.615, 15.474 101.793, 15 101.500 C 14.193 101.001, 12.705 102.569, 12.390 104.250 C 12.313 104.662, 12.159 105.112, 12.048 105.250 C 11.107 106.418, 11.474 109.149, 12.710 110.174 C 16.541 113.354, 22.286 110.586, 22.561 105.428 C 22.748 101.941, 17.992 98.586, 16.435 101.105 M 624.435 101.105 C 624.120 101.615, 623.474 101.793, 623 101.500 C 622.193 101.001, 620.705 102.569, 620.390 104.250 C 620.313 104.662, 620.159 105.112, 620.048 105.250 C 619.107 106.418, 619.474 109.149, 620.710 110.174 C 624.541 113.354, 630.286 110.586, 630.561 105.428 C 630.748 101.941, 625.992 98.586, 624.435 101.105 M 16.485 101.848 C 16.127 102.207, 15.308 102.500, 14.667 102.500 C 14.025 102.500, 13.444 103.063, 13.375 103.750 C 13.306 104.438, 13.159 105.112, 13.048 105.250 C 12.209 106.291, 12.394 109.126, 13.339 109.716 C 17.133 112.084, 21.325 109.859, 21.566 105.349 C 21.727 102.334, 18.336 99.998, 16.485 101.848 M 624.485 101.848 C 624.127 102.207, 623.308 102.500, 622.667 102.500 C 622.025 102.500, 621.444 103.063, 621.375 103.750 C 621.306 104.438, 621.159 105.112, 621.048 105.250 C 620.209 106.291, 620.394 109.126, 621.339 109.716 C 625.133 112.084, 629.325 109.859, 629.566 105.349 C 629.727 102.334, 626.336 99.998, 624.485 101.848 M 16.435 103.105 C 16.120 103.615, 15.373 103.731, 14.776 103.362 C 14.153 102.977, 13.977 103.153, 14.362 103.776 C 14.731 104.373, 14.615 105.120, 14.105 105.435 C 12.255 106.578, 13.664 109.499, 16.095 109.561 C 19.451 109.647, 20.715 108.450, 20.549 105.344 C 20.407 102.685, 17.629 101.174, 16.435 103.105 M 624.435 103.105 C 624.120 103.615, 623.373 103.731, 622.776 103.362 C 622.153 102.977, 621.977 103.153, 622.362 103.776 C 622.731 104.373, 622.615 105.120, 622.105 105.435 C 620.255 106.578, 621.664 109.499, 624.095 109.561 C 627.451 109.647, 628.715 108.450, 628.549 105.344 C 628.407 102.685, 625.629 101.174, 624.435 103.105 M 15.778 104.768 C 13.696 107.276, 14.083 108.687, 16.813 108.541 C 18.842 108.432, 19.432 107.854, 19.538 105.868 C 19.689 103.049, 17.689 102.464, 15.778 104.768 M 623.778 104.768 C 621.696 107.276, 622.083 108.687, 624.813 108.541 C 626.842 108.432, 627.432 107.854, 627.538 105.868 C 627.689 103.049, 625.689 102.464, 623.778 104.768 M 16.020 105.476 C 15.324 106.314, 14.923 107.034, 15.128 107.077 C 18.207 107.709, 18.765 107.604, 18.592 106.425 C 18.264 104.188, 17.364 103.856, 16.020 105.476 M 624.020 105.476 C 623.324 106.314, 622.923 107.034, 623.128 107.077 C 626.207 107.709, 626.765 107.604, 626.592 106.425 C 626.264 104.188, 625.364 103.856, 624.020 105.476 M 11.455 123.455 C 8.303 126.606, 8.313 130.459, 11.481 133.394 C 14.527 136.217, 18.294 136.151, 21.222 133.222 C 24.151 130.294, 24.217 126.527, 21.394 123.481 C 18.459 120.313, 14.606 120.303, 11.455 123.455 M 619.455 123.455 C 616.303 126.606, 616.313 130.459, 619.481 133.394 C 622.527 136.217, 626.294 136.151, 629.222 133.222 C 632.151 130.294, 632.217 126.527, 629.394 123.481 C 626.459 120.313, 622.606 120.303, 619.455 123.455 M 16.435 124.105 C 16.120 124.615, 15.474 124.793, 15 124.500 C 14.193 124.001, 12.705 125.569, 12.390 127.250 C 12.313 127.662, 12.159 128.113, 12.048 128.250 C 11.107 129.418, 11.474 132.149, 12.710 133.174 C 16.541 136.354, 22.286 133.586, 22.561 128.428 C 22.748 124.941, 17.992 121.586, 16.435 124.105 M 624.435 124.105 C 624.120 124.615, 623.474 124.793, 623 124.500 C 622.193 124.001, 620.705 125.569, 620.390 127.250 C 620.313 127.662, 620.159 128.113, 620.048 128.250 C 619.107 129.418, 619.474 132.149, 620.710 133.174 C 624.541 136.354, 630.286 133.586, 630.561 128.428 C 630.748 124.941, 625.992 121.586, 624.435 124.105 M 16.485 124.848 C 16.127 125.207, 15.308 125.500, 14.667 125.500 C 14.025 125.500, 13.444 126.063, 13.375 126.750 C 13.306 127.438, 13.159 128.113, 13.048 128.250 C 12.209 129.291, 12.394 132.126, 13.339 132.716 C 17.133 135.084, 21.325 132.859, 21.566 128.349 C 21.727 125.334, 18.336 122.998, 16.485 124.848 M 624.485 124.848 C 624.127 125.207, 623.308 125.500, 622.667 125.500 C 622.025 125.500, 621.444 126.063, 621.375 126.750 C 621.306 127.438, 621.159 128.113, 621.048 128.250 C 620.209 129.291, 620.394 132.126, 621.339 132.716 C 625.133 135.084, 629.325 132.859, 629.566 128.349 C 629.727 125.334, 626.336 122.998, 624.485 124.848 M 16.435 126.105 C 16.120 126.615, 15.373 126.731, 14.776 126.362 C 14.153 125.977, 13.977 126.153, 14.362 126.776 C 14.731 127.373, 14.615 128.120, 14.105 128.435 C 12.255 129.578, 13.664 132.499, 16.095 132.561 C 19.451 132.647, 20.715 131.450, 20.549 128.344 C 20.407 125.685, 17.629 124.174, 16.435 126.105 M 624.435 126.105 C 624.120 126.615, 623.373 126.731, 622.776 126.362 C 622.153 125.977, 621.977 126.153, 622.362 126.776 C 622.731 127.373, 622.615 128.120, 622.105 128.435 C 620.255 129.578, 621.664 132.499, 624.095 132.561 C 627.451 132.647, 628.715 131.450, 628.549 128.344 C 628.407 125.685, 625.629 124.174, 624.435 126.105 M 15.778 127.768 C 13.696 130.276, 14.083 131.687, 16.813 131.541 C 18.842 131.432, 19.432 130.854, 19.538 128.868 C 19.689 126.049, 17.689 125.464, 15.778 127.768 M 623.778 127.768 C 621.696 130.276, 622.083 131.687, 624.813 131.541 C 626.842 131.432, 627.432 130.854, 627.538 128.868 C 627.689 126.049, 625.689 125.464, 623.778 127.768 M 16.020 128.476 C 15.324 129.314, 14.923 130.034, 15.128 130.077 C 18.207 130.709, 18.765 130.604, 18.592 129.425 C 18.264 127.188, 17.364 126.856, 16.020 128.476 M 624.020 128.476 C 623.324 129.314, 622.923 130.034, 623.128 130.077 C 626.207 130.709, 626.765 130.604, 626.592 129.425 C 626.264 127.188, 625.364 126.856, 624.020 128.476 M 32.079 130.583 C 32.127 131.748, 32.364 131.985, 32.683 131.188 C 32.972 130.466, 32.936 129.603, 32.604 129.271 C 32.272 128.939, 32.036 129.529, 32.079 130.583 M 608.079 130.583 C 608.127 131.748, 608.364 131.985, 608.683 131.188 C 608.972 130.466, 608.936 129.603, 608.604 129.271 C 608.272 128.939, 608.036 129.529, 608.079 130.583 M 32.079 134.583 C 32.127 135.748, 32.364 135.985, 32.683 135.188 C 32.972 134.466, 32.936 133.603, 32.604 133.271 C 32.272 132.939, 32.036 133.529, 32.079 134.583 M 608.079 134.583 C 608.127 135.748, 608.364 135.985, 608.683 135.188 C 608.972 134.466, 608.936 133.603, 608.604 133.271 C 608.272 132.939, 608.036 133.529, 608.079 134.583 M 32.079 138.583 C 32.127 139.748, 32.364 139.985, 32.683 139.188 C 32.972 138.466, 32.936 137.603, 32.604 137.271 C 32.272 136.939, 32.036 137.529, 32.079 138.583 M 608.079 138.583 C 608.127 139.748, 608.364 139.985, 608.683 139.188 C 608.972 138.466, 608.936 137.603, 608.604 137.271 C 608.272 136.939, 608.036 137.529, 608.079 138.583 M 32.079 142.583 C 32.127 143.748, 32.364 143.985, 32.683 143.188 C 32.972 142.466, 32.936 141.603, 32.604 141.271 C 32.272 140.939, 32.036 141.529, 32.079 142.583 M 608.079 142.583 C 608.127 143.748, 608.364 143.985, 608.683 143.188 C 608.972 142.466, 608.936 141.603, 608.604 141.271 C 608.272 140.939, 608.036 141.529, 608.079 142.583 M 11.455 144.455 C 10.105 145.805, 9 147.969, 9 149.263 C 9 151.841, 11.209 155.427, 12.919 155.625 C 13.514 155.694, 14.225 155.863, 14.500 156 C 15.828 156.664, 17.620 156.533, 18.750 155.689 C 19.438 155.175, 20 155.090, 20 155.500 C 20 155.910, 20.670 155.689, 21.489 155.009 C 22.308 154.329, 22.751 153.405, 22.473 152.956 C 22.195 152.506, 22.385 151.880, 22.895 151.565 C 23.659 151.092, 23.698 148.176, 22.952 147.250 C 22.841 147.113, 22.694 146.514, 22.625 145.919 C 22.427 144.209, 18.841 142, 16.263 142 C 14.969 142, 12.805 143.105, 11.455 144.455 M 619.455 144.455 C 618.105 145.805, 617 147.969, 617 149.263 C 617 151.841, 619.209 155.427, 620.919 155.625 C 621.514 155.694, 622.225 155.863, 622.500 156 C 623.828 156.664, 625.620 156.533, 626.750 155.689 C 627.438 155.175, 628 155.090, 628 155.500 C 628 155.910, 628.670 155.689, 629.489 155.009 C 630.308 154.329, 630.751 153.405, 630.473 152.956 C 630.195 152.506, 630.385 151.880, 630.895 151.565 C 631.659 151.092, 631.698 148.176, 630.952 147.250 C 630.841 147.113, 630.694 146.514, 630.625 145.919 C 630.427 144.209, 626.841 142, 624.263 142 C 622.969 142, 620.805 143.105, 619.455 144.455 M 13.720 146.906 C 11.383 149.480, 10.581 154.486, 12.500 154.515 C 13.050 154.524, 13.950 154.778, 14.500 155.080 C 15.441 155.597, 17.383 155.558, 18.500 155 C 18.775 154.863, 19.563 154.694, 20.250 154.625 C 20.938 154.556, 21.556 153.938, 21.625 153.250 C 21.694 152.563, 21.863 151.775, 22 151.500 C 22.612 150.277, 22.563 148.418, 21.896 147.500 C 21.497 146.950, 21.137 146.067, 21.096 145.539 C 20.937 143.463, 16.017 144.376, 13.720 146.906 M 621.720 146.906 C 619.383 149.480, 618.581 154.486, 620.500 154.515 C 621.050 154.524, 621.950 154.778, 622.500 155.080 C 623.441 155.597, 625.383 155.558, 626.500 155 C 626.775 154.863, 627.563 154.694, 628.250 154.625 C 628.938 154.556, 629.556 153.938, 629.625 153.250 C 629.694 152.563, 629.862 151.775, 630 151.500 C 630.612 150.277, 630.563 148.418, 629.896 147.500 C 629.497 146.950, 629.137 146.067, 629.096 145.539 C 628.937 143.463, 624.017 144.376, 621.720 146.906 M 14.258 147.267 C 12.657 149.036, 11.641 153.970, 12.907 153.829 C 13.233 153.793, 13.725 153.851, 14 153.958 C 15.920 154.707, 18.082 154.677, 18.565 153.895 C 18.880 153.385, 19.568 153.233, 20.094 153.558 C 20.619 153.883, 20.985 153.778, 20.906 153.324 C 20.828 152.871, 20.851 152.275, 20.958 152 C 21.707 150.080, 21.677 147.918, 20.895 147.435 C 20.385 147.120, 20.171 146.533, 20.419 146.131 C 21.426 144.502, 15.826 145.535, 14.258 147.267 M 32.079 146.583 C 32.127 147.748, 32.364 147.985, 32.683 147.188 C 32.972 146.466, 32.936 145.603, 32.604 145.271 C 32.272 144.939, 32.036 145.529, 32.079 146.583 M 608.079 146.583 C 608.127 147.748, 608.364 147.985, 608.683 147.188 C 608.972 146.466, 608.936 145.603, 608.604 145.271 C 608.272 144.939, 608.036 145.529, 608.079 146.583 M 622.258 147.267 C 620.657 149.036, 619.641 153.970, 620.907 153.829 C 621.233 153.793, 621.725 153.851, 622 153.958 C 623.920 154.707, 626.082 154.677, 626.565 153.895 C 626.880 153.385, 627.568 153.233, 628.094 153.558 C 628.619 153.883, 628.985 153.778, 628.906 153.324 C 628.828 152.871, 628.851 152.275, 628.958 152 C 629.707 150.080, 629.677 147.918, 628.895 147.435 C 628.385 147.120, 628.171 146.533, 628.419 146.131 C 629.426 144.502, 623.826 145.535, 622.258 147.267 M 14.838 147.696 C 12.404 150.628, 13.180 153.091, 16.706 153.627 C 18.099 153.839, 20.318 151.443, 20.617 149.403 C 21.019 146.663, 16.743 145.400, 14.838 147.696 M 622.838 147.696 C 620.404 150.628, 621.180 153.091, 624.706 153.627 C 626.099 153.839, 628.318 151.443, 628.617 149.403 C 629.019 146.663, 624.743 145.400, 622.838 147.696 M 15.232 148.345 C 13.868 150.188, 14.353 152.288, 16.206 152.560 C 18.106 152.839, 19.655 151.239, 19.561 149.095 C 19.484 147.334, 16.379 146.796, 15.232 148.345 M 623.232 148.345 C 621.868 150.188, 622.353 152.288, 624.206 152.560 C 626.106 152.839, 627.655 151.239, 627.561 149.095 C 627.484 147.334, 624.379 146.796, 623.232 148.345 M 15.923 148.417 C 15.881 148.463, 15.703 149.241, 15.527 150.146 C 15.328 151.174, 15.795 151.706, 16.771 151.563 C 18.721 151.277, 19.283 148.333, 17.387 148.333 C 16.624 148.333, 15.966 148.371, 15.923 148.417 M 623.923 148.417 C 623.881 148.463, 623.703 149.241, 623.527 150.146 C 623.328 151.174, 623.795 151.706, 624.771 151.563 C 626.721 151.277, 627.283 148.333, 625.387 148.333 C 624.624 148.333, 623.966 148.371, 623.923 148.417 M 32.079 150.583 C 32.127 151.748, 32.364 151.985, 32.683 151.188 C 32.972 150.466, 32.936 149.603, 32.604 149.271 C 32.272 148.939, 32.036 149.529, 32.079 150.583 M 608.079 150.583 C 608.127 151.748, 608.364 151.985, 608.683 151.188 C 608.972 150.466, 608.936 149.603, 608.604 149.271 C 608.272 148.939, 608.036 149.529, 608.079 150.583 M 32.079 154.583 C 32.127 155.748, 32.364 155.985, 32.683 155.188 C 32.972 154.466, 32.936 153.603, 32.604 153.271 C 32.272 152.939, 32.036 153.529, 32.079 154.583 M 608.079 154.583 C 608.127 155.748, 608.364 155.985, 608.683 155.188 C 608.972 154.466, 608.936 153.603, 608.604 153.271 C 608.272 152.939, 608.036 153.529, 608.079 154.583 M 32.079 158.583 C 32.127 159.748, 32.364 159.985, 32.683 159.188 C 32.972 158.466, 32.936 157.603, 32.604 157.271 C 32.272 156.939, 32.036 157.529, 32.079 158.583 M 608.079 158.583 C 608.127 159.748, 608.364 159.985, 608.683 159.188 C 608.972 158.466, 608.936 157.603, 608.604 157.271 C 608.272 156.939, 608.036 157.529, 608.079 158.583 M 11.455 165.455 C 8.303 168.606, 8.313 172.459, 11.481 175.394 C 14.527 178.217, 18.294 178.151, 21.222 175.222 C 24.151 172.294, 24.217 168.527, 21.394 165.481 C 18.459 162.313, 14.606 162.303, 11.455 165.455 M 619.455 165.455 C 616.303 168.606, 616.313 172.459, 619.481 175.394 C 622.527 178.217, 626.294 178.151, 629.222 175.222 C 632.151 172.294, 632.217 168.527, 629.394 165.481 C 626.459 162.313, 622.606 162.303, 619.455 165.455 M 16.435 166.105 C 16.120 166.615, 15.474 166.793, 15 166.500 C 14.193 166.001, 12.705 167.569, 12.390 169.250 C 12.313 169.662, 12.159 170.113, 12.048 170.250 C 11.107 171.418, 11.474 174.149, 12.710 175.174 C 16.541 178.354, 22.286 175.586, 22.561 170.428 C 22.748 166.941, 17.992 163.586, 16.435 166.105 M 624.435 166.105 C 624.120 166.615, 623.474 166.793, 623 166.500 C 622.193 166.001, 620.705 167.569, 620.390 169.250 C 620.313 169.662, 620.159 170.113, 620.048 170.250 C 619.107 171.418, 619.474 174.149, 620.710 175.174 C 624.541 178.354, 630.286 175.586, 630.561 170.428 C 630.748 166.941, 625.992 163.586, 624.435 166.105 M 16.485 166.848 C 16.127 167.207, 15.308 167.500, 14.667 167.500 C 14.025 167.500, 13.444 168.063, 13.375 168.750 C 13.306 169.438, 13.159 170.113, 13.048 170.250 C 12.209 171.291, 12.394 174.126, 13.339 174.716 C 17.133 177.084, 21.325 174.859, 21.566 170.349 C 21.727 167.334, 18.336 164.998, 16.485 166.848 M 624.485 166.848 C 624.127 167.207, 623.308 167.500, 622.667 167.500 C 622.025 167.500, 621.444 168.063, 621.375 168.750 C 621.306 169.438, 621.159 170.113, 621.048 170.250 C 620.209 171.291, 620.394 174.126, 621.339 174.716 C 625.133 177.084, 629.325 174.859, 629.566 170.349 C 629.727 167.334, 626.336 164.998, 624.485 166.848 M 16.435 168.105 C 16.120 168.615, 15.373 168.731, 14.776 168.362 C 14.153 167.977, 13.977 168.153, 14.362 168.776 C 14.731 169.373, 14.615 170.120, 14.105 170.435 C 12.255 171.578, 13.664 174.499, 16.095 174.561 C 19.451 174.647, 20.715 173.450, 20.549 170.344 C 20.407 167.685, 17.629 166.174, 16.435 168.105 M 624.435 168.105 C 624.120 168.615, 623.373 168.731, 622.776 168.362 C 622.153 167.977, 621.977 168.153, 622.362 168.776 C 622.731 169.373, 622.615 170.120, 622.105 170.435 C 620.255 171.578, 621.664 174.499, 624.095 174.561 C 627.451 174.647, 628.715 173.450, 628.549 170.344 C 628.407 167.685, 625.629 166.174, 624.435 168.105 M 15.778 169.768 C 13.696 172.276, 14.083 173.687, 16.813 173.541 C 18.842 173.432, 19.432 172.854, 19.538 170.868 C 19.689 168.049, 17.689 167.464, 15.778 169.768 M 623.778 169.768 C 621.696 172.276, 622.083 173.687, 624.813 173.541 C 626.842 173.432, 627.432 172.854, 627.538 170.868 C 627.689 168.049, 625.689 167.464, 623.778 169.768 M 16.020 170.476 C 15.324 171.314, 14.923 172.034, 15.128 172.077 C 18.207 172.709, 18.765 172.604, 18.592 171.425 C 18.264 169.188, 17.364 168.856, 16.020 170.476 M 624.020 170.476 C 623.324 171.314, 622.923 172.034, 623.128 172.077 C 626.207 172.709, 626.765 172.604, 626.592 171.425 C 626.264 169.188, 625.364 168.856, 624.020 170.476 M 10.923 187.923 C 7.074 191.773, 7.095 195.386, 10.987 198.802 C 15.030 202.349, 18.287 202.353, 21.676 198.816 C 25.286 195.049, 25.352 191.831, 21.899 188.051 C 18.302 184.112, 14.775 184.071, 10.923 187.923 M 618.923 187.923 C 615.074 191.773, 615.095 195.386, 618.987 198.802 C 623.030 202.349, 626.287 202.353, 629.676 198.816 C 633.286 195.049, 633.352 191.831, 629.899 188.051 C 626.302 184.112, 622.775 184.071, 618.923 187.923 M 16.435 188.105 C 16.120 188.615, 15.503 188.811, 15.065 188.540 C 14.279 188.054, 10.264 191.837, 10.750 192.605 C 10.887 192.822, 10.966 193.113, 10.923 193.250 C 9.784 196.974, 12.367 200.337, 16.539 200.560 C 19.501 200.718, 23.381 196.801, 23.559 193.472 C 23.756 189.779, 18.055 185.484, 16.435 188.105 M 624.435 188.105 C 624.120 188.615, 623.503 188.811, 623.065 188.540 C 622.279 188.054, 618.264 191.837, 618.750 192.605 C 618.888 192.822, 618.966 193.113, 618.923 193.250 C 617.784 196.974, 620.367 200.337, 624.539 200.560 C 627.501 200.718, 631.381 196.801, 631.559 193.472 C 631.756 189.779, 626.055 185.484, 624.435 188.105 M 16.435 189.105 C 16.120 189.615, 15.474 189.793, 15 189.500 C 14.193 189.001, 12.705 190.569, 12.390 192.250 C 12.313 192.662, 12.159 193.113, 12.048 193.250 C 11.107 194.418, 11.474 197.149, 12.710 198.174 C 16.541 201.354, 22.286 198.586, 22.561 193.428 C 22.748 189.941, 17.992 186.586, 16.435 189.105 M 624.435 189.105 C 624.120 189.615, 623.474 189.793, 623 189.500 C 622.193 189.001, 620.705 190.569, 620.390 192.250 C 620.313 192.662, 620.159 193.113, 620.048 193.250 C 619.107 194.418, 619.474 197.149, 620.710 198.174 C 624.541 201.354, 630.286 198.586, 630.561 193.428 C 630.748 189.941, 625.992 186.586, 624.435 189.105 M 16.485 189.848 C 16.127 190.207, 15.308 190.500, 14.667 190.500 C 14.025 190.500, 13.444 191.063, 13.375 191.750 C 13.306 192.438, 13.159 193.113, 13.048 193.250 C 12.209 194.291, 12.394 197.126, 13.339 197.716 C 17.133 200.084, 21.325 197.859, 21.566 193.349 C 21.727 190.334, 18.336 187.998, 16.485 189.848 M 624.485 189.848 C 624.127 190.207, 623.308 190.500, 622.667 190.500 C 622.025 190.500, 621.444 191.063, 621.375 191.750 C 621.306 192.438, 621.159 193.113, 621.048 193.250 C 620.209 194.291, 620.394 197.126, 621.339 197.716 C 625.133 200.084, 629.325 197.859, 629.566 193.349 C 629.727 190.334, 626.336 187.998, 624.485 189.848 M 16.435 191.105 C 16.120 191.615, 15.373 191.731, 14.776 191.362 C 14.153 190.977, 13.977 191.153, 14.362 191.776 C 14.731 192.373, 14.615 193.120, 14.105 193.435 C 12.255 194.578, 13.664 197.499, 16.095 197.561 C 19.451 197.647, 20.715 196.450, 20.549 193.344 C 20.407 190.685, 17.629 189.174, 16.435 191.105 M 624.435 191.105 C 624.120 191.615, 623.373 191.731, 622.776 191.362 C 622.153 190.977, 621.977 191.153, 622.362 191.776 C 622.731 192.373, 622.615 193.120, 622.105 193.435 C 620.255 194.578, 621.664 197.499, 624.095 197.561 C 627.451 197.647, 628.715 196.450, 628.549 193.344 C 628.407 190.685, 625.629 189.174, 624.435 191.105 M 15.778 192.768 C 13.696 195.276, 14.083 196.687, 16.813 196.541 C 18.842 196.432, 19.432 195.854, 19.538 193.868 C 19.689 191.049, 17.689 190.464, 15.778 192.768 M 623.778 192.768 C 621.696 195.276, 622.083 196.687, 624.813 196.541 C 626.842 196.432, 627.432 195.854, 627.538 193.868 C 627.689 191.049, 625.689 190.464, 623.778 192.768 M 16.020 193.476 C 15.324 194.314, 14.923 195.034, 15.128 195.077 C 18.207 195.709, 18.765 195.604, 18.592 194.425 C 18.264 192.188, 17.364 191.856, 16.020 193.476 M 624.020 193.476 C 623.324 194.314, 622.923 195.034, 623.128 195.077 C 626.207 195.709, 626.765 195.604, 626.592 194.425 C 626.264 192.188, 625.364 191.856, 624.020 193.476 M 32.079 194.583 C 32.127 195.748, 32.364 195.985, 32.683 195.188 C 32.972 194.466, 32.936 193.603, 32.604 193.271 C 32.272 192.939, 32.036 193.529, 32.079 194.583 M 608.079 194.583 C 608.127 195.748, 608.364 195.985, 608.683 195.188 C 608.972 194.466, 608.936 193.603, 608.604 193.271 C 608.272 192.939, 608.036 193.529, 608.079 194.583 M 32.079 198.583 C 32.127 199.748, 32.364 199.985, 32.683 199.188 C 32.972 198.466, 32.936 197.603, 32.604 197.271 C 32.272 196.939, 32.036 197.529, 32.079 198.583 M 608.079 198.583 C 608.127 199.748, 608.364 199.985, 608.683 199.188 C 608.972 198.466, 608.936 197.603, 608.604 197.271 C 608.272 196.939, 608.036 197.529, 608.079 198.583 M 32.079 202.583 C 32.127 203.748, 32.364 203.985, 32.683 203.188 C 32.972 202.466, 32.936 201.603, 32.604 201.271 C 32.272 200.939, 32.036 201.529, 32.079 202.583 M 608.079 202.583 C 608.127 203.748, 608.364 203.985, 608.683 203.188 C 608.972 202.466, 608.936 201.603, 608.604 201.271 C 608.272 200.939, 608.036 201.529, 608.079 202.583 M 32.079 206.583 C 32.127 207.748, 32.364 207.985, 32.683 207.188 C 32.972 206.466, 32.936 205.603, 32.604 205.271 C 32.272 204.939, 32.036 205.529, 32.079 206.583 M 608.079 206.583 C 608.127 207.748, 608.364 207.985, 608.683 207.188 C 608.972 206.466, 608.936 205.603, 608.604 205.271 C 608.272 204.939, 608.036 205.529, 608.079 206.583 M 11.455 211.455 C 8.303 214.606, 8.313 218.459, 11.481 221.394 C 14.527 224.217, 18.294 224.151, 21.222 221.222 C 24.151 218.294, 24.217 214.527, 21.394 211.481 C 18.459 208.313, 14.606 208.303, 11.455 211.455 M 32.079 210.583 C 32.127 211.748, 32.364 211.985, 32.683 211.188 C 32.972 210.466, 32.936 209.603, 32.604 209.271 C 32.272 208.939, 32.036 209.529, 32.079 210.583 M 608.079 210.583 C 608.127 211.748, 608.364 211.985, 608.683 211.188 C 608.972 210.466, 608.936 209.603, 608.604 209.271 C 608.272 208.939, 608.036 209.529, 608.079 210.583 M 619.455 211.455 C 616.303 214.606, 616.313 218.459, 619.481 221.394 C 622.527 224.217, 626.294 224.151, 629.222 221.222 C 632.151 218.294, 632.217 214.527, 629.394 211.481 C 626.459 208.313, 622.606 208.303, 619.455 211.455 M 16.435 212.105 C 16.120 212.615, 15.474 212.793, 15 212.500 C 14.193 212.001, 12.705 213.569, 12.390 215.250 C 12.313 215.662, 12.159 216.113, 12.048 216.250 C 11.107 217.418, 11.474 220.149, 12.710 221.174 C 16.541 224.354, 22.286 221.586, 22.561 216.428 C 22.748 212.941, 17.992 209.586, 16.435 212.105 M 624.435 212.105 C 624.120 212.615, 623.474 212.793, 623 212.500 C 622.193 212.001, 620.705 213.569, 620.390 215.250 C 620.313 215.662, 620.159 216.113, 620.048 216.250 C 619.107 217.418, 619.474 220.149, 620.710 221.174 C 624.541 224.354, 630.286 221.586, 630.561 216.428 C 630.748 212.941, 625.992 209.586, 624.435 212.105 M 16.485 212.848 C 16.127 213.207, 15.308 213.500, 14.667 213.500 C 14.025 213.500, 13.444 214.063, 13.375 214.750 C 13.306 215.438, 13.159 216.113, 13.048 216.250 C 12.209 217.291, 12.394 220.126, 13.339 220.716 C 17.133 223.084, 21.325 220.859, 21.566 216.349 C 21.727 213.334, 18.336 210.998, 16.485 212.848 M 624.485 212.848 C 624.127 213.207, 623.308 213.500, 622.667 213.500 C 622.025 213.500, 621.444 214.063, 621.375 214.750 C 621.306 215.438, 621.159 216.113, 621.048 216.250 C 620.209 217.291, 620.394 220.126, 621.339 220.716 C 625.133 223.084, 629.325 220.859, 629.566 216.349 C 629.727 213.334, 626.336 210.998, 624.485 212.848 M 16.435 214.105 C 16.120 214.615, 15.373 214.731, 14.776 214.362 C 14.153 213.977, 13.977 214.153, 14.362 214.776 C 14.731 215.373, 14.615 216.120, 14.105 216.435 C 12.255 217.578, 13.664 220.499, 16.095 220.561 C 19.451 220.647, 20.715 219.450, 20.549 216.344 C 20.407 213.685, 17.629 212.174, 16.435 214.105 M 32.079 214.583 C 32.127 215.748, 32.364 215.985, 32.683 215.188 C 32.972 214.466, 32.936 213.603, 32.604 213.271 C 32.272 212.939, 32.036 213.529, 32.079 214.583 M 608.079 214.583 C 608.127 215.748, 608.364 215.985, 608.683 215.188 C 608.972 214.466, 608.936 213.603, 608.604 213.271 C 608.272 212.939, 608.036 213.529, 608.079 214.583 M 624.435 214.105 C 624.120 214.615, 623.373 214.731, 622.776 214.362 C 622.153 213.977, 621.977 214.153, 622.362 214.776 C 622.731 215.373, 622.615 216.120, 622.105 216.435 C 620.255 217.578, 621.664 220.499, 624.095 220.561 C 627.451 220.647, 628.715 219.450, 628.549 216.344 C 628.407 213.685, 625.629 212.174, 624.435 214.105 M 15.778 215.768 C 13.696 218.276, 14.083 219.687, 16.813 219.541 C 18.842 219.432, 19.432 218.854, 19.538 216.868 C 19.689 214.049, 17.689 213.464, 15.778 215.768 M 623.778 215.768 C 621.696 218.276, 622.083 219.687, 624.813 219.541 C 626.842 219.432, 627.432 218.854, 627.538 216.868 C 627.689 214.049, 625.689 213.464, 623.778 215.768 M 16.020 216.476 C 15.324 217.314, 14.923 218.034, 15.128 218.077 C 18.207 218.709, 18.765 218.604, 18.592 217.425 C 18.264 215.188, 17.364 214.856, 16.020 216.476 M 624.020 216.476 C 623.324 217.314, 622.923 218.034, 623.128 218.077 C 626.207 218.709, 626.765 218.604, 626.592 217.425 C 626.264 215.188, 625.364 214.856, 624.020 216.476 M 32.079 218.583 C 32.127 219.748, 32.364 219.985, 32.683 219.188 C 32.972 218.466, 32.936 217.603, 32.604 217.271 C 32.272 216.939, 32.036 217.529, 32.079 218.583 M 608.079 218.583 C 608.127 219.748, 608.364 219.985, 608.683 219.188 C 608.972 218.466, 608.936 217.603, 608.604 217.271 C 608.272 216.939, 608.036 217.529, 608.079 218.583 M 32.079 222.583 C 32.127 223.748, 32.364 223.985, 32.683 223.188 C 32.972 222.466, 32.936 221.603, 32.604 221.271 C 32.272 220.939, 32.036 221.529, 32.079 222.583 M 608.079 222.583 C 608.127 223.748, 608.364 223.985, 608.683 223.188 C 608.972 222.466, 608.936 221.603, 608.604 221.271 C 608.272 220.939, 608.036 221.529, 608.079 222.583 M 11.455 232.455 C 10.105 233.805, 9 235.969, 9 237.263 C 9 239.841, 11.209 243.427, 12.919 243.625 C 13.514 243.694, 14.225 243.863, 14.500 244 C 15.828 244.664, 17.620 244.533, 18.750 243.689 C 19.438 243.175, 20 243.090, 20 243.500 C 20 243.910, 20.670 243.689, 21.489 243.009 C 22.308 242.329, 22.751 241.405, 22.473 240.956 C 22.195 240.506, 22.385 239.880, 22.895 239.565 C 23.659 239.092, 23.698 236.176, 22.952 235.250 C 22.841 235.113, 22.694 234.514, 22.625 233.919 C 22.427 232.209, 18.841 230, 16.263 230 C 14.969 230, 12.805 231.105, 11.455 232.455 M 619.455 232.455 C 618.105 233.805, 617 235.969, 617 237.263 C 617 239.841, 619.209 243.427, 620.919 243.625 C 621.514 243.694, 622.225 243.863, 622.500 244 C 623.828 244.664, 625.620 244.533, 626.750 243.689 C 627.438 243.175, 628 243.090, 628 243.500 C 628 243.910, 628.670 243.689, 629.489 243.009 C 630.308 242.329, 630.751 241.405, 630.473 240.956 C 630.195 240.506, 630.385 239.880, 630.895 239.565 C 631.659 239.092, 631.698 236.176, 630.952 235.250 C 630.841 235.113, 630.694 234.514, 630.625 233.919 C 630.427 232.209, 626.841 230, 624.263 230 C 622.969 230, 620.805 231.105, 619.455 232.455 M 13.720 234.906 C 11.383 237.480, 10.581 242.486, 12.500 242.515 C 13.050 242.524, 13.950 242.778, 14.500 243.080 C 15.441 243.597, 17.383 243.558, 18.500 243 C 18.775 242.863, 19.563 242.694, 20.250 242.625 C 20.938 242.556, 21.556 241.938, 21.625 241.250 C 21.694 240.563, 21.863 239.775, 22 239.500 C 22.612 238.277, 22.563 236.418, 21.896 235.500 C 21.497 234.950, 21.137 234.067, 21.096 233.539 C 20.937 231.463, 16.017 232.376, 13.720 234.906 M 621.720 234.906 C 619.383 237.480, 618.581 242.486, 620.500 242.515 C 621.050 242.524, 621.950 242.778, 622.500 243.080 C 623.441 243.597, 625.383 243.558, 626.500 243 C 626.775 242.863, 627.563 242.694, 628.250 242.625 C 628.938 242.556, 629.556 241.938, 629.625 241.250 C 629.694 240.563, 629.862 239.775, 630 239.500 C 630.612 238.277, 630.563 236.418, 629.896 235.500 C 629.497 234.950, 629.137 234.067, 629.096 233.539 C 628.937 231.463, 624.017 232.376, 621.720 234.906 M 14.258 235.267 C 12.657 237.036, 11.641 241.970, 12.907 241.829 C 13.233 241.793, 13.725 241.851, 14 241.958 C 15.920 242.707, 18.082 242.677, 18.565 241.895 C 18.880 241.385, 19.568 241.233, 20.094 241.558 C 20.619 241.883, 20.985 241.778, 20.906 241.324 C 20.828 240.871, 20.851 240.275, 20.958 240 C 21.707 238.080, 21.677 235.918, 20.895 235.435 C 20.385 235.120, 20.171 234.533, 20.419 234.131 C 21.426 232.502, 15.826 233.535, 14.258 235.267 M 622.258 235.267 C 620.657 237.036, 619.641 241.970, 620.907 241.829 C 621.233 241.793, 621.725 241.851, 622 241.958 C 623.920 242.707, 626.082 242.677, 626.565 241.895 C 626.880 241.385, 627.568 241.233, 628.094 241.558 C 628.619 241.883, 628.985 241.778, 628.906 241.324 C 628.828 240.871, 628.851 240.275, 628.958 240 C 629.707 238.080, 629.677 235.918, 628.895 235.435 C 628.385 235.120, 628.171 234.533, 628.419 234.131 C 629.426 232.502, 623.826 233.535, 622.258 235.267 M 14.838 235.696 C 12.404 238.628, 13.180 241.091, 16.706 241.627 C 18.099 241.839, 20.318 239.443, 20.617 237.403 C 21.019 234.663, 16.743 233.400, 14.838 235.696 M 622.838 235.696 C 620.404 238.628, 621.180 241.091, 624.706 241.627 C 626.099 241.839, 628.318 239.443, 628.617 237.403 C 629.019 234.663, 624.743 233.400, 622.838 235.696 M 15.232 236.345 C 13.868 238.188, 14.353 240.288, 16.206 240.560 C 18.106 240.839, 19.655 239.239, 19.561 237.095 C 19.484 235.334, 16.379 234.796, 15.232 236.345 M 623.232 236.345 C 621.868 238.188, 622.353 240.288, 624.206 240.560 C 626.106 240.839, 627.655 239.239, 627.561 237.095 C 627.484 235.334, 624.379 234.796, 623.232 236.345 M 15.923 236.417 C 15.881 236.463, 15.703 237.241, 15.527 238.146 C 15.328 239.174, 15.795 239.706, 16.771 239.563 C 18.721 239.277, 19.283 236.333, 17.387 236.333 C 16.624 236.333, 15.966 236.371, 15.923 236.417 M 623.923 236.417 C 623.881 236.463, 623.703 237.241, 623.527 238.146 C 623.328 239.174, 623.795 239.706, 624.771 239.563 C 626.721 239.277, 627.283 236.333, 625.387 236.333 C 624.624 236.333, 623.966 236.371, 623.923 236.417 M 11.455 253.455 C 8.303 256.606, 8.313 260.459, 11.481 263.394 C 14.527 266.217, 18.294 266.151, 21.222 263.222 C 24.151 260.294, 24.217 256.527, 21.394 253.481 C 18.459 250.313, 14.606 250.303, 11.455 253.455 M 619.455 253.455 C 616.303 256.606, 616.313 260.459, 619.481 263.394 C 622.527 266.217, 626.294 266.151, 629.222 263.222 C 632.151 260.294, 632.217 256.527, 629.394 253.481 C 626.459 250.313, 622.606 250.303, 619.455 253.455 M 16.435 254.105 C 16.120 254.615, 15.474 254.793, 15 254.500 C 14.193 254.001, 12.705 255.569, 12.390 257.250 C 12.313 257.663, 12.159 258.113, 12.048 258.250 C 11.107 259.418, 11.474 262.149, 12.710 263.174 C 16.541 266.354, 22.286 263.586, 22.561 258.428 C 22.748 254.941, 17.992 251.586, 16.435 254.105 M 624.435 254.105 C 624.120 254.615, 623.474 254.793, 623 254.500 C 622.193 254.001, 620.705 255.569, 620.390 257.250 C 620.313 257.663, 620.159 258.113, 620.048 258.250 C 619.107 259.418, 619.474 262.149, 620.710 263.174 C 624.541 266.354, 630.286 263.586, 630.561 258.428 C 630.748 254.941, 625.992 251.586, 624.435 254.105 M 16.485 254.848 C 16.127 255.207, 15.308 255.500, 14.667 255.500 C 14.025 255.500, 13.444 256.063, 13.375 256.750 C 13.306 257.438, 13.159 258.113, 13.048 258.250 C 12.209 259.291, 12.394 262.126, 13.339 262.716 C 17.133 265.084, 21.325 262.859, 21.566 258.349 C 21.727 255.334, 18.336 252.998, 16.485 254.848 M 624.485 254.848 C 624.127 255.207, 623.308 255.500, 622.667 255.500 C 622.025 255.500, 621.444 256.063, 621.375 256.750 C 621.306 257.438, 621.159 258.113, 621.048 258.250 C 620.209 259.291, 620.394 262.126, 621.339 262.716 C 625.133 265.084, 629.325 262.859, 629.566 258.349 C 629.727 255.334, 626.336 252.998, 624.485 254.848 M 16.435 256.105 C 16.120 256.615, 15.373 256.731, 14.776 256.362 C 14.153 255.977, 13.977 256.153, 14.362 256.776 C 14.731 257.373, 14.615 258.120, 14.105 258.435 C 12.255 259.578, 13.664 262.499, 16.095 262.561 C 19.451 262.647, 20.715 261.450, 20.549 258.344 C 20.407 255.685, 17.629 254.174, 16.435 256.105 M 624.435 256.105 C 624.120 256.615, 623.373 256.731, 622.776 256.362 C 622.153 255.977, 621.977 256.153, 622.362 256.776 C 622.731 257.373, 622.615 258.120, 622.105 258.435 C 620.255 259.578, 621.664 262.499, 624.095 262.561 C 627.451 262.647, 628.715 261.450, 628.549 258.344 C 628.407 255.685, 625.629 254.174, 624.435 256.105 M 15.778 257.768 C 13.696 260.276, 14.083 261.687, 16.813 261.541 C 18.842 261.432, 19.432 260.854, 19.538 258.868 C 19.689 256.049, 17.689 255.464, 15.778 257.768 M 623.778 257.768 C 621.696 260.276, 622.083 261.687, 624.813 261.541 C 626.842 261.432, 627.432 260.854, 627.538 258.868 C 627.689 256.049, 625.689 255.464, 623.778 257.768 M 16.020 258.476 C 15.324 259.314, 14.923 260.034, 15.128 260.077 C 18.207 260.709, 18.765 260.604, 18.592 259.425 C 18.264 257.188, 17.364 256.856, 16.020 258.476 M 32.079 258.583 C 32.127 259.748, 32.364 259.985, 32.683 259.188 C 32.972 258.466, 32.936 257.603, 32.604 257.271 C 32.272 256.939, 32.036 257.529, 32.079 258.583 M 608.079 258.583 C 608.127 259.748, 608.364 259.985, 608.683 259.188 C 608.972 258.466, 608.936 257.603, 608.604 257.271 C 608.272 256.939, 608.036 257.529, 608.079 258.583 M 624.020 258.476 C 623.324 259.314, 622.923 260.034, 623.128 260.077 C 626.207 260.709, 626.765 260.604, 626.592 259.425 C 626.264 257.188, 625.364 256.856, 624.020 258.476 M 32.079 262.583 C 32.127 263.748, 32.364 263.985, 32.683 263.188 C 32.972 262.466, 32.936 261.603, 32.604 261.271 C 32.272 260.939, 32.036 261.529, 32.079 262.583 M 608.079 262.583 C 608.127 263.748, 608.364 263.985, 608.683 263.188 C 608.972 262.466, 608.936 261.603, 608.604 261.271 C 608.272 260.939, 608.036 261.529, 608.079 262.583 M 32.079 266.583 C 32.127 267.748, 32.364 267.985, 32.683 267.188 C 32.972 266.466, 32.936 265.603, 32.604 265.271 C 32.272 264.939, 32.036 265.529, 32.079 266.583 M 608.079 266.583 C 608.127 267.748, 608.364 267.985, 608.683 267.188 C 608.972 266.466, 608.936 265.603, 608.604 265.271 C 608.272 264.939, 608.036 265.529, 608.079 266.583 M 32.079 270.583 C 32.127 271.748, 32.364 271.985, 32.683 271.188 C 32.972 270.466, 32.936 269.603, 32.604 269.271 C 32.272 268.939, 32.036 269.529, 32.079 270.583 M 608.079 270.583 C 608.127 271.748, 608.364 271.985, 608.683 271.188 C 608.972 270.466, 608.936 269.603, 608.604 269.271 C 608.272 268.939, 608.036 269.529, 608.079 270.583 M 10.923 275.923 C 7.074 279.773, 7.095 283.386, 10.987 286.802 C 15.030 290.349, 18.287 290.353, 21.676 286.816 C 25.286 283.049, 25.352 279.831, 21.899 276.051 C 18.302 272.112, 14.775 272.071, 10.923 275.923 M 32.079 274.583 C 32.127 275.748, 32.364 275.985, 32.683 275.188 C 32.972 274.466, 32.936 273.603, 32.604 273.271 C 32.272 272.939, 32.036 273.529, 32.079 274.583 M 608.079 274.583 C 608.127 275.748, 608.364 275.985, 608.683 275.188 C 608.972 274.466, 608.936 273.603, 608.604 273.271 C 608.272 272.939, 608.036 273.529, 608.079 274.583 M 618.923 275.923 C 615.074 279.773, 615.095 283.386, 618.987 286.802 C 623.030 290.349, 626.287 290.353, 629.676 286.816 C 633.286 283.049, 633.352 279.831, 629.899 276.051 C 626.302 272.112, 622.775 272.071, 618.923 275.923 M 16.435 276.105 C 16.120 276.615, 15.503 276.811, 15.065 276.540 C 14.279 276.054, 10.264 279.837, 10.750 280.605 C 10.887 280.822, 10.966 281.113, 10.923 281.250 C 9.784 284.974, 12.367 288.337, 16.539 288.560 C 19.501 288.718, 23.381 284.801, 23.559 281.472 C 23.756 277.779, 18.055 273.484, 16.435 276.105 M 624.435 276.105 C 624.120 276.615, 623.503 276.811, 623.065 276.540 C 622.279 276.054, 618.264 279.837, 618.750 280.605 C 618.888 280.822, 618.966 281.113, 618.923 281.250 C 617.784 284.974, 620.367 288.337, 624.539 288.560 C 627.501 288.718, 631.381 284.801, 631.559 281.472 C 631.756 277.779, 626.055 273.484, 624.435 276.105 M 16.435 277.105 C 16.120 277.615, 15.474 277.793, 15 277.500 C 14.193 277.001, 12.705 278.569, 12.390 280.250 C 12.313 280.663, 12.159 281.113, 12.048 281.250 C 11.107 282.418, 11.474 285.149, 12.710 286.174 C 16.541 289.354, 22.286 286.586, 22.561 281.428 C 22.748 277.941, 17.992 274.586, 16.435 277.105 M 624.435 277.105 C 624.120 277.615, 623.474 277.793, 623 277.500 C 622.193 277.001, 620.705 278.569, 620.390 280.250 C 620.313 280.663, 620.159 281.113, 620.048 281.250 C 619.107 282.418, 619.474 285.149, 620.710 286.174 C 624.541 289.354, 630.286 286.586, 630.561 281.428 C 630.748 277.941, 625.992 274.586, 624.435 277.105 M 16.485 277.848 C 16.127 278.207, 15.308 278.500, 14.667 278.500 C 14.025 278.500, 13.444 279.063, 13.375 279.750 C 13.306 280.438, 13.159 281.113, 13.048 281.250 C 12.209 282.291, 12.394 285.126, 13.339 285.716 C 17.133 288.084, 21.325 285.859, 21.566 281.349 C 21.727 278.334, 18.336 275.998, 16.485 277.848 M 32.079 278.583 C 32.127 279.748, 32.364 279.985, 32.683 279.188 C 32.972 278.466, 32.936 277.603, 32.604 277.271 C 32.272 276.939, 32.036 277.529, 32.079 278.583 M 608.079 278.583 C 608.127 279.748, 608.364 279.985, 608.683 279.188 C 608.972 278.466, 608.936 277.603, 608.604 277.271 C 608.272 276.939, 608.036 277.529, 608.079 278.583 M 624.485 277.848 C 624.127 278.207, 623.308 278.500, 622.667 278.500 C 622.025 278.500, 621.444 279.063, 621.375 279.750 C 621.306 280.438, 621.159 281.113, 621.048 281.250 C 620.209 282.291, 620.394 285.126, 621.339 285.716 C 625.133 288.084, 629.325 285.859, 629.566 281.349 C 629.727 278.334, 626.336 275.998, 624.485 277.848 M 16.435 279.105 C 16.120 279.615, 15.373 279.731, 14.776 279.362 C 14.153 278.977, 13.977 279.153, 14.362 279.776 C 14.731 280.373, 14.615 281.120, 14.105 281.435 C 12.255 282.578, 13.664 285.499, 16.095 285.561 C 19.451 285.647, 20.715 284.450, 20.549 281.344 C 20.407 278.685, 17.629 277.174, 16.435 279.105 M 624.435 279.105 C 624.120 279.615, 623.373 279.731, 622.776 279.362 C 622.153 278.977, 621.977 279.153, 622.362 279.776 C 622.731 280.373, 622.615 281.120, 622.105 281.435 C 620.255 282.578, 621.664 285.499, 624.095 285.561 C 627.451 285.647, 628.715 284.450, 628.549 281.344 C 628.407 278.685, 625.629 277.174, 624.435 279.105 M 15.778 280.768 C 13.696 283.276, 14.083 284.687, 16.813 284.541 C 18.842 284.432, 19.432 283.854, 19.538 281.868 C 19.689 279.049, 17.689 278.464, 15.778 280.768 M 623.778 280.768 C 621.696 283.276, 622.083 284.687, 624.813 284.541 C 626.842 284.432, 627.432 283.854, 627.538 281.868 C 627.689 279.049, 625.689 278.464, 623.778 280.768 M 16.020 281.476 C 15.324 282.314, 14.923 283.034, 15.128 283.077 C 18.207 283.709, 18.765 283.604, 18.592 282.425 C 18.264 280.188, 17.364 279.856, 16.020 281.476 M 624.020 281.476 C 623.324 282.314, 622.923 283.034, 623.128 283.077 C 626.207 283.709, 626.765 283.604, 626.592 282.425 C 626.264 280.188, 625.364 279.856, 624.020 281.476 M 32.079 282.583 C 32.127 283.748, 32.364 283.985, 32.683 283.188 C 32.972 282.466, 32.936 281.603, 32.604 281.271 C 32.272 280.939, 32.036 281.529, 32.079 282.583 M 608.079 282.583 C 608.127 283.748, 608.364 283.985, 608.683 283.188 C 608.972 282.466, 608.936 281.603, 608.604 281.271 C 608.272 280.939, 608.036 281.529, 608.079 282.583 M 32.079 286.583 C 32.127 287.748, 32.364 287.985, 32.683 287.188 C 32.972 286.466, 32.936 285.603, 32.604 285.271 C 32.272 284.939, 32.036 285.529, 32.079 286.583 M 608.079 286.583 C 608.127 287.748, 608.364 287.985, 608.683 287.188 C 608.972 286.466, 608.936 285.603, 608.604 285.271 C 608.272 284.939, 608.036 285.529, 608.079 286.583 M 11.455 299.455 C 8.303 302.606, 8.313 306.459, 11.481 309.394 C 14.527 312.217, 18.294 312.151, 21.222 309.222 C 24.151 306.294, 24.217 302.527, 21.394 299.481 C 18.459 296.313, 14.606 296.303, 11.455 299.455 M 619.455 299.455 C 616.303 302.606, 616.313 306.459, 619.481 309.394 C 622.527 312.217, 626.294 312.151, 629.222 309.222 C 632.151 306.294, 632.217 302.527, 629.394 299.481 C 626.459 296.313, 622.606 296.303, 619.455 299.455 M 16.435 300.105 C 16.120 300.615, 15.474 300.793, 15 300.500 C 14.193 300.001, 12.705 301.569, 12.390 303.250 C 12.313 303.663, 12.159 304.113, 12.048 304.250 C 11.107 305.418, 11.474 308.149, 12.710 309.174 C 16.541 312.354, 22.286 309.586, 22.561 304.428 C 22.748 300.941, 17.992 297.586, 16.435 300.105 M 624.435 300.105 C 624.120 300.615, 623.474 300.793, 623 300.500 C 622.193 300.001, 620.705 301.569, 620.390 303.250 C 620.313 303.663, 620.159 304.113, 620.048 304.250 C 619.107 305.418, 619.474 308.149, 620.710 309.174 C 624.541 312.354, 630.286 309.586, 630.561 304.428 C 630.748 300.941, 625.992 297.586, 624.435 300.105 M 16.485 300.848 C 16.127 301.207, 15.308 301.500, 14.667 301.500 C 14.025 301.500, 13.444 302.063, 13.375 302.750 C 13.306 303.438, 13.159 304.113, 13.048 304.250 C 12.209 305.291, 12.394 308.126, 13.339 308.716 C 17.133 311.084, 21.325 308.859, 21.566 304.349 C 21.727 301.334, 18.336 298.998, 16.485 300.848 M 624.485 300.848 C 624.127 301.207, 623.308 301.500, 622.667 301.500 C 622.025 301.500, 621.444 302.063, 621.375 302.750 C 621.306 303.438, 621.159 304.113, 621.048 304.250 C 620.209 305.291, 620.394 308.126, 621.339 308.716 C 625.133 311.084, 629.325 308.859, 629.566 304.349 C 629.727 301.334, 626.336 298.998, 624.485 300.848 M 16.435 302.105 C 16.120 302.615, 15.373 302.731, 14.776 302.362 C 14.153 301.977, 13.977 302.153, 14.362 302.776 C 14.731 303.373, 14.615 304.120, 14.105 304.435 C 12.255 305.578, 13.664 308.499, 16.095 308.561 C 19.451 308.647, 20.715 307.450, 20.549 304.344 C 20.407 301.685, 17.629 300.174, 16.435 302.105 M 624.435 302.105 C 624.120 302.615, 623.373 302.731, 622.776 302.362 C 622.153 301.977, 621.977 302.153, 622.362 302.776 C 622.731 303.373, 622.615 304.120, 622.105 304.435 C 620.255 305.578, 621.664 308.499, 624.095 308.561 C 627.451 308.647, 628.715 307.450, 628.549 304.344 C 628.407 301.685, 625.629 300.174, 624.435 302.105 M 15.778 303.768 C 13.696 306.276, 14.083 307.687, 16.813 307.541 C 18.842 307.432, 19.432 306.854, 19.538 304.868 C 19.689 302.049, 17.689 301.464, 15.778 303.768 M 623.778 303.768 C 621.696 306.276, 622.083 307.687, 624.813 307.541 C 626.842 307.432, 627.432 306.854, 627.538 304.868 C 627.689 302.049, 625.689 301.464, 623.778 303.768 M 16.020 304.476 C 15.324 305.314, 14.923 306.034, 15.128 306.077 C 18.207 306.709, 18.765 306.604, 18.592 305.425 C 18.264 303.188, 17.364 302.856, 16.020 304.476 M 624.020 304.476 C 623.324 305.314, 622.923 306.034, 623.128 306.077 C 626.207 306.709, 626.765 306.604, 626.592 305.425 C 626.264 303.188, 625.364 302.856, 624.020 304.476 M 11.455 320.455 C 10.105 321.805, 9 323.969, 9 325.263 C 9 327.841, 11.209 331.427, 12.919 331.625 C 13.514 331.694, 14.225 331.863, 14.500 332 C 15.828 332.664, 17.620 332.533, 18.750 331.689 C 19.438 331.175, 20 331.090, 20 331.500 C 20 331.910, 20.670 331.689, 21.489 331.009 C 22.308 330.329, 22.751 329.405, 22.473 328.956 C 22.195 328.506, 22.385 327.880, 22.895 327.565 C 23.659 327.092, 23.698 324.176, 22.952 323.250 C 22.841 323.113, 22.694 322.514, 22.625 321.919 C 22.427 320.209, 18.841 318, 16.263 318 C 14.969 318, 12.805 319.105, 11.455 320.455 M 619.455 320.455 C 618.105 321.805, 617 323.969, 617 325.263 C 617 327.841, 619.209 331.427, 620.919 331.625 C 621.514 331.694, 622.225 331.863, 622.500 332 C 623.828 332.664, 625.620 332.533, 626.750 331.689 C 627.438 331.175, 628 331.090, 628 331.500 C 628 331.910, 628.670 331.689, 629.489 331.009 C 630.308 330.329, 630.751 329.405, 630.473 328.956 C 630.195 328.506, 630.385 327.880, 630.895 327.565 C 631.659 327.092, 631.698 324.176, 630.952 323.250 C 630.841 323.113, 630.694 322.514, 630.625 321.919 C 630.427 320.209, 626.841 318, 624.263 318 C 622.969 318, 620.805 319.105, 619.455 320.455 M 13.720 322.906 C 11.383 325.480, 10.581 330.486, 12.500 330.515 C 13.050 330.524, 13.950 330.778, 14.500 331.080 C 15.441 331.597, 17.383 331.558, 18.500 331 C 18.775 330.863, 19.563 330.694, 20.250 330.625 C 20.938 330.556, 21.556 329.938, 21.625 329.250 C 21.694 328.563, 21.863 327.775, 22 327.500 C 22.612 326.277, 22.563 324.418, 21.896 323.500 C 21.497 322.950, 21.137 322.067, 21.096 321.539 C 20.937 319.463, 16.017 320.376, 13.720 322.906 M 621.720 322.906 C 619.383 325.480, 618.581 330.486, 620.500 330.515 C 621.050 330.524, 621.950 330.778, 622.500 331.080 C 623.441 331.597, 625.383 331.558, 626.500 331 C 626.775 330.863, 627.563 330.694, 628.250 330.625 C 628.938 330.556, 629.556 329.938, 629.625 329.250 C 629.694 328.563, 629.862 327.775, 630 327.500 C 630.612 326.277, 630.563 324.418, 629.896 323.500 C 629.497 322.950, 629.137 322.067, 629.096 321.539 C 628.937 319.463, 624.017 320.376, 621.720 322.906 M 14.258 323.267 C 12.657 325.036, 11.641 329.970, 12.907 329.829 C 13.233 329.793, 13.725 329.851, 14 329.958 C 15.920 330.707, 18.082 330.677, 18.565 329.895 C 18.880 329.385, 19.568 329.233, 20.094 329.558 C 20.619 329.883, 20.985 329.778, 20.906 329.324 C 20.828 328.871, 20.851 328.275, 20.958 328 C 21.707 326.080, 21.677 323.918, 20.895 323.435 C 20.385 323.120, 20.171 322.533, 20.419 322.131 C 21.426 320.502, 15.826 321.535, 14.258 323.267 M 32.079 322.583 C 32.127 323.748, 32.364 323.985, 32.683 323.188 C 32.972 322.466, 32.936 321.603, 32.604 321.271 C 32.272 320.939, 32.036 321.529, 32.079 322.583 M 608.079 322.583 C 608.127 323.748, 608.364 323.985, 608.683 323.188 C 608.972 322.466, 608.936 321.603, 608.604 321.271 C 608.272 320.939, 608.036 321.529, 608.079 322.583 M 622.258 323.267 C 620.657 325.036, 619.641 329.970, 620.907 329.829 C 621.233 329.793, 621.725 329.851, 622 329.958 C 623.920 330.707, 626.082 330.677, 626.565 329.895 C 626.880 329.385, 627.568 329.233, 628.094 329.558 C 628.619 329.883, 628.985 329.778, 628.906 329.324 C 628.828 328.871, 628.851 328.275, 628.958 328 C 629.707 326.080, 629.677 323.918, 628.895 323.435 C 628.385 323.120, 628.171 322.533, 628.419 322.131 C 629.426 320.502, 623.826 321.535, 622.258 323.267 M 14.838 323.696 C 12.404 326.628, 13.180 329.091, 16.706 329.627 C 18.099 329.839, 20.318 327.443, 20.617 325.403 C 21.019 322.663, 16.743 321.400, 14.838 323.696 M 622.838 323.696 C 620.404 326.628, 621.180 329.091, 624.706 329.627 C 626.099 329.839, 628.318 327.443, 628.617 325.403 C 629.019 322.663, 624.743 321.400, 622.838 323.696 M 15.232 324.345 C 13.868 326.188, 14.353 328.288, 16.206 328.560 C 18.106 328.839, 19.655 327.239, 19.561 325.095 C 19.484 323.334, 16.379 322.796, 15.232 324.345 M 623.232 324.345 C 621.868 326.188, 622.353 328.288, 624.206 328.560 C 626.106 328.839, 627.655 327.239, 627.561 325.095 C 627.484 323.334, 624.379 322.796, 623.232 324.345 M 15.923 324.417 C 15.881 324.462, 15.703 325.241, 15.527 326.146 C 15.328 327.174, 15.795 327.706, 16.771 327.563 C 18.721 327.277, 19.283 324.333, 17.387 324.333 C 16.624 324.333, 15.966 324.371, 15.923 324.417 M 623.923 324.417 C 623.881 324.462, 623.703 325.241, 623.527 326.146 C 623.328 327.174, 623.795 327.706, 624.771 327.563 C 626.721 327.277, 627.283 324.333, 625.387 324.333 C 624.624 324.333, 623.966 324.371, 623.923 324.417 M 32.079 326.583 C 32.127 327.748, 32.364 327.985, 32.683 327.188 C 32.972 326.466, 32.936 325.603, 32.604 325.271 C 32.272 324.939, 32.036 325.529, 32.079 326.583 M 608.079 326.583 C 608.127 327.748, 608.364 327.985, 608.683 327.188 C 608.972 326.466, 608.936 325.603, 608.604 325.271 C 608.272 324.939, 608.036 325.529, 608.079 326.583 M 32.079 330.583 C 32.127 331.748, 32.364 331.985, 32.683 331.188 C 32.972 330.466, 32.936 329.603, 32.604 329.271 C 32.272 328.939, 32.036 329.529, 32.079 330.583 M 608.079 330.583 C 608.127 331.748, 608.364 331.985, 608.683 331.188 C 608.972 330.466, 608.936 329.603, 608.604 329.271 C 608.272 328.939, 608.036 329.529, 608.079 330.583 M 32.079 334.583 C 32.127 335.748, 32.364 335.985, 32.683 335.188 C 32.972 334.466, 32.936 333.603, 32.604 333.271 C 32.272 332.939, 32.036 333.529, 32.079 334.583 M 608.079 334.583 C 608.127 335.748, 608.364 335.985, 608.683 335.188 C 608.972 334.466, 608.936 333.603, 608.604 333.271 C 608.272 332.939, 608.036 333.529, 608.079 334.583 M 32.079 338.583 C 32.127 339.748, 32.364 339.985, 32.683 339.188 C 32.972 338.466, 32.936 337.603, 32.604 337.271 C 32.272 336.939, 32.036 337.529, 32.079 338.583 M 608.079 338.583 C 608.127 339.748, 608.364 339.985, 608.683 339.188 C 608.972 338.466, 608.936 337.603, 608.604 337.271 C 608.272 336.939, 608.036 337.529, 608.079 338.583 M 11.455 341.455 C 8.303 344.606, 8.313 348.459, 11.481 351.394 C 14.527 354.217, 18.294 354.151, 21.222 351.222 C 24.151 348.294, 24.217 344.527, 21.394 341.481 C 18.459 338.313, 14.606 338.303, 11.455 341.455 M 619.455 341.455 C 616.303 344.606, 616.313 348.459, 619.481 351.394 C 622.527 354.217, 626.294 354.151, 629.222 351.222 C 632.151 348.294, 632.217 344.527, 629.394 341.481 C 626.459 338.313, 622.606 338.303, 619.455 341.455 M 16.435 342.105 C 16.120 342.615, 15.474 342.793, 15 342.500 C 14.193 342.001, 12.705 343.569, 12.390 345.250 C 12.313 345.663, 12.159 346.113, 12.048 346.250 C 11.107 347.418, 11.474 350.149, 12.710 351.174 C 16.541 354.354, 22.286 351.586, 22.561 346.428 C 22.748 342.941, 17.992 339.586, 16.435 342.105 M 32.079 342.583 C 32.127 343.748, 32.364 343.985, 32.683 343.188 C 32.972 342.466, 32.936 341.603, 32.604 341.271 C 32.272 340.939, 32.036 341.529, 32.079 342.583 M 608.079 342.583 C 608.127 343.748, 608.364 343.985, 608.683 343.188 C 608.972 342.466, 608.936 341.603, 608.604 341.271 C 608.272 340.939, 608.036 341.529, 608.079 342.583 M 624.435 342.105 C 624.120 342.615, 623.474 342.793, 623 342.500 C 622.193 342.001, 620.705 343.569, 620.390 345.250 C 620.313 345.663, 620.159 346.113, 620.048 346.250 C 619.107 347.418, 619.474 350.149, 620.710 351.174 C 624.541 354.354, 630.286 351.586, 630.561 346.428 C 630.748 342.941, 625.992 339.586, 624.435 342.105 M 16.485 342.848 C 16.127 343.207, 15.308 343.500, 14.667 343.500 C 14.025 343.500, 13.444 344.063, 13.375 344.750 C 13.306 345.438, 13.159 346.113, 13.048 346.250 C 12.209 347.291, 12.394 350.126, 13.339 350.716 C 17.133 353.084, 21.325 350.859, 21.566 346.349 C 21.727 343.334, 18.336 340.998, 16.485 342.848 M 624.485 342.848 C 624.127 343.207, 623.308 343.500, 622.667 343.500 C 622.025 343.500, 621.444 344.063, 621.375 344.750 C 621.306 345.438, 621.159 346.113, 621.048 346.250 C 620.209 347.291, 620.394 350.126, 621.339 350.716 C 625.133 353.084, 629.325 350.859, 629.566 346.349 C 629.727 343.334, 626.336 340.998, 624.485 342.848 M 16.435 344.105 C 16.120 344.615, 15.373 344.731, 14.776 344.362 C 14.153 343.977, 13.977 344.153, 14.362 344.776 C 14.731 345.373, 14.615 346.120, 14.105 346.435 C 12.255 347.578, 13.664 350.499, 16.095 350.561 C 19.451 350.647, 20.715 349.450, 20.549 346.344 C 20.407 343.685, 17.629 342.174, 16.435 344.105 M 624.435 344.105 C 624.120 344.615, 623.373 344.731, 622.776 344.362 C 622.153 343.977, 621.977 344.153, 622.362 344.776 C 622.731 345.373, 622.615 346.120, 622.105 346.435 C 620.255 347.578, 621.664 350.499, 624.095 350.561 C 627.451 350.647, 628.715 349.450, 628.549 346.344 C 628.407 343.685, 625.629 342.174, 624.435 344.105 M 15.778 345.768 C 13.696 348.276, 14.083 349.687, 16.813 349.541 C 18.842 349.432, 19.432 348.854, 19.538 346.868 C 19.689 344.049, 17.689 343.464, 15.778 345.768 M 623.778 345.768 C 621.696 348.276, 622.083 349.687, 624.813 349.541 C 626.842 349.432, 627.432 348.854, 627.538 346.868 C 627.689 344.049, 625.689 343.464, 623.778 345.768 M 16.020 346.476 C 15.324 347.314, 14.923 348.034, 15.128 348.077 C 18.207 348.709, 18.765 348.604, 18.592 347.425 C 18.264 345.188, 17.364 344.856, 16.020 346.476 M 32.079 346.583 C 32.127 347.748, 32.364 347.985, 32.683 347.188 C 32.972 346.466, 32.936 345.603, 32.604 345.271 C 32.272 344.939, 32.036 345.529, 32.079 346.583 M 608.079 346.583 C 608.127 347.748, 608.364 347.985, 608.683 347.188 C 608.972 346.466, 608.936 345.603, 608.604 345.271 C 608.272 344.939, 608.036 345.529, 608.079 346.583 M 624.020 346.476 C 623.324 347.314, 622.923 348.034, 623.128 348.077 C 626.207 348.709, 626.765 348.604, 626.592 347.425 C 626.264 345.188, 625.364 344.856, 624.020 346.476 M 32.079 350.583 C 32.127 351.748, 32.364 351.985, 32.683 351.188 C 32.972 350.466, 32.936 349.603, 32.604 349.271 C 32.272 348.939, 32.036 349.529, 32.079 350.583 M 608.079 350.583 C 608.127 351.748, 608.364 351.985, 608.683 351.188 C 608.972 350.466, 608.936 349.603, 608.604 349.271 C 608.272 348.939, 608.036 349.529, 608.079 350.583 M 10.923 363.923 C 7.074 367.773, 7.095 371.386, 10.987 374.802 C 15.030 378.349, 18.287 378.353, 21.676 374.816 C 25.286 371.049, 25.352 367.831, 21.899 364.051 C 18.302 360.112, 14.775 360.071, 10.923 363.923 M 618.923 363.923 C 615.074 367.773, 615.095 371.386, 618.987 374.802 C 623.030 378.349, 626.287 378.353, 629.676 374.816 C 633.286 371.049, 633.352 367.831, 629.899 364.051 C 626.302 360.112, 622.775 360.071, 618.923 363.923 M 16.435 364.105 C 16.120 364.615, 15.503 364.811, 15.065 364.540 C 14.279 364.054, 10.264 367.837, 10.750 368.605 C 10.887 368.822, 10.966 369.113, 10.923 369.250 C 9.784 372.974, 12.367 376.337, 16.539 376.560 C 19.501 376.718, 23.381 372.801, 23.559 369.472 C 23.756 365.779, 18.055 361.484, 16.435 364.105 M 624.435 364.105 C 624.120 364.615, 623.503 364.811, 623.065 364.540 C 622.279 364.054, 618.264 367.837, 618.750 368.605 C 618.888 368.822, 618.966 369.113, 618.923 369.250 C 617.784 372.974, 620.367 376.337, 624.539 376.560 C 627.501 376.718, 631.381 372.801, 631.559 369.472 C 631.756 365.779, 626.055 361.484, 624.435 364.105 M 16.435 365.105 C 16.120 365.615, 15.474 365.793, 15 365.500 C 14.193 365.001, 12.705 366.569, 12.390 368.250 C 12.313 368.663, 12.159 369.113, 12.048 369.250 C 11.107 370.418, 11.474 373.149, 12.710 374.174 C 16.541 377.354, 22.286 374.586, 22.561 369.428 C 22.748 365.941, 17.992 362.586, 16.435 365.105 M 624.435 365.105 C 624.120 365.615, 623.474 365.793, 623 365.500 C 622.193 365.001, 620.705 366.569, 620.390 368.250 C 620.313 368.663, 620.159 369.113, 620.048 369.250 C 619.107 370.418, 619.474 373.149, 620.710 374.174 C 624.541 377.354, 630.286 374.586, 630.561 369.428 C 630.748 365.941, 625.992 362.586, 624.435 365.105 M 16.485 365.848 C 16.127 366.207, 15.308 366.500, 14.667 366.500 C 14.025 366.500, 13.444 367.063, 13.375 367.750 C 13.306 368.438, 13.159 369.113, 13.048 369.250 C 12.209 370.291, 12.394 373.126, 13.339 373.716 C 17.133 376.084, 21.325 373.859, 21.566 369.349 C 21.727 366.334, 18.336 363.998, 16.485 365.848 M 624.485 365.848 C 624.127 366.207, 623.308 366.500, 622.667 366.500 C 622.025 366.500, 621.444 367.063, 621.375 367.750 C 621.306 368.438, 621.159 369.113, 621.048 369.250 C 620.209 370.291, 620.394 373.126, 621.339 373.716 C 625.133 376.084, 629.325 373.859, 629.566 369.349 C 629.727 366.334, 626.336 363.998, 624.485 365.848 M 16.435 367.105 C 16.120 367.615, 15.373 367.731, 14.776 367.362 C 14.153 366.977, 13.977 367.153, 14.362 367.776 C 14.731 368.373, 14.615 369.120, 14.105 369.435 C 12.255 370.578, 13.664 373.499, 16.095 373.561 C 19.451 373.647, 20.715 372.450, 20.549 369.344 C 20.407 366.685, 17.629 365.174, 16.435 367.105 M 624.435 367.105 C 624.120 367.615, 623.373 367.731, 622.776 367.362 C 622.153 366.977, 621.977 367.153, 622.362 367.776 C 622.731 368.373, 622.615 369.120, 622.105 369.435 C 620.255 370.578, 621.664 373.499, 624.095 373.561 C 627.451 373.647, 628.715 372.450, 628.549 369.344 C 628.407 366.685, 625.629 365.174, 624.435 367.105 M 15.778 368.768 C 13.696 371.276, 14.083 372.687, 16.813 372.541 C 18.842 372.432, 19.432 371.854, 19.538 369.868 C 19.689 367.049, 17.689 366.464, 15.778 368.768 M 623.778 368.768 C 621.696 371.276, 622.083 372.687, 624.813 372.541 C 626.842 372.432, 627.432 371.854, 627.538 369.868 C 627.689 367.049, 625.689 366.464, 623.778 368.768 M 16.020 369.476 C 15.324 370.314, 14.923 371.034, 15.128 371.077 C 18.207 371.709, 18.765 371.604, 18.592 370.425 C 18.264 368.188, 17.364 367.856, 16.020 369.476 M 624.020 369.476 C 623.324 370.314, 622.923 371.034, 623.128 371.077 C 626.207 371.709, 626.765 371.604, 626.592 370.425 C 626.264 368.188, 625.364 367.856, 624.020 369.476 M 32 383 C 32 383.550, 32.477 384, 33.059 384 C 33.641 384, 33.840 383.550, 33.500 383 C 33.160 382.450, 32.684 382, 32.441 382 C 32.198 382, 32 382.450, 32 383 M 608 383 C 608 383.550, 608.477 384, 609.059 384 C 609.641 384, 609.840 383.550, 609.500 383 C 609.160 382.450, 608.684 382, 608.441 382 C 608.198 382, 608 382.450, 608 383 M 11.455 387.455 C 8.303 390.606, 8.313 394.459, 11.481 397.394 C 14.527 400.217, 18.294 400.151, 21.222 397.222 C 24.151 394.294, 24.217 390.527, 21.394 387.481 C 18.459 384.313, 14.606 384.303, 11.455 387.455 M 32.079 386.583 C 32.127 387.748, 32.364 387.985, 32.683 387.188 C 32.972 386.466, 32.936 385.603, 32.604 385.271 C 32.272 384.939, 32.036 385.529, 32.079 386.583 M 608.079 386.583 C 608.127 387.748, 608.364 387.985, 608.683 387.188 C 608.972 386.466, 608.936 385.603, 608.604 385.271 C 608.272 384.939, 608.036 385.529, 608.079 386.583 M 619.455 387.455 C 616.303 390.606, 616.313 394.459, 619.481 397.394 C 622.527 400.217, 626.294 400.151, 629.222 397.222 C 632.151 394.294, 632.217 390.527, 629.394 387.481 C 626.459 384.313, 622.606 384.303, 619.455 387.455 M 16.435 388.105 C 16.120 388.615, 15.474 388.793, 15 388.500 C 14.193 388.001, 12.705 389.569, 12.390 391.250 C 12.313 391.663, 12.159 392.113, 12.048 392.250 C 11.107 393.418, 11.474 396.149, 12.710 397.174 C 16.541 400.354, 22.286 397.586, 22.561 392.428 C 22.748 388.941, 17.992 385.586, 16.435 388.105 M 624.435 388.105 C 624.120 388.615, 623.474 388.793, 623 388.500 C 622.193 388.001, 620.705 389.569, 620.390 391.250 C 620.313 391.663, 620.159 392.113, 620.048 392.250 C 619.107 393.418, 619.474 396.149, 620.710 397.174 C 624.541 400.354, 630.286 397.586, 630.561 392.428 C 630.748 388.941, 625.992 385.586, 624.435 388.105 M 16.485 388.848 C 16.127 389.207, 15.308 389.500, 14.667 389.500 C 14.025 389.500, 13.444 390.063, 13.375 390.750 C 13.306 391.438, 13.159 392.113, 13.048 392.250 C 12.209 393.291, 12.394 396.126, 13.339 396.716 C 17.133 399.084, 21.325 396.859, 21.566 392.349 C 21.727 389.334, 18.336 386.998, 16.485 388.848 M 624.485 388.848 C 624.127 389.207, 623.308 389.500, 622.667 389.500 C 622.025 389.500, 621.444 390.063, 621.375 390.750 C 621.306 391.438, 621.159 392.113, 621.048 392.250 C 620.209 393.291, 620.394 396.126, 621.339 396.716 C 625.133 399.084, 629.325 396.859, 629.566 392.349 C 629.727 389.334, 626.336 386.998, 624.485 388.848 M 16.435 390.105 C 16.120 390.615, 15.373 390.731, 14.776 390.362 C 14.153 389.977, 13.977 390.153, 14.362 390.776 C 14.731 391.373, 14.615 392.120, 14.105 392.435 C 12.255 393.578, 13.664 396.499, 16.095 396.561 C 19.451 396.647, 20.715 395.450, 20.549 392.344 C 20.407 389.685, 17.629 388.174, 16.435 390.105 M 32.079 390.583 C 32.127 391.748, 32.364 391.985, 32.683 391.188 C 32.972 390.466, 32.936 389.603, 32.604 389.271 C 32.272 388.939, 32.036 389.529, 32.079 390.583 M 608.079 390.583 C 608.127 391.748, 608.364 391.985, 608.683 391.188 C 608.972 390.466, 608.936 389.603, 608.604 389.271 C 608.272 388.939, 608.036 389.529, 608.079 390.583 M 624.435 390.105 C 624.120 390.615, 623.373 390.731, 622.776 390.362 C 622.153 389.977, 621.977 390.153, 622.362 390.776 C 622.731 391.373, 622.615 392.120, 622.105 392.435 C 620.255 393.578, 621.664 396.499, 624.095 396.561 C 627.451 396.647, 628.715 395.450, 628.549 392.344 C 628.407 389.685, 625.629 388.174, 624.435 390.105 M 15.778 391.768 C 13.696 394.276, 14.083 395.687, 16.813 395.541 C 18.842 395.432, 19.432 394.854, 19.538 392.868 C 19.689 390.049, 17.689 389.464, 15.778 391.768 M 623.778 391.768 C 621.696 394.276, 622.083 395.687, 624.813 395.541 C 626.842 395.432, 627.432 394.854, 627.538 392.868 C 627.689 390.049, 625.689 389.464, 623.778 391.768 M 16.020 392.476 C 15.324 393.314, 14.923 394.034, 15.128 394.077 C 18.207 394.709, 18.765 394.604, 18.592 393.425 C 18.264 391.188, 17.364 390.856, 16.020 392.476 M 624.020 392.476 C 623.324 393.314, 622.923 394.034, 623.128 394.077 C 626.207 394.709, 626.765 394.604, 626.592 393.425 C 626.264 391.188, 625.364 390.856, 624.020 392.476 M 32.079 394.583 C 32.127 395.748, 32.364 395.985, 32.683 395.188 C 32.972 394.466, 32.936 393.603, 32.604 393.271 C 32.272 392.939, 32.036 393.529, 32.079 394.583 M 608.079 394.583 C 608.127 395.748, 608.364 395.985, 608.683 395.188 C 608.972 394.466, 608.936 393.603, 608.604 393.271 C 608.272 392.939, 608.036 393.529, 608.079 394.583 M 32.079 398.583 C 32.127 399.748, 32.364 399.985, 32.683 399.188 C 32.972 398.466, 32.936 397.603, 32.604 397.271 C 32.272 396.939, 32.036 397.529, 32.079 398.583 M 608.079 398.583 C 608.127 399.748, 608.364 399.985, 608.683 399.188 C 608.972 398.466, 608.936 397.603, 608.604 397.271 C 608.272 396.939, 608.036 397.529, 608.079 398.583 M 32.079 402.583 C 32.127 403.748, 32.364 403.985, 32.683 403.188 C 32.972 402.466, 32.936 401.603, 32.604 401.271 C 32.272 400.939, 32.036 401.529, 32.079 402.583 M 608.079 402.583 C 608.127 403.748, 608.364 403.985, 608.683 403.188 C 608.972 402.466, 608.936 401.603, 608.604 401.271 C 608.272 400.939, 608.036 401.529, 608.079 402.583 M 32.079 406.583 C 32.127 407.748, 32.364 407.985, 32.683 407.188 C 32.972 406.466, 32.936 405.603, 32.604 405.271 C 32.272 404.939, 32.036 405.529, 32.079 406.583 M 608.079 406.583 C 608.127 407.748, 608.364 407.985, 608.683 407.188 C 608.972 406.466, 608.936 405.603, 608.604 405.271 C 608.272 404.939, 608.036 405.529, 608.079 406.583 M 11.455 408.455 C 10.105 409.805, 9 411.969, 9 413.263 C 9 415.841, 11.209 419.427, 12.919 419.625 C 13.514 419.694, 14.225 419.863, 14.500 420 C 15.828 420.664, 17.620 420.533, 18.750 419.689 C 19.438 419.175, 20 419.090, 20 419.500 C 20 419.910, 20.670 419.689, 21.489 419.009 C 22.308 418.329, 22.751 417.405, 22.473 416.956 C 22.195 416.506, 22.385 415.880, 22.895 415.565 C 23.659 415.092, 23.698 412.176, 22.952 411.250 C 22.841 411.113, 22.694 410.514, 22.625 409.919 C 22.427 408.209, 18.841 406, 16.263 406 C 14.969 406, 12.805 407.105, 11.455 408.455 M 619.455 408.455 C 618.105 409.805, 617 411.969, 617 413.263 C 617 415.841, 619.209 419.427, 620.919 419.625 C 621.514 419.694, 622.225 419.863, 622.500 420 C 623.828 420.664, 625.620 420.533, 626.750 419.689 C 627.438 419.175, 628 419.090, 628 419.500 C 628 419.910, 628.670 419.689, 629.489 419.009 C 630.308 418.329, 630.751 417.405, 630.473 416.956 C 630.195 416.506, 630.385 415.880, 630.895 415.565 C 631.659 415.092, 631.698 412.176, 630.952 411.250 C 630.841 411.113, 630.694 410.514, 630.625 409.919 C 630.427 408.209, 626.841 406, 624.263 406 C 622.969 406, 620.805 407.105, 619.455 408.455 M 13.720 410.906 C 11.383 413.480, 10.581 418.486, 12.500 418.515 C 13.050 418.524, 13.950 418.778, 14.500 419.080 C 15.441 419.597, 17.383 419.558, 18.500 419 C 18.775 418.863, 19.563 418.694, 20.250 418.625 C 20.938 418.556, 21.556 417.938, 21.625 417.250 C 21.694 416.563, 21.863 415.775, 22 415.500 C 22.612 414.277, 22.563 412.418, 21.896 411.500 C 21.497 410.950, 21.137 410.067, 21.096 409.539 C 20.937 407.463, 16.017 408.376, 13.720 410.906 M 621.720 410.906 C 619.383 413.480, 618.581 418.486, 620.500 418.515 C 621.050 418.524, 621.950 418.778, 622.500 419.080 C 623.441 419.597, 625.383 419.558, 626.500 419 C 626.775 418.863, 627.563 418.694, 628.250 418.625 C 628.938 418.556, 629.556 417.938, 629.625 417.250 C 629.694 416.563, 629.862 415.775, 630 415.500 C 630.612 414.277, 630.563 412.418, 629.896 411.500 C 629.497 410.950, 629.137 410.067, 629.096 409.539 C 628.937 407.463, 624.017 408.376, 621.720 410.906 M 14.258 411.267 C 12.657 413.036, 11.641 417.970, 12.907 417.829 C 13.233 417.793, 13.725 417.851, 14 417.958 C 15.920 418.707, 18.082 418.677, 18.565 417.895 C 18.880 417.385, 19.568 417.233, 20.094 417.558 C 20.619 417.883, 20.985 417.778, 20.906 417.324 C 20.828 416.871, 20.851 416.275, 20.958 416 C 21.707 414.080, 21.677 411.918, 20.895 411.435 C 20.385 411.120, 20.171 410.533, 20.419 410.131 C 21.426 408.502, 15.826 409.535, 14.258 411.267 M 32.079 410.583 C 32.127 411.748, 32.364 411.985, 32.683 411.188 C 32.972 410.466, 32.936 409.603, 32.604 409.271 C 32.272 408.939, 32.036 409.529, 32.079 410.583 M 608.079 410.583 C 608.127 411.748, 608.364 411.985, 608.683 411.188 C 608.972 410.466, 608.936 409.603, 608.604 409.271 C 608.272 408.939, 608.036 409.529, 608.079 410.583 M 622.258 411.267 C 620.657 413.036, 619.641 417.970, 620.907 417.829 C 621.233 417.793, 621.725 417.851, 622 417.958 C 623.920 418.707, 626.082 418.677, 626.565 417.895 C 626.880 417.385, 627.568 417.233, 628.094 417.558 C 628.619 417.883, 628.985 417.778, 628.906 417.324 C 628.828 416.871, 628.851 416.275, 628.958 416 C 629.707 414.080, 629.677 411.918, 628.895 411.435 C 628.385 411.120, 628.171 410.533, 628.419 410.131 C 629.426 408.502, 623.826 409.535, 622.258 411.267 M 14.838 411.696 C 12.404 414.628, 13.180 417.091, 16.706 417.627 C 18.099 417.839, 20.318 415.443, 20.617 413.403 C 21.019 410.663, 16.743 409.400, 14.838 411.696 M 622.838 411.696 C 620.404 414.628, 621.180 417.091, 624.706 417.627 C 626.099 417.839, 628.318 415.443, 628.617 413.403 C 629.019 410.663, 624.743 409.400, 622.838 411.696 M 15.232 412.345 C 13.868 414.188, 14.353 416.288, 16.206 416.560 C 18.106 416.839, 19.655 415.239, 19.561 413.095 C 19.484 411.334, 16.379 410.796, 15.232 412.345 M 623.232 412.345 C 621.868 414.188, 622.353 416.288, 624.206 416.560 C 626.106 416.839, 627.655 415.239, 627.561 413.095 C 627.484 411.334, 624.379 410.796, 623.232 412.345 M 15.923 412.417 C 15.881 412.462, 15.703 413.241, 15.527 414.146 C 15.328 415.174, 15.795 415.706, 16.771 415.563 C 18.721 415.277, 19.283 412.333, 17.387 412.333 C 16.624 412.333, 15.966 412.371, 15.923 412.417 M 623.923 412.417 C 623.881 412.462, 623.703 413.241, 623.527 414.146 C 623.328 415.174, 623.795 415.706, 624.771 415.563 C 626.721 415.277, 627.283 412.333, 625.387 412.333 C 624.624 412.333, 623.966 412.371, 623.923 412.417 M 32.079 414.583 C 32.127 415.748, 32.364 415.985, 32.683 415.188 C 32.972 414.466, 32.936 413.603, 32.604 413.271 C 32.272 412.939, 32.036 413.529, 32.079 414.583 M 608.079 414.583 C 608.127 415.748, 608.364 415.985, 608.683 415.188 C 608.972 414.466, 608.936 413.603, 608.604 413.271 C 608.272 412.939, 608.036 413.529, 608.079 414.583 M 11.455 429.455 C 8.303 432.606, 8.313 436.459, 11.481 439.394 C 14.527 442.217, 18.294 442.151, 21.222 439.222 C 24.151 436.294, 24.217 432.527, 21.394 429.481 C 18.459 426.313, 14.606 426.303, 11.455 429.455 M 619.455 429.455 C 616.303 432.606, 616.313 436.459, 619.481 439.394 C 622.527 442.217, 626.294 442.151, 629.222 439.222 C 632.151 436.294, 632.217 432.527, 629.394 429.481 C 626.459 426.313, 622.606 426.303, 619.455 429.455 M 16.435 430.105 C 16.120 430.615, 15.474 430.793, 15 430.500 C 14.193 430.001, 12.705 431.569, 12.390 433.250 C 12.313 433.663, 12.159 434.113, 12.048 434.250 C 11.107 435.418, 11.474 438.149, 12.710 439.174 C 16.541 442.354, 22.286 439.586, 22.561 434.428 C 22.748 430.941, 17.992 427.586, 16.435 430.105 M 624.435 430.105 C 624.120 430.615, 623.474 430.793, 623 430.500 C 622.193 430.001, 620.705 431.569, 620.390 433.250 C 620.313 433.663, 620.159 434.113, 620.048 434.250 C 619.107 435.418, 619.474 438.149, 620.710 439.174 C 624.541 442.354, 630.286 439.586, 630.561 434.428 C 630.748 430.941, 625.992 427.586, 624.435 430.105 M 16.485 430.848 C 16.127 431.207, 15.308 431.500, 14.667 431.500 C 14.025 431.500, 13.444 432.063, 13.375 432.750 C 13.306 433.438, 13.159 434.113, 13.048 434.250 C 12.209 435.291, 12.394 438.126, 13.339 438.716 C 17.133 441.084, 21.325 438.859, 21.566 434.349 C 21.727 431.334, 18.336 428.998, 16.485 430.848 M 624.485 430.848 C 624.127 431.207, 623.308 431.500, 622.667 431.500 C 622.025 431.500, 621.444 432.063, 621.375 432.750 C 621.306 433.438, 621.159 434.113, 621.048 434.250 C 620.209 435.291, 620.394 438.126, 621.339 438.716 C 625.133 441.084, 629.325 438.859, 629.566 434.349 C 629.727 431.334, 626.336 428.998, 624.485 430.848 M 16.435 432.105 C 16.120 432.615, 15.373 432.731, 14.776 432.362 C 14.153 431.977, 13.977 432.153, 14.362 432.776 C 14.731 433.373, 14.615 434.120, 14.105 434.435 C 12.255 435.578, 13.664 438.499, 16.095 438.561 C 19.451 438.647, 20.715 437.450, 20.549 434.344 C 20.407 431.685, 17.629 430.174, 16.435 432.105 M 624.435 432.105 C 624.120 432.615, 623.373 432.731, 622.776 432.362 C 622.153 431.977, 621.977 432.153, 622.362 432.776 C 622.731 433.373, 622.615 434.120, 622.105 434.435 C 620.255 435.578, 621.664 438.499, 624.095 438.561 C 627.451 438.647, 628.715 437.450, 628.549 434.344 C 628.407 431.685, 625.629 430.174, 624.435 432.105 M 15.778 433.768 C 13.696 436.276, 14.083 437.687, 16.813 437.541 C 18.842 437.432, 19.432 436.854, 19.538 434.868 C 19.689 432.049, 17.689 431.464, 15.778 433.768 M 623.778 433.768 C 621.696 436.276, 622.083 437.687, 624.813 437.541 C 626.842 437.432, 627.432 436.854, 627.538 434.868 C 627.689 432.049, 625.689 431.464, 623.778 433.768 M 16.020 434.476 C 15.324 435.314, 14.923 436.034, 15.128 436.077 C 18.207 436.709, 18.765 436.604, 18.592 435.425 C 18.264 433.188, 17.364 432.856, 16.020 434.476 M 624.020 434.476 C 623.324 435.314, 622.923 436.034, 623.128 436.077 C 626.207 436.709, 626.765 436.604, 626.592 435.425 C 626.264 433.188, 625.364 432.856, 624.020 434.476 M 10.923 451.923 C 7.074 455.773, 7.095 459.386, 10.987 462.802 C 15.030 466.349, 18.287 466.353, 21.676 462.816 C 25.286 459.049, 25.352 455.831, 21.899 452.051 C 18.302 448.112, 14.775 448.071, 10.923 451.923 M 32.079 450.583 C 32.127 451.748, 32.364 451.985, 32.683 451.188 C 32.972 450.466, 32.936 449.603, 32.604 449.271 C 32.272 448.939, 32.036 449.529, 32.079 450.583 M 608.079 450.583 C 608.127 451.748, 608.364 451.985, 608.683 451.188 C 608.972 450.466, 608.936 449.603, 608.604 449.271 C 608.272 448.939, 608.036 449.529, 608.079 450.583 M 618.923 451.923 C 615.074 455.773, 615.095 459.386, 618.987 462.802 C 623.030 466.349, 626.287 466.353, 629.676 462.816 C 633.286 459.049, 633.352 455.831, 629.899 452.051 C 626.302 448.112, 622.775 448.071, 618.923 451.923 M 16.435 452.105 C 16.120 452.615, 15.503 452.811, 15.065 452.540 C 14.279 452.054, 10.264 455.837, 10.750 456.605 C 10.887 456.822, 10.966 457.113, 10.923 457.250 C 9.784 460.974, 12.367 464.337, 16.539 464.560 C 19.501 464.718, 23.381 460.801, 23.559 457.472 C 23.756 453.779, 18.055 449.484, 16.435 452.105 M 624.435 452.105 C 624.120 452.615, 623.503 452.811, 623.065 452.540 C 622.279 452.054, 618.264 455.837, 618.750 456.605 C 618.888 456.822, 618.966 457.113, 618.923 457.250 C 617.784 460.974, 620.367 464.337, 624.539 464.560 C 627.501 464.718, 631.381 460.801, 631.559 457.472 C 631.756 453.779, 626.055 449.484, 624.435 452.105 M 16.435 453.105 C 16.120 453.615, 15.474 453.793, 15 453.500 C 14.193 453.001, 12.705 454.569, 12.390 456.250 C 12.313 456.663, 12.159 457.113, 12.048 457.250 C 11.107 458.418, 11.474 461.149, 12.710 462.174 C 16.541 465.354, 22.286 462.586, 22.561 457.428 C 22.748 453.941, 17.992 450.586, 16.435 453.105 M 624.435 453.105 C 624.120 453.615, 623.474 453.793, 623 453.500 C 622.193 453.001, 620.705 454.569, 620.390 456.250 C 620.313 456.663, 620.159 457.113, 620.048 457.250 C 619.107 458.418, 619.474 461.149, 620.710 462.174 C 624.541 465.354, 630.286 462.586, 630.561 457.428 C 630.748 453.941, 625.992 450.586, 624.435 453.105 M 16.485 453.848 C 16.127 454.207, 15.308 454.500, 14.667 454.500 C 14.025 454.500, 13.444 455.063, 13.375 455.750 C 13.306 456.438, 13.159 457.113, 13.048 457.250 C 12.209 458.291, 12.394 461.126, 13.339 461.716 C 17.133 464.084, 21.325 461.859, 21.566 457.349 C 21.727 454.334, 18.336 451.998, 16.485 453.848 M 32.079 454.583 C 32.127 455.748, 32.364 455.985, 32.683 455.188 C 32.972 454.466, 32.936 453.603, 32.604 453.271 C 32.272 452.939, 32.036 453.529, 32.079 454.583 M 608.079 454.583 C 608.127 455.748, 608.364 455.985, 608.683 455.188 C 608.972 454.466, 608.936 453.603, 608.604 453.271 C 608.272 452.939, 608.036 453.529, 608.079 454.583 M 624.485 453.848 C 624.127 454.207, 623.308 454.500, 622.667 454.500 C 622.025 454.500, 621.444 455.063, 621.375 455.750 C 621.306 456.438, 621.159 457.113, 621.048 457.250 C 620.209 458.291, 620.394 461.126, 621.339 461.716 C 625.133 464.084, 629.325 461.859, 629.566 457.349 C 629.727 454.334, 626.336 451.998, 624.485 453.848 M 16.435 455.105 C 16.120 455.615, 15.373 455.731, 14.776 455.362 C 14.153 454.977, 13.977 455.153, 14.362 455.776 C 14.731 456.373, 14.615 457.120, 14.105 457.435 C 12.255 458.578, 13.664 461.499, 16.095 461.561 C 19.451 461.647, 20.715 460.450, 20.549 457.344 C 20.407 454.685, 17.629 453.174, 16.435 455.105 M 624.435 455.105 C 624.120 455.615, 623.373 455.731, 622.776 455.362 C 622.153 454.977, 621.977 455.153, 622.362 455.776 C 622.731 456.373, 622.615 457.120, 622.105 457.435 C 620.255 458.578, 621.664 461.499, 624.095 461.561 C 627.451 461.647, 628.715 460.450, 628.549 457.344 C 628.407 454.685, 625.629 453.174, 624.435 455.105 M 15.778 456.768 C 13.696 459.276, 14.083 460.687, 16.813 460.541 C 18.842 460.432, 19.432 459.854, 19.538 457.868 C 19.689 455.049, 17.689 454.464, 15.778 456.768 M 623.778 456.768 C 621.696 459.276, 622.083 460.687, 624.813 460.541 C 626.842 460.432, 627.432 459.854, 627.538 457.868 C 627.689 455.049, 625.689 454.464, 623.778 456.768 M 16.020 457.476 C 15.324 458.314, 14.923 459.034, 15.128 459.077 C 18.207 459.709, 18.765 459.604, 18.592 458.425 C 18.264 456.188, 17.364 455.856, 16.020 457.476 M 624.020 457.476 C 623.324 458.314, 622.923 459.034, 623.128 459.077 C 626.207 459.709, 626.765 459.604, 626.592 458.425 C 626.264 456.188, 625.364 455.856, 624.020 457.476 M 32.079 458.583 C 32.127 459.748, 32.364 459.985, 32.683 459.188 C 32.972 458.466, 32.936 457.603, 32.604 457.271 C 32.272 456.939, 32.036 457.529, 32.079 458.583 M 608.079 458.583 C 608.127 459.748, 608.364 459.985, 608.683 459.188 C 608.972 458.466, 608.936 457.603, 608.604 457.271 C 608.272 456.939, 608.036 457.529, 608.079 458.583 M 32.079 462.583 C 32.127 463.748, 32.364 463.985, 32.683 463.188 C 32.972 462.466, 32.936 461.603, 32.604 461.271 C 32.272 460.939, 32.036 461.529, 32.079 462.583 M 608.079 462.583 C 608.127 463.748, 608.364 463.985, 608.683 463.188 C 608.972 462.466, 608.936 461.603, 608.604 461.271 C 608.272 460.939, 608.036 461.529, 608.079 462.583 M 32.079 466.583 C 32.127 467.748, 32.364 467.985, 32.683 467.188 C 32.972 466.466, 32.936 465.603, 32.604 465.271 C 32.272 464.939, 32.036 465.529, 32.079 466.583 M 608.079 466.583 C 608.127 467.748, 608.364 467.985, 608.683 467.188 C 608.972 466.466, 608.936 465.603, 608.604 465.271 C 608.272 464.939, 608.036 465.529, 608.079 466.583 M 32.079 470.583 C 32.127 471.748, 32.364 471.985, 32.683 471.188 C 32.972 470.466, 32.936 469.603, 32.604 469.271 C 32.272 468.939, 32.036 469.529, 32.079 470.583 M 608.079 470.583 C 608.127 471.748, 608.364 471.985, 608.683 471.188 C 608.972 470.466, 608.936 469.603, 608.604 469.271 C 608.272 468.939, 608.036 469.529, 608.079 470.583 M 11.455 475.455 C 10.105 476.805, 9 478.339, 9 478.865 C 9 479.844, 22.502 479.831, 23.483 478.851 C 23.778 478.555, 22.912 477.118, 21.558 475.657 C 18.457 472.311, 14.674 472.235, 11.455 475.455 M 32.079 474.583 C 32.127 475.748, 32.364 475.985, 32.683 475.188 C 32.972 474.466, 32.936 473.603, 32.604 473.271 C 32.272 472.939, 32.036 473.529, 32.079 474.583 M 608.079 474.583 C 608.127 475.748, 608.364 475.985, 608.683 475.188 C 608.972 474.466, 608.936 473.603, 608.604 473.271 C 608.272 472.939, 608.036 473.529, 608.079 474.583 M 619.455 475.455 C 618.105 476.805, 617 478.339, 617 478.865 C 617 479.844, 630.502 479.831, 631.483 478.851 C 631.778 478.555, 630.912 477.118, 629.558 475.657 C 626.457 472.311, 622.674 472.235, 619.455 475.455 M 16.387 476.183 C 16.098 476.650, 15.494 476.805, 15.044 476.527 C 14.595 476.249, 13.755 476.590, 13.179 477.284 C 12.359 478.273, 13.296 478.545, 17.515 478.545 C 22.395 478.545, 22.763 478.395, 21.445 476.939 C 19.876 475.206, 17.235 474.811, 16.387 476.183 M 624.387 476.183 C 624.098 476.650, 623.494 476.805, 623.044 476.527 C 622.595 476.249, 621.755 476.590, 621.179 477.284 C 620.359 478.273, 621.296 478.545, 625.515 478.545 C 630.395 478.545, 630.763 478.395, 629.445 476.939 C 627.876 475.206, 625.235 474.811, 624.387 476.183 M 16.569 476.889 C 16.327 477.280, 17.210 477.600, 18.531 477.600 C 19.852 477.600, 20.710 477.377, 20.438 477.104 C 19.609 476.276, 17.036 476.133, 16.569 476.889 M 624.569 476.889 C 624.327 477.280, 625.210 477.600, 626.531 477.600 C 627.852 477.600, 628.710 477.377, 628.438 477.104 C 627.609 476.276, 625.036 476.133, 624.569 476.889 M 32.079 478.583 C 32.127 479.748, 32.364 479.985, 32.683 479.188 C 32.972 478.466, 32.936 477.603, 32.604 477.271 C 32.272 476.939, 32.036 477.529, 32.079 478.583 M 608.079 478.583 C 608.127 479.748, 608.364 479.985, 608.683 479.188 C 608.972 478.466, 608.936 477.603, 608.604 477.271 C 608.272 476.939, 608.036 477.529, 608.079 478.583" stroke="none" fill="black" fill-rule="evenodd"/>
</svg>