<svg xmlns="http://www.w3.org/2000/svg" width="32" height="16" viewBox="0 0 32 16" version="1.1">
	<path d="M 0 8.055 L 0 16.110 16.250 15.805 L 32.500 15.500 32.792 7.750 L 33.084 0 16.542 0 L 0 0 0 8.055 M 0.343 8.500 C 0.346 12.900, 0.522 14.576, 0.733 12.224 C 0.945 9.872, 0.942 6.272, 0.727 4.224 C 0.512 2.176, 0.339 4.100, 0.343 8.500 M 21 2.046 C 19.905 2.787, 20.309 2.880, 22.500 2.390 C 26.177 1.567, 26.975 0.995, 24.417 1.015 C 23.363 1.024, 21.825 1.487, 21 2.046 M 23.079 5.680 C 23.027 7.113, 22.228 8.010, 20.750 8.294 L 18.500 8.728 20.781 8.864 C 23.150 9.005, 24.567 7.007, 23.673 4.783 C 23.390 4.077, 23.122 4.481, 23.079 5.680 M 9.553 5.915 C 9.231 6.436, 9.394 7.125, 9.915 7.447 C 10.436 7.769, 11.125 7.606, 11.447 7.085 C 11.769 6.564, 11.606 5.875, 11.085 5.553 C 10.564 5.231, 9.875 5.394, 9.553 5.915 M 17.158 8 C 17.158 9.375, 17.385 9.938, 17.662 9.250 C 17.940 8.563, 17.940 7.438, 17.662 6.750 C 17.385 6.063, 17.158 6.625, 17.158 8 M 27.750 8.167 C 26.269 9.718, 26.236 10, 27.531 10 C 28.374 10, 29.329 9.306, 29.655 8.457 C 30.522 6.196, 29.744 6.078, 27.750 8.167 M 31.136 8.250 C 31.061 9.762, 30.100 11.900, 29 13 C 27.900 14.100, 27.440 15, 27.977 15 C 29.681 15, 32.172 10.206, 31.713 7.808 C 31.322 5.758, 31.257 5.807, 31.136 8.250 M 22.762 12.707 C 24.006 12.946, 25.806 12.937, 26.762 12.687 C 27.718 12.437, 26.700 12.241, 24.500 12.252 C 22.300 12.263, 21.518 12.468, 22.762 12.707" stroke="none" fill="black" fill-rule="evenodd"/>
</svg>