<svg xmlns="http://www.w3.org/2000/svg" width="32" height="16" viewBox="0 0 32 16" version="1.1">
	<path d="M 0 8.025 L 0 16.050 16.250 15.775 L 32.500 15.500 32.792 7.750 L 33.084 0 16.542 0 L 0 0 0 8.025 M 0.343 8.500 C 0.346 12.900, 0.522 14.576, 0.733 12.224 C 0.945 9.872, 0.942 6.272, 0.727 4.224 C 0.512 2.176, 0.339 4.100, 0.343 8.500 M 19.015 3.750 C 19.026 4.930, 19.278 5.111, 19.789 4.307 C 20.207 3.650, 23.237 2.948, 26.524 2.746 L 32.500 2.378 25.750 2.189 C 19.911 2.026, 19.002 2.236, 19.015 3.750 M 19.079 7.583 C 19.127 8.748, 19.364 8.985, 19.683 8.188 C 19.972 7.466, 19.936 6.603, 19.604 6.271 C 19.272 5.939, 19.036 6.529, 19.079 7.583 M 23.015 7.750 C 23.025 8.861, 23.299 9.086, 23.765 8.366 C 24.169 7.742, 25.400 7.007, 26.500 6.732 C 28.033 6.349, 27.858 6.205, 25.750 6.116 C 23.748 6.032, 23.004 6.476, 23.015 7.750 M 31.079 7.583 C 31.127 8.748, 31.364 8.985, 31.683 8.188 C 31.972 7.466, 31.936 6.603, 31.604 6.271 C 31.272 5.939, 31.036 6.529, 31.079 7.583 M 8 11 C 8 12.111, 8.667 13, 9.500 13 C 10.333 13, 11 12.111, 11 11 C 11 9.889, 10.333 9, 9.500 9 C 8.667 9, 8 9.889, 8 11 M 19.079 11.583 C 19.127 12.748, 19.364 12.985, 19.683 12.188 C 19.972 11.466, 19.936 10.603, 19.604 10.271 C 19.272 9.939, 19.036 10.529, 19.079 11.583 M 23.079 11.583 C 23.127 12.748, 23.364 12.985, 23.683 12.188 C 23.972 11.466, 23.936 10.603, 23.604 10.271 C 23.272 9.939, 23.036 10.529, 23.079 11.583 M 27.079 11.583 C 27.127 12.748, 27.364 12.985, 27.683 12.188 C 27.972 11.466, 27.936 10.603, 27.604 10.271 C 27.272 9.939, 27.036 10.529, 27.079 11.583 M 31.079 11.583 C 31.127 12.748, 31.364 12.985, 31.683 12.188 C 31.972 11.466, 31.936 10.603, 31.604 10.271 C 31.272 9.939, 31.036 10.529, 31.079 11.583 M 20.776 14.733 C 23.128 14.945, 26.728 14.942, 28.776 14.727 C 30.824 14.512, 28.900 14.339, 24.500 14.343 C 20.100 14.346, 18.424 14.522, 20.776 14.733" stroke="none" fill="black" fill-rule="evenodd"/>
</svg>