<svg xmlns="http://www.w3.org/2000/svg" width="32" height="16" viewBox="0 0 32 16" version="1.1">
	<path d="M 0 8 L 0 16 9.500 16 C 16.425 16, 19.004 15.661, 19.015 14.750 C 19.026 13.917, 19.354 14, 20 15 C 20.862 16.333, 20.973 16.333, 21 15 C 21.027 13.667, 21.138 13.667, 22 15 C 22.862 16.333, 22.973 16.333, 23 15 C 23.027 13.667, 23.138 13.667, 24 15 C 24.862 16.333, 24.973 16.333, 25 15 C 25.027 13.667, 25.138 13.667, 26 15 C 26.862 16.333, 26.973 16.333, 27 15 C 27.027 13.667, 27.138 13.667, 28 15 C 28.862 16.333, 28.973 16.333, 29 15 C 29.027 13.667, 29.138 13.667, 30 15 C 30.704 16.090, 30.974 16.142, 30.985 15.191 C 30.993 14.471, 31.450 14.160, 32 14.500 C 32.633 14.891, 33 12.344, 33 7.559 L 33 0 16.500 0 L 0 0 0 8 M 0.343 8.500 C 0.346 12.900, 0.522 14.576, 0.733 12.224 C 0.945 9.872, 0.942 6.272, 0.727 4.224 C 0.512 2.176, 0.339 4.100, 0.343 8.500 M 19.015 3.750 C 19.026 4.930, 19.278 5.111, 19.789 4.307 C 20.207 3.650, 23.237 2.948, 26.524 2.746 L 32.500 2.378 25.750 2.189 C 19.911 2.026, 19.002 2.236, 19.015 3.750 M 20.211 7.601 C 19.501 8.370, 19.362 9, 19.902 9 C 20.940 9, 22.443 7.098, 21.850 6.534 C 21.658 6.351, 20.920 6.831, 20.211 7.601 M 26.079 7.583 C 26.127 8.748, 26.364 8.985, 26.683 8.188 C 26.972 7.466, 26.936 6.603, 26.604 6.271 C 26.272 5.939, 26.036 6.529, 26.079 7.583 M 29.459 7.067 C 28.383 8.808, 29.608 9.177, 30.980 7.524 C 31.769 6.574, 31.845 6, 31.181 6 C 30.597 6, 29.821 6.480, 29.459 7.067 M 20.211 11.601 C 19.501 12.370, 19.362 13, 19.902 13 C 20.940 13, 22.443 11.098, 21.850 10.534 C 21.658 10.351, 20.920 10.831, 20.211 11.601 M 23.500 11 C 23.160 11.550, 23.359 12, 23.941 12 C 24.523 12, 25 11.550, 25 11 C 25 10.450, 24.802 10, 24.559 10 C 24.316 10, 23.840 10.450, 23.500 11 M 27.584 11.641 C 27.113 12.869, 27.275 13.029, 28.227 12.276 C 28.927 11.722, 30.175 11.019, 31 10.713 C 32.024 10.334, 31.820 10.133, 30.357 10.079 C 29.178 10.036, 27.931 10.739, 27.584 11.641" stroke="none" fill="black" fill-rule="evenodd"/>
</svg>