<svg xmlns="http://www.w3.org/2000/svg" width="32" height="16" viewBox="0 0 32 16" version="1.1">
	<path d="M 0 8 L 0 16 10.250 15.976 C 15.888 15.963, 22.184 15.561, 24.243 15.083 C 26.630 14.529, 27.769 14.565, 27.387 15.184 C 27.038 15.748, 27.980 16.017, 29.644 15.827 C 32.482 15.502, 32.502 15.452, 32.792 7.750 L 33.084 0 16.542 0 L 0 0 0 8 M 0.343 8.500 C 0.346 12.900, 0.522 14.576, 0.733 12.224 C 0.945 9.872, 0.942 6.272, 0.727 4.224 C 0.512 2.176, 0.339 4.100, 0.343 8.500 M 4.583 3.866 C 4.288 4.343, 4.864 5.471, 5.861 6.374 C 7.548 7.901, 7.793 7.887, 9.340 6.177 C 10.255 5.165, 10.703 4.037, 10.336 3.669 C 9.370 2.703, 5.213 2.846, 4.583 3.866 M 21.589 3.856 C 21.298 4.326, 22.172 4.499, 23.530 4.239 C 24.889 3.979, 26 3.594, 26 3.383 C 26 2.610, 22.101 3.027, 21.589 3.856 M 18.374 7.467 C 18.065 8.274, 18.004 9.511, 18.240 10.217 C 18.476 10.923, 18.906 10.262, 19.196 8.750 C 19.762 5.797, 19.295 5.068, 18.374 7.467 M 29.881 9.781 C 29.552 11.769, 29.698 12.702, 30.253 12.147 C 30.757 11.643, 31.002 10.166, 30.797 8.865 C 30.482 6.864, 30.342 7.004, 29.881 9.781 M 8 11.500 C 8 14.463, 9.075 14.679, 11.345 12.171 C 13.608 9.671, 13.429 9, 10.500 9 C 8.500 9, 8 9.500, 8 11.500 M 24.136 11.750 C 24.248 14.014, 24.348 14.113, 24.698 12.311 C 24.943 11.048, 26.048 9.943, 27.311 9.698 C 29.113 9.348, 29.014 9.248, 26.750 9.136 C 24.354 9.018, 24.018 9.354, 24.136 11.750 M 17.813 14.683 C 18.534 14.972, 19.397 14.936, 19.729 14.604 C 20.061 14.272, 19.471 14.036, 18.417 14.079 C 17.252 14.127, 17.015 14.364, 17.813 14.683 M 29.813 14.683 C 30.534 14.972, 31.397 14.936, 31.729 14.604 C 32.061 14.272, 31.471 14.036, 30.417 14.079 C 29.252 14.127, 29.015 14.364, 29.813 14.683" stroke="none" fill="black" fill-rule="evenodd"/>
</svg>