<svg xmlns="http://www.w3.org/2000/svg" width="16" height="16" viewBox="0 0 16 16" version="1.1">
	<path d="M 0 8.040 L 0 16.081 8.250 15.790 L 16.500 15.500 16.792 7.750 L 17.084 0 8.542 0 L 0 0 0 8.040 M 0.343 8.500 C 0.346 12.900, 0.522 14.576, 0.733 12.224 C 0.945 9.872, 0.942 6.272, 0.727 4.224 C 0.512 2.176, 0.339 4.100, 0.343 8.500 M 11.425 3.878 C 11.723 4.361, 10.625 5.025, 8.984 5.353 C 7.008 5.748, 6.005 6.549, 6.015 7.725 C 6.027 9.052, 6.240 9.170, 6.860 8.192 C 7.433 7.289, 8.590 7.121, 10.595 7.648 L 13.500 8.412 10.500 9.088 L 7.500 9.763 10.281 9.882 C 11.913 9.951, 13.300 9.382, 13.636 8.506 C 13.952 7.684, 14.725 7.306, 15.355 7.667 C 15.985 8.028, 15.409 7.125, 14.076 5.661 C 11.695 3.048, 10.354 2.146, 11.425 3.878 M 4.325 10 C 4.488 13.253, 4.747 13.516, 8 13.723 C 10.792 13.900, 11.095 13.763, 9.500 13.043 C 7.739 12.248, 7.858 12.119, 10.500 11.963 C 13.207 11.803, 13.091 11.694, 9.314 10.847 C 6.794 10.281, 4.934 9.230, 4.639 8.204 C 4.370 7.267, 4.228 8.075, 4.325 10 M 2.232 11 C 2.232 12.925, 2.438 13.713, 2.689 12.750 C 2.941 11.787, 2.941 10.213, 2.689 9.250 C 2.438 8.287, 2.232 9.075, 2.232 11" stroke="none" fill="black" fill-rule="evenodd"/>
</svg>