<svg xmlns="http://www.w3.org/2000/svg" width="32" height="16" viewBox="0 0 32 16" version="1.1">
	<path d="M 0 8.025 L 0 16.050 16.250 15.775 L 32.500 15.500 32.792 7.750 L 33.084 0 16.542 0 L 0 0 0 8.025 M 0.206 8.500 C 0.186 14.646, 0.382 15.805, 1.052 13.500 C 1.910 10.548, 2.019 10.505, 7.843 10.833 L 13.762 11.166 14.180 7.583 L 14.598 4 7.873 4 C 2.308 4, 1.068 3.698, 0.689 2.250 C 0.438 1.287, 0.220 4.100, 0.206 8.500 M 17.168 8.250 L 17.336 12.500 17.726 8.794 L 18.115 5.089 24.808 4.740 L 31.500 4.392 24.250 4.196 L 17 4 17.168 8.250 M 5.750 7.706 C 6.988 7.944, 9.012 7.944, 10.250 7.706 C 11.488 7.467, 10.475 7.272, 8 7.272 C 5.525 7.272, 4.512 7.467, 5.750 7.706 M 22.750 8.706 C 23.988 8.944, 26.012 8.944, 27.250 8.706 C 28.488 8.467, 27.475 8.272, 25 8.272 C 22.525 8.272, 21.512 8.467, 22.750 8.706 M 5.750 9.706 C 6.988 9.944, 9.012 9.944, 10.250 9.706 C 11.488 9.467, 10.475 9.272, 8 9.272 C 5.525 9.272, 4.512 9.467, 5.750 9.706 M 22.750 10.706 C 23.988 10.944, 26.012 10.944, 27.250 10.706 C 28.488 10.467, 27.475 10.272, 25 10.272 C 22.525 10.272, 21.512 10.467, 22.750 10.706 M 20.776 13.733 C 23.128 13.945, 26.728 13.942, 28.776 13.727 C 30.824 13.512, 28.900 13.339, 24.500 13.343 C 20.100 13.346, 18.424 13.522, 20.776 13.733" stroke="none" fill="black" fill-rule="evenodd"/>
</svg>