<svg xmlns="http://www.w3.org/2000/svg" width="32" height="16" viewBox="0 0 32 16" version="1.1">
	<path d="M 0.030 2.750 C 0.056 5.068, 0.218 5.230, 1.062 3.782 C 1.613 2.837, 2.837 1.613, 3.782 1.062 C 5.230 0.218, 5.068 0.056, 2.750 0.030 C 0.402 0.004, 0.004 0.402, 0.030 2.750 M 12.545 2.455 C 15.774 5.683, 15.676 9.420, 12.275 12.795 C 9.922 15.130, 9.501 15.260, 9.201 13.750 C 9.010 12.788, 8.244 12, 7.500 12 C 6.756 12, 5.990 12.787, 5.799 13.750 C 5.499 15.260, 5.078 15.130, 2.725 12.795 L -0 10.091 -0 13.100 L 0 16.110 16.250 15.805 L 32.500 15.500 32.794 12 L 33.087 8.500 31.058 11.750 C 29.942 13.538, 28.487 15, 27.824 15 C 27.160 15, 27.403 14.425, 28.364 13.723 C 30.089 12.462, 31.930 6.615, 31.976 2.250 C 31.999 0.052, 31.746 0, 21.045 0 L 10.091 0 12.545 2.455 M 19.455 3.455 C 18.105 4.805, 17.025 6.942, 17.056 8.205 C 17.100 9.986, 17.380 9.717, 18.306 7 C 19.208 4.357, 20.357 3.208, 23 2.306 C 25.717 1.380, 25.986 1.100, 24.205 1.056 C 22.942 1.025, 20.805 2.105, 19.455 3.455 M 5.200 3.200 C 3.931 4.469, 3.558 7, 4.640 7 C 4.992 7, 5.920 6.213, 6.702 5.250 C 7.970 3.689, 8.060 3.932, 7.529 7.500 L 6.934 11.500 8.945 9 C 11.279 6.098, 11.461 4.861, 9.800 3.200 C 8.275 1.675, 6.725 1.675, 5.200 3.200 M 21.638 5.500 C 21.322 6.325, 21.306 7, 21.603 7 C 21.900 7, 22.818 6.325, 23.643 5.500 C 24.944 4.199, 24.949 4, 23.678 4 C 22.873 4, 21.955 4.675, 21.638 5.500 M 25.750 7.531 C 23.262 10.865, 23.570 12.816, 26.080 9.625 C 27.224 8.171, 28.012 6.577, 27.830 6.083 C 27.649 5.589, 26.712 6.241, 25.750 7.531 M 0.232 13 C 0.232 14.925, 0.438 15.713, 0.689 14.750 C 0.941 13.787, 0.941 12.213, 0.689 11.250 C 0.438 10.287, 0.232 11.075, 0.232 13" stroke="none" fill="black" fill-rule="evenodd"/>
</svg>