<svg xmlns="http://www.w3.org/2000/svg" width="32" height="16" viewBox="0 0 32 16" version="1.1">
	<path d="M 0 8.088 L 0 16.176 15.110 15.719 C 25.659 15.400, 30.452 14.887, 30.989 14.018 C 31.589 13.047, 31.877 13.074, 32.300 14.137 C 32.598 14.887, 32.878 12.013, 32.921 7.750 L 33 0 21.378 0 C 10.681 0, 9.864 0.132, 11.128 1.653 C 11.882 2.562, 12.550 4.925, 12.610 6.903 C 12.671 8.881, 12.896 11.124, 13.110 11.887 C 13.347 12.728, 12.376 13.590, 10.641 14.079 C 9.068 14.523, 8.003 14.664, 8.274 14.393 C 8.545 14.122, 8.416 12.344, 7.987 10.443 C 7.279 7.301, 7.435 6.929, 9.699 6.361 C 11.069 6.017, 11.777 5.458, 11.272 5.118 C 10.767 4.778, 10.064 3.712, 9.708 2.750 C 9.353 1.788, 8.175 1, 7.090 1 C 4.983 1, 3.371 2.705, 4.454 3.788 C 4.814 4.148, 5.510 3.793, 6 3 C 7.112 1.201, 8.457 2.367, 7.661 4.440 C 7.322 5.325, 6.425 5.716, 5.525 5.371 C 4.672 5.044, 3.305 5.332, 2.487 6.011 C 0.326 7.804, 0.469 4.244, 2.655 1.829 C 4.210 0.111, 4.179 0, 2.155 0 C 0.126 0, 0 0.473, 0 8.088 M 0 8.500 C 0 12.808, 0.291 16.043, 0.646 15.688 C 1.360 14.973, 1.193 1.860, 0.461 1.127 C 0.207 0.874, 0 4.192, 0 8.500 M 21.638 3.500 C 21.322 4.325, 21.451 5, 21.924 5 C 22.398 5, 23.045 4.325, 23.362 3.500 C 23.678 2.675, 23.549 2, 23.076 2 C 22.602 2, 21.955 2.675, 21.638 3.500 M 2.630 8.250 C 1.707 11.696, 1.831 11.993, 4.250 12.100 C 6.391 12.195, 6.378 12.234, 4 12.915 L 1.500 13.631 4.092 14.147 C 6.527 14.631, 6.669 14.445, 6.435 11.081 C 6.298 9.112, 6.145 7.162, 6.093 6.750 C 5.878 5.015, 3.185 6.182, 2.630 8.250 M 18.975 8.565 C 18.439 9.976, 18.036 11.663, 18.079 12.315 C 18.122 12.967, 18.640 12.150, 19.229 10.500 C 19.818 8.850, 20.795 7.169, 21.400 6.765 C 22.155 6.261, 22.101 6.026, 21.225 6.015 C 20.524 6.007, 19.512 7.154, 18.975 8.565 M 24 7.500 C 22.416 9.408, 23.902 9.389, 26.441 7.468 C 27.995 6.293, 28.069 6, 26.814 6 C 25.951 6, 24.685 6.675, 24 7.500 M 24.079 11.583 C 24.127 12.748, 24.364 12.985, 24.683 12.188 C 24.972 11.466, 24.936 10.603, 24.604 10.271 C 24.272 9.939, 24.036 10.529, 24.079 11.583 M 9.750 12.662 C 10.438 12.940, 11.563 12.940, 12.250 12.662 C 12.938 12.385, 12.375 12.158, 11 12.158 C 9.625 12.158, 9.063 12.385, 9.750 12.662" stroke="none" fill="black" fill-rule="evenodd"/>
</svg>