<svg xmlns="http://www.w3.org/2000/svg" width="32" height="16" viewBox="0 0 32 16" version="1.1">
	<path d="M 0.314 8.001 L 0.129 16 6.236 16 C 10.515 16, 12.890 15.505, 14.171 14.345 C 15.875 12.804, 16 12.806, 16 14.385 C 16 15.866, 17.046 16.044, 24.250 15.790 L 32.500 15.500 32.500 7.752 L 32.500 0.003 16.500 0.003 L 0.500 0.003 0.314 8.001 M 6.677 1.696 C 7.875 1.929, 9.393 2.768, 10.050 3.560 C 11.044 4.758, 10.762 4.988, 8.372 4.930 C 5.835 4.868, 5.734 4.754, 7.500 3.957 C 9.095 3.237, 8.792 3.100, 6 3.277 C 2.827 3.479, 2.500 3.781, 2.500 6.500 C 2.500 8.971, 2.941 9.541, 5 9.733 C 7.250 9.942, 7.300 9.874, 5.500 9.053 C 3.860 8.305, 4.220 8.107, 7.500 7.952 C 11.354 7.770, 11.390 7.737, 8.500 7.046 L 5.500 6.329 8.500 5.915 C 10.691 5.612, 11.586 4.894, 11.820 3.250 C 12.106 1.235, 11.740 1.014, 8.320 1.136 C 6.154 1.213, 5.443 1.456, 6.677 1.696 M 22.762 1.707 C 24.006 1.946, 25.806 1.937, 26.762 1.687 C 27.718 1.437, 26.700 1.241, 24.500 1.252 C 22.300 1.263, 21.518 1.468, 22.762 1.707 M 13 3 C 13 3.550, 13.477 4, 14.059 4 C 14.641 4, 14.840 3.550, 14.500 3 C 14.160 2.450, 13.684 2, 13.441 2 C 13.198 2, 13 2.450, 13 3 M 19.250 3.662 C 18.563 3.940, 18.045 5.367, 18.100 6.833 L 18.199 9.500 18.894 7.002 C 19.368 5.298, 20.529 4.303, 22.545 3.870 C 25.178 3.306, 25.227 3.232, 23 3.197 C 21.625 3.176, 19.938 3.385, 19.250 3.662 M 13.128 6.692 C 14.299 8.136, 14.292 8.259, 13.080 7.528 C 12.025 6.892, 11.819 7.086, 12.279 8.285 C 12.735 9.472, 12.472 9.735, 11.285 9.279 C 10.086 8.819, 9.892 9.025, 10.528 10.080 C 11.259 11.292, 11.136 11.299, 9.692 10.128 C 8.589 9.233, 8 9.146, 8 9.878 C 8 10.495, 7.325 11, 6.500 11 C 5.675 11, 5 11.811, 5 12.802 C 5 14.198, 5.844 14.628, 8.750 14.712 C 13.661 14.855, 14.884 13.690, 14.818 8.930 C 14.780 6.122, 14.335 5, 13.260 5 C 11.972 5, 11.953 5.244, 13.128 6.692 M 23.750 5.662 C 24.438 5.940, 25.563 5.940, 26.250 5.662 C 26.938 5.385, 26.375 5.158, 25 5.158 C 23.625 5.158, 23.063 5.385, 23.750 5.662 M 23.750 7.662 C 24.438 7.940, 25.563 7.940, 26.250 7.662 C 26.938 7.385, 26.375 7.158, 25 7.158 C 23.625 7.158, 23.063 7.385, 23.750 7.662 M 27.211 8.601 C 26.501 9.370, 26.362 10, 26.902 10 C 27.940 10, 29.443 8.098, 28.850 7.534 C 28.658 7.351, 27.920 7.831, 27.211 8.601 M 0.252 12.500 C 0.263 14.700, 0.468 15.482, 0.707 14.238 C 0.946 12.994, 0.937 11.194, 0.687 10.238 C 0.437 9.282, 0.241 10.300, 0.252 12.500 M 24 9.833 C 24 10.475, 23.325 11, 22.500 11 C 21.588 11, 21.031 11.882, 21.079 13.250 C 21.132 14.769, 21.347 15.013, 21.741 14 C 22.062 13.175, 23.038 11.974, 23.911 11.332 C 24.783 10.689, 25.160 9.827, 24.748 9.415 C 24.337 9.003, 24 9.192, 24 9.833 M 7.207 12.250 C 6.428 13.189, 6.749 13.500, 8.500 13.500 C 10.251 13.500, 10.572 13.189, 9.793 12.250 C 9.222 11.563, 8.640 11, 8.500 11 C 8.360 11, 7.778 11.563, 7.207 12.250" stroke="none" fill="black" fill-rule="evenodd"/>
</svg>