<svg xmlns="http://www.w3.org/2000/svg" width="32" height="16" viewBox="0 0 32 16" version="1.1">
	<path d="M -0 8.152 L -0 16.303 14.718 15.608 C 24.436 15.149, 29.697 14.503, 30.203 13.706 C 30.721 12.890, 30.974 13.085, 30.985 14.309 C 30.993 15.304, 31.450 15.840, 32 15.500 C 32.550 15.160, 33 11.534, 33 7.441 L 33 0 16.500 0 L 0 0 -0 8.152 M 0.343 8.500 C 0.346 12.900, 0.522 14.576, 0.733 12.224 C 0.945 9.872, 0.942 6.272, 0.727 4.224 C 0.512 2.176, 0.339 4.100, 0.343 8.500 M 27.824 4.324 C 26.353 6.061, 25.356 7.689, 25.610 7.943 C 26.293 8.626, 31.198 3.079, 30.822 2.049 C 30.645 1.563, 29.296 2.587, 27.824 4.324 M 4 3.607 C 4 4.609, 4.553 5.002, 5.468 4.651 C 6.275 4.341, 7.245 4.587, 7.622 5.198 C 8.036 5.867, 7.854 6.028, 7.166 5.603 C 6.455 5.163, 6.225 5.422, 6.557 6.288 C 6.851 7.053, 6.396 8.257, 5.546 8.962 C 3.925 10.307, 3.427 13, 4.800 13 C 5.240 13, 6.206 12.438, 6.947 11.750 C 7.687 11.063, 8.034 10.969, 7.716 11.542 C 7.398 12.116, 7.999 12.650, 9.051 12.729 C 10.866 12.866, 10.879 12.745, 9.314 10.356 C 7.776 8.010, 7.781 7.640, 9.389 4.919 L 11.113 2 7.557 2 C 4.957 2, 4 2.432, 4 3.607 M 20.015 3.750 C 20.025 4.886, 20.290 5.093, 20.769 4.340 C 21.174 3.702, 22.855 2.982, 24.503 2.740 C 27.221 2.341, 27.151 2.286, 23.750 2.150 C 20.783 2.031, 20.003 2.365, 20.015 3.750 M 21.494 10.006 C 20.496 11.110, 19.864 12.190, 20.089 12.408 C 20.315 12.626, 21.309 11.723, 22.297 10.402 C 24.479 7.484, 23.994 7.245, 21.494 10.006" stroke="none" fill="black" fill-rule="evenodd"/>
</svg>