<svg xmlns="http://www.w3.org/2000/svg" width="32" height="16" viewBox="0 0 32 16" version="1.1">
	<path d="M 0 8.025 L 0 16.050 16.250 15.775 L 32.500 15.500 32.792 7.750 L 33.084 0 16.542 0 L 0 0 0 8.025 M 0.343 8.500 C 0.346 12.900, 0.522 14.576, 0.733 12.224 C 0.945 9.872, 0.942 6.272, 0.727 4.224 C 0.512 2.176, 0.339 4.100, 0.343 8.500 M 27.437 7.130 C 25.340 9.364, 25.075 9.963, 26.511 9.222 C 29.017 7.930, 32.653 4, 31.342 4 C 30.810 4, 29.052 5.408, 27.437 7.130 M 21.139 13.033 C 19.389 14.491, 19.186 15, 20.354 15 C 21.221 15, 22.411 14.100, 23 13 C 24.314 10.545, 24.122 10.548, 21.139 13.033 M 25.020 13.476 C 24.231 14.426, 24.155 15, 24.819 15 C 26.027 15, 27.436 13.103, 26.743 12.409 C 26.491 12.158, 25.716 12.638, 25.020 13.476 M 29.813 14.683 C 30.534 14.972, 31.397 14.936, 31.729 14.604 C 32.061 14.272, 31.471 14.036, 30.417 14.079 C 29.252 14.127, 29.015 14.364, 29.813 14.683" stroke="none" fill="black" fill-rule="evenodd"/>
</svg>