<svg xmlns="http://www.w3.org/2000/svg" width="32" height="16" viewBox="0 0 32 16" version="1.1">
	<path d="M 0 8 L 0 16 8.849 16 C 13.716 16, 21.141 15.709, 25.349 15.353 L 33 14.707 33 7.353 L 33 0 16.500 0 L 0 0 0 8 M 0.343 8.500 C 0.346 12.900, 0.522 14.576, 0.733 12.224 C 0.945 9.872, 0.942 6.272, 0.727 4.224 C 0.512 2.176, 0.339 4.100, 0.343 8.500 M 8.457 4.931 C 8.774 5.443, 8.575 6.144, 8.016 6.490 C 7.457 6.835, 7 8.666, 7 10.559 C 7 13.907, 7.108 14, 11 14 C 14.778 14, 15 13.833, 15 11 C 15 8.667, 14.556 8, 13 8 C 11.667 8, 11 7.333, 11 6 C 11 4.855, 10.333 4, 9.441 4 C 8.584 4, 8.141 4.419, 8.457 4.931 M 24.813 4.683 C 25.534 4.972, 26.397 4.936, 26.729 4.604 C 27.061 4.272, 26.471 4.036, 25.417 4.079 C 24.252 4.127, 24.015 4.364, 24.813 4.683 M 12 6 C 12 6.550, 12.477 7, 13.059 7 C 13.641 7, 13.840 6.550, 13.500 6 C 13.160 5.450, 12.684 5, 12.441 5 C 12.198 5, 12 5.450, 12 6 M 23.394 7.416 C 23.095 8.194, 23.042 10.107, 23.276 11.666 C 23.641 14.104, 23.721 13.987, 23.850 10.833 C 23.933 8.817, 24.563 6.940, 25.250 6.662 C 26.229 6.267, 26.222 6.141, 25.219 6.079 C 24.514 6.036, 23.693 6.637, 23.394 7.416 M 28.813 8.683 C 29.534 8.972, 30.397 8.936, 30.729 8.604 C 31.061 8.272, 30.471 8.036, 29.417 8.079 C 28.252 8.127, 28.015 8.364, 28.813 8.683 M 20.667 9.667 C 20.300 10.033, 20 10.798, 20 11.367 C 20 11.993, 20.466 11.934, 21.183 11.217 C 21.834 10.566, 22.134 9.801, 21.850 9.517 C 21.566 9.232, 21.033 9.300, 20.667 9.667 M 11.813 11.683 C 12.534 11.972, 13.397 11.936, 13.729 11.604 C 14.061 11.272, 13.471 11.036, 12.417 11.079 C 11.252 11.127, 11.015 11.364, 11.813 11.683 M 28.813 12.683 C 29.534 12.972, 30.397 12.936, 30.729 12.604 C 31.061 12.272, 30.471 12.036, 29.417 12.079 C 28.252 12.127, 28.015 12.364, 28.813 12.683" stroke="none" fill="black" fill-rule="evenodd"/>
</svg>