<svg xmlns="http://www.w3.org/2000/svg" width="32" height="16" viewBox="0 0 32 16" version="1.1">
	<path d="M 0 8 L 0 16 9.778 16 C 18.466 16, 19.755 15.767, 21.349 13.905 C 22.336 12.753, 23.448 12.139, 23.822 12.542 C 24.195 12.944, 23.938 13.475, 23.250 13.720 C 20.808 14.592, 22.050 16, 25.250 15.986 C 32.622 15.955, 33 15.535, 33 7.383 L 33 0 16.500 0 L 0 0 0 8 M 0.343 8.500 C 0.346 12.900, 0.522 14.576, 0.733 12.224 C 0.945 9.872, 0.942 6.272, 0.727 4.224 C 0.512 2.176, 0.339 4.100, 0.343 8.500 M 25.429 6.429 C 24.370 7.203, 23.728 8.061, 24.003 8.336 C 24.278 8.611, 25.370 8.203, 26.429 7.429 C 27.488 6.654, 28.129 5.796, 27.854 5.521 C 27.579 5.246, 26.488 5.654, 25.429 6.429 M 29.500 6 C 29.160 6.550, 29.359 7, 29.941 7 C 30.523 7, 31 6.550, 31 6 C 31 5.450, 30.802 5, 30.559 5 C 30.316 5, 29.840 5.450, 29.500 6 M 19.269 6.693 C 20.242 6.947, 21.592 6.930, 22.269 6.656 C 22.946 6.382, 22.150 6.175, 20.500 6.195 C 18.850 6.215, 18.296 6.439, 19.269 6.693" stroke="none" fill="black" fill-rule="evenodd"/>
</svg>