<svg xmlns="http://www.w3.org/2000/svg" width="32" height="16" viewBox="0 0 32 16" version="1.1">
	<path d="M 0 8.025 L 0 16.050 16.250 15.775 L 32.500 15.500 32.792 7.750 L 33.084 0 16.542 0 L 0 0 0 8.025 M 0.273 8.500 C 0.305 14.693, 0.448 15.483, 0.907 12 C 1.498 7.516, 1.514 7.500, 5.499 7.500 C 8.386 7.500, 9.498 7.917, 9.499 9 C 9.499 9.825, 10.175 10.520, 11 10.545 C 11.825 10.570, 12.376 11.166, 12.225 11.870 C 12.074 12.573, 12.412 12.864, 12.975 12.515 C 13.539 12.167, 14.036 12.696, 14.079 13.691 C 14.131 14.881, 14.340 15.042, 14.691 14.163 C 14.984 13.428, 13.711 11.262, 11.862 9.350 C 10.013 7.438, 8.500 4.890, 8.500 3.687 C 8.500 0.974, 4.932 0.211, 2.698 2.445 C 1.295 3.847, 1.102 3.828, 0.689 2.248 C 0.438 1.287, 0.250 4.100, 0.273 8.500 M 18.655 2.829 C 17.745 3.835, 17.007 5.297, 17.015 6.079 C 17.023 6.860, 17.589 6.394, 18.273 5.043 C 18.957 3.692, 20.637 2.274, 22.008 1.893 C 24.168 1.292, 24.221 1.186, 22.405 1.100 C 21.253 1.045, 19.565 1.823, 18.655 2.829 M 3.667 2.667 C 2.516 3.817, 2.938 5, 4.500 5 C 5.325 5, 6 4.325, 6 3.500 C 6 1.938, 4.817 1.516, 3.667 2.667 M 25.731 3.920 C 25.296 5.583, 25.426 5.974, 26.168 5.232 C 26.750 4.650, 27.028 3.585, 26.788 2.863 C 26.538 2.114, 26.085 2.568, 25.731 3.920 M 20.500 5 C 20.160 5.550, 20.359 6, 20.941 6 C 21.523 6, 22 5.550, 22 5 C 22 4.450, 21.802 4, 21.559 4 C 21.316 4, 20.840 4.450, 20.500 5 M 18.750 9.662 C 19.438 9.940, 20.563 9.940, 21.250 9.662 C 21.938 9.385, 21.375 9.158, 20 9.158 C 18.625 9.158, 18.063 9.385, 18.750 9.662" stroke="none" fill="black" fill-rule="evenodd"/>
</svg>