<svg xmlns="http://www.w3.org/2000/svg" width="160" height="160" viewBox="0 0 160 160" version="1.1">
	<path d="M 75.571 3.571 C 72.344 6.799, 74.646 13, 79.071 13 C 81.361 13, 85 9.624, 85 7.500 C 85 5.376, 81.361 2, 79.071 2 C 78.011 2, 76.436 2.707, 75.571 3.571 M 86.040 17.452 C 83.383 20.653, 87.285 25.570, 90.750 23.388 C 91.713 22.782, 92.650 21.525, 92.833 20.595 C 93.578 16.807, 88.518 14.466, 86.040 17.452 M 69.655 28.829 C 66.426 32.397, 68.881 38, 73.674 38 C 76.186 38, 79 35.002, 79 32.326 C 79 27.745, 72.752 25.407, 69.655 28.829 M 61 61.500 C 61 62.775, 63.556 63, 78 63 C 92.444 63, 95 62.775, 95 61.500 C 95 60.225, 92.444 60, 78 60 C 63.556 60, 61 60.225, 61 61.500 M 69.571 69.571 C 66.175 72.968, 68.688 79, 73.500 79 C 78.312 79, 80.825 72.968, 77.429 69.571 C 76.564 68.707, 74.796 68, 73.500 68 C 72.204 68, 70.436 68.707, 69.571 69.571 M 75.040 88.452 C 72.383 91.653, 76.285 96.570, 79.750 94.388 C 83.212 92.207, 81.979 87, 78 87 C 77.035 87, 75.703 87.653, 75.040 88.452 M 87 116.888 C 73.200 123.124, 68.346 123.142, 58.652 116.994 L 53.835 113.940 52.031 116.220 C 51.038 117.474, 44.819 125.250, 38.210 133.500 L 26.195 148.500 52.097 148.767 C 66.344 148.913, 89.683 148.913, 103.962 148.767 L 129.923 148.500 116.416 132 C 108.988 122.925, 102.169 114.938, 101.264 114.250 C 98.684 112.291, 96.125 112.764, 87 116.888" stroke="none" fill="black" fill-rule="evenodd"/>
</svg>