<svg xmlns="http://www.w3.org/2000/svg" width="160" height="160" viewBox="0 0 160 160" version="1.1">
	<path d="M 21.364 61.157 C 17.211 63.193, 17 65.365, 17 106.047 L 17 145 41.878 145 C 62.771 145, 66.954 145.240, 68 146.500 C 69.798 148.666, 89.202 148.666, 91 146.500 C 92.046 145.240, 96.229 145, 117.122 145 L 142 145 142 105.111 C 142 67.329, 141.899 65.097, 140.089 62.861 L 138.178 60.500 80.839 60.305 C 42.534 60.175, 22.791 60.457, 21.364 61.157 M 78.553 62.915 C 78.231 63.436, 78.394 64.125, 78.915 64.447 C 79.436 64.769, 80.125 64.606, 80.447 64.085 C 80.769 63.564, 80.606 62.875, 80.085 62.553 C 79.564 62.231, 78.875 62.394, 78.553 62.915 M 24.208 68.192 C 22.340 70.060, 22.487 138.329, 24.363 139.886 C 25.349 140.704, 40.909 140.946, 80.613 140.759 L 135.500 140.500 135.500 104 L 135.500 67.500 80.458 67.242 C 38.480 67.045, 25.130 67.270, 24.208 68.192" stroke="none" fill="black" fill-rule="evenodd"/>
</svg>