<svg xmlns="http://www.w3.org/2000/svg" width="32" height="16" viewBox="0 0 32 16" version="1.1">
	<path d="M 0 8.055 L 0 16.110 16.250 15.805 L 32.500 15.500 32.792 7.750 L 33.084 0 16.542 0 L 0 0 0 8.055 M 0.202 8.500 C 0.223 16.164, 0.262 16.300, 1.137 11.737 C 1.696 8.824, 1.688 5.718, 1.115 3.737 C 0.346 1.074, 0.184 1.918, 0.202 8.500 M 3.538 2.348 C 2.476 3.125, 2.009 4.206, 2.436 4.897 C 3.001 5.811, 3.512 5.820, 4.578 4.935 C 5.348 4.296, 5.731 3.374, 5.430 2.887 C 5.129 2.399, 6.060 2, 7.500 2 C 8.940 2, 9.871 2.399, 9.570 2.887 C 9.269 3.374, 9.692 4.329, 10.511 5.009 C 11.330 5.689, 12.007 5.852, 12.015 5.372 C 12.024 4.893, 12.467 5.175, 13 6 C 13.646 7, 13.974 7.083, 13.985 6.250 C 14.010 4.202, 10.172 1, 7.691 1 C 6.421 1, 4.553 1.607, 3.538 2.348 M 19.455 3.455 C 18.105 4.805, 17.025 6.942, 17.056 8.205 C 17.100 9.986, 17.380 9.717, 18.306 7 C 19.208 4.357, 20.357 3.208, 23 2.306 C 25.717 1.380, 25.986 1.100, 24.205 1.056 C 22.942 1.025, 20.805 2.105, 19.455 3.455 M 5.507 5.989 C 5.157 6.555, 5.558 6.723, 6.448 6.382 C 8.180 5.717, 8.497 5, 7.059 5 C 6.541 5, 5.843 5.445, 5.507 5.989 M 21.345 6.543 C 20.478 8.804, 21.256 8.922, 23.250 6.833 C 24.731 5.282, 24.764 5, 23.469 5 C 22.626 5, 21.671 5.694, 21.345 6.543 M 31.136 8.250 C 31.061 9.762, 30.100 11.900, 29 13 C 27.900 14.100, 27.440 15, 27.977 15 C 29.681 15, 32.172 10.206, 31.713 7.808 C 31.322 5.758, 31.257 5.807, 31.136 8.250 M 28.499 9.004 C 28.149 10.106, 26.656 11.663, 25.181 12.464 C 23.240 13.518, 22.983 13.931, 24.250 13.960 C 26.377 14.009, 30 10.568, 30 8.500 C 30 6.385, 29.250 6.637, 28.499 9.004 M 2.436 10.103 C 1.669 11.344, 4.523 14.064, 6.441 13.921 C 7.024 13.878, 6.935 13.614, 6.244 13.336 C 5.553 13.057, 5.210 12.469, 5.483 12.028 C 5.755 11.587, 5.348 10.704, 4.578 10.065 C 3.512 9.180, 3.001 9.189, 2.436 10.103 M 9.872 10.750 C 8.629 12.336, 8.664 12.371, 10.250 11.128 C 11.916 9.821, 12.445 9, 11.622 9 C 11.415 9, 10.627 9.787, 9.872 10.750" stroke="none" fill="black" fill-rule="evenodd"/>
</svg>