<svg xmlns="http://www.w3.org/2000/svg" width="32" height="16" viewBox="0 0 32 16" version="1.1">
	<path d="M 0 8.055 L 0 16.110 16.250 15.805 L 32.500 15.500 32.792 7.750 L 33.084 0 16.542 0 L 0 0 0 8.055 M 0.202 8.500 C 0.223 16.164, 0.262 16.300, 1.137 11.737 C 1.696 8.824, 1.688 5.718, 1.115 3.737 C 0.346 1.074, 0.184 1.918, 0.202 8.500 M 3.750 2.080 C 2.787 2.641, 2 3.597, 2 4.205 C 2 4.813, 2.823 4.565, 3.829 3.655 C 6.485 1.251, 9.558 1.623, 11.927 4.635 C 13.067 6.084, 14 6.759, 14 6.135 C 14 4.181, 10.103 0.999, 7.750 1.030 C 6.512 1.047, 4.713 1.519, 3.750 2.080 M 19.455 3.455 C 18.105 4.805, 17.025 6.942, 17.056 8.205 C 17.100 9.986, 17.380 9.717, 18.306 7 C 19.208 4.357, 20.357 3.208, 23 2.306 C 25.717 1.380, 25.986 1.100, 24.205 1.056 C 22.942 1.025, 20.805 2.105, 19.455 3.455 M 5.507 5.989 C 5.157 6.555, 5.558 6.723, 6.448 6.382 C 8.180 5.717, 8.497 5, 7.059 5 C 6.541 5, 5.843 5.445, 5.507 5.989 M 21.345 6.543 C 20.478 8.804, 21.256 8.922, 23.250 6.833 C 24.731 5.282, 24.764 5, 23.469 5 C 22.626 5, 21.671 5.694, 21.345 6.543 M 31.136 8.250 C 31.061 9.762, 30.100 11.900, 29 13 C 27.900 14.100, 27.440 15, 27.977 15 C 29.681 15, 32.172 10.206, 31.713 7.808 C 31.322 5.758, 31.257 5.807, 31.136 8.250 M 28.499 9.004 C 28.149 10.106, 26.656 11.663, 25.181 12.464 C 23.240 13.518, 22.983 13.931, 24.250 13.960 C 26.377 14.009, 30 10.568, 30 8.500 C 30 6.385, 29.250 6.637, 28.499 9.004 M 2 10.918 C 2 11.930, 5.891 14.455, 6.488 13.831 C 6.662 13.649, 5.723 12.691, 4.402 11.703 C 3.081 10.715, 2 10.362, 2 10.918" stroke="none" fill="black" fill-rule="evenodd"/>
</svg>