<svg xmlns="http://www.w3.org/2000/svg" width="32" height="16" viewBox="0 0 32 16" version="1.1">
	<path d="M 0 8.055 L 0 16.110 16.250 15.805 L 32.500 15.500 32.792 7.750 L 33.084 0 16.542 0 L 0 0 0 8.055 M 0.202 8.500 C 0.223 16.164, 0.262 16.300, 1.137 11.737 C 1.696 8.824, 1.688 5.718, 1.115 3.737 C 0.346 1.074, 0.184 1.918, 0.202 8.500 M 4.060 1.942 C 1.887 3.317, 1.961 11.909, 4.156 13.084 C 6.430 14.301, 7.909 14.234, 6 13 C 4.816 12.235, 5.036 12.027, 7.050 12.015 C 10.292 11.996, 11.996 10.292, 12.015 7.050 C 12.027 5.036, 12.235 4.816, 13 6 C 13.646 7, 13.974 7.083, 13.985 6.250 C 14.030 2.582, 7.516 -0.245, 4.060 1.942 M 19.455 3.455 C 18.105 4.805, 17.025 6.942, 17.056 8.205 C 17.100 9.986, 17.380 9.717, 18.306 7 C 19.208 4.357, 20.357 3.208, 23 2.306 C 25.717 1.380, 25.986 1.100, 24.205 1.056 C 22.942 1.025, 20.805 2.105, 19.455 3.455 M 4.392 3.174 C 3.993 3.820, 3.668 5.957, 3.670 7.924 C 3.674 11.283, 3.850 11.480, 6.587 11.164 C 8.189 10.979, 9.799 10.529, 10.164 10.164 C 11.201 9.127, 11.523 4.636, 10.660 3.250 C 9.676 1.669, 5.355 1.617, 4.392 3.174 M 4.655 3.750 C 4.400 4.162, 5.680 4.500, 7.500 4.500 C 9.320 4.500, 10.600 4.162, 10.345 3.750 C 9.743 2.776, 5.257 2.776, 4.655 3.750 M 5.380 6.452 C 4.375 9.070, 6.028 10.284, 8.076 8.431 C 9.108 7.497, 9.712 6.343, 9.417 5.866 C 8.566 4.488, 5.990 4.862, 5.380 6.452 M 21.345 6.543 C 20.478 8.804, 21.256 8.922, 23.250 6.833 C 24.731 5.282, 24.764 5, 23.469 5 C 22.626 5, 21.671 5.694, 21.345 6.543 M 31.136 8.250 C 31.061 9.762, 30.100 11.900, 29 13 C 27.900 14.100, 27.440 15, 27.977 15 C 29.681 15, 32.172 10.206, 31.713 7.808 C 31.322 5.758, 31.257 5.807, 31.136 8.250 M 28.499 9.004 C 28.149 10.106, 26.656 11.663, 25.181 12.464 C 23.240 13.518, 22.983 13.931, 24.250 13.960 C 26.377 14.009, 30 10.568, 30 8.500 C 30 6.385, 29.250 6.637, 28.499 9.004" stroke="none" fill="black" fill-rule="evenodd"/>
</svg>