<svg xmlns="http://www.w3.org/2000/svg" width="640" height="480" viewBox="0 0 640 480" version="1.1">
	<path d="M 191.250 24.750 C 270.313 24.891, 399.688 24.891, 478.750 24.750 C 557.813 24.609, 493.125 24.493, 335 24.493 C 176.875 24.493, 112.188 24.609, 191.250 24.750 M 190.331 43.750 C 269.988 43.891, 400.038 43.891, 479.331 43.750 C 558.624 43.609, 493.450 43.493, 334.500 43.493 C 175.550 43.493, 110.674 43.609, 190.331 43.750 M 190.331 46.750 C 269.988 46.891, 400.038 46.891, 479.331 46.750 C 558.624 46.609, 493.450 46.493, 334.500 46.493 C 175.550 46.493, 110.674 46.609, 190.331 46.750 M 293.923 52.250 C 293.881 52.388, 293.768 53.963, 293.673 55.750 C 293.548 58.093, 293.933 59, 295.049 59 C 296.231 59, 296.501 58.170, 296.190 55.500 C 295.965 53.575, 295.380 52, 294.891 52 C 294.401 52, 293.965 52.112, 293.923 52.250 M 385.507 52.989 C 385.157 53.555, 385.558 53.723, 386.448 53.382 C 388.430 52.621, 388.465 54.369, 386.500 56 C 384.216 57.896, 384.700 59.013, 387.750 58.884 C 389.580 58.807, 389.889 58.610, 388.675 58.296 C 386.963 57.854, 386.954 57.709, 388.522 55.975 C 389.443 54.958, 389.900 53.648, 389.539 53.063 C 388.712 51.726, 386.315 51.681, 385.507 52.989 M 477.541 52.933 C 477.153 53.562, 477.513 53.740, 478.448 53.382 C 479.302 53.054, 480 53.247, 480 53.810 C 480 54.373, 479.438 55.060, 478.750 55.338 C 477.750 55.741, 477.750 55.858, 478.750 55.921 C 479.438 55.964, 480 56.498, 480 57.107 C 480 57.748, 479.264 57.934, 478.250 57.548 C 476.899 57.033, 476.770 57.153, 477.683 58.074 C 479.609 60.014, 481.912 58.420, 481.674 55.313 C 481.455 52.471, 478.779 50.930, 477.541 52.933 M 571.123 54.629 C 570.464 56.075, 570.082 57.416, 570.274 57.608 C 571.012 58.345, 574.877 58.463, 574.937 57.750 C 575.447 51.674, 573.278 49.899, 571.123 54.629 M 571.638 55.500 C 571.322 56.325, 571.499 57, 572.031 57 C 572.564 57, 573 56.325, 573 55.500 C 573 54.675, 572.823 54, 572.607 54 C 572.391 54, 571.955 54.675, 571.638 55.500 M 190.331 63.750 C 269.988 63.891, 400.038 63.891, 479.331 63.750 C 558.624 63.609, 493.450 63.493, 334.500 63.493 C 175.550 63.493, 110.674 63.609, 190.331 63.750 M 46.189 273.250 C 46.293 387.238, 46.541 477.913, 46.739 474.750 C 46.937 471.587, 47.505 469, 48 469 C 48.495 469, 49.063 471.587, 49.261 474.750 L 49.622 480.500 49.811 474.779 L 50 469.059 65.451 469.059 L 80.902 469.059 81.262 474.779 L 81.622 480.500 81.811 474.750 C 81.915 471.587, 82.428 469, 82.950 469 C 83.473 469, 84.063 471.587, 84.261 474.750 L 84.622 480.500 84.811 474.750 L 85 469 165.950 469 L 246.900 469 247.261 474.750 L 247.622 480.500 247.811 474.750 C 247.915 471.587, 248.428 469, 248.950 469 C 249.473 469, 250.063 471.587, 250.261 474.750 L 250.622 480.500 250.811 474.750 L 251 469 260.950 469 L 270.900 469 271.261 474.750 L 271.622 480.500 271.811 474.821 L 272 469.143 283.452 469.143 L 294.904 469.143 295.263 474.821 L 295.622 480.500 295.811 474.821 L 296 469.143 307.452 469.143 L 318.904 469.143 319.263 474.821 L 319.622 480.500 319.811 474.750 L 320 469 329.950 469 L 339.900 469 340.261 474.750 L 340.622 480.500 340.811 474.750 C 340.915 471.587, 341.428 469, 341.950 469 C 342.473 469, 343.063 471.587, 343.261 474.750 L 343.622 480.500 343.811 474.750 L 344 469 353.950 469 L 363.900 469 364.261 474.750 L 364.622 480.500 364.811 474.750 L 365 469 376.450 469 L 387.900 469 388.261 474.750 L 388.622 480.500 388.811 474.750 L 389 469 400.450 469 L 411.900 469 412.261 474.750 L 412.622 480.500 412.811 474.750 L 413 469 422.950 469 L 432.900 469 433.261 474.750 L 433.622 480.500 433.811 474.750 C 434.056 467.301, 435.794 467.301, 436.261 474.750 L 436.622 480.500 436.811 474.750 L 437 469 446.950 469 L 456.900 469 457.261 474.750 L 457.622 480.500 457.811 474.821 L 458 469.143 469.452 469.143 L 480.904 469.143 481.263 474.821 L 481.622 480.500 481.811 474.821 L 482 469.143 493.452 469.143 L 504.904 469.143 505.263 474.821 L 505.622 480.500 505.811 474.750 L 506 469 515.950 469 L 525.900 469 526.261 474.750 L 526.622 480.500 526.811 474.750 C 526.915 471.587, 527.428 469, 527.950 469 C 528.473 469, 529.063 471.587, 529.261 474.750 L 529.622 480.500 529.811 474.750 L 530 469 539.950 469 L 549.900 469 550.261 474.750 L 550.622 480.500 550.811 474.750 L 551 469 562.450 469 L 573.900 469 574.261 474.750 L 574.622 480.500 574.811 474.750 L 575 469 586.450 469 L 597.900 469 598.261 474.750 L 598.622 480.500 598.811 474.750 L 599 469 608.950 469 L 618.900 469 619.261 474.750 L 619.622 480.500 619.811 474.750 C 619.915 471.587, 620.428 469, 620.950 469 C 621.473 469, 622.063 471.587, 622.261 474.750 C 622.459 477.913, 622.707 387.238, 622.811 273.250 L 623 66 334.500 66 L 46 66 46.189 273.250 M 47 76 C 47 81.333, 47.407 85, 48 85 C 48.593 85, 49 81.333, 49 76 C 49 70.667, 48.593 67, 48 67 C 47.407 67, 47 70.667, 47 76 M 50 76 L 50 85 65.500 85 L 81 85 81 76 L 81 67 65.500 67 L 50 67 50 76 M 82 76 C 82 81.333, 82.407 85, 83 85 C 83.593 85, 84 81.333, 84 76 C 84 70.667, 83.593 67, 83 67 C 82.407 67, 82 70.667, 82 76 M 85 76 L 85 85 166 85 L 247 85 247 76 L 247 67 166 67 L 85 67 85 76 M 248 76 C 248 81.333, 248.407 85, 249 85 C 249.593 85, 250 81.333, 250 76 C 250 70.667, 249.593 67, 249 67 C 248.407 67, 248 70.667, 248 76 M 251 76 L 251 85 295.500 85 L 340 85 340 76 L 340 67 295.500 67 L 251 67 251 76 M 341 76 C 341 81.333, 341.407 85, 342 85 C 342.593 85, 343 81.333, 343 76 C 343 70.667, 342.593 67, 342 67 C 341.407 67, 341 70.667, 341 76 M 344 76 L 344 85 388.500 85 L 433 85 433 76 L 433 67 388.500 67 L 344 67 344 76 M 434 76 C 434 81.333, 434.407 85, 435 85 C 435.593 85, 436 81.333, 436 76 C 436 70.667, 435.593 67, 435 67 C 434.407 67, 434 70.667, 434 76 M 437 76 L 437 85 481.500 85 L 526 85 526 76 L 526 67 481.500 67 L 437 67 437 76 M 527 76 C 527 81.333, 527.407 85, 528 85 C 528.593 85, 529 81.333, 529 76 C 529 70.667, 528.593 67, 528 67 C 527.407 67, 527 70.667, 527 76 M 530 76 L 530 85 574.500 85 L 619 85 619 76 L 619 67 574.500 67 L 530 67 530 76 M 620 76 C 620 81.333, 620.407 85, 621 85 C 621.593 85, 622 81.333, 622 76 C 622 70.667, 621.593 67, 621 67 C 620.407 67, 620 70.667, 620 76 M 47 95 C 47 100.333, 47.407 104, 48 104 C 48.593 104, 49 100.333, 49 95 C 49 89.667, 48.593 86, 48 86 C 47.407 86, 47 89.667, 47 95 M 50 95 L 50 104 65.500 104 L 81 104 81 95 L 81 86 65.500 86 L 50 86 50 95 M 82 95 C 82 100.333, 82.407 104, 83 104 C 83.593 104, 84 100.333, 84 95 C 84 89.667, 83.593 86, 83 86 C 82.407 86, 82 89.667, 82 95 M 85 95 L 85 104 166 104 L 247 104 247 95 L 247 86 166 86 L 85 86 85 95 M 248 95 C 248 100.333, 248.407 104, 249 104 C 249.593 104, 250 100.333, 250 95 C 250 89.667, 249.593 86, 249 86 C 248.407 86, 248 89.667, 248 95 M 251 95 L 251 104 295.500 104 L 340 104 340 95 L 340 86 295.500 86 L 251 86 251 95 M 341 95 C 341 100.333, 341.407 104, 342 104 C 342.593 104, 343 100.333, 343 95 C 343 89.667, 342.593 86, 342 86 C 341.407 86, 341 89.667, 341 95 M 344 95 L 344 104 388.500 104 L 433 104 433 95 L 433 86 388.500 86 L 344 86 344 95 M 434 95 C 434 100.333, 434.407 104, 435 104 C 435.593 104, 436 100.333, 436 95 C 436 89.667, 435.593 86, 435 86 C 434.407 86, 434 89.667, 434 95 M 437 95 L 437 104 481.500 104 L 526 104 526 95 L 526 86 481.500 86 L 437 86 437 95 M 527 95 C 527 100.333, 527.407 104, 528 104 C 528.593 104, 529 100.333, 529 95 C 529 89.667, 528.593 86, 528 86 C 527.407 86, 527 89.667, 527 95 M 530 95 L 530 104 574.500 104 L 619 104 619 95 L 619 86 574.500 86 L 530 86 530 95 M 620 95 C 620 100.333, 620.407 104, 621 104 C 621.593 104, 622 100.333, 622 95 C 622 89.667, 621.593 86, 621 86 C 620.407 86, 620 89.667, 620 95 M 47 114 C 47 119.333, 47.407 123, 48 123 C 48.593 123, 49 119.333, 49 114 C 49 108.667, 48.593 105, 48 105 C 47.407 105, 47 108.667, 47 114 M 50 114 L 50 123 65.500 123 L 81 123 81 114 L 81 105 65.500 105 L 50 105 50 114 M 82 114 C 82 119.333, 82.407 123, 83 123 C 83.593 123, 84 119.333, 84 114 C 84 108.667, 83.593 105, 83 105 C 82.407 105, 82 108.667, 82 114 M 85 114 L 85 123 166 123 L 247 123 247 114 L 247 105 166 105 L 85 105 85 114 M 248 114 C 248 119.333, 248.407 123, 249 123 C 249.593 123, 250 119.333, 250 114 C 250 108.667, 249.593 105, 249 105 C 248.407 105, 248 108.667, 248 114 M 251 114 L 251 123 295.500 123 L 340 123 340 114 L 340 105 295.500 105 L 251 105 251 114 M 341 114 C 341 119.333, 341.407 123, 342 123 C 342.593 123, 343 119.333, 343 114 C 343 108.667, 342.593 105, 342 105 C 341.407 105, 341 108.667, 341 114 M 344 114 L 344 123 388.500 123 L 433 123 433 114 L 433 105 388.500 105 L 344 105 344 114 M 434 114 C 434 119.333, 434.407 123, 435 123 C 435.593 123, 436 119.333, 436 114 C 436 108.667, 435.593 105, 435 105 C 434.407 105, 434 108.667, 434 114 M 437 114 L 437 123 481.500 123 L 526 123 526 114 L 526 105 481.500 105 L 437 105 437 114 M 527 114 C 527 119.333, 527.407 123, 528 123 C 528.593 123, 529 119.333, 529 114 C 529 108.667, 528.593 105, 528 105 C 527.407 105, 527 108.667, 527 114 M 530 114 L 530 123 574.500 123 L 619 123 619 114 L 619 105 574.500 105 L 530 105 530 114 M 620 114 C 620 119.333, 620.407 123, 621 123 C 621.593 123, 622 119.333, 622 114 C 622 108.667, 621.593 105, 621 105 C 620.407 105, 620 108.667, 620 114 M 47 125 C 47 125.550, 47.450 126, 48 126 C 48.550 126, 49 125.550, 49 125 C 49 124.450, 48.550 124, 48 124 C 47.450 124, 47 124.450, 47 125 M 50 125 C 50 125.624, 55.833 126, 65.500 126 C 75.167 126, 81 125.624, 81 125 C 81 124.376, 75.167 124, 65.500 124 C 55.833 124, 50 124.376, 50 125 M 82 125 C 82 125.550, 82.450 126, 83 126 C 83.550 126, 84 125.550, 84 125 C 84 124.450, 83.550 124, 83 124 C 82.450 124, 82 124.450, 82 125 M 85 125 C 85 125.658, 112.667 126, 166 126 C 219.333 126, 247 125.658, 247 125 C 247 124.342, 219.333 124, 166 124 C 112.667 124, 85 124.342, 85 125 M 248 125 C 248 125.550, 248.450 126, 249 126 C 249.550 126, 250 125.550, 250 125 C 250 124.450, 249.550 124, 249 124 C 248.450 124, 248 124.450, 248 125 M 251 125 C 251 125.652, 266.500 126, 295.500 126 C 324.500 126, 340 125.652, 340 125 C 340 124.348, 324.500 124, 295.500 124 C 266.500 124, 251 124.348, 251 125 M 341 125 C 341 125.550, 341.450 126, 342 126 C 342.550 126, 343 125.550, 343 125 C 343 124.450, 342.550 124, 342 124 C 341.450 124, 341 124.450, 341 125 M 344 125 C 344 125.652, 359.500 126, 388.500 126 C 417.500 126, 433 125.652, 433 125 C 433 124.348, 417.500 124, 388.500 124 C 359.500 124, 344 124.348, 344 125 M 434 125 C 434 125.550, 434.450 126, 435 126 C 435.550 126, 436 125.550, 436 125 C 436 124.450, 435.550 124, 435 124 C 434.450 124, 434 124.450, 434 125 M 437 125 C 437 125.652, 452.500 126, 481.500 126 C 510.500 126, 526 125.652, 526 125 C 526 124.348, 510.500 124, 481.500 124 C 452.500 124, 437 124.348, 437 125 M 527 125 C 527 125.550, 527.450 126, 528 126 C 528.550 126, 529 125.550, 529 125 C 529 124.450, 528.550 124, 528 124 C 527.450 124, 527 124.450, 527 125 M 530 125 C 530 125.652, 545.500 126, 574.500 126 C 603.500 126, 619 125.652, 619 125 C 619 124.348, 603.500 124, 574.500 124 C 545.500 124, 530 124.348, 530 125 M 620 125 C 620 125.550, 620.450 126, 621 126 C 621.550 126, 622 125.550, 622 125 C 622 124.450, 621.550 124, 621 124 C 620.450 124, 620 124.450, 620 125 M 47 136 C 47 141.333, 47.407 145, 48 145 C 48.593 145, 49 141.333, 49 136 C 49 130.667, 48.593 127, 48 127 C 47.407 127, 47 130.667, 47 136 M 50 136.029 L 50 145 65.500 145 L 81 145 81 136.029 L 81 127.059 65.500 127.059 L 50 127.059 50 136.029 M 82 136 C 82 141.333, 82.407 145, 83 145 C 83.593 145, 84 141.333, 84 136 C 84 130.667, 83.593 127, 83 127 C 82.407 127, 82 130.667, 82 136 M 85 136 L 85 145 166 145 L 247 145 247 136 L 247 127 166 127 L 85 127 85 136 M 248 136 C 248 141.333, 248.407 145, 249 145 C 249.593 145, 250 141.333, 250 136 C 250 130.667, 249.593 127, 249 127 C 248.407 127, 248 130.667, 248 136 M 251 136 L 251 145 261 145 L 271 145 271 136 L 271 127 261 127 L 251 127 251 136 M 272 136.071 L 272 145 283.500 145 L 295 145 295 136.071 L 295 127.143 283.500 127.143 L 272 127.143 272 136.071 M 296 136.071 L 296 145 307.500 145 L 319 145 319 136.071 L 319 127.143 307.500 127.143 L 296 127.143 296 136.071 M 320 136 L 320 145 330 145 L 340 145 340 136 L 340 127 330 127 L 320 127 320 136 M 341 136 C 341 141.333, 341.407 145, 342 145 C 342.593 145, 343 141.333, 343 136 C 343 130.667, 342.593 127, 342 127 C 341.407 127, 341 130.667, 341 136 M 344 136 L 344 145 354 145 L 364 145 364 136 L 364 127 354 127 L 344 127 344 136 M 365 135.929 L 365 144.857 376.500 144.857 L 388 144.857 388 135.929 L 388 127 376.500 127 L 365 127 365 135.929 M 389 135.929 L 389 144.857 400.500 144.857 L 412 144.857 412 135.929 L 412 127 400.500 127 L 389 127 389 135.929 M 413 136 L 413 145 423 145 L 433 145 433 136 L 433 127 423 127 L 413 127 413 136 M 434 136 C 434 141.333, 434.407 145, 435 145 C 435.593 145, 436 141.333, 436 136 C 436 130.667, 435.593 127, 435 127 C 434.407 127, 434 130.667, 434 136 M 437 136 L 437 145 447 145 L 457 145 457 136 L 457 127 447 127 L 437 127 437 136 M 458 136.071 L 458 145 469.500 145 L 481 145 481 136.071 L 481 127.143 469.500 127.143 L 458 127.143 458 136.071 M 482 136.071 L 482 145 493.500 145 L 505 145 505 136.071 L 505 127.143 493.500 127.143 L 482 127.143 482 136.071 M 506 136 L 506 145 516 145 L 526 145 526 136 L 526 127 516 127 L 506 127 506 136 M 527 136 C 527 141.333, 527.407 145, 528 145 C 528.593 145, 529 141.333, 529 136 C 529 130.667, 528.593 127, 528 127 C 527.407 127, 527 130.667, 527 136 M 530 136 L 530 145 540 145 L 550 145 550 136 L 550 127 540 127 L 530 127 530 136 M 551 135.929 L 551 144.857 562.500 144.857 L 574 144.857 574 135.929 L 574 127 562.500 127 L 551 127 551 135.929 M 575 135.929 L 575 144.857 586.500 144.857 L 598 144.857 598 135.929 L 598 127 586.500 127 L 575 127 575 135.929 M 599 136 L 599 145 609 145 L 619 145 619 136 L 619 127 609 127 L 599 127 599 136 M 620 136 C 620 141.333, 620.407 145, 621 145 C 621.593 145, 622 141.333, 622 136 C 622 130.667, 621.593 127, 621 127 C 620.407 127, 620 130.667, 620 136 M 39.923 138.250 C 39.881 138.387, 39.768 139.963, 39.673 141.750 C 39.548 144.093, 39.933 145, 41.049 145 C 42.231 145, 42.501 144.170, 42.190 141.500 C 41.965 139.575, 41.380 138, 40.891 138 C 40.401 138, 39.965 138.113, 39.923 138.250 M 633.923 138.250 C 633.881 138.387, 633.768 139.963, 633.673 141.750 C 633.548 144.093, 633.933 145, 635.049 145 C 636.231 145, 636.501 144.170, 636.190 141.500 C 635.965 139.575, 635.380 138, 634.891 138 C 634.401 138, 633.965 138.113, 633.923 138.250 M 368.750 145.810 L 365 146.121 365 155.060 L 365 164 376.500 164 L 388 164 388 155 L 388 146 384.750 145.936 C 382.962 145.901, 379.475 145.789, 377 145.686 C 374.525 145.584, 370.813 145.640, 368.750 145.810 M 392.750 145.810 L 389 146.121 389 155.060 L 389 164 400.500 164 L 412 164 412 155 L 412 146 408.750 145.936 C 406.962 145.901, 403.475 145.789, 401 145.686 C 398.525 145.584, 394.813 145.640, 392.750 145.810 M 554.750 145.810 L 551 146.121 551 155.060 L 551 164 562.500 164 L 574 164 574 155 L 574 146 570.750 145.936 C 568.962 145.901, 565.475 145.789, 563 145.686 C 560.525 145.584, 556.813 145.640, 554.750 145.810 M 578.750 145.810 L 575 146.121 575 155.060 L 575 164 586.500 164 L 598 164 598 155 L 598 146 594.750 145.936 C 592.962 145.901, 589.475 145.789, 587 145.686 C 584.525 145.584, 580.813 145.640, 578.750 145.810 M 47 155 C 47 160.333, 47.407 164, 48 164 C 48.593 164, 49 160.333, 49 155 C 49 149.667, 48.593 146, 48 146 C 47.407 146, 47 149.667, 47 155 M 50 154.971 L 50 163.941 65.500 163.941 L 81 163.941 81 154.971 L 81 146 65.500 146 L 50 146 50 154.971 M 82 155 C 82 160.333, 82.407 164, 83 164 C 83.593 164, 84 160.333, 84 155 C 84 149.667, 83.593 146, 83 146 C 82.407 146, 82 149.667, 82 155 M 85 155 L 85 164 166 164 L 247 164 247 155 L 247 146 166 146 L 85 146 85 155 M 248 155 C 248 160.333, 248.407 164, 249 164 C 249.593 164, 250 160.333, 250 155 C 250 149.667, 249.593 146, 249 146 C 248.407 146, 248 149.667, 248 155 M 251 155 L 251 164 261 164 L 271 164 271 155 L 271 146 261 146 L 251 146 251 155 M 272 154.929 L 272 163.857 283.500 163.857 L 295 163.857 295 154.929 L 295 146 283.500 146 L 272 146 272 154.929 M 296 154.929 L 296 163.857 307.500 163.857 L 319 163.857 319 154.929 L 319 146 307.500 146 L 296 146 296 154.929 M 320 155 L 320 164 330 164 L 340 164 340 155 L 340 146 330 146 L 320 146 320 155 M 341 155 C 341 160.333, 341.407 164, 342 164 C 342.593 164, 343 160.333, 343 155 C 343 149.667, 342.593 146, 342 146 C 341.407 146, 341 149.667, 341 155 M 344 155 L 344 164 354 164 L 364 164 364 155 L 364 146 354 146 L 344 146 344 155 M 413 155 L 413 164 423 164 L 433 164 433 155 L 433 146 423 146 L 413 146 413 155 M 434 155 C 434 160.333, 434.407 164, 435 164 C 435.593 164, 436 160.333, 436 155 C 436 149.667, 435.593 146, 435 146 C 434.407 146, 434 149.667, 434 155 M 437 155 L 437 164 447 164 L 457 164 457 155 L 457 146 447 146 L 437 146 437 155 M 458 154.929 L 458 163.857 469.500 163.857 L 481 163.857 481 154.929 L 481 146 469.500 146 L 458 146 458 154.929 M 482 154.929 L 482 163.857 493.500 163.857 L 505 163.857 505 154.929 L 505 146 493.500 146 L 482 146 482 154.929 M 506 155 L 506 164 516 164 L 526 164 526 155 L 526 146 516 146 L 506 146 506 155 M 527 155 C 527 160.333, 527.407 164, 528 164 C 528.593 164, 529 160.333, 529 155 C 529 149.667, 528.593 146, 528 146 C 527.407 146, 527 149.667, 527 155 M 530 155 L 530 164 540 164 L 550 164 550 155 L 550 146 540 146 L 530 146 530 155 M 599 155 L 599 164 609 164 L 619 164 619 155 L 619 146 609 146 L 599 146 599 155 M 620 155 C 620 160.333, 620.407 164, 621 164 C 621.593 164, 622 160.333, 622 155 C 622 149.667, 621.593 146, 621 146 C 620.407 146, 620 149.667, 620 155 M 38.507 157.989 C 38.157 158.555, 38.558 158.723, 39.448 158.382 C 41.430 157.621, 41.465 159.369, 39.500 161 C 37.216 162.896, 37.700 164.013, 40.750 163.884 C 42.580 163.807, 42.889 163.610, 41.675 163.296 C 39.963 162.854, 39.954 162.709, 41.522 160.975 C 42.443 159.958, 42.900 158.648, 42.539 158.063 C 41.712 156.726, 39.315 156.681, 38.507 157.989 M 632.507 157.989 C 632.157 158.555, 632.558 158.723, 633.448 158.382 C 635.430 157.621, 635.465 159.369, 633.500 161 C 631.216 162.896, 631.700 164.013, 634.750 163.884 C 636.580 163.807, 636.889 163.610, 635.675 163.296 C 633.963 162.854, 633.954 162.709, 635.522 160.975 C 636.443 159.958, 636.900 158.648, 636.539 158.063 C 635.712 156.726, 633.315 156.681, 632.507 157.989 M 57.750 164.792 L 50 165.084 50 174.042 L 50 183 65.500 183 L 81 183 81 174.076 L 81 165.152 73.250 164.826 C 68.987 164.647, 62.013 164.631, 57.750 164.792 M 275.750 164.810 L 272 165.121 272 174.060 L 272 183 283.500 183 L 295 183 295 174 L 295 165 291.750 164.936 C 289.962 164.901, 286.475 164.789, 284 164.686 C 281.525 164.584, 277.813 164.640, 275.750 164.810 M 299.750 164.810 L 296 165.121 296 174.060 L 296 183 307.500 183 L 319 183 319 174 L 319 165 315.750 164.936 C 313.962 164.901, 310.475 164.789, 308 164.686 C 305.525 164.584, 301.813 164.640, 299.750 164.810 M 461.750 164.810 L 458 165.121 458 174.060 L 458 183 469.500 183 L 481 183 481 174 L 481 165 477.750 164.936 C 475.962 164.901, 472.475 164.789, 470 164.686 C 467.525 164.584, 463.813 164.640, 461.750 164.810 M 485.750 164.810 L 482 165.121 482 174.060 L 482 183 493.500 183 L 505 183 505 174 L 505 165 501.750 164.936 C 499.962 164.901, 496.475 164.789, 494 164.686 C 491.525 164.584, 487.813 164.640, 485.750 164.810 M 47 174 C 47 179.333, 47.407 183, 48 183 C 48.593 183, 49 179.333, 49 174 C 49 168.667, 48.593 165, 48 165 C 47.407 165, 47 168.667, 47 174 M 82 174 C 82 179.333, 82.407 183, 83 183 C 83.593 183, 84 179.333, 84 174 C 84 168.667, 83.593 165, 83 165 C 82.407 165, 82 168.667, 82 174 M 85 174 L 85 183 166 183 L 247 183 247 174 L 247 165 166 165 L 85 165 85 174 M 248 174 C 248 179.333, 248.407 183, 249 183 C 249.593 183, 250 179.333, 250 174 C 250 168.667, 249.593 165, 249 165 C 248.407 165, 248 168.667, 248 174 M 251 174 L 251 183 261 183 L 271 183 271 174 L 271 165 261 165 L 251 165 251 174 M 320 174 L 320 183 330 183 L 340 183 340 174 L 340 165 330 165 L 320 165 320 174 M 341 174 C 341 179.333, 341.407 183, 342 183 C 342.593 183, 343 179.333, 343 174 C 343 168.667, 342.593 165, 342 165 C 341.407 165, 341 168.667, 341 174 M 344 174 L 344 183 354 183 L 364 183 364 174 L 364 165 354 165 L 344 165 344 174 M 365 173.929 L 365 182.857 376.500 182.857 L 388 182.857 388 173.929 L 388 165 376.500 165 L 365 165 365 173.929 M 389 173.929 L 389 182.857 400.500 182.857 L 412 182.857 412 173.929 L 412 165 400.500 165 L 389 165 389 173.929 M 413 174 L 413 183 423 183 L 433 183 433 174 L 433 165 423 165 L 413 165 413 174 M 434 174 C 434 179.333, 434.407 183, 435 183 C 435.593 183, 436 179.333, 436 174 C 436 168.667, 435.593 165, 435 165 C 434.407 165, 434 168.667, 434 174 M 437 174 L 437 183 447 183 L 457 183 457 174 L 457 165 447 165 L 437 165 437 174 M 506 174 L 506 183 516 183 L 526 183 526 174 L 526 165 516 165 L 506 165 506 174 M 527 174 C 527 179.333, 527.407 183, 528 183 C 528.593 183, 529 179.333, 529 174 C 529 168.667, 528.593 165, 528 165 C 527.407 165, 527 168.667, 527 174 M 530 174 L 530 183 540 183 L 550 183 550 174 L 550 165 540 165 L 530 165 530 174 M 551 173.929 L 551 182.857 562.500 182.857 L 574 182.857 574 173.929 L 574 165 562.500 165 L 551 165 551 173.929 M 575 173.929 L 575 182.857 586.500 182.857 L 598 182.857 598 173.929 L 598 165 586.500 165 L 575 165 575 173.929 M 599 174 L 599 183 609 183 L 619 183 619 174 L 619 165 609 165 L 599 165 599 174 M 620 174 C 620 179.333, 620.407 183, 621 183 C 621.593 183, 622 179.333, 622 174 C 622 168.667, 621.593 165, 621 165 C 620.407 165, 620 168.667, 620 174 M 38.541 176.933 C 38.153 177.562, 38.513 177.740, 39.448 177.382 C 40.302 177.054, 41 177.247, 41 177.810 C 41 178.373, 40.438 179.060, 39.750 179.338 C 38.750 179.741, 38.750 179.858, 39.750 179.921 C 40.438 179.964, 41 180.498, 41 181.107 C 41 181.748, 40.264 181.934, 39.250 181.548 C 37.899 181.033, 37.770 181.153, 38.683 182.074 C 40.609 184.014, 42.912 182.420, 42.674 179.313 C 42.455 176.471, 39.779 174.930, 38.541 176.933 M 632.541 176.933 C 632.153 177.562, 632.513 177.740, 633.448 177.382 C 634.302 177.054, 635 177.247, 635 177.810 C 635 178.373, 634.438 179.060, 633.750 179.338 C 632.750 179.741, 632.750 179.858, 633.750 179.921 C 634.438 179.964, 635 180.498, 635 181.107 C 635 181.748, 634.264 181.934, 633.250 181.548 C 631.899 181.033, 631.770 181.153, 632.683 182.074 C 634.609 184.014, 636.912 182.420, 636.674 179.313 C 636.455 176.471, 633.779 174.930, 632.541 176.933 M 368.750 183.810 L 365 184.121 365 193.060 L 365 202 376.500 202 L 388 202 388 193 L 388 184 384.750 183.936 C 382.962 183.901, 379.475 183.789, 377 183.686 C 374.525 183.584, 370.813 183.640, 368.750 183.810 M 392.750 183.810 L 389 184.121 389 193.060 L 389 202 400.500 202 L 412 202 412 193 L 412 184 408.750 183.936 C 406.962 183.901, 403.475 183.789, 401 183.686 C 398.525 183.584, 394.813 183.640, 392.750 183.810 M 554.750 183.810 L 551 184.121 551 193.060 L 551 202 562.500 202 L 574 202 574 193 L 574 184 570.750 183.936 C 568.962 183.901, 565.475 183.789, 563 183.686 C 560.525 183.584, 556.813 183.640, 554.750 183.810 M 578.750 183.810 L 575 184.121 575 193.060 L 575 202 586.500 202 L 598 202 598 193 L 598 184 594.750 183.936 C 592.962 183.901, 589.475 183.789, 587 183.686 C 584.525 183.584, 580.813 183.640, 578.750 183.810 M 47 193 C 47 198.333, 47.407 202, 48 202 C 48.593 202, 49 198.333, 49 193 C 49 187.667, 48.593 184, 48 184 C 47.407 184, 47 187.667, 47 193 M 50 192.971 L 50 201.941 65.500 201.941 L 81 201.941 81 192.971 L 81 184 65.500 184 L 50 184 50 192.971 M 82 193 C 82 198.333, 82.407 202, 83 202 C 83.593 202, 84 198.333, 84 193 C 84 187.667, 83.593 184, 83 184 C 82.407 184, 82 187.667, 82 193 M 85 193 L 85 202 166 202 L 247 202 247 193 L 247 184 166 184 L 85 184 85 193 M 248 193 C 248 198.333, 248.407 202, 249 202 C 249.593 202, 250 198.333, 250 193 C 250 187.667, 249.593 184, 249 184 C 248.407 184, 248 187.667, 248 193 M 251 193 L 251 202 261 202 L 271 202 271 193 L 271 184 261 184 L 251 184 251 193 M 272 192.929 L 272 201.857 283.500 201.857 L 295 201.857 295 192.929 L 295 184 283.500 184 L 272 184 272 192.929 M 296 192.929 L 296 201.857 307.500 201.857 L 319 201.857 319 192.929 L 319 184 307.500 184 L 296 184 296 192.929 M 320 193 L 320 202 330 202 L 340 202 340 193 L 340 184 330 184 L 320 184 320 193 M 341 193 C 341 198.333, 341.407 202, 342 202 C 342.593 202, 343 198.333, 343 193 C 343 187.667, 342.593 184, 342 184 C 341.407 184, 341 187.667, 341 193 M 344 193 L 344 202 354 202 L 364 202 364 193 L 364 184 354 184 L 344 184 344 193 M 413 193 L 413 202 423 202 L 433 202 433 193 L 433 184 423 184 L 413 184 413 193 M 434 193 C 434 198.333, 434.407 202, 435 202 C 435.593 202, 436 198.333, 436 193 C 436 187.667, 435.593 184, 435 184 C 434.407 184, 434 187.667, 434 193 M 437 193 L 437 202 447 202 L 457 202 457 193 L 457 184 447 184 L 437 184 437 193 M 458 192.929 L 458 201.857 469.500 201.857 L 481 201.857 481 192.929 L 481 184 469.500 184 L 458 184 458 192.929 M 482 192.929 L 482 201.857 493.500 201.857 L 505 201.857 505 192.929 L 505 184 493.500 184 L 482 184 482 192.929 M 506 193 L 506 202 516 202 L 526 202 526 193 L 526 184 516 184 L 506 184 506 193 M 527 193 C 527 198.333, 527.407 202, 528 202 C 528.593 202, 529 198.333, 529 193 C 529 187.667, 528.593 184, 528 184 C 527.407 184, 527 187.667, 527 193 M 530 193 L 530 202 540 202 L 550 202 550 193 L 550 184 540 184 L 530 184 530 193 M 599 193 L 599 202 609 202 L 619 202 619 193 L 619 184 609 184 L 599 184 599 193 M 620 193 C 620 198.333, 620.407 202, 621 202 C 621.593 202, 622 198.333, 622 193 C 622 187.667, 621.593 184, 621 184 C 620.407 184, 620 187.667, 620 193 M 39.123 197.629 C 38.464 199.075, 38.082 200.416, 38.274 200.608 C 39.012 201.345, 42.877 201.463, 42.937 200.750 C 43.447 194.674, 41.278 192.899, 39.123 197.629 M 633.123 197.629 C 632.464 199.075, 632.082 200.416, 632.274 200.608 C 633.012 201.345, 636.877 201.463, 636.937 200.750 C 637.447 194.674, 635.278 192.899, 633.123 197.629 M 39.638 198.500 C 39.322 199.325, 39.499 200, 40.031 200 C 40.564 200, 41 199.325, 41 198.500 C 41 197.675, 40.823 197, 40.607 197 C 40.391 197, 39.955 197.675, 39.638 198.500 M 633.638 198.500 C 633.322 199.325, 633.499 200, 634.031 200 C 634.564 200, 635 199.325, 635 198.500 C 635 197.675, 634.823 197, 634.607 197 C 634.391 197, 633.955 197.675, 633.638 198.500 M 57.750 202.792 L 50 203.084 50 212.042 L 50 221 65.500 221 L 81 221 81 212.076 L 81 203.152 73.250 202.826 C 68.987 202.647, 62.013 202.631, 57.750 202.792 M 275.750 202.810 L 272 203.121 272 212.060 L 272 221 283.500 221 L 295 221 295 212 L 295 203 291.750 202.936 C 289.962 202.901, 286.475 202.789, 284 202.686 C 281.525 202.584, 277.813 202.640, 275.750 202.810 M 299.750 202.810 L 296 203.121 296 212.060 L 296 221 307.500 221 L 319 221 319 212 L 319 203 315.750 202.936 C 313.962 202.901, 310.475 202.789, 308 202.686 C 305.525 202.584, 301.813 202.640, 299.750 202.810 M 461.750 202.810 L 458 203.121 458 212.060 L 458 221 469.500 221 L 481 221 481 212 L 481 203 477.750 202.936 C 475.962 202.901, 472.475 202.789, 470 202.686 C 467.525 202.584, 463.813 202.640, 461.750 202.810 M 485.750 202.810 L 482 203.121 482 212.060 L 482 221 493.500 221 L 505 221 505 212 L 505 203 501.750 202.936 C 499.962 202.901, 496.475 202.789, 494 202.686 C 491.525 202.584, 487.813 202.640, 485.750 202.810 M 47 212 C 47 217.333, 47.407 221, 48 221 C 48.593 221, 49 217.333, 49 212 C 49 206.667, 48.593 203, 48 203 C 47.407 203, 47 206.667, 47 212 M 82 212 C 82 217.333, 82.407 221, 83 221 C 83.593 221, 84 217.333, 84 212 C 84 206.667, 83.593 203, 83 203 C 82.407 203, 82 206.667, 82 212 M 85 212 L 85 221 166 221 L 247 221 247 212 L 247 203 166 203 L 85 203 85 212 M 248 212 C 248 217.333, 248.407 221, 249 221 C 249.593 221, 250 217.333, 250 212 C 250 206.667, 249.593 203, 249 203 C 248.407 203, 248 206.667, 248 212 M 251 212 L 251 221 261 221 L 271 221 271 212 L 271 203 261 203 L 251 203 251 212 M 320 212 L 320 221 330 221 L 340 221 340 212 L 340 203 330 203 L 320 203 320 212 M 341 212 C 341 217.333, 341.407 221, 342 221 C 342.593 221, 343 217.333, 343 212 C 343 206.667, 342.593 203, 342 203 C 341.407 203, 341 206.667, 341 212 M 344 212 L 344 221 354 221 L 364 221 364 212 L 364 203 354 203 L 344 203 344 212 M 365 211.929 L 365 220.857 376.500 220.857 L 388 220.857 388 211.929 L 388 203 376.500 203 L 365 203 365 211.929 M 389 211.929 L 389 220.857 400.500 220.857 L 412 220.857 412 211.929 L 412 203 400.500 203 L 389 203 389 211.929 M 413 212 L 413 221 423 221 L 433 221 433 212 L 433 203 423 203 L 413 203 413 212 M 434 212 C 434 217.333, 434.407 221, 435 221 C 435.593 221, 436 217.333, 436 212 C 436 206.667, 435.593 203, 435 203 C 434.407 203, 434 206.667, 434 212 M 437 212 L 437 221 447 221 L 457 221 457 212 L 457 203 447 203 L 437 203 437 212 M 506 212 L 506 221 516 221 L 526 221 526 212 L 526 203 516 203 L 506 203 506 212 M 527 212 C 527 217.333, 527.407 221, 528 221 C 528.593 221, 529 217.333, 529 212 C 529 206.667, 528.593 203, 528 203 C 527.407 203, 527 206.667, 527 212 M 530 212 L 530 221 540 221 L 550 221 550 212 L 550 203 540 203 L 530 203 530 212 M 551 211.929 L 551 220.857 562.500 220.857 L 574 220.857 574 211.929 L 574 203 562.500 203 L 551 203 551 211.929 M 575 211.929 L 575 220.857 586.500 220.857 L 598 220.857 598 211.929 L 598 203 586.500 203 L 575 203 575 211.929 M 599 212 L 599 221 609 221 L 619 221 619 212 L 619 203 609 203 L 599 203 599 212 M 620 212 C 620 217.333, 620.407 221, 621 221 C 621.593 221, 622 217.333, 622 212 C 622 206.667, 621.593 203, 621 203 C 620.407 203, 620 206.667, 620 212 M 38 215.500 C 38 216.325, 38.675 217, 39.500 217 C 40.325 217, 41 217.723, 41 218.607 C 41 219.725, 40.467 220.011, 39.250 219.548 C 37.899 219.033, 37.770 219.153, 38.683 220.074 C 40.183 221.586, 43 220.559, 43 218.500 C 43 217.640, 42.245 216.648, 41.323 216.294 C 39.823 215.718, 39.849 215.571, 41.573 214.895 C 43.185 214.264, 43.050 214.129, 40.750 214.070 C 38.941 214.024, 38 214.513, 38 215.500 M 632 215.500 C 632 216.325, 632.675 217, 633.500 217 C 634.325 217, 635 217.723, 635 218.607 C 635 219.725, 634.467 220.011, 633.250 219.548 C 631.899 219.033, 631.770 219.153, 632.683 220.074 C 634.183 221.586, 637 220.559, 637 218.500 C 637 217.640, 636.245 216.648, 635.323 216.294 C 633.823 215.718, 633.849 215.571, 635.573 214.895 C 637.185 214.264, 637.050 214.129, 634.750 214.070 C 632.941 214.024, 632 214.513, 632 215.500 M 368.750 221.810 L 365 222.121 365 231.060 L 365 240 376.500 240 L 388 240 388 231 L 388 222 384.750 221.936 C 382.962 221.901, 379.475 221.789, 377 221.686 C 374.525 221.584, 370.813 221.640, 368.750 221.810 M 392.750 221.810 L 389 222.121 389 231.060 L 389 240 400.500 240 L 412 240 412 231 L 412 222 408.750 221.936 C 406.962 221.901, 403.475 221.789, 401 221.686 C 398.525 221.584, 394.813 221.640, 392.750 221.810 M 554.750 221.810 L 551 222.121 551 231.060 L 551 240 562.500 240 L 574 240 574 231 L 574 222 570.750 221.936 C 568.962 221.901, 565.475 221.789, 563 221.686 C 560.525 221.584, 556.813 221.640, 554.750 221.810 M 578.750 221.810 L 575 222.121 575 231.060 L 575 240 586.500 240 L 598 240 598 231 L 598 222 594.750 221.936 C 592.962 221.901, 589.475 221.789, 587 221.686 C 584.525 221.584, 580.813 221.640, 578.750 221.810 M 47 231 C 47 236.333, 47.407 240, 48 240 C 48.593 240, 49 236.333, 49 231 C 49 225.667, 48.593 222, 48 222 C 47.407 222, 47 225.667, 47 231 M 50 230.971 L 50 239.941 65.500 239.941 L 81 239.941 81 230.971 L 81 222 65.500 222 L 50 222 50 230.971 M 82 231 C 82 236.333, 82.407 240, 83 240 C 83.593 240, 84 236.333, 84 231 C 84 225.667, 83.593 222, 83 222 C 82.407 222, 82 225.667, 82 231 M 85 231 L 85 240 166 240 L 247 240 247 231 L 247 222 166 222 L 85 222 85 231 M 248 231 C 248 236.333, 248.407 240, 249 240 C 249.593 240, 250 236.333, 250 231 C 250 225.667, 249.593 222, 249 222 C 248.407 222, 248 225.667, 248 231 M 251 231 L 251 240 261 240 L 271 240 271 231 L 271 222 261 222 L 251 222 251 231 M 272 230.929 L 272 239.857 283.500 239.857 L 295 239.857 295 230.929 L 295 222 283.500 222 L 272 222 272 230.929 M 296 230.929 L 296 239.857 307.500 239.857 L 319 239.857 319 230.929 L 319 222 307.500 222 L 296 222 296 230.929 M 320 231 L 320 240 330 240 L 340 240 340 231 L 340 222 330 222 L 320 222 320 231 M 341 231 C 341 236.333, 341.407 240, 342 240 C 342.593 240, 343 236.333, 343 231 C 343 225.667, 342.593 222, 342 222 C 341.407 222, 341 225.667, 341 231 M 344 231 L 344 240 354 240 L 364 240 364 231 L 364 222 354 222 L 344 222 344 231 M 413 231 L 413 240 423 240 L 433 240 433 231 L 433 222 423 222 L 413 222 413 231 M 434 231 C 434 236.333, 434.407 240, 435 240 C 435.593 240, 436 236.333, 436 231 C 436 225.667, 435.593 222, 435 222 C 434.407 222, 434 225.667, 434 231 M 437 231 L 437 240 447 240 L 457 240 457 231 L 457 222 447 222 L 437 222 437 231 M 458 230.929 L 458 239.857 469.500 239.857 L 481 239.857 481 230.929 L 481 222 469.500 222 L 458 222 458 230.929 M 482 230.929 L 482 239.857 493.500 239.857 L 505 239.857 505 230.929 L 505 222 493.500 222 L 482 222 482 230.929 M 506 231 L 506 240 516 240 L 526 240 526 231 L 526 222 516 222 L 506 222 506 231 M 527 231 C 527 236.333, 527.407 240, 528 240 C 528.593 240, 529 236.333, 529 231 C 529 225.667, 528.593 222, 528 222 C 527.407 222, 527 225.667, 527 231 M 530 231 L 530 240 540 240 L 550 240 550 231 L 550 222 540 222 L 530 222 530 231 M 599 231 L 599 240 609 240 L 619 240 619 231 L 619 222 609 222 L 599 222 599 231 M 620 231 C 620 236.333, 620.407 240, 621 240 C 621.593 240, 622 236.333, 622 231 C 622 225.667, 621.593 222, 621 222 C 620.407 222, 620 225.667, 620 231 M 39.200 234.200 C 37.505 235.895, 37.710 238.952, 39.567 239.664 C 40.429 239.995, 41.667 239.726, 42.317 239.065 C 43.229 238.140, 43.107 237.575, 41.785 236.598 C 40.479 235.633, 40.348 235.052, 41.235 234.165 C 41.901 233.499, 41.972 233, 41.400 233 C 40.850 233, 39.860 233.540, 39.200 234.200 M 633.200 234.200 C 631.505 235.895, 631.710 238.952, 633.567 239.664 C 634.429 239.995, 635.667 239.726, 636.317 239.065 C 637.229 238.140, 637.107 237.575, 635.785 236.598 C 634.479 235.633, 634.348 235.052, 635.235 234.165 C 635.901 233.499, 635.972 233, 635.400 233 C 634.850 233, 633.860 233.540, 633.200 234.200 M 57.750 240.792 L 50 241.084 50 250.042 L 50 259 65.500 259 L 81 259 81 250.076 L 81 241.152 73.250 240.826 C 68.987 240.647, 62.013 240.631, 57.750 240.792 M 275.750 240.810 L 272 241.121 272 250.060 L 272 259 283.500 259 L 295 259 295 250 L 295 241 291.750 240.936 C 289.962 240.901, 286.475 240.789, 284 240.686 C 281.525 240.584, 277.813 240.640, 275.750 240.810 M 299.750 240.810 L 296 241.121 296 250.060 L 296 259 307.500 259 L 319 259 319 250 L 319 241 315.750 240.936 C 313.962 240.901, 310.475 240.789, 308 240.686 C 305.525 240.584, 301.813 240.640, 299.750 240.810 M 461.750 240.810 L 458 241.121 458 250.060 L 458 259 469.500 259 L 481 259 481 250 L 481 241 477.750 240.936 C 475.962 240.901, 472.475 240.789, 470 240.686 C 467.525 240.584, 463.813 240.640, 461.750 240.810 M 485.750 240.810 L 482 241.121 482 250.060 L 482 259 493.500 259 L 505 259 505 250 L 505 241 501.750 240.936 C 499.962 240.901, 496.475 240.789, 494 240.686 C 491.525 240.584, 487.813 240.640, 485.750 240.810 M 47 250 C 47 255.333, 47.407 259, 48 259 C 48.593 259, 49 255.333, 49 250 C 49 244.667, 48.593 241, 48 241 C 47.407 241, 47 244.667, 47 250 M 82 250 C 82 255.333, 82.407 259, 83 259 C 83.593 259, 84 255.333, 84 250 C 84 244.667, 83.593 241, 83 241 C 82.407 241, 82 244.667, 82 250 M 85 250 L 85 259 166 259 L 247 259 247 250 L 247 241 166 241 L 85 241 85 250 M 248 250 C 248 255.333, 248.407 259, 249 259 C 249.593 259, 250 255.333, 250 250 C 250 244.667, 249.593 241, 249 241 C 248.407 241, 248 244.667, 248 250 M 251 250 L 251 259 261 259 L 271 259 271 250 L 271 241 261 241 L 251 241 251 250 M 320 250 L 320 259 330 259 L 340 259 340 250 L 340 241 330 241 L 320 241 320 250 M 341 250 C 341 255.333, 341.407 259, 342 259 C 342.593 259, 343 255.333, 343 250 C 343 244.667, 342.593 241, 342 241 C 341.407 241, 341 244.667, 341 250 M 344 250 L 344 259 354 259 L 364 259 364 250 L 364 241 354 241 L 344 241 344 250 M 365 249.929 L 365 258.857 376.500 258.857 L 388 258.857 388 249.929 L 388 241 376.500 241 L 365 241 365 249.929 M 389 249.929 L 389 258.857 400.500 258.857 L 412 258.857 412 249.929 L 412 241 400.500 241 L 389 241 389 249.929 M 413 250 L 413 259 423 259 L 433 259 433 250 L 433 241 423 241 L 413 241 413 250 M 434 250 C 434 255.333, 434.407 259, 435 259 C 435.593 259, 436 255.333, 436 250 C 436 244.667, 435.593 241, 435 241 C 434.407 241, 434 244.667, 434 250 M 437 250 L 437 259 447 259 L 457 259 457 250 L 457 241 447 241 L 437 241 437 250 M 506 250 L 506 259 516 259 L 526 259 526 250 L 526 241 516 241 L 506 241 506 250 M 527 250 C 527 255.333, 527.407 259, 528 259 C 528.593 259, 529 255.333, 529 250 C 529 244.667, 528.593 241, 528 241 C 527.407 241, 527 244.667, 527 250 M 530 250 L 530 259 540 259 L 550 259 550 250 L 550 241 540 241 L 530 241 530 250 M 551 249.929 L 551 258.857 562.500 258.857 L 574 258.857 574 249.929 L 574 241 562.500 241 L 551 241 551 249.929 M 575 249.929 L 575 258.857 586.500 258.857 L 598 258.857 598 249.929 L 598 241 586.500 241 L 575 241 575 249.929 M 599 250 L 599 259 609 259 L 619 259 619 250 L 619 241 609 241 L 599 241 599 250 M 620 250 C 620 255.333, 620.407 259, 621 259 C 621.593 259, 622 255.333, 622 250 C 622 244.667, 621.593 241, 621 241 C 620.407 241, 620 244.667, 620 250 M 39.323 252.703 C 40.416 252.986, 40.917 253.741, 40.573 254.587 C 40.258 255.364, 39.727 256.675, 39.393 257.500 C 38.341 260.100, 40.623 259.124, 41.839 256.453 C 43.552 252.694, 43.293 251.988, 40.250 252.116 C 38.424 252.193, 38.113 252.390, 39.323 252.703 M 633.323 252.703 C 634.416 252.986, 634.917 253.741, 634.573 254.587 C 634.258 255.364, 633.727 256.675, 633.393 257.500 C 632.341 260.100, 634.623 259.124, 635.839 256.453 C 637.552 252.694, 637.293 251.988, 634.250 252.116 C 632.424 252.193, 632.113 252.390, 633.323 252.703 M 368.750 259.810 L 365 260.121 365 269.060 L 365 278 376.500 278 L 388 278 388 269 L 388 260 384.750 259.936 C 382.962 259.901, 379.475 259.789, 377 259.686 C 374.525 259.584, 370.813 259.640, 368.750 259.810 M 392.750 259.810 L 389 260.121 389 269.060 L 389 278 400.500 278 L 412 278 412 269 L 412 260 408.750 259.936 C 406.962 259.901, 403.475 259.789, 401 259.686 C 398.525 259.584, 394.813 259.640, 392.750 259.810 M 554.750 259.810 L 551 260.121 551 269.060 L 551 278 562.500 278 L 574 278 574 269 L 574 260 570.750 259.936 C 568.962 259.901, 565.475 259.789, 563 259.686 C 560.525 259.584, 556.813 259.640, 554.750 259.810 M 578.750 259.810 L 575 260.121 575 269.060 L 575 278 586.500 278 L 598 278 598 269 L 598 260 594.750 259.936 C 592.962 259.901, 589.475 259.789, 587 259.686 C 584.525 259.584, 580.813 259.640, 578.750 259.810 M 47 269 C 47 274.333, 47.407 278, 48 278 C 48.593 278, 49 274.333, 49 269 C 49 263.667, 48.593 260, 48 260 C 47.407 260, 47 263.667, 47 269 M 50 268.971 L 50 277.941 65.500 277.941 L 81 277.941 81 268.971 L 81 260 65.500 260 L 50 260 50 268.971 M 82 269 C 82 274.333, 82.407 278, 83 278 C 83.593 278, 84 274.333, 84 269 C 84 263.667, 83.593 260, 83 260 C 82.407 260, 82 263.667, 82 269 M 85 269 L 85 278 166 278 L 247 278 247 269 L 247 260 166 260 L 85 260 85 269 M 248 269 C 248 274.333, 248.407 278, 249 278 C 249.593 278, 250 274.333, 250 269 C 250 263.667, 249.593 260, 249 260 C 248.407 260, 248 263.667, 248 269 M 251 269 L 251 278 261 278 L 271 278 271 269 L 271 260 261 260 L 251 260 251 269 M 272 268.929 L 272 277.857 283.500 277.857 L 295 277.857 295 268.929 L 295 260 283.500 260 L 272 260 272 268.929 M 296 268.929 L 296 277.857 307.500 277.857 L 319 277.857 319 268.929 L 319 260 307.500 260 L 296 260 296 268.929 M 320 269 L 320 278 330 278 L 340 278 340 269 L 340 260 330 260 L 320 260 320 269 M 341 269 C 341 274.333, 341.407 278, 342 278 C 342.593 278, 343 274.333, 343 269 C 343 263.667, 342.593 260, 342 260 C 341.407 260, 341 263.667, 341 269 M 344 269 L 344 278 354 278 L 364 278 364 269 L 364 260 354 260 L 344 260 344 269 M 413 269 L 413 278 423 278 L 433 278 433 269 L 433 260 423 260 L 413 260 413 269 M 434 269 C 434 274.333, 434.407 278, 435 278 C 435.593 278, 436 274.333, 436 269 C 436 263.667, 435.593 260, 435 260 C 434.407 260, 434 263.667, 434 269 M 437 269 L 437 278 447 278 L 457 278 457 269 L 457 260 447 260 L 437 260 437 269 M 458 268.929 L 458 277.857 469.500 277.857 L 481 277.857 481 268.929 L 481 260 469.500 260 L 458 260 458 268.929 M 482 268.929 L 482 277.857 493.500 277.857 L 505 277.857 505 268.929 L 505 260 493.500 260 L 482 260 482 268.929 M 506 269 L 506 278 516 278 L 526 278 526 269 L 526 260 516 260 L 506 260 506 269 M 527 269 C 527 274.333, 527.407 278, 528 278 C 528.593 278, 529 274.333, 529 269 C 529 263.667, 528.593 260, 528 260 C 527.407 260, 527 263.667, 527 269 M 530 269 L 530 278 540 278 L 550 278 550 269 L 550 260 540 260 L 530 260 530 269 M 599 269 L 599 278 609 278 L 619 278 619 269 L 619 260 609 260 L 599 260 599 269 M 620 269 C 620 274.333, 620.407 278, 621 278 C 621.593 278, 622 274.333, 622 269 C 622 263.667, 621.593 260, 621 260 C 620.407 260, 620 263.667, 620 269 M 38.706 271.695 C 38.441 272.138, 38.287 273.625, 38.362 275 C 38.461 276.787, 39.070 277.500, 40.500 277.500 C 42.054 277.500, 42.500 276.833, 42.500 274.514 C 42.500 271.653, 39.889 269.713, 38.706 271.695 M 632.706 271.695 C 632.441 272.138, 632.287 273.625, 632.362 275 C 632.461 276.787, 633.070 277.500, 634.500 277.500 C 636.054 277.500, 636.500 276.833, 636.500 274.514 C 636.500 271.653, 633.889 269.713, 632.706 271.695 M 57.750 278.792 L 50 279.084 50 288.042 L 50 297 65.500 297 L 81 297 81 288.076 L 81 279.152 73.250 278.826 C 68.987 278.647, 62.013 278.631, 57.750 278.792 M 275.750 278.810 L 272 279.121 272 288.060 L 272 297 283.500 297 L 295 297 295 288 L 295 279 291.750 278.936 C 289.962 278.901, 286.475 278.789, 284 278.686 C 281.525 278.584, 277.813 278.640, 275.750 278.810 M 299.750 278.810 L 296 279.121 296 288.060 L 296 297 307.500 297 L 319 297 319 288 L 319 279 315.750 278.936 C 313.962 278.901, 310.475 278.789, 308 278.686 C 305.525 278.584, 301.813 278.640, 299.750 278.810 M 461.750 278.810 L 458 279.121 458 288.060 L 458 297 469.500 297 L 481 297 481 288 L 481 279 477.750 278.936 C 475.962 278.901, 472.475 278.789, 470 278.686 C 467.525 278.584, 463.813 278.640, 461.750 278.810 M 485.750 278.810 L 482 279.121 482 288.060 L 482 297 493.500 297 L 505 297 505 288 L 505 279 501.750 278.936 C 499.962 278.901, 496.475 278.789, 494 278.686 C 491.525 278.584, 487.813 278.640, 485.750 278.810 M 47 288 C 47 293.333, 47.407 297, 48 297 C 48.593 297, 49 293.333, 49 288 C 49 282.667, 48.593 279, 48 279 C 47.407 279, 47 282.667, 47 288 M 82 288 C 82 293.333, 82.407 297, 83 297 C 83.593 297, 84 293.333, 84 288 C 84 282.667, 83.593 279, 83 279 C 82.407 279, 82 282.667, 82 288 M 85 288 L 85 297 166 297 L 247 297 247 288 L 247 279 166 279 L 85 279 85 288 M 248 288 C 248 293.333, 248.407 297, 249 297 C 249.593 297, 250 293.333, 250 288 C 250 282.667, 249.593 279, 249 279 C 248.407 279, 248 282.667, 248 288 M 251 288 L 251 297 261 297 L 271 297 271 288 L 271 279 261 279 L 251 279 251 288 M 320 288 L 320 297 330 297 L 340 297 340 288 L 340 279 330 279 L 320 279 320 288 M 341 288 C 341 293.333, 341.407 297, 342 297 C 342.593 297, 343 293.333, 343 288 C 343 282.667, 342.593 279, 342 279 C 341.407 279, 341 282.667, 341 288 M 344 288 L 344 297 354 297 L 364 297 364 288 L 364 279 354 279 L 344 279 344 288 M 365 287.929 L 365 296.857 376.500 296.857 L 388 296.857 388 287.929 L 388 279 376.500 279 L 365 279 365 287.929 M 389 287.929 L 389 296.857 400.500 296.857 L 412 296.857 412 287.929 L 412 279 400.500 279 L 389 279 389 287.929 M 413 288 L 413 297 423 297 L 433 297 433 288 L 433 279 423 279 L 413 279 413 288 M 434 288 C 434 293.333, 434.407 297, 435 297 C 435.593 297, 436 293.333, 436 288 C 436 282.667, 435.593 279, 435 279 C 434.407 279, 434 282.667, 434 288 M 437 288 L 437 297 447 297 L 457 297 457 288 L 457 279 447 279 L 437 279 437 288 M 506 288 L 506 297 516 297 L 526 297 526 288 L 526 279 516 279 L 506 279 506 288 M 527 288 C 527 293.333, 527.407 297, 528 297 C 528.593 297, 529 293.333, 529 288 C 529 282.667, 528.593 279, 528 279 C 527.407 279, 527 282.667, 527 288 M 530 288 L 530 297 540 297 L 550 297 550 288 L 550 279 540 279 L 530 279 530 288 M 551 287.929 L 551 296.857 562.500 296.857 L 574 296.857 574 287.929 L 574 279 562.500 279 L 551 279 551 287.929 M 575 287.929 L 575 296.857 586.500 296.857 L 598 296.857 598 287.929 L 598 279 586.500 279 L 575 279 575 287.929 M 599 288 L 599 297 609 297 L 619 297 619 288 L 619 279 609 279 L 599 279 599 288 M 620 288 C 620 293.333, 620.407 297, 621 297 C 621.593 297, 622 293.333, 622 288 C 622 282.667, 621.593 279, 621 279 C 620.407 279, 620 282.667, 620 288 M 38.406 291.152 C 38.015 291.785, 38.423 292.836, 39.312 293.487 C 40.590 294.420, 40.675 294.941, 39.715 295.960 C 38.753 296.981, 38.798 297.159, 39.929 296.815 C 42 296.185, 43.417 293.529, 42.691 291.636 C 41.966 289.748, 39.450 289.463, 38.406 291.152 M 632.406 291.152 C 632.015 291.785, 632.423 292.836, 633.312 293.487 C 634.590 294.420, 634.675 294.941, 633.715 295.960 C 632.753 296.981, 632.798 297.159, 633.929 296.815 C 636 296.185, 637.417 293.529, 636.691 291.636 C 635.966 289.748, 633.450 289.463, 632.406 291.152 M 368.750 297.810 L 365 298.121 365 307.060 L 365 316 376.500 316 L 388 316 388 307 L 388 298 384.750 297.936 C 382.962 297.901, 379.475 297.789, 377 297.686 C 374.525 297.584, 370.813 297.640, 368.750 297.810 M 392.750 297.810 L 389 298.121 389 307.060 L 389 316 400.500 316 L 412 316 412 307 L 412 298 408.750 297.936 C 406.962 297.901, 403.475 297.789, 401 297.686 C 398.525 297.584, 394.813 297.640, 392.750 297.810 M 554.750 297.810 L 551 298.121 551 307.060 L 551 316 562.500 316 L 574 316 574 307 L 574 298 570.750 297.936 C 568.962 297.901, 565.475 297.789, 563 297.686 C 560.525 297.584, 556.813 297.640, 554.750 297.810 M 578.750 297.810 L 575 298.121 575 307.060 L 575 316 586.500 316 L 598 316 598 307 L 598 298 594.750 297.936 C 592.962 297.901, 589.475 297.789, 587 297.686 C 584.525 297.584, 580.813 297.640, 578.750 297.810 M 47 307 C 47 312.333, 47.407 316, 48 316 C 48.593 316, 49 312.333, 49 307 C 49 301.667, 48.593 298, 48 298 C 47.407 298, 47 301.667, 47 307 M 50 306.971 L 50 315.941 65.500 315.941 L 81 315.941 81 306.971 L 81 298 65.500 298 L 50 298 50 306.971 M 82 307 C 82 312.333, 82.407 316, 83 316 C 83.593 316, 84 312.333, 84 307 C 84 301.667, 83.593 298, 83 298 C 82.407 298, 82 301.667, 82 307 M 85 307 L 85 316 166 316 L 247 316 247 307 L 247 298 166 298 L 85 298 85 307 M 248 307 C 248 312.333, 248.407 316, 249 316 C 249.593 316, 250 312.333, 250 307 C 250 301.667, 249.593 298, 249 298 C 248.407 298, 248 301.667, 248 307 M 251 307 L 251 316 261 316 L 271 316 271 307 L 271 298 261 298 L 251 298 251 307 M 272 306.929 L 272 315.857 283.500 315.857 L 295 315.857 295 306.929 L 295 298 283.500 298 L 272 298 272 306.929 M 296 306.929 L 296 315.857 307.500 315.857 L 319 315.857 319 306.929 L 319 298 307.500 298 L 296 298 296 306.929 M 320 307 L 320 316 330 316 L 340 316 340 307 L 340 298 330 298 L 320 298 320 307 M 341 307 C 341 312.333, 341.407 316, 342 316 C 342.593 316, 343 312.333, 343 307 C 343 301.667, 342.593 298, 342 298 C 341.407 298, 341 301.667, 341 307 M 344 307 L 344 316 354 316 L 364 316 364 307 L 364 298 354 298 L 344 298 344 307 M 413 307 L 413 316 423 316 L 433 316 433 307 L 433 298 423 298 L 413 298 413 307 M 434 307 C 434 312.333, 434.407 316, 435 316 C 435.593 316, 436 312.333, 436 307 C 436 301.667, 435.593 298, 435 298 C 434.407 298, 434 301.667, 434 307 M 437 307 L 437 316 447 316 L 457 316 457 307 L 457 298 447 298 L 437 298 437 307 M 458 306.929 L 458 315.857 469.500 315.857 L 481 315.857 481 306.929 L 481 298 469.500 298 L 458 298 458 306.929 M 482 306.929 L 482 315.857 493.500 315.857 L 505 315.857 505 306.929 L 505 298 493.500 298 L 482 298 482 306.929 M 506 307 L 506 316 516 316 L 526 316 526 307 L 526 298 516 298 L 506 298 506 307 M 527 307 C 527 312.333, 527.407 316, 528 316 C 528.593 316, 529 312.333, 529 307 C 529 301.667, 528.593 298, 528 298 C 527.407 298, 527 301.667, 527 307 M 530 307 L 530 316 540 316 L 550 316 550 307 L 550 298 540 298 L 530 298 530 307 M 599 307 L 599 316 609 316 L 619 316 619 307 L 619 298 609 298 L 599 298 599 307 M 620 307 C 620 312.333, 620.407 316, 621 316 C 621.593 316, 622 312.333, 622 307 C 622 301.667, 621.593 298, 621 298 C 620.407 298, 620 301.667, 620 307 M 33.923 309.250 C 33.881 309.387, 33.768 310.963, 33.673 312.750 C 33.548 315.093, 33.933 316, 35.049 316 C 36.231 316, 36.501 315.170, 36.190 312.500 C 35.965 310.575, 35.380 309, 34.891 309 C 34.401 309, 33.965 309.113, 33.923 309.250 M 38.412 310.368 C 37.406 312.989, 38.434 315.500, 40.514 315.500 C 42.052 315.500, 42.500 314.826, 42.500 312.514 C 42.500 309.242, 39.457 307.645, 38.412 310.368 M 627.923 309.250 C 627.881 309.387, 627.768 310.963, 627.673 312.750 C 627.548 315.093, 627.933 316, 629.049 316 C 630.231 316, 630.501 315.170, 630.190 312.500 C 629.965 310.575, 629.380 309, 628.891 309 C 628.401 309, 627.965 309.113, 627.923 309.250 M 632.412 310.368 C 631.406 312.989, 632.434 315.500, 634.514 315.500 C 636.052 315.500, 636.500 314.826, 636.500 312.514 C 636.500 309.242, 633.457 307.645, 632.412 310.368 M 40.195 312.500 C 40.215 314.150, 40.439 314.704, 40.693 313.731 C 40.947 312.758, 40.930 311.408, 40.656 310.731 C 40.382 310.054, 40.175 310.850, 40.195 312.500 M 634.195 312.500 C 634.215 314.150, 634.439 314.704, 634.693 313.731 C 634.947 312.758, 634.930 311.408, 634.656 310.731 C 634.382 310.054, 634.175 310.850, 634.195 312.500 M 57.750 316.792 L 50 317.084 50 326.042 L 50 335 65.500 335 L 81 335 81 326.076 L 81 317.152 73.250 316.826 C 68.987 316.647, 62.013 316.631, 57.750 316.792 M 275.750 316.810 L 272 317.121 272 326.060 L 272 335 283.500 335 L 295 335 295 326 L 295 317 291.750 316.936 C 289.962 316.901, 286.475 316.789, 284 316.686 C 281.525 316.584, 277.813 316.640, 275.750 316.810 M 299.750 316.810 L 296 317.121 296 326.060 L 296 335 307.500 335 L 319 335 319 326 L 319 317 315.750 316.936 C 313.962 316.901, 310.475 316.789, 308 316.686 C 305.525 316.584, 301.813 316.640, 299.750 316.810 M 461.750 316.810 L 458 317.121 458 326.060 L 458 335 469.500 335 L 481 335 481 326 L 481 317 477.750 316.936 C 475.962 316.901, 472.475 316.789, 470 316.686 C 467.525 316.584, 463.813 316.640, 461.750 316.810 M 485.750 316.810 L 482 317.121 482 326.060 L 482 335 493.500 335 L 505 335 505 326 L 505 317 501.750 316.936 C 499.962 316.901, 496.475 316.789, 494 316.686 C 491.525 316.584, 487.813 316.640, 485.750 316.810 M 47 326 C 47 331.333, 47.407 335, 48 335 C 48.593 335, 49 331.333, 49 326 C 49 320.667, 48.593 317, 48 317 C 47.407 317, 47 320.667, 47 326 M 82 326 C 82 331.333, 82.407 335, 83 335 C 83.593 335, 84 331.333, 84 326 C 84 320.667, 83.593 317, 83 317 C 82.407 317, 82 320.667, 82 326 M 85 326 L 85 335 166 335 L 247 335 247 326 L 247 317 166 317 L 85 317 85 326 M 248 326 C 248 331.333, 248.407 335, 249 335 C 249.593 335, 250 331.333, 250 326 C 250 320.667, 249.593 317, 249 317 C 248.407 317, 248 320.667, 248 326 M 251 326 L 251 335 261 335 L 271 335 271 326 L 271 317 261 317 L 251 317 251 326 M 320 326 L 320 335 330 335 L 340 335 340 326 L 340 317 330 317 L 320 317 320 326 M 341 326 C 341 331.333, 341.407 335, 342 335 C 342.593 335, 343 331.333, 343 326 C 343 320.667, 342.593 317, 342 317 C 341.407 317, 341 320.667, 341 326 M 344 326 L 344 335 354 335 L 364 335 364 326 L 364 317 354 317 L 344 317 344 326 M 365 325.929 L 365 334.857 376.500 334.857 L 388 334.857 388 325.929 L 388 317 376.500 317 L 365 317 365 325.929 M 389 325.929 L 389 334.857 400.500 334.857 L 412 334.857 412 325.929 L 412 317 400.500 317 L 389 317 389 325.929 M 413 326 L 413 335 423 335 L 433 335 433 326 L 433 317 423 317 L 413 317 413 326 M 434 326 C 434 331.333, 434.407 335, 435 335 C 435.593 335, 436 331.333, 436 326 C 436 320.667, 435.593 317, 435 317 C 434.407 317, 434 320.667, 434 326 M 437 326 L 437 335 447 335 L 457 335 457 326 L 457 317 447 317 L 437 317 437 326 M 506 326 L 506 335 516 335 L 526 335 526 326 L 526 317 516 317 L 506 317 506 326 M 527 326 C 527 331.333, 527.407 335, 528 335 C 528.593 335, 529 331.333, 529 326 C 529 320.667, 528.593 317, 528 317 C 527.407 317, 527 320.667, 527 326 M 530 326 L 530 335 540 335 L 550 335 550 326 L 550 317 540 317 L 530 317 530 326 M 551 325.929 L 551 334.857 562.500 334.857 L 574 334.857 574 325.929 L 574 317 562.500 317 L 551 317 551 325.929 M 575 325.929 L 575 334.857 586.500 334.857 L 598 334.857 598 325.929 L 598 317 586.500 317 L 575 317 575 325.929 M 599 326 L 599 335 609 335 L 619 335 619 326 L 619 317 609 317 L 599 317 599 326 M 620 326 C 620 331.333, 620.407 335, 621 335 C 621.593 335, 622 331.333, 622 326 C 622 320.667, 621.593 317, 621 317 C 620.407 317, 620 320.667, 620 326 M 33.923 328.250 C 33.881 328.387, 33.768 329.963, 33.673 331.750 C 33.548 334.093, 33.933 335, 35.049 335 C 36.231 335, 36.501 334.170, 36.190 331.500 C 35.965 329.575, 35.380 328, 34.891 328 C 34.401 328, 33.965 328.113, 33.923 328.250 M 39.923 328.250 C 39.881 328.387, 39.768 329.963, 39.673 331.750 C 39.548 334.093, 39.933 335, 41.049 335 C 42.231 335, 42.501 334.170, 42.190 331.500 C 41.965 329.575, 41.380 328, 40.891 328 C 40.401 328, 39.965 328.113, 39.923 328.250 M 627.923 328.250 C 627.881 328.387, 627.768 329.963, 627.673 331.750 C 627.548 334.093, 627.933 335, 629.049 335 C 630.231 335, 630.501 334.170, 630.190 331.500 C 629.965 329.575, 629.380 328, 628.891 328 C 628.401 328, 627.965 328.113, 627.923 328.250 M 633.923 328.250 C 633.881 328.387, 633.768 329.963, 633.673 331.750 C 633.548 334.093, 633.933 335, 635.049 335 C 636.231 335, 636.501 334.170, 636.190 331.500 C 635.965 329.575, 635.380 328, 634.891 328 C 634.401 328, 633.965 328.113, 633.923 328.250 M 368.750 335.810 L 365 336.121 365 345.060 L 365 354 376.500 354 L 388 354 388 345 L 388 336 384.750 335.936 C 382.962 335.901, 379.475 335.789, 377 335.686 C 374.525 335.584, 370.813 335.640, 368.750 335.810 M 392.750 335.810 L 389 336.121 389 345.060 L 389 354 400.500 354 L 412 354 412 345 L 412 336 408.750 335.936 C 406.962 335.901, 403.475 335.789, 401 335.686 C 398.525 335.584, 394.813 335.640, 392.750 335.810 M 554.750 335.810 L 551 336.121 551 345.060 L 551 354 562.500 354 L 574 354 574 345 L 574 336 570.750 335.936 C 568.962 335.901, 565.475 335.789, 563 335.686 C 560.525 335.584, 556.813 335.640, 554.750 335.810 M 578.750 335.810 L 575 336.121 575 345.060 L 575 354 586.500 354 L 598 354 598 345 L 598 336 594.750 335.936 C 592.962 335.901, 589.475 335.789, 587 335.686 C 584.525 335.584, 580.813 335.640, 578.750 335.810 M 47 345 C 47 350.333, 47.407 354, 48 354 C 48.593 354, 49 350.333, 49 345 C 49 339.667, 48.593 336, 48 336 C 47.407 336, 47 339.667, 47 345 M 50 344.971 L 50 353.941 65.500 353.941 L 81 353.941 81 344.971 L 81 336 65.500 336 L 50 336 50 344.971 M 82 345 C 82 350.333, 82.407 354, 83 354 C 83.593 354, 84 350.333, 84 345 C 84 339.667, 83.593 336, 83 336 C 82.407 336, 82 339.667, 82 345 M 85 345 L 85 354 166 354 L 247 354 247 345 L 247 336 166 336 L 85 336 85 345 M 248 345 C 248 350.333, 248.407 354, 249 354 C 249.593 354, 250 350.333, 250 345 C 250 339.667, 249.593 336, 249 336 C 248.407 336, 248 339.667, 248 345 M 251 345 L 251 354 261 354 L 271 354 271 345 L 271 336 261 336 L 251 336 251 345 M 272 344.929 L 272 353.857 283.500 353.857 L 295 353.857 295 344.929 L 295 336 283.500 336 L 272 336 272 344.929 M 296 344.929 L 296 353.857 307.500 353.857 L 319 353.857 319 344.929 L 319 336 307.500 336 L 296 336 296 344.929 M 320 345 L 320 354 330 354 L 340 354 340 345 L 340 336 330 336 L 320 336 320 345 M 341 345 C 341 350.333, 341.407 354, 342 354 C 342.593 354, 343 350.333, 343 345 C 343 339.667, 342.593 336, 342 336 C 341.407 336, 341 339.667, 341 345 M 344 345 L 344 354 354 354 L 364 354 364 345 L 364 336 354 336 L 344 336 344 345 M 413 345 L 413 354 423 354 L 433 354 433 345 L 433 336 423 336 L 413 336 413 345 M 434 345 C 434 350.333, 434.407 354, 435 354 C 435.593 354, 436 350.333, 436 345 C 436 339.667, 435.593 336, 435 336 C 434.407 336, 434 339.667, 434 345 M 437 345 L 437 354 447 354 L 457 354 457 345 L 457 336 447 336 L 437 336 437 345 M 458 344.929 L 458 353.857 469.500 353.857 L 481 353.857 481 344.929 L 481 336 469.500 336 L 458 336 458 344.929 M 482 344.929 L 482 353.857 493.500 353.857 L 505 353.857 505 344.929 L 505 336 493.500 336 L 482 336 482 344.929 M 506 345 L 506 354 516 354 L 526 354 526 345 L 526 336 516 336 L 506 336 506 345 M 527 345 C 527 350.333, 527.407 354, 528 354 C 528.593 354, 529 350.333, 529 345 C 529 339.667, 528.593 336, 528 336 C 527.407 336, 527 339.667, 527 345 M 530 345 L 530 354 540 354 L 550 354 550 345 L 550 336 540 336 L 530 336 530 345 M 599 345 L 599 354 609 354 L 619 354 619 345 L 619 336 609 336 L 599 336 599 345 M 620 345 C 620 350.333, 620.407 354, 621 354 C 621.593 354, 622 350.333, 622 345 C 622 339.667, 621.593 336, 621 336 C 620.407 336, 620 339.667, 620 345 M 33.923 347.250 C 33.881 347.387, 33.768 348.963, 33.673 350.750 C 33.548 353.093, 33.933 354, 35.049 354 C 36.231 354, 36.501 353.170, 36.190 350.500 C 35.965 348.575, 35.380 347, 34.891 347 C 34.401 347, 33.965 347.113, 33.923 347.250 M 38.507 347.989 C 38.157 348.555, 38.558 348.723, 39.448 348.382 C 41.430 347.621, 41.465 349.369, 39.500 351 C 37.216 352.896, 37.700 354.013, 40.750 353.884 C 42.580 353.807, 42.889 353.610, 41.675 353.296 C 39.963 352.854, 39.954 352.709, 41.522 350.975 C 42.443 349.958, 42.900 348.648, 42.539 348.063 C 41.712 346.726, 39.315 346.681, 38.507 347.989 M 627.923 347.250 C 627.881 347.387, 627.768 348.963, 627.673 350.750 C 627.548 353.093, 627.933 354, 629.049 354 C 630.231 354, 630.501 353.170, 630.190 350.500 C 629.965 348.575, 629.380 347, 628.891 347 C 628.401 347, 627.965 347.113, 627.923 347.250 M 632.507 347.989 C 632.157 348.555, 632.558 348.723, 633.448 348.382 C 635.430 347.621, 635.465 349.369, 633.500 351 C 631.216 352.896, 631.700 354.013, 634.750 353.884 C 636.580 353.807, 636.889 353.610, 635.675 353.296 C 633.963 352.854, 633.954 352.709, 635.522 350.975 C 636.443 349.958, 636.900 348.648, 636.539 348.063 C 635.712 346.726, 633.315 346.681, 632.507 347.989 M 57.750 354.792 L 50 355.084 50 364.042 L 50 373 65.500 373 L 81 373 81 364.076 L 81 355.152 73.250 354.826 C 68.987 354.647, 62.013 354.631, 57.750 354.792 M 275.750 354.810 L 272 355.121 272 364.060 L 272 373 283.500 373 L 295 373 295 364 L 295 355 291.750 354.936 C 289.962 354.901, 286.475 354.789, 284 354.686 C 281.525 354.584, 277.813 354.640, 275.750 354.810 M 299.750 354.810 L 296 355.121 296 364.060 L 296 373 307.500 373 L 319 373 319 364 L 319 355 315.750 354.936 C 313.962 354.901, 310.475 354.789, 308 354.686 C 305.525 354.584, 301.813 354.640, 299.750 354.810 M 461.750 354.810 L 458 355.121 458 364.060 L 458 373 469.500 373 L 481 373 481 364 L 481 355 477.750 354.936 C 475.962 354.901, 472.475 354.789, 470 354.686 C 467.525 354.584, 463.813 354.640, 461.750 354.810 M 485.750 354.810 L 482 355.121 482 364.060 L 482 373 493.500 373 L 505 373 505 364 L 505 355 501.750 354.936 C 499.962 354.901, 496.475 354.789, 494 354.686 C 491.525 354.584, 487.813 354.640, 485.750 354.810 M 47 364 C 47 369.333, 47.407 373, 48 373 C 48.593 373, 49 369.333, 49 364 C 49 358.667, 48.593 355, 48 355 C 47.407 355, 47 358.667, 47 364 M 82 364 C 82 369.333, 82.407 373, 83 373 C 83.593 373, 84 369.333, 84 364 C 84 358.667, 83.593 355, 83 355 C 82.407 355, 82 358.667, 82 364 M 85 364 L 85 373 166 373 L 247 373 247 364 L 247 355 166 355 L 85 355 85 364 M 248 364 C 248 369.333, 248.407 373, 249 373 C 249.593 373, 250 369.333, 250 364 C 250 358.667, 249.593 355, 249 355 C 248.407 355, 248 358.667, 248 364 M 251 364 L 251 373 261 373 L 271 373 271 364 L 271 355 261 355 L 251 355 251 364 M 320 364 L 320 373 330 373 L 340 373 340 364 L 340 355 330 355 L 320 355 320 364 M 341 364 C 341 369.333, 341.407 373, 342 373 C 342.593 373, 343 369.333, 343 364 C 343 358.667, 342.593 355, 342 355 C 341.407 355, 341 358.667, 341 364 M 344 364 L 344 373 354 373 L 364 373 364 364 L 364 355 354 355 L 344 355 344 364 M 365 363.929 L 365 372.857 376.500 372.857 L 388 372.857 388 363.929 L 388 355 376.500 355 L 365 355 365 363.929 M 389 363.929 L 389 372.857 400.500 372.857 L 412 372.857 412 363.929 L 412 355 400.500 355 L 389 355 389 363.929 M 413 364 L 413 373 423 373 L 433 373 433 364 L 433 355 423 355 L 413 355 413 364 M 434 364 C 434 369.333, 434.407 373, 435 373 C 435.593 373, 436 369.333, 436 364 C 436 358.667, 435.593 355, 435 355 C 434.407 355, 434 358.667, 434 364 M 437 364 L 437 373 447 373 L 457 373 457 364 L 457 355 447 355 L 437 355 437 364 M 506 364 L 506 373 516 373 L 526 373 526 364 L 526 355 516 355 L 506 355 506 364 M 527 364 C 527 369.333, 527.407 373, 528 373 C 528.593 373, 529 369.333, 529 364 C 529 358.667, 528.593 355, 528 355 C 527.407 355, 527 358.667, 527 364 M 530 364 L 530 373 540 373 L 550 373 550 364 L 550 355 540 355 L 530 355 530 364 M 551 363.929 L 551 372.857 562.500 372.857 L 574 372.857 574 363.929 L 574 355 562.500 355 L 551 355 551 363.929 M 575 363.929 L 575 372.857 586.500 372.857 L 598 372.857 598 363.929 L 598 355 586.500 355 L 575 355 575 363.929 M 599 364 L 599 373 609 373 L 619 373 619 364 L 619 355 609 355 L 599 355 599 364 M 620 364 C 620 369.333, 620.407 373, 621 373 C 621.593 373, 622 369.333, 622 364 C 622 358.667, 621.593 355, 621 355 C 620.407 355, 620 358.667, 620 364 M 33.923 366.250 C 33.881 366.387, 33.768 367.963, 33.673 369.750 C 33.548 372.093, 33.933 373, 35.049 373 C 36.231 373, 36.501 372.170, 36.190 369.500 C 35.965 367.575, 35.380 366, 34.891 366 C 34.401 366, 33.965 366.113, 33.923 366.250 M 38.541 366.933 C 38.153 367.562, 38.513 367.740, 39.448 367.382 C 40.302 367.054, 41 367.247, 41 367.810 C 41 368.373, 40.438 369.060, 39.750 369.338 C 38.750 369.741, 38.750 369.858, 39.750 369.921 C 40.438 369.964, 41 370.498, 41 371.107 C 41 371.748, 40.264 371.934, 39.250 371.548 C 37.899 371.033, 37.770 371.153, 38.683 372.074 C 40.609 374.014, 42.912 372.420, 42.674 369.313 C 42.455 366.471, 39.779 364.930, 38.541 366.933 M 627.923 366.250 C 627.881 366.387, 627.768 367.963, 627.673 369.750 C 627.548 372.093, 627.933 373, 629.049 373 C 630.231 373, 630.501 372.170, 630.190 369.500 C 629.965 367.575, 629.380 366, 628.891 366 C 628.401 366, 627.965 366.113, 627.923 366.250 M 632.541 366.933 C 632.153 367.562, 632.513 367.740, 633.448 367.382 C 634.302 367.054, 635 367.247, 635 367.810 C 635 368.373, 634.438 369.060, 633.750 369.338 C 632.750 369.741, 632.750 369.858, 633.750 369.921 C 634.438 369.964, 635 370.498, 635 371.107 C 635 371.748, 634.264 371.934, 633.250 371.548 C 631.899 371.033, 631.770 371.153, 632.683 372.074 C 634.609 374.014, 636.912 372.420, 636.674 369.313 C 636.455 366.471, 633.779 364.930, 632.541 366.933 M 368.750 373.810 L 365 374.121 365 383.060 L 365 392 376.500 392 L 388 392 388 383 L 388 374 384.750 373.936 C 382.962 373.901, 379.475 373.789, 377 373.686 C 374.525 373.584, 370.813 373.640, 368.750 373.810 M 392.750 373.810 L 389 374.121 389 383.060 L 389 392 400.500 392 L 412 392 412 383 L 412 374 408.750 373.936 C 406.962 373.901, 403.475 373.789, 401 373.686 C 398.525 373.584, 394.813 373.640, 392.750 373.810 M 554.750 373.810 L 551 374.121 551 383.060 L 551 392 562.500 392 L 574 392 574 383 L 574 374 570.750 373.936 C 568.962 373.901, 565.475 373.789, 563 373.686 C 560.525 373.584, 556.813 373.640, 554.750 373.810 M 578.750 373.810 L 575 374.121 575 383.060 L 575 392 586.500 392 L 598 392 598 383 L 598 374 594.750 373.936 C 592.962 373.901, 589.475 373.789, 587 373.686 C 584.525 373.584, 580.813 373.640, 578.750 373.810 M 47 383 C 47 388.333, 47.407 392, 48 392 C 48.593 392, 49 388.333, 49 383 C 49 377.667, 48.593 374, 48 374 C 47.407 374, 47 377.667, 47 383 M 50 382.971 L 50 391.941 65.500 391.941 L 81 391.941 81 382.971 L 81 374 65.500 374 L 50 374 50 382.971 M 82 383 C 82 388.333, 82.407 392, 83 392 C 83.593 392, 84 388.333, 84 383 C 84 377.667, 83.593 374, 83 374 C 82.407 374, 82 377.667, 82 383 M 85 383 L 85 392 166 392 L 247 392 247 383 L 247 374 166 374 L 85 374 85 383 M 248 383 C 248 388.333, 248.407 392, 249 392 C 249.593 392, 250 388.333, 250 383 C 250 377.667, 249.593 374, 249 374 C 248.407 374, 248 377.667, 248 383 M 251 383 L 251 392 261 392 L 271 392 271 383 L 271 374 261 374 L 251 374 251 383 M 272 382.929 L 272 391.857 283.500 391.857 L 295 391.857 295 382.929 L 295 374 283.500 374 L 272 374 272 382.929 M 296 382.929 L 296 391.857 307.500 391.857 L 319 391.857 319 382.929 L 319 374 307.500 374 L 296 374 296 382.929 M 320 383 L 320 392 330 392 L 340 392 340 383 L 340 374 330 374 L 320 374 320 383 M 341 383 C 341 388.333, 341.407 392, 342 392 C 342.593 392, 343 388.333, 343 383 C 343 377.667, 342.593 374, 342 374 C 341.407 374, 341 377.667, 341 383 M 344 383 L 344 392 354 392 L 364 392 364 383 L 364 374 354 374 L 344 374 344 383 M 413 383 L 413 392 423 392 L 433 392 433 383 L 433 374 423 374 L 413 374 413 383 M 434 383 C 434 388.333, 434.407 392, 435 392 C 435.593 392, 436 388.333, 436 383 C 436 377.667, 435.593 374, 435 374 C 434.407 374, 434 377.667, 434 383 M 437 383 L 437 392 447 392 L 457 392 457 383 L 457 374 447 374 L 437 374 437 383 M 458 382.929 L 458 391.857 469.500 391.857 L 481 391.857 481 382.929 L 481 374 469.500 374 L 458 374 458 382.929 M 482 382.929 L 482 391.857 493.500 391.857 L 505 391.857 505 382.929 L 505 374 493.500 374 L 482 374 482 382.929 M 506 383 L 506 392 516 392 L 526 392 526 383 L 526 374 516 374 L 506 374 506 383 M 527 383 C 527 388.333, 527.407 392, 528 392 C 528.593 392, 529 388.333, 529 383 C 529 377.667, 528.593 374, 528 374 C 527.407 374, 527 377.667, 527 383 M 530 383 L 530 392 540 392 L 550 392 550 383 L 550 374 540 374 L 530 374 530 383 M 599 383 L 599 392 609 392 L 619 392 619 383 L 619 374 609 374 L 599 374 599 383 M 620 383 C 620 388.333, 620.407 392, 621 392 C 621.593 392, 622 388.333, 622 383 C 622 377.667, 621.593 374, 621 374 C 620.407 374, 620 377.667, 620 383 M 33.923 385.250 C 33.881 385.387, 33.768 386.963, 33.673 388.750 C 33.548 391.093, 33.933 392, 35.049 392 C 36.231 392, 36.501 391.170, 36.190 388.500 C 35.965 386.575, 35.380 385, 34.891 385 C 34.401 385, 33.965 385.113, 33.923 385.250 M 39.123 387.629 C 38.464 389.075, 38.082 390.416, 38.274 390.608 C 39.012 391.345, 42.877 391.463, 42.937 390.750 C 43.447 384.674, 41.278 382.899, 39.123 387.629 M 627.923 385.250 C 627.881 385.387, 627.768 386.963, 627.673 388.750 C 627.548 391.093, 627.933 392, 629.049 392 C 630.231 392, 630.501 391.170, 630.190 388.500 C 629.965 386.575, 629.380 385, 628.891 385 C 628.401 385, 627.965 385.113, 627.923 385.250 M 633.123 387.629 C 632.464 389.075, 632.082 390.416, 632.274 390.608 C 633.012 391.345, 636.877 391.463, 636.937 390.750 C 637.447 384.674, 635.278 382.899, 633.123 387.629 M 39.638 388.500 C 39.322 389.325, 39.499 390, 40.031 390 C 40.564 390, 41 389.325, 41 388.500 C 41 387.675, 40.823 387, 40.607 387 C 40.391 387, 39.955 387.675, 39.638 388.500 M 633.638 388.500 C 633.322 389.325, 633.499 390, 634.031 390 C 634.564 390, 635 389.325, 635 388.500 C 635 387.675, 634.823 387, 634.607 387 C 634.391 387, 633.955 387.675, 633.638 388.500 M 57.750 392.792 L 50 393.084 50 402.042 L 50 411 65.500 411 L 81 411 81 402.076 L 81 393.152 73.250 392.826 C 68.987 392.647, 62.013 392.631, 57.750 392.792 M 275.750 392.810 L 272 393.121 272 402.060 L 272 411 283.500 411 L 295 411 295 402 L 295 393 291.750 392.936 C 289.962 392.901, 286.475 392.789, 284 392.686 C 281.525 392.584, 277.813 392.640, 275.750 392.810 M 299.750 392.810 L 296 393.121 296 402.060 L 296 411 307.500 411 L 319 411 319 402 L 319 393 315.750 392.936 C 313.962 392.901, 310.475 392.789, 308 392.686 C 305.525 392.584, 301.813 392.640, 299.750 392.810 M 461.750 392.810 L 458 393.121 458 402.060 L 458 411 469.500 411 L 481 411 481 402 L 481 393 477.750 392.936 C 475.962 392.901, 472.475 392.789, 470 392.686 C 467.525 392.584, 463.813 392.640, 461.750 392.810 M 485.750 392.810 L 482 393.121 482 402.060 L 482 411 493.500 411 L 505 411 505 402 L 505 393 501.750 392.936 C 499.962 392.901, 496.475 392.789, 494 392.686 C 491.525 392.584, 487.813 392.640, 485.750 392.810 M 47 402 C 47 407.333, 47.407 411, 48 411 C 48.593 411, 49 407.333, 49 402 C 49 396.667, 48.593 393, 48 393 C 47.407 393, 47 396.667, 47 402 M 82 402 C 82 407.333, 82.407 411, 83 411 C 83.593 411, 84 407.333, 84 402 C 84 396.667, 83.593 393, 83 393 C 82.407 393, 82 396.667, 82 402 M 85 402 L 85 411 166 411 L 247 411 247 402 L 247 393 166 393 L 85 393 85 402 M 248 402 C 248 407.333, 248.407 411, 249 411 C 249.593 411, 250 407.333, 250 402 C 250 396.667, 249.593 393, 249 393 C 248.407 393, 248 396.667, 248 402 M 251 402 L 251 411 261 411 L 271 411 271 402 L 271 393 261 393 L 251 393 251 402 M 320 402 L 320 411 330 411 L 340 411 340 402 L 340 393 330 393 L 320 393 320 402 M 341 402 C 341 407.333, 341.407 411, 342 411 C 342.593 411, 343 407.333, 343 402 C 343 396.667, 342.593 393, 342 393 C 341.407 393, 341 396.667, 341 402 M 344 402 L 344 411 354 411 L 364 411 364 402 L 364 393 354 393 L 344 393 344 402 M 365 401.929 L 365 410.857 376.500 410.857 L 388 410.857 388 401.929 L 388 393 376.500 393 L 365 393 365 401.929 M 389 401.929 L 389 410.857 400.500 410.857 L 412 410.857 412 401.929 L 412 393 400.500 393 L 389 393 389 401.929 M 413 402 L 413 411 423 411 L 433 411 433 402 L 433 393 423 393 L 413 393 413 402 M 434 402 C 434 407.333, 434.407 411, 435 411 C 435.593 411, 436 407.333, 436 402 C 436 396.667, 435.593 393, 435 393 C 434.407 393, 434 396.667, 434 402 M 437 402 L 437 411 447 411 L 457 411 457 402 L 457 393 447 393 L 437 393 437 402 M 506 402 L 506 411 516 411 L 526 411 526 402 L 526 393 516 393 L 506 393 506 402 M 527 402 C 527 407.333, 527.407 411, 528 411 C 528.593 411, 529 407.333, 529 402 C 529 396.667, 528.593 393, 528 393 C 527.407 393, 527 396.667, 527 402 M 530 402 L 530 411 540 411 L 550 411 550 402 L 550 393 540 393 L 530 393 530 402 M 551 401.929 L 551 410.857 562.500 410.857 L 574 410.857 574 401.929 L 574 393 562.500 393 L 551 393 551 401.929 M 575 401.929 L 575 410.857 586.500 410.857 L 598 410.857 598 401.929 L 598 393 586.500 393 L 575 393 575 401.929 M 599 402 L 599 411 609 411 L 619 411 619 402 L 619 393 609 393 L 599 393 599 402 M 620 402 C 620 407.333, 620.407 411, 621 411 C 621.593 411, 622 407.333, 622 402 C 622 396.667, 621.593 393, 621 393 C 620.407 393, 620 396.667, 620 402 M 33.923 404.250 C 33.881 404.387, 33.768 405.963, 33.673 407.750 C 33.548 410.093, 33.933 411, 35.049 411 C 36.231 411, 36.501 410.170, 36.190 407.500 C 35.965 405.575, 35.380 404, 34.891 404 C 34.401 404, 33.965 404.113, 33.923 404.250 M 38 405.500 C 38 406.325, 38.675 407, 39.500 407 C 40.325 407, 41 407.723, 41 408.607 C 41 409.725, 40.467 410.011, 39.250 409.548 C 37.899 409.033, 37.770 409.153, 38.683 410.074 C 40.183 411.586, 43 410.559, 43 408.500 C 43 407.640, 42.245 406.648, 41.323 406.294 C 39.823 405.718, 39.849 405.571, 41.573 404.895 C 43.185 404.264, 43.050 404.129, 40.750 404.070 C 38.941 404.024, 38 404.513, 38 405.500 M 627.923 404.250 C 627.881 404.387, 627.768 405.963, 627.673 407.750 C 627.548 410.093, 627.933 411, 629.049 411 C 630.231 411, 630.501 410.170, 630.190 407.500 C 629.965 405.575, 629.380 404, 628.891 404 C 628.401 404, 627.965 404.113, 627.923 404.250 M 632 405.500 C 632 406.325, 632.675 407, 633.500 407 C 634.325 407, 635 407.723, 635 408.607 C 635 409.725, 634.467 410.011, 633.250 409.548 C 631.899 409.033, 631.770 409.153, 632.683 410.074 C 634.183 411.586, 637 410.559, 637 408.500 C 637 407.640, 636.245 406.648, 635.323 406.294 C 633.823 405.718, 633.849 405.571, 635.573 404.895 C 637.185 404.264, 637.050 404.129, 634.750 404.070 C 632.941 404.024, 632 404.513, 632 405.500 M 368.750 411.810 L 365 412.121 365 421.060 L 365 430 376.500 430 L 388 430 388 421 L 388 412 384.750 411.936 C 382.962 411.901, 379.475 411.789, 377 411.686 C 374.525 411.584, 370.813 411.640, 368.750 411.810 M 392.750 411.810 L 389 412.121 389 421.060 L 389 430 400.500 430 L 412 430 412 421 L 412 412 408.750 411.936 C 406.962 411.901, 403.475 411.789, 401 411.686 C 398.525 411.584, 394.813 411.640, 392.750 411.810 M 554.750 411.810 L 551 412.121 551 421.060 L 551 430 562.500 430 L 574 430 574 421 L 574 412 570.750 411.936 C 568.962 411.901, 565.475 411.789, 563 411.686 C 560.525 411.584, 556.813 411.640, 554.750 411.810 M 578.750 411.810 L 575 412.121 575 421.060 L 575 430 586.500 430 L 598 430 598 421 L 598 412 594.750 411.936 C 592.962 411.901, 589.475 411.789, 587 411.686 C 584.525 411.584, 580.813 411.640, 578.750 411.810 M 47 421 C 47 426.333, 47.407 430, 48 430 C 48.593 430, 49 426.333, 49 421 C 49 415.667, 48.593 412, 48 412 C 47.407 412, 47 415.667, 47 421 M 50 420.971 L 50 429.941 65.500 429.941 L 81 429.941 81 420.971 L 81 412 65.500 412 L 50 412 50 420.971 M 82 421 C 82 426.333, 82.407 430, 83 430 C 83.593 430, 84 426.333, 84 421 C 84 415.667, 83.593 412, 83 412 C 82.407 412, 82 415.667, 82 421 M 85 421 L 85 430 166 430 L 247 430 247 421 L 247 412 166 412 L 85 412 85 421 M 248 421 C 248 426.333, 248.407 430, 249 430 C 249.593 430, 250 426.333, 250 421 C 250 415.667, 249.593 412, 249 412 C 248.407 412, 248 415.667, 248 421 M 251 421 L 251 430 261 430 L 271 430 271 421 L 271 412 261 412 L 251 412 251 421 M 272 420.929 L 272 429.857 283.500 429.857 L 295 429.857 295 420.929 L 295 412 283.500 412 L 272 412 272 420.929 M 296 420.929 L 296 429.857 307.500 429.857 L 319 429.857 319 420.929 L 319 412 307.500 412 L 296 412 296 420.929 M 320 421 L 320 430 330 430 L 340 430 340 421 L 340 412 330 412 L 320 412 320 421 M 341 421 C 341 426.333, 341.407 430, 342 430 C 342.593 430, 343 426.333, 343 421 C 343 415.667, 342.593 412, 342 412 C 341.407 412, 341 415.667, 341 421 M 344 421 L 344 430 354 430 L 364 430 364 421 L 364 412 354 412 L 344 412 344 421 M 413 421 L 413 430 423 430 L 433 430 433 421 L 433 412 423 412 L 413 412 413 421 M 434 421 C 434 426.333, 434.407 430, 435 430 C 435.593 430, 436 426.333, 436 421 C 436 415.667, 435.593 412, 435 412 C 434.407 412, 434 415.667, 434 421 M 437 421 L 437 430 447 430 L 457 430 457 421 L 457 412 447 412 L 437 412 437 421 M 458 420.929 L 458 429.857 469.500 429.857 L 481 429.857 481 420.929 L 481 412 469.500 412 L 458 412 458 420.929 M 482 420.929 L 482 429.857 493.500 429.857 L 505 429.857 505 420.929 L 505 412 493.500 412 L 482 412 482 420.929 M 506 421 L 506 430 516 430 L 526 430 526 421 L 526 412 516 412 L 506 412 506 421 M 527 421 C 527 426.333, 527.407 430, 528 430 C 528.593 430, 529 426.333, 529 421 C 529 415.667, 528.593 412, 528 412 C 527.407 412, 527 415.667, 527 421 M 530 421 L 530 430 540 430 L 550 430 550 421 L 550 412 540 412 L 530 412 530 421 M 599 421 L 599 430 609 430 L 619 430 619 421 L 619 412 609 412 L 599 412 599 421 M 620 421 C 620 426.333, 620.407 430, 621 430 C 621.593 430, 622 426.333, 622 421 C 622 415.667, 621.593 412, 621 412 C 620.407 412, 620 415.667, 620 421 M 33.923 423.250 C 33.881 423.387, 33.768 424.963, 33.673 426.750 C 33.548 429.093, 33.933 430, 35.049 430 C 36.231 430, 36.501 429.170, 36.190 426.500 C 35.965 424.575, 35.380 423, 34.891 423 C 34.401 423, 33.965 423.113, 33.923 423.250 M 39.200 424.200 C 37.505 425.895, 37.710 428.952, 39.567 429.664 C 40.429 429.995, 41.667 429.726, 42.317 429.065 C 43.229 428.140, 43.107 427.575, 41.785 426.598 C 40.479 425.633, 40.348 425.052, 41.235 424.165 C 41.901 423.499, 41.972 423, 41.400 423 C 40.850 423, 39.860 423.540, 39.200 424.200 M 627.923 423.250 C 627.881 423.387, 627.768 424.963, 627.673 426.750 C 627.548 429.093, 627.933 430, 629.049 430 C 630.231 430, 630.501 429.170, 630.190 426.500 C 629.965 424.575, 629.380 423, 628.891 423 C 628.401 423, 627.965 423.113, 627.923 423.250 M 633.200 424.200 C 631.505 425.895, 631.710 428.952, 633.567 429.664 C 634.429 429.995, 635.667 429.726, 636.317 429.065 C 637.229 428.140, 637.107 427.575, 635.785 426.598 C 634.479 425.633, 634.348 425.052, 635.235 424.165 C 635.901 423.499, 635.972 423, 635.400 423 C 634.850 423, 633.860 423.540, 633.200 424.200 M 57.750 430.792 L 50 431.084 50 440.042 L 50 449 65.500 449 L 81 449 81 440.076 L 81 431.152 73.250 430.826 C 68.987 430.647, 62.013 430.631, 57.750 430.792 M 275.750 430.810 L 272 431.121 272 440.060 L 272 449 283.500 449 L 295 449 295 440 L 295 431 291.750 430.936 C 289.962 430.901, 286.475 430.789, 284 430.686 C 281.525 430.584, 277.813 430.640, 275.750 430.810 M 299.750 430.810 L 296 431.121 296 440.060 L 296 449 307.500 449 L 319 449 319 440 L 319 431 315.750 430.936 C 313.962 430.901, 310.475 430.789, 308 430.686 C 305.525 430.584, 301.813 430.640, 299.750 430.810 M 461.750 430.810 L 458 431.121 458 440.060 L 458 449 469.500 449 L 481 449 481 440 L 481 431 477.750 430.936 C 475.962 430.901, 472.475 430.789, 470 430.686 C 467.525 430.584, 463.813 430.640, 461.750 430.810 M 485.750 430.810 L 482 431.121 482 440.060 L 482 449 493.500 449 L 505 449 505 440 L 505 431 501.750 430.936 C 499.962 430.901, 496.475 430.789, 494 430.686 C 491.525 430.584, 487.813 430.640, 485.750 430.810 M 47 440 C 47 445.333, 47.407 449, 48 449 C 48.593 449, 49 445.333, 49 440 C 49 434.667, 48.593 431, 48 431 C 47.407 431, 47 434.667, 47 440 M 82 440 C 82 445.333, 82.407 449, 83 449 C 83.593 449, 84 445.333, 84 440 C 84 434.667, 83.593 431, 83 431 C 82.407 431, 82 434.667, 82 440 M 85 440 L 85 449 166 449 L 247 449 247 440 L 247 431 166 431 L 85 431 85 440 M 248 440 C 248 445.333, 248.407 449, 249 449 C 249.593 449, 250 445.333, 250 440 C 250 434.667, 249.593 431, 249 431 C 248.407 431, 248 434.667, 248 440 M 251 440 L 251 449 261 449 L 271 449 271 440 L 271 431 261 431 L 251 431 251 440 M 320 440 L 320 449 330 449 L 340 449 340 440 L 340 431 330 431 L 320 431 320 440 M 341 440 C 341 445.333, 341.407 449, 342 449 C 342.593 449, 343 445.333, 343 440 C 343 434.667, 342.593 431, 342 431 C 341.407 431, 341 434.667, 341 440 M 344 440 L 344 449 354 449 L 364 449 364 440 L 364 431 354 431 L 344 431 344 440 M 365 439.929 L 365 448.857 376.500 448.857 L 388 448.857 388 439.929 L 388 431 376.500 431 L 365 431 365 439.929 M 389 439.929 L 389 448.857 400.500 448.857 L 412 448.857 412 439.929 L 412 431 400.500 431 L 389 431 389 439.929 M 413 440 L 413 449 423 449 L 433 449 433 440 L 433 431 423 431 L 413 431 413 440 M 434 440 C 434 445.333, 434.407 449, 435 449 C 435.593 449, 436 445.333, 436 440 C 436 434.667, 435.593 431, 435 431 C 434.407 431, 434 434.667, 434 440 M 437 440 L 437 449 447 449 L 457 449 457 440 L 457 431 447 431 L 437 431 437 440 M 506 440 L 506 449 516 449 L 526 449 526 440 L 526 431 516 431 L 506 431 506 440 M 527 440 C 527 445.333, 527.407 449, 528 449 C 528.593 449, 529 445.333, 529 440 C 529 434.667, 528.593 431, 528 431 C 527.407 431, 527 434.667, 527 440 M 530 440 L 530 449 540 449 L 550 449 550 440 L 550 431 540 431 L 530 431 530 440 M 551 439.929 L 551 448.857 562.500 448.857 L 574 448.857 574 439.929 L 574 431 562.500 431 L 551 431 551 439.929 M 575 439.929 L 575 448.857 586.500 448.857 L 598 448.857 598 439.929 L 598 431 586.500 431 L 575 431 575 439.929 M 599 440 L 599 449 609 449 L 619 449 619 440 L 619 431 609 431 L 599 431 599 440 M 620 440 C 620 445.333, 620.407 449, 621 449 C 621.593 449, 622 445.333, 622 440 C 622 434.667, 621.593 431, 621 431 C 620.407 431, 620 434.667, 620 440 M 33.923 442.250 C 33.881 442.387, 33.768 443.963, 33.673 445.750 C 33.548 448.093, 33.933 449, 35.049 449 C 36.231 449, 36.501 448.170, 36.190 445.500 C 35.965 443.575, 35.380 442, 34.891 442 C 34.401 442, 33.965 442.113, 33.923 442.250 M 39.323 442.703 C 40.416 442.986, 40.917 443.741, 40.573 444.587 C 40.258 445.364, 39.727 446.675, 39.393 447.500 C 38.341 450.100, 40.623 449.124, 41.839 446.453 C 43.552 442.694, 43.293 441.988, 40.250 442.116 C 38.424 442.193, 38.113 442.390, 39.323 442.703 M 627.923 442.250 C 627.881 442.387, 627.768 443.963, 627.673 445.750 C 627.548 448.093, 627.933 449, 629.049 449 C 630.231 449, 630.501 448.170, 630.190 445.500 C 629.965 443.575, 629.380 442, 628.891 442 C 628.401 442, 627.965 442.113, 627.923 442.250 M 633.323 442.703 C 634.416 442.986, 634.917 443.741, 634.573 444.587 C 634.258 445.364, 633.727 446.675, 633.393 447.500 C 632.341 450.100, 634.623 449.124, 635.839 446.453 C 637.552 442.694, 637.293 441.988, 634.250 442.116 C 632.424 442.193, 632.113 442.390, 633.323 442.703 M 368.750 449.810 L 365 450.121 365 459.060 L 365 468 376.500 468 L 388 468 388 459 L 388 450 384.750 449.936 C 382.962 449.901, 379.475 449.789, 377 449.686 C 374.525 449.584, 370.813 449.640, 368.750 449.810 M 392.750 449.810 L 389 450.121 389 459.060 L 389 468 400.500 468 L 412 468 412 459 L 412 450 408.750 449.936 C 406.962 449.901, 403.475 449.789, 401 449.686 C 398.525 449.584, 394.813 449.640, 392.750 449.810 M 554.750 449.810 L 551 450.121 551 459.060 L 551 468 562.500 468 L 574 468 574 459 L 574 450 570.750 449.936 C 568.962 449.901, 565.475 449.789, 563 449.686 C 560.525 449.584, 556.813 449.640, 554.750 449.810 M 578.750 449.810 L 575 450.121 575 459.060 L 575 468 586.500 468 L 598 468 598 459 L 598 450 594.750 449.936 C 592.962 449.901, 589.475 449.789, 587 449.686 C 584.525 449.584, 580.813 449.640, 578.750 449.810 M 47 459 C 47 464.333, 47.407 468, 48 468 C 48.593 468, 49 464.333, 49 459 C 49 453.667, 48.593 450, 48 450 C 47.407 450, 47 453.667, 47 459 M 50 458.924 L 50 467.848 57.750 468.174 C 62.013 468.353, 68.987 468.369, 73.250 468.208 L 81 467.916 81 458.958 L 81 450 65.500 450 L 50 450 50 458.924 M 82 459 C 82 464.333, 82.407 468, 83 468 C 83.593 468, 84 464.333, 84 459 C 84 453.667, 83.593 450, 83 450 C 82.407 450, 82 453.667, 82 459 M 85 459 L 85 468 166 468 L 247 468 247 459 L 247 450 166 450 L 85 450 85 459 M 248 459 C 248 464.333, 248.407 468, 249 468 C 249.593 468, 250 464.333, 250 459 C 250 453.667, 249.593 450, 249 450 C 248.407 450, 248 453.667, 248 459 M 251 459 L 251 468 261 468 L 271 468 271 459 L 271 450 261 450 L 251 450 251 459 M 272 459 L 272 468 275.500 468.071 C 277.425 468.111, 281.025 468.143, 283.500 468.143 C 285.975 468.143, 289.575 468.111, 291.500 468.071 L 295 468 295 459 L 295 450 283.500 450 L 272 450 272 459 M 296 459 L 296 468 299.500 468.071 C 301.425 468.111, 305.025 468.143, 307.500 468.143 C 309.975 468.143, 313.575 468.111, 315.500 468.071 L 319 468 319 459 L 319 450 307.500 450 L 296 450 296 459 M 320 459 L 320 468 330 468 L 340 468 340 459 L 340 450 330 450 L 320 450 320 459 M 341 459 C 341 464.333, 341.407 468, 342 468 C 342.593 468, 343 464.333, 343 459 C 343 453.667, 342.593 450, 342 450 C 341.407 450, 341 453.667, 341 459 M 344 459 L 344 468 354 468 L 364 468 364 459 L 364 450 354 450 L 344 450 344 459 M 413 459 L 413 468 423 468 L 433 468 433 459 L 433 450 423 450 L 413 450 413 459 M 434 459 C 434 464.333, 434.407 468, 435 468 C 435.593 468, 436 464.333, 436 459 C 436 453.667, 435.593 450, 435 450 C 434.407 450, 434 453.667, 434 459 M 437 459 L 437 468 447 468 L 457 468 457 459 L 457 450 447 450 L 437 450 437 459 M 458 459 L 458 468 461.500 468.071 C 463.425 468.111, 467.025 468.143, 469.500 468.143 C 471.975 468.143, 475.575 468.111, 477.500 468.071 L 481 468 481 459 L 481 450 469.500 450 L 458 450 458 459 M 482 459 L 482 468 485.500 468.071 C 487.425 468.111, 491.025 468.143, 493.500 468.143 C 495.975 468.143, 499.575 468.111, 501.500 468.071 L 505 468 505 459 L 505 450 493.500 450 L 482 450 482 459 M 506 459 L 506 468 516 468 L 526 468 526 459 L 526 450 516 450 L 506 450 506 459 M 527 459 C 527 464.333, 527.407 468, 528 468 C 528.593 468, 529 464.333, 529 459 C 529 453.667, 528.593 450, 528 450 C 527.407 450, 527 453.667, 527 459 M 530 459 L 530 468 540 468 L 550 468 550 459 L 550 450 540 450 L 530 450 530 459 M 599 459 L 599 468 609 468 L 619 468 619 459 L 619 450 609 450 L 599 450 599 459 M 620 459 C 620 464.333, 620.407 468, 621 468 C 621.593 468, 622 464.333, 622 459 C 622 453.667, 621.593 450, 621 450 C 620.407 450, 620 453.667, 620 459 M 33.923 461.250 C 33.881 461.387, 33.768 462.963, 33.673 464.750 C 33.548 467.093, 33.933 468, 35.049 468 C 36.231 468, 36.501 467.170, 36.190 464.500 C 35.965 462.575, 35.380 461, 34.891 461 C 34.401 461, 33.965 461.113, 33.923 461.250 M 38.706 461.695 C 38.441 462.138, 38.287 463.625, 38.362 465 C 38.461 466.787, 39.070 467.500, 40.500 467.500 C 42.054 467.500, 42.500 466.833, 42.500 464.514 C 42.500 461.653, 39.889 459.713, 38.706 461.695 M 627.923 461.250 C 627.881 461.387, 627.768 462.963, 627.673 464.750 C 627.548 467.093, 627.933 468, 629.049 468 C 630.231 468, 630.501 467.170, 630.190 464.500 C 629.965 462.575, 629.380 461, 628.891 461 C 628.401 461, 627.965 461.113, 627.923 461.250 M 632.706 461.695 C 632.441 462.138, 632.287 463.625, 632.362 465 C 632.461 466.787, 633.070 467.500, 634.500 467.500 C 636.054 467.500, 636.500 466.833, 636.500 464.514 C 636.500 461.653, 633.889 459.713, 632.706 461.695" stroke="none" fill="black" fill-rule="evenodd"/>
</svg>