<svg xmlns="http://www.w3.org/2000/svg" width="32" height="16" viewBox="0 0 32 16" version="1.1">
	<path d="M 0 8.067 L 0 16.134 10.250 15.909 C 15.888 15.786, 22.169 15.474, 24.209 15.216 L 27.917 14.748 28.260 7.624 L 28.603 0.500 28.801 8.156 C 28.986 15.275, 29.140 15.776, 31 15.290 C 32.772 14.826, 33 13.926, 33 7.383 L 33 0 16.500 0 L 0 0 0 8.067 M 0.267 8.500 C 0.169 16.070, 0.236 16.333, 1.527 13.390 C 2.278 11.679, 3.145 8.979, 3.455 7.390 C 3.944 4.880, 3.834 4.960, 2.617 8 L 1.216 11.500 0.793 6 C 0.445 1.473, 0.352 1.915, 0.267 8.500 M 26.286 7.500 C 26.294 10.250, 26.488 11.256, 26.718 9.736 C 26.947 8.216, 26.941 5.966, 26.704 4.736 C 26.467 3.506, 26.279 4.750, 26.286 7.500 M 19.109 7.250 C 17.525 11.483, 16.865 14, 17.339 14 C 17.599 14, 18.502 11.975, 19.345 9.500 C 20.886 4.978, 20.683 3.043, 19.109 7.250 M 22 9 C 22 12.856, 22.647 12.856, 23.213 9 C 23.455 7.350, 23.282 6, 22.827 6 C 22.372 6, 22 7.350, 22 9 M 14.252 10.500 C 14.263 12.700, 14.468 13.482, 14.707 12.238 C 14.946 10.994, 14.937 9.194, 14.687 8.238 C 14.437 7.282, 14.241 8.300, 14.252 10.500 M 30.252 10.500 C 30.263 12.700, 30.468 13.482, 30.707 12.238 C 30.946 10.994, 30.937 9.194, 30.687 8.238 C 30.437 7.282, 30.241 8.300, 30.252 10.500 M 20.079 10.668 C 20.036 11.311, 19.741 12.661, 19.424 13.668 C 18.877 15.409, 18.906 15.412, 19.995 13.712 C 20.626 12.729, 20.920 11.379, 20.650 10.712 C 20.295 9.837, 20.136 9.825, 20.079 10.668" stroke="none" fill="black" fill-rule="evenodd"/>
</svg>