<svg xmlns="http://www.w3.org/2000/svg" width="32" height="16" viewBox="0 0 32 16" version="1.1">
	<path d="M 0 8 L 0 16 10.032 16 C 19.501 16, 20.115 15.874, 20.969 13.750 L 21.873 11.500 21.937 13.802 C 21.996 15.945, 22.364 16.084, 27.250 15.802 L 32.500 15.500 32.792 7.750 L 33.084 0 16.542 0 L 0 0 0 8 M 0.343 8.500 C 0.346 12.900, 0.522 14.576, 0.733 12.224 C 0.945 9.872, 0.942 6.272, 0.727 4.224 C 0.512 2.176, 0.339 4.100, 0.343 8.500 M 24.500 4 C 24.160 4.550, 24.359 5, 24.941 5 C 25.523 5, 26 4.550, 26 4 C 26 3.450, 25.802 3, 25.559 3 C 25.316 3, 24.840 3.450, 24.500 4 M 19.500 5 C 19.160 5.550, 19.359 6, 19.941 6 C 20.523 6, 21 5.550, 21 5 C 21 4.450, 20.802 4, 20.559 4 C 20.316 4, 19.840 4.450, 19.500 5 M 30 5 C 28.718 5.828, 28.754 5.972, 30.250 5.985 C 31.212 5.993, 32 5.550, 32 5 C 32 3.780, 31.887 3.780, 30 5 M 8 10.500 C 8 14.976, 8.019 15, 11.500 15 C 14.567 15, 15 14.690, 15 12.500 C 15 10.944, 14.433 10, 13.500 10 C 12.667 10, 12 9.111, 12 8 C 12 6.667, 11.333 6, 10 6 C 8.296 6, 8 6.667, 8 10.500 M 24.175 10.750 L 24.349 15.500 24.729 11.313 C 24.990 8.433, 25.638 6.986, 26.804 6.679 C 28.015 6.360, 27.856 6.199, 26.250 6.116 C 24.193 6.010, 24.015 6.408, 24.175 10.750 M 13 8 C 13 8.550, 13.477 9, 14.059 9 C 14.641 9, 14.840 8.550, 14.500 8 C 14.160 7.450, 13.684 7, 13.441 7 C 13.198 7, 13 7.450, 13 8 M 20.557 8.582 C 18.935 9.768, 18.885 10, 20.250 10 C 21.148 10, 22.179 9.520, 22.541 8.933 C 23.601 7.218, 22.652 7.050, 20.557 8.582 M 9.750 11.662 C 10.438 11.940, 11.563 11.940, 12.250 11.662 C 12.938 11.385, 12.375 11.158, 11 11.158 C 9.625 11.158, 9.063 11.385, 9.750 11.662 M 26.750 12.662 C 27.438 12.940, 28.563 12.940, 29.250 12.662 C 29.938 12.385, 29.375 12.158, 28 12.158 C 26.625 12.158, 26.063 12.385, 26.750 12.662" stroke="none" fill="black" fill-rule="evenodd"/>
</svg>