<svg xmlns="http://www.w3.org/2000/svg" width="32" height="16" viewBox="0 0 32 16" version="1.1">
	<path d="M 0 0.800 C 0 1.240, 0.563 2.206, 1.250 2.947 C 2.250 4.024, 2.250 4.152, 1.250 3.588 C 0.563 3.200, 0 3.396, 0 4.024 C -0 6.052, 2.489 4.416, 2.820 2.172 C 3.032 0.729, 2.612 0, 1.570 0 C 0.706 0, 0 0.360, 0 0.800 M 4 2.917 C 4 4.521, 4.563 6.100, 5.250 6.426 C 5.938 6.753, 5.038 6.801, 3.250 6.535 C 1.366 6.254, 0 6.485, 0 7.084 C 0 7.653, 0.563 7.800, 1.250 7.412 C 2.250 6.848, 2.250 6.976, 1.250 8.053 C 0.563 8.794, 0 10.913, 0 12.761 L 0 16.123 16.250 15.811 L 32.500 15.500 32.615 11 C 32.678 8.525, 32.514 5.038, 32.251 3.250 L 31.773 0 17.887 0 L 4 0 4 2.917 M 5.607 2.582 C 4.622 5.150, 4.907 5.510, 6.355 3.529 C 8.086 1.162, 11 2.171, 11 5.135 C 11 6.344, 11.279 7.054, 11.620 6.713 C 11.961 6.372, 11.953 4.947, 11.601 3.547 C 10.864 0.611, 6.625 -0.071, 5.607 2.582 M 22.200 2.200 C 21.540 2.860, 21 3.846, 21 4.391 C 21 4.936, 21.563 4.659, 22.250 3.775 C 22.938 2.892, 24.400 1.958, 25.500 1.700 C 27.457 1.242, 27.456 1.230, 25.450 1.116 C 24.322 1.052, 22.860 1.540, 22.200 2.200 M 23 5 C 22.411 6.100, 22.070 7, 22.243 7 C 22.415 7, 23.326 6.100, 24.268 5 C 25.210 3.900, 25.551 3, 25.025 3 C 24.500 3, 23.589 3.900, 23 5 M 29.158 5 C 29.158 6.375, 29.385 6.938, 29.662 6.250 C 29.940 5.563, 29.940 4.438, 29.662 3.750 C 29.385 3.063, 29.158 3.625, 29.158 5 M 27.079 5.583 C 27.127 6.748, 27.364 6.985, 27.683 6.188 C 27.972 5.466, 27.936 4.603, 27.604 4.271 C 27.272 3.939, 27.036 4.529, 27.079 5.583 M 5.768 8.725 C 7.565 8.947, 10.265 8.943, 11.768 8.715 C 13.271 8.486, 11.800 8.304, 8.500 8.310 C 5.200 8.315, 3.971 8.502, 5.768 8.725 M 19.374 9.467 C 19.065 10.274, 19.043 11.511, 19.327 12.217 C 19.610 12.923, 19.878 12.511, 19.921 11.302 C 19.990 9.377, 20.651 9.059, 25.250 8.737 L 30.500 8.370 25.219 8.185 C 21.372 8.050, 19.784 8.399, 19.374 9.467 M 0.252 12.500 C 0.263 14.700, 0.468 15.482, 0.707 14.238 C 0.946 12.994, 0.937 11.194, 0.687 10.238 C 0.437 9.282, 0.241 10.300, 0.252 12.500 M 30.881 11.781 C 30.552 13.769, 30.698 14.702, 31.253 14.147 C 31.757 13.643, 32.002 12.166, 31.797 10.865 C 31.482 8.864, 31.342 9.004, 30.881 11.781 M 4.500 10.882 L 6.500 11.730 4.500 12.249 C 2.868 12.672, 2.822 12.789, 4.250 12.884 C 5.213 12.948, 6 13.450, 6 14 C 6 14.550, 7.125 15, 8.500 15 C 9.875 15, 11 14.550, 11 14 C 11 13.450, 11.787 12.968, 12.750 12.930 C 14.234 12.870, 14.196 12.739, 12.500 12.065 L 10.500 11.270 12.500 10.700 C 14.048 10.259, 13.935 10.172, 12 10.315 C 10.225 10.446, 9.585 11.007, 9.794 12.250 C 9.971 13.305, 9.457 14, 8.500 14 C 7.543 14, 7.029 13.305, 7.206 12.250 C 7.413 11.017, 6.762 10.431, 5 10.267 C 2.790 10.061, 2.732 10.133, 4.500 10.882 M 25.667 10.667 C 25.300 11.033, 25.029 12.271, 25.063 13.417 C 25.122 15.332, 25.204 15.307, 26.085 13.105 C 27.064 10.657, 26.861 9.472, 25.667 10.667" stroke="none" fill="black" fill-rule="evenodd"/>
</svg>