<svg xmlns="http://www.w3.org/2000/svg" width="32" height="16" viewBox="0 0 32 16" version="1.1">
	<path d="M 0 8.061 L 0 16.123 16.250 15.811 L 32.500 15.500 32.792 7.750 L 33.084 0 16.542 0 L 0 0 0 8.061 M 0.343 8.500 C 0.346 12.900, 0.522 14.576, 0.733 12.224 C 0.945 9.872, 0.942 6.272, 0.727 4.224 C 0.512 2.176, 0.339 4.100, 0.343 8.500 M 5.607 3.582 C 5.273 4.452, 5.029 5.689, 5.063 6.332 C 5.098 6.974, 5.534 6.488, 6.031 5.250 C 6.529 4.012, 7.640 3, 8.500 3 C 9.360 3, 10.471 4.012, 10.969 5.250 C 11.466 6.488, 11.902 6.974, 11.937 6.332 C 12.076 3.771, 10.670 2, 8.500 2 C 7.243 2, 5.941 2.712, 5.607 3.582 M 22.200 3.200 C 21.540 3.860, 21.032 5.098, 21.070 5.950 C 21.119 7.035, 21.372 6.907, 21.913 5.523 C 22.338 4.436, 23.769 3.243, 25.093 2.873 C 27.183 2.288, 27.230 2.186, 25.450 2.100 C 24.322 2.045, 22.860 2.540, 22.200 3.200 M 23.459 5.067 C 22.433 6.727, 23.354 6.957, 24.789 5.399 C 25.499 4.630, 25.638 4, 25.098 4 C 24.559 4, 23.821 4.480, 23.459 5.067 M 29.079 5.583 C 29.127 6.748, 29.364 6.985, 29.683 6.188 C 29.972 5.466, 29.936 4.603, 29.604 4.271 C 29.272 3.939, 29.036 4.529, 29.079 5.583 M 5.768 8.725 C 7.565 8.947, 10.265 8.943, 11.768 8.715 C 13.271 8.486, 11.800 8.304, 8.500 8.310 C 5.200 8.315, 3.971 8.502, 5.768 8.725 M 19.374 9.467 C 19.065 10.274, 19.043 11.511, 19.327 12.217 C 19.610 12.923, 19.878 12.511, 19.921 11.302 C 19.990 9.377, 20.651 9.059, 25.250 8.737 L 30.500 8.370 25.219 8.185 C 21.372 8.050, 19.784 8.399, 19.374 9.467 M 30.881 11.781 C 30.552 13.769, 30.698 14.702, 31.253 14.147 C 31.757 13.643, 32.002 12.166, 31.797 10.865 C 31.482 8.864, 31.342 9.004, 30.881 11.781 M 4.500 10.882 L 6.500 11.730 4.500 12.249 C 2.868 12.672, 2.822 12.789, 4.250 12.884 C 5.213 12.948, 6 13.450, 6 14 C 6 14.550, 7.125 15, 8.500 15 C 9.875 15, 11 14.550, 11 14 C 11 13.450, 11.787 12.968, 12.750 12.930 C 14.234 12.870, 14.196 12.739, 12.500 12.065 L 10.500 11.270 12.500 10.700 C 14.048 10.259, 13.935 10.172, 12 10.315 C 10.225 10.446, 9.585 11.007, 9.794 12.250 C 9.971 13.305, 9.457 14, 8.500 14 C 7.543 14, 7.029 13.305, 7.206 12.250 C 7.413 11.017, 6.762 10.431, 5 10.267 C 2.790 10.061, 2.732 10.133, 4.500 10.882 M 25.667 10.667 C 25.300 11.033, 25.029 12.271, 25.063 13.417 C 25.122 15.332, 25.204 15.307, 26.085 13.105 C 27.064 10.657, 26.861 9.472, 25.667 10.667" stroke="none" fill="black" fill-rule="evenodd"/>
</svg>