<svg xmlns="http://www.w3.org/2000/svg" width="32" height="16" viewBox="0 0 32 16" version="1.1">
	<path d="M 0 8 C 0 14.444, 0.292 16, 1.500 16 C 2.443 16, 3 15.049, 3 13.441 C 3 11.990, 3.433 11.149, 4 11.500 C 4.550 11.840, 5 12.991, 5 14.059 C 5 15.781, 5.733 16, 11.500 16 C 17.725 16, 18 15.897, 18 13.559 C 18 12.216, 17.550 10.840, 17 10.500 C 15.615 9.644, 15.740 2.279, 17.155 1.405 C 17.918 0.932, 18.035 1.134, 17.500 2 C 16.931 2.921, 17.079 3.069, 18 2.500 C 18.890 1.950, 19.068 2.080, 18.557 2.909 C 18.131 3.596, 18.608 5.043, 19.652 6.235 C 20.668 7.395, 20.969 8.034, 20.319 7.656 C 18.630 6.671, 17.464 9.047, 19.122 10.096 C 21.381 11.527, 21.858 11.162, 22.187 7.750 C 22.397 5.568, 22.967 4.601, 23.919 4.806 C 25.093 5.060, 25.115 4.843, 24.047 3.556 C 23.336 2.700, 21.937 2, 20.937 2 C 19.936 2, 18.840 1.550, 18.500 1 C 17.661 -0.357, 6 -0.302, 6 1.059 C 6 1.641, 6.450 1.840, 7 1.500 C 7.550 1.160, 8 1.385, 8 2 C 8 2.615, 8.520 2.797, 9.155 2.405 C 9.825 1.990, 10.039 2.128, 9.666 2.732 C 9.312 3.304, 9.917 4.007, 11.011 4.293 C 12.460 4.672, 13 5.660, 13 7.932 L 13 11.051 9.903 9.450 C 7.641 8.280, 6.942 7.330, 7.310 5.923 C 7.587 4.864, 7.405 4.249, 6.907 4.558 C 6.408 4.866, 6 6.441, 6 8.059 C 6 11.320, 5.275 11.653, 2.538 9.652 C 1.476 8.875, 1.009 7.794, 1.436 7.103 C 2.009 6.177, 2.557 6.192, 3.839 7.171 C 4.753 7.869, 4.487 7.299, 3.250 5.905 C 2.012 4.511, 1 3.048, 1 2.653 C 1 2.259, 2.012 1.529, 3.250 1.031 C 5.413 0.162, 5.393 0.124, 2.750 0.063 L 0 0 0 8 M 24.500 1.665 C 29.741 4.434, 31 6.079, 31 10.155 C 31 13.802, 30.833 14.006, 27.750 14.118 C 25.962 14.184, 24.163 14.184, 23.750 14.118 C 23.337 14.053, 23 14.439, 23 14.975 C 23 15.836, 27.119 15.555, 30.750 14.445 C 31.595 14.186, 32 11.786, 32 7.031 L 32 0 26.750 0.040 L 21.500 0.080 24.500 1.665 M 23.731 7.080 C 23.972 8.002, 25.256 9.251, 26.585 9.857 C 28.846 10.887, 29 10.766, 29 7.963 C 29 5.286, 28.698 4.991, 26.146 5.186 C 24.021 5.348, 23.405 5.831, 23.731 7.080 M 24 11.031 C 24 11.564, 24.675 12, 25.500 12 C 26.325 12, 27 11.823, 27 11.607 C 27 11.391, 26.325 10.955, 25.500 10.638 C 24.675 10.322, 24 10.499, 24 11.031 M 20.158 14 C 20.158 15.375, 20.385 15.938, 20.662 15.250 C 20.940 14.563, 20.940 13.438, 20.662 12.750 C 20.385 12.063, 20.158 12.625, 20.158 14 M 8.500 14 C 8.840 14.550, 10.468 15, 12.118 15 C 13.863 15, 14.860 14.582, 14.500 14 C 14.160 13.450, 12.532 13, 10.882 13 C 9.137 13, 8.140 13.418, 8.500 14" stroke="none" fill="black" fill-rule="evenodd"/>
</svg>