<svg xmlns="http://www.w3.org/2000/svg" width="32" height="16" viewBox="0 0 32 16" version="1.1">
	<path d="M 0 8 C 0 14.272, 0.309 16, 1.430 16 C 2.217 16, 3.056 14.988, 3.294 13.750 L 3.728 11.500 3.864 13.750 C 3.992 15.869, 4.432 16, 11.434 16 C 18.775 16, 18.872 15.966, 19.284 13.250 L 19.700 10.500 19.850 13.250 C 20.017 16.315, 21.603 16.960, 22.311 14.250 C 22.734 12.629, 22.777 12.633, 22.884 14.305 C 22.981 15.821, 23.759 16.061, 27.750 15.805 L 32.500 15.500 32.792 7.750 L 33.084 0 16.542 0 L 0 0 0 8 M 0.168 8.968 C 0.261 13.111, 0.513 14.813, 0.728 12.750 C 1.160 8.626, 1.268 8.538, 4.066 10.035 C 5.777 10.951, 6 10.727, 6 8.085 C 6 6.343, 6.691 4.712, 7.660 4.170 C 9.152 3.336, 9.109 3.129, 7.235 2.126 C 6.088 1.512, 3.991 1.106, 2.575 1.223 C 0.039 1.433, 0.003 1.549, 0.168 8.968 M 19.813 1.683 C 20.534 1.972, 21.397 1.936, 21.729 1.604 C 22.061 1.272, 21.471 1.036, 20.417 1.079 C 19.252 1.127, 19.015 1.364, 19.813 1.683 M 2 3 C 2 3.550, 2.419 4, 2.930 4 C 3.442 4, 4.056 5.012, 4.294 6.250 C 4.608 7.877, 4.765 7.600, 4.864 5.250 C 4.959 2.967, 4.554 2, 3.500 2 C 2.675 2, 2 2.450, 2 3 M 17.232 6 C 17.232 7.925, 17.438 8.713, 17.689 7.750 C 17.941 6.787, 17.941 5.213, 17.689 4.250 C 17.438 3.288, 17.232 4.075, 17.232 6 M 21.232 6 C 21.232 7.925, 21.438 8.713, 21.689 7.750 C 21.941 6.787, 21.941 5.213, 21.689 4.250 C 21.438 3.288, 21.232 4.075, 21.232 6 M 24.232 8 C 24.232 9.925, 24.438 10.713, 24.689 9.750 C 24.941 8.787, 24.941 7.213, 24.689 6.250 C 24.438 5.287, 24.232 6.075, 24.232 8 M 7.195 8.500 C 7.215 10.150, 7.439 10.704, 7.693 9.731 C 7.947 8.758, 7.930 7.408, 7.656 6.731 C 7.382 6.054, 7.175 6.850, 7.195 8.500 M 9.195 8.500 C 9.215 10.150, 9.439 10.704, 9.693 9.731 C 9.947 8.758, 9.930 7.408, 9.656 6.731 C 9.382 6.054, 9.175 6.850, 9.195 8.500 M 11.195 8.500 C 11.215 10.150, 11.439 10.704, 11.693 9.731 C 11.947 8.758, 11.930 7.408, 11.656 6.731 C 11.382 6.054, 11.175 6.850, 11.195 8.500 M 26.195 8.500 C 26.215 10.150, 26.439 10.704, 26.693 9.731 C 26.947 8.758, 26.930 7.408, 26.656 6.731 C 26.382 6.054, 26.175 6.850, 26.195 8.500 M 28.195 8.500 C 28.215 10.150, 28.439 10.704, 28.693 9.731 C 28.947 8.758, 28.930 7.408, 28.656 6.731 C 28.382 6.054, 28.175 6.850, 28.195 8.500 M 30.150 9.187 C 30.013 12.558, 29.722 12.908, 26.750 13.277 L 23.500 13.680 26.781 13.840 C 30.449 14.019, 31.381 12.717, 30.724 8.334 C 30.361 5.910, 30.278 6.033, 30.150 9.187 M 8.500 14 C 8.840 14.550, 10.468 15, 12.118 15 C 13.863 15, 14.860 14.582, 14.500 14 C 14.160 13.450, 12.532 13, 10.882 13 C 9.137 13, 8.140 13.418, 8.500 14" stroke="none" fill="black" fill-rule="evenodd"/>
</svg>