<svg xmlns="http://www.w3.org/2000/svg" width="32" height="16" viewBox="0 0 32 16" version="1.1">
	<path d="M 0 8.025 L 0 16.050 16.250 15.775 L 32.500 15.500 32.792 7.750 L 33.084 0 16.542 0 L 0 0 0 8.025 M 0.266 8.500 C 0.247 12.900, 0.438 15.713, 0.689 14.750 C 1.069 13.296, 2.317 13, 8.073 13 C 14.333 13, 15 12.808, 15 11 C 15 9.889, 14.333 9, 13.500 9 C 12.675 9, 12 8.325, 12 7.500 C 12 6.351, 10.730 6, 6.566 6 C 1.407 6, 1.112 5.861, 0.716 3.250 C 0.487 1.737, 0.284 4.100, 0.266 8.500 M 17.160 9.750 C 17.315 13.370, 17.334 13.389, 17.720 10.300 C 18.104 7.220, 18.313 7.087, 23.310 6.735 L 28.500 6.370 22.750 6.185 L 17 6 17.160 9.750 M 29 7.059 C 29 7.641, 29.450 7.840, 30 7.500 C 30.550 7.160, 31 6.684, 31 6.441 C 31 6.198, 30.550 6, 30 6 C 29.450 6, 29 6.477, 29 7.059 M 2.812 7.683 C 3.534 7.972, 4.397 7.936, 4.729 7.604 C 5.061 7.272, 4.471 7.036, 3.417 7.079 C 2.252 7.127, 2.015 7.364, 2.812 7.683 M 19.813 8.683 C 20.534 8.972, 21.397 8.936, 21.729 8.604 C 22.061 8.272, 21.471 8.036, 20.417 8.079 C 19.252 8.127, 19.015 8.364, 19.813 8.683 M 6.250 9.689 C 7.213 9.941, 8.787 9.941, 9.750 9.689 C 10.713 9.438, 9.925 9.232, 8 9.232 C 6.075 9.232, 5.287 9.438, 6.250 9.689 M 23.250 10.689 C 24.212 10.941, 25.788 10.941, 26.750 10.689 C 27.712 10.438, 26.925 10.232, 25 10.232 C 23.075 10.232, 22.288 10.438, 23.250 10.689 M 5.813 11.683 C 6.534 11.972, 7.397 11.936, 7.729 11.604 C 8.061 11.272, 7.471 11.036, 6.417 11.079 C 5.252 11.127, 5.015 11.364, 5.813 11.683 M 22.813 12.683 C 23.534 12.972, 24.397 12.936, 24.729 12.604 C 25.061 12.272, 24.471 12.036, 23.417 12.079 C 22.252 12.127, 22.015 12.364, 22.813 12.683 M 20.776 14.733 C 23.128 14.945, 26.728 14.942, 28.776 14.727 C 30.824 14.512, 28.900 14.339, 24.500 14.343 C 20.100 14.346, 18.424 14.522, 20.776 14.733" stroke="none" fill="black" fill-rule="evenodd"/>
</svg>