<svg xmlns="http://www.w3.org/2000/svg" width="32" height="16" viewBox="0 0 32 16" version="1.1">
	<path d="M 0 8.025 L 0 16.050 16.250 15.775 L 32.500 15.500 32.792 7.750 L 33.084 0 24.622 0 L 16.159 0 15.515 2.931 C 15.161 4.543, 14.225 6.398, 13.436 7.053 C 11.555 8.614, 11.594 11, 13.500 11 C 14.333 11, 15 11.889, 15 13 C 15 14.810, 14.333 15, 8 15 L 1 15 1 11.500 C 1 8.154, 1.157 8, 4.567 8 C 7.549 8, 8.041 7.704, 7.563 6.198 C 7.248 5.206, 7.653 3.519, 8.464 2.448 C 9.902 0.546, 9.937 0.553, 9.968 2.750 C 9.986 3.988, 10.525 5, 11.167 5 C 11.808 5, 12.052 4.719, 11.709 4.376 C 11.366 4.033, 12.078 2.923, 13.293 1.909 C 15.475 0.087, 15.413 0.066, 7.750 0.033 L 0 0 0 8.025 M 0.343 8.500 C 0.346 12.900, 0.522 14.576, 0.733 12.224 C 0.945 9.872, 0.942 6.272, 0.727 4.224 C 0.512 2.176, 0.339 4.100, 0.343 8.500 M 26.079 3.583 C 26.127 4.748, 26.364 4.985, 26.683 4.188 C 26.972 3.466, 26.936 2.603, 26.604 2.271 C 26.272 1.939, 26.036 2.529, 26.079 3.583 M 28.872 3.750 C 27.629 5.336, 27.664 5.371, 29.250 4.128 C 30.916 2.821, 31.445 2, 30.622 2 C 30.415 2, 29.627 2.788, 28.872 3.750 M 8.681 7.419 C 9.208 10.667, 9.040 11.011, 6.881 11.116 C 5.108 11.202, 4.959 11.351, 6.298 11.699 C 8.335 12.227, 11.263 10.234, 10.430 8.887 C 10.129 8.399, 10.343 8, 10.906 8 C 11.469 8, 12.469 6.988, 13.129 5.750 C 14.216 3.710, 14.172 3.628, 12.664 4.872 C 11.357 5.950, 10.689 5.986, 9.550 5.041 C 8.314 4.016, 8.186 4.369, 8.681 7.419 M 30.638 5.500 C 30.322 6.325, 30.499 7, 31.031 7 C 31.564 7, 32 6.325, 32 5.500 C 32 4.675, 31.823 4, 31.607 4 C 31.391 4, 30.955 4.675, 30.638 5.500 M 25.374 7.467 C 25.065 8.274, 25.004 9.511, 25.240 10.217 C 25.476 10.923, 25.906 10.262, 26.196 8.750 C 26.762 5.797, 26.295 5.068, 25.374 7.467 M 17.160 11.750 C 17.314 15.357, 17.335 15.379, 17.719 12.309 C 18.060 9.578, 18.578 9.060, 21.309 8.719 C 24.379 8.335, 24.357 8.314, 20.750 8.160 C 17.029 8.001, 17.001 8.029, 17.160 11.750 M 29 9.059 C 29 9.641, 29.450 9.840, 30 9.500 C 30.550 9.160, 31 8.684, 31 8.441 C 31 8.198, 30.550 8, 30 8 C 29.450 8, 29 8.477, 29 9.059 M 2.812 9.683 C 3.534 9.972, 4.397 9.936, 4.729 9.604 C 5.061 9.272, 4.471 9.036, 3.417 9.079 C 2.252 9.127, 2.015 9.364, 2.812 9.683 M 19.813 10.683 C 20.534 10.972, 21.397 10.936, 21.729 10.604 C 22.061 10.272, 21.471 10.036, 20.417 10.079 C 19.252 10.127, 19.015 10.364, 19.813 10.683 M 24.500 12 L 21.500 12.763 24.750 12.882 C 26.538 12.947, 28 12.550, 28 12 C 28 11.450, 27.887 11.053, 27.750 11.118 C 27.613 11.183, 26.150 11.580, 24.500 12 M 5.813 13.683 C 6.534 13.972, 7.397 13.936, 7.729 13.604 C 8.061 13.272, 7.471 13.036, 6.417 13.079 C 5.252 13.127, 5.015 13.364, 5.813 13.683 M 22.813 14.683 C 23.534 14.972, 24.397 14.936, 24.729 14.604 C 25.061 14.272, 24.471 14.036, 23.417 14.079 C 22.252 14.127, 22.015 14.364, 22.813 14.683" stroke="none" fill="black" fill-rule="evenodd"/>
</svg>