<svg xmlns="http://www.w3.org/2000/svg" width="32" height="16" viewBox="0 0 32 16" version="1.1">
	<path d="M 0 8.025 L 0 16.050 16.250 15.775 L 32.500 15.500 32.792 7.750 L 33.084 0 16.542 0 L 0 0 0 8.025 M 0.150 8.250 L 0 16 2 14 C 3.100 12.900, 4.563 11.984, 5.250 11.965 C 5.938 11.945, 5.375 11.310, 4 10.553 C 2.133 9.525, 1.348 8.079, 0.900 4.838 C 0.414 1.325, 0.272 1.973, 0.150 8.250 M 7 6.500 L 7 12 11 12 L 15 12 15 8 C 15 5.111, 14.583 4, 13.500 4 C 12.675 4, 12 3.325, 12 2.500 C 12 1.567, 11.056 1, 9.500 1 C 7.136 1, 7 1.300, 7 6.500 M 23.185 6.750 L 23.370 12.500 23.735 7.313 C 24.045 2.910, 24.433 2.061, 26.300 1.699 C 28.125 1.345, 28.032 1.249, 25.750 1.136 C 23.033 1.002, 23.002 1.069, 23.185 6.750 M 8.813 4.683 C 9.534 4.972, 10.397 4.936, 10.729 4.604 C 11.061 4.272, 10.471 4.036, 9.417 4.079 C 8.252 4.127, 8.015 4.364, 8.813 4.683 M 4 6 C 2.718 6.828, 2.754 6.972, 4.250 6.985 C 5.213 6.993, 6 6.550, 6 6 C 6 4.780, 5.887 4.780, 4 6 M 25.813 5.683 C 26.534 5.972, 27.397 5.936, 27.729 5.604 C 28.061 5.272, 27.471 5.036, 26.417 5.079 C 25.252 5.127, 25.015 5.364, 25.813 5.683 M 9.250 6.689 C 10.213 6.941, 11.787 6.941, 12.750 6.689 C 13.713 6.438, 12.925 6.232, 11 6.232 C 9.075 6.232, 8.287 6.438, 9.250 6.689 M 26.250 7.689 C 27.212 7.941, 28.788 7.941, 29.750 7.689 C 30.712 7.438, 29.925 7.232, 28 7.232 C 26.075 7.232, 25.288 7.438, 26.250 7.689 M 3 8.393 C 3 8.609, 3.675 9.045, 4.500 9.362 C 5.325 9.678, 6 9.501, 6 8.969 C 6 8.436, 5.325 8, 4.500 8 C 3.675 8, 3 8.177, 3 8.393 M 9.250 8.689 C 10.213 8.941, 11.787 8.941, 12.750 8.689 C 13.713 8.438, 12.925 8.232, 11 8.232 C 9.075 8.232, 8.287 8.438, 9.250 8.689 M 17.384 9.442 C 17.080 10.234, 17.042 11.697, 17.299 12.692 C 17.614 13.905, 17.806 13.618, 17.884 11.820 C 17.968 9.883, 18.624 9.019, 20.250 8.706 L 22.500 8.272 20.219 8.136 C 18.964 8.061, 17.688 8.649, 17.384 9.442 M 26.250 9.689 C 27.212 9.941, 28.788 9.941, 29.750 9.689 C 30.712 9.438, 29.925 9.232, 28 9.232 C 26.075 9.232, 25.288 9.438, 26.250 9.689 M 8.750 10.662 C 9.438 10.940, 10.563 10.940, 11.250 10.662 C 11.938 10.385, 11.375 10.158, 10 10.158 C 8.625 10.158, 8.063 10.385, 8.750 10.662 M 25.750 11.662 C 26.438 11.940, 27.563 11.940, 28.250 11.662 C 28.938 11.385, 28.375 11.158, 27 11.158 C 25.625 11.158, 25.063 11.385, 25.750 11.662 M 3 13.975 C 1.922 14.689, 3.243 14.974, 7.691 14.985 C 11.096 14.993, 14.094 14.658, 14.352 14.239 C 15.068 13.081, 4.712 12.839, 3 13.975 M 20.052 13.947 C 19.115 14.539, 20.174 14.662, 23.052 14.294 C 25.498 13.981, 27.687 13.562, 27.917 13.362 C 28.855 12.547, 21.388 13.101, 20.052 13.947" stroke="none" fill="black" fill-rule="evenodd"/>
</svg>