<svg xmlns="http://www.w3.org/2000/svg" width="32" height="16" viewBox="0 0 32 16" version="1.1">
	<path d="M 0 8.025 L 0 16.050 16.250 15.775 L 32.500 15.500 32.792 7.750 L 33.084 0 16.542 0 L 0 0 0 8.025 M 0.150 8.250 L 0 16 2 14 C 3.100 12.900, 4.563 11.984, 5.250 11.965 C 5.938 11.945, 5.375 11.310, 4 10.553 C 2.133 9.525, 1.348 8.079, 0.900 4.838 C 0.414 1.325, 0.272 1.973, 0.150 8.250 M 4 1.861 C 4 2.335, 5.125 2.508, 6.500 2.245 C 7.875 1.982, 9 1.594, 9 1.383 C 9 1.173, 7.875 1, 6.500 1 C 5.125 1, 4 1.388, 4 1.861 M 10.195 3.500 C 10.215 5.150, 10.439 5.704, 10.693 4.731 C 10.947 3.758, 10.930 2.408, 10.656 1.731 C 10.382 1.054, 10.175 1.850, 10.195 3.500 M 20.374 2.467 C 20.065 3.274, 20.043 4.511, 20.327 5.217 C 20.610 5.923, 20.878 5.516, 20.921 4.313 C 20.982 2.617, 21.729 2.036, 24.250 1.723 L 27.500 1.320 24.219 1.160 C 22.141 1.059, 20.731 1.538, 20.374 2.467 M 13.543 2.931 C 13.226 3.443, 13.425 4.144, 13.984 4.490 C 14.543 4.835, 15 4.416, 15 3.559 C 15 1.802, 14.400 1.544, 13.543 2.931 M 22.750 3.662 C 23.438 3.940, 24.563 3.940, 25.250 3.662 C 25.938 3.385, 25.375 3.158, 24 3.158 C 22.625 3.158, 22.063 3.385, 22.750 3.662 M 28.500 6 C 28.160 6.550, 28.359 7, 28.941 7 C 29.523 7, 30 6.550, 30 6 C 30 5.450, 29.802 5, 29.559 5 C 29.316 5, 28.840 5.450, 28.500 6 M 4.559 9.468 C 5.626 10.276, 7.175 10.936, 8 10.936 C 8.825 10.936, 10.374 10.276, 11.441 9.468 C 13.225 8.119, 12.947 8, 8 8 C 3.053 8, 2.775 8.119, 4.559 9.468 M 17.384 9.442 C 17.080 10.234, 17.042 11.697, 17.299 12.692 C 17.611 13.895, 17.807 13.596, 17.884 11.798 C 17.995 9.202, 18.247 9.081, 24.250 8.740 L 30.500 8.385 24.219 8.193 C 19.538 8.049, 17.796 8.367, 17.384 9.442 M 12.077 10.447 L 9.654 11.755 11.902 12.469 C 13.139 12.862, 13.975 13.359, 13.759 13.574 C 13.544 13.789, 12.029 13.460, 10.392 12.842 C 7.997 11.938, 6.838 12.031, 4.458 13.319 L 1.500 14.920 7.781 14.960 C 14.191 15.001, 15.620 14.123, 14.835 10.628 C 14.550 9.364, 14.134 9.337, 12.077 10.447 M 28 11 C 27.175 11.533, 26.950 11.969, 27.500 11.969 C 28.050 11.969, 29.175 11.533, 30 11 C 30.825 10.467, 31.050 10.031, 30.500 10.031 C 29.950 10.031, 28.825 10.467, 28 11 M 21 13.500 C 17.734 15.367, 18.877 15.388, 23.135 13.539 C 24.986 12.736, 25.825 12.077, 25 12.075 C 24.175 12.073, 22.375 12.714, 21 13.500" stroke="none" fill="black" fill-rule="evenodd"/>
</svg>