<svg xmlns="http://www.w3.org/2000/svg" width="32" height="16" viewBox="0 0 32 16" version="1.1">
	<path d="M 0 8.025 L 0 16.050 16.250 15.775 L 32.500 15.500 32.792 7.750 L 33.084 0 16.542 0 L 0 0 0 8.025 M 0.260 8.500 C 0.227 12.900, 0.495 15.450, 0.856 14.166 C 1.217 12.882, 2.546 11.278, 3.811 10.601 L 6.110 9.371 3.622 8.238 C 1.873 7.441, 1.014 6.123, 0.727 3.802 C 0.503 1.986, 0.293 4.100, 0.260 8.500 M 5 3.500 C 2.606 4.869, 2.733 4.929, 8 4.929 C 13.267 4.929, 13.394 4.869, 11 3.500 C 7.937 1.749, 8.063 1.749, 5 3.500 M 22 3.500 C 20.625 4.286, 19.976 4.945, 20.559 4.965 C 21.141 4.984, 22.491 4.339, 23.559 3.532 C 26.028 1.664, 25.239 1.648, 22 3.500 M 4.559 7.468 C 5.626 8.276, 7.175 8.936, 8 8.936 C 8.825 8.936, 10.374 8.276, 11.441 7.468 C 13.225 6.119, 12.947 6, 8 6 C 3.053 6, 2.775 6.119, 4.559 7.468 M 17.384 7.442 C 17.080 8.234, 17.042 9.697, 17.299 10.692 C 17.611 11.895, 17.807 11.596, 17.884 9.798 C 17.995 7.202, 18.247 7.081, 24.250 6.740 L 30.500 6.385 24.219 6.193 C 19.538 6.049, 17.796 6.367, 17.384 7.442 M 12.077 8.447 L 9.654 9.755 11.902 10.469 C 13.139 10.862, 13.975 11.359, 13.759 11.574 C 13.544 11.789, 12.029 11.460, 10.392 10.842 C 7.997 9.938, 6.838 10.031, 4.458 11.319 L 1.500 12.920 7.781 12.960 C 14.191 13.001, 15.620 12.123, 14.835 8.628 C 14.550 7.364, 14.134 7.337, 12.077 8.447 M 28 9 C 27.175 9.533, 26.950 9.969, 27.500 9.969 C 28.050 9.969, 29.175 9.533, 30 9 C 30.825 8.467, 31.050 8.031, 30.500 8.031 C 29.950 8.031, 28.825 8.467, 28 9 M 21 11.500 C 17.734 13.367, 18.877 13.388, 23.135 11.539 C 24.986 10.736, 25.825 10.077, 25 10.075 C 24.175 10.073, 22.375 10.714, 21 11.500 M 20.776 14.733 C 23.128 14.945, 26.728 14.942, 28.776 14.727 C 30.824 14.512, 28.900 14.339, 24.500 14.343 C 20.100 14.346, 18.424 14.522, 20.776 14.733" stroke="none" fill="black" fill-rule="evenodd"/>
</svg>