<svg xmlns="http://www.w3.org/2000/svg" width="32" height="16" viewBox="0 0 32 16" version="1.1">
	<path d="M 0 8.025 L 0 16.050 16.250 15.775 L 32.500 15.500 32.792 7.750 L 33.084 0 16.542 0 L 0 0 0 8.025 M 0.150 8.250 L 0 16 2 14 C 3.100 12.900, 4.563 11.984, 5.250 11.965 C 5.938 11.945, 5.375 11.310, 4 10.553 C 2.133 9.525, 1.348 8.079, 0.900 4.838 C 0.414 1.325, 0.272 1.973, 0.150 8.250 M 7 6.500 L 7 12 11 12 L 15 12 15 6.500 L 15 1 11 1 L 7 1 7 6.500 M 23.185 6.750 L 23.370 12.500 23.735 7.307 C 24.099 2.135, 24.115 2.113, 27.800 1.725 L 31.500 1.336 27.250 1.168 L 23 1 23.185 6.750 M 10.064 4.250 C 8.511 6.716, 7.974 11, 9.217 11 C 9.648 11, 10.014 10.213, 10.030 9.250 C 10.059 7.583, 10.109 7.583, 11.080 9.250 C 11.641 10.213, 12.617 11, 13.250 11 C 14.089 11, 14.076 10.676, 13.200 9.800 C 11.599 8.199, 11.638 5.678, 13.250 6.588 C 14.213 7.131, 14.231 7.002, 13.328 6.025 C 12.684 5.327, 12.394 4.136, 12.685 3.378 C 13.538 1.155, 11.609 1.797, 10.064 4.250 M 28.500 4 C 28.160 4.550, 28.359 5, 28.941 5 C 29.523 5, 30 4.550, 30 4 C 30 3.450, 29.802 3, 29.559 3 C 29.316 3, 28.840 3.450, 28.500 4 M 4 6 C 2.718 6.828, 2.754 6.972, 4.250 6.985 C 5.213 6.993, 6 6.550, 6 6 C 6 4.780, 5.887 4.780, 4 6 M 28.079 7.583 C 28.127 8.748, 28.364 8.985, 28.683 8.188 C 28.972 7.466, 28.936 6.603, 28.604 6.271 C 28.272 5.939, 28.036 6.529, 28.079 7.583 M 3 8.393 C 3 8.609, 3.675 9.045, 4.500 9.362 C 5.325 9.678, 6 9.501, 6 8.969 C 6 8.436, 5.325 8, 4.500 8 C 3.675 8, 3 8.177, 3 8.393 M 17.384 9.442 C 17.080 10.234, 17.042 11.697, 17.299 12.692 C 17.614 13.905, 17.806 13.618, 17.884 11.820 C 17.968 9.883, 18.624 9.019, 20.250 8.706 L 22.500 8.272 20.219 8.136 C 18.964 8.061, 17.688 8.649, 17.384 9.442 M 25.710 10 C 25.423 11.100, 25.595 12, 26.094 12 C 26.592 12, 27 11.100, 27 10 C 27 8.900, 26.827 8, 26.617 8 C 26.406 8, 25.998 8.900, 25.710 10 M 3 13.975 C 1.922 14.689, 3.243 14.974, 7.691 14.985 C 11.096 14.993, 14.094 14.658, 14.352 14.239 C 15.068 13.081, 4.712 12.839, 3 13.975 M 20.052 13.947 C 19.115 14.539, 20.174 14.662, 23.052 14.294 C 25.498 13.981, 27.687 13.562, 27.917 13.362 C 28.855 12.547, 21.388 13.101, 20.052 13.947" stroke="none" fill="black" fill-rule="evenodd"/>
</svg>