<svg xmlns="http://www.w3.org/2000/svg" width="32" height="16" viewBox="0 0 32 16" version="1.1">
	<path d="M 0 8.025 L 0 16.050 16.250 15.775 L 32.500 15.500 32.792 7.750 L 33.084 0 16.542 0 L 0 0 0 8.025 M 0.150 8.250 L 0 16 2 14 C 3.100 12.900, 4.563 11.984, 5.250 11.965 C 5.938 11.945, 5.375 11.310, 4 10.553 C 2.133 9.525, 1.348 8.079, 0.900 4.838 C 0.414 1.325, 0.272 1.973, 0.150 8.250 M 7.315 2.623 C 7.006 3.428, 7.034 4.367, 7.376 4.710 C 7.719 5.053, 8 4.528, 8 3.544 C 8 2.045, 8.250 1.963, 9.542 3.035 C 10.589 3.904, 10.758 4.642, 10.066 5.334 C 9.375 6.025, 9.434 6.818, 10.251 7.802 C 11.285 9.048, 10.823 9.151, 6.977 8.531 C 2.790 7.856, 2.630 7.911, 4.500 9.373 C 6.998 11.326, 8.950 11.352, 11.441 9.468 C 12.509 8.661, 12.954 8, 12.431 8 C 11.909 8, 11.485 6.585, 11.490 4.856 C 11.497 2.585, 10.997 1.636, 9.688 1.436 C 8.692 1.283, 7.624 1.817, 7.315 2.623 M 30 3 C 29.099 3.582, 28.975 3.975, 29.691 3.985 C 30.346 3.993, 31.160 3.550, 31.500 3 C 32.267 1.758, 31.921 1.758, 30 3 M 23.158 5 C 23.158 6.375, 23.385 6.938, 23.662 6.250 C 23.940 5.563, 23.940 4.438, 23.662 3.750 C 23.385 3.063, 23.158 3.625, 23.158 5 M 29.813 5.683 C 30.534 5.972, 31.397 5.936, 31.729 5.604 C 32.061 5.272, 31.471 5.036, 30.417 5.079 C 29.252 5.127, 29.015 5.364, 29.813 5.683 M 17.384 9.442 C 17.080 10.234, 17.042 11.697, 17.299 12.692 C 17.613 13.902, 17.806 13.612, 17.884 11.813 C 17.981 9.563, 18.527 9.061, 21.250 8.723 L 24.500 8.320 21.219 8.160 C 19.166 8.060, 17.730 8.540, 17.384 9.442 M 26 9 C 24.667 9.862, 24.667 9.969, 26 9.969 C 26.825 9.969, 28.175 9.533, 29 9 C 30.333 8.138, 30.333 8.031, 29 8.031 C 28.175 8.031, 26.825 8.467, 26 9 M 14.116 9.750 C 14.052 10.438, 13.662 10.947, 13.250 10.882 C 10.355 10.424, 9.767 11.235, 12 12.605 C 13.679 13.634, 13.843 13.914, 12.500 13.456 C 7.944 11.901, 7.089 11.892, 4.358 13.372 C 1.518 14.910, 1.539 14.920, 7.781 14.960 C 14.348 15.002, 15.684 14.104, 14.701 10.308 C 14.443 9.314, 14.180 9.063, 14.116 9.750 M 21 13.500 C 17.734 15.367, 18.877 15.388, 23.135 13.539 C 24.986 12.736, 25.825 12.077, 25 12.075 C 24.175 12.073, 22.375 12.714, 21 13.500" stroke="none" fill="black" fill-rule="evenodd"/>
</svg>