<svg xmlns="http://www.w3.org/2000/svg" width="32" height="16" viewBox="0 0 32 16" version="1.1">
	<path d="M -0 7.957 L -0 15.914 4.653 10.940 C 8.858 6.444, 9.464 6.110, 10.959 7.463 C 12.431 8.795, 12.798 8.774, 14.306 7.265 C 15.898 5.673, 16 5.886, 16 10.786 L 16 16 20.375 16 C 27.830 16, 30.988 15.006, 31.100 12.625 C 31.189 10.718, 31.281 10.756, 32 13 C 32.559 14.745, 32.831 13.160, 32.900 7.750 L 33 0 24.500 0 C 16.100 0, 16 0.029, 16 2.500 C 16 3.875, 15.498 5, 14.883 5 C 14.232 5, 13.966 3.959, 14.245 2.500 C 14.720 0.016, 14.674 0, 7.361 0 L 0 0 -0 7.957 M 0.311 8.500 C 0.332 12.900, 0.522 14.588, 0.732 12.250 C 0.990 9.391, 1.587 8, 2.557 8 C 3.351 8, 4 7.325, 4 6.500 C 4 5.675, 3.356 5, 2.570 5 C 1.783 5, 0.944 3.988, 0.706 2.750 C 0.467 1.512, 0.290 4.100, 0.311 8.500 M 5.572 1.750 C 6.069 2.163, 6.813 2.950, 7.223 3.500 C 7.649 4.071, 7.976 3.749, 7.985 2.750 C 7.993 1.777, 7.260 1, 6.333 1 C 5.417 1, 5.074 1.337, 5.572 1.750 M 21.813 1.683 C 22.534 1.972, 23.397 1.936, 23.729 1.604 C 24.061 1.272, 23.471 1.036, 22.417 1.079 C 21.252 1.127, 21.015 1.364, 21.813 1.683 M 25 3.045 C 25 4.568, 20.609 8.716, 18.397 9.282 C 16.867 9.674, 16.961 9.790, 18.884 9.884 C 20.344 9.955, 22.183 8.935, 23.632 7.250 C 25.780 4.753, 26.759 2, 25.500 2 C 25.225 2, 25 2.470, 25 3.045 M 3.572 3.750 C 4.069 4.162, 4.813 4.950, 5.223 5.500 C 5.649 6.071, 5.976 5.749, 5.985 4.750 C 5.993 3.777, 5.260 3, 4.333 3 C 3.417 3, 3.074 3.337, 3.572 3.750 M 19.813 3.683 C 20.534 3.972, 21.397 3.936, 21.729 3.604 C 22.061 3.272, 21.471 3.036, 20.417 3.079 C 19.252 3.127, 19.015 3.364, 19.813 3.683 M 17.015 6.750 C 17.024 7.749, 17.351 8.071, 17.777 7.500 C 18.187 6.950, 18.931 6.162, 19.428 5.750 C 19.926 5.338, 19.583 5, 18.667 5 C 17.740 5, 17.007 5.777, 17.015 6.750 M 30 7.500 C 29.293 8.352, 28.940 9.273, 29.215 9.548 C 29.490 9.823, 30.293 9.352, 31 8.500 C 31.707 7.648, 32.060 6.727, 31.785 6.452 C 31.510 6.177, 30.707 6.648, 30 7.500 M 10 12.500 C 10 14.500, 10.500 15, 12.500 15 C 14.500 15, 15 14.500, 15 12.500 C 15 10.500, 14.500 10, 12.500 10 C 10.500 10, 10 10.500, 10 12.500 M 27.015 12.750 C 27.024 13.749, 27.351 14.071, 27.777 13.500 C 28.187 12.950, 28.931 12.162, 29.428 11.750 C 29.926 11.338, 29.583 11, 28.667 11 C 27.740 11, 27.007 11.777, 27.015 12.750" stroke="none" fill="black" fill-rule="evenodd"/>
</svg>