<svg xmlns="http://www.w3.org/2000/svg" width="32" height="16" viewBox="0 0 32 16" version="1.1">
	<path d="M 0 8.077 L 0 16.153 2.613 13.048 C 4.666 10.608, 5.520 10.187, 6.600 11.083 C 7.356 11.711, 8.655 11.963, 9.487 11.643 C 10.586 11.222, 11 11.739, 11 13.531 C 11 15.675, 11.450 16, 14.422 16 C 17.177 16, 18.511 15.220, 21.268 12 C 23.151 9.800, 25.015 8, 25.409 8 C 25.803 8, 24.530 9.687, 22.580 11.750 L 19.035 15.500 24.655 15.804 C 32.925 16.251, 33 16.177, 33 7.531 L 33 0 24.500 0 C 16.667 0, 16 0.157, 16 2 C 16 3.100, 15.498 4, 14.883 4 C 14.259 4, 13.997 3.118, 14.290 2 C 14.778 0.133, 14.320 -0, 7.406 -0 L 0 0 0 8.077 M 0.311 8.500 C 0.332 12.900, 0.522 14.588, 0.732 12.250 C 0.990 9.391, 1.587 8, 2.557 8 C 3.351 8, 4 7.325, 4 6.500 C 4 5.675, 3.356 5, 2.570 5 C 1.783 5, 0.944 3.988, 0.706 2.750 C 0.467 1.512, 0.290 4.100, 0.311 8.500 M 5.572 1.750 C 6.069 2.163, 6.813 2.950, 7.223 3.500 C 7.649 4.071, 7.976 3.749, 7.985 2.750 C 7.993 1.777, 7.260 1, 6.333 1 C 5.417 1, 5.074 1.337, 5.572 1.750 M 21.813 1.683 C 22.534 1.972, 23.397 1.936, 23.729 1.604 C 24.061 1.272, 23.471 1.036, 22.417 1.079 C 21.252 1.127, 21.015 1.364, 21.813 1.683 M 25 2.500 C 25 3.325, 25.177 4, 25.393 4 C 25.609 4, 26.045 3.325, 26.362 2.500 C 26.678 1.675, 26.501 1, 25.969 1 C 25.436 1, 25 1.675, 25 2.500 M 3.572 3.750 C 4.069 4.162, 4.813 4.950, 5.223 5.500 C 5.649 6.071, 5.976 5.749, 5.985 4.750 C 5.993 3.777, 5.260 3, 4.333 3 C 3.417 3, 3.074 3.337, 3.572 3.750 M 19.813 3.683 C 20.534 3.972, 21.397 3.936, 21.729 3.604 C 22.061 3.272, 21.471 3.036, 20.417 3.079 C 19.252 3.127, 19.015 3.364, 19.813 3.683 M 13.965 6.542 C 13.077 7.612, 12.366 7.766, 11.642 7.042 C 9.802 5.202, 9.154 5.926, 10.344 8.492 C 11.072 10.062, 12.332 10.987, 13.750 10.992 C 15.585 10.999, 16 10.447, 16 8 C 16 4.576, 15.747 4.395, 13.965 6.542 M 17.015 6.750 C 17.024 7.749, 17.351 8.071, 17.777 7.500 C 18.187 6.950, 18.931 6.162, 19.428 5.750 C 19.926 5.338, 19.583 5, 18.667 5 C 17.740 5, 17.007 5.777, 17.015 6.750 M 22.032 6.955 C 21.257 8.030, 19.695 9.094, 18.562 9.319 C 16.613 9.705, 16.621 9.735, 18.705 9.864 C 19.917 9.939, 22.034 8.875, 23.409 7.500 C 24.784 6.125, 25.354 5, 24.675 5 C 23.997 5, 22.807 5.880, 22.032 6.955 M 30 6.500 C 29.293 7.352, 28.940 8.273, 29.215 8.548 C 29.490 8.823, 30.293 8.352, 31 7.500 C 31.707 6.648, 32.060 5.727, 31.785 5.452 C 31.510 5.177, 30.707 5.648, 30 6.500 M 7.553 8.915 C 7.231 9.436, 7.394 10.125, 7.915 10.447 C 8.436 10.769, 9.125 10.606, 9.447 10.085 C 9.769 9.564, 9.606 8.875, 9.085 8.553 C 8.564 8.231, 7.875 8.394, 7.553 8.915 M 4.500 14 C 2.720 15.967, 2.753 16, 6.500 16 C 10.247 16, 10.280 15.967, 8.500 14 C 7.505 12.900, 6.605 12, 6.500 12 C 6.395 12, 5.495 12.900, 4.500 14 M 24.813 12.683 C 25.534 12.972, 26.397 12.936, 26.729 12.604 C 27.061 12.272, 26.471 12.036, 25.417 12.079 C 24.252 12.127, 24.015 12.364, 24.813 12.683 M 28.015 13.750 C 28.024 14.749, 28.351 15.071, 28.777 14.500 C 29.187 13.950, 29.931 13.162, 30.428 12.750 C 30.926 12.338, 30.583 12, 29.667 12 C 28.740 12, 28.007 12.777, 28.015 13.750" stroke="none" fill="black" fill-rule="evenodd"/>
</svg>