<svg xmlns="http://www.w3.org/2000/svg" width="32" height="16" viewBox="0 0 32 16" version="1.1">
	<path d="M 0 8 L 0 16 9.500 16 C 16.425 16, 19.004 15.661, 19.015 14.750 C 19.026 13.917, 19.354 14, 20 15 C 20.862 16.333, 20.973 16.333, 21 15 C 21.027 13.667, 21.138 13.667, 22 15 C 22.862 16.333, 22.973 16.333, 23 15 C 23.027 13.667, 23.138 13.667, 24 15 C 24.862 16.333, 24.973 16.333, 25 15 C 25.027 13.667, 25.138 13.667, 26 15 C 26.862 16.333, 26.973 16.333, 27 15 C 27.027 13.667, 27.138 13.667, 28 15 C 28.862 16.333, 28.973 16.333, 29 15 C 29.027 13.667, 29.138 13.667, 30 15 C 30.704 16.090, 30.974 16.142, 30.985 15.191 C 30.993 14.471, 31.450 14.160, 32 14.500 C 32.633 14.891, 33 12.344, 33 7.559 L 33 0 16.500 0 L 0 0 0 8 M 0.343 8.500 C 0.346 12.900, 0.522 14.576, 0.733 12.224 C 0.945 9.872, 0.942 6.272, 0.727 4.224 C 0.512 2.176, 0.339 4.100, 0.343 8.500 M 19.015 3.750 C 19.026 4.930, 19.278 5.111, 19.789 4.307 C 20.207 3.650, 23.237 2.948, 26.524 2.746 L 32.500 2.378 25.750 2.189 C 19.911 2.026, 19.002 2.236, 19.015 3.750 M 19.015 7.750 C 19.025 8.861, 19.299 9.086, 19.765 8.366 C 20.169 7.742, 21.400 7.007, 22.500 6.732 C 24.033 6.349, 23.858 6.205, 21.750 6.116 C 19.748 6.032, 19.004 6.476, 19.015 7.750 M 25.441 7.574 C 24.374 8.440, 24.136 8.818, 24.913 8.415 C 25.690 8.011, 27.715 7.349, 29.413 6.943 C 32.251 6.264, 32.294 6.196, 29.941 6.102 C 28.534 6.046, 26.509 6.708, 25.441 7.574 M 22 11 C 22 11.550, 21.250 12, 20.333 12 C 19.417 12, 18.967 12.301, 19.335 12.668 C 19.702 13.036, 21.015 12.829, 22.252 12.210 C 23.488 11.590, 25.625 10.901, 27 10.678 C 28.729 10.397, 28.343 10.230, 25.750 10.136 C 23.688 10.061, 22 10.450, 22 11" stroke="none" fill="black" fill-rule="evenodd"/>
</svg>