<svg xmlns="http://www.w3.org/2000/svg" width="32" height="16" viewBox="0 0 32 16" version="1.1">
	<path d="M 0 8.025 L 0 16.050 16.250 15.775 L 32.500 15.500 32.792 7.750 L 33.084 0 16.542 0 L 0 0 0 8.025 M 0.136 8.750 C 0.211 13.013, 0.467 15.488, 0.706 14.250 C 1.085 12.282, 1.788 11.985, 6.320 11.882 C 9.169 11.816, 12.063 11.836, 12.750 11.925 C 13.619 12.038, 14 10.399, 14 6.544 L 14 1 7 1 L 0 1 0.136 8.750 M 17.185 6.750 L 17.370 12.500 17.736 7.296 L 18.101 2.093 24.301 1.739 L 30.500 1.385 23.750 1.193 L 17 1 17.185 6.750 M 31 6.934 C 31 12.639, 30.894 12.883, 28.250 13.284 C 25.690 13.671, 25.725 13.711, 28.750 13.850 L 32 14 32 7.500 C 32 3.925, 31.775 1, 31.500 1 C 31.225 1, 31 3.670, 31 6.934 M 2 6.250 L 2 10.500 7.250 10.500 L 12.500 10.500 12.500 6.250 L 12.500 2 7.250 2 L 2 2 2 6.250 M 4 6.500 C 4 8.690, 4.433 9, 7.500 9 C 10.567 9, 11 8.690, 11 6.500 C 11 4.310, 10.567 4, 7.500 4 C 4.433 4, 4 4.310, 4 6.500 M 20.136 6.750 C 20.249 9.018, 20.347 9.116, 20.698 7.309 C 21.007 5.717, 21.995 5.008, 24.312 4.719 C 27.375 4.336, 27.353 4.314, 23.750 4.160 C 20.257 4.011, 20.009 4.189, 20.136 6.750 M 28 6.943 C 28 9.678, 27.700 9.912, 23.750 10.268 L 19.500 10.651 24.250 10.825 L 29 11 29 7.500 C 29 5.575, 28.775 4, 28.500 4 C 28.225 4, 28 5.324, 28 6.943 M 5 6.500 C 5 7.433, 5.944 8, 7.500 8 C 9.056 8, 10 7.433, 10 6.500 C 10 4.684, 8.365 4.509, 7.662 6.250 C 7.259 7.250, 7.142 7.250, 7.079 6.250 C 6.966 4.462, 5 4.698, 5 6.500 M 6.813 13.683 C 7.534 13.972, 8.397 13.936, 8.729 13.604 C 9.061 13.272, 8.471 13.036, 7.417 13.079 C 6.252 13.127, 6.015 13.364, 6.813 13.683 M 17.750 13.662 C 18.438 13.940, 19.563 13.940, 20.250 13.662 C 20.938 13.385, 20.375 13.158, 19 13.158 C 17.625 13.158, 17.063 13.385, 17.750 13.662 M 22 13.969 C 22 14.501, 22.675 14.678, 23.500 14.362 C 24.325 14.045, 25 13.609, 25 13.393 C 25 13.177, 24.325 13, 23.500 13 C 22.675 13, 22 13.436, 22 13.969" stroke="none" fill="black" fill-rule="evenodd"/>
</svg>