<svg xmlns="http://www.w3.org/2000/svg" width="32" height="16" viewBox="0 0 32 16" version="1.1">
	<path d="M -0 8.030 L -0 16.060 12.750 15.780 L 25.500 15.500 26.187 12 L 26.874 8.500 26.632 12.299 C 26.398 15.978, 26.487 16.088, 29.445 15.799 L 32.500 15.500 32.792 7.750 L 33.084 0 16.542 0 L 0 0 -0 8.030 M 0.343 8.500 C 0.346 12.900, 0.522 14.576, 0.733 12.224 C 0.945 9.872, 0.942 6.272, 0.727 4.224 C 0.512 2.176, 0.339 4.100, 0.343 8.500 M 20.500 3 C 21.495 4.100, 22.535 5, 22.810 5 C 23.085 5, 22.495 4.100, 21.500 3 C 20.505 1.900, 19.465 1, 19.190 1 C 18.915 1, 19.505 1.900, 20.500 3 M 24.872 3.750 C 23.603 5.369, 23.650 5.390, 25.500 4.033 C 26.600 3.226, 27.688 2.439, 27.917 2.283 C 28.146 2.127, 27.863 2, 27.289 2 C 26.715 2, 25.627 2.788, 24.872 3.750 M 30.079 4.282 C 30.036 5.262, 28.988 6.471, 27.750 6.969 C 26.227 7.581, 26.026 7.894, 27.128 7.937 C 29.184 8.017, 31.353 5.476, 30.673 3.784 C 30.354 2.989, 30.128 3.179, 30.079 4.282 M 5 9 C 5 9.550, 5.450 10, 6 10 C 6.550 10, 7 9.550, 7 9 C 7 8.450, 6.550 8, 6 8 C 5.450 8, 5 8.450, 5 9 M 8 9 C 8 9.550, 8.450 10, 9 10 C 9.550 10, 10 9.550, 10 9 C 10 8.450, 9.550 8, 9 8 C 8.450 8, 8 8.450, 8 9 M 23 9.059 C 23 9.641, 23.450 9.840, 24 9.500 C 24.550 9.160, 25 8.684, 25 8.441 C 25 8.198, 24.550 8, 24 8 C 23.450 8, 23 8.477, 23 9.059 M 5.190 12.750 C 5.629 15.025, 9.371 15.025, 9.810 12.750 C 10.062 11.439, 9.482 11, 7.500 11 C 5.518 11, 4.938 11.439, 5.190 12.750 M 20.015 12.750 C 20.025 13.861, 20.299 14.086, 20.765 13.366 C 21.169 12.742, 22.400 12.007, 23.500 11.732 C 25.033 11.349, 24.858 11.205, 22.750 11.116 C 20.748 11.032, 20.004 11.476, 20.015 12.750" stroke="none" fill="black" fill-rule="evenodd"/>
</svg>