<svg xmlns="http://www.w3.org/2000/svg" width="32" height="16" viewBox="0 0 32 16" version="1.1">
	<path d="M 0 8 L 0 16 14.941 16 C 23.983 16, 30.130 15.599, 30.510 14.984 C 30.856 14.425, 31.557 14.226, 32.069 14.543 C 32.612 14.878, 33 11.970, 33 7.559 L 33 0 16.500 0 L 0 0 0 8 M 0.343 8.500 C 0.346 12.900, 0.522 14.576, 0.733 12.224 C 0.945 9.872, 0.942 6.272, 0.727 4.224 C 0.512 2.176, 0.339 4.100, 0.343 8.500 M 23.750 2.662 C 24.438 2.940, 25.563 2.940, 26.250 2.662 C 26.938 2.385, 26.375 2.158, 25 2.158 C 23.625 2.158, 23.063 2.385, 23.750 2.662 M 18.269 5.693 C 19.242 5.947, 20.592 5.930, 21.269 5.656 C 21.946 5.382, 21.150 5.175, 19.500 5.195 C 17.850 5.215, 17.296 5.439, 18.269 5.693 M 23.750 5.662 C 24.438 5.940, 25.563 5.940, 26.250 5.662 C 26.938 5.385, 26.375 5.158, 25 5.158 C 23.625 5.158, 23.063 5.385, 23.750 5.662 M 28.750 5.662 C 29.438 5.940, 30.563 5.940, 31.250 5.662 C 31.938 5.385, 31.375 5.158, 30 5.158 C 28.625 5.158, 28.063 5.385, 28.750 5.662 M 23.750 7.662 C 24.438 7.940, 25.563 7.940, 26.250 7.662 C 26.938 7.385, 26.375 7.158, 25 7.158 C 23.625 7.158, 23.063 7.385, 23.750 7.662 M 28.813 7.683 C 29.534 7.972, 30.397 7.936, 30.729 7.604 C 31.061 7.272, 30.471 7.036, 29.417 7.079 C 28.252 7.127, 28.015 7.364, 28.813 7.683 M 20.250 9.689 C 21.212 9.941, 22.788 9.941, 23.750 9.689 C 24.712 9.438, 23.925 9.232, 22 9.232 C 20.075 9.232, 19.288 9.438, 20.250 9.689 M 28.813 9.683 C 29.534 9.972, 30.397 9.936, 30.729 9.604 C 31.061 9.272, 30.471 9.036, 29.417 9.079 C 28.252 9.127, 28.015 9.364, 28.813 9.683 M 20.250 11.728 C 22.313 11.944, 25.688 11.944, 27.750 11.728 C 29.813 11.513, 28.125 11.336, 24 11.336 C 19.875 11.336, 18.188 11.513, 20.250 11.728 M 19.750 13.723 C 21.538 13.945, 24.462 13.945, 26.250 13.723 C 28.038 13.502, 26.575 13.320, 23 13.320 C 19.425 13.320, 17.962 13.502, 19.750 13.723" stroke="none" fill="black" fill-rule="evenodd"/>
</svg>