<svg xmlns="http://www.w3.org/2000/svg" width="32" height="16" viewBox="0 0 32 16" version="1.1">
	<path d="M -0 8.044 L -0 16.089 16.250 15.794 L 32.500 15.500 32.792 7.750 L 33.084 0 16.542 0 L 0 0 -0 8.044 M 0.168 8.111 L 0 15.723 2.750 15.141 C 5.261 14.610, 5.304 14.529, 3.250 14.210 C 1.651 13.962, 1 13.178, 1 11.500 C 1 9.847, 1.674 9.009, 3.250 8.706 C 5.497 8.273, 5.497 8.272, 3.310 8.136 C 1.548 8.027, 1.044 7.268, 0.728 4.250 C 0.513 2.187, 0.261 3.925, 0.168 8.111 M 6.750 3.662 C 7.438 3.940, 8.563 3.940, 9.250 3.662 C 9.938 3.385, 9.375 3.158, 8 3.158 C 6.625 3.158, 6.063 3.385, 6.750 3.662 M 22.750 3.662 C 23.438 3.940, 24.563 3.940, 25.250 3.662 C 25.938 3.385, 25.375 3.158, 24 3.158 C 22.625 3.158, 22.063 3.385, 22.750 3.662 M 27 4 C 27 4.550, 25.902 5, 24.559 5 C 23.216 5, 21.890 5.369, 21.612 5.819 C 20.750 7.214, 26.866 5.866, 28.090 4.391 C 28.928 3.382, 28.937 3, 28.122 3 C 27.505 3, 27 3.450, 27 4 M 11.750 8.662 C 12.438 8.940, 13.563 8.940, 14.250 8.662 C 14.938 8.385, 14.375 8.158, 13 8.158 C 11.625 8.158, 11.063 8.385, 11.750 8.662 M 17.750 8.662 C 18.438 8.940, 19.563 8.940, 20.250 8.662 C 20.938 8.385, 20.375 8.158, 19 8.158 C 17.625 8.158, 17.063 8.385, 17.750 8.662 M 22 8.927 C 22 9.436, 21.212 10.059, 20.250 10.311 C 18.933 10.655, 19.057 10.797, 20.750 10.884 C 22.135 10.955, 23 10.423, 23 9.500 C 23 8.675, 22.775 8, 22.500 8 C 22.225 8, 22 8.417, 22 8.927 M 27.750 8.662 C 28.438 8.940, 29.563 8.940, 30.250 8.662 C 30.938 8.385, 30.375 8.158, 29 8.158 C 27.625 8.158, 27.063 8.385, 27.750 8.662 M 11.750 14.662 C 12.438 14.940, 13.563 14.940, 14.250 14.662 C 14.938 14.385, 14.375 14.158, 13 14.158 C 11.625 14.158, 11.063 14.385, 11.750 14.662 M 17.750 14.662 C 18.438 14.940, 19.563 14.940, 20.250 14.662 C 20.938 14.385, 20.375 14.158, 19 14.158 C 17.625 14.158, 17.063 14.385, 17.750 14.662 M 27.750 14.662 C 28.438 14.940, 29.563 14.940, 30.250 14.662 C 30.938 14.385, 30.375 14.158, 29 14.158 C 27.625 14.158, 27.063 14.385, 27.750 14.662" stroke="none" fill="black" fill-rule="evenodd"/>
</svg>