<svg xmlns="http://www.w3.org/2000/svg" width="32" height="16" viewBox="0 0 32 16" version="1.1">
	<path d="M 0 8 L 0 16 11 16 C 17.667 16, 22 15.606, 22 15 C 22 14.450, 23.012 14.032, 24.250 14.070 C 26.404 14.138, 26.414 14.179, 24.500 15.034 C 23.048 15.683, 23.869 15.869, 27.500 15.714 L 32.500 15.500 32.792 7.750 L 33.084 0 16.542 0 L 0 0 0 8 M 0.168 8.111 L 0 15.723 2.750 15.141 C 5.261 14.610, 5.304 14.529, 3.250 14.210 C 1.651 13.962, 1 13.178, 1 11.500 C 1 9.847, 1.674 9.009, 3.250 8.706 C 5.497 8.273, 5.497 8.272, 3.310 8.136 C 1.548 8.027, 1.044 7.268, 0.728 4.250 C 0.513 2.187, 0.261 3.925, 0.168 8.111 M 6.750 3.662 C 7.438 3.940, 8.563 3.940, 9.250 3.662 C 9.938 3.385, 9.375 3.158, 8 3.158 C 6.625 3.158, 6.063 3.385, 6.750 3.662 M 22.750 3.662 C 23.438 3.940, 24.563 3.940, 25.250 3.662 C 25.938 3.385, 25.375 3.158, 24 3.158 C 22.625 3.158, 22.063 3.385, 22.750 3.662 M 27 4 C 27 4.550, 26.325 5, 25.500 5 C 24.675 5, 24 5.466, 24 6.035 C 24 6.737, 24.644 6.726, 26 6 C 27.780 5.047, 28.804 3, 27.500 3 C 27.225 3, 27 3.450, 27 4 M 11.750 8.662 C 12.438 8.940, 13.563 8.940, 14.250 8.662 C 14.938 8.385, 14.375 8.158, 13 8.158 C 11.625 8.158, 11.063 8.385, 11.750 8.662 M 17.750 8.662 C 18.438 8.940, 19.563 8.940, 20.250 8.662 C 20.938 8.385, 20.375 8.158, 19 8.158 C 17.625 8.158, 17.063 8.385, 17.750 8.662 M 22 8.934 C 22 9.447, 20.762 10.055, 19.250 10.284 C 16.690 10.671, 16.725 10.711, 19.750 10.850 C 22.039 10.956, 23 10.556, 23 9.500 C 23 8.675, 22.775 8, 22.500 8 C 22.225 8, 22 8.420, 22 8.934 M 24 10.500 C 24 11.875, 24.173 13, 24.383 13 C 24.594 13, 24.982 11.875, 25.245 10.500 C 25.508 9.125, 25.335 8, 24.861 8 C 24.388 8, 24 9.125, 24 10.500 M 27.750 8.662 C 28.438 8.940, 29.563 8.940, 30.250 8.662 C 30.938 8.385, 30.375 8.158, 29 8.158 C 27.625 8.158, 27.063 8.385, 27.750 8.662 M 28.269 10.693 C 29.242 10.947, 30.592 10.930, 31.269 10.656 C 31.946 10.382, 31.150 10.175, 29.500 10.195 C 27.850 10.215, 27.296 10.439, 28.269 10.693 M 11.750 14.662 C 12.438 14.940, 13.563 14.940, 14.250 14.662 C 14.938 14.385, 14.375 14.158, 13 14.158 C 11.625 14.158, 11.063 14.385, 11.750 14.662 M 17.750 14.662 C 18.438 14.940, 19.563 14.940, 20.250 14.662 C 20.938 14.385, 20.375 14.158, 19 14.158 C 17.625 14.158, 17.063 14.385, 17.750 14.662 M 27.750 14.662 C 28.438 14.940, 29.563 14.940, 30.250 14.662 C 30.938 14.385, 30.375 14.158, 29 14.158 C 27.625 14.158, 27.063 14.385, 27.750 14.662" stroke="none" fill="black" fill-rule="evenodd"/>
</svg>