<svg xmlns="http://www.w3.org/2000/svg" width="32" height="16" viewBox="0 0 32 16" version="1.1">
	<path d="M 0.030 2.750 C 0.056 5.068, 0.218 5.230, 1.062 3.782 C 1.613 2.837, 2.837 1.613, 3.782 1.062 C 5.230 0.218, 5.068 0.056, 2.750 0.030 C 0.402 0.004, 0.004 0.402, 0.030 2.750 M 5.655 1.829 C 3.484 4.228, 3.555 7.287, 5.829 9.345 C 8.157 11.452, 10.843 11.452, 13.171 9.345 C 15.985 6.799, 15.424 9.667, 12.545 12.545 C 9.417 15.674, 5.583 15.674, 2.455 12.545 L -0 10.091 -0 13.045 L 0 16 10.257 16 C 22.484 16, 26.740 14.966, 29.745 11.265 C 30.980 9.744, 31.992 9.083, 31.995 9.795 C 31.998 10.508, 30.895 12.195, 29.545 13.545 L 27.091 16 29.486 16 C 32.828 16, 33.117 15.106, 32.370 7.073 L 31.713 0 19.511 0 C 8.961 0, 7.086 0.247, 5.655 1.829 M 21.200 2.200 C 20.540 2.860, 20.052 4.548, 20.116 5.950 C 20.210 8.020, 20.324 8.124, 20.719 6.500 C 20.987 5.400, 21.905 3.713, 22.758 2.750 C 24.486 0.801, 23.091 0.309, 21.200 2.200 M 0.232 13 C 0.232 14.925, 0.438 15.713, 0.689 14.750 C 0.941 13.787, 0.941 12.213, 0.689 11.250 C 0.438 10.287, 0.232 11.075, 0.232 13" stroke="none" fill="black" fill-rule="evenodd"/>
</svg>