<svg xmlns="http://www.w3.org/2000/svg" width="32" height="16" viewBox="0 0 32 16" version="1.1">
	<path d="M 0 8 L 0 16 13.500 16 C 21.833 16, 27 15.617, 27 15 C 27 14.450, 27.788 14.007, 28.750 14.015 C 30.255 14.028, 30.290 14.174, 29 15.059 C 27.814 15.871, 28.024 16.025, 30 15.793 C 32.397 15.512, 32.512 15.181, 32.792 7.750 L 33.084 0 16.542 0 L 0 0 0 8 M 0.070 8 L -0.001 15.500 4.847 15.164 L 9.695 14.828 7.621 12.500 C 6.001 10.680, 5.144 10.388, 3.698 11.161 C 2.104 12.015, 1.984 11.898, 2.832 10.315 C 3.372 9.304, 4.834 7.583, 6.079 6.489 C 7.432 5.300, 8.008 5.104, 7.511 6 C 7.052 6.825, 7.875 6.409, 9.339 5.076 C 12.155 2.510, 12.837 1.351, 10.750 2.676 C 8.483 4.115, 1.552 3.658, 0.820 2.021 C 0.446 1.184, 0.109 3.875, 0.070 8 M 17.624 3.539 C 17.281 4.432, 17.062 7.489, 17.137 10.332 L 17.274 15.500 18.023 9 C 18.800 2.258, 18.690 0.758, 17.624 3.539 M 20.079 3.583 C 20.127 4.748, 20.364 4.985, 20.683 4.188 C 20.972 3.466, 20.936 2.603, 20.604 2.271 C 20.272 1.939, 20.036 2.529, 20.079 3.583 M 22.079 3.583 C 22.127 4.748, 22.364 4.985, 22.683 4.188 C 22.972 3.466, 22.936 2.603, 22.604 2.271 C 22.272 1.939, 22.036 2.529, 22.079 3.583 M 28.584 3.641 C 28.057 5.014, 28.204 5.076, 29.477 4.019 C 31.212 2.579, 31.393 2, 30.107 2 C 29.616 2, 28.931 2.739, 28.584 3.641 M 11 6.931 C 12.158 7.733, 11.660 7.973, 8.809 7.985 C 6.779 7.993, 4.890 8.369, 4.612 8.819 C 4.333 9.270, 5.544 9.491, 7.303 9.311 C 9.921 9.044, 10.138 9.154, 8.500 9.922 L 6.500 10.859 8.500 10.945 C 10.180 11.017, 10.260 11.194, 9 12.052 C 7.848 12.837, 8.197 13.007, 10.500 12.787 C 13.100 12.538, 13.500 12.101, 13.500 9.514 C 13.500 7.300, 12.983 6.445, 11.500 6.210 C 9.850 5.948, 9.763 6.074, 11 6.931 M 26.813 6.683 C 27.534 6.972, 28.397 6.936, 28.729 6.604 C 29.061 6.272, 28.471 6.036, 27.417 6.079 C 26.252 6.127, 26.015 6.364, 26.813 6.683 M 15.232 10 C 15.232 11.925, 15.438 12.713, 15.689 11.750 C 15.941 10.787, 15.941 9.213, 15.689 8.250 C 15.438 7.287, 15.232 8.075, 15.232 10 M 23.762 8.707 C 25.006 8.946, 26.806 8.937, 27.762 8.687 C 28.718 8.437, 27.700 8.241, 25.500 8.252 C 23.300 8.263, 22.518 8.468, 23.762 8.707 M 23.750 10.662 C 24.438 10.940, 25.563 10.940, 26.250 10.662 C 26.938 10.385, 26.375 10.158, 25 10.158 C 23.625 10.158, 23.063 10.385, 23.750 10.662 M 19.507 11.989 C 19.157 12.555, 19.558 12.723, 20.448 12.382 C 22.180 11.717, 22.497 11, 21.059 11 C 20.541 11, 19.843 11.445, 19.507 11.989 M 24.813 12.683 C 25.534 12.972, 26.397 12.936, 26.729 12.604 C 27.061 12.272, 26.471 12.036, 25.417 12.079 C 24.252 12.127, 24.015 12.364, 24.813 12.683" stroke="none" fill="black" fill-rule="evenodd"/>
</svg>