<svg xmlns="http://www.w3.org/2000/svg" width="32" height="16" viewBox="0 0 32 16" version="1.1">
	<path d="M 0 8.044 L 0 16.089 15.250 15.899 C 23.637 15.795, 31.063 15.502, 31.750 15.248 C 32.596 14.935, 33 12.395, 33 7.393 L 33 0 16.500 0 L 0 0 0 8.044 M 0.220 8.500 C 0.264 12.900, 0.487 15.262, 0.716 13.750 C 1.106 11.178, 1.452 11, 6.066 11 L 11 11 11 7.196 L 11 3.393 6.250 3.492 C 2.855 3.563, 1.306 3.150, 0.820 2.046 C 0.446 1.196, 0.176 4.100, 0.220 8.500 M 30.624 3.539 C 30.281 4.432, 30.066 7.264, 30.147 9.832 C 30.291 14.400, 30.309 14.372, 30.974 8.500 C 31.701 2.092, 31.620 0.943, 30.624 3.539 M 12.286 7.500 C 12.294 10.250, 12.488 11.256, 12.718 9.736 C 12.947 8.216, 12.941 5.966, 12.704 4.736 C 12.467 3.506, 12.279 4.750, 12.286 7.500 M 17.667 3.667 C 17.300 4.033, 17.056 6.171, 17.125 8.417 L 17.250 12.500 17.998 8 C 18.789 3.239, 18.739 2.594, 17.667 3.667 M 28 7.437 C 28 11.693, 27.868 11.890, 24.750 12.277 C 21.550 12.674, 21.558 12.682, 25.250 12.840 L 29 13 29 8 C 29 5.250, 28.775 3, 28.500 3 C 28.225 3, 28 4.996, 28 7.437 M 14.286 8.500 C 14.294 11.250, 14.488 12.256, 14.718 10.736 C 14.947 9.216, 14.941 6.966, 14.704 5.736 C 14.467 4.506, 14.279 5.750, 14.286 8.500 M 5.813 5.683 C 6.534 5.972, 7.397 5.936, 7.729 5.604 C 8.061 5.272, 7.471 5.036, 6.417 5.079 C 5.252 5.127, 5.015 5.364, 5.813 5.683 M 22.813 6.683 C 23.534 6.972, 24.397 6.936, 24.729 6.604 C 25.061 6.272, 24.471 6.036, 23.417 6.079 C 22.252 6.127, 22.015 6.364, 22.813 6.683 M 6.813 13.683 C 7.534 13.972, 8.397 13.936, 8.729 13.604 C 9.061 13.272, 8.471 13.036, 7.417 13.079 C 6.252 13.127, 6.015 13.364, 6.813 13.683 M 11.813 14.683 C 12.534 14.972, 13.397 14.936, 13.729 14.604 C 14.061 14.272, 13.471 14.036, 12.417 14.079 C 11.252 14.127, 11.015 14.364, 11.813 14.683 M 18.813 14.683 C 19.534 14.972, 20.397 14.936, 20.729 14.604 C 21.061 14.272, 20.471 14.036, 19.417 14.079 C 18.252 14.127, 18.015 14.364, 18.813 14.683" stroke="none" fill="black" fill-rule="evenodd"/>
</svg>