<svg xmlns="http://www.w3.org/2000/svg" width="32" height="16" viewBox="0 0 32 16" version="1.1">
	<path d="M 0 7.995 L 0 15.991 14.954 15.940 L 29.907 15.890 30.261 9.695 L 30.615 3.500 30.807 9.809 C 31.081 18.762, 33 16.690, 33 7.441 L 33 0 16.500 0 L 0 0 0 7.995 M 0.343 8.500 C 0.346 12.900, 0.522 14.576, 0.733 12.224 C 0.945 9.872, 0.942 6.272, 0.727 4.224 C 0.512 2.176, 0.339 4.100, 0.343 8.500 M 18.409 3.377 C 18.118 4.134, 18.028 6.947, 18.209 9.627 L 18.538 14.500 19.019 8.248 C 19.505 1.932, 19.372 0.868, 18.409 3.377 M 20.624 3.539 C 20.281 4.432, 20.062 7.489, 20.137 10.332 L 20.274 15.500 21.023 9 C 21.800 2.258, 21.690 0.758, 20.624 3.539 M 23.079 3.583 C 23.127 4.748, 23.364 4.985, 23.683 4.188 C 23.972 3.466, 23.936 2.603, 23.604 2.271 C 23.272 1.939, 23.036 2.529, 23.079 3.583 M 25.079 3.583 C 25.127 4.748, 25.364 4.985, 25.683 4.188 C 25.972 3.466, 25.936 2.603, 25.604 2.271 C 25.272 1.939, 25.036 2.529, 25.079 3.583 M 27.079 3.583 C 27.127 4.748, 27.364 4.985, 27.683 4.188 C 27.972 3.466, 27.936 2.603, 27.604 2.271 C 27.272 1.939, 27.036 2.529, 27.079 3.583 M 2.310 8.500 C 2.315 11.800, 2.502 13.029, 2.725 11.232 C 2.947 9.435, 2.943 6.735, 2.715 5.232 C 2.486 3.729, 2.304 5.200, 2.310 8.500 M 4.486 3.848 C 4.218 4.115, 4 6.733, 4 9.667 L 4 15 8.550 15 L 13.100 15 12.800 9.282 L 12.500 3.564 8.736 3.463 C 6.665 3.408, 4.753 3.581, 4.486 3.848 M 23.762 6.707 C 25.006 6.946, 26.806 6.937, 27.762 6.687 C 28.718 6.437, 27.700 6.241, 25.500 6.252 C 23.300 6.263, 22.518 6.468, 23.762 6.707 M 8.813 8.683 C 9.534 8.972, 10.397 8.936, 10.729 8.604 C 11.061 8.272, 10.471 8.036, 9.417 8.079 C 8.252 8.127, 8.015 8.364, 8.813 8.683 M 23.762 8.707 C 25.006 8.946, 26.806 8.937, 27.762 8.687 C 28.718 8.437, 27.700 8.241, 25.500 8.252 C 23.300 8.263, 22.518 8.468, 23.762 8.707 M 6.813 10.683 C 7.534 10.972, 8.397 10.936, 8.729 10.604 C 9.061 10.272, 8.471 10.036, 7.417 10.079 C 6.252 10.127, 6.015 10.364, 6.813 10.683 M 23.762 10.707 C 25.006 10.946, 26.806 10.937, 27.762 10.687 C 28.718 10.437, 27.700 10.241, 25.500 10.252 C 23.300 10.263, 22.518 10.468, 23.762 10.707 M 23.762 12.707 C 25.006 12.946, 26.806 12.937, 27.762 12.687 C 28.718 12.437, 27.700 12.241, 25.500 12.252 C 23.300 12.263, 22.518 12.468, 23.762 12.707 M 23.762 14.707 C 25.006 14.946, 26.806 14.937, 27.762 14.687 C 28.718 14.437, 27.700 14.241, 25.500 14.252 C 23.300 14.263, 22.518 14.468, 23.762 14.707" stroke="none" fill="black" fill-rule="evenodd"/>
</svg>