<svg xmlns="http://www.w3.org/2000/svg" width="32" height="16" viewBox="0 0 32 16" version="1.1">
	<path d="M 0 8.077 L 0 16.153 2.613 13.048 C 4.666 10.608, 5.520 10.187, 6.600 11.083 C 7.356 11.711, 8.655 11.963, 9.487 11.643 C 10.586 11.222, 11 11.739, 11 13.531 C 11 15.675, 11.450 16, 14.422 16 C 17.177 16, 18.511 15.220, 21.268 12 C 23.151 9.800, 25.015 8, 25.409 8 C 25.803 8, 24.530 9.687, 22.580 11.750 L 19.035 15.500 24.655 15.804 C 32.925 16.251, 33 16.177, 33 7.531 L 33 0 24.500 0 C 16.667 0, 16 0.157, 16 2 C 16 3.100, 15.498 4, 14.883 4 C 14.259 4, 13.997 3.118, 14.290 2 C 14.778 0.133, 14.320 -0, 7.406 -0 L 0 0 0 8.077 M 0.343 8.500 C 0.346 12.900, 0.522 14.576, 0.733 12.224 C 0.945 9.872, 0.942 6.272, 0.727 4.224 C 0.512 2.176, 0.339 4.100, 0.343 8.500 M 2 3.500 C 2 4.325, 2.675 5, 3.500 5 C 4.325 5, 5 4.325, 5 3.500 C 5 2.675, 4.325 2, 3.500 2 C 2.675 2, 2 2.675, 2 3.500 M 18.015 3.750 C 18.024 4.749, 18.351 5.071, 18.777 4.500 C 19.187 3.950, 19.931 3.163, 20.428 2.750 C 20.926 2.337, 20.583 2, 19.667 2 C 18.740 2, 18.007 2.777, 18.015 3.750 M 22 3.930 C 22 5.137, 21.157 6.023, 19.750 6.294 C 17.821 6.666, 17.892 6.747, 20.250 6.864 C 22.553 6.978, 23 6.594, 23 4.500 C 23 3.125, 22.775 2, 22.500 2 C 22.225 2, 22 2.869, 22 3.930 M 13.965 6.542 C 13.077 7.612, 12.366 7.766, 11.642 7.042 C 9.802 5.202, 9.154 5.926, 10.344 8.492 C 11.072 10.062, 12.332 10.987, 13.750 10.992 C 15.585 10.999, 16 10.447, 16 8 C 16 4.576, 15.747 4.395, 13.965 6.542 M 30 6.500 C 29.293 7.352, 28.940 8.273, 29.215 8.548 C 29.490 8.823, 30.293 8.352, 31 7.500 C 31.707 6.648, 32.060 5.727, 31.785 5.452 C 31.510 5.177, 30.707 5.648, 30 6.500 M 7.553 8.915 C 7.231 9.436, 7.394 10.125, 7.915 10.447 C 8.436 10.769, 9.125 10.606, 9.447 10.085 C 9.769 9.564, 9.606 8.875, 9.085 8.553 C 8.564 8.231, 7.875 8.394, 7.553 8.915 M 4.500 14 C 2.720 15.967, 2.753 16, 6.500 16 C 10.247 16, 10.280 15.967, 8.500 14 C 7.505 12.900, 6.605 12, 6.500 12 C 6.395 12, 5.495 12.900, 4.500 14 M 24.813 12.683 C 25.534 12.972, 26.397 12.936, 26.729 12.604 C 27.061 12.272, 26.471 12.036, 25.417 12.079 C 24.252 12.127, 24.015 12.364, 24.813 12.683 M 28.015 13.750 C 28.024 14.749, 28.351 15.071, 28.777 14.500 C 29.187 13.950, 29.931 13.162, 30.428 12.750 C 30.926 12.338, 30.583 12, 29.667 12 C 28.740 12, 28.007 12.777, 28.015 13.750" stroke="none" fill="black" fill-rule="evenodd"/>
</svg>