<svg xmlns="http://www.w3.org/2000/svg" width="32" height="16" viewBox="0 0 32 16" version="1.1">
	<path d="M -0 7.957 L -0 15.914 4.653 10.940 C 8.858 6.444, 9.464 6.110, 10.959 7.463 C 12.431 8.795, 12.798 8.774, 14.306 7.265 C 15.898 5.673, 16 5.886, 16 10.786 L 16 16 20.375 16 C 27.830 16, 30.988 15.006, 31.100 12.625 C 31.189 10.718, 31.281 10.756, 32 13 C 32.559 14.745, 32.831 13.160, 32.900 7.750 L 33 0 24.500 0 C 16.100 0, 16 0.029, 16 2.500 C 16 3.875, 15.498 5, 14.883 5 C 14.232 5, 13.966 3.959, 14.245 2.500 C 14.720 0.016, 14.674 0, 7.361 0 L 0 0 -0 7.957 M 0.343 8.500 C 0.346 12.900, 0.522 14.576, 0.733 12.224 C 0.945 9.872, 0.942 6.272, 0.727 4.224 C 0.512 2.176, 0.339 4.100, 0.343 8.500 M 2 3.500 C 2 4.325, 2.675 5, 3.500 5 C 4.325 5, 5 4.325, 5 3.500 C 5 2.675, 4.325 2, 3.500 2 C 2.675 2, 2 2.675, 2 3.500 M 18.015 3.750 C 18.024 4.749, 18.351 5.071, 18.777 4.500 C 19.187 3.950, 19.931 3.163, 20.428 2.750 C 20.926 2.337, 20.583 2, 19.667 2 C 18.740 2, 18.007 2.777, 18.015 3.750 M 22 3.930 C 22 5.137, 21.157 6.023, 19.750 6.294 C 17.821 6.666, 17.892 6.747, 20.250 6.864 C 22.553 6.978, 23 6.594, 23 4.500 C 23 3.125, 22.775 2, 22.500 2 C 22.225 2, 22 2.869, 22 3.930 M 30 7.500 C 29.293 8.352, 28.940 9.273, 29.215 9.548 C 29.490 9.823, 30.293 9.352, 31 8.500 C 31.707 7.648, 32.060 6.727, 31.785 6.452 C 31.510 6.177, 30.707 6.648, 30 7.500 M 10 12.500 C 10 14.500, 10.500 15, 12.500 15 C 14.500 15, 15 14.500, 15 12.500 C 15 10.500, 14.500 10, 12.500 10 C 10.500 10, 10 10.500, 10 12.500 M 27.015 12.750 C 27.024 13.749, 27.351 14.071, 27.777 13.500 C 28.187 12.950, 28.931 12.162, 29.428 11.750 C 29.926 11.338, 29.583 11, 28.667 11 C 27.740 11, 27.007 11.777, 27.015 12.750" stroke="none" fill="black" fill-rule="evenodd"/>
</svg>