<svg xmlns="http://www.w3.org/2000/svg" width="32" height="16" viewBox="0 0 32 16" version="1.1">
	<path d="M 0 8 L 0 16 14.952 16 L 29.905 16 30.260 9.750 L 30.615 3.500 30.807 9.809 C 31.081 18.762, 33 16.690, 33 7.441 L 33 0 16.500 0 L 0 0 0 8 M 0.343 8.500 C 0.346 12.900, 0.522 14.576, 0.733 12.224 C 0.945 9.872, 0.942 6.272, 0.727 4.224 C 0.512 2.176, 0.339 4.100, 0.343 8.500 M 3.750 1.706 C 4.988 1.944, 7.012 1.944, 8.250 1.706 C 9.488 1.467, 8.475 1.272, 6 1.272 C 3.525 1.272, 2.512 1.467, 3.750 1.706 M 19.750 1.706 C 20.988 1.944, 23.012 1.944, 24.250 1.706 C 25.488 1.467, 24.475 1.272, 22 1.272 C 19.525 1.272, 18.512 1.467, 19.750 1.706 M 11 3 C 11 3.550, 11.477 4, 12.059 4 C 12.641 4, 12.840 3.550, 12.500 3 C 12.160 2.450, 11.684 2, 11.441 2 C 11.198 2, 11 2.450, 11 3 M 2 9 L 2 15 7.500 15 L 13 15 13 10 C 13 6.222, 12.633 5, 11.500 5 C 10.675 5, 10 4.550, 10 4 C 10 3.450, 8.200 3, 6 3 L 2 3 2 9 M 18.189 9.250 L 18.378 15.500 18.737 9.807 L 19.096 4.115 22.798 3.726 L 26.500 3.336 22.250 3.168 L 18 3 18.189 9.250 M 5.310 7.492 C 4.656 8.204, 4.418 9.084, 4.781 9.448 C 5.145 9.811, 4.916 10.434, 4.274 10.831 C 3.507 11.305, 3.426 12.059, 4.037 13.026 C 4.667 14.023, 4.974 14.095, 4.985 13.250 C 4.993 12.563, 5.675 12, 6.500 12 C 7.325 12, 8 12.468, 8 13.039 C 8 13.639, 8.590 13.533, 9.395 12.789 C 10.162 12.080, 10.555 11.112, 10.267 10.638 C 9.979 10.164, 10.228 9.477, 10.819 9.112 C 11.511 8.684, 11.562 7.921, 10.963 6.974 C 10.333 5.977, 10.026 5.905, 10.015 6.750 C 9.998 8.176, 7.339 8.467, 6.833 7.099 C 6.650 6.603, 5.965 6.780, 5.310 7.492 M 6 10 C 6 10.550, 6.675 11, 7.500 11 C 8.325 11, 9 10.550, 9 10 C 9 9.450, 8.325 9, 7.500 9 C 6.675 9, 6 9.450, 6 10 M 22 9.969 C 22 10.501, 22.675 10.678, 23.500 10.362 C 24.325 10.045, 25 9.609, 25 9.393 C 25 9.177, 24.325 9, 23.500 9 C 22.675 9, 22 9.436, 22 9.969 M 26 9.969 C 26 10.501, 26.675 10.678, 27.500 10.362 C 28.325 10.045, 29 9.609, 29 9.393 C 29 9.177, 28.325 9, 27.500 9 C 26.675 9, 26 9.436, 26 9.969 M 21.015 13.750 C 21.024 14.749, 21.351 15.071, 21.777 14.500 C 22.187 13.950, 22.931 13.162, 23.428 12.750 C 23.926 12.338, 23.583 12, 22.667 12 C 21.740 12, 21.007 12.777, 21.015 13.750 M 25.015 13.750 C 25.024 14.749, 25.351 15.071, 25.777 14.500 C 26.187 13.950, 26.931 13.162, 27.428 12.750 C 27.926 12.338, 27.583 12, 26.667 12 C 25.740 12, 25.007 12.777, 25.015 13.750" stroke="none" fill="black" fill-rule="evenodd"/>
</svg>