<svg xmlns="http://www.w3.org/2000/svg" width="32" height="16" viewBox="0 0 32 16" version="1.1">
	<path d="M 0 8 L 0 16 3.500 16 C 5.944 16, 7 15.548, 7 14.500 C 7 13.675, 7.644 13, 8.430 13 C 9.217 13, 10.056 11.988, 10.294 10.750 L 10.728 8.500 10.864 10.750 C 10.957 12.288, 11.633 13, 13 13 C 14.111 13, 15 13.667, 15 14.500 C 15 15.583, 16.111 16, 19 16 C 21.889 16, 23 15.583, 23 14.500 C 23 13.675, 23.465 13, 24.032 13 C 24.600 13, 25.471 11.988, 25.969 10.750 L 26.873 8.500 26.937 10.781 C 26.971 12.036, 26.325 13.322, 25.500 13.638 C 22.745 14.695, 23.956 15.500, 28.250 15.467 L 32.500 15.434 32.792 7.717 L 33.084 0 16.542 0 L 0 0 0 8 M 0.136 8.750 C 0.211 13.013, 0.467 15.488, 0.706 14.250 C 1.067 12.372, 1.789 12, 5.070 12 C 8.988 12, 9 11.988, 9 8 C 9 4.222, 8.833 4, 6 4 C 3.349 4, 3 4.341, 3 6.930 C 3 9.174, 3.527 9.962, 5.250 10.294 C 7.254 10.680, 7.211 10.743, 4.855 10.864 C 2.469 10.987, 2.173 10.606, 1.827 6.978 C 1.616 4.767, 1.883 2.517, 2.422 1.978 C 3.059 1.341, 2.808 1, 1.700 1 C 0.235 1, 0.019 2.069, 0.136 8.750 M 7.500 2 C 7.840 2.550, 8.316 3, 8.559 3 C 8.802 3, 9 2.550, 9 2 C 9 1.450, 8.523 1, 7.941 1 C 7.359 1, 7.160 1.450, 7.500 2 M 19 2 C 17.875 2.727, 18.375 2.969, 21 2.969 C 23.625 2.969, 24.125 2.727, 23 2 C 22.175 1.467, 21.275 1.031, 21 1.031 C 20.725 1.031, 19.825 1.467, 19 2 M 26.079 3.583 C 26.127 4.748, 26.364 4.985, 26.683 4.188 C 26.972 3.466, 26.936 2.603, 26.604 2.271 C 26.272 1.939, 26.036 2.529, 26.079 3.583 M 19.150 7.250 C 19.285 10.184, 19.340 10.239, 19.710 7.812 C 19.984 6.020, 20.851 4.981, 22.310 4.698 C 24.114 4.347, 24.015 4.248, 21.750 4.136 C 19.258 4.013, 19.014 4.305, 19.150 7.250 M 29.602 8.158 C 27.235 11.538, 27.655 12.708, 30.114 9.582 C 31.277 8.104, 31.998 6.664, 31.716 6.383 C 31.434 6.101, 30.483 6.900, 29.602 8.158 M 12 11 C 12 11.550, 12.477 12, 13.059 12 C 13.641 12, 13.840 11.550, 13.500 11 C 13.160 10.450, 12.684 10, 12.441 10 C 12.198 10, 12 10.450, 12 11 M 18.750 13.662 C 19.438 13.940, 20.563 13.940, 21.250 13.662 C 21.938 13.385, 21.375 13.158, 20 13.158 C 18.625 13.158, 18.063 13.385, 18.750 13.662 M 28.813 13.683 C 29.534 13.972, 30.397 13.936, 30.729 13.604 C 31.061 13.272, 30.471 13.036, 29.417 13.079 C 28.252 13.127, 28.015 13.364, 28.813 13.683 M 8.750 14.662 C 9.438 14.940, 10.563 14.940, 11.250 14.662 C 11.938 14.385, 11.375 14.158, 10 14.158 C 8.625 14.158, 8.063 14.385, 8.750 14.662" stroke="none" fill="black" fill-rule="evenodd"/>
</svg>