<svg xmlns="http://www.w3.org/2000/svg" width="32" height="16" viewBox="0 0 32 16" version="1.1">
	<path d="M 3.500 2 C 5.651 4.377, 4.419 4.689, 1.897 2.407 C 0.230 0.898, 0.140 1.230, 0.199 8.657 C 0.234 12.971, 0.466 15.938, 0.714 15.250 C 0.963 14.562, 1.606 14, 2.142 14 C 2.679 14, 2.840 14.450, 2.500 15 C 2.112 15.628, 4.312 16, 8.410 16 C 14.169 16, 14.873 15.794, 14.387 14.250 C 13.875 12.623, 13.934 12.618, 15.224 14.175 C 16.334 15.516, 18.196 15.815, 24.555 15.675 L 32.500 15.500 32.718 7.750 L 32.936 -0 24.797 -0 C 18.473 -0, 16.212 0.390, 14.659 1.750 C 12.756 3.417, 12.691 3.417, 13.299 1.750 C 13.797 0.384, 13.396 0, 11.469 0 C 9.941 0, 9 0.572, 9 1.500 C 9 2.325, 8.550 3, 8 3 C 7.450 3, 7 2.325, 7 1.500 C 7 0.543, 6.038 0, 4.345 0 C 1.753 0, 1.733 0.048, 3.500 2 M 0.252 4.500 C 0.263 6.700, 0.468 7.482, 0.707 6.238 C 0.946 4.994, 0.937 3.194, 0.687 2.238 C 0.437 1.282, 0.241 2.300, 0.252 4.500 M 30.667 1.667 C 30.300 2.033, 30 2.798, 30 3.367 C 30 3.993, 30.466 3.934, 31.183 3.217 C 31.834 2.566, 32.134 1.801, 31.850 1.517 C 31.566 1.232, 31.033 1.300, 30.667 1.667 M 24 4.180 C 20.067 5.304, 18 6.728, 18 8.314 C 18 8.901, 18.563 8.654, 19.250 7.763 C 19.938 6.873, 22.413 5.644, 24.750 5.034 C 27.087 4.423, 29 3.715, 29 3.461 C 29 2.861, 28.229 2.972, 24 4.180 M 31 5.833 C 31 6.475, 29.988 7.052, 28.750 7.116 C 26.898 7.211, 26.828 7.317, 28.356 7.710 C 30.351 8.223, 32.811 6.478, 31.683 5.350 C 31.308 4.974, 31 5.192, 31 5.833 M 6.667 6.667 C 5.296 8.038, 6.081 9, 8.571 9 C 10.857 9, 10.976 8.833, 9.643 7.500 C 7.957 5.814, 7.615 5.718, 6.667 6.667 M 12 9 C 12 9.550, 12.900 10, 14 10 C 15.100 10, 16 9.550, 16 9 C 16 8.450, 15.100 8, 14 8 C 12.900 8, 12 8.450, 12 9 M 0.232 13 C 0.232 14.925, 0.438 15.713, 0.689 14.750 C 0.941 13.787, 0.941 12.213, 0.689 11.250 C 0.438 10.287, 0.232 11.075, 0.232 13 M 17.015 11.750 C 17.025 12.829, 17.312 13.078, 17.765 12.400 C 18.169 11.795, 19.175 11.043, 20 10.729 C 21.002 10.347, 20.753 10.132, 19.250 10.079 C 17.738 10.026, 17.005 10.574, 17.015 11.750 M 23.269 10.693 C 24.242 10.947, 25.592 10.930, 26.269 10.656 C 26.946 10.382, 26.150 10.175, 24.500 10.195 C 22.850 10.215, 22.296 10.439, 23.269 10.693 M 28.750 10.662 C 29.438 10.940, 30.563 10.940, 31.250 10.662 C 31.938 10.385, 31.375 10.158, 30 10.158 C 28.625 10.158, 28.063 10.385, 28.750 10.662 M 20.459 13.067 C 20.096 13.653, 20.014 14.348, 20.276 14.610 C 20.538 14.872, 21.019 14.392, 21.345 13.543 C 22.021 11.781, 21.445 11.471, 20.459 13.067" stroke="none" fill="black" fill-rule="evenodd"/>
</svg>