<svg xmlns="http://www.w3.org/2000/svg" width="32" height="16" viewBox="0 0 32 16" version="1.1">
	<path d="M 0 8 L 0 16 14.927 16 C 28.302 16, 29.901 15.818, 30.311 14.250 C 30.733 12.633, 30.777 12.637, 30.884 14.309 C 30.948 15.304, 31.450 15.840, 32 15.500 C 32.550 15.160, 33 11.534, 33 7.441 L 33 0 16.500 0 L 0 0 0 8 M 0.343 8.500 C 0.346 12.900, 0.522 14.576, 0.733 12.224 C 0.945 9.872, 0.942 6.272, 0.727 4.224 C 0.512 2.176, 0.339 4.100, 0.343 8.500 M 18.872 8.750 C 17.672 10.280, 17.691 10.351, 19.025 9.314 C 19.864 8.662, 22.789 7.955, 25.525 7.744 L 30.500 7.360 25.372 7.180 C 21.527 7.045, 19.902 7.438, 18.872 8.750 M 20.954 12.086 C 20.340 13.233, 20.058 14.392, 20.328 14.661 C 20.597 14.930, 21.105 14.245, 21.456 13.137 C 21.834 11.948, 23.201 10.955, 24.798 10.712 L 27.500 10.300 24.785 10.150 C 22.956 10.049, 21.706 10.680, 20.954 12.086 M 17 11.969 C 17 12.501, 17.675 12.678, 18.500 12.362 C 19.325 12.045, 20 11.609, 20 11.393 C 20 11.177, 19.325 11, 18.500 11 C 17.675 11, 17 11.436, 17 11.969 M 29.813 11.683 C 30.534 11.972, 31.397 11.936, 31.729 11.604 C 32.061 11.272, 31.471 11.036, 30.417 11.079 C 29.252 11.127, 29.015 11.364, 29.813 11.683" stroke="none" fill="black" fill-rule="evenodd"/>
</svg>