<svg xmlns="http://www.w3.org/2000/svg" width="32" height="16" viewBox="0 0 32 16" version="1.1">
	<path d="M 0 8 C 0 12.667, 0.417 16, 1 16 C 1.583 16, 2 12.667, 2 8 C 2 3.333, 1.583 0, 1 0 C 0.417 0, 0 3.333, 0 8 M 14 8 L 14 16 22.424 16 L 30.848 16 31.174 7.998 L 31.500 -0.005 22.750 -0.002 L 14 0 14 8 M 19.196 8.250 L 19.392 15.500 19.740 8.801 L 20.089 2.101 25.295 1.736 L 30.500 1.370 24.750 1.185 L 19 1 19.196 8.250 M 6.020 5.305 C 4.655 7.062, 4.318 7.882, 5.270 7.128 C 7.389 5.447, 7.427 6.041, 5.500 10.654 C 3.713 14.931, 3.706 15, 5.059 15 C 5.641 15, 5.906 14.658, 5.648 14.239 C 5.389 13.820, 5.746 12.700, 6.442 11.748 C 7.631 10.122, 7.813 10.136, 9.487 11.986 C 10.466 13.068, 11.667 13.706, 12.155 13.404 C 12.643 13.102, 12.021 11.997, 10.771 10.948 C 8.827 9.315, 8.716 8.896, 10 8.036 C 11.163 7.256, 11.195 7.027, 10.142 7.015 C 9.194 7.005, 8.973 6.245, 9.411 4.500 C 10.253 1.143, 9.025 1.434, 6.020 5.305 M 25.667 3.667 C 25.300 4.033, 25.014 5.046, 25.030 5.917 C 25.055 7.217, 25.251 7.174, 26.122 5.675 C 27.199 3.823, 26.887 2.447, 25.667 3.667 M 25 8.969 C 25 9.501, 25.675 9.678, 26.500 9.362 C 27.325 9.045, 28 8.609, 28 8.393 C 28 8.177, 27.325 8, 26.500 8 C 25.675 8, 25 8.436, 25 8.969 M 22.600 11.600 C 22.244 12.527, 22.178 13.511, 22.453 13.786 C 22.728 14.061, 23.244 13.527, 23.600 12.600 C 23.956 11.673, 24.022 10.689, 23.747 10.414 C 23.472 10.139, 22.956 10.673, 22.600 11.600 M 28 14.059 C 28 14.641, 28.450 14.840, 29 14.500 C 29.550 14.160, 30 13.684, 30 13.441 C 30 13.198, 29.550 13, 29 13 C 28.450 13, 28 13.477, 28 14.059" stroke="none" fill="black" fill-rule="evenodd"/>
</svg>