<svg xmlns="http://www.w3.org/2000/svg" width="32" height="16" viewBox="0 0 32 16" version="1.1">
	<path d="M 0 8 L 0 16 4.844 16 C 14.571 16, 31 14.675, 31 13.890 C 31 13.447, 27.513 12.931, 23.250 12.743 L 15.500 12.402 23.250 12.201 C 30.514 12.013, 31.009 11.859, 31.142 9.750 C 31.220 8.512, 31.606 9.300, 32 11.500 C 32.595 14.825, 32.740 14.192, 32.858 7.750 L 33 0 16.500 0 L 0 0 0 8 M 0.172 8 L -0.005 15.500 7.498 15.171 C 11.624 14.990, 15 14.447, 15 13.965 C 15 13.482, 11.738 12.932, 7.750 12.743 L 0.500 12.397 7.750 12.199 C 13.439 12.043, 15 11.677, 15 10.500 C 15 9.311, 13.562 9, 8.057 9 L 1.115 9 0.732 4.750 C 0.490 2.063, 0.284 3.257, 0.172 8 M 4 4.500 C 4 7.917, 4.095 8, 8 8 C 10.889 8, 12 7.583, 12 6.500 C 12 5.667, 11.111 5, 10 5 C 8.667 5, 8 4.333, 8 3 C 8 1.667, 7.333 1, 6 1 C 4.381 1, 4 1.667, 4 4.500 M 20.160 4.750 C 20.314 8.353, 20.336 8.375, 20.719 5.312 C 20.959 3.395, 21.792 1.946, 22.809 1.678 C 24.010 1.361, 23.849 1.198, 22.250 1.116 C 20.270 1.014, 20.019 1.450, 20.160 4.750 M 9 3 C 9 3.550, 9.477 4, 10.059 4 C 10.641 4, 10.840 3.550, 10.500 3 C 10.160 2.450, 9.684 2, 9.441 2 C 9.198 2, 9 2.450, 9 3 M 25.813 5.683 C 26.534 5.972, 27.397 5.936, 27.729 5.604 C 28.061 5.272, 27.471 5.036, 26.417 5.079 C 25.252 5.127, 25.015 5.364, 25.813 5.683 M 29.079 6.583 C 29.127 7.748, 29.364 7.985, 29.683 7.188 C 29.972 6.466, 29.936 5.603, 29.604 5.271 C 29.272 4.939, 29.036 5.529, 29.079 6.583 M 5.750 6.662 C 6.438 6.940, 7.563 6.940, 8.250 6.662 C 8.938 6.385, 8.375 6.158, 7 6.158 C 5.625 6.158, 5.063 6.385, 5.750 6.662 M 22.750 7.662 C 23.438 7.940, 24.563 7.940, 25.250 7.662 C 25.938 7.385, 25.375 7.158, 24 7.158 C 22.625 7.158, 22.063 7.385, 22.750 7.662" stroke="none" fill="black" fill-rule="evenodd"/>
</svg>