<svg xmlns="http://www.w3.org/2000/svg" width="32" height="16" viewBox="0 0 32 16" version="1.1">
	<path d="M 0 8.055 L 0 16.110 16.250 15.805 L 32.500 15.500 32.792 7.750 L 33.084 0 16.542 0 L 0 0 0 8.055 M 0.343 8.500 C 0.346 12.900, 0.522 14.576, 0.733 12.224 C 0.945 9.872, 0.942 6.272, 0.727 4.224 C 0.512 2.176, 0.339 4.100, 0.343 8.500 M 20 2.500 C 20 3.325, 19.325 4, 18.500 4 C 17.675 4, 17.036 4.787, 17.079 5.750 C 17.126 6.795, 17.361 6.997, 17.662 6.250 C 17.940 5.563, 18.804 5, 19.583 5 C 20.363 5, 21 4.356, 21 3.570 C 21 2.783, 22.012 1.944, 23.250 1.706 C 25.179 1.334, 25.108 1.253, 22.750 1.136 C 20.912 1.045, 20 1.497, 20 2.500 M 6.553 2.915 C 6.231 3.436, 6.394 4.125, 6.915 4.447 C 7.436 4.769, 8.125 4.606, 8.447 4.085 C 8.769 3.564, 8.606 2.875, 8.085 2.553 C 7.564 2.231, 6.875 2.394, 6.553 2.915 M 27.250 2.662 C 26.563 2.940, 26.036 4.142, 26.079 5.333 C 26.132 6.776, 26.337 6.999, 26.694 6 C 26.989 5.175, 27.939 3.938, 28.806 3.250 C 30.381 2.001, 29.610 1.710, 27.250 2.662 M 9.500 8.674 C 5.542 10.772, 5.683 10.539, 6.940 12.888 C 8.006 14.879, 8.159 14.892, 11.564 13.268 C 14.083 12.067, 15.002 11.029, 14.793 9.623 C 14.402 7, 13.101 6.767, 9.500 8.674 M 25.750 8.787 C 23.688 9.713, 22 10.824, 22 11.256 C 22 11.687, 23.800 11.122, 26 10 C 28.200 8.878, 30 7.743, 30 7.480 C 30 6.860, 30.126 6.822, 25.750 8.787 M 18.250 8.689 C 19.212 8.941, 20.788 8.941, 21.750 8.689 C 22.712 8.438, 21.925 8.232, 20 8.232 C 18.075 8.232, 17.288 8.438, 18.250 8.689 M 9 11 C 8.099 11.582, 7.975 11.975, 8.691 11.985 C 9.346 11.993, 10.160 11.550, 10.500 11 C 11.267 9.758, 10.921 9.758, 9 11 M 17.750 10.662 C 18.438 10.940, 19.563 10.940, 20.250 10.662 C 20.938 10.385, 20.375 10.158, 19 10.158 C 17.625 10.158, 17.063 10.385, 17.750 10.662 M 26 12 C 25.099 12.582, 24.975 12.975, 25.691 12.985 C 26.346 12.993, 27.160 12.550, 27.500 12 C 28.267 10.758, 27.921 10.758, 26 12 M 29 14 C 28.175 14.533, 27.950 14.969, 28.500 14.969 C 29.050 14.969, 30.175 14.533, 31 14 C 31.825 13.467, 32.050 13.031, 31.500 13.031 C 30.950 13.031, 29.825 13.467, 29 14" stroke="none" fill="black" fill-rule="evenodd"/>
</svg>