<svg xmlns="http://www.w3.org/2000/svg" width="32" height="16" viewBox="0 0 32 16" version="1.1">
	<path d="M -0 8.066 L -0 16.131 14.716 15.915 C 22.810 15.797, 30.235 15.490, 31.216 15.233 C 32.725 14.839, 33 13.627, 33 7.383 L 33 0 16.500 0 L 0 0 -0 8.066 M 0.343 8.500 C 0.346 12.900, 0.522 14.576, 0.733 12.224 C 0.945 9.872, 0.942 6.272, 0.727 4.224 C 0.512 2.176, 0.339 4.100, 0.343 8.500 M 26.469 3.500 C 26.211 4.325, 25.780 5.698, 25.511 6.552 C 25.240 7.415, 25.462 7.833, 26.011 7.493 C 26.555 7.157, 27 6.046, 27 5.024 C 27 4.003, 27.563 2.940, 28.250 2.662 C 29.229 2.267, 29.222 2.141, 28.219 2.079 C 27.514 2.036, 26.726 2.675, 26.469 3.500 M 17.638 5.500 C 17.322 6.325, 17.451 7, 17.924 7 C 18.398 7, 19.045 6.325, 19.362 5.500 C 19.678 4.675, 19.549 4, 19.076 4 C 18.602 4, 17.955 4.675, 17.638 5.500 M 20.652 7.661 C 19.635 9.023, 19 10.334, 19.241 10.575 C 19.937 11.270, 23.243 7.220, 22.853 6.150 C 22.659 5.620, 21.668 6.299, 20.652 7.661 M 26.158 12 C 26.158 13.375, 26.385 13.938, 26.662 13.250 C 26.940 12.563, 26.940 11.438, 26.662 10.750 C 26.385 10.063, 26.158 10.625, 26.158 12 M 19.500 13 C 19.160 13.550, 19.359 14, 19.941 14 C 20.523 14, 21 13.550, 21 13 C 21 12.450, 20.802 12, 20.559 12 C 20.316 12, 19.840 12.450, 19.500 13" stroke="none" fill="black" fill-rule="evenodd"/>
</svg>