<svg xmlns="http://www.w3.org/2000/svg" width="32" height="16" viewBox="0 0 32 16" version="1.1">
	<path d="M 0.314 8.022 L 0.500 16.044 16.417 15.772 L 32.333 15.500 32.590 7.750 L 32.846 -0 16.488 -0 L 0.129 -0 0.314 8.022 M 0.232 4 C 0.232 5.925, 0.438 6.713, 0.689 5.750 C 0.941 4.787, 0.941 3.212, 0.689 2.250 C 0.438 1.288, 0.232 2.075, 0.232 4 M 7.250 1.689 C 8.213 1.941, 9.787 1.941, 10.750 1.689 C 11.713 1.438, 10.925 1.232, 9 1.232 C 7.075 1.232, 6.287 1.438, 7.250 1.689 M 23.250 1.689 C 24.212 1.941, 25.788 1.941, 26.750 1.689 C 27.712 1.438, 26.925 1.232, 25 1.232 C 23.075 1.232, 22.288 1.438, 23.250 1.689 M 13 3 C 13 3.550, 13.477 4, 14.059 4 C 14.641 4, 14.840 3.550, 14.500 3 C 14.160 2.450, 13.684 2, 13.441 2 C 13.198 2, 13 2.450, 13 3 M 6 4.934 C 6 6.300, 6.807 6.960, 8.750 7.184 C 13 7.673, 12.207 12.155, 7.535 14.048 C 6.030 14.659, 6.737 14.890, 10.250 14.937 L 15 15 15 10 C 15 6.222, 14.633 5, 13.500 5 C 12.675 5, 12 4.550, 12 4 C 12 3.450, 10.650 3, 9 3 C 6.701 3, 6 3.452, 6 4.934 M 22.116 5.250 C 22.198 6.846, 22.362 7.009, 22.678 5.810 C 22.923 4.881, 24.333 3.936, 25.812 3.710 C 28.239 3.340, 28.184 3.285, 25.250 3.150 C 22.471 3.022, 22.017 3.326, 22.116 5.250 M 7.813 4.683 C 8.534 4.972, 9.397 4.936, 9.729 4.604 C 10.061 4.272, 9.471 4.036, 8.417 4.079 C 7.252 4.127, 7.015 4.364, 7.813 4.683 M 24.813 5.683 C 25.534 5.972, 26.397 5.936, 26.729 5.604 C 27.061 5.272, 26.471 5.036, 25.417 5.079 C 24.252 5.127, 24.015 5.364, 24.813 5.683 M 2.384 7.442 C 1.163 10.624, 2.448 12.496, 6.008 12.723 C 8.796 12.901, 9.097 12.764, 7.500 12.043 C 5.737 11.248, 5.856 11.118, 8.500 10.952 L 11.500 10.763 8.500 10.046 L 5.500 9.329 8.500 8.814 C 11.277 8.338, 11.217 8.289, 7.691 8.150 C 5.437 8.061, 4.134 7.592, 4.500 7 C 4.840 6.450, 4.627 6, 4.028 6 C 3.428 6, 2.688 6.649, 2.384 7.442 M 19.250 6.662 C 18.563 6.940, 18.052 8.367, 18.116 9.833 C 18.207 11.921, 18.339 12.066, 18.724 10.500 C 18.994 9.400, 19.672 7.938, 20.230 7.250 C 21.309 5.921, 21.219 5.868, 19.250 6.662 M 22.250 8.689 C 23.212 8.941, 24.788 8.941, 25.750 8.689 C 26.712 8.438, 25.925 8.232, 24 8.232 C 22.075 8.232, 21.288 8.438, 22.250 8.689 M 23.750 10.662 C 24.438 10.940, 25.563 10.940, 26.250 10.662 C 26.938 10.385, 26.375 10.158, 25 10.158 C 23.625 10.158, 23.063 10.385, 23.750 10.662 M 26.751 12.392 C 25.985 13.158, 24.490 14.006, 23.429 14.276 C 21.650 14.730, 21.663 14.777, 23.595 14.884 C 24.747 14.948, 26.505 14.100, 27.500 13 C 29.537 10.750, 28.905 10.237, 26.751 12.392 M 0.079 14.583 C 0.127 15.748, 0.364 15.985, 0.683 15.188 C 0.972 14.466, 0.936 13.603, 0.604 13.271 C 0.272 12.939, 0.036 13.529, 0.079 14.583 M 11.813 13.683 C 12.534 13.972, 13.397 13.936, 13.729 13.604 C 14.061 13.272, 13.471 13.036, 12.417 13.079 C 11.252 13.127, 11.015 13.364, 11.813 13.683 M 17.500 14 C 17.160 14.550, 17.359 15, 17.941 15 C 18.523 15, 19 14.550, 19 14 C 19 13.450, 18.802 13, 18.559 13 C 18.316 13, 17.840 13.450, 17.500 14 M 28.813 14.683 C 29.534 14.972, 30.397 14.936, 30.729 14.604 C 31.061 14.272, 30.471 14.036, 29.417 14.079 C 28.252 14.127, 28.015 14.364, 28.813 14.683" stroke="none" fill="black" fill-rule="evenodd"/>
</svg>