<svg xmlns="http://www.w3.org/2000/svg" width="32" height="16" viewBox="0 0 32 16" version="1.1">
	<path d="M 0 8 L 0 16 9 16 C 16.886 16, 18.267 15.733, 20.158 13.842 L 22.316 11.684 21.752 13.842 C 21.230 15.836, 21.560 16, 26.094 16 L 31 16 31.132 12.250 L 31.263 8.500 32 12 C 32.575 14.731, 32.766 13.798, 32.868 7.750 L 33 0 16.500 0 L 0 0 0 8 M 0.238 8.500 C 0.185 12.900, 0.464 15.679, 0.859 14.676 C 1.255 13.673, 1.898 12.885, 2.289 12.926 C 2.680 12.967, 3 12.775, 3 12.500 C 3 12.225, 2.663 12.009, 2.250 12.019 C 1.837 12.029, 1.238 9.442, 0.918 6.269 C 0.359 0.722, 0.332 0.808, 0.238 8.500 M 21 5.930 C 21 7.137, 20.157 8.023, 18.750 8.294 C 16.821 8.666, 16.892 8.747, 19.250 8.864 C 21.553 8.978, 22 8.594, 22 6.500 C 22 5.125, 21.775 4, 21.500 4 C 21.225 4, 21 4.869, 21 5.930 M 25.762 4.707 C 27.006 4.946, 28.806 4.937, 29.762 4.687 C 30.718 4.437, 29.700 4.241, 27.500 4.252 C 25.300 4.263, 24.518 4.468, 25.762 4.707 M 7 10.500 C 7 14.976, 7.019 15, 10.500 15 C 13.567 15, 14 14.690, 14 12.500 C 14 10.944, 13.433 10, 12.500 10 C 11.667 10, 11 9.111, 11 8 C 11 6.667, 10.333 6, 9 6 C 7.296 6, 7 6.667, 7 10.500 M 23.175 10.750 L 23.349 15.500 23.729 11.313 C 23.990 8.433, 24.638 6.986, 25.804 6.679 C 27.015 6.360, 26.856 6.199, 25.250 6.116 C 23.193 6.010, 23.015 6.408, 23.175 10.750 M 12 8 C 12 8.550, 12.477 9, 13.059 9 C 13.641 9, 13.840 8.550, 13.500 8 C 13.160 7.450, 12.684 7, 12.441 7 C 12.198 7, 12 7.450, 12 8 M 8.750 11.662 C 9.438 11.940, 10.563 11.940, 11.250 11.662 C 11.938 11.385, 11.375 11.158, 10 11.158 C 8.625 11.158, 8.063 11.385, 8.750 11.662 M 25.750 12.662 C 26.438 12.940, 27.563 12.940, 28.250 12.662 C 28.938 12.385, 28.375 12.158, 27 12.158 C 25.625 12.158, 25.063 12.385, 25.750 12.662" stroke="none" fill="black" fill-rule="evenodd"/>
</svg>