<svg xmlns="http://www.w3.org/2000/svg" width="32" height="16" viewBox="0 0 32 16" version="1.1">
	<path d="M 0 8 L 0 16 10.257 16 C 22.484 16, 26.740 14.966, 29.745 11.265 C 30.980 9.744, 31.992 9.083, 31.995 9.795 C 31.998 10.508, 30.865 12.226, 29.477 13.614 L 26.954 16.137 29.727 15.819 C 32.462 15.504, 32.504 15.395, 32.792 7.750 L 33.084 0 16.542 0 L 0 0 0 8 M 0.343 8.500 C 0.346 12.900, 0.522 14.576, 0.733 12.224 C 0.945 9.872, 0.942 6.272, 0.727 4.224 C 0.512 2.176, 0.339 4.100, 0.343 8.500 M 19.661 3.823 C 18.747 4.832, 18.052 6.747, 18.116 8.079 C 18.215 10.136, 18.305 10.199, 18.719 8.500 C 18.987 7.400, 19.907 5.710, 20.764 4.744 C 21.620 3.778, 22.096 2.763, 21.821 2.488 C 21.546 2.213, 20.574 2.813, 19.661 3.823 M 25.160 4.168 C 25.072 5.636, 24.709 7.661, 24.353 8.668 C 23.857 10.073, 23.990 10.238, 24.926 9.377 C 25.611 8.747, 25.965 6.773, 25.733 4.877 C 25.397 2.132, 25.290 1.999, 25.160 4.168 M 31 3.930 C 31 5.137, 30.157 6.023, 28.750 6.294 C 26.821 6.666, 26.892 6.747, 29.250 6.864 C 31.553 6.978, 32 6.594, 32 4.500 C 32 3.125, 31.775 2, 31.500 2 C 31.225 2, 31 2.869, 31 3.930" stroke="none" fill="black" fill-rule="evenodd"/>
</svg>