<svg xmlns="http://www.w3.org/2000/svg" width="16" height="16" viewBox="0 0 16 16" version="1.1">
	<path d="M 0 8.040 L 0 16.081 8.250 15.790 L 16.500 15.500 16.792 7.750 L 17.084 0 8.542 0 L 0 0 0 8.040 M 0.136 8.750 C 0.211 13.013, 0.457 15.375, 0.683 14 C 1.352 9.933, 4.305 4.881, 5.195 6.281 C 6.291 8.005, 6.183 9.231, 5 8.500 C 4.450 8.160, 4 8.411, 4 9.058 C 4 10.185, 4.434 10.132, 10.406 8.277 C 11.696 7.876, 12.081 8.059, 11.597 8.842 C 11.144 9.576, 11.636 10, 12.941 10 C 14.715 10, 15 9.376, 15 5.500 L 15 1 7.500 1 L 0 1 0.136 8.750" stroke="none" fill="black" fill-rule="evenodd"/>
</svg>