<svg xmlns="http://www.w3.org/2000/svg" width="32" height="16" viewBox="0 0 32 16" version="1.1">
	<path d="M 2.174 2.314 C 0.466 4.133, 0 5.853, 0 10.339 L 0 16.050 16.250 15.775 L 32.500 15.500 32.819 11.023 C 32.994 8.560, 32.861 5.072, 32.523 3.273 L 31.909 0 18.129 0 C 5.018 0, 4.243 0.112, 2.174 2.314 M 3.141 2.259 C 1.658 3.742, 1.685 6.285, 3.200 7.800 C 4.645 9.245, 6.367 9.403, 5.507 8.011 C 5.140 7.418, 5.616 7.293, 6.698 7.699 C 8.334 8.312, 8.365 8.196, 7.030 6.437 C 6.068 5.170, 6.501 5.338, 8.280 6.924 C 11.665 9.942, 11.872 8.520, 8.552 5.055 L 6.105 2.500 8.467 2.500 C 10.094 2.500, 10.541 2.848, 9.903 3.617 C 9.307 4.335, 9.516 5.183, 10.488 5.990 C 12.161 7.378, 12.534 10, 11.059 10 C 10.541 10, 9.839 9.549, 9.498 8.997 C 8.395 7.213, 5 9.883, 5 12.535 C 5 14.826, 5.352 15, 10 15 L 15 15 15 10 C 15 6.222, 14.633 5, 13.500 5 C 12.675 5, 12 4.196, 12 3.212 C 12 1.831, 11.123 1.390, 8.141 1.271 C 6.019 1.186, 3.769 1.631, 3.141 2.259 M 19.200 2.200 C 18.540 2.860, 18.029 4.322, 18.063 5.450 C 18.123 7.370, 18.185 7.356, 19.040 5.226 C 19.542 3.976, 20.976 2.542, 22.226 2.040 C 24.356 1.185, 24.370 1.123, 22.450 1.063 C 21.322 1.029, 19.860 1.540, 19.200 2.200 M 25.507 1.989 C 25.157 2.555, 25.558 2.723, 26.448 2.382 C 28.180 1.717, 28.497 1, 27.059 1 C 26.541 1, 25.843 1.445, 25.507 1.989 M 13 3 C 13 3.550, 13.477 4, 14.059 4 C 14.641 4, 14.840 3.550, 14.500 3 C 14.160 2.450, 13.684 2, 13.441 2 C 13.198 2, 13 2.450, 13 3 M 26 4 C 25.099 4.582, 24.975 4.975, 25.691 4.985 C 26.346 4.993, 27.160 4.550, 27.500 4 C 28.267 2.758, 27.921 2.758, 26 4 M 0.320 10 C 0.320 13.575, 0.502 15.038, 0.723 13.250 C 0.945 11.462, 0.945 8.538, 0.723 6.750 C 0.502 4.962, 0.320 6.425, 0.320 10 M 27.638 9.500 C 27.322 10.325, 27.499 11, 28.031 11 C 28.564 11, 29 10.325, 29 9.500 C 29 8.675, 28.823 8, 28.607 8 C 28.391 8, 27.955 8.675, 27.638 9.500 M 22.250 9.662 C 21.563 9.940, 21.052 11.367, 21.116 12.833 C 21.205 14.887, 21.340 15.040, 21.700 13.500 C 21.958 12.400, 22.892 10.938, 23.775 10.250 C 25.379 9.002, 24.615 8.708, 22.250 9.662 M 6.813 13.683 C 7.534 13.972, 8.397 13.936, 8.729 13.604 C 9.061 13.272, 8.471 13.036, 7.417 13.079 C 6.252 13.127, 6.015 13.364, 6.813 13.683 M 23.813 14.683 C 24.534 14.972, 25.397 14.936, 25.729 14.604 C 26.061 14.272, 25.471 14.036, 24.417 14.079 C 23.252 14.127, 23.015 14.364, 23.813 14.683" stroke="none" fill="black" fill-rule="evenodd"/>
</svg>