<svg xmlns="http://www.w3.org/2000/svg" width="32" height="16" viewBox="0 0 32 16" version="1.1">
	<path d="M 0 8.068 L 0 16.137 16.250 15.818 L 32.500 15.500 32.792 7.750 L 33.084 0 16.542 0 L 0 0 0 8.068 M 0 8.500 C 0 12.808, 0.229 16.104, 0.510 15.824 C 1.245 15.088, 1.336 2.003, 0.610 1.277 C 0.275 0.941, 0 4.192, 0 8.500 M 4.557 3.223 C 2.634 5.967, 2.588 7, 4.387 7 C 5.163 7, 5.967 5.679, 6.213 4 C 6.740 0.411, 6.579 0.335, 4.557 3.223 M 23.731 2.920 C 23.296 4.583, 23.426 4.974, 24.168 4.232 C 24.750 3.650, 25.028 2.585, 24.788 1.863 C 24.538 1.114, 24.085 1.568, 23.731 2.920 M 21.080 3.403 C 19.531 5.270, 17.831 11.223, 19.064 10.460 C 19.579 10.142, 20 9.109, 20 8.163 C 20 7.218, 20.701 5.445, 21.557 4.223 C 23.272 1.774, 22.926 1.179, 21.080 3.403 M 8.250 4.684 C 7.563 5.886, 7.032 7.461, 7.070 8.184 C 7.109 8.908, 7.527 8.600, 8 7.500 C 8.609 6.082, 8.880 5.951, 8.930 7.050 C 8.968 7.902, 8.503 9.097, 7.896 9.704 C 7.128 10.472, 7.104 11.364, 7.818 12.639 C 8.752 14.309, 8.901 14.241, 9.495 11.874 C 9.854 10.446, 10.002 7.752, 9.824 5.888 C 9.513 2.640, 9.448 2.590, 8.250 4.684 M 27.175 7.668 C 27.079 9.961, 26.741 12.661, 26.424 13.668 C 25.884 15.389, 25.917 15.394, 26.981 13.737 C 27.604 12.768, 27.942 10.068, 27.732 7.737 L 27.349 3.500 27.175 7.668 M 29.872 5.750 C 28.629 7.336, 28.664 7.371, 30.250 6.128 C 31.212 5.373, 32 4.585, 32 4.378 C 32 3.555, 31.179 4.084, 29.872 5.750 M 23.079 7.583 C 23.127 8.748, 23.364 8.985, 23.683 8.188 C 23.972 7.466, 23.936 6.603, 23.604 6.271 C 23.272 5.939, 23.036 6.529, 23.079 7.583 M 25.079 8.250 C 25.036 9.213, 24.550 10, 24 10 C 23.450 10, 23 10.546, 23 11.214 C 23 12.001, 23.569 11.859, 24.616 10.813 C 25.505 9.924, 25.990 8.590, 25.695 7.848 C 25.327 6.925, 25.133 7.052, 25.079 8.250 M 3.812 8.683 C 4.534 8.972, 5.397 8.936, 5.729 8.604 C 6.061 8.272, 5.471 8.036, 4.417 8.079 C 3.252 8.127, 3.015 8.364, 3.812 8.683 M 29.813 8.683 C 30.534 8.972, 31.397 8.936, 31.729 8.604 C 32.061 8.272, 31.471 8.036, 30.417 8.079 C 29.252 8.127, 29.015 8.364, 29.813 8.683" stroke="none" fill="black" fill-rule="evenodd"/>
</svg>