<svg xmlns="http://www.w3.org/2000/svg" width="32" height="16" viewBox="0 0 32 16" version="1.1">
	<path d="M 0 2 C 0 3.111, 0.667 4, 1.500 4 C 2.433 4, 3 4.944, 3 6.500 C 3 8.333, 3.533 9, 5 9 C 6.100 9, 7 9.450, 7 10 C 7 10.946, 4.306 11.430, 1 11.077 C -0.333 10.934, -0.333 11.031, 1 11.943 C 2.303 12.835, 2.307 12.971, 1.027 12.985 C 0.041 12.995, 0.285 13.511, 1.767 14.549 C 3.567 15.810, 6.627 16.043, 18.213 15.799 L 32.447 15.500 32.527 10.750 C 32.582 7.472, 32.203 6, 31.304 6 C 30.587 6, 30 6.675, 30 7.500 C 30 8.325, 29.564 9, 29.031 9 C 27.606 9, 29.081 5.707, 31.184 4.193 C 32.183 3.475, 33 2.237, 33 1.443 C 33 0.244, 30.212 0, 16.500 0 C 0.667 0, 0 0.081, 0 2 M 0.079 2.583 C 0.127 3.748, 0.364 3.985, 0.683 3.188 C 0.972 2.466, 0.936 1.603, 0.604 1.271 C 0.272 0.939, 0.036 1.529, 0.079 2.583 M 4 7 C 4 7.550, 4.477 8, 5.059 8 C 5.641 8, 5.840 7.550, 5.500 7 C 5.160 6.450, 4.684 6, 4.441 6 C 4.198 6, 4 6.450, 4 7 M 25.183 7.217 C 24.532 7.868, 24.003 9.322, 24.006 10.450 C 24.011 12.146, 24.274 11.999, 25.524 9.601 C 27.182 6.423, 27.031 5.369, 25.183 7.217 M 20.813 9.683 C 21.534 9.972, 22.397 9.936, 22.729 9.604 C 23.061 9.272, 22.471 9.036, 21.417 9.079 C 20.252 9.127, 20.015 9.364, 20.813 9.683 M 28.750 13.167 C 27.788 14.175, 27.395 15, 27.878 15 C 28.886 15, 31.483 12.108, 30.893 11.643 C 30.677 11.472, 29.712 12.158, 28.750 13.167 M 3 13.500 C 3 14.333, 3.889 15, 5 15 C 6.111 15, 7 14.333, 7 13.500 C 7 12.667, 6.111 12, 5 12 C 3.889 12, 3 12.667, 3 13.500 M 19.459 13.067 C 19.096 13.653, 19.070 14.403, 19.400 14.733 C 19.730 15.063, 20 14.841, 20 14.240 C 20 13.639, 20.788 12.941, 21.750 12.689 C 23.328 12.277, 23.334 12.221, 21.809 12.116 C 20.879 12.052, 19.821 12.480, 19.459 13.067" stroke="none" fill="black" fill-rule="evenodd"/>
</svg>