<svg xmlns="http://www.w3.org/2000/svg" width="32" height="16" viewBox="0 0 32 16" version="1.1">
	<path d="M 0 8.055 L 0 16.110 16.250 15.805 L 32.500 15.500 32.792 7.750 L 33.084 0 16.542 0 L 0 0 0 8.055 M 0.343 8.500 C 0.346 12.900, 0.522 14.576, 0.733 12.224 C 0.945 9.872, 0.942 6.272, 0.727 4.224 C 0.512 2.176, 0.339 4.100, 0.343 8.500 M 4.882 5.118 C 3.318 6.682, 3.086 7.435, 3.995 7.997 C 4.956 8.591, 4.940 8.853, 3.926 9.191 C 3.003 9.499, 3.296 10.296, 4.931 11.931 C 6.619 13.619, 7.440 13.906, 7.997 13.005 C 8.591 12.044, 8.853 12.060, 9.191 13.074 C 9.499 13.997, 10.296 13.704, 11.931 12.069 C 13.619 10.381, 13.906 9.560, 13.005 9.003 C 12.044 8.409, 12.060 8.147, 13.074 7.809 C 13.986 7.505, 13.647 6.647, 11.938 4.938 L 9.500 2.500 8.900 7 C 8.570 9.475, 8.233 10.860, 8.150 10.079 C 8.068 9.297, 7.213 7.730, 6.250 6.596 C 4.583 4.633, 4.583 4.599, 6.250 5.890 C 7.793 7.084, 8 6.993, 8 5.122 C 8 2.467, 7.533 2.467, 4.882 5.118 M 19.807 4.750 C 18.127 6.706, 16.717 9, 17.194 9 C 17.366 9, 18.781 7.650, 20.338 6 C 21.895 4.350, 22.751 3, 22.240 3 C 21.728 3, 20.634 3.788, 19.807 4.750 M 24.079 7.750 C 24.166 12.978, 24.651 12.555, 25.227 6.750 C 25.431 4.688, 25.239 3, 24.799 3 C 24.360 3, 24.036 5.138, 24.079 7.750 M 29.296 11.636 C 28.084 13.486, 27.511 15, 28.023 15 C 29.233 15, 32.291 10.333, 31.844 9.168 C 31.655 8.675, 30.508 9.786, 29.296 11.636" stroke="none" fill="black" fill-rule="evenodd"/>
</svg>