<svg xmlns="http://www.w3.org/2000/svg" width="32" height="16" viewBox="0 0 32 16" version="1.1">
	<path d="M 0 8.025 L 0 16.050 16.250 15.775 L 32.500 15.500 32.792 7.750 L 33.084 0 16.542 0 L 0 0 0 8.025 M 0.343 8.500 C 0.346 12.900, 0.522 14.576, 0.733 12.224 C 0.945 9.872, 0.942 6.272, 0.727 4.224 C 0.512 2.176, 0.339 4.100, 0.343 8.500 M 22.250 2.689 C 23.212 2.941, 24.788 2.941, 25.750 2.689 C 26.712 2.438, 25.925 2.232, 24 2.232 C 22.075 2.232, 21.288 2.438, 22.250 2.689 M 29.158 4 C 29.158 5.375, 29.385 5.938, 29.662 5.250 C 29.940 4.563, 29.940 3.438, 29.662 2.750 C 29.385 2.063, 29.158 2.625, 29.158 4 M 23 10.500 C 21.708 11.875, 21.101 13, 21.651 13 C 22.201 13, 23.708 11.875, 25 10.500 C 26.292 9.125, 26.899 8, 26.349 8 C 25.799 8, 24.292 9.125, 23 10.500 M 29 12.448 C 29 13.481, 27.497 14.001, 23.750 14.263 L 18.500 14.630 24.250 14.815 C 29.395 14.981, 30 14.790, 30 13 C 30 11.900, 29.775 11, 29.500 11 C 29.225 11, 29 11.651, 29 12.448" stroke="none" fill="black" fill-rule="evenodd"/>
</svg>