<svg xmlns="http://www.w3.org/2000/svg" width="32" height="16" viewBox="0 0 32 16" version="1.1">
	<path d="M 0 8 L 0 16 4.343 16 C 6.732 16, 14.157 15.706, 20.843 15.346 L 33 14.693 33 7.346 L 33 0 16.500 0 L 0 0 0 8 M 0.079 8.711 C 0.122 12.995, 0.385 15.938, 0.662 15.250 C 0.998 14.419, 3.486 14, 8.083 14 L 15 14 15 9.500 L 15 5 7.750 4.985 C 3.762 4.976, 1.013 4.639, 1.639 4.235 C 2.465 3.702, 2.396 3.145, 1.389 2.211 C 0.212 1.118, 0.012 2.108, 0.079 8.711 M 17.175 9.750 L 17.349 14.500 17.730 10.294 L 18.111 6.089 24.805 5.740 L 31.500 5.392 24.250 5.196 L 17 5 17.175 9.750 M 11.813 6.683 C 12.534 6.972, 13.397 6.936, 13.729 6.604 C 14.061 6.272, 13.471 6.036, 12.417 6.079 C 11.252 6.127, 11.015 6.364, 11.813 6.683 M 28.813 7.683 C 29.534 7.972, 30.397 7.936, 30.729 7.604 C 31.061 7.272, 30.471 7.036, 29.417 7.079 C 28.252 7.127, 28.015 7.364, 28.813 7.683 M 11.813 8.683 C 12.534 8.972, 13.397 8.936, 13.729 8.604 C 14.061 8.272, 13.471 8.036, 12.417 8.079 C 11.252 8.127, 11.015 8.364, 11.813 8.683 M 28.813 9.683 C 29.534 9.972, 30.397 9.936, 30.729 9.604 C 31.061 9.272, 30.471 9.036, 29.417 9.079 C 28.252 9.127, 28.015 9.364, 28.813 9.683 M 11.813 10.683 C 12.534 10.972, 13.397 10.936, 13.729 10.604 C 14.061 10.272, 13.471 10.036, 12.417 10.079 C 11.252 10.127, 11.015 10.364, 11.813 10.683 M 28.813 11.683 C 29.534 11.972, 30.397 11.936, 30.729 11.604 C 31.061 11.272, 30.471 11.036, 29.417 11.079 C 28.252 11.127, 28.015 11.364, 28.813 11.683 M 11.813 12.683 C 12.534 12.972, 13.397 12.936, 13.729 12.604 C 14.061 12.272, 13.471 12.036, 12.417 12.079 C 11.252 12.127, 11.015 12.364, 11.813 12.683 M 28.813 13.683 C 29.534 13.972, 30.397 13.936, 30.729 13.604 C 31.061 13.272, 30.471 13.036, 29.417 13.079 C 28.252 13.127, 28.015 13.364, 28.813 13.683" stroke="none" fill="black" fill-rule="evenodd"/>
</svg>