<svg xmlns="http://www.w3.org/2000/svg" width="16" height="16" viewBox="0 0 16 16" version="1.1">
	<path d="M 0 8.040 L 0 16.081 8.250 15.790 L 16.500 15.500 16.792 7.750 L 17.084 0 8.542 0 L 0 0 0 8.040 M 0.343 8.500 C 0.346 12.900, 0.522 14.576, 0.733 12.224 C 0.945 9.872, 0.942 6.272, 0.727 4.224 C 0.512 2.176, 0.339 4.100, 0.343 8.500 M 3.667 3.667 C 1.136 6.197, 6.809 14.003, 11.173 13.996 C 13.313 13.993, 13.243 13.836, 10.304 12.044 C 6.863 9.946, 3.328 5.338, 4.365 4.302 C 4.714 3.953, 5 4.176, 5 4.799 C 5 6.553, 10.734 12, 12.581 12 C 14.083 12, 14.073 11.760, 12.462 9.301 C 11.253 7.457, 11.059 6.480, 11.847 6.218 C 13.673 5.609, 13.186 2.998, 11.250 3.015 C 9.910 3.027, 9.812 3.229, 10.834 3.876 C 11.938 4.576, 11.931 4.812, 10.792 5.250 C 10.035 5.540, 8.562 5.153, 7.517 4.389 C 5.393 2.835, 4.639 2.694, 3.667 3.667 M 3.429 12.833 C 3.429 13.842, 3.983 14.667, 4.660 14.667 C 5.545 14.667, 5.615 14.150, 4.911 12.833 C 4.371 11.825, 3.817 11, 3.679 11 C 3.541 11, 3.429 11.825, 3.429 12.833" stroke="none" fill="black" fill-rule="evenodd"/>
</svg>