<svg xmlns="http://www.w3.org/2000/svg" width="32" height="16" viewBox="0 0 32 16" version="1.1">
	<path d="M 0 8 L 0 16 14.952 16 L 29.905 16 30.260 9.750 L 30.615 3.500 30.807 9.809 C 31.081 18.762, 33 16.690, 33 7.441 L 33 0 16.500 0 L 0 0 0 8 M 0.343 8.500 C 0.346 12.900, 0.522 14.576, 0.733 12.224 C 0.945 9.872, 0.942 6.272, 0.727 4.224 C 0.512 2.176, 0.339 4.100, 0.343 8.500 M 3.750 1.706 C 4.988 1.944, 7.012 1.944, 8.250 1.706 C 9.488 1.467, 8.475 1.272, 6 1.272 C 3.525 1.272, 2.512 1.467, 3.750 1.706 M 19.750 1.706 C 20.988 1.944, 23.012 1.944, 24.250 1.706 C 25.488 1.467, 24.475 1.272, 22 1.272 C 19.525 1.272, 18.512 1.467, 19.750 1.706 M 11 3 C 11 3.550, 11.477 4, 12.059 4 C 12.641 4, 12.840 3.550, 12.500 3 C 12.160 2.450, 11.684 2, 11.441 2 C 11.198 2, 11 2.450, 11 3 M 2 9 L 2 15 7.500 15 L 13 15 13 10 C 13 5.961, 12.673 5, 11.300 5 C 9.978 5, 9.867 5.267, 10.800 6.200 C 12.343 7.743, 12.343 11.257, 10.800 12.800 C 7.995 15.605, 3 13.492, 3 9.500 C 3 6.756, 4.834 5, 7.700 5 C 8.965 5, 10 4.550, 10 4 C 10 3.450, 8.200 3, 6 3 L 2 3 2 9 M 18.189 9.250 L 18.378 15.500 18.737 9.807 L 19.096 4.115 22.798 3.726 L 26.500 3.336 22.250 3.168 L 18 3 18.189 9.250 M 4.384 7.442 C 3.210 10.500, 4.447 12.500, 7.514 12.500 C 10.146 12.500, 10.500 12.154, 10.500 9.583 C 10.500 7.979, 9.938 6.479, 9.250 6.250 C 7.617 5.706, 7.617 8.679, 9.250 9.338 C 9.997 9.639, 9.795 9.874, 8.750 9.921 C 7.640 9.971, 7 9.268, 7 8 C 7 5.693, 5.202 5.309, 4.384 7.442 M 21.200 7.200 C 20.540 7.860, 20.052 9.322, 20.116 10.450 C 20.230 12.458, 20.242 12.459, 20.724 10.500 C 20.994 9.400, 21.672 7.938, 22.230 7.250 C 23.525 5.655, 22.781 5.619, 21.200 7.200 M 24 7.500 C 24 8.325, 24.177 9, 24.393 9 C 24.609 9, 25.045 8.325, 25.362 7.500 C 25.678 6.675, 25.501 6, 24.969 6 C 24.436 6, 24 6.675, 24 7.500 M 27.932 10.495 C 27.590 12.870, 26.878 13.622, 24.500 14.127 C 21.612 14.740, 21.598 14.768, 24.128 14.882 C 27.340 15.026, 29.287 12.892, 28.759 9.805 C 28.416 7.802, 28.308 7.892, 27.932 10.495 M 24.813 10.683 C 25.534 10.972, 26.397 10.936, 26.729 10.604 C 27.061 10.272, 26.471 10.036, 25.417 10.079 C 24.252 10.127, 24.015 10.364, 24.813 10.683" stroke="none" fill="black" fill-rule="evenodd"/>
</svg>