<svg xmlns="http://www.w3.org/2000/svg" width="32" height="16" viewBox="0 0 32 16" version="1.1">
	<path d="M 0 8 L 0 16 3.059 16 C 4.844 16, 5.861 15.583, 5.500 15 C 5.160 14.450, 4.260 14, 3.500 14 C 2.740 14, 1.871 13.601, 1.570 13.113 C 1.268 12.625, 1.804 12.288, 2.761 12.363 C 3.844 12.448, 4.448 11.844, 4.363 10.761 C 4.288 9.804, 4.625 9.268, 5.113 9.570 C 5.601 9.871, 6 10.936, 6 11.937 C 6 15.124, 8.456 16.099, 15.841 15.845 C 19.709 15.712, 22.733 15.355, 22.562 15.052 C 22.390 14.748, 22.637 13.600, 23.109 12.500 C 23.870 10.727, 23.941 10.783, 23.734 13 C 23.554 14.919, 24.023 15.574, 25.750 15.820 C 27.507 16.069, 28.022 15.631, 28.100 13.820 C 28.192 11.680, 28.250 11.657, 28.850 13.515 C 29.207 14.624, 30.175 15.524, 31 15.515 C 32.178 15.503, 32.563 13.834, 32.792 7.750 L 33.084 0 16.542 0 L 0 0 0 8 M 0.343 8.500 C 0.346 12.900, 0.522 14.576, 0.733 12.224 C 0.945 9.872, 0.942 6.272, 0.727 4.224 C 0.512 2.176, 0.339 4.100, 0.343 8.500 M 22.431 3.267 C 19.365 6.575, 18.442 8.361, 20.111 7.754 C 20.875 7.477, 22.625 8.267, 24 9.511 C 25.896 11.227, 26.983 11.554, 28.500 10.866 C 30.392 10.008, 30.382 9.981, 28.328 10.365 C 26.884 10.636, 25.228 9.804, 23.391 7.886 C 20.124 4.476, 21.247 4.014, 24.936 7.250 L 27.500 9.500 25.177 6.858 L 22.854 4.216 25.150 2.608 C 26.624 1.575, 26.918 1.006, 25.973 1.017 C 25.163 1.027, 23.569 2.039, 22.431 3.267 M 29.252 5.500 C 29.263 7.700, 29.468 8.482, 29.707 7.238 C 29.946 5.994, 29.937 4.194, 29.687 3.238 C 29.437 2.282, 29.241 3.300, 29.252 5.500 M 30.607 11.582 C 29.814 13.647, 29.841 14, 30.787 14 C 31.220 14, 31.642 13.100, 31.725 12 C 31.906 9.596, 31.436 9.420, 30.607 11.582 M 20.211 12.601 C 19.501 13.370, 19.362 14, 19.902 14 C 20.940 14, 22.443 12.098, 21.850 11.534 C 21.658 11.351, 20.920 11.831, 20.211 12.601" stroke="none" fill="black" fill-rule="evenodd"/>
</svg>