<svg xmlns="http://www.w3.org/2000/svg" width="32" height="16" viewBox="0 0 32 16" version="1.1">
	<path d="M 0 8 L 0 16 13.943 16 L 27.885 16 28.268 11.750 L 28.651 7.500 28.825 11.823 C 28.968 15.352, 29.322 16.085, 30.750 15.812 C 32.206 15.535, 32.549 14.177, 32.792 7.739 L 33.084 0 16.542 0 L 0 0 0 8 M 0.343 8.500 C 0.346 12.900, 0.522 14.576, 0.733 12.224 C 0.945 9.872, 0.942 6.272, 0.727 4.224 C 0.512 2.176, 0.339 4.100, 0.343 8.500 M 22.813 1.683 C 23.534 1.972, 24.397 1.936, 24.729 1.604 C 25.061 1.272, 24.471 1.036, 23.417 1.079 C 22.252 1.127, 22.015 1.364, 22.813 1.683 M 3.750 3.662 C 4.438 3.940, 5.563 3.940, 6.250 3.662 C 6.938 3.385, 6.375 3.158, 5 3.158 C 3.625 3.158, 3.063 3.385, 3.750 3.662 M 21.264 3.718 C 22.784 3.947, 25.034 3.941, 26.264 3.704 C 27.494 3.467, 26.250 3.279, 23.500 3.286 C 20.750 3.294, 19.744 3.488, 21.264 3.718 M 28.600 4.600 C 28.244 5.527, 28.178 6.511, 28.453 6.786 C 28.728 7.061, 29.244 6.527, 29.600 5.600 C 29.956 4.673, 30.022 3.689, 29.747 3.414 C 29.472 3.139, 28.956 3.673, 28.600 4.600 M 20.300 10 C 20.300 13.025, 20.487 14.263, 20.716 12.750 C 20.945 11.238, 20.945 8.763, 20.716 7.250 C 20.487 5.738, 20.300 6.975, 20.300 10 M 22.300 10 C 22.300 13.025, 22.487 14.263, 22.716 12.750 C 22.945 11.238, 22.945 8.763, 22.716 7.250 C 22.487 5.738, 22.300 6.975, 22.300 10 M 24.300 10 C 24.300 13.025, 24.487 14.263, 24.716 12.750 C 24.945 11.238, 24.945 8.763, 24.716 7.250 C 24.487 5.738, 24.300 6.975, 24.300 10 M 26.300 10 C 26.300 13.025, 26.487 14.263, 26.716 12.750 C 26.945 11.238, 26.945 8.763, 26.716 7.250 C 26.487 5.738, 26.300 6.975, 26.300 10 M 4.286 10.500 C 4.294 13.250, 4.488 14.256, 4.718 12.736 C 4.947 11.216, 4.941 8.966, 4.704 7.736 C 4.467 6.506, 4.279 7.750, 4.286 10.500 M 6.272 10 C 6.272 12.475, 6.467 13.488, 6.706 12.250 C 6.944 11.012, 6.944 8.988, 6.706 7.750 C 6.467 6.512, 6.272 7.525, 6.272 10" stroke="none" fill="black" fill-rule="evenodd"/>
</svg>