<svg xmlns="http://www.w3.org/2000/svg" width="32" height="16" viewBox="0 0 32 16" version="1.1">
	<path d="M 0 8 L 0 16 14.048 16 L 28.097 16 29.509 12.750 C 30.286 10.963, 30.939 10.092, 30.961 10.816 C 30.982 11.539, 30.513 13.042, 29.917 14.155 C 28.998 15.871, 29.112 16.125, 30.667 15.828 C 32.225 15.531, 32.544 14.316, 32.792 7.739 L 33.084 0 16.542 0 L 0 0 0 8 M 0.343 8.500 C 0.346 12.900, 0.522 14.576, 0.733 12.224 C 0.945 9.872, 0.942 6.272, 0.727 4.224 C 0.512 2.176, 0.339 4.100, 0.343 8.500 M 22.813 2.683 C 23.534 2.972, 24.397 2.936, 24.729 2.604 C 25.061 2.272, 24.471 2.036, 23.417 2.079 C 22.252 2.127, 22.015 2.364, 22.813 2.683 M 3.750 4.662 C 4.438 4.940, 5.563 4.940, 6.250 4.662 C 6.938 4.385, 6.375 4.158, 5 4.158 C 3.625 4.158, 3.063 4.385, 3.750 4.662 M 21.264 4.718 C 22.784 4.947, 25.034 4.941, 26.264 4.704 C 27.494 4.467, 26.250 4.279, 23.500 4.286 C 20.750 4.294, 19.744 4.488, 21.264 4.718 M 29.158 6 C 29.158 7.375, 29.385 7.938, 29.662 7.250 C 29.940 6.563, 29.940 5.438, 29.662 4.750 C 29.385 4.063, 29.158 4.625, 29.158 6 M 2.607 7.582 C 1.685 9.985, 1.868 11.437, 3.350 13.463 C 4.550 15.105, 4.688 14.795, 4.600 10.655 C 4.499 5.931, 3.708 4.712, 2.607 7.582 M 5.685 8.097 C 5.383 9.251, 5.527 11.163, 6.005 12.347 C 6.704 14.082, 6.886 13.674, 6.937 10.250 C 7.006 5.615, 6.542 4.818, 5.685 8.097 M 18.560 8.618 C 17.638 12.292, 18.369 12.511, 19.708 8.962 C 20.323 7.333, 20.464 6, 20.022 6 C 19.579 6, 18.921 7.178, 18.560 8.618 M 22.079 7.583 C 22.127 8.748, 22.364 8.985, 22.683 8.188 C 22.972 7.466, 22.936 6.603, 22.604 6.271 C 22.272 5.939, 22.036 6.529, 22.079 7.583 M 24.286 10.500 C 24.294 13.250, 24.488 14.256, 24.718 12.736 C 24.947 11.216, 24.941 8.966, 24.704 7.736 C 24.467 6.506, 24.279 7.750, 24.286 10.500 M 26 7.059 C 26 7.641, 26.450 7.840, 27 7.500 C 27.550 7.160, 28 6.684, 28 6.441 C 28 6.198, 27.550 6, 27 6 C 26.450 6, 26 6.477, 26 7.059 M 8.400 9.469 C 8.400 10.790, 8.720 11.673, 9.111 11.431 C 9.867 10.964, 9.724 8.391, 8.896 7.562 C 8.623 7.290, 8.400 8.148, 8.400 9.469 M 27.116 10.168 C 27.052 11.086, 26.741 12.661, 26.424 13.668 C 25.879 15.404, 25.909 15.407, 26.992 13.719 C 27.620 12.739, 27.931 11.164, 27.683 10.219 C 27.277 8.670, 27.221 8.665, 27.116 10.168" stroke="none" fill="black" fill-rule="evenodd"/>
</svg>