<svg xmlns="http://www.w3.org/2000/svg" width="32" height="16" viewBox="0 0 32 16" version="1.1">
	<path d="M 0 8.025 L 0 16.050 16.250 15.775 L 32.500 15.500 32.792 7.750 L 33.084 0 16.542 0 L 0 0 0 8.025 M 0 8.500 C 0 12.808, 0.275 16.059, 0.610 15.723 C 1.336 14.997, 1.245 1.912, 0.510 1.176 C 0.229 0.896, 0 4.192, 0 8.500 M 2.643 6.202 C 1.706 9.701, 1.825 9.992, 4.250 10.100 C 6.391 10.195, 6.378 10.234, 4 10.915 L 1.500 11.631 4.109 12.150 C 6.592 12.644, 6.714 12.471, 6.609 8.599 C 6.483 3.915, 3.705 2.235, 2.643 6.202 M 8.525 4.960 C 8.199 5.487, 8.035 7.450, 8.161 9.321 C 8.364 12.337, 8.649 12.653, 10.676 12.111 C 13.280 11.415, 13.397 11.086, 12.496 6.983 C 11.861 4.091, 9.732 3.006, 8.525 4.960 M 19.589 4.856 C 19.298 5.327, 18.594 7.014, 18.024 8.606 C 17.062 11.295, 17.095 11.363, 18.494 9.559 C 19.322 8.491, 20 7.066, 20 6.392 C 20 5.718, 20.563 4.940, 21.250 4.662 C 22.151 4.299, 22.168 4.136, 21.309 4.079 C 20.654 4.036, 19.880 4.385, 19.589 4.856 M 25.046 5.445 C 24.386 6.240, 24.045 7.927, 24.287 9.195 C 24.685 11.275, 24.741 11.236, 24.864 8.800 C 24.939 7.315, 25.788 5.641, 26.750 5.080 C 27.712 4.519, 27.993 4.047, 27.372 4.030 C 26.752 4.014, 25.705 4.650, 25.046 5.445 M 3.812 8.683 C 4.534 8.972, 5.397 8.936, 5.729 8.604 C 6.061 8.272, 5.471 8.036, 4.417 8.079 C 3.252 8.127, 3.015 8.364, 3.812 8.683 M 9.813 8.683 C 10.534 8.972, 11.397 8.936, 11.729 8.604 C 12.061 8.272, 11.471 8.036, 10.417 8.079 C 9.252 8.127, 9.015 8.364, 9.813 8.683 M 20.813 9.683 C 21.534 9.972, 22.397 9.936, 22.729 9.604 C 23.061 9.272, 22.471 9.036, 21.417 9.079 C 20.252 9.127, 20.015 9.364, 20.813 9.683 M 26.813 9.683 C 27.534 9.972, 28.397 9.936, 28.729 9.604 C 29.061 9.272, 28.471 9.036, 27.417 9.079 C 26.252 9.127, 26.015 9.364, 26.813 9.683 M 31.136 10.582 C 31.030 12.208, 29.959 12.907, 26.250 13.769 L 21.500 14.873 26.500 14.343 C 29.250 14.052, 31.649 13.669, 31.831 13.492 C 32.013 13.316, 31.962 12.121, 31.717 10.836 C 31.323 8.766, 31.257 8.737, 31.136 10.582 M 9.750 10.662 C 10.438 10.940, 11.563 10.940, 12.250 10.662 C 12.938 10.385, 12.375 10.158, 11 10.158 C 9.625 10.158, 9.063 10.385, 9.750 10.662 M 19.813 11.683 C 20.534 11.972, 21.397 11.936, 21.729 11.604 C 22.061 11.272, 21.471 11.036, 20.417 11.079 C 19.252 11.127, 19.015 11.364, 19.813 11.683 M 26.813 11.683 C 27.534 11.972, 28.397 11.936, 28.729 11.604 C 29.061 11.272, 28.471 11.036, 27.417 11.079 C 26.252 11.127, 26.015 11.364, 26.813 11.683 M 17.750 13.662 C 18.438 13.940, 19.563 13.940, 20.250 13.662 C 20.938 13.385, 20.375 13.158, 19 13.158 C 17.625 13.158, 17.063 13.385, 17.750 13.662" stroke="none" fill="black" fill-rule="evenodd"/>
</svg>