<svg xmlns="http://www.w3.org/2000/svg" width="32" height="16" viewBox="0 0 32 16" version="1.1">
	<path d="M -0 8.103 L -0 16.206 12.295 15.853 C 26.199 15.454, 29.286 14.273, 30.883 8.745 C 31.815 5.515, 31.820 5.513, 31.910 8.295 C 31.966 10.039, 31.050 12.041, 29.477 13.614 L 26.954 16.137 29.727 15.819 C 32.462 15.504, 32.504 15.395, 32.792 7.750 L 33.084 0 16.542 0 L 0 0 -0 8.103 M 0.343 8.500 C 0.346 12.900, 0.522 14.576, 0.733 12.224 C 0.945 9.872, 0.942 6.272, 0.727 4.224 C 0.512 2.176, 0.339 4.100, 0.343 8.500 M 19.655 3.829 C 18.745 4.835, 18.061 6.972, 18.136 8.579 C 18.263 11.293, 18.305 11.323, 18.727 9 C 19.348 5.591, 21.681 3.194, 24.854 2.706 C 27.310 2.329, 27.278 2.289, 24.405 2.150 C 22.524 2.059, 20.661 2.717, 19.655 3.829 M 23.979 8.521 C 21.562 10.984, 20.036 13, 20.589 13 C 21.887 13, 29.529 5.195, 28.873 4.539 C 28.599 4.266, 26.397 6.057, 23.979 8.521" stroke="none" fill="black" fill-rule="evenodd"/>
</svg>