<svg xmlns="http://www.w3.org/2000/svg" width="32" height="16" viewBox="0 0 32 16" version="1.1">
	<path d="M 0 8.025 L 0 16.050 16.250 15.775 L 32.500 15.500 32.792 7.750 L 33.084 0 16.542 0 L 0 0 0 8.025 M 0.343 8.500 C 0.346 12.900, 0.522 14.576, 0.733 12.224 C 0.945 9.872, 0.942 6.272, 0.727 4.224 C 0.512 2.176, 0.339 4.100, 0.343 8.500 M 21.667 1.667 C 21.300 2.033, 21 3.127, 21 4.097 C 21 5.131, 20.069 6.040, 18.750 6.294 C 16.740 6.681, 16.781 6.742, 19.137 6.864 C 21.342 6.978, 21.845 6.509, 22.213 4 C 22.689 0.759, 22.667 0.666, 21.667 1.667 M 11.553 3.915 C 11.231 4.436, 11.394 5.125, 11.915 5.447 C 12.436 5.769, 13.125 5.606, 13.447 5.085 C 13.769 4.564, 13.606 3.875, 13.085 3.553 C 12.564 3.231, 11.875 3.394, 11.553 3.915 M 29.750 6.208 C 27.914 8.088, 28.534 8.581, 30.872 7.100 C 31.626 6.622, 32.076 5.823, 31.872 5.324 C 31.667 4.825, 30.712 5.223, 29.750 6.208" stroke="none" fill="black" fill-rule="evenodd"/>
</svg>