<svg xmlns="http://www.w3.org/2000/svg" width="32" height="16" viewBox="0 0 32 16" version="1.1">
	<path d="M 0 8 L 0 16 9.500 16 C 16.425 16, 19.004 15.661, 19.015 14.750 C 19.026 13.917, 19.354 14, 20 15 C 20.862 16.333, 20.973 16.333, 21 15 C 21.027 13.667, 21.138 13.667, 22 15 C 22.862 16.333, 22.973 16.333, 23 15 C 23.027 13.667, 23.138 13.667, 24 15 C 24.862 16.333, 24.973 16.333, 25 15 C 25.027 13.667, 25.138 13.667, 26 15 C 26.862 16.333, 26.973 16.333, 27 15 C 27.027 13.667, 27.138 13.667, 28 15 C 28.862 16.333, 28.973 16.333, 29 15 C 29.027 13.667, 29.138 13.667, 30 15 C 30.704 16.090, 30.974 16.142, 30.985 15.191 C 30.993 14.471, 31.450 14.160, 32 14.500 C 32.633 14.891, 33 12.344, 33 7.559 L 33 0 16.500 0 L 0 0 0 8 M 0.343 8.500 C 0.346 12.900, 0.522 14.576, 0.733 12.224 C 0.945 9.872, 0.942 6.272, 0.727 4.224 C 0.512 2.176, 0.339 4.100, 0.343 8.500 M 19.015 3.750 C 19.025 4.874, 19.293 5.089, 19.765 4.351 C 20.169 3.719, 21.625 2.993, 23 2.737 C 25.117 2.344, 25.002 2.251, 22.250 2.136 C 19.764 2.032, 19.004 2.412, 19.015 3.750 M 29.813 2.683 C 30.534 2.972, 31.397 2.936, 31.729 2.604 C 32.061 2.272, 31.471 2.036, 30.417 2.079 C 29.252 2.127, 29.015 2.364, 29.813 2.683 M 19.015 7.750 C 19.025 8.861, 19.299 9.086, 19.765 8.366 C 20.169 7.742, 21.400 7.007, 22.500 6.732 C 24.033 6.349, 23.858 6.205, 21.750 6.116 C 19.748 6.032, 19.004 6.476, 19.015 7.750 M 26.667 6.667 C 26.300 7.033, 26.007 7.821, 26.015 8.417 C 26.025 9.137, 26.277 9.115, 26.765 8.351 C 27.169 7.719, 28.625 6.993, 30 6.737 L 32.500 6.272 29.917 6.136 C 28.496 6.061, 27.033 6.300, 26.667 6.667 M 22 11 C 22 11.550, 21.212 12.036, 20.250 12.079 C 19.248 12.124, 19.023 12.370, 19.724 12.654 C 20.398 12.926, 21.960 12.441, 23.197 11.575 C 25.034 10.288, 25.130 10, 23.723 10 C 22.775 10, 22 10.450, 22 11 M 26.015 11.750 C 26.024 12.749, 26.351 13.071, 26.777 12.500 C 27.187 11.950, 27.931 11.162, 28.428 10.750 C 28.926 10.338, 28.583 10, 27.667 10 C 26.740 10, 26.007 10.777, 26.015 11.750" stroke="none" fill="black" fill-rule="evenodd"/>
</svg>