<svg xmlns="http://www.w3.org/2000/svg" width="32" height="16" viewBox="0 0 32 16" version="1.1">
	<path d="M 15 7.458 L 15 14.916 7.250 15.257 C 2.987 15.444, 6.738 15.688, 15.583 15.799 C 24.429 15.909, 31.854 15.815, 32.083 15.588 C 32.313 15.361, 32.352 11.761, 32.171 7.588 L 31.842 -0 23.421 -0 L 15 0 15 7.458 M 1 7.500 L 1 14 7.500 14 L 14 14 14 7.500 L 14 1 7.500 1 L 1 1 1 7.500 M 2.185 7.750 L 2.370 13.500 2.735 8.301 L 3.101 3.101 8.301 2.735 L 13.500 2.370 7.750 2.185 L 2 2 2.185 7.750 M 18.185 7.750 L 18.370 13.500 18.735 8.301 L 19.101 3.101 24.301 2.735 L 29.500 2.370 23.750 2.185 L 18 2 18.185 7.750 M 30 7.952 L 30 13.905 23.750 14.260 L 17.500 14.615 24.250 14.807 L 31 15 31 8.500 C 31 4.925, 30.775 2, 30.500 2 C 30.225 2, 30 4.679, 30 7.952 M 23.195 8.500 C 23.215 10.150, 23.439 10.704, 23.693 9.731 C 23.947 8.758, 23.930 7.408, 23.656 6.731 C 23.382 6.054, 23.175 6.850, 23.195 8.500 M 25.755 8.500 C 25.492 9.875, 25.665 11, 26.139 11 C 26.612 11, 27 9.875, 27 8.500 C 27 7.125, 26.827 6, 26.617 6 C 26.406 6, 26.018 7.125, 25.755 8.500" stroke="none" fill="black" fill-rule="evenodd"/>
</svg>