<svg xmlns="http://www.w3.org/2000/svg" width="32" height="16" viewBox="0 0 32 16" version="1.1">
	<path d="M -0 8.024 L -0 16.048 16.250 15.774 L 32.500 15.500 32.792 7.750 L 33.084 0 16.542 0 L 0 0 -0 8.024 M 0.180 8.917 C 0.308 14.271, 0.470 15.122, 0.732 11.813 C 0.999 8.453, 1.585 7, 2.802 6.679 C 4.355 6.270, 4.350 6.222, 2.750 6.116 C 1.788 6.052, 1 5.325, 1 4.500 C 1 2.540, 1.890 2.606, 4.353 4.750 C 6.355 6.494, 6.356 6.491, 4.468 3.917 C 1.075 -0.709, -0.018 0.566, 0.180 8.917 M 7.787 9 C 8.029 10.650, 8.626 12, 9.113 12 C 9.601 12, 10 10.650, 10 9 C 10 7.174, 9.481 6, 8.673 6 C 7.768 6, 7.486 6.953, 7.787 9 M 13.446 7.087 C 13.077 7.685, 13.275 8.675, 13.887 9.287 C 14.704 10.104, 15 9.815, 15 8.200 C 15 5.785, 14.481 5.413, 13.446 7.087 M 17.394 7.416 C 17.095 8.194, 17.042 10.107, 17.276 11.666 C 17.641 14.104, 17.721 13.987, 17.850 10.833 C 17.933 8.817, 18.563 6.940, 19.250 6.662 C 20.229 6.267, 20.222 6.141, 19.219 6.079 C 18.514 6.036, 17.693 6.637, 17.394 7.416 M 22 7 C 20.667 7.862, 20.667 7.969, 22 7.969 C 22.825 7.969, 24.175 7.533, 25 7 C 26.333 6.138, 26.333 6.031, 25 6.031 C 24.175 6.031, 22.825 6.467, 22 7 M 29.290 9 C 29.002 10.100, 28.369 11, 27.883 11 C 27.398 11, 27 11.505, 27 12.122 C 27 13.876, 29.687 11.305, 30.298 8.967 C 30.581 7.885, 30.588 7, 30.313 7 C 30.038 7, 29.577 7.900, 29.290 9 M 4 8.947 L 6.500 9.695 4 10.211 C 1.521 10.723, 1.523 10.729, 4.250 10.864 C 6.088 10.955, 7 10.503, 7 9.500 C 7 8.506, 6.072 8.034, 4.250 8.100 L 1.500 8.199 4 8.947 M 19.750 10.662 C 20.438 10.940, 21.563 10.940, 22.250 10.662 C 22.938 10.385, 22.375 10.158, 21 10.158 C 19.625 10.158, 19.063 10.385, 19.750 10.662 M 24.250 14.689 C 25.212 14.941, 26.788 14.941, 27.750 14.689 C 28.712 14.438, 27.925 14.232, 26 14.232 C 24.075 14.232, 23.288 14.438, 24.250 14.689" stroke="none" fill="black" fill-rule="evenodd"/>
</svg>