<svg xmlns="http://www.w3.org/2000/svg" width="32" height="16" viewBox="0 0 32 16" version="1.1">
	<path d="M -0 8.135 L 0 16 13 16 C 24.882 16, 26 15.844, 26 14.189 C 26 13.192, 26.918 11.392, 28.039 10.189 C 30.935 7.080, 31.507 7.479, 29.068 10.904 C 26.256 14.854, 26.442 16.197, 29.750 15.816 C 32.458 15.505, 32.504 15.381, 32.793 7.721 L 33.085 -0.058 16.543 0.106 L -0 0.270 -0 8.135 M 0.343 8.500 C 0.346 12.900, 0.522 14.576, 0.733 12.224 C 0.945 9.872, 0.942 6.272, 0.727 4.224 C 0.512 2.176, 0.339 4.100, 0.343 8.500 M 6.813 2.683 C 7.534 2.972, 8.397 2.936, 8.729 2.604 C 9.061 2.272, 8.471 2.036, 7.417 2.079 C 6.252 2.127, 6.015 2.364, 6.813 2.683 M 22.813 2.683 C 23.534 2.972, 24.397 2.936, 24.729 2.604 C 25.061 2.272, 24.471 2.036, 23.417 2.079 C 22.252 2.127, 22.015 2.364, 22.813 2.683 M 4.384 5.442 C 3.210 8.500, 4.447 10.500, 7.514 10.500 C 10.146 10.500, 10.500 10.154, 10.500 7.583 C 10.500 5.979, 9.938 4.479, 9.250 4.250 C 7.617 3.706, 7.617 6.679, 9.250 7.338 C 9.997 7.639, 9.795 7.874, 8.750 7.921 C 7.640 7.971, 7 7.268, 7 6 C 7 3.693, 5.202 3.309, 4.384 5.442 M 20.667 4.667 C 20.300 5.033, 20.052 6.496, 20.116 7.917 C 20.209 9.996, 20.328 10.109, 20.724 8.500 C 20.994 7.400, 21.672 5.938, 22.230 5.250 C 23.285 3.951, 21.899 3.434, 20.667 4.667 M 24 5.500 C 24 6.325, 24.177 7, 24.393 7 C 24.609 7, 25.045 6.325, 25.362 5.500 C 25.678 4.675, 25.501 4, 24.969 4 C 24.436 4, 24 4.675, 24 5.500 M 24.813 8.683 C 25.534 8.972, 26.397 8.936, 26.729 8.604 C 27.061 8.272, 26.471 8.036, 25.417 8.079 C 24.252 8.127, 24.015 8.364, 24.813 8.683 M 6.813 12.683 C 7.534 12.972, 8.397 12.936, 8.729 12.604 C 9.061 12.272, 8.471 12.036, 7.417 12.079 C 6.252 12.127, 6.015 12.364, 6.813 12.683 M 22.813 12.683 C 23.534 12.972, 24.397 12.936, 24.729 12.604 C 25.061 12.272, 24.471 12.036, 23.417 12.079 C 22.252 12.127, 22.015 12.364, 22.813 12.683 M 6.813 14.683 C 7.534 14.972, 8.397 14.936, 8.729 14.604 C 9.061 14.272, 8.471 14.036, 7.417 14.079 C 6.252 14.127, 6.015 14.364, 6.813 14.683 M 22.813 14.683 C 23.534 14.972, 24.397 14.936, 24.729 14.604 C 25.061 14.272, 24.471 14.036, 23.417 14.079 C 22.252 14.127, 22.015 14.364, 22.813 14.683" stroke="none" fill="black" fill-rule="evenodd"/>
</svg>