<svg xmlns="http://www.w3.org/2000/svg" width="32" height="16" viewBox="0 0 32 16" version="1.1">
	<path d="M 0 8.099 L 0 16.199 14.537 15.849 C 30.929 15.455, 29.638 16.219, 30.345 6.500 C 30.545 3.750, 30.653 4.765, 30.585 8.757 C 30.416 18.625, 32.412 17.642, 32.792 7.670 L 33.084 0 16.542 0 L 0 0 0 8.099 M 0.343 8.500 C 0.346 12.900, 0.522 14.576, 0.733 12.224 C 0.945 9.872, 0.942 6.272, 0.727 4.224 C 0.512 2.176, 0.339 4.100, 0.343 8.500 M 3.569 3.924 C 2.634 4.957, 2.289 6.061, 2.801 6.377 C 3.314 6.694, 4.497 6.108, 5.431 5.076 C 6.366 4.043, 6.711 2.939, 6.199 2.623 C 5.686 2.306, 4.503 2.892, 3.569 3.924 M 19.506 3.994 C 18.507 5.097, 18.155 6, 18.723 6 C 19.981 6, 22.475 3.142, 21.803 2.470 C 21.538 2.205, 20.504 2.890, 19.506 3.994 M 28.195 5.500 C 28.215 7.150, 28.439 7.704, 28.693 6.731 C 28.947 5.758, 28.930 4.408, 28.656 3.731 C 28.382 3.054, 28.175 3.850, 28.195 5.500 M 6.200 5.200 C 3.261 8.139, 6.237 13.014, 9.805 11.105 C 10.867 10.536, 12.021 10.355, 12.369 10.702 C 14.138 12.472, 12.682 9.279, 10.750 7.153 C 9.512 5.792, 9.063 5.002, 9.750 5.398 C 10.438 5.794, 11 5.641, 11 5.059 C 11 3.619, 7.683 3.717, 6.200 5.200 M 22.655 5.829 C 21.745 6.835, 21.029 8.297, 21.063 9.079 C 21.098 9.860, 21.538 9.477, 22.040 8.226 C 22.542 6.976, 23.976 5.542, 25.226 5.040 C 26.691 4.452, 26.932 4.104, 25.905 4.063 C 25.028 4.029, 23.565 4.823, 22.655 5.829 M 25 13 C 24.099 13.582, 23.975 13.975, 24.691 13.985 C 25.346 13.993, 26.160 13.550, 26.500 13 C 27.267 11.758, 26.921 11.758, 25 13" stroke="none" fill="black" fill-rule="evenodd"/>
</svg>