<svg xmlns="http://www.w3.org/2000/svg" width="640" height="480" viewBox="0 0 640 480" version="1.1">
	<path d="M 72.237 35.738 L 72 71.975 35.750 72.250 L -0.500 72.526 35.748 72.763 L 71.995 73 72.250 276.750 L 72.505 480.500 72.752 276.750 C 72.916 142.077, 73.338 73, 73.998 73 C 74.657 73, 75.082 142.082, 75.250 276.750 L 75.505 480.500 75.752 276.750 C 75.916 142.077, 76.338 73, 76.998 73 C 77.657 73, 78.082 142.082, 78.250 276.750 L 78.505 480.500 78.752 276.750 L 79 73 359.441 73 C 513.684 73, 640.091 72.662, 640.346 72.250 C 640.600 71.837, 514.408 71.614, 359.917 71.753 L 79.025 72.007 78.750 35.753 L 78.474 -0.500 78.237 35.750 C 78.086 58.785, 77.640 72, 77.012 72 C 76.386 72, 75.924 58.759, 75.750 35.750 L 75.474 -0.500 75.237 35.750 C 75.086 58.785, 74.640 72, 74.012 72 C 73.386 72, 72.924 58.759, 72.750 35.750 L 72.474 -0.500 72.237 35.738" stroke="none" fill="black" fill-rule="evenodd"/>
</svg>