<svg xmlns="http://www.w3.org/2000/svg" width="32" height="16" viewBox="0 0 32 16" version="1.1">
	<path d="M 0 8 L 0 16 14.674 16 L 29.349 16 27.105 13.612 C 25.677 12.092, 24.068 11.372, 22.681 11.632 C 20.623 12.018, 20.613 11.990, 22.500 11.132 C 24.060 10.423, 25.160 10.832, 27.500 12.989 C 31.955 17.096, 33 16.036, 33 7.417 L 33 0 16.500 0 L 0 0 0 8 M 0.343 8.500 C 0.346 12.900, 0.522 14.576, 0.733 12.224 C 0.945 9.872, 0.942 6.272, 0.727 4.224 C 0.512 2.176, 0.339 4.100, 0.343 8.500 M 19 3 C 17.900 4.100, 17.030 5.562, 17.068 6.250 C 17.105 6.938, 17.602 6.535, 18.173 5.356 C 18.744 4.176, 20.176 2.744, 21.356 2.173 C 22.535 1.602, 22.938 1.105, 22.250 1.068 C 21.563 1.030, 20.100 1.900, 19 3 M 2.410 3.375 C 1.211 6.498, 2.424 8.500, 5.514 8.500 C 8.165 8.500, 8.500 8.164, 8.500 5.500 C 8.500 2.969, 8.069 2.450, 5.744 2.183 C 3.986 1.981, 2.779 2.412, 2.410 3.375 M 4.269 5.693 C 5.242 5.947, 6.592 5.930, 7.269 5.656 C 7.946 5.382, 7.150 5.175, 5.500 5.195 C 3.850 5.215, 3.296 5.439, 4.269 5.693 M 26.731 6.920 C 26.296 8.583, 26.426 8.974, 27.168 8.232 C 27.750 7.650, 28.028 6.585, 27.788 5.863 C 27.538 5.114, 27.085 5.568, 26.731 6.920 M 21.269 6.693 C 22.242 6.947, 23.592 6.930, 24.269 6.656 C 24.946 6.382, 24.150 6.175, 22.500 6.195 C 20.850 6.215, 20.296 6.439, 21.269 6.693" stroke="none" fill="black" fill-rule="evenodd"/>
</svg>