<svg xmlns="http://www.w3.org/2000/svg" width="400" height="300" viewBox="0 0 400 300" version="1.1">
	<path d="M 149.173 81.151 C 141.864 83.959, 133.871 92.055, 131.102 99.457 C 129.081 104.860, 129 106.798, 129 150 C 129 193.202, 129.081 195.140, 131.102 200.543 C 133.895 208.007, 141.873 216.061, 149.186 218.797 C 154.195 220.671, 157.468 220.819, 201.016 221.149 L 247.500 221.500 253 218.887 C 259.996 215.564, 265.564 209.996, 268.887 203 L 271.500 197.500 271.137 151 C 270.798 107.549, 270.644 104.150, 268.785 99.170 C 266.063 91.875, 258.004 83.894, 250.543 81.102 C 245.130 79.077, 243.275 79.002, 199.712 79.052 C 156.629 79.102, 154.249 79.201, 149.173 81.151 M 168.969 115.536 C 162.828 117.429, 156.228 123.316, 153.374 129.444 C 149.040 138.751, 150.801 151.893, 157.312 158.832 C 159.025 160.657, 159.504 162.394, 159.518 166.832 C 159.540 174.099, 162.125 179.392, 167.333 182.839 L 171.354 185.500 202.427 185.500 L 233.500 185.500 238.272 182.695 C 245.019 178.729, 248.320 173.343, 248.820 165.482 C 249.041 162.009, 248.666 157.518, 247.981 155.444 C 246.313 150.389, 239.185 143.435, 234.114 141.916 C 231.608 141.165, 229.794 139.927, 229.405 138.702 C 228.262 135.099, 220.595 127.741, 215.500 125.358 C 211.929 123.688, 208.697 123.017, 204.191 123.010 C 198.660 123.001, 197.414 122.624, 194.080 119.944 C 187.209 114.423, 177.889 112.786, 168.969 115.536 M 171.684 124.404 C 160.092 128.675, 156.346 142.831, 164.198 152.691 C 164.915 153.590, 165.923 153.408, 168.323 151.944 C 170.070 150.879, 172.963 150.006, 174.750 150.004 C 177.752 150, 178 149.751, 178 146.735 C 178 142.542, 183.265 131.723, 186.572 129.122 L 189.123 127.115 186.167 125.586 C 181.719 123.286, 175.987 122.818, 171.684 124.404 M 172.507 131.989 C 172.157 132.555, 172.558 132.723, 173.448 132.382 C 175.180 131.717, 175.497 131, 174.059 131 C 173.541 131, 172.843 131.445, 172.507 131.989 M 167.232 141 C 167.232 142.925, 167.438 143.713, 167.689 142.750 C 167.941 141.787, 167.941 140.213, 167.689 139.250 C 167.438 138.287, 167.232 139.075, 167.232 141" stroke="black" fill="#dedede"/>
</svg>