<svg xmlns="http://www.w3.org/2000/svg" width="60" height="60" viewBox="0 0 60 60" version="1.1">
	<rect x="0" y="0" width="100%" height="100%" fill="#bfbfbf" />
	<path d="M 19.535 3.104 C 17.591 4.811, 16 6.801, 16 7.527 C 16 8.253, 14.933 10.119, 13.629 11.673 C 12.326 13.228, 10.941 15.957, 10.553 17.739 C 10.164 19.520, 9.431 21.234, 8.923 21.548 C 7.299 22.552, 7.936 24.250, 9.758 23.773 C 11.251 23.383, 11.531 24.054, 11.612 28.210 C 11.739 34.754, 12.691 35.488, 17.983 33.119 C 20.363 32.053, 22.915 31.414, 23.655 31.698 C 24.575 32.051, 25.037 31.310, 25.118 29.357 C 25.302 24.941, 25.014 23.695, 23.191 21 C 21.898 19.088, 21.618 17.103, 22 12.558 C 22.486 6.785, 22.596 6.592, 25.897 5.742 C 28.497 5.072, 29.656 5.227, 30.831 6.402 C 32.212 7.783, 32.179 8.145, 30.507 9.993 C 28.104 12.648, 29.712 14.760, 32.856 13.077 C 34.818 12.027, 34.923 12.214, 34.835 16.605 C 34.770 19.812, 34.165 21.734, 32.871 22.843 C 30.385 24.971, 30.496 26.365, 33.099 25.684 C 34.999 25.188, 35.163 25.494, 34.835 28.928 C 34.516 32.282, 34.670 32.599, 36.166 31.664 C 37.507 30.827, 37.745 29.645, 37.311 25.982 C 36.932 22.774, 37.259 20.399, 38.382 18.228 C 41.228 12.724, 40.526 8.762, 35.882 4.118 C 32.322 0.557, 31.177 0, 27.417 0 C 23.980 0, 22.329 0.650, 19.535 3.104 M 24 13.500 C 24 15.182, 24.184 15.250, 26.412 14.395 C 28.243 13.693, 27.557 12, 25.441 12 C 24.648 12, 24 12.675, 24 13.500 M 30 20 C 30 20.550, 30.648 21, 31.441 21 C 32.234 21, 33.160 20.550, 33.500 20 C 33.840 19.450, 33.191 19, 32.059 19 C 30.927 19, 30 19.450, 30 20 M 50.966 43 C 50.797 45.483, 50.602 45.846, 50.294 44.250 C 49.544 40.353, 48.256 41.797, 47.567 47.309 C 47.188 50.341, 47.353 53.799, 47.952 55.374 C 49.240 58.762, 49.259 59.278, 48.069 58.543 C 47.557 58.226, 46.856 58.425, 46.510 58.984 C 46.135 59.591, 47.166 60, 49.072 60 C 52.198 60, 52.250 59.926, 51.654 56.256 C 51.320 54.197, 51.562 51.086, 52.193 49.343 C 53.023 47.047, 53.045 45.253, 52.272 42.837 L 51.204 39.500 50.966 43 M 34.651 45.500 C 32.993 54.159, 32.987 54.714, 34.595 51.125 C 35.427 49.268, 35.952 46.343, 35.762 44.625 C 35.423 41.555, 35.403 41.570, 34.651 45.500 M 19.720 51.332 C 18.606 54.165, 18.788 55.612, 20.094 54.306 C 20.695 53.705, 21.020 52.377, 20.814 51.356 C 20.454 49.566, 20.415 49.565, 19.720 51.332 M 17.605 57.588 C 16.750 59.816, 16.818 60, 18.500 60 C 19.325 60, 20 59.352, 20 58.559 C 20 56.443, 18.307 55.757, 17.605 57.588 M 32.158 58 C 32.158 59.375, 32.385 59.938, 32.662 59.250 C 32.940 58.563, 32.940 57.438, 32.662 56.750 C 32.385 56.063, 32.158 56.625, 32.158 58" stroke="none" fill="blue" fill-rule="evenodd"/>
</svg>