<svg xmlns="http://www.w3.org/2000/svg" width="60" height="60" viewBox="0 0 60 60" version="1.1">
	<rect x="0" y="0" width="100%" height="100%" fill="#bfbfbf" />
	<path d="M 13.750 2.495 C 11.137 3.894, 8.997 5.142, 8.994 5.269 C 8.886 9.574, 6.573 17.826, 5.007 19.493 C 3.118 21.503, 3.054 22.080, 4.176 26.941 C 4.974 30.401, 6.164 32.717, 7.640 33.684 C 9.411 34.844, 9.798 35.861, 9.464 38.472 C 9.190 40.613, 9.564 42.223, 10.520 43.016 C 11.334 43.692, 12 45.042, 12 46.015 C 12 46.989, 12.726 48.064, 13.613 48.405 C 14.919 48.906, 14.990 49.307, 13.990 50.512 C 13.311 51.330, 12.248 51.997, 11.628 51.994 C 11.007 51.991, 8.145 53.003, 5.267 54.244 C 1.831 55.725, 0.028 57.101, 0.017 58.250 C 0.002 59.781, 1.065 60, 8.500 60 L 17 60 17 56.321 C 17 54.298, 17.495 51.260, 18.100 49.571 L 19.201 46.500 23.618 50.750 C 26.047 53.087, 28.702 55, 29.518 55 C 30.333 55, 31 55.477, 31 56.059 C 31 56.641, 31.412 56.864, 31.915 56.553 C 32.418 56.242, 32.996 56.489, 33.201 57.102 C 33.405 57.715, 35.181 56.436, 37.147 54.260 L 40.721 50.303 42.041 55.152 L 43.362 60 48.931 59.941 C 53.645 59.891, 54.209 59.700, 52.606 58.691 C 50.270 57.222, 45.072 52.625, 46.625 53.401 C 47.286 53.731, 47.767 53.043, 47.790 51.732 C 47.813 50.504, 49 45.980, 50.429 41.677 C 51.858 37.374, 52.727 33.367, 52.359 32.772 C 51.984 32.165, 52.153 31.977, 52.746 32.343 C 53.852 33.027, 58 26.022, 58 23.469 C 58 22.661, 57.375 22, 56.611 22 C 55.795 22, 54.940 20.454, 54.536 18.250 C 53.754 13.975, 47.630 4.474, 44.204 2.220 C 42.590 1.159, 38.433 0.598, 30.204 0.331 C 19.201 -0.025, 18.216 0.104, 13.750 2.495 M 36.171 12.096 C 34.775 12.634, 33.193 14.644, 32.224 17.112 C 30.906 20.467, 30.478 20.884, 29.914 19.365 C 29.533 18.339, 29.470 16.178, 29.773 14.563 L 30.325 11.626 27.018 13.563 C 22.163 16.407, 21.176 18.431, 23.429 20.922 C 25.654 23.381, 31.673 24.727, 33.275 23.125 C 33.894 22.506, 36.275 22, 38.566 22 L 42.731 22 41.982 17.902 C 41.024 12.662, 39.264 10.904, 36.171 12.096 M 28.968 27.250 C 28.941 29.188, 28.768 29.289, 27.718 27.974 C 26.392 26.314, 25.508 26.234, 22.576 27.510 C 17.457 29.738, 14.500 36.119, 16.863 39.840 L 18.348 42.181 21.755 38.340 C 23.981 35.830, 24.959 35.193, 24.578 36.500 C 23.999 38.488, 24.005 38.488, 25.522 36.525 C 26.815 34.853, 27.354 34.740, 29.036 35.791 C 30.674 36.813, 31.482 36.730, 33.639 35.317 C 36.202 33.638, 36.311 33.663, 38.965 36.551 C 43.070 41.020, 44 40.716, 44 34.906 C 44 30.654, 43.670 29.726, 42 29.290 C 40.900 29.002, 40 28.118, 40 27.324 C 40 26.531, 39.581 26.141, 39.069 26.457 C 38.557 26.774, 37.868 26.595, 37.537 26.060 C 36.653 24.630, 34.011 25.947, 33.932 27.857 C 33.883 29.052, 33.568 28.886, 32.780 27.250 C 32.183 26.012, 31.088 25, 30.347 25 C 29.606 25, 28.986 26.012, 28.968 27.250 M 36 36 C 36 36.550, 36.477 37, 37.059 37 C 37.641 37, 37.840 36.550, 37.500 36 C 37.160 35.450, 36.684 35, 36.441 35 C 36.198 35, 36 35.450, 36 36 M 31 40 C 31 40.550, 31.450 41, 32 41 C 32.550 41, 33 40.550, 33 40 C 33 39.450, 32.550 39, 32 39 C 31.450 39, 31 39.450, 31 40 M 22.918 45.154 C 22.306 46.296, 22.385 47.120, 23.152 47.594 C 23.914 48.065, 24.060 47.829, 23.580 46.905 C 23.180 46.132, 23.545 46.400, 24.392 47.500 C 27.667 51.753, 28.077 51.978, 31.723 51.511 C 35.980 50.966, 37.705 49.490, 38.168 46 C 38.496 43.533, 38.402 43.500, 31.171 43.464 C 25.230 43.435, 23.666 43.755, 22.918 45.154 M 31.750 59.662 C 32.438 59.940, 33.563 59.940, 34.250 59.662 C 34.938 59.385, 34.375 59.158, 33 59.158 C 31.625 59.158, 31.063 59.385, 31.750 59.662" stroke="none" fill="#3467df" fill-rule="evenodd"/>
</svg>