<svg xmlns="http://www.w3.org/2000/svg" width="250" height="187" viewBox="0 0 250 187" version="1.1">
	<rect x="0" y="0" width="100%" height="100%" fill="#bfbfbf" />
	<path d="M 0 93.500 L 0 187 40.628 187 L 81.256 187 80.616 183 L 79.976 179 84.238 178.885 C 89.135 178.752, 89.368 178.722, 93.809 177.629 C 96.831 176.886, 97.063 176.563, 96.480 173.908 C 95.562 169.728, 97.967 170.114, 102.229 174.832 C 104.488 177.332, 105.922 180.112, 106.357 182.832 L 107.024 187 114.012 187 C 117.855 187, 121 186.760, 121 186.467 C 121 186.173, 119.833 183.631, 118.408 180.817 C 116.247 176.554, 116.001 175.293, 116.931 173.253 C 117.603 171.776, 118.605 171.018, 119.452 171.343 C 120.225 171.640, 122.537 172.198, 124.589 172.583 C 127.567 173.141, 128.587 172.917, 129.643 171.473 C 130.790 169.904, 131.335 169.829, 133.733 170.908 C 137.413 172.564, 136.067 171.336, 126.320 164.146 C 115.564 156.212, 110.532 153.740, 104.762 153.557 C 100.436 153.420, 99.677 153.763, 96.151 157.453 C 94.024 159.679, 90.659 163.975, 88.673 167 C 83.256 175.248, 80.079 178.856, 80.036 176.809 C 80.016 175.879, 80.393 174.875, 80.874 174.578 C 82.329 173.679, 80.448 166.523, 73.079 144.926 C 68.880 132.620, 65.849 121.971, 65.537 118.426 L 65.016 112.500 67.047 118.761 C 68.833 124.266, 70.252 126.210, 78.789 134.847 C 90.051 146.240, 95.354 149.672, 103.111 150.583 L 108.665 151.236 116.086 144.764 C 120.168 141.204, 126.020 137.103, 129.091 135.650 C 132.583 133.998, 135.202 131.976, 136.082 130.254 C 137.363 127.745, 137.549 129.013, 138.162 144.500 C 138.918 163.595, 139.490 167.392, 142.160 171.003 C 143.184 172.388, 144.846 176.442, 145.852 180.011 L 147.682 186.500 199.091 186.500 L 250.500 186.500 250.755 93.250 L 251.010 0 172.255 0.142 C 128.940 0.220, 95.300 0.606, 97.500 1 C 99.700 1.394, 100.487 1.780, 99.250 1.858 C 96.877 2.008, 96.036 4, 98.345 4 C 99.085 4, 100.424 4.811, 101.321 5.802 C 102.482 7.085, 103.967 7.485, 106.476 7.193 C 108.414 6.966, 110 6.354, 110 5.832 C 110 5.309, 110.419 5.141, 110.931 5.457 C 111.443 5.774, 112.119 5.617, 112.433 5.108 C 113.106 4.020, 120.097 7.172, 124.744 10.659 C 128.026 13.122, 134.564 22.154, 136.794 27.306 C 138.428 31.082, 140.119 29.900, 138.944 25.804 C 138.272 23.461, 138.327 22.927, 139.157 23.757 C 140.837 25.437, 142.190 35.264, 140.856 36.089 C 140.088 36.563, 140.068 37.758, 140.788 40.131 C 142.767 46.655, 142.872 48, 141.406 48 C 140.633 48, 140 47.373, 140 46.607 C 140 45.099, 137.284 43.557, 135.219 43.893 C 132.114 44.399, 119.286 55.501, 119.786 57.250 C 120.164 58.572, 113.395 58.052, 108.876 56.411 C 105.649 55.240, 102.475 54.968, 96.789 55.377 C 89.997 55.865, 88.461 56.364, 83.912 59.562 C 81.071 61.559, 77.454 63.643, 75.874 64.194 C 72.654 65.316, 72.495 65.751, 74.392 68.250 C 75.161 69.263, 77.043 70, 78.860 70 C 80.587 70, 82 70.450, 82 71 C 82 72.779, 85.443 72.063, 89.215 69.500 C 93.720 66.439, 94.038 66.421, 93.738 69.250 C 93.540 71.118, 94.052 71.553, 96.750 71.813 C 99.500 72.078, 100 71.798, 100 69.992 C 100 68.051, 100.143 68, 101.571 69.429 C 102.436 70.293, 103.786 71, 104.571 71 C 105.357 71, 106 71.466, 106 72.035 C 106 72.702, 106.794 72.645, 108.229 71.877 C 111.749 69.994, 113 68.340, 113 65.571 C 113 64.040, 113.563 63, 114.393 63 C 115.159 63, 116.045 62.325, 116.362 61.500 C 117.416 58.752, 120 59.775, 120 62.941 C 120 66.238, 121.784 67.968, 123.057 65.907 C 123.516 65.165, 124.253 64.920, 124.696 65.362 C 125.830 66.497, 125.752 68.369, 124.533 69.235 C 123.900 69.685, 124.080 70.005, 125 70.061 C 125.825 70.112, 127.322 70.309, 128.327 70.499 C 129.530 70.727, 129.978 70.385, 129.638 69.500 C 129.315 68.657, 130.265 67.755, 132.176 67.088 C 134.882 66.145, 135.178 65.663, 134.766 62.857 C 134.362 60.105, 134.467 59.918, 135.570 61.426 C 136.761 63.056, 136.965 63.035, 138.919 61.081 C 140.064 59.936, 141.450 59, 142 59 C 142.550 59, 143 58.100, 143 57 C 143 55.900, 143.349 55, 143.775 55 C 144.202 55, 145.383 59.388, 146.400 64.750 C 148.365 75.107, 148.346 89.529, 146.366 90.800 C 144.665 91.893, 144.077 98, 145.673 98 C 146.486 98, 147 99.184, 147 101.059 C 147 102.741, 146.631 103.890, 146.181 103.612 C 145.730 103.333, 145.566 104.496, 145.815 106.195 C 146.103 108.157, 145.893 109.052, 145.239 108.648 C 144.673 108.298, 143.957 108.669, 143.648 109.474 C 143.340 110.278, 143.518 111.202, 144.044 111.527 C 144.570 111.852, 145 112.642, 145 113.282 C 145 113.921, 144.278 113.415, 143.396 112.155 C 142.460 110.819, 141.972 108.645, 142.223 106.933 C 142.695 103.719, 141.630 103.052, 140.176 105.650 C 139.492 106.872, 138.449 107.140, 136.158 106.682 C 133.831 106.216, 132.826 106.489, 132.103 107.781 C 131.113 109.553, 131.259 109.543, 111.750 109.103 C 108.588 109.031, 106 108.529, 106 107.986 C 106 106.334, 103.116 106.884, 101.074 108.926 C 99.878 110.122, 98.363 110.646, 97.074 110.309 C 94.933 109.749, 94.611 110.426, 94.961 114.750 C 95.191 117.586, 93.567 117.648, 91.626 114.877 C 90.248 112.909, 90.354 112.573, 93.070 110.288 C 94.681 108.932, 96.032 107.075, 96.070 106.161 C 96.129 104.767, 96.258 104.798, 96.871 106.356 C 97.517 107.999, 97.910 107.807, 100.289 104.687 C 103.348 100.678, 109.711 97.915, 111.018 100.029 C 111.447 100.723, 112.504 101.021, 113.367 100.689 C 114.230 100.358, 115.202 100.518, 115.527 101.044 C 115.852 101.570, 115.304 102.018, 114.309 102.040 C 113.197 102.064, 113.916 102.787, 116.172 103.915 C 120.011 105.834, 125 106.377, 125 104.875 C 125 104.394, 125.562 104.112, 126.250 104.250 C 127.017 104.403, 127.479 103.438, 127.444 101.750 C 127.414 100.238, 127.740 99, 128.169 99 C 128.598 99, 129.647 97.650, 130.500 96 C 132.121 92.865, 134 92.002, 134 94.393 C 134 96.105, 136.708 97.281, 137.542 95.932 C 137.876 95.392, 137.609 95.074, 136.949 95.225 C 136.290 95.376, 135.544 94.937, 135.291 94.249 C 134.979 93.397, 135.417 93.220, 136.666 93.693 C 138.376 94.341, 138.388 94.275, 136.839 92.712 C 135.926 91.790, 134.975 90.465, 134.726 89.768 C 134.463 89.030, 133.903 88.871, 133.387 89.387 C 132.871 89.903, 133.023 90.461, 133.750 90.720 C 134.438 90.966, 135 91.634, 135 92.206 C 135 92.833, 134.406 92.752, 133.500 92 C 132.675 91.315, 132 89.958, 132 88.985 C 132 87.506, 130.178 86, 128.388 86 C 128.142 86, 128.944 87.357, 130.170 89.016 L 132.400 92.032 129.950 93.766 C 127.530 95.479, 116.707 96.443, 114.500 95.142 C 113.474 94.537, 112.874 94.416, 109.619 94.152 C 108.045 94.025, 107.831 93.430, 108.306 90.500 C 108.619 88.575, 108.453 87, 107.937 87 C 107.422 87, 107 87.350, 107 87.777 C 107 90.603, 95.460 99.849, 92 99.795 C 90.625 99.774, 86.800 100.013, 83.500 100.327 C 76.032 101.038, 74.391 99.968, 74.175 94.248 C 73.972 88.876, 72.251 86.031, 68.772 85.318 C 67.272 85.011, 65.530 84.138, 64.900 83.379 C 63.171 81.296, 62 81.718, 62 84.427 C 62 85.897, 62.690 87.034, 63.750 87.311 C 65.067 87.655, 64.943 87.797, 63.250 87.884 C 61.937 87.952, 61 88.644, 61 89.545 C 61 91.248, 58.389 88.957, 54.240 83.615 C 53.008 82.028, 52 81.241, 52 81.865 C 52 82.489, 51.288 83, 50.417 83 C 48.074 83, 49.299 85.447, 51.828 85.820 C 53.023 85.995, 54 86.558, 54 87.070 C 54 88.343, 51.271 88.248, 50.467 86.947 C 50.110 86.368, 49.295 86.079, 48.658 86.305 C 48.021 86.530, 46.150 85.776, 44.500 84.628 L 41.500 82.541 43.170 85.021 C 44.088 86.384, 45.282 87.402, 45.824 87.282 C 46.365 87.162, 47.356 87.725, 48.027 88.532 C 48.697 89.339, 50.734 90, 52.555 90 C 56.637 90, 58.410 93.496, 55.431 95.674 C 52.694 97.676, 51.166 97.305, 48.037 93.879 C 44.720 90.248, 39.091 80.320, 41.027 81.517 C 42.018 82.129, 42.145 81.858, 41.547 80.414 C 40.422 77.698, 39.628 64.329, 40.651 65.333 C 41.118 65.792, 41.556 66.579, 41.625 67.083 C 41.694 67.587, 41.868 68.338, 42.012 68.750 C 42.156 69.162, 42.325 71.920, 42.387 74.879 C 42.533 81.844, 44.803 83.792, 48.015 79.708 C 49.186 78.219, 50.998 77, 52.041 77 C 53.316 77, 53.749 76.508, 53.362 75.500 C 52.720 73.828, 54.525 73.422, 55.510 75.016 C 56.938 77.327, 57.859 74.607, 57.287 69.772 C 56.680 64.649, 54.766 59.568, 53.804 60.529 C 53.530 60.804, 53.265 59.603, 53.215 57.862 C 53.166 56.120, 52.744 54.426, 52.279 54.098 C 51.814 53.769, 51.362 52.150, 51.274 50.500 C 51.187 48.850, 50.977 45.475, 50.808 43 C 50.639 40.525, 51.010 37.958, 51.633 37.296 C 52.338 36.546, 52.493 34.845, 52.044 32.796 C 51.579 30.669, 51.807 28.524, 52.687 26.750 C 54.551 22.992, 54.931 23.287, 54.487 28.146 C 54.208 31.187, 54.403 31.997, 55.218 31.182 C 55.829 30.571, 56.389 29.260, 56.462 28.268 C 56.535 27.276, 57.023 25.798, 57.547 24.982 C 58.071 24.167, 58.950 22.635, 59.500 21.578 C 60.050 20.520, 62.750 18.089, 65.500 16.173 C 68.250 14.258, 70.860 12.086, 71.300 11.346 C 71.740 10.606, 72.865 9.990, 73.800 9.978 C 74.735 9.966, 76.625 9.076, 78 8 C 79.375 6.924, 81.063 6.034, 81.750 6.022 C 82.438 6.010, 83 5.550, 83 5 C 83 4.450, 83.900 4, 85 4 C 86.100 4, 87.900 3.100, 89 2 C 91 0, 91 0, 60.250 0.079 C 43.337 0.122, 30.063 0.385, 30.750 0.662 C 32.903 1.531, 32.155 5.668, 29.535 7.385 C 26.646 9.278, 25.604 9.449, 26.580 7.870 C 27.003 7.186, 26.734 6.922, 25.898 7.201 C 23.290 8.070, 20.319 3.081, 22.278 1.122 C 23.107 0.293, 20.347 0, 11.700 0 L 0 0 0 93.500 M 0.480 94 C 0.480 145.425, 0.601 166.462, 0.750 140.750 C 0.898 115.037, 0.898 72.962, 0.750 47.250 C 0.601 21.537, 0.480 42.575, 0.480 94 M 26.813 14.683 C 27.534 14.972, 28.397 14.936, 28.729 14.604 C 29.061 14.272, 28.471 14.036, 27.417 14.079 C 26.252 14.127, 26.015 14.364, 26.813 14.683 M 49.564 32.707 C 49.022 34.132, 49.136 34.247, 50.124 33.267 C 50.808 32.588, 51.115 31.781, 50.807 31.474 C 50.499 31.166, 49.940 31.721, 49.564 32.707 M 49.079 42.583 C 49.127 43.748, 49.364 43.985, 49.683 43.188 C 49.972 42.466, 49.936 41.603, 49.604 41.271 C 49.272 40.939, 49.036 41.529, 49.079 42.583 M 137.476 50.619 C 138.367 51.510, 139.344 51.989, 139.648 51.686 C 140.538 50.795, 139.015 49, 137.370 49 C 136.064 49, 136.078 49.221, 137.476 50.619 M 35 61.187 C 35 62.021, 36.277 62.500, 38.500 62.500 C 42.810 62.500, 42.544 60.618, 38.173 60.187 C 36.061 59.978, 35 60.312, 35 61.187 M 128.074 62.411 C 127.172 63.498, 127.201 63.994, 128.201 64.571 C 128.916 64.983, 129.166 64.952, 128.759 64.502 C 128.351 64.052, 128.519 63.080, 129.131 62.342 C 129.744 61.604, 130.020 61, 129.745 61 C 129.470 61, 128.718 61.635, 128.074 62.411 M 95.750 64.662 C 96.438 64.940, 97.563 64.940, 98.250 64.662 C 98.938 64.385, 98.375 64.158, 97 64.158 C 95.625 64.158, 95.063 64.385, 95.750 64.662 M 126.500 67 C 125.718 68.266, 127.042 68.266, 129 67 C 130.293 66.165, 130.266 66.029, 128.809 66.015 C 127.879 66.007, 126.840 66.450, 126.500 67 M 44 70.500 C 42.960 71.753, 43.104 72, 44.878 72 C 46.098 72, 47 71.362, 47 70.500 C 47 69.675, 46.605 69, 46.122 69 C 45.640 69, 44.685 69.675, 44 70.500 M 92.789 77.151 C 91.939 77.691, 92.437 77.975, 94.250 77.985 C 95.763 77.993, 97 77.625, 97 77.167 C 97 76.099, 94.463 76.090, 92.789 77.151 M 63.658 91.675 C 62.451 92.883, 62.981 93.945, 64.500 93.362 C 65.435 93.003, 66 93.369, 66 94.334 C 66 95.185, 66.408 96.134, 66.907 96.442 C 68.238 97.265, 66.999 93.244, 65.550 92.041 C 64.871 91.478, 64.020 91.313, 63.658 91.675 M 69.500 101 C 69.950 102.419, 69.680 103, 68.567 103 C 66.770 103, 66.476 104.558, 68.087 105.554 C 68.685 105.923, 68.937 107.134, 68.647 108.244 C 68.347 109.388, 68.816 110.958, 69.728 111.871 C 71.207 113.350, 71.279 113.238, 70.621 110.490 C 70.227 108.846, 69.653 106.656, 69.345 105.625 C 68.956 104.319, 69.156 103.978, 70.005 104.503 C 70.681 104.921, 71.661 104.643, 72.206 103.878 C 72.941 102.847, 73.030 102.984, 72.560 104.420 C 72.200 105.522, 72.479 106.687, 73.216 107.155 C 75.355 108.512, 75.616 108.148, 75.180 104.415 C 74.838 101.489, 74.415 100.920, 72.881 101.321 C 71.698 101.630, 71 101.291, 71 100.406 C 71 99.633, 70.520 99, 69.933 99 C 69.320 99, 69.136 99.853, 69.500 101 M 105.667 115.388 C 109.798 118.078, 116.987 119.103, 123.175 117.886 C 126.443 117.243, 128.753 116.357, 128.308 115.917 C 127.864 115.477, 122.175 114.910, 115.667 114.656 C 106.265 114.290, 104.210 114.440, 105.667 115.388 M 100.710 119 C 100.423 120.100, 100.579 121, 101.058 121 C 101.538 121, 102.411 120.100, 103 119 C 103.837 117.437, 103.760 117, 102.652 117 C 101.872 117, 100.998 117.900, 100.710 119 M 133.761 121.188 C 132.752 122.672, 130.810 123.141, 124.053 123.528 C 119.407 123.795, 114.136 124.544, 112.339 125.194 C 109.627 126.175, 108.769 126.111, 107.286 124.821 C 103.443 121.475, 100.141 123.782, 102.282 128.317 C 103.159 130.177, 104.736 131.070, 108.707 131.959 C 111.602 132.607, 114.420 132.858, 114.971 132.518 C 115.521 132.178, 119.241 131.744, 123.236 131.555 C 132.767 131.104, 135.308 129.994, 137.479 125.333 C 138.462 123.225, 139.500 121.093, 139.787 120.595 C 140.074 120.098, 139.789 120.012, 139.155 120.405 C 138.520 120.797, 138 120.716, 138 120.226 C 138 118.620, 135.052 119.290, 133.761 121.188" stroke="none" fill="#3467df" fill-rule="evenodd"/>
</svg>