<svg xmlns="http://www.w3.org/2000/svg" width="60" height="60" viewBox="0 0 60 60" version="1.1">
	<rect x="0" y="0" width="100%" height="100%" fill="#bfbfbf" />
	<path d="M 48.739 7.267 C 47.860 7.945, 46.997 9.590, 46.821 10.922 C 46.416 13.976, 44.370 14.742, 43.547 12.147 C 43.204 11.068, 42.225 9.917, 41.371 9.589 C 39.499 8.871, 34.823 12.035, 32.094 15.867 C 30.314 18.368, 30.237 19.090, 31.352 22.864 C 32.035 25.178, 32.806 26.943, 33.064 26.786 C 33.322 26.629, 33.203 26.912, 32.800 27.416 C 32.397 27.920, 33.177 29.361, 34.534 30.619 C 37.209 33.098, 37.833 35.257, 35.629 34.411 C 34.875 34.122, 33.989 34.586, 33.660 35.443 C 33.332 36.299, 32.374 37, 31.531 37 C 28.677 37, 29.981 38.642, 33.574 39.574 C 37.298 40.539, 38.257 41.982, 35.885 43.052 C 30.098 45.663, 28.467 46.818, 28.145 48.534 C 27.834 50.185, 28.186 50.060, 30.340 47.750 C 31.750 46.237, 33.789 45, 34.870 45 C 35.952 45, 37.661 44.747, 38.668 44.439 C 39.676 44.130, 38.940 44.754, 37.034 45.826 L 33.569 47.774 39.283 47.637 C 42.425 47.562, 44.997 47.136, 44.998 46.691 C 44.999 46.246, 45.430 46.148, 45.956 46.473 C 47.688 47.543, 45.820 50.048, 42.145 51.584 C 39.341 52.755, 38.859 53.295, 39.992 53.995 C 41.169 54.722, 40.972 55.089, 38.976 55.885 C 37.614 56.429, 37.111 56.902, 37.857 56.937 C 38.643 56.973, 38.972 57.632, 38.638 58.500 C 37.458 61.575, 42.551 60.045, 46.130 56.250 C 53.906 48.003, 58.898 37.716, 57.612 32.591 C 56.562 28.408, 55.281 29.597, 54.552 35.430 C 53.875 40.849, 51.844 44.174, 50.520 42.032 C 50.158 41.447, 49.443 41.226, 48.931 41.543 C 48.419 41.859, 48 41.390, 48 40.500 C 48 39.610, 48.450 39.160, 49 39.500 C 50.293 40.299, 50.261 39.667, 48.854 36.578 C 48.223 35.195, 47.354 34.281, 46.923 34.548 C 46.491 34.814, 45.856 34.575, 45.510 34.016 C 45.165 33.457, 45.344 33, 45.910 33 C 46.475 33, 46.666 32.212, 46.334 31.250 C 45.763 29.594, 45.805 29.593, 47.115 31.231 C 48.105 32.469, 48.928 32.687, 50 31.997 C 50.838 31.457, 50.990 31.024, 50.344 31.015 C 49.705 31.007, 49.408 30.155, 49.681 29.113 C 49.952 28.075, 49.694 26.929, 49.108 26.567 C 47.702 25.698, 43.776 27.828, 44.531 29.050 C 45.366 30.402, 42.318 30.561, 37.179 29.435 C 34.736 28.900, 34.666 26.596, 37.086 26.365 C 37.864 26.291, 38.994 26.179, 39.597 26.115 C 40.200 26.052, 41.732 25.100, 43 24 C 45.463 21.864, 48 21.356, 48 23 C 48 23.550, 47.518 24, 46.929 24 C 46.339 24, 45.182 24.675, 44.357 25.500 C 42.435 27.422, 43.920 27.445, 46.646 25.535 C 47.796 24.730, 48.909 24.244, 49.119 24.457 C 49.328 24.669, 49.358 21.841, 49.183 18.171 C 49.009 14.502, 49.318 10.375, 49.870 9 L 50.873 6.500 51.055 9.500 C 51.155 11.150, 51.216 12.741, 51.190 13.036 C 51.164 13.331, 51.958 16.031, 52.956 19.036 L 54.769 24.500 54.354 19.500 C 53.411 8.143, 51.892 4.833, 48.739 7.267 M 18.323 20.678 C 17.125 20.921, 15.641 21.728, 15.024 22.471 C 14.103 23.581, 14.670 23.737, 18.201 23.341 L 22.500 22.859 18.750 25.126 C 15.131 27.314, 13.414 30.546, 16.500 29.362 C 17.325 29.045, 18 28.440, 18 28.018 C 18 27.596, 19.169 27.250, 20.597 27.250 C 23.613 27.250, 27.270 24.042, 26.207 22.329 C 25.328 20.914, 21.308 20.072, 18.323 20.678 M 35.500 22 C 33.727 23.959, 33.753 24, 36.786 24 C 38.489 24, 40.134 23.592, 40.442 23.093 C 40.751 22.595, 39.990 22.448, 38.751 22.767 C 36.746 23.283, 36.650 23.164, 37.872 21.673 C 39.823 19.295, 37.681 19.590, 35.500 22 M 6 24.665 C 6 26.258, 13.288 37, 14.369 37 C 14.886 37, 14.614 36.212, 13.763 35.250 C 12.912 34.288, 10.818 31.274, 9.108 28.554 C 7.399 25.834, 6 24.084, 6 24.665 M 55 27 C 55 27.550, 55.472 28, 56.048 28 C 56.625 28, 57.732 29.462, 58.509 31.250 L 59.922 34.500 59.961 31.285 C 59.987 29.103, 59.379 27.738, 58.066 27.035 C 55.647 25.741, 55 25.733, 55 27 M 24.079 29.200 C 24.036 30.135, 23.212 31.359, 22.250 31.920 C 21.288 32.481, 21.007 32.953, 21.628 32.970 C 23.278 33.014, 25.272 30.274, 24.673 28.784 C 24.341 27.957, 24.130 28.105, 24.079 29.200 M 29 30.059 C 29 30.641, 29.450 30.840, 30 30.500 C 30.550 30.160, 31 29.684, 31 29.441 C 31 29.198, 30.550 29, 30 29 C 29.450 29, 29 29.477, 29 30.059 M 26.130 37.444 C 25.455 39.062, 25.048 41.987, 25.226 43.944 L 25.550 47.500 26.834 43.173 C 27.541 40.792, 27.947 37.867, 27.738 36.673 C 27.390 34.686, 27.252 34.751, 26.130 37.444 M 58.735 44.401 C 57.745 55.046, 57.810 60, 58.941 60 C 60.647 60, 60.779 58.609, 60.121 47.500 L 59.471 36.500 58.735 44.401 M 15.450 46.840 C 14.928 47.302, 12.925 48.289, 11 49.033 C 4.264 51.638, 1.026 54.302, 1.012 57.250 L 1 60 10 60 C 14.950 60, 19 59.753, 19 59.450 C 19 59.148, 18.281 57.511, 17.403 55.812 C 16.127 53.344, 16.036 52.217, 16.951 50.209 C 18.133 47.614, 17.128 45.356, 15.450 46.840 M 26.695 57.943 C 26.991 59.074, 27.631 60, 28.117 60 C 29.465 60, 29.170 58.386, 27.579 57.065 C 26.412 56.097, 26.254 56.255, 26.695 57.943" stroke="none" fill="#3467df" fill-rule="evenodd"/>
</svg>