<svg xmlns="http://www.w3.org/2000/svg" width="240" height="120" viewBox="0 0 240 120" version="1.1">
	<rect x="0" y="0" width="100%" height="100%" fill="#bfbfbf" />
	<path d="M 0.239 43.187 L 0.500 86.373 3.786 87.224 C 7.813 88.268, 6.989 90.448, 2.879 89.626 L 0 89.050 0 104.525 L 0 120 45.288 120 L 90.576 120 94.038 117.041 C 96.630 114.825, 98.537 114.071, 101.629 114.041 C 105.257 114.005, 105.908 113.636, 107 111 C 107.683 109.350, 108.528 108, 108.877 108 C 109.226 108, 110.109 109.350, 110.840 111 C 111.773 113.109, 112.867 114, 114.525 114 C 115.821 114, 117.160 114.450, 117.500 115 C 117.840 115.550, 117.416 116, 116.559 116 C 114.816 116, 114.616 116.846, 115.886 118.850 C 116.560 119.914, 119.096 120.069, 127.848 119.584 C 140.106 118.904, 142.804 118.200, 145.904 114.873 C 147.057 113.635, 148 113.088, 148 113.656 C 148 114.225, 147.089 115.514, 145.976 116.521 C 142.789 119.406, 145.104 119.968, 160.250 119.985 L 174 120 174 111.715 C 174 105.455, 173.377 101.605, 171.451 95.965 C 166.272 80.793, 165.307 74.328, 167.131 67.024 C 167.359 66.112, 166.640 65.416, 165.250 65.204 C 163.531 64.942, 163 65.349, 163 66.930 C 163 68.471, 162.361 69, 160.500 69 C 157.580 69, 157.575 68.972, 159.491 62.658 C 160.745 58.523, 160.757 57.614, 159.568 56.426 C 158.380 55.237, 157.876 55.546, 156.110 58.538 C 154.711 60.909, 153.066 62.237, 151.022 62.646 C 148.500 63.150, 148 63.726, 148 66.125 C 148 68.333, 147.536 69, 146 69 C 144.444 69, 144 68.333, 144 66 C 144 64.350, 143.790 63, 143.534 63 C 141.810 63, 136 66.613, 136 67.685 C 136 69.783, 132.200 69.204, 131.500 67 C 131.084 65.689, 129.987 65, 128.316 65 C 126.259 65, 125.868 65.386, 126.290 67 C 126.727 68.673, 126.320 69, 123.799 69 C 121.339 69, 120.910 68.679, 121.462 67.250 C 121.833 66.288, 123.078 61.794, 124.227 57.263 L 126.316 49.027 130.216 49.180 C 134.524 49.348, 138.012 52.584, 137.985 56.385 C 137.972 58.117, 137.794 58.228, 137 57 C 136.296 55.910, 136.026 55.858, 136.015 56.809 C 136.007 57.529, 135.507 57.813, 134.904 57.441 C 134.240 57.030, 133.944 57.422, 134.154 58.434 C 134.344 59.354, 134.838 60.082, 135.250 60.053 C 135.662 60.024, 137.800 60, 140 60 L 144 60 144 54.500 L 144 49 147.250 49.012 C 149.037 49.018, 152.975 49.688, 156 50.500 C 162.836 52.335, 163 52.335, 163 50.500 C 163 49.675, 163.787 48.998, 164.750 48.995 C 166.080 48.991, 165.780 48.400, 163.500 46.531 C 161.676 45.036, 159.187 44.058, 157.151 44.036 C 152.287 43.984, 147 41.215, 147 38.719 C 147 37.590, 147.284 36.951, 147.631 37.298 C 147.979 37.645, 148.991 37.561, 149.881 37.111 C 151.889 36.097, 158.291 37.720, 157.477 39.038 C 157.150 39.567, 157.772 40, 158.859 40 C 162.211 40, 164 41.124, 164 43.229 C 164 44.968, 164.221 45.061, 165.608 43.910 C 166.976 42.775, 167.433 42.868, 168.664 44.538 C 169.460 45.617, 170.768 46.366, 171.572 46.203 C 172.375 46.039, 172.971 46.264, 172.897 46.703 C 172.588 48.541, 173.085 49.415, 173.800 48.290 C 174.351 47.423, 174.935 47.666, 175.859 49.147 C 177.103 51.138, 176.983 51.200, 172.561 50.848 C 169.015 50.566, 168.089 50.791, 168.490 51.835 C 168.775 52.578, 169.280 54.269, 169.613 55.593 C 170.192 57.902, 172 59.010, 172 57.057 C 172 56.538, 173.350 55.316, 175 54.341 C 177.155 53.068, 178 51.808, 178 49.869 C 178 46.951, 172.357 35.677, 166.689 27.270 C 164.017 23.308, 163.231 21.186, 163.443 18.513 C 163.644 15.978, 163.404 15.250, 162.591 15.925 C 161.768 16.608, 161.394 14.803, 161.221 9.323 C 161.090 5.175, 160.735 1.381, 160.432 0.891 C 160.130 0.401, 155.319 0, 149.741 0 L 139.601 0 145.254 5.039 C 148.851 8.245, 150.704 10.609, 150.347 11.539 C 150.005 12.428, 150.385 13, 151.316 13 C 153.277 13, 158.469 18.189, 161.747 23.425 C 163.151 25.666, 164.614 27.725, 165 28 C 166.171 28.835, 170.661 36.352, 171.421 38.750 C 172.347 41.670, 169.814 41.814, 167 39 C 165.900 37.900, 164.311 37, 163.469 37 C 162.626 37, 161.645 36.212, 161.288 35.250 C 160.519 33.176, 157.121 30, 155.673 30 C 155.111 30, 155.742 31.187, 157.076 32.637 C 158.539 34.229, 158.906 35.090, 158 34.810 C 157.175 34.555, 155.484 32.806, 154.241 30.923 C 149.420 23.617, 143.083 18, 139.662 18 C 138.903 18, 136.306 16.297, 133.891 14.215 C 131.476 12.133, 128.276 9.656, 126.780 8.711 C 124.471 7.253, 124.150 7.226, 124.651 8.534 C 124.976 9.381, 126.557 10.754, 128.164 11.585 C 129.771 12.416, 133.925 15.505, 137.396 18.448 C 140.866 21.392, 145.417 24.679, 147.510 25.753 L 151.314 27.705 146.407 28.292 C 141.822 28.842, 141.073 28.591, 135 24.474 C 128.912 20.348, 117.862 16.349, 115.899 17.563 C 115.225 17.979, 111.899 16.382, 109.060 14.280 C 108.641 13.969, 112.284 11.074, 114.466 9.984 C 115.035 9.699, 118.645 7.449, 122.489 4.984 L 129.479 0.500 126.094 0.176 C 124.061 -0.019, 122.375 0.380, 121.870 1.176 C 121.408 1.904, 121.024 2.107, 121.015 1.628 C 121.007 1.148, 120.325 1.315, 119.500 2 C 118.559 2.781, 118 2.850, 118 2.185 C 118 0.849, 118.309 0.871, 95.072 0.513 C 79.494 0.272, 75.368 0.489, 74.251 1.607 C 73.059 2.798, 72.640 2.782, 71.357 1.500 C 70.081 0.224, 64.642 0, 34.918 0 L -0.021 0 0.239 43.187 M 171.445 0.911 C 171.754 1.411, 172.224 3.960, 172.489 6.575 C 172.753 9.190, 173.214 12.099, 173.513 13.040 C 173.886 14.216, 173.374 14.931, 171.877 15.322 C 169.746 15.879, 169.767 15.971, 172.841 19.472 C 174.737 21.631, 176.242 24.663, 176.634 27.112 C 176.991 29.345, 177.894 31.406, 178.642 31.693 C 179.389 31.979, 180 32.752, 180 33.411 C 180 34.069, 181.168 36.951, 182.596 39.816 L 185.191 45.025 182.846 46.967 C 180.846 48.622, 181.459 48.531, 187 46.348 C 193.068 43.957, 196.938 40.925, 206.583 31.005 C 207.918 29.633, 210.226 26.105, 211.713 23.166 C 213.201 20.226, 215.324 17.186, 216.431 16.410 C 217.539 15.635, 218.007 14.993, 217.473 14.985 C 216.938 14.977, 217.625 14.403, 219 13.710 C 220.375 13.017, 221.644 11.449, 221.820 10.225 C 221.995 9.001, 222.584 8, 223.129 8 C 223.673 8, 223.840 7.550, 223.500 7 C 223.160 6.450, 223.246 5.982, 223.691 5.959 C 224.136 5.937, 226.058 4.587, 227.962 2.959 L 231.424 -0 227.751 -0 C 225.334 -0, 223.424 0.702, 222.166 2.053 C 221.114 3.182, 219.296 4.177, 218.127 4.265 C 215.824 4.439, 215.858 4.392, 215.504 7.860 C 215.371 9.158, 214.800 10.508, 214.235 10.860 C 213.669 11.212, 212.689 13.426, 212.057 15.780 C 211.365 18.354, 210.482 19.798, 209.842 19.402 C 208.509 18.579, 207.036 20.804, 207.015 23.669 C 206.993 26.775, 204.272 30.912, 199.313 35.376 C 195.726 38.606, 194.757 39.043, 193.498 37.998 C 192.667 37.309, 192.030 35.565, 192.081 34.122 C 192.132 32.680, 191.442 29.700, 190.548 27.500 L 188.922 23.500 189.341 28.273 C 189.687 32.223, 189.524 32.850, 188.393 31.911 C 187.250 30.963, 187.208 31.299, 188.138 33.966 C 188.950 36.296, 188.952 37.809, 188.146 39.578 C 185.835 44.650, 183.883 42.004, 182.189 31.500 C 180.188 19.097, 180.034 16.903, 181.217 17.634 C 181.986 18.109, 182.126 16.937, 181.685 13.722 C 181.299 10.901, 181.586 7.370, 182.430 4.566 L 183.804 0 177.343 0 C 173.713 0, 171.129 0.399, 171.445 0.911 M 200.667 0.667 C 200.300 1.033, 200 2.174, 200 3.202 C 200 4.230, 199.213 6.272, 198.250 7.742 C 197.226 9.304, 196.454 12.506, 196.389 15.456 C 196.328 18.230, 195.961 22.075, 195.573 24 C 194.972 26.978, 195.044 27.202, 196.051 25.500 C 196.703 24.400, 198.259 21.925, 199.509 20 C 200.759 18.075, 202.560 14.083, 203.511 11.130 C 204.462 8.176, 206.087 4.913, 207.120 3.880 C 208.154 2.846, 209 1.550, 209 1 C 209 -0.104, 201.729 -0.395, 200.667 0.667 M 77.500 5.578 C 75.300 7.444, 73.950 8.964, 74.500 8.956 C 75.636 8.939, 82.375 3.037, 81.845 2.522 C 81.655 2.337, 79.700 3.713, 77.500 5.578 M 100.065 6.421 C 99.098 7.587, 99.254 7.746, 100.932 7.308 C 102.057 7.013, 102.731 6.374, 102.430 5.886 C 101.697 4.701, 101.446 4.757, 100.065 6.421 M 189 11 C 189 12.867, 189.267 13.133, 190.200 12.200 C 191.133 11.267, 191.133 10.733, 190.200 9.800 C 189.267 8.867, 189 9.133, 189 11 M 235.577 11.700 C 236.063 14.192, 235.649 14.753, 231.812 16.797 C 229.440 18.061, 225.700 20.688, 223.500 22.635 L 219.500 26.176 224.500 23.416 C 227.250 21.898, 230.008 20.273, 230.628 19.806 C 231.259 19.331, 233.023 19.410, 234.628 19.984 C 237.142 20.883, 237.282 20.841, 235.750 19.646 C 233.800 18.124, 233.482 17, 235 17 C 235.550 17, 236.900 16.100, 238 15 C 239.556 13.444, 239.667 13, 238.500 13 C 237.675 13, 237 12.352, 237 11.559 C 237 10.766, 236.557 9.844, 236.015 9.509 C 235.414 9.138, 235.243 9.991, 235.577 11.700 M 115 15.559 C 115 16.416, 115.450 16.840, 116 16.500 C 116.550 16.160, 117 15.459, 117 14.941 C 117 14.423, 116.550 14, 116 14 C 115.450 14, 115 14.702, 115 15.559 M 37.590 17.626 C 37.300 18.382, 36.374 19, 35.531 19 C 34.689 19, 34 19.498, 34 20.107 C 34 20.716, 33.438 21, 32.750 20.738 C 30.231 19.780, 27 21.858, 27 24.436 C 27 26.249, 26.587 26.779, 25.500 26.362 C 24.543 25.994, 24 26.379, 24 27.424 C 24 28.326, 23.212 29.353, 22.250 29.708 C 21.288 30.064, 20.230 30.754, 19.900 31.244 C 19.570 31.733, 18.445 32.250, 17.400 32.393 C 16.355 32.536, 15.056 33.631, 14.513 34.826 C 13.970 36.022, 12.677 37, 11.640 37 C 10.041 37, 9.953 37.238, 11.058 38.570 C 11.774 39.433, 13.205 39.918, 14.237 39.648 C 15.796 39.240, 15.907 39.408, 14.888 40.635 C 13.901 41.825, 13.938 42.053, 15.081 41.806 C 15.861 41.638, 16.831 41.050, 17.235 40.500 C 17.690 39.881, 17.975 39.976, 17.985 40.750 C 17.993 41.438, 18.477 42, 19.059 42 C 19.641 42, 19.887 41.627, 19.605 41.171 C 19.323 40.714, 20.059 40.412, 21.239 40.499 C 22.420 40.586, 23.553 41.159, 23.757 41.772 C 23.962 42.386, 24.781 42.638, 25.577 42.332 C 26.374 42.026, 27.689 42.327, 28.500 43 C 29.311 43.673, 30.632 43.971, 31.436 43.663 C 32.446 43.275, 32.715 43.578, 32.308 44.641 C 31.862 45.801, 32.305 46.109, 34.108 45.891 C 35.424 45.732, 37.476 46.137, 38.669 46.793 C 40.366 47.724, 40.949 47.713, 41.343 46.742 C 41.723 45.808, 42.101 45.864, 42.868 46.968 C 43.737 48.220, 44.153 48.129, 45.696 46.350 C 47.483 44.290, 47.546 44.287, 50.987 46.133 C 54.102 47.803, 54.310 48.580, 51.500 48.047 C 50.950 47.943, 51.063 48.429, 51.750 49.129 C 52.569 49.962, 53 53.605, 53 59.700 L 53 69 57.500 69 C 62.700 69, 66 66.477, 66 62.500 C 66 59.291, 62.709 56, 59.500 56 C 57.944 56, 57 55.433, 57 54.500 C 57 53.452, 58.056 53, 60.500 53 C 63.333 53, 64 52.619, 64 51 C 64 49.900, 64.661 49, 65.469 49 C 66.341 49, 66.711 48.411, 66.380 47.548 C 65.757 45.923, 60.065 43.749, 57.903 44.309 C 57.131 44.509, 56.837 44.483, 57.250 44.253 C 58.906 43.326, 57.851 41.001, 55.507 40.412 C 54.136 40.068, 53.236 39.427, 53.508 38.987 C 53.780 38.548, 54.851 38.410, 55.888 38.681 C 58.199 39.285, 59.565 37.386, 58.095 35.614 C 57.502 34.900, 57.292 34.041, 57.628 33.706 C 58.482 32.851, 55.451 30, 53.688 30 C 52.888 30, 51.997 29.097, 51.709 27.993 C 51.381 26.741, 50.028 25.756, 48.108 25.372 C 46.417 25.033, 45.238 24.424, 45.489 24.018 C 45.740 23.612, 44.184 21.698, 42.031 19.765 C 39.187 17.212, 37.973 16.627, 37.590 17.626 M 187 17.918 C 187 20.560, 188.058 23.082, 188.938 22.538 C 189.939 21.920, 188.987 16, 187.887 16 C 187.399 16, 187 16.863, 187 17.918 M 97.500 19 C 97.840 19.550, 98.766 20, 99.559 20 C 100.352 20, 101 19.550, 101 19 C 101 18.450, 100.073 18, 98.941 18 C 97.809 18, 97.160 18.450, 97.500 19 M 102.500 20 C 102.160 20.550, 102.359 21, 102.941 21 C 103.523 21, 104 20.550, 104 20 C 104 19.450, 103.802 19, 103.559 19 C 103.316 19, 102.840 19.450, 102.500 20 M 105 22 C 105 22.550, 103.987 23.007, 102.750 23.015 C 101.513 23.024, 99.925 23.396, 99.222 23.842 C 97.610 24.865, 100.775 26.426, 110.942 29.623 C 117.816 31.785, 118.519 31.840, 120.168 30.348 C 121.150 29.460, 121.736 28.381, 121.470 27.952 C 121.205 27.522, 121.553 26.943, 122.244 26.664 C 123.025 26.350, 122.860 26.128, 121.809 26.079 C 120.879 26.036, 119.840 26.450, 119.500 27 C 118.597 28.461, 117 28.221, 117 26.625 C 117 25.809, 115.937 25.250, 114.386 25.250 C 112.949 25.250, 111.486 24.856, 111.136 24.375 C 110.786 23.894, 109.600 23.500, 108.500 23.500 C 107.400 23.500, 106.612 22.938, 106.750 22.250 C 106.888 21.563, 106.550 21, 106 21 C 105.450 21, 105 21.450, 105 22 M 128.441 23.514 C 129.509 24.331, 130.971 25, 131.691 25 C 133.921 25, 133.143 24.244, 129.750 23.112 C 126.777 22.120, 126.665 22.154, 128.441 23.514 M 222.570 26.886 C 222.269 27.374, 222.943 28.013, 224.068 28.308 C 225.746 28.746, 225.902 28.587, 224.935 27.421 C 223.554 25.757, 223.303 25.701, 222.570 26.886 M 117.278 34.250 C 111.004 39.809, 106.582 44.915, 107.364 45.697 C 107.707 46.040, 108.924 45.474, 110.069 44.438 C 112.135 42.568, 112.145 42.574, 111.467 45.277 C 111.031 47.014, 111.184 48, 111.892 48 C 112.501 48, 113 47.550, 113 47 C 113 46.450, 113.338 46, 113.750 46 C 114.162 46, 114.500 47.125, 114.500 48.500 C 114.500 51.492, 113.875 51.625, 111.606 49.117 C 110.186 47.548, 109.495 47.423, 107.459 48.367 C 106.115 48.990, 105.012 50.339, 105.008 51.365 C 104.997 53.858, 100.101 62.747, 98.373 63.410 C 97.375 63.793, 97 63.008, 97 60.535 C 97 57.567, 97.351 57.092, 99.750 56.816 C 101.728 56.589, 102.500 55.938, 102.500 54.500 C 102.500 52.918, 101.731 52.436, 98.826 52.194 C 96.805 52.026, 94.613 51.238, 93.954 50.444 C 93.294 49.650, 91.656 49, 90.312 49 C 84.526 49, 82.062 53.027, 82.788 61.295 C 83.308 67.220, 86.113 69.568, 91.608 68.676 C 94.684 68.177, 95.084 68.332, 94.503 69.799 C 94.133 70.734, 93.700 72.850, 93.541 74.500 C 93.382 76.150, 93.452 76.713, 93.695 75.750 C 93.939 74.787, 94.584 74, 95.129 74 C 95.673 74, 95.840 74.450, 95.500 75 C 94.474 76.661, 98.187 76.055, 103.745 73.655 C 107.813 71.899, 108.722 71.122, 107.795 70.195 C 106.868 69.268, 106.982 69, 108.300 69 C 109.576 69, 110 68.127, 110 65.500 C 110 63.575, 110.338 61.966, 110.750 61.923 C 111.162 61.881, 112.287 61.696, 113.250 61.512 C 114.675 61.239, 115 61.902, 115 65.088 C 115 68.620, 115.249 69, 117.564 69 L 120.129 69 119.814 58.625 C 119.572 50.635, 119.787 48.361, 120.750 48.732 C 121.438 48.997, 122.014 49.728, 122.032 50.357 C 122.066 51.577, 125 48.131, 125 46.871 C 125 46.461, 122.750 44.900, 120 43.403 C 114.980 40.671, 114.144 39.647, 116 38.500 C 116.550 38.160, 117.001 38.246, 117.002 38.691 C 117.005 39.963, 125.495 45, 127.636 45 C 128.857 45, 129.976 43.903, 130.694 42 C 131.317 40.350, 131.415 39, 130.913 39 C 130.411 39, 130 37.676, 130 36.057 C 130 32.936, 127.002 30, 123.814 30 C 122.857 30, 119.916 31.913, 117.278 34.250 M 130.485 31.025 C 129.654 32.369, 131.836 33.191, 133.606 32.201 C 135.019 31.410, 134.956 31.222, 133.115 30.740 C 131.953 30.436, 130.769 30.564, 130.485 31.025 M 21 33.500 C 21 34.325, 21.450 35, 22 35 C 22.550 35, 23 34.325, 23 33.500 C 23 32.675, 22.550 32, 22 32 C 21.450 32, 21 32.675, 21 33.500 M 236.614 35.563 C 236.284 36.423, 235.561 36.847, 235.007 36.504 C 234.453 36.162, 234 36.282, 234 36.770 C 234 38.384, 224.281 42.287, 221.559 41.766 C 218.179 41.120, 217.239 42.592, 220.507 43.412 C 222.907 44.015, 224.053 46, 222 46 C 221.450 46, 221.113 46.542, 221.250 47.205 C 221.388 47.867, 220.938 48.486, 220.250 48.580 C 219.563 48.673, 218.743 48.806, 218.429 48.875 C 218.114 48.944, 218.631 49.774, 219.576 50.719 C 221.201 52.344, 221.564 52.140, 226.238 46.969 C 228.957 43.961, 231.004 41.950, 230.788 42.500 C 228.694 47.821, 226.735 50.804, 224.574 51.961 C 222.310 53.172, 222 53.971, 222 58.592 C 222 62.696, 221.468 64.478, 219.572 66.732 C 217.878 68.746, 217.420 70.052, 218.057 71.058 C 218.559 71.851, 218.976 72.159, 218.985 71.743 C 218.993 71.326, 221.137 72.479, 223.750 74.305 C 226.363 76.130, 229.339 77.939, 230.363 78.324 C 231.652 78.808, 232.059 79.666, 231.683 81.104 C 231.161 83.100, 231.218 83.113, 233.070 81.437 C 235.302 79.417, 235.594 80.632, 233.531 83.355 C 232.203 85.109, 231.645 84.867, 223.313 78.921 C 218.466 75.462, 212.640 70.873, 210.367 68.722 C 205.996 64.588, 203.640 65.001, 207.028 69.309 C 208.129 70.708, 211.699 73.859, 214.962 76.312 C 218.225 78.765, 220.618 81.048, 220.281 81.386 C 219.943 81.724, 220.332 82, 221.145 82 C 223.123 82, 227.196 85.874, 226.463 87.060 C 225.208 89.090, 223.156 87.747, 218.350 81.749 C 215.595 78.311, 211.680 74.604, 209.651 73.511 L 205.961 71.524 201.448 73.918 L 196.935 76.312 194.163 73.656 C 192.564 72.124, 190.250 71, 188.695 71 C 187.213 71, 186 70.550, 186 70 C 186 69.450, 184.308 69, 182.241 69 C 179.564 69, 178.121 69.576, 177.232 71 C 176.418 72.304, 176.354 73, 177.051 73 C 177.638 73, 177.859 73.419, 177.542 73.932 C 177.225 74.445, 178.211 75.012, 179.733 75.192 L 182.500 75.520 179.500 77.293 L 176.500 79.065 179.750 78.453 C 181.788 78.069, 183 78.244, 183 78.921 C 183 79.514, 182.213 80.014, 181.250 80.030 C 179.724 80.057, 179.756 80.205, 181.500 81.192 C 182.600 81.814, 183.946 83.038, 184.491 83.911 C 185.702 85.854, 186.003 89, 184.977 89 C 184.564 89, 184.024 90.384, 183.776 92.076 C 183.420 94.501, 183.838 95.505, 185.757 96.826 C 188.255 98.544, 190.710 100.846, 192.533 103.178 C 193.101 103.905, 194.429 107.987, 195.483 112.250 L 197.401 120 206.700 120 C 211.815 120, 216 119.587, 216 119.082 C 216 116.971, 214.750 115.159, 213.599 115.600 C 212.840 115.892, 210.751 112.819, 208.182 107.635 C 205.882 102.993, 204 98.895, 204 98.528 C 204 98.161, 202.712 95.979, 201.137 93.680 C 195.626 85.634, 191.989 76.639, 195 78.500 C 195.550 78.840, 196 79.853, 196 80.751 C 196 83.449, 204.873 97.835, 210.341 104 C 214.364 108.537, 220 116.904, 220 118.341 C 220 119.665, 220.958 119.983, 224.750 119.916 L 229.500 119.831 225.250 117.878 C 220.655 115.766, 220.178 114.619, 222.511 111.288 C 223.380 110.047, 223.622 108.884, 223.080 108.549 C 222.562 108.229, 221.882 108.382, 221.568 108.889 C 220.756 110.203, 216.017 107.812, 216.008 106.083 C 216.004 105.304, 215.727 104.940, 215.394 105.273 C 214.069 106.598, 207.335 97.568, 207.847 95.152 C 208.229 93.349, 205.004 89.880, 203.696 90.688 C 203.063 91.079, 202.906 90.686, 203.294 89.676 C 203.643 88.767, 203.607 88.072, 203.214 88.130 C 200.406 88.549, 199.968 87.792, 200.391 83.250 C 200.633 80.638, 200.870 77.986, 200.916 77.357 C 200.962 76.728, 201.698 75.946, 202.552 75.618 C 203.442 75.277, 203.843 75.445, 203.493 76.011 C 203.157 76.555, 203.584 77, 204.441 77 C 205.298 77, 206.013 77.787, 206.028 78.750 C 206.043 79.713, 207.393 81.813, 209.028 83.417 C 210.662 85.021, 212 86.913, 212 87.621 C 212 89.015, 216.592 94, 217.876 94 C 218.309 94, 219.264 95.125, 220 96.500 C 220.736 97.875, 221.927 99, 222.646 99 C 223.365 99, 224.730 100.237, 225.679 101.750 C 227.543 104.723, 229.495 107.101, 232.250 109.757 C 233.213 110.685, 234 111.911, 234 112.482 C 234 113.052, 234.900 114.081, 236 114.768 C 237.100 115.455, 238 116.688, 238 117.508 C 238 118.329, 238.450 119, 239 119 C 239.550 119, 240 116.782, 240 114.072 C 240 109.251, 239.832 108.979, 232.370 101.660 C 225.454 94.877, 224.805 93.910, 225.443 91.338 C 225.831 89.777, 226.565 88.350, 227.074 88.167 C 227.583 87.983, 228 87.185, 228 86.394 C 228 85.166, 228.342 85.178, 230.330 86.480 C 231.611 87.320, 232.891 87.776, 233.173 87.494 C 233.455 87.211, 234.905 88.110, 236.395 89.490 C 237.884 90.871, 239.305 92, 239.552 92 C 239.798 92, 240 88.360, 240 83.910 C 240 76.738, 239.745 75.610, 237.750 73.962 L 235.500 72.104 237.750 72.668 C 240.627 73.391, 240.672 71.584, 237.827 69.592 C 235.975 68.294, 235.890 67.979, 237.250 67.458 C 238.127 67.121, 239.071 66.257, 239.347 65.538 C 239.748 64.492, 239.256 64.455, 236.886 65.349 C 233.282 66.710, 228.671 64.612, 228.204 61.398 C 227.975 59.821, 228.736 59.110, 231.587 58.235 C 234.905 57.216, 235.439 57.321, 237.046 59.303 C 238.026 60.511, 239.191 61.138, 239.635 60.696 C 240.079 60.253, 239.921 59.569, 239.284 59.175 C 238.646 58.781, 237.679 57.286, 237.134 55.853 C 236.305 53.672, 236.418 53.267, 237.822 53.373 C 239.269 53.483, 239.539 52.158, 239.786 43.750 C 240.019 35.831, 239.804 34, 238.643 34 C 237.857 34, 236.944 34.704, 236.614 35.563 M 83.760 38.945 C 82.099 40.906, 82.105 41, 83.887 41 C 84.915 41, 86.287 41.641, 86.938 42.425 C 88.287 44.051, 93.630 43.778, 93.250 42.103 C 93.112 41.496, 93.775 41, 94.723 41 C 97.558 41, 93.042 38.284, 88.949 37.528 C 86.204 37.021, 85.145 37.310, 83.760 38.945 M 189.250 40.944 C 185.730 43.880, 186.614 45.271, 190.417 42.779 C 192.296 41.547, 193.619 40.193, 193.358 39.770 C 192.643 38.613, 191.730 38.874, 189.250 40.944 M 7.461 41.064 C 7.097 41.652, 7.070 42.403, 7.400 42.733 C 7.730 43.063, 8 42.753, 8 42.044 C 8 41.003, 8.293 40.998, 9.524 42.020 C 10.362 42.716, 11.301 43.032, 11.610 42.724 C 11.919 42.415, 11.260 41.674, 10.146 41.078 C 8.712 40.310, 7.929 40.306, 7.461 41.064 M 236 41 C 235.175 41.533, 234.950 41.969, 235.500 41.969 C 236.050 41.969, 237.175 41.533, 238 41 C 238.825 40.467, 239.050 40.031, 238.500 40.031 C 237.950 40.031, 236.825 40.467, 236 41 M 209.938 42.759 C 209.110 43.727, 207.097 45.560, 205.466 46.834 C 203.835 48.107, 203.024 48.887, 203.665 48.568 C 204.305 48.249, 205.015 48.546, 205.243 49.230 C 205.547 50.141, 206.301 50.002, 208.079 48.704 C 209.410 47.732, 211.997 45.986, 213.826 44.824 C 216.300 43.254, 216.812 42.497, 215.826 41.872 C 213.718 40.535, 211.565 40.859, 209.938 42.759 M 51 44 C 51 44.550, 51.450 45, 52 45 C 52.550 45, 53 44.550, 53 44 C 53 43.450, 52.550 43, 52 43 C 51.450 43, 51 43.450, 51 44 M 67.880 48.166 C 67.661 48.900, 67.629 53.888, 67.809 59.250 C 68.107 68.105, 68.315 69, 70.069 69 C 71.581 69, 72 68.295, 72.001 65.750 C 72.001 62.969, 72.371 62.479, 74.559 62.352 C 78.730 62.111, 81.222 59.124, 80.815 54.854 C 80.621 52.827, 80.867 51.418, 81.361 51.723 C 81.855 52.029, 82.064 51.693, 81.826 50.977 C 81.345 49.536, 79.473 49.043, 73.500 48.785 C 71.300 48.690, 69.225 48.212, 68.889 47.722 C 68.553 47.233, 68.099 47.433, 67.880 48.166 M 22.625 52.125 C 22.281 53.844, 22 56.994, 22 59.125 C 22 61.667, 21.312 63.688, 20 65 C 18.900 66.100, 18 67.900, 18 69 C 18 70.333, 18.667 71, 20 71 C 21.100 71, 22 70.550, 22 70 C 22 69.450, 24.025 69, 26.500 69 C 30.508 69, 32.326 70.092, 30.250 71.253 C 29.837 71.483, 30.099 71.521, 30.832 71.336 C 31.564 71.151, 33.027 71, 34.082 71 C 35.449 71, 36 70.299, 36 68.559 C 36 67.216, 35.550 65.840, 35 65.500 C 34.450 65.160, 34 61.309, 34 56.941 L 34 49 28.625 49 C 23.405 49, 23.232 49.090, 22.625 52.125 M 37.655 50.829 C 35.129 53.620, 35.358 64.358, 38 67 C 40.677 69.677, 46.109 69.642, 48.561 66.932 C 51.225 63.989, 51.247 54.041, 48.595 51.107 C 46.142 48.394, 40 48.237, 37.655 50.829 M 189.750 49.575 C 189.338 49.992, 189.014 53.296, 189.030 56.917 C 189.053 61.878, 189.312 63.069, 190.080 61.750 C 191.227 59.781, 190.918 48.395, 189.750 49.575 M 195 54.121 C 195 59.534, 196.022 59.791, 198.500 55 C 200.262 51.593, 199.698 49.478, 196.974 49.273 C 195.252 49.143, 195 49.763, 195 54.121 M 88.250 52.718 C 86.329 53.407, 86.563 64.895, 88.513 65.643 C 91.234 66.688, 93 64.039, 93 58.913 C 93 53.991, 91.210 51.657, 88.250 52.718 M 26.139 59.106 C 24.768 65.745, 24.887 66.364, 27.357 65.417 C 28.624 64.930, 29 63.437, 29 58.893 C 29 55.652, 28.640 53, 28.200 53 C 27.760 53, 26.833 55.748, 26.139 59.106 M 40.709 53.624 C 39.345 54.988, 39.952 63.715, 41.500 65 C 44.231 67.267, 46.137 64.424, 45.797 58.589 C 45.549 54.346, 45.161 53.451, 43.459 53.208 C 42.336 53.047, 41.099 53.235, 40.709 53.624 M 148 56 C 148 58.683, 148.327 59.093, 150.250 58.820 C 151.898 58.585, 152.500 57.831, 152.500 56 C 152.500 54.169, 151.898 53.415, 150.250 53.180 C 148.327 52.907, 148 53.317, 148 56 M 181.986 56.750 C 181.979 58.813, 181.701 61.513, 181.370 62.750 C 180.938 64.362, 181.198 65, 182.290 65 C 183.357 65, 184.016 63.518, 184.494 60.046 C 184.868 57.321, 184.884 54.621, 184.528 54.046 C 183.186 51.873, 182 53.135, 181.986 56.750 M 212.035 54.934 C 209.337 59.976, 212.878 68.006, 216.481 65.016 C 218.011 63.746, 218.549 57.594, 217.393 54.582 C 216.550 52.386, 213.284 52.601, 212.035 54.934 M 205.385 56.439 C 205.081 57.231, 205.307 58.693, 205.886 59.689 C 206.781 61.228, 206.944 61.012, 206.970 58.250 C 207.002 54.822, 206.309 54.030, 205.385 56.439 M 72 58 C 72 58.550, 72.900 59, 74 59 C 75.100 59, 76 58.550, 76 58 C 76 57.450, 75.100 57, 74 57 C 72.900 57, 72 57.450, 72 58 M 128 59 C 128 60.100, 128.408 61, 128.906 61 C 129.405 61, 129.577 60.100, 129.290 59 C 129.002 57.900, 128.594 57, 128.383 57 C 128.173 57, 128 57.900, 128 59 M 165.158 59 C 165.158 60.375, 165.385 60.938, 165.662 60.250 C 165.940 59.563, 165.940 58.438, 165.662 57.750 C 165.385 57.063, 165.158 57.625, 165.158 59 M 199.651 60.468 C 199.341 61.275, 199.518 62.202, 200.044 62.527 C 200.570 62.852, 201 62.191, 201 61.059 C 201 58.644, 200.444 58.401, 199.651 60.468 M 57 62.333 C 57 65.424, 57.866 66.142, 60.131 64.930 C 62.414 63.708, 62.565 61.431, 60.418 60.607 C 57.705 59.566, 57 59.922, 57 62.333 M 135.459 63.067 C 135.096 63.653, 135.014 64.348, 135.276 64.610 C 135.538 64.872, 136.019 64.392, 136.345 63.543 C 137.021 61.781, 136.445 61.471, 135.459 63.067 M 81.500 70 C 81.160 70.550, 81.584 71, 82.441 71 C 83.298 71, 84 70.550, 84 70 C 84 69.450, 83.577 69, 83.059 69 C 82.541 69, 81.840 69.450, 81.500 70 M 162.500 71 C 162.840 71.550, 163.316 72, 163.559 72 C 163.802 72, 164 71.550, 164 71 C 164 70.450, 163.523 70, 162.941 70 C 162.359 70, 162.160 70.450, 162.500 71 M 160.181 75.081 C 159.442 76.265, 158.256 76.928, 157.439 76.615 C 156.648 76.311, 156 76.499, 156 77.031 C 156 77.564, 156.675 78, 157.500 78 C 158.325 78, 159 78.450, 159 79 C 159 79.550, 158.368 80, 157.595 80 C 155.783 80, 149.716 90.704, 150.628 92.293 C 151.009 92.957, 150.976 93.190, 150.554 92.810 C 150.132 92.431, 149.219 92.651, 148.524 93.300 C 147.600 94.163, 147.538 95.086, 148.291 96.740 C 149.469 99.325, 150.667 99.708, 150.667 97.500 C 150.667 96.675, 150.292 96, 149.833 96 C 149.375 96, 149 95.534, 149 94.965 C 149 94.266, 149.604 94.253, 150.858 94.924 C 152.367 95.732, 152.927 95.456, 153.837 93.459 C 154.473 92.063, 155.805 91, 156.920 91 C 158.861 91, 160.455 89.435, 160.485 87.500 C 160.493 86.950, 161.175 86.490, 162 86.478 C 163.050 86.463, 163.456 85.488, 163.353 83.233 C 163.272 81.460, 163.536 80.213, 163.939 80.462 C 164.342 80.711, 164.406 79.284, 164.082 77.290 C 163.384 72.996, 161.980 72.201, 160.181 75.081 M 98.013 77.134 C 90.764 80.470, 88 82.588, 88 84.808 C 88 85.851, 88.630 85.579, 90.076 83.913 C 91.981 81.716, 92.231 81.662, 93.125 83.260 C 94.084 84.972, 96.995 85.715, 97.006 84.250 C 97.009 83.838, 98.736 83.437, 100.843 83.360 C 102.950 83.283, 106.086 82.490, 107.810 81.598 C 110.672 80.118, 110.847 79.758, 109.806 77.474 C 108.961 75.618, 108.160 75.132, 106.708 75.593 C 105.415 76.003, 104.982 75.838, 105.434 75.107 C 106.437 73.484, 105.221 73.816, 98.013 77.134 M 129.013 78.892 C 127.645 79.273, 123.893 82.715, 120.676 86.542 L 114.827 93.500 117.664 94.016 C 120.409 94.515, 125.487 91.596, 124.539 90.064 C 124.003 89.196, 127.244 88.798, 135.250 88.749 C 138.963 88.726, 141.998 88.436, 141.996 88.104 C 141.984 86.150, 137.691 80.992, 134.931 79.616 C 133.150 78.727, 131.649 78.045, 131.596 78.100 C 131.543 78.155, 130.381 78.511, 129.013 78.892 M 9.564 90.707 C 9.022 92.132, 9.136 92.247, 10.124 91.267 C 10.808 90.588, 11.115 89.781, 10.807 89.474 C 10.499 89.166, 9.940 89.721, 9.564 90.707 M 236.991 95.489 C 238.240 96.994, 240 96.673, 240 94.941 C 240 94.423, 239.045 94, 237.878 94 C 236.111 94, 235.962 94.250, 236.991 95.489 M 129.625 96.798 C 129.354 97.237, 129.545 98.249, 130.051 99.048 C 130.768 100.182, 130.973 100.007, 130.985 98.250 C 131 95.937, 130.492 95.394, 129.625 96.798 M 93.500 99 C 93.160 99.550, 93.359 100, 93.941 100 C 94.523 100, 95 99.550, 95 99 C 95 98.450, 94.802 98, 94.559 98 C 94.316 98, 93.840 98.450, 93.500 99 M 96.051 98.500 C 96.062 99.050, 96.695 100.625, 97.458 102 C 98.658 104.160, 98.640 104.729, 97.329 106.183 C 96.492 107.111, 95.109 107.595, 94.242 107.263 C 93.205 106.865, 92.917 107.057, 93.395 107.830 C 94.297 109.289, 97 109.373, 97 107.941 C 97 107.359, 97.461 107.167, 98.025 107.515 C 98.588 107.864, 98.926 107.553, 98.775 106.824 C 98.609 106.024, 99.291 105.587, 100.500 105.721 C 101.600 105.842, 101.938 105.692, 101.250 105.388 C 100.563 105.083, 100 104.394, 100 103.858 C 100 103.321, 100.450 103.160, 101 103.500 C 102.801 104.613, 102.047 102.353, 100 100.500 C 98.900 99.505, 97.993 99.097, 97.985 99.595 C 97.976 100.093, 97.533 99.825, 97 99 C 96.467 98.175, 96.040 97.950, 96.051 98.500 M 116.638 100.500 C 116.322 101.325, 116.499 102, 117.031 102 C 117.564 102, 118 101.325, 118 100.500 C 118 99.675, 117.823 99, 117.607 99 C 117.391 99, 116.955 99.675, 116.638 100.500 M 98 100.882 C 98 101.432, 98.450 102.160, 99 102.500 C 99.550 102.840, 100 102.668, 100 102.118 C 100 101.568, 99.550 100.840, 99 100.500 C 98.450 100.160, 98 100.332, 98 100.882 M 115.188 104.063 C 115.428 104.784, 116.216 105.572, 116.938 105.813 C 117.688 106.063, 118.063 105.688, 117.813 104.938 C 117.572 104.216, 116.784 103.428, 116.063 103.188 C 115.313 102.938, 114.938 103.313, 115.188 104.063 M 145 104 C 145 104.550, 145.450 105, 146 105 C 146.550 105, 147 104.550, 147 104 C 147 103.450, 146.550 103, 146 103 C 145.450 103, 145 103.450, 145 104 M 140.490 106.016 C 140.144 106.575, 139.512 106.816, 139.084 106.552 C 138.656 106.287, 137.028 107.405, 135.466 109.036 C 132.701 111.921, 132.685 112, 134.858 112 C 137.133 112, 142 107.942, 142 106.045 C 142 104.717, 141.301 104.704, 140.490 106.016 M 97 116.059 C 97 116.641, 97.450 116.840, 98 116.500 C 98.550 116.160, 99 115.684, 99 115.441 C 99 115.198, 98.550 115, 98 115 C 97.450 115, 97 115.477, 97 116.059 M 93.559 118.532 C 92.491 119.339, 92.099 120, 92.686 120 C 93.274 120, 94.315 119.325, 95 118.500 C 96.557 116.624, 96.067 116.634, 93.559 118.532" stroke="none" fill="#3467df" fill-rule="evenodd"/>
</svg>