<svg xmlns="http://www.w3.org/2000/svg" width="60" height="60" viewBox="0 0 60 60" version="1.1">
	<rect x="0" y="0" width="100%" height="100%" fill="#bfbfbf" />
	<path d="M -0 13.622 C -0 25.992, 0.147 27.123, 1.599 25.918 C 3.055 24.709, 3.071 24.899, 1.780 28.046 C 0.839 30.338, 0.272 36.300, 0.096 45.765 L -0.170 60.030 30.165 59.765 L 60.500 59.500 60.696 29.750 C 60.816 11.575, 60.524 -0, 59.946 -0 C 59.426 -0, 59.066 0.337, 59.147 0.750 C 59.498 2.544, 57.644 10.102, 56.711 10.679 C 56.086 11.065, 55.889 10.531, 56.208 9.313 C 56.545 8.022, 56.056 6.892, 54.829 6.125 C 53.783 5.472, 52.504 3.826, 51.988 2.469 C 51.472 1.111, 50.382 0, 49.566 -0 C 48.374 -0, 48.540 0.933, 50.415 4.750 C 53.747 11.537, 54.115 16.925, 52.147 30.110 C 50.447 41.496, 48.330 47, 45.651 47 C 44.111 47, 39.742 42.592, 40.515 41.818 C 40.808 41.525, 40.362 40.716, 39.524 40.020 C 38.245 38.958, 38 39.077, 38 40.761 C 38 41.935, 37.159 42.987, 35.972 43.297 C 33.494 43.945, 26.024 40.956, 26.010 39.311 C 26.003 38.445, 24.752 38.547, 21.416 39.683 C 15.726 41.622, 12 40.394, 12 36.580 C 12 35.226, 11.528 33.827, 10.952 33.470 C 9.324 32.464, 10.014 22.068, 11.667 22.703 C 12.400 22.984, 13 22.716, 13 22.107 C 13 21.498, 12.310 21, 11.466 21 C 10.201 21, 10.042 20.077, 10.563 15.750 C 11.411 8.695, 12.842 3.216, 14.027 2.483 C 16.623 0.879, 14.312 0, 7.500 0 L 0 0 -0 13.622 M 34 0.383 C 34 1.293, 37.898 1.679, 39.139 0.893 C 40.064 0.307, 39.460 0.026, 37.250 0.015 C 35.462 0.007, 34 0.173, 34 0.383 M 0.335 14 C 0.296 24.190, 0.449 25.896, 0.955 20.957 C 1.325 17.358, 2.005 13.801, 2.468 13.052 C 3.021 12.156, 2.931 11.925, 2.203 12.375 C 1.452 12.839, 0.983 11.041, 0.741 6.779 C 0.545 3.326, 0.363 6.575, 0.335 14 M 14.591 20.853 C 14.300 21.323, 14.585 23.090, 15.223 24.780 C 16.194 27.353, 17.126 27.997, 20.942 28.732 C 23.702 29.265, 25.396 30.099, 25.236 30.848 C 25.033 31.796, 25.458 31.825, 27.050 30.973 C 28.574 30.158, 29.485 30.157, 30.467 30.972 C 32.499 32.659, 33.096 29.910, 31.176 27.707 C 29.733 26.052, 29.762 25.970, 31.556 26.644 C 33.338 27.314, 33.378 27.213, 32.033 25.437 C 31.226 24.372, 30.483 23.357, 30.383 23.183 C 30.108 22.708, 18.758 20.077, 16.809 20.036 C 15.879 20.016, 14.881 20.384, 14.591 20.853 M 17.500 23 C 17.840 23.550, 18.729 24, 19.476 24 C 20.222 24, 20.983 24.413, 21.167 24.918 C 21.350 25.422, 22.792 25.585, 24.371 25.278 L 27.241 24.721 24.006 23.360 C 20.216 21.767, 16.615 21.567, 17.500 23 M 38.853 26.670 C 37.175 27.115, 36.026 29.896, 36.029 33.500 C 36.030 35.086, 36.219 35.203, 36.939 34.064 C 37.729 32.817, 38.079 32.817, 39.616 34.064 C 40.721 34.962, 41.102 35.031, 40.633 34.250 C 39.724 32.737, 40.459 32.696, 45.007 34.006 C 47.924 34.847, 48.711 34.726, 49.782 33.272 C 50.907 31.743, 50.664 31.377, 47.782 30.264 L 44.500 28.997 47.750 29.325 C 51.996 29.754, 52.102 27.470, 47.875 26.625 C 44.519 25.954, 41.491 25.969, 38.853 26.670 M 41.813 28.683 C 42.534 28.972, 43.397 28.936, 43.729 28.604 C 44.061 28.272, 43.471 28.036, 42.417 28.079 C 41.252 28.127, 41.015 28.364, 41.813 28.683 M 0.389 47.500 C 0.390 54.650, 0.550 57.444, 0.742 53.708 C 0.935 49.973, 0.934 44.123, 0.739 40.708 C 0.545 37.294, 0.387 40.350, 0.389 47.500 M 22.507 42.989 C 22.157 43.555, 22.558 43.723, 23.448 43.382 C 25.180 42.717, 25.497 42, 24.059 42 C 23.541 42, 22.843 42.445, 22.507 42.989" stroke="none" fill="#3467df" fill-rule="evenodd"/>
</svg>