<svg xmlns="http://www.w3.org/2000/svg" width="250" height="200" viewBox="0 0 250 200" version="1.1">
	<rect x="0" y="0" width="100%" height="100%" fill="#bfbfbf" />
	<path d="M 0 6.500 L 0 13 106 13 L 212 13 212 40.607 C 212 66.526, 212.107 68.167, 213.750 67.445 C 217.348 65.863, 228.491 65.388, 233 66.624 C 235.475 67.303, 240.313 68.031, 243.750 68.243 L 250 68.628 250 43.467 C 250 29.629, 250.292 14.188, 250.650 9.154 L 251.299 0 125.650 0 L 0 0 0 6.500 M 0.320 7 C 0.320 10.575, 0.502 12.037, 0.723 10.250 C 0.945 8.462, 0.945 5.537, 0.723 3.750 C 0.502 1.962, 0.320 3.425, 0.320 7 M 75.749 18.652 C 74.989 20.319, 74.152 20.865, 73.072 20.398 C 70.269 19.186, 58.050 18.903, 55.997 20.002 C 54.642 20.727, 54 20.738, 54 20.035 C 54 18.607, 49.670 18.730, 48.200 20.200 C 47.267 21.133, 46.733 21.133, 45.800 20.200 C 44.332 18.732, 39.549 18.636, 36.957 20.023 C 35.616 20.741, 34.488 20.697, 33.174 19.877 C 30.735 18.353, 26 19.539, 26 21.674 C 26 23.182, 26.143 23.180, 27.829 21.655 C 30.112 19.589, 31.426 19.569, 33.429 21.571 C 35.600 23.743, 35.577 33.705, 33.394 36.117 C 31.906 37.761, 31.935 37.881, 33.784 37.741 C 34.882 37.659, 35.574 37.053, 35.322 36.397 C 35.070 35.740, 35.344 34.905, 35.932 34.542 C 36.519 34.179, 37 30.984, 37 27.441 L 37 21 41 21 L 45 21 45 28.140 C 45 33.767, 45.371 35.561, 46.750 36.608 C 49.329 38.566, 50.565 38.282, 48.655 36.171 C 46.259 33.524, 46.374 23.876, 48.829 21.655 C 51.185 19.523, 52.300 19.569, 54.398 21.888 C 55.691 23.316, 56.033 25.201, 55.803 29.638 C 55.546 34.603, 55.156 35.651, 53.250 36.487 C 52.013 37.030, 51 37.808, 51 38.216 C 51 40.079, 56.122 36.369, 56.712 34.079 L 57.376 31.500 58.088 34 C 58.573 35.701, 58.833 34.457, 58.900 30.110 C 58.978 25.118, 58.617 23.430, 57.250 22.392 C 55.721 21.231, 56.131 21.064, 60.500 21.064 C 64.869 21.064, 65.279 21.231, 63.750 22.392 C 62.396 23.420, 62 25.206, 62 30.291 C 62 35.722, 61.697 36.933, 60.250 37.279 C 58.870 37.608, 58.915 37.676, 60.459 37.598 C 61.660 37.538, 62.636 36.571, 62.980 35.100 L 63.543 32.701 64.750 35.350 C 65.414 36.808, 66.487 38, 67.134 38 C 67.874 38, 67.714 37.341, 66.703 36.224 C 62.970 32.099, 63.878 23.285, 68.313 20.598 C 73.128 17.681, 76.449 31.551, 72 36 C 69.320 38.680, 69.437 39.809, 72.146 37.405 C 73.690 36.035, 74.415 35.851, 74.729 36.750 C 75.340 38.495, 78.942 38.316, 79.636 36.506 C 79.952 35.684, 80.612 35.260, 81.105 35.565 C 81.597 35.869, 81.976 34.179, 81.946 31.809 L 81.891 27.500 80.196 31.917 C 77.325 39.396, 76 38.325, 76 28.524 C 76 23.017, 76.363 20.106, 77 20.500 C 77.550 20.840, 78.036 23.229, 78.081 25.809 L 78.162 30.500 80.206 25.750 C 83.287 18.589, 84.851 19.518, 85.257 28.750 L 85.598 36.500 85.767 28.500 C 85.963 19.265, 84.681 16.620, 79.896 16.380 C 77.565 16.262, 76.596 16.794, 75.749 18.652 M 77.291 18.392 C 77.830 20.036, 83 20.420, 82.998 18.816 C 82.996 18.041, 81.748 17.455, 79.962 17.392 C 78.151 17.327, 77.074 17.730, 77.291 18.392 M 101.245 19.583 C 100.560 20.316, 99.964 22.847, 99.921 25.208 C 99.853 28.881, 99.722 29.139, 99.009 27 C 98.550 25.625, 97.902 23.262, 97.568 21.750 C 97.160 19.900, 96.325 19, 95.016 19 C 92.639 19, 91.480 21.103, 90.610 27 C 90.245 29.475, 89.683 32.962, 89.362 34.750 C 88.847 37.611, 89.042 38, 90.982 38 C 92.346 38, 93.387 37.237, 93.710 36 C 93.998 34.900, 94.631 34, 95.117 34 C 95.602 34, 96 34.900, 96 36 C 96 37.704, 96.628 37.983, 100.250 37.884 C 102.588 37.820, 103.713 37.562, 102.750 37.311 C 101.268 36.923, 101 35.632, 101 28.866 L 101 20.879 104.750 21.190 C 108.274 21.481, 108.518 21.719, 108.804 25.142 C 109.073 28.368, 108.759 28.939, 106.054 30.136 C 103.917 31.082, 103 32.184, 103 33.803 C 103 35.117, 103.440 35.846, 104.016 35.490 C 104.575 35.144, 104.805 34.493, 104.526 34.042 C 104.247 33.591, 105.590 32.025, 107.510 30.560 C 111.288 27.679, 111.870 28.417, 109.474 33.050 C 108.635 34.672, 108.342 36, 108.823 36 C 109.303 36, 110.378 34.265, 111.211 32.145 C 112.487 28.897, 112.516 27.912, 111.398 25.895 C 110.668 24.578, 110.055 22.938, 110.035 22.250 C 109.978 20.218, 112.141 20.825, 112.710 23 C 113.426 25.738, 114.655 25.511, 115.411 22.500 C 115.756 21.125, 116.532 20, 117.136 20 C 117.842 20, 117.975 20.980, 117.509 22.750 C 116.502 26.570, 116.466 31, 117.414 34.250 C 117.920 35.984, 117.838 37, 117.192 37 C 116.628 37, 115.738 35.763, 115.214 34.250 L 114.262 31.500 112.971 34.250 C 112.260 35.763, 111.050 37, 110.280 37 C 109.511 37, 109.134 37.408, 109.442 37.906 C 109.750 38.404, 110.896 38.578, 111.990 38.292 C 113.083 38.007, 113.731 37.374, 113.430 36.886 C 113.128 36.399, 113.332 36, 113.882 36 C 114.432 36, 115.160 36.450, 115.500 37 C 115.840 37.550, 117.554 37.964, 119.309 37.921 C 121.064 37.878, 121.938 37.615, 121.250 37.338 C 119.708 36.715, 119.467 21, 121 21 C 121.550 21, 122.023 23.362, 122.052 26.250 L 122.104 31.500 124.122 26.250 C 127.109 18.477, 128.996 19.248, 129.015 28.250 C 129.024 32.237, 129.467 36.175, 130 37 C 130.667 38.031, 130.974 35.747, 130.985 29.690 L 131 20.879 134.750 21.190 C 138.433 21.494, 138.501 21.576, 138.536 25.703 C 138.557 28.015, 138.950 30.265, 139.411 30.703 C 139.871 31.141, 139.978 30.600, 139.647 29.500 C 139.316 28.400, 139.443 26.866, 139.929 26.092 C 140.771 24.751, 139.421 20.178, 138.089 19.859 C 135.351 19.201, 126.251 19.454, 125.294 20.214 C 124.630 20.741, 123.505 20.804, 122.794 20.355 C 120.971 19.203, 116.084 19.056, 115.418 20.133 C 115.112 20.628, 114.446 20.776, 113.938 20.462 C 113.429 20.147, 111.098 19.676, 108.757 19.414 C 106.416 19.153, 104.048 18.784, 103.495 18.594 C 102.942 18.405, 101.929 18.850, 101.245 19.583 M 16.441 20.468 C 14.195 22.167, 15.228 22.483, 18.066 20.965 C 20.781 19.512, 24 21.416, 24 24.476 C 24 25.799, 23.547 27.162, 22.992 27.505 C 22.368 27.891, 22.558 28.701, 23.492 29.635 C 25.209 31.352, 25.489 34.580, 24 35.500 C 23.450 35.840, 23 36.627, 23 37.250 C 23 37.873, 23.643 37.509, 24.429 36.441 C 25.760 34.632, 25.903 34.619, 26.536 36.250 C 26.909 37.212, 27.686 38, 28.262 38 C 28.838 38, 28.565 37.177, 27.655 36.171 C 26.525 34.922, 26 32.545, 26 28.671 C 26 20.419, 21.552 16.602, 16.441 20.468 M 93.732 20.663 C 92.832 22.189, 89.910 36.243, 90.393 36.726 C 91.317 37.651, 93 35.853, 93 33.941 C 93 31.117, 95.852 31.561, 96.589 34.500 C 96.934 35.875, 97.790 37, 98.490 37 C 99.488 37, 99.411 35.394, 98.131 29.549 C 96.575 22.443, 94.799 18.854, 93.732 20.663 M 16.952 23.897 C 17.751 24.431, 18.763 24.646, 19.202 24.375 C 19.641 24.104, 20 24.310, 20 24.834 C 20 25.358, 19.325 26.045, 18.500 26.362 C 16.343 27.189, 16.653 29.755, 19 30.500 C 21.856 31.407, 21.529 34, 18.559 34 C 15.544 34, 14.301 35.767, 16.132 37.450 C 17.001 38.248, 18.412 38.432, 20 37.953 C 22.343 37.247, 22.296 37.193, 19.250 37.100 C 15.457 36.983, 14.779 35, 18.531 35 C 21.993 35, 22.995 32.073, 20.175 30.200 C 17.441 28.385, 17.421 27.385, 20.105 26.683 C 23.067 25.908, 21.927 23.557, 18.423 23.213 C 16.260 23.001, 15.877 23.179, 16.952 23.897 M 28.607 24.582 C 27.826 26.616, 27.826 31.384, 28.607 33.418 C 30.470 38.273, 34.024 31.216, 32.591 25.507 C 31.887 22.702, 29.538 22.157, 28.607 24.582 M 39.759 28.750 C 39.495 31.913, 38.943 35.400, 38.534 36.500 C 38.107 37.645, 38.647 37.271, 39.797 35.624 C 41.567 33.089, 41.862 32.970, 42.286 34.624 C 42.551 35.656, 42.820 33.462, 42.884 29.750 C 42.972 24.622, 42.668 23, 41.620 23 C 40.663 23, 40.093 24.761, 39.759 28.750 M 49.435 26.493 C 48.607 30.910, 49.599 35, 51.500 35 C 52.304 35, 53.245 33.872, 53.591 32.493 C 54.490 28.911, 53.188 23, 51.500 23 C 50.682 23, 49.816 24.465, 49.435 26.493 M 67.667 23.667 C 66.833 24.500, 66.792 31.294, 67.607 33.418 C 68.603 36.013, 70.707 35.215, 71.350 32 C 72.505 26.227, 70.237 21.096, 67.667 23.667 M 103 25.441 C 103 28.489, 104.388 29.443, 105.999 27.502 C 107.498 25.695, 106.620 23, 104.531 23 C 103.574 23, 103 23.916, 103 25.441 M 133 25 C 133 27.274, 135.508 27.725, 136.324 25.598 C 136.952 23.962, 136.214 23, 134.333 23 C 133.600 23, 133 23.900, 133 25 M 29.683 25.650 C 29.308 26.026, 29 27.871, 29 29.750 C 29 33.915, 31.335 33.750, 31.828 29.551 C 32.163 26.696, 30.913 24.421, 29.683 25.650 M 50.788 25.622 C 49.907 27.204, 50.476 33.500, 51.500 33.500 C 52.853 33.500, 53.353 28.452, 52.202 26.397 C 51.693 25.487, 51.057 25.138, 50.788 25.622 M 68 29 C 68 31.200, 68.450 33, 69 33 C 69.550 33, 70 31.200, 70 29 C 70 26.800, 69.550 25, 69 25 C 68.450 25, 68 26.800, 68 29 M 94.015 27.750 C 94.007 28.988, 94.450 30, 95 30 C 96.253 30, 96.253 28.939, 95 27 C 94.216 25.787, 94.028 25.931, 94.015 27.750 M 117 28.941 C 117 30.009, 117.450 31.160, 118 31.500 C 118.567 31.851, 119 31.010, 119 29.559 C 119 28.152, 118.550 27, 118 27 C 117.450 27, 117 27.873, 117 28.941 M 124.438 31.522 C 123.488 34.010, 123.001 36.335, 123.356 36.689 C 123.710 37.043, 124 36.528, 124 35.544 C 124 34.067, 124.262 33.972, 125.500 35 C 126.797 36.076, 127 35.618, 127 31.622 C 127 29.080, 126.812 27, 126.583 27 C 126.353 27, 125.388 29.035, 124.438 31.522 M 133.690 29.643 C 133.311 30.023, 133 31.383, 133 32.667 C 133 35.339, 135.718 35.899, 136.668 33.422 C 137.326 31.707, 134.815 28.519, 133.690 29.643 M 134 32.500 C 134 33.325, 134.450 34, 135 34 C 135.550 34, 136 33.325, 136 32.500 C 136 31.675, 135.550 31, 135 31 C 134.450 31, 134 31.675, 134 32.500 M 42.750 37.662 C 43.438 37.940, 44.563 37.940, 45.250 37.662 C 45.938 37.385, 45.375 37.158, 44 37.158 C 42.625 37.158, 42.063 37.385, 42.750 37.662 M 82.813 37.683 C 83.534 37.972, 84.397 37.936, 84.729 37.604 C 85.061 37.272, 84.471 37.036, 83.417 37.079 C 82.252 37.127, 82.015 37.364, 82.813 37.683 M 135 38.059 C 135 38.641, 135.450 38.840, 136 38.500 C 136.550 38.160, 137 37.684, 137 37.441 C 137 37.198, 136.550 37, 136 37 C 135.450 37, 135 37.477, 135 38.059 M 60.859 50.333 C 61.057 53.175, 61.732 55.831, 62.359 56.235 C 63.135 56.734, 63.152 56.974, 62.411 56.985 C 61.812 56.993, 61.402 58.350, 61.500 60 C 61.615 61.929, 61.200 63, 60.339 63 C 59.323 63, 59 60.908, 59 54.333 C 59 49.567, 58.735 45.931, 58.412 46.255 C 58.088 46.578, 57.824 50.006, 57.824 53.872 C 57.824 61.256, 56.955 62.977, 53.080 63.269 C 51.936 63.355, 51 63.810, 51 64.280 C 51 64.750, 52.013 64.792, 53.250 64.373 C 54.487 63.954, 58.087 63.682, 61.250 63.768 C 65.799 63.892, 67 63.607, 67 62.403 C 67 61.506, 67.475 61.175, 68.158 61.597 C 68.969 62.099, 69.123 61.594, 68.671 59.906 C 68.317 58.583, 68.021 57.163, 68.014 56.750 C 68.006 56.337, 67.550 56, 67 56 C 66.450 56, 66 57.575, 66 59.500 C 66 61.425, 65.550 63, 65 63 C 64.410 63, 64 59.444, 64 54.333 C 64 49.567, 63.704 45.963, 63.342 46.325 C 62.980 46.687, 62.193 46.574, 61.592 46.075 C 60.820 45.432, 60.605 46.679, 60.859 50.333 M 128.250 45.662 C 127.389 46.010, 127 48.786, 127 54.583 C 127 65.953, 125.051 65.653, 124.832 54.250 C 124.739 49.438, 124.487 47.188, 124.272 49.250 C 124.056 51.313, 123.542 53, 123.131 53 C 121.461 53, 119.115 50.349, 118.707 48 C 118.395 46.207, 118.234 46.561, 118.136 49.250 C 118.023 52.357, 118.337 53, 119.965 53 C 122.496 53, 124.090 56.025, 123.760 60.203 C 123.507 63.414, 123.610 63.508, 127.750 63.807 C 131.287 64.063, 132.005 63.812, 132.032 62.307 C 132.062 60.593, 132.132 60.590, 133.392 62.250 C 134.123 63.212, 135.571 63.971, 136.610 63.937 C 138.226 63.882, 138.174 63.742, 136.250 62.969 C 135.012 62.471, 134 61.375, 134 60.532 C 134 58.320, 132.247 58.648, 131.500 61 C 131.151 62.100, 130.209 63, 129.407 63 C 128.144 63, 128.153 62.604, 129.474 60.050 C 131.133 56.843, 131.546 54.588, 130.039 56.971 C 128.666 59.142, 127.807 57.659, 128.231 53.846 L 128.603 50.500 129.824 53 C 131.020 55.447, 131.031 55.436, 130.355 52.500 C 129.974 50.850, 129.626 48.487, 129.582 47.250 C 129.537 46.013, 129.500 45.036, 129.500 45.079 C 129.500 45.122, 128.938 45.385, 128.250 45.662 M 133.911 46.607 C 132.914 47.808, 132.497 47.845, 131.744 46.797 C 131.079 45.873, 130.982 46.026, 131.406 47.332 C 131.733 48.339, 132 49.577, 132 50.082 C 132 51.828, 133.769 50.993, 134.290 49 C 134.577 47.900, 135.357 47, 136.023 47 C 136.822 47, 136.992 47.765, 136.523 49.250 C 136.133 50.487, 135.643 52.850, 135.434 54.500 C 135.094 57.193, 135.161 57.142, 136.084 54 C 138.161 46.928, 138.206 46.293, 136.663 45.701 C 135.829 45.381, 134.591 45.788, 133.911 46.607 M 191.545 47.455 C 193.329 49.238, 194 50.997, 194 53.889 C 194 59.137, 192.456 63, 190.358 63 C 189.428 63, 188.952 63.286, 189.301 63.635 C 189.650 63.984, 191.300 63.704, 192.968 63.013 C 195.975 61.768, 196 61.693, 196 54.017 L 196 46.277 198.750 46.755 C 202.509 47.407, 204.230 49.702, 202.869 52.245 C 202.123 53.639, 202.134 54.534, 202.907 55.307 C 204.489 56.889, 204.248 60.549, 202.465 62.029 C 201.621 62.729, 199.484 63.263, 197.715 63.216 C 195.478 63.155, 194.956 63.386, 196 63.974 C 198.195 65.211, 202.912 64.033, 204.015 61.972 C 205.167 59.820, 204.592 48.192, 203.268 46.868 C 201.749 45.349, 196.909 44.830, 195.462 46.031 C 194.507 46.824, 193.560 46.835, 192.130 46.069 C 189.032 44.412, 188.875 44.784, 191.545 47.455 M 25.079 47.583 C 25.127 48.748, 25.364 48.985, 25.683 48.188 C 25.972 47.466, 25.936 46.603, 25.604 46.271 C 25.272 45.939, 25.036 46.529, 25.079 47.583 M 29.199 52.500 C 29.284 56.849, 29.489 58.007, 29.740 55.557 C 30.040 52.628, 30.390 51.985, 31.102 53.057 C 31.763 54.052, 31.854 53.568, 31.395 51.500 C 29.995 45.183, 29.063 45.607, 29.199 52.500 M 38.116 51.374 C 37.454 54.329, 36.045 58.492, 34.984 60.624 C 33.143 64.321, 33.141 64.396, 34.933 62.255 C 35.967 61.020, 37.390 57.758, 38.095 55.005 C 38.943 51.699, 39.908 49.995, 40.939 49.985 C 42.215 49.972, 42.248 49.810, 41.122 49.096 C 40.364 48.616, 40.053 47.723, 40.431 47.112 C 40.809 46.500, 40.713 46, 40.218 46 C 39.723 46, 38.777 48.418, 38.116 51.374 M 48.216 46.845 C 47.503 47.298, 47.219 48.408, 47.578 49.343 C 47.933 50.268, 47.668 51.695, 46.989 52.513 C 46.010 53.693, 46.012 54.310, 47.002 55.502 C 47.735 56.385, 48.005 58.223, 47.658 59.958 C 47.237 62.064, 47.421 62.776, 48.298 62.439 C 49.131 62.119, 49.524 59.391, 49.514 53.984 C 49.506 49.593, 49.500 46.007, 49.500 46.016 C 49.500 46.024, 48.922 46.397, 48.216 46.845 M 66.030 49.917 C 66.061 53.559, 67.008 52.958, 68.394 48.417 C 68.843 46.943, 68.586 46.333, 67.514 46.333 C 66.438 46.333, 66.009 47.370, 66.030 49.917 M 92.510 47.250 C 92.276 47.938, 91.952 51.892, 91.792 56.038 C 91.553 62.203, 91.773 63.576, 93 63.574 C 94.219 63.572, 94.500 61.927, 94.500 54.786 C 94.500 46.896, 93.685 43.810, 92.510 47.250 M 103.459 47.067 C 103.096 47.653, 103.014 48.348, 103.276 48.610 C 103.538 48.872, 104.019 48.392, 104.345 47.543 C 105.021 45.781, 104.445 45.471, 103.459 47.067 M 113 54.427 C 113 61.592, 112.738 62.929, 111.250 63.361 C 110.239 63.655, 110.556 63.791, 112 63.685 C 114.438 63.505, 114.507 63.283, 114.789 54.750 C 114.973 49.179, 114.700 46, 114.039 46 C 113.403 46, 113 49.265, 113 54.427 M 178.269 46.693 C 179.242 46.947, 180.592 46.930, 181.269 46.656 C 181.946 46.382, 181.150 46.175, 179.500 46.195 C 177.850 46.215, 177.296 46.439, 178.269 46.693 M 185 47.059 C 185 47.641, 184.550 47.840, 184 47.500 C 183.396 47.127, 183 48.497, 183 50.962 C 183 54.344, 182.572 55.238, 180.500 56.182 C 178.709 56.998, 178.033 58.055, 178.116 59.911 C 178.210 62, 178.329 62.114, 178.732 60.500 C 179.194 58.649, 180.722 57.052, 182.065 57.015 C 182.375 57.007, 183.381 58.575, 184.299 60.500 C 185.217 62.425, 186.537 63.993, 187.234 63.985 C 188.106 63.974, 188.157 63.741, 187.400 63.235 C 183.936 60.922, 183.005 53.825, 185.526 48.950 C 186.400 47.259, 186.614 46, 186.026 46 C 185.462 46, 185 46.477, 185 47.059 M 79.079 48.583 C 79.127 49.748, 79.364 49.985, 79.683 49.188 C 79.972 48.466, 79.936 47.603, 79.604 47.271 C 79.272 46.939, 79.036 47.529, 79.079 48.583 M 107.150 50.162 C 107.029 53.125, 107.334 53.774, 108.750 53.567 C 109.713 53.426, 110.605 52.454, 110.732 51.406 C 110.860 50.357, 110.710 50.063, 110.399 50.750 C 109.443 52.862, 108.154 52.141, 107.716 49.250 C 107.373 46.982, 107.273 47.142, 107.150 50.162 M 148.800 48.200 C 149.460 48.860, 150 51.752, 150 54.627 C 150 59.084, 149.611 60.161, 147.365 61.927 C 145.499 63.396, 145.197 64, 146.330 64 C 147.210 64, 148.434 63.058, 149.050 61.906 L 150.171 59.812 152.582 62.077 C 153.907 63.322, 155.283 64.051, 155.638 63.696 C 155.993 63.341, 155.220 62.189, 153.920 61.136 C 152.148 59.702, 151.521 58.131, 151.413 54.861 C 151.249 49.846, 150.264 47, 148.693 47 C 147.962 47, 147.997 47.397, 148.800 48.200 M 173 54.917 C 173 60.342, 172.607 62.975, 171.750 63.285 C 171.063 63.534, 172.300 63.721, 174.500 63.702 C 176.700 63.682, 177.713 63.483, 176.750 63.260 C 175.265 62.915, 175 61.654, 175 54.927 C 175 50.309, 174.583 47, 174 47 C 173.418 47, 173 50.306, 173 54.917 M 21.079 49.583 C 21.127 50.748, 21.364 50.985, 21.683 50.188 C 21.972 49.466, 21.936 48.603, 21.604 48.271 C 21.272 47.939, 21.036 48.529, 21.079 49.583 M 33.787 50.667 C 34.032 51.950, 34.631 53, 35.117 53 C 35.602 53, 36 51.950, 36 50.667 C 36 49.383, 35.402 48.333, 34.671 48.333 C 33.817 48.333, 33.501 49.169, 33.787 50.667 M 52.116 50.250 C 52.032 52.252, 52.476 52.996, 53.750 52.985 C 54.861 52.975, 55.086 52.701, 54.366 52.235 C 53.742 51.831, 53.007 50.600, 52.732 49.500 C 52.349 47.967, 52.205 48.142, 52.116 50.250 M 70.564 49.707 C 70.022 51.132, 70.136 51.247, 71.124 50.267 C 71.808 49.588, 72.115 48.781, 71.807 48.474 C 71.499 48.166, 70.940 48.721, 70.564 49.707 M 161.836 54.063 C 162.125 59.079, 161.885 60.055, 160.086 61.179 C 158.939 61.895, 158 62.833, 158 63.264 C 158 63.694, 159.071 63.345, 160.379 62.487 C 162.514 61.088, 162.819 61.086, 163.348 62.464 C 164.197 64.677, 166.494 64.354, 168.424 61.750 C 169.342 60.513, 169.820 60.063, 169.487 60.750 C 169.154 61.438, 169.359 62, 169.941 62 C 170.529 62, 171 60.001, 171 57.500 C 171 55.025, 170.811 53, 170.580 53 C 170.350 53, 169.413 55.250, 168.500 58 C 166.007 65.507, 164 64.663, 164 56.107 C 164 51.516, 163.582 49.053, 162.750 48.732 C 161.816 48.372, 161.585 49.719, 161.836 54.063 M 167.446 50.442 C 166.566 51.785, 166.002 53.923, 166.194 55.192 C 166.470 57.023, 166.887 56.518, 168.210 52.750 C 170.066 47.466, 169.841 46.787, 167.446 50.442 M 198 50.615 C 198 52.212, 198.468 53.011, 199.250 52.750 C 201.118 52.128, 201.322 49.338, 199.549 48.657 C 198.400 48.216, 198 48.721, 198 50.615 M 43.429 50.927 C 43.429 51.986, 43.782 52.635, 44.214 52.368 C 44.646 52.100, 45 51.234, 45 50.441 C 45 49.648, 44.646 49, 44.214 49 C 43.782 49, 43.429 49.867, 43.429 50.927 M 83.158 51 C 83.158 52.375, 83.385 52.938, 83.662 52.250 C 83.940 51.563, 83.940 50.438, 83.662 49.750 C 83.385 49.063, 83.158 49.625, 83.158 51 M 87 52.878 C 87 55.381, 87.620 57.241, 88.750 58.128 C 90.298 59.342, 90.357 59.317, 89.259 57.908 C 88.576 57.032, 88.174 56.132, 88.365 55.908 C 88.556 55.684, 88.991 54.038, 89.331 52.250 C 89.803 49.773, 89.599 49, 88.475 49 C 87.429 49, 87 50.127, 87 52.878 M 97.116 50.750 C 97.027 52.482, 97.518 52.973, 99.250 52.884 C 100.844 52.802, 101.008 52.638, 99.811 52.323 C 98.883 52.077, 97.923 51.117, 97.677 50.189 C 97.362 48.992, 97.198 49.156, 97.116 50.750 M 145.623 50.459 C 146.019 51.492, 145.728 52.550, 144.908 53.057 C 143.910 53.674, 144.148 53.865, 145.763 53.743 C 148.348 53.548, 148.678 51.808, 146.477 49.981 C 145.195 48.917, 145.060 48.992, 145.623 50.459 M 178 52.214 C 178 55.191, 178.121 55.307, 179.637 53.792 C 180.537 52.892, 181.001 51.445, 180.668 50.578 C 179.625 47.859, 178 48.856, 178 52.214 M 187.437 50.302 C 186.312 53.236, 187.425 60.500, 189 60.500 C 190.946 60.500, 191.182 49.894, 189.251 49.250 C 188.563 49.021, 187.747 49.495, 187.437 50.302 M 23.190 51.623 C 22.378 52.504, 22.156 53.892, 22.607 55.272 C 23.275 57.320, 23.406 57.229, 24.224 54.140 C 25.257 50.241, 25.012 49.646, 23.190 51.623 M 74.079 51.583 C 74.127 52.748, 74.364 52.985, 74.683 52.188 C 74.972 51.466, 74.936 50.603, 74.604 50.271 C 74.272 49.939, 74.036 50.529, 74.079 51.583 M 103.079 51.583 C 103.127 52.748, 103.364 52.985, 103.683 52.188 C 103.972 51.466, 103.936 50.603, 103.604 50.271 C 103.272 49.939, 103.036 50.529, 103.079 51.583 M 154.667 50.667 C 153.620 51.714, 153.888 58.813, 155 59.500 C 155.616 59.881, 156 58.177, 156 55.059 C 156 49.931, 155.861 49.473, 154.667 50.667 M 158.015 55.191 C 158.026 58.988, 158.307 60.073, 159 59 C 160.274 57.029, 160.274 51.287, 159 50.500 C 158.381 50.117, 158.006 51.903, 158.015 55.191 M 80.079 52.583 C 80.127 53.748, 80.364 53.985, 80.683 53.188 C 80.972 52.466, 80.936 51.603, 80.604 51.271 C 80.272 50.939, 80.036 51.529, 80.079 52.583 M 188 54.441 C 188 56.334, 188.450 58.160, 189 58.500 C 189.604 58.873, 190 57.510, 190 55.059 C 190 52.827, 189.550 51, 189 51 C 188.450 51, 188 52.548, 188 54.441 M 16.195 54.500 C 16.215 56.150, 16.439 56.704, 16.693 55.731 C 16.947 54.758, 16.930 53.408, 16.656 52.731 C 16.382 52.054, 16.175 52.850, 16.195 54.500 M 69.015 53.191 C 69.007 54.121, 69.450 55.160, 70 55.500 C 71.266 56.282, 71.266 54.958, 70 53 C 69.165 51.707, 69.029 51.734, 69.015 53.191 M 76.697 53.393 C 76.288 54.434, 76.189 55.522, 76.476 55.810 C 77.389 56.722, 78.191 55.227, 77.809 53.328 C 77.459 51.588, 77.405 51.591, 76.697 53.393 M 19.081 57.750 C 18.996 63.276, 17.426 64.936, 16.716 60.250 L 16.300 57.500 16.150 60.281 C 15.998 63.103, 18.989 65.533, 19.761 63.216 C 20.047 62.359, 20.601 62.358, 21.967 63.212 C 24.809 64.986, 27.026 62.102, 26.881 56.821 L 26.762 52.500 25.592 57.430 C 24.949 60.141, 23.940 62.520, 23.350 62.717 C 22.760 62.913, 21.576 60.695, 20.719 57.787 L 19.161 52.500 19.081 57.750 M 47.500 54 C 47.840 54.550, 48.316 55, 48.559 55 C 48.802 55, 49 54.550, 49 54 C 49 53.450, 48.523 53, 47.941 53 C 47.359 53, 47.160 53.450, 47.500 54 M 73 55.333 C 73 56.250, 72.550 57, 72 57 C 70.761 57, 70.670 60.678, 71.890 61.432 C 72.870 62.037, 74.473 55.140, 73.564 54.231 C 73.254 53.921, 73 54.417, 73 55.333 M 102.734 56.388 C 103.413 59.942, 101.372 62.981, 98.215 63.116 C 96.291 63.198, 96.048 63.373, 97.381 63.715 C 98.416 63.980, 100.329 63.627, 101.631 62.930 C 103.490 61.935, 104 60.837, 104 57.831 C 104 55.724, 103.612 54, 103.139 54 C 102.665 54, 102.483 55.075, 102.734 56.388 M 52 58 C 52 60, 52.500 61, 53.500 61 C 54.325 61, 55 60.550, 55 60 C 55 59.450, 54.495 59, 53.878 59 C 53.052 59, 53.050 58.645, 53.869 57.658 C 54.481 56.920, 54.687 56.020, 54.325 55.658 C 52.900 54.233, 52 55.139, 52 58 M 97 56.476 C 97 57.379, 97.450 57.840, 98 57.500 C 98.550 57.160, 99 57.546, 99 58.358 C 99 59.169, 98.539 60.062, 97.975 60.342 C 97.411 60.621, 97.524 60.734, 98.225 60.592 C 99.870 60.258, 99.891 55.797, 98.250 55.250 C 97.563 55.021, 97 55.572, 97 56.476 M 118 58 C 118 60.089, 118.425 61.025, 119.250 60.750 C 119.938 60.521, 120.500 59.283, 120.500 58 C 120.500 56.717, 119.938 55.479, 119.250 55.250 C 118.425 54.975, 118 55.911, 118 58 M 142 56.173 C 142 56.628, 143.180 57, 144.622 57 C 146.840 57, 147.053 57.232, 146 58.500 C 145.315 59.325, 143.910 60, 142.878 60 C 141.667 60, 141 60.710, 141 62 C 141 63.268, 141.640 63.971, 142.750 63.921 C 143.795 63.874, 143.997 63.639, 143.250 63.338 C 141.305 62.553, 141.780 61, 143.965 61 C 145.592 61, 148 58.422, 148 56.679 C 148 56.431, 146.650 56.029, 145 55.787 C 143.350 55.545, 142 55.718, 142 56.173 M 198 58.031 C 198 60.003, 198.504 61, 199.500 61 C 200.415 61, 201 60.067, 201 58.607 C 201 57.291, 200.325 55.955, 199.500 55.638 C 198.374 55.206, 198 55.803, 198 58.031 M 42.750 56.662 C 44.594 57.406, 44.269 59.783, 42.250 60.311 C 40.864 60.673, 40.943 60.792, 42.633 60.884 C 43.966 60.956, 44.957 60.271, 45.275 59.058 C 45.870 56.783, 45.272 55.970, 43.083 56.079 C 42.051 56.130, 41.935 56.333, 42.750 56.662 M 107.015 57.750 C 107.027 59.134, 107.213 59.212, 107.904 58.122 C 108.384 57.364, 109.277 57.053, 109.888 57.431 C 110.500 57.809, 111 57.641, 111 57.059 C 111 56.477, 110.100 56, 109 56 C 107.756 56, 107.006 56.662, 107.015 57.750 M 32.542 58.067 C 32.905 58.655, 32.257 59.381, 31.101 59.684 C 29.026 60.226, 28.129 62, 29.929 62 C 31.419 62, 34.072 58.925, 33.450 57.919 C 33.138 57.414, 32.657 57, 32.382 57 C 32.107 57, 32.179 57.480, 32.542 58.067 M 81.664 58.832 C 81.849 59.564, 82.007 60.689, 82.015 61.332 C 82.024 62.002, 82.444 61.861, 83 61 C 84.231 59.096, 84.277 57.711, 83.085 58.447 C 82.582 58.758, 81.981 58.672, 81.749 58.256 C 81.517 57.840, 81.479 58.099, 81.664 58.832 M 77 58.941 C 77 59.459, 77.450 60.160, 78 60.500 C 78.550 60.840, 79 60.416, 79 59.559 C 79 58.702, 78.550 58, 78 58 C 77.450 58, 77 58.423, 77 58.941 M 75.079 60.583 C 75.127 61.748, 75.364 61.985, 75.683 61.188 C 75.972 60.466, 75.936 59.603, 75.604 59.271 C 75.272 58.939, 75.036 59.529, 75.079 60.583 M 86.292 60.750 C 85.936 61.712, 85.163 62.872, 84.573 63.326 C 83.881 63.859, 83.999 64.018, 84.904 63.775 C 86.205 63.425, 88.552 59, 87.436 59 C 87.162 59, 86.647 59.788, 86.292 60.750 M 79.768 63.168 C 80.350 63.750, 81.415 64.028, 82.137 63.788 C 82.886 63.538, 82.432 63.085, 81.080 62.731 C 79.417 62.296, 79.026 62.426, 79.768 63.168 M 27 63.383 C 27 63.594, 28.111 63.979, 29.470 64.239 C 30.828 64.499, 31.702 64.326, 31.411 63.856 C 30.899 63.027, 27 62.610, 27 63.383 M 70.750 63.662 C 71.438 63.940, 72.563 63.940, 73.250 63.662 C 73.938 63.385, 73.375 63.158, 72 63.158 C 70.625 63.158, 70.063 63.385, 70.750 63.662 M 119.813 63.683 C 120.534 63.972, 121.397 63.936, 121.729 63.604 C 122.061 63.272, 121.471 63.036, 120.417 63.079 C 119.252 63.127, 119.015 63.364, 119.813 63.683 M 3.919 73.750 C 4.433 74.713, 5.098 76.287, 5.396 77.250 C 5.725 78.313, 6.931 79, 8.469 79 C 10.695 79, 11 78.578, 11 75.500 C 11 72.082, 10.906 72, 6.992 72 C 3.484 72, 3.100 72.219, 3.919 73.750 M 14 73.500 C 14 74.325, 14.450 75, 15 75 C 15.550 75, 16 75.915, 16 77.032 C 16 78.992, 19.638 81.273, 21.250 80.324 C 21.663 80.081, 22 78.109, 22 75.941 C 22 72.010, 21.990 72, 18 72 C 15.111 72, 14 72.417, 14 73.500 M 24 73.531 C 24 74.374, 24.644 75.310, 25.430 75.612 C 26.217 75.913, 27.318 77.474, 27.878 79.080 C 28.557 81.027, 29.580 82, 30.948 82 C 32.620 82, 33 81.362, 33 78.559 C 33 74.613, 34.508 73.011, 35.315 76.098 C 36.080 79.021, 39.184 78.145, 40.092 74.750 L 40.827 72 32.414 72 C 25.525 72, 24 72.278, 24 73.531 M 43 73 C 43 73.550, 43.648 74, 44.441 74 C 45.234 74, 46.160 73.550, 46.500 73 C 46.840 72.450, 46.191 72, 45.059 72 C 43.927 72, 43 72.450, 43 73 M 64.362 73.500 C 64.037 74.347, 62.548 75, 60.943 75 C 59.379 75, 57.740 75.636, 57.300 76.413 C 56.860 77.191, 55.150 77.978, 53.500 78.163 C 51.071 78.436, 50.440 79.024, 50.183 81.256 C 49.976 83.053, 50.411 84.221, 51.433 84.613 C 53.855 85.542, 53.285 87, 50.500 87 C 48.492 87, 48 86.502, 48 84.469 C 48 81.740, 45.501 80.099, 43.854 81.746 C 43.297 82.303, 42.562 84.725, 42.219 87.129 C 41.634 91.227, 41.560 91.312, 41.041 88.500 C 40.637 86.313, 39.848 85.409, 38.128 85.165 C 34.964 84.716, 34.363 85.588, 33.591 91.744 C 32.949 96.856, 33.014 97.038, 36.146 98.942 C 37.913 100.017, 39.760 100.648, 40.250 100.345 C 40.741 100.042, 40.998 101.303, 40.821 103.147 C 40.521 106.276, 40.232 106.521, 36.500 106.817 C 33.279 107.072, 32.743 106.887, 33.750 105.867 C 35.109 104.490, 35.463 99.390, 34.250 98.678 C 33.837 98.436, 32.038 98.461, 30.250 98.733 C 27.236 99.191, 27 99.504, 27 103.054 C 27 107.260, 25.495 109.135, 24.538 106.121 C 24.093 104.718, 23.080 104.251, 20.716 104.356 C 17.633 104.494, 17.487 104.329, 17.197 100.350 C 16.904 96.323, 16.793 96.204, 13.447 96.299 C 11.551 96.352, 9.970 96.645, 9.933 96.948 C 9.895 97.252, 9.676 99.075, 9.445 101 C 9.214 102.925, 8.794 105.481, 8.511 106.680 C 8.115 108.361, 8.513 108.951, 10.248 109.254 C 12.223 109.600, 12.285 109.744, 10.750 110.431 C 7.654 111.816, 6 110.342, 6 106.198 C 6 101.557, 5.675 101.148, 2.476 101.760 C 0.004 102.232, 0 102.252, 0 114.317 C 0 123.715, 0.267 126.133, 1.200 125.200 C 2.947 123.453, 4 123.728, 4 125.933 C 4 126.996, 3.100 128.151, 2 128.500 C 0.168 129.081, 0 130.013, 0 139.567 C 0 148.174, 0.263 150, 1.500 150 C 2.333 150, 3 150.889, 3 152 C 3 153.111, 2.333 154, 1.500 154 C -0.380 154, -0.485 157.600, 1.374 158.313 C 3 158.937, 4.371 165.254, 3.486 168.044 C 3.145 169.120, 2.221 170, 1.433 170 C 0.253 170, 0 172.647, 0 185 L 0 200 6 200 C 9.300 200, 12 199.796, 12 199.547 C 12 199.298, 11.589 198.060, 11.087 196.797 C 10.585 195.534, 9.610 190.547, 8.920 185.716 C 7.941 178.852, 7.931 176.669, 8.875 175.725 C 9.819 174.781, 10.289 174.843, 11.026 176.008 C 11.651 176.996, 12.024 173.275, 12.130 165 C 12.427 141.879, 11.786 120.512, 10.777 119.875 C 10.144 119.476, 10.186 119.003, 10.893 118.566 C 11.502 118.190, 12 116.334, 12 114.441 L 12 111 30.500 111 C 44.625 111, 49.004 110.704, 49.015 109.750 C 49.027 108.766, 49.197 108.762, 49.813 109.731 C 50.395 110.648, 55.685 110.919, 70.547 110.793 C 81.521 110.700, 89.263 110.454, 87.750 110.246 C 84.751 109.833, 84.352 109.048, 86.200 107.200 C 87.550 105.850, 86.823 105.670, 81.250 105.975 C 79.463 106.073, 78 105.683, 78 105.108 C 78 104.533, 78.747 104.350, 79.661 104.700 C 80.978 105.206, 81.204 104.889, 80.755 103.170 C 79.976 100.193, 81.148 99.757, 86.387 101.076 C 89.939 101.970, 91.083 102.798, 91.865 105.043 C 92.658 107.319, 93.892 108.187, 98.108 109.440 C 104.463 111.327, 106.646 111.397, 107.700 109.750 C 108.140 109.063, 109.400 108.500, 110.500 108.500 C 111.938 108.500, 112.589 107.728, 112.816 105.750 C 112.990 104.237, 112.765 102.966, 112.316 102.923 C 107.547 102.476, 105 101.296, 105 99.531 C 105 97.391, 108.826 97.597, 112.677 99.944 C 115.223 101.497, 116.065 101.627, 116.918 100.599 C 118.324 98.905, 117.287 98, 113.940 98 C 111.461 98, 110 96.486, 110 93.918 C 110 93.413, 111.237 93.001, 112.750 93.001 C 115.458 93.003, 115.495 92.919, 115.157 87.501 C 114.771 81.296, 113.162 80.391, 108.973 84.023 C 106.534 86.139, 104.899 86.196, 104.229 84.188 C 104.008 83.524, 104.753 83, 105.917 83 C 107.333 83, 108 82.360, 108 81 C 108 79.839, 108.667 79, 109.590 79 C 110.464 79, 111.927 78.115, 112.840 77.034 C 113.753 75.952, 115.824 74.906, 117.442 74.707 C 119.060 74.509, 120.560 73.819, 120.775 73.174 C 121.049 72.354, 119.173 72, 114.563 72 C 108.046 72, 106.702 72.480, 98.462 77.756 C 94.823 80.087, 93.801 80.297, 92.925 78.896 C 92.280 77.864, 92.685 77.419, 94.478 77.188 C 95.813 77.017, 97.172 76.033, 97.500 75.002 C 97.827 73.970, 99.086 72.934, 100.297 72.700 C 101.597 72.447, 100.955 72.217, 98.731 72.136 C 96.256 72.047, 93.032 73.030, 89.340 75 C 86.248 76.650, 82.882 78, 81.859 78 C 78.943 78, 79.666 75.172, 82.673 74.816 C 86.191 74.400, 87.017 72, 83.642 72 C 82.254 72, 80.840 72.450, 80.500 73 C 80.160 73.550, 78.839 74, 77.563 74 C 76.288 74, 74.685 74.675, 74 75.500 C 72.671 77.101, 69.441 77.523, 68.625 76.202 C 67.790 74.852, 69.375 73.225, 72 72.737 C 73.458 72.466, 72.508 72.216, 69.719 72.136 C 66.298 72.039, 64.773 72.427, 64.362 73.500 M 137 72.883 C 137 74.411, 141.647 74.731, 143.556 73.335 C 145.186 72.143, 144.932 72, 141.191 72 C 138.886 72, 137 72.398, 137 72.883 M 166.560 74.618 C 166.198 76.058, 166.105 77.438, 166.352 77.685 C 166.857 78.191, 177 73.236, 177 72.483 C 177 72.217, 174.799 72, 172.108 72 C 167.666 72, 167.156 72.240, 166.560 74.618 M 63.212 77.879 C 63.382 78.771, 64.528 79.644, 65.760 79.820 C 68.950 80.275, 68.657 77.359, 65.452 76.746 C 63.494 76.372, 62.975 76.634, 63.212 77.879 M 75 80 C 75 80.550, 76.125 81, 77.500 81 C 78.875 81, 80 80.550, 80 80 C 80 79.450, 78.875 79, 77.500 79 C 76.125 79, 75 79.450, 75 80 M 242.750 79.716 C 239.561 80.199, 239.305 81.090, 241.750 83.201 C 244.203 85.319, 250 83.752, 250 80.971 C 250 78.946, 248.989 78.771, 242.750 79.716 M 55.473 81.044 C 54.527 82.575, 56.691 83.894, 59.111 83.261 C 61.021 82.761, 61.777 81, 60.082 81 C 59.577 81, 58.497 80.744, 57.683 80.432 C 56.869 80.119, 55.874 80.395, 55.473 81.044 M 87 81.500 C 87 82.433, 87.944 83, 89.500 83 C 91.056 83, 92 82.433, 92 81.500 C 92 80.567, 91.056 80, 89.500 80 C 87.944 80, 87 80.567, 87 81.500 M 164.500 82 C 164.160 82.550, 164.359 83, 164.941 83 C 165.523 83, 166 82.550, 166 82 C 166 81.450, 165.802 81, 165.559 81 C 165.316 81, 164.840 81.450, 164.500 82 M 68 84 C 68 84.550, 69.125 85, 70.500 85 C 71.875 85, 73 84.550, 73 84 C 73 83.450, 71.875 83, 70.500 83 C 69.125 83, 68 83.450, 68 84 M 82 85.393 C 82 86.342, 84.993 86.820, 85.527 85.956 C 85.852 85.430, 85.191 85, 84.059 85 C 82.927 85, 82 85.177, 82 85.393 M 223.096 85.795 C 222.324 86.056, 220.099 87.350, 218.152 88.672 C 215.597 90.405, 213.838 90.904, 211.831 90.463 C 210.054 90.073, 208.238 90.421, 206.802 91.426 C 205.566 92.292, 203.582 93, 202.392 93 C 201.203 93, 198.040 93.652, 195.365 94.450 C 184.494 97.689, 172.892 100.173, 171.366 99.587 C 170.126 99.111, 169.880 98.129, 170.320 95.414 C 170.896 91.866, 170.894 91.864, 167.698 92.543 C 164.286 93.268, 160.756 95.796, 161.492 96.987 C 161.737 97.383, 160.842 98.206, 159.504 98.816 C 156.759 100.067, 154.716 98.427, 157.122 96.904 C 157.880 96.423, 158.147 96.024, 157.715 96.015 C 157.283 96.007, 157.432 95.061, 158.046 93.914 C 158.660 92.767, 158.922 91.589, 158.629 91.295 C 158.033 90.699, 154.500 93.944, 154.500 95.088 C 154.500 95.490, 153.150 96.856, 151.500 98.123 C 149.850 99.391, 148.140 101.007, 147.700 101.714 C 146.494 103.653, 145 103.258, 145 101 C 145 99.889, 145.667 99, 146.500 99 C 148.089 99, 148.546 97.455, 147.202 96.625 C 146.099 95.943, 144.480 97.159, 143.708 99.250 C 143.353 100.212, 142.191 101, 141.125 101 C 139.680 101, 139.320 101.508, 139.710 103 C 140.166 104.742, 139.734 105.004, 136.367 105.032 C 132.937 105.060, 132.698 105.214, 134.250 106.392 C 137.110 108.563, 136.267 109.863, 131.750 110.243 C 129.412 110.439, 134.429 110.686, 142.897 110.790 C 156.492 110.958, 158.449 110.777, 159.615 109.240 C 160.862 107.598, 160.938 107.603, 160.968 109.340 C 160.995 110.869, 161.718 111.142, 165.250 110.956 C 178.145 110.275, 231.342 111.133, 230 112 C 229.099 112.582, 228.975 112.975, 229.691 112.985 C 230.346 112.993, 231.179 112.520, 231.542 111.933 C 231.982 111.219, 235.152 111.096, 241.101 111.562 L 250 112.258 250.173 105.379 C 250.537 90.959, 250.547 85.560, 250.206 87.250 C 250.012 88.213, 249.489 89, 249.043 89 C 248.598 89, 247.998 89.900, 247.710 91 C 247.324 92.476, 246.311 93.019, 243.844 93.071 C 233.656 93.288, 222.409 95.915, 213.632 100.127 C 210.404 101.676, 206.129 103.068, 204.132 103.221 C 201.016 103.460, 200.454 103.177, 200.178 101.229 C 199.775 98.391, 203.160 96.839, 214.980 94.444 C 225.780 92.256, 230.225 90.409, 229.815 88.281 C 229.477 86.524, 225.400 85.015, 223.096 85.795 M 61 87.393 C 61 89.159, 64.493 89.630, 65.500 88 C 65.840 87.450, 65.678 87, 65.141 87 C 64.603 87, 63.452 86.727, 62.582 86.393 C 61.544 85.995, 61 86.338, 61 87.393 M 100.695 86.757 C 99.702 86.983, 99.055 87.665, 99.257 88.271 C 99.776 89.829, 101.249 90.126, 102.992 89.025 C 104.883 87.831, 103.214 86.183, 100.695 86.757 M 1 88.941 C 1 90.456, 2.862 91.179, 5.009 90.497 C 8.018 89.542, 7.395 88, 4 88 C 2.350 88, 1 88.423, 1 88.941 M 74 90 C 74 90.550, 74.873 91, 75.941 91 C 77.009 91, 78.160 90.550, 78.500 90 C 78.851 89.433, 78.010 89, 76.559 89 C 75.152 89, 74 89.450, 74 90 M 7.500 92 C 5.342 93.100, 2.997 94, 2.289 94 C 1.523 94, 1 95.219, 1 97 C 1 98.650, 1.450 100, 2 100 C 2.550 100, 3 99.150, 3 98.111 C 3 96.780, 3.959 96.032, 6.250 95.576 C 8.037 95.220, 10.850 93.822, 12.500 92.469 C 15.137 90.307, 15.254 90.009, 13.461 90.005 C 12.340 90.002, 9.658 90.900, 7.500 92 M 93.442 91.094 C 92.443 92.710, 93.891 93.743, 96.464 93.252 C 97.846 92.987, 98.764 92.427, 98.504 92.006 C 97.741 90.772, 94.052 90.107, 93.442 91.094 M 41 94.918 C 41 96.548, 41.457 98.165, 42.016 98.510 C 42.575 98.856, 42.774 99.557, 42.457 100.069 C 42.141 100.581, 43.269 101, 44.964 101 C 47.962 101, 48.004 100.936, 46.520 98.670 C 45.680 97.389, 45.234 96.100, 45.528 95.806 C 45.822 95.512, 44.923 94.525, 43.531 93.612 C 41.019 91.966, 41 91.976, 41 94.918 M 149 93.969 C 149 94.501, 149.675 94.678, 150.500 94.362 C 151.325 94.045, 152 93.609, 152 93.393 C 152 93.177, 151.325 93, 150.500 93 C 149.675 93, 149 93.436, 149 93.969 M 119 95 C 120.939 96.253, 122 96.253, 122 95 C 122 94.450, 120.987 94.007, 119.750 94.015 C 117.931 94.028, 117.787 94.216, 119 95 M 54 97.531 C 54 98.924, 54.675 100.322, 55.500 100.638 C 58.687 101.861, 56.937 103.246, 53 102.616 C 49.077 101.989, 49 102.034, 49 104.988 C 49 106.999, 49.499 108, 50.500 108 C 51.325 108, 52 108.450, 52 109 C 52 109.550, 53.302 110, 54.893 110 C 57.784 110, 59 108.555, 59 105.119 C 59 103.733, 59.701 103.483, 62.636 103.826 C 65.207 104.126, 66.064 103.913, 65.561 103.099 C 65.170 102.465, 64.321 102.012, 63.675 102.092 C 60.855 102.440, 60 101.846, 60 99.535 C 60 98.122, 59.175 96.629, 58.066 96.035 C 55.037 94.414, 54 94.796, 54 97.531 M 87.170 97.170 C 87.390 98.723, 88.277 99.610, 89.830 99.830 C 91.769 100.105, 92.105 99.769, 91.830 97.830 C 91.610 96.277, 90.723 95.390, 89.170 95.170 C 87.231 94.895, 86.895 95.231, 87.170 97.170 M 67 98.929 C 67 101.064, 69.487 103.991, 71.321 104.015 C 72.059 104.025, 71.973 104.364, 71.091 104.923 C 70.316 105.413, 69 105.553, 68.167 105.234 C 67.045 104.803, 66.827 105.108, 67.326 106.408 C 67.697 107.374, 68 108.577, 68 109.082 C 68 109.587, 68.702 110, 69.559 110 C 70.416 110, 70.840 109.550, 70.500 109 C 69.937 108.089, 72.664 107.527, 75.734 107.922 C 77.371 108.132, 76.255 105.312, 74.423 104.609 C 73.640 104.308, 73 102.913, 73 101.507 C 73 99.683, 72.265 98.671, 70.435 97.975 C 67.041 96.685, 67 96.696, 67 98.929 M 163.264 101.621 C 162.104 103.062, 161.412 104.911, 161.727 105.730 C 162.199 106.962, 162.477 106.897, 163.334 105.359 C 163.904 104.337, 164.962 102.905, 165.685 102.179 C 166.408 101.452, 167 100.439, 167 99.929 C 167 98.239, 165.403 98.963, 163.264 101.621 M 100 104.467 C 100 106.803, 100.255 106.898, 106.101 106.736 C 109.456 106.643, 111.593 106.376, 110.851 106.143 C 110.108 105.910, 107.362 104.889, 104.750 103.874 L 100 102.029 100 104.467 M 171.079 105.583 C 171.127 106.748, 171.364 106.985, 171.683 106.188 C 171.972 105.466, 171.936 104.603, 171.604 104.271 C 171.272 103.939, 171.036 104.529, 171.079 105.583 M 141.469 106.050 C 140.519 107.588, 141.820 108.580, 143.104 107.296 C 143.822 106.578, 143.839 106.019, 143.156 105.597 C 142.596 105.251, 141.837 105.455, 141.469 106.050 M 150.500 108 C 150.160 108.550, 150.359 109, 150.941 109 C 151.523 109, 152 108.550, 152 108 C 152 107.450, 151.802 107, 151.559 107 C 151.316 107, 150.840 107.450, 150.500 108 M 91.813 110.683 C 92.534 110.972, 93.397 110.936, 93.729 110.604 C 94.061 110.272, 93.471 110.036, 92.417 110.079 C 91.252 110.127, 91.015 110.364, 91.813 110.683 M 44.344 114.983 C 34.428 117.084, 23.899 125.434, 19.262 134.875 C 16.834 139.819, 16.500 141.650, 16.500 150 C 16.500 158.125, 16.874 160.296, 19.081 165.002 C 26.452 180.713, 44.967 189.349, 61.176 184.637 C 92.523 175.524, 96.748 132.792, 67.713 118.529 C 59.827 114.656, 51.708 113.424, 44.344 114.983 M 42.286 117.386 C 27.223 122.326, 17.875 134.668, 17.875 149.616 C 17.875 160.905, 21.823 169.479, 30.116 176.199 C 37.894 182.501, 40.514 183.412, 51 183.458 C 59.241 183.494, 61.249 183.149, 66.155 180.849 C 73.171 177.560, 79.103 171.562, 82.660 164.161 C 86.173 156.852, 86.513 146.260, 83.499 138.067 C 80.868 130.916, 73.715 123.164, 66.475 119.619 C 59.561 116.234, 48.823 115.242, 42.286 117.386 M 161.250 118.031 C 160.012 118.529, 159 119.386, 159 119.936 C 159 120.487, 158.438 120.720, 157.750 120.455 C 156.805 120.090, 156.581 121.682, 156.832 126.986 C 157.048 131.555, 156.787 134, 156.082 134 C 155.487 134, 154.982 132.537, 154.961 130.750 L 154.922 127.500 153.509 130.750 C 151.280 135.879, 150 134.694, 150 127.500 C 150 123.833, 150.436 121, 151 121 C 151.550 121, 152.014 122.463, 152.030 124.250 C 152.062 127.584, 153.045 126.839, 154.376 122.473 C 154.978 120.495, 154.573 120.442, 137.747 120.288 C 128.261 120.202, 121.055 120.361, 121.732 120.643 C 122.855 121.109, 123.651 123.401, 125.419 131.250 C 126.129 134.405, 123.698 135.249, 122.536 132.250 C 121.889 130.583, 121.796 130.583, 120.568 132.250 C 119.859 133.213, 118.092 134, 116.640 134 C 114.491 134, 114 133.535, 114 131.500 C 114 130.125, 113.550 129, 113 129 C 112.450 129, 112 130.125, 112 131.500 C 112 133.056, 111.433 134, 110.500 134 C 109.328 134, 108.997 132.632, 108.985 127.750 C 108.975 123.850, 108.645 122.013, 108.106 122.863 C 107.377 124.014, 107.144 124.014, 106.610 122.863 C 106.262 122.113, 106.214 122.625, 106.502 124 C 106.791 125.375, 107.301 128.366, 107.635 130.647 L 108.244 134.793 122.872 134.691 C 130.917 134.634, 136.600 134.404, 135.500 134.178 C 132.867 133.639, 132.034 132.205, 132.015 128.184 C 131.995 123.867, 133.586 121, 136 121 C 139.613 121, 141.032 127.568, 138.609 133.084 C 137.997 134.478, 139.332 134.675, 149.707 134.724 C 156.193 134.755, 160.938 134.567, 160.250 134.307 C 158.725 133.729, 158.486 121, 160 121 C 160.550 121, 161.037 122.463, 161.081 124.250 L 161.162 127.500 162.488 124.500 C 163.710 121.736, 163.644 121.427, 161.657 120.577 C 159.514 119.659, 159.516 119.650, 161.910 119.236 C 164.349 118.814, 165.763 120.235, 167.150 124.500 C 167.713 126.229, 167.814 126.153, 167.900 123.939 C 167.978 121.948, 164.802 116.736, 163.711 117.063 C 163.595 117.098, 162.488 117.534, 161.250 118.031 M 1 120 C 1 120.550, 1.675 121, 2.500 121 C 3.325 121, 4 120.550, 4 120 C 4 119.450, 3.325 119, 2.500 119 C 1.675 119, 1 119.450, 1 120 M 210 119.823 C 210 120.276, 206.391 120.558, 201.980 120.451 C 197.569 120.343, 193.717 120.649, 193.419 121.130 C 193.114 121.625, 192.143 121.630, 191.189 121.142 C 188.711 119.876, 179.943 119.803, 178.457 121.035 C 177.567 121.774, 176.981 121.778, 176.530 121.049 C 176.174 120.472, 175.043 120, 174.019 120 C 171.931 120, 170.398 123.736, 169.505 131 C 168.764 137.026, 170.562 133.106, 171.544 126.553 C 172.254 121.821, 174.477 119.536, 175.989 121.982 C 177.078 123.745, 178.242 133.092, 177.468 133.865 C 177.121 134.213, 176.261 133.710, 175.558 132.748 C 174.011 130.633, 173 130.502, 173 132.417 C 173 133.196, 172.438 134.101, 171.750 134.428 C 171.063 134.755, 171.512 134.834, 172.750 134.605 C 173.988 134.375, 175 134.533, 175 134.955 C 175 135.377, 176.012 135.541, 177.250 135.318 C 178.488 135.095, 183.325 134.820, 188 134.707 C 195.727 134.519, 196.509 134.318, 196.598 132.500 C 196.673 130.978, 196.597 130.918, 196.279 132.250 C 196.003 133.405, 194.901 134, 193.037 134 C 191.274 134, 189.959 133.343, 189.536 132.250 C 188.897 130.604, 188.776 130.610, 187.492 132.354 C 185.012 135.723, 184.301 133.619, 185.746 127.192 C 186.855 122.260, 187.527 120.954, 188.832 121.204 C 190.015 121.430, 190.809 123.265, 191.561 127.512 L 192.622 133.500 193.361 127.250 C 194.215 120.024, 196.275 118.841, 197.716 124.750 L 198.630 128.500 199.360 124.750 C 200.520 118.795, 202.618 120.073, 203.362 127.188 C 203.829 131.655, 203.660 133.598, 202.754 134.173 C 201.304 135.094, 202.694 135.239, 211 135.036 C 218.666 134.847, 219.886 134.361, 219.323 131.715 C 218.868 129.578, 218.906 129.566, 220.390 131.392 C 221.236 132.432, 222.073 133.718, 222.249 134.248 C 222.790 135.869, 236.204 135.939, 237.814 134.329 C 239.704 132.439, 240.067 125.012, 238.401 122.325 C 237.234 120.443, 236.170 120.154, 230.515 120.187 C 226.920 120.208, 223.728 120.632, 223.420 121.129 C 223.113 121.626, 222.443 121.774, 221.931 121.457 C 221.419 121.141, 221.024 121.921, 221.052 123.191 L 221.105 125.500 222.674 123.250 C 225.667 118.960, 230 121.040, 230 126.766 C 230 131.040, 228.431 134, 226.165 134 C 223.552 134, 222.004 131.989, 221.970 128.550 C 221.944 125.994, 221.774 125.784, 220.920 127.250 C 220.359 128.213, 219.248 129, 218.450 129 C 217.570 129, 217 129.983, 217 131.500 C 217 133.056, 216.433 134, 215.500 134 C 214.322 134, 214 132.618, 214 127.563 C 214 121.308, 214.077 121.115, 216.750 120.715 C 219.133 120.359, 219.073 120.313, 216.304 120.372 C 214.546 120.410, 212.783 120.116, 212.387 119.720 C 211.414 118.747, 210 118.808, 210 119.823 M 110.250 120.689 C 111.310 120.966, 112 122.103, 112 123.573 C 112 124.908, 112.450 126, 113 126 C 113.550 126, 114 124.923, 114 123.607 C 114 121.325, 112.189 119.866, 109.668 120.116 C 109.026 120.180, 109.287 120.438, 110.250 120.689 M 125 122.500 C 125 123.325, 125.450 124, 126 124 C 126.550 124, 127 126.250, 127 129 C 127 132.778, 127.367 134, 128.500 134 C 129.633 134, 130 132.778, 130 129 C 130 126.250, 130.450 124, 131 124 C 131.550 124, 132 123.325, 132 122.500 C 132 121.452, 130.944 121, 128.500 121 C 126.056 121, 125 121.452, 125 122.500 M 140.760 127.250 C 140.496 130.688, 140.449 133.695, 140.656 133.933 C 141.584 134.999, 143.421 131.667, 144.055 127.770 L 144.750 123.500 144.875 128.750 C 144.969 132.694, 145.373 134, 146.500 134 C 147.679 134, 148 132.611, 148 127.500 L 148 121 144.620 121 L 141.240 121 140.760 127.250 M 179 127.500 C 179 132.611, 179.321 134, 180.500 134 C 181.633 134, 182 132.778, 182 129 C 182 125.222, 182.367 124, 183.500 124 C 184.325 124, 185 123.325, 185 122.500 C 185 121.500, 184 121, 182 121 L 179 121 179 127.500 M 205 127.500 C 205 132.441, 205.340 134, 206.417 134 C 207.196 134, 208.285 132.762, 208.838 131.250 L 209.842 128.500 209.921 131.250 C 209.971 133.003, 210.548 134, 211.512 134 C 212.721 134, 212.996 132.696, 212.883 127.500 C 212.735 120.654, 211.284 118.971, 209.220 123.250 L 208.135 125.500 208.068 123.250 C 208.028 121.947, 207.369 121, 206.500 121 C 205.321 121, 205 122.389, 205 127.500 M 231 127.500 L 231 134 233.965 134 C 237.164 134, 239.702 130.929, 238.321 128.729 C 237.897 128.053, 237.684 126.686, 237.848 125.690 C 238.264 123.166, 236.199 121, 233.378 121 C 231.118 121, 231 121.323, 231 127.500 M 101.079 123.583 C 101.127 124.748, 101.364 124.985, 101.683 124.188 C 101.972 123.466, 101.936 122.603, 101.604 122.271 C 101.272 121.939, 101.036 122.529, 101.079 123.583 M 118.189 122.862 C 117.321 123.412, 116.983 125.351, 117.189 128.597 L 117.500 133.500 118.580 127.750 C 119.174 124.588, 119.624 122.007, 119.580 122.015 C 119.536 122.024, 118.910 122.405, 118.189 122.862 M 217 125 C 217 126.867, 217.267 127.133, 218.200 126.200 C 219.133 125.267, 219.133 124.733, 218.200 123.800 C 217.267 122.867, 217 123.133, 217 125 M 20.872 125.750 C 19.629 127.336, 19.664 127.371, 21.250 126.128 C 22.212 125.373, 23 124.585, 23 124.378 C 23 123.555, 22.179 124.084, 20.872 125.750 M 135 127.500 C 135 129.425, 135.450 131, 136 131 C 136.550 131, 137 129.425, 137 127.500 C 137 125.575, 136.550 124, 136 124 C 135.450 124, 135 125.575, 135 127.500 M 225 127.500 C 225 129.425, 225.450 131, 226 131 C 226.550 131, 227 129.425, 227 127.500 C 227 125.575, 226.550 124, 226 124 C 225.450 124, 225 125.575, 225 127.500 M 121.079 127.583 C 121.127 128.748, 121.364 128.985, 121.683 128.188 C 121.972 127.466, 121.936 126.603, 121.604 126.271 C 121.272 125.939, 121.036 126.529, 121.079 127.583 M 100.079 128.583 C 100.127 129.748, 100.364 129.985, 100.683 129.188 C 100.972 128.466, 100.936 127.603, 100.604 127.271 C 100.272 126.939, 100.036 127.529, 100.079 128.583 M 167.150 130.250 C 166.968 134.794, 164.019 135.721, 163.970 131.250 C 163.943 128.840, 163.809 128.724, 162.886 130.311 C 161.465 132.753, 162.478 135, 165 135 C 167.447 135, 168.306 133.214, 167.724 129.334 C 167.367 126.951, 167.276 127.096, 167.150 130.250 M 5.032 135.143 C 4.999 141.979, 6.090 143.805, 9.091 141.938 C 10.241 141.222, 10.271 140.691, 9.250 139.044 C 8.563 137.935, 8 135.982, 8 134.705 C 8 133.427, 7.339 131.509, 6.532 130.441 C 5.193 128.671, 5.061 129.084, 5.032 135.143 M 200 130.800 C 200 131.790, 199.535 133.065, 198.967 133.633 C 198.256 134.344, 198.411 134.667, 199.467 134.667 C 200.484 134.667, 201 133.713, 201 131.833 C 201 130.275, 200.775 129, 200.500 129 C 200.225 129, 200 129.810, 200 130.800 M 234 130.559 C 234 131.416, 234.450 131.840, 235 131.500 C 235.550 131.160, 236 130.459, 236 129.941 C 236 129.423, 235.550 129, 235 129 C 234.450 129, 234 129.702, 234 130.559 M 103 132 C 103 132.550, 103.450 133, 104 133 C 104.550 133, 105 132.550, 105 132 C 105 131.450, 104.550 131, 104 131 C 103.450 131, 103 131.450, 103 132 M 33.729 134.092 C 31.293 135.510, 32.565 137.303, 35.061 135.968 C 37.134 134.858, 41 136.204, 41 138.035 C 41 138.566, 40.100 139, 39 139 C 37.900 139, 37 139.450, 37 140 C 37 140.550, 37.938 141, 39.083 141 C 42.633 141, 40.565 143.491, 36.907 143.622 C 31.614 143.811, 31.279 144.065, 34.472 145.472 C 36.545 146.385, 38.203 146.493, 39.952 145.828 C 43.057 144.648, 43.965 143.279, 43.985 139.750 C 44.014 134.559, 38.321 131.419, 33.729 134.092 M 46 133.592 C 46 133.918, 46.900 135.328, 47.999 136.726 L 49.998 139.267 47.917 142.634 C 46.405 145.081, 46.203 146, 47.178 146 C 47.915 146, 49.097 145.075, 49.803 143.943 C 51.088 141.887, 51.088 141.887, 52.958 144.193 C 55.449 147.266, 56.632 145.894, 54.412 142.506 C 52.747 139.965, 52.748 139.697, 54.430 136.850 C 56.573 133.222, 55.551 131.618, 53.136 134.820 L 51.409 137.109 49.549 135.055 C 47.762 133.080, 46 132.354, 46 133.592 M 60.174 135.314 C 57.772 137.871, 57.454 140.111, 59.065 143.122 C 62.237 149.049, 72 145.854, 72 138.889 C 72 136.993, 67.064 133, 64.720 133 C 63.416 133, 61.370 134.042, 60.174 135.314 M 62 137 C 59.650 139.350, 59.563 140.020, 61.299 142.395 C 62.164 143.577, 63.586 144.059, 65.549 143.836 C 67.979 143.559, 68.559 142.979, 68.836 140.549 C 69.059 138.586, 68.577 137.164, 67.395 136.299 C 65.020 134.563, 64.350 134.650, 62 137 M 131.607 145.582 C 130.671 148.022, 130.888 150.187, 132 149.500 C 132.550 149.160, 133 148.037, 133 147.004 C 133 145.635, 133.880 145.017, 136.250 144.723 L 139.500 144.320 135.857 144.160 C 133.350 144.050, 132.025 144.493, 131.607 145.582 M 139.913 146.087 C 138.861 147.139, 137.550 148, 137 148 C 136.450 148, 136 148.450, 136 149 C 136 149.550, 136.413 150, 136.918 150 C 137.423 150, 138.548 150.273, 139.418 150.607 C 140.520 151.030, 141 150.635, 141 149.307 C 141 145.158, 146.087 143.425, 147.965 146.934 C 148.534 147.998, 149 150.053, 149 151.500 C 149 158.959, 142.454 160.541, 140.724 153.500 C 140.257 151.600, 140.226 151.607, 140.116 153.628 C 139.957 156.538, 137.519 158.332, 134.506 157.756 C 133.128 157.493, 132 157.617, 132 158.032 C 132 159.362, 134.947 159.970, 137.259 159.116 C 138.491 158.661, 142.762 158.447, 146.750 158.642 C 152.503 158.922, 154 158.703, 154 157.580 C 154 156.801, 154.273 155.452, 154.607 154.582 C 154.941 153.712, 154.716 153, 154.107 153 C 153.498 153, 153 154.125, 153 155.500 C 153 157.056, 152.433 158, 151.500 158 C 150.321 158, 150 156.611, 150 151.500 C 150 145.323, 150.118 145, 152.378 145 C 155.849 145, 157.091 147.138, 156.655 152.366 C 156.435 155.012, 156.746 157.373, 157.386 157.901 C 157.998 158.407, 164.471 158.795, 171.769 158.763 C 179.066 158.730, 185.325 158.992, 185.677 159.343 C 186.028 159.695, 186.914 159.486, 187.645 158.879 C 188.376 158.273, 189.768 158.105, 190.737 158.507 C 192.289 159.151, 195.683 159.351, 200.500 159.083 C 201.683 159.018, 202 157.519, 202 152 C 202 145.070, 202.948 143.365, 204.920 146.750 C 205.891 148.417, 205.941 148.417, 205.970 146.750 C 205.986 145.787, 206.705 145, 207.567 145 C 208.748 145, 208.950 145.555, 208.385 147.250 C 207.541 149.786, 207.572 151.292, 208.552 155.250 C 209.392 158.641, 207.356 159.045, 206.031 155.750 C 205.127 153.500, 205.127 153.500, 205.063 155.667 C 205.029 156.858, 204.446 158.018, 203.769 158.244 C 202.652 158.616, 204.704 158.846, 213.500 159.334 L 216.500 159.500 216.793 152.312 C 217.076 145.337, 217.165 145.114, 219.793 144.775 C 221.282 144.583, 214.300 144.353, 204.277 144.264 C 193.058 144.164, 185.818 144.485, 185.438 145.100 C 185.038 145.747, 184.346 145.702, 183.466 144.972 C 182.720 144.353, 181.081 143.994, 179.823 144.173 C 177.949 144.441, 177.352 145.420, 176.518 149.595 C 175.754 153.419, 175.126 154.566, 174 154.195 C 171.163 153.259, 171.091 151.514, 173.775 148.713 C 177.372 144.958, 175.788 144.039, 166.004 144.203 C 161.877 144.273, 159.063 144.518, 159.750 144.748 C 160.438 144.978, 161.036 146.367, 161.079 147.833 L 161.158 150.500 162.179 147.700 C 163.817 143.209, 165.473 145.099, 165.798 151.829 C 166.040 156.861, 165.810 158, 164.548 158 C 163.545 158, 162.972 157.031, 162.921 155.250 L 162.842 152.500 161.838 155.250 C 161.285 156.762, 160.196 158, 159.417 158 C 158.340 158, 158 156.441, 158 151.500 C 158 147.046, 157.607 144.953, 156.750 144.852 C 156.063 144.770, 152.423 144.584, 148.663 144.439 C 143.036 144.220, 141.488 144.512, 139.913 146.087 M 223 146.048 C 223 147.121, 222.325 148, 221.500 148 C 220.675 148, 220 148.450, 220 149 C 220 149.550, 220.675 150, 221.500 150 C 222.325 150, 223 150.675, 223 151.500 C 223 152.325, 222.325 153, 221.500 153 C 220.675 153, 220 153.450, 220 154 C 220 154.550, 220.675 155, 221.500 155 C 222.325 155, 223 155.675, 223 156.500 C 223 157.433, 222.056 158, 220.500 158 C 219.125 158, 218 158.375, 218 158.833 C 218 159.291, 219.012 159.553, 220.250 159.416 C 221.488 159.279, 224.075 159.062, 226 158.934 C 229.111 158.726, 229.194 158.654, 226.750 158.284 C 224.078 157.879, 224 157.684, 224 151.434 L 224 145 227 145 C 229 145, 230 145.500, 230 146.500 C 230 147.325, 229.325 148, 228.500 148 C 227.675 148, 227 148.450, 227 149 C 227 149.550, 227.675 150, 228.500 150 C 229.325 150, 230 150.464, 230 151.031 C 230 151.599, 229.325 152.322, 228.500 152.638 C 226.593 153.370, 226.545 155, 228.430 155 C 229.217 155, 230.056 156.012, 230.294 157.250 C 230.533 158.488, 230.789 156.238, 230.864 152.250 C 230.994 145.321, 231.105 145, 233.378 145 C 236.352 145, 238.401 147.360, 237.712 149.994 C 237.424 151.096, 237.576 152.238, 238.050 152.531 C 239.795 153.609, 237.246 157.506, 234.387 158.132 C 231.550 158.752, 231.545 158.765, 234.095 158.882 C 238.073 159.063, 239.907 156.309, 239.575 150.648 C 239.417 147.945, 238.697 145.431, 237.949 144.968 C 237.210 144.512, 233.544 144.129, 229.803 144.117 C 223.715 144.098, 223 144.300, 223 146.048 M 168.571 146.571 C 166.719 148.424, 166.478 155.078, 168.200 156.800 C 169.701 158.301, 174 158.380, 174 156.906 C 174 156.305, 173.076 155.571, 171.946 155.276 C 170.335 154.854, 169.958 154.067, 170.196 151.619 C 170.363 149.904, 170.900 148.651, 171.388 148.835 C 172.494 149.253, 174.045 146.881, 173.375 145.798 C 172.577 144.507, 170.263 144.880, 168.571 146.571 M 177.746 151.192 C 176.283 157.698, 177.092 159.963, 179.635 156.484 C 180.831 154.849, 181 154.837, 181.579 156.347 C 182.328 158.296, 186.302 158.546, 187.803 156.737 C 188.379 156.043, 189.034 153.680, 189.257 151.487 L 189.664 147.500 189.832 152.128 C 189.931 154.842, 190.620 157.270, 191.500 158 C 192.810 159.087, 193 158.333, 193 152.059 L 193 144.873 189.750 145.187 C 186.734 145.477, 186.480 145.788, 186.215 149.500 C 185.732 156.275, 184.766 156.829, 183.580 151.010 C 181.934 142.935, 179.586 143.008, 177.746 151.192 M 195 151.500 L 195 158 198 158 C 201.350 158, 201.903 156.671, 199.250 154.992 C 197.997 154.198, 197.855 153.735, 198.750 153.359 C 199.438 153.070, 200 152.233, 200 151.500 C 200 150.767, 199.438 149.904, 198.750 149.583 C 197.750 149.117, 197.750 148.883, 198.750 148.417 C 200.991 147.371, 200.124 145, 197.500 145 C 195.090 145, 195 145.233, 195 151.500 M 210.207 146.450 C 210.137 147.028, 209.806 148.626, 209.471 150.003 C 208.500 153.991, 210.507 158, 213.475 158 C 216.190 158, 216.913 156.288, 214.577 155.391 C 211.569 154.237, 211.561 148, 214.567 148 C 215.355 148, 216 147.318, 216 146.484 C 216 144.733, 210.418 144.700, 210.207 146.450 M 43.756 149.825 C 43.443 151.023, 43.514 151.800, 43.915 151.553 C 44.315 151.305, 45.411 151.999, 46.348 153.094 C 47.286 154.189, 48.491 154.814, 49.027 154.484 C 49.562 154.153, 50 154.809, 50 155.941 C 50 157.073, 50.450 158, 51 158 C 51.550 158, 52 156.912, 52 155.583 C 52 154.254, 52.337 152.978, 52.750 152.747 C 53.163 152.517, 52.938 152.465, 52.250 152.633 C 51.563 152.800, 51 152.493, 51 151.950 C 51 151.396, 49.904 151.237, 48.507 151.588 C 46.518 152.087, 45.844 151.752, 45.170 149.930 L 44.325 147.647 43.756 149.825 M 144 151.441 C 144 153.398, 144.450 155, 145 155 C 145.550 155, 146 153.677, 146 152.059 C 146 150.441, 145.550 148.840, 145 148.500 C 144.405 148.132, 144 149.323, 144 151.441 M 153.079 149.583 C 153.127 150.748, 153.364 150.985, 153.683 150.188 C 153.972 149.466, 153.936 148.603, 153.604 148.271 C 153.272 147.939, 153.036 148.529, 153.079 149.583 M 59.584 150.882 C 59.118 152.265, 58.502 152.812, 58.114 152.185 C 57.747 151.591, 56.984 151.419, 56.419 151.803 C 55.767 152.245, 56.023 153.112, 57.118 154.173 C 58.528 155.538, 58.943 155.591, 59.377 154.460 C 59.747 153.495, 61.612 153.095, 65.517 153.141 C 68.601 153.178, 71.397 152.936, 71.729 152.604 C 72.061 152.272, 69.816 152, 66.740 152 C 62.225 152, 61.073 151.663, 60.766 150.250 C 60.458 148.833, 60.233 148.954, 59.584 150.882 M 180.079 151.583 C 180.127 152.748, 180.364 152.985, 180.683 152.188 C 180.972 151.466, 180.936 150.603, 180.604 150.271 C 180.272 149.939, 180.036 150.529, 180.079 151.583 M 213.666 151.427 C 213.365 152.212, 213.767 153.391, 214.558 154.048 C 215.754 155.041, 215.961 154.799, 215.781 152.621 C 215.543 149.755, 214.528 149.181, 213.666 151.427 M 131 152.941 C 131 154.009, 131.360 155.104, 131.800 155.376 C 132.240 155.648, 132.600 154.775, 132.600 153.435 C 132.600 152.096, 132.240 151, 131.800 151 C 131.360 151, 131 151.873, 131 152.941 M 35.493 152.745 C 38.239 152.956, 41.276 153.845, 42.243 154.720 C 43.811 156.139, 44 156.143, 44 154.762 C 44 152.653, 41.785 151.967, 35.668 152.180 L 30.500 152.360 35.493 152.745 M 136.079 153.583 C 136.127 154.748, 136.364 154.985, 136.683 154.188 C 136.972 153.466, 136.936 152.603, 136.604 152.271 C 136.272 151.939, 136.036 152.529, 136.079 153.583 M 234 154.559 C 234 155.416, 234.450 155.840, 235 155.500 C 235.550 155.160, 236 154.459, 236 153.941 C 236 153.423, 235.550 153, 235 153 C 234.450 153, 234 153.702, 234 154.559 M 39.569 160.573 C 37.848 162.295, 37.698 163.050, 38.607 165.418 C 39.374 167.417, 43.360 167.476, 44.989 165.513 C 47.627 162.335, 42.490 157.653, 39.569 160.573 M 29.421 162.457 C 29.082 163.808, 29.038 165.496, 29.323 166.207 C 29.654 167.031, 29.871 166.865, 29.921 165.750 C 29.964 164.787, 30.450 164, 31 164 C 31.550 164, 32 163.100, 32 162 C 32 159.182, 30.162 159.508, 29.421 162.457 M 34 162 C 34 163.100, 33.550 164, 33 164 C 32.450 164, 32 164.675, 32 165.500 C 32 166.325, 32.450 167, 33 167 C 33.550 167, 34 166.325, 34 165.500 C 34 163.384, 35.983 163.622, 36.079 165.750 C 36.129 166.865, 36.346 167.031, 36.677 166.207 C 37.391 164.427, 36.182 160, 34.981 160 C 34.441 160, 34 160.900, 34 162 M 47.384 161.442 C 45.877 165.368, 50.421 168.979, 53.276 166.124 C 54.002 165.398, 53.434 165.144, 51.410 165.290 C 49.097 165.457, 48.500 165.090, 48.500 163.500 C 48.500 161.975, 49.154 161.509, 51.250 161.539 C 52.763 161.561, 54 161.224, 54 160.789 C 54 159.359, 47.955 159.955, 47.384 161.442 M 55 163.625 C 55 166.953, 56.355 168.185, 57.338 165.750 C 57.741 164.750, 57.858 164.750, 57.921 165.750 C 57.964 166.438, 58.466 167, 59.035 167 C 59.726 167, 59.703 166.314, 58.966 164.936 C 58.169 163.447, 58.165 162.507, 58.949 161.561 C 59.798 160.539, 59.483 160.250, 57.519 160.250 C 55.325 160.250, 55 160.685, 55 163.625 M 62 163.500 C 62 166.333, 62.381 167, 64 167 C 65.619 167, 66 166.333, 66 163.500 C 66 160.667, 65.619 160, 64 160 C 62.381 160, 62 160.667, 62 163.500 M 68 163.500 C 68 166.333, 68.381 167, 70 167 C 71.111 167, 72 166.333, 72 165.500 C 72 164.675, 71.100 163.100, 70 162 L 68 160 68 163.500 M 74.252 163.500 C 74.263 165.700, 74.468 166.482, 74.707 165.238 C 74.946 163.994, 74.937 162.194, 74.687 161.238 C 74.437 160.282, 74.241 161.300, 74.252 163.500 M 39.700 162.341 C 38.930 164.345, 40.575 166.377, 42.399 165.677 C 44.706 164.792, 44.470 161, 42.107 161 C 41.066 161, 39.982 161.603, 39.700 162.341 M 63 165 C 63 165.550, 63.450 166, 64 166 C 64.550 166, 65 165.550, 65 165 C 65 164.450, 64.550 164, 64 164 C 63.450 164, 63 164.450, 63 165 M 69 165 C 69 165.550, 69.450 166, 70 166 C 70.550 166, 71 165.550, 71 165 C 71 164.450, 70.550 164, 70 164 C 69.450 164, 69 164.450, 69 165 M 182.843 166.578 C 182.549 168.101, 181.544 168.368, 176.497 168.267 C 173.199 168.201, 171.287 168.372, 172.250 168.647 C 174.385 169.257, 174.590 172, 172.500 172 C 171.452 172, 171 173.056, 171 175.500 C 171 177.944, 171.452 179, 172.500 179 C 173.325 179, 174 179.675, 174 180.500 C 174 182.294, 170.889 182.489, 169.200 180.800 C 167.622 179.222, 167.657 171.770, 169.250 170.053 C 170.093 169.145, 170.115 168.923, 169.319 169.370 C 168.670 169.734, 167.896 169.641, 167.600 169.162 C 167.304 168.683, 160.709 168.299, 152.944 168.308 C 138.966 168.325, 138.818 168.349, 137.913 170.728 C 136.613 174.148, 136.783 181.748, 138.178 182.610 C 139.607 183.493, 153.840 183.413, 156.149 182.509 C 157.056 182.154, 158.096 182.346, 158.460 182.935 C 158.913 183.667, 159.714 183.688, 161 183 C 162.259 182.326, 163.084 182.326, 163.500 183 C 163.905 183.655, 164.749 183.670, 165.923 183.041 C 166.960 182.486, 169.798 182.397, 172.612 182.831 C 178.033 183.668, 189.913 183.421, 190.880 182.452 C 191.523 181.808, 191.286 166.952, 190.623 166.289 C 190.417 166.083, 188.660 165.657, 186.719 165.342 C 183.842 164.875, 183.127 165.103, 182.843 166.578 M 183.250 168.496 C 182.545 169.297, 182 172.548, 182 175.958 C 182 180.718, 182.325 182, 183.532 182 C 184.375 182, 185.471 180.988, 185.969 179.750 L 186.873 177.500 186.937 179.750 C 186.973 181.055, 187.630 182, 188.500 182 C 189.665 182, 190 180.673, 190 176.059 C 190 172.791, 189.543 169.835, 188.984 169.490 C 188.425 169.144, 188.226 168.443, 188.543 167.931 C 189.474 166.424, 184.618 166.942, 183.250 168.496 M 233.180 167.990 C 231.354 168.423, 228.989 168.548, 227.925 168.270 C 226.860 167.992, 225.357 168.289, 224.584 168.931 C 223.622 169.729, 222.973 169.766, 222.530 169.049 C 222.174 168.472, 219.231 168, 215.991 168 C 211.446 168, 209.860 168.400, 209.050 169.750 C 208.055 171.411, 207.930 171.408, 206.602 169.697 C 205.480 168.252, 204.042 167.954, 199.351 168.197 L 193.500 168.500 193.500 175.500 C 193.500 181.996, 193.662 182.523, 195.748 182.819 C 197.423 183.057, 198.260 182.447, 199.026 180.431 C 199.593 178.941, 199.848 177.515, 199.595 177.261 C 198.680 176.347, 197 178.159, 197 180.059 C 197 181.144, 196.318 182, 195.452 182 C 194.189 182, 193.959 180.853, 194.202 175.750 C 194.496 169.593, 194.543 169.500, 197.391 169.500 C 200.752 169.500, 202.677 171.890, 201.510 174.614 C 200.536 176.889, 200.835 181.150, 202.059 182.423 C 203.123 183.530, 217.992 183.823, 218.655 182.750 C 218.910 182.338, 218.191 182, 217.059 182 C 215.192 182, 215 181.395, 215 175.500 L 215 169 218.500 169 C 220.944 169, 222 169.452, 222 170.500 C 222 171.333, 221.111 172, 220 172 C 217.341 172, 217.439 173.620, 220.140 174.326 C 221.972 174.806, 222.197 175.398, 221.703 178.443 C 221.385 180.399, 221.547 182, 222.063 182 C 222.578 182, 223 181.347, 223 180.549 C 223 179.751, 223.493 176.802, 224.095 173.994 C 225.611 166.922, 227.894 167.526, 229.700 175.479 C 231.613 183.902, 232.556 184.084, 232.168 175.955 C 231.952 171.429, 232.214 169, 232.918 169 C 233.513 169, 234.030 170.012, 234.068 171.250 L 234.135 173.500 235.220 171.250 C 235.817 170.012, 236.912 169, 237.653 169 C 239.285 169, 239.302 169.242, 237.889 172.344 C 237.064 174.156, 237.080 175.259, 237.952 176.641 C 238.977 178.263, 239.052 178.150, 238.544 175.750 C 238.209 174.168, 238.395 173, 238.981 173 C 240.389 173, 240.263 169.663, 238.800 168.200 C 238.140 167.540, 237.352 167.046, 237.050 167.102 C 236.748 167.159, 235.006 167.558, 233.180 167.990 M 138.986 173.177 C 138.979 175.555, 138.701 178.512, 138.370 179.750 C 137.926 181.404, 138.195 182, 139.383 182 C 140.456 182, 141.034 181.075, 141.100 179.250 C 141.198 176.542, 141.210 176.537, 141.877 178.926 C 142.784 182.170, 144.739 182.675, 145.287 179.808 L 145.728 177.500 145.864 179.750 C 146.094 183.549, 149 182.506, 149 178.625 C 149 169.849, 146.031 165.651, 144.492 172.250 L 143.734 175.500 143.109 172.512 C 142.751 170.797, 141.742 169.381, 140.742 169.189 C 139.304 168.912, 138.998 169.609, 138.986 173.177 M 151.200 170.200 C 149.506 171.894, 149.684 179.493, 151.452 180.960 C 153.924 183.012, 156.436 181.745, 157.344 177.989 C 158.895 171.571, 154.898 166.502, 151.200 170.200 M 159 175.500 C 159 182.801, 160.920 184.464, 162.753 178.750 L 163.796 175.500 163.898 178.750 C 164.093 184.959, 166 182.011, 166 175.500 C 166 168.352, 164.792 167.203, 162.584 172.250 L 161.163 175.500 161.082 172.250 C 160.925 166.003, 159 169.008, 159 175.500 M 175 175.500 L 175 182 178 182 C 180 182, 181 181.500, 181 180.500 C 181 179.675, 180.325 179, 179.500 179 C 178.675 179, 178 178.550, 178 178 C 178 177.450, 178.675 177, 179.500 177 C 180.325 177, 181 176.325, 181 175.500 C 181 174.675, 180.325 174, 179.500 174 C 178.675 174, 178 173.550, 178 173 C 178 172.450, 178.675 172, 179.500 172 C 180.325 172, 181 171.325, 181 170.500 C 181 169.500, 180 169, 178 169 L 175 169 175 175.500 M 185.015 171.750 C 185.027 173.893, 185.245 174.169, 186 173 C 187.264 171.043, 187.264 169, 186 169 C 185.450 169, 185.007 170.238, 185.015 171.750 M 203 175.500 C 203 181.616, 203.136 182, 205.300 182 C 206.565 182, 208.140 181.460, 208.800 180.800 C 209.733 179.867, 210 179.867, 210 180.800 C 210 181.460, 210.675 182, 211.500 182 C 212.679 182, 213 180.611, 213 175.500 C 213 170.389, 212.679 169, 211.500 169 C 210.447 169, 209.976 170.118, 209.921 172.750 C 209.878 174.813, 209.615 175.938, 209.338 175.250 C 209.060 174.563, 207.971 174, 206.917 174 C 205.539 174, 205 173.297, 205 171.500 C 205 170.125, 204.550 169, 204 169 C 203.436 169, 203 171.833, 203 175.500 M 19 172.378 C 19 172.585, 19.788 173.373, 20.750 174.128 C 22.336 175.371, 22.371 175.336, 21.128 173.750 C 19.821 172.084, 19 171.555, 19 172.378 M 153 175.500 C 153 177.425, 153.450 179, 154 179 C 154.550 179, 155 177.425, 155 175.500 C 155 173.575, 154.550 172, 154 172 C 153.450 172, 153 173.575, 153 175.500 M 197 173.500 C 197 174.325, 197.450 175, 198 175 C 198.550 175, 199 174.325, 199 173.500 C 199 172.675, 198.550 172, 198 172 C 197.450 172, 197 172.675, 197 173.500 M 172 174.941 C 172 175.459, 172.445 176.157, 172.989 176.493 C 173.555 176.843, 173.723 176.442, 173.382 175.552 C 172.717 173.820, 172 173.503, 172 174.941 M 205 177.500 C 205 178.325, 205.450 179, 206 179 C 206.550 179, 207 178.325, 207 177.500 C 207 176.675, 206.550 176, 206 176 C 205.450 176, 205 176.675, 205 177.500 M 218.079 177.583 C 218.127 178.748, 218.364 178.985, 218.683 178.188 C 218.972 177.466, 218.936 176.603, 218.604 176.271 C 218.272 175.939, 218.036 176.529, 218.079 177.583 M 234 178.819 C 234 181.268, 236.506 183.404, 238.487 182.643 C 239.319 182.324, 239.948 181.261, 239.884 180.281 C 239.775 178.612, 239.739 178.610, 239.311 180.250 C 238.688 182.631, 236 182.476, 236 180.059 C 236 178.991, 235.550 177.840, 235 177.500 C 234.450 177.160, 234 177.753, 234 178.819 M 226 180.393 C 226 181.159, 226.685 182.049, 227.523 182.371 C 228.766 182.847, 228.851 182.591, 227.988 180.977 C 226.747 178.659, 226 178.440, 226 180.393 M 45.708 189.676 C 44.544 189.992, 44.110 190.770, 44.468 191.898 C 44.809 192.974, 44.065 194.530, 42.509 195.991 C 41.129 197.288, 40 198.720, 40 199.174 C 40 199.628, 87.250 200, 145 200 L 250 200 250 195 C 250 190.421, 249.802 190, 247.655 190 C 244.985 190, 241.287 193.441, 242.891 194.433 C 244.272 195.286, 243.132 198, 241.393 198 C 240.044 198, 239.589 196.839, 239.925 194.250 C 240.031 193.436, 238.590 192.954, 235.794 192.868 L 231.500 192.737 235 192.112 C 246.272 190.100, 231.876 189.876, 97.243 189.974 L 61.987 190 59.813 192.500 C 57.115 195.603, 54.445 195.699, 52.866 192.750 C 52.204 191.512, 51.752 190.275, 51.862 190 C 52.139 189.308, 47.889 189.085, 45.708 189.676 M 23 191.111 C 23 191.853, 21.754 191.990, 19.250 191.522 C 17.188 191.137, 15.838 191.163, 16.252 191.580 C 16.666 191.997, 16.274 193.145, 15.381 194.132 C 14.488 195.118, 14.009 196.582, 14.318 197.385 C 15.078 199.368, 19.124 198.240, 19.743 195.873 C 20.048 194.709, 21.537 193.812, 23.860 193.394 C 25.862 193.034, 27.950 192.396, 28.500 191.977 C 29.050 191.558, 30.400 190.994, 31.500 190.724 C 32.600 190.453, 31.138 190.180, 28.250 190.116 C 24.997 190.044, 23 190.423, 23 191.111 M 32 195.825 C 32 198.266, 33.952 200, 36.700 200 C 40.495 200, 39.207 196.790, 34.730 195.087 C 32.392 194.199, 32 194.305, 32 195.825" stroke="none" fill="#3467df" fill-rule="evenodd"/>
</svg>