<svg xmlns="http://www.w3.org/2000/svg" width="180" height="144" viewBox="0 0 180 144" version="1.1">
	<rect x="0" y="0" width="100%" height="100%" fill="#bfbfbf" />
	<path d="M 0 72 L 0 144 12.500 144 C 21.825 144, 25.004 143.683, 25.015 142.750 C 25.028 141.755, 25.193 141.756, 25.828 142.756 C 26.459 143.750, 42.675 143.959, 103.563 143.756 L 180.500 143.500 180.757 71.750 L 181.013 0 90.507 0 L 0 0 0 72 M 0.472 72.500 C 0.476 112.100, 0.601 124.740, 0.750 100.590 C 0.954 67.493, 1.326 56.302, 2.261 55.148 C 3.236 53.942, 3.237 53.774, 2.266 54.357 C 1.302 54.936, 0.970 49.122, 0.749 27.799 C 0.594 12.785, 0.469 32.900, 0.472 72.500 M 49.352 2.692 C 48.171 2.923, 46.933 3.875, 46.601 4.806 C 46.270 5.738, 45.750 7.022, 45.446 7.660 C 45.070 8.450, 46.269 8.808, 49.197 8.779 C 51.563 8.757, 55.416 9.265, 57.758 9.910 L 62.017 11.082 59.258 13.509 L 56.500 15.937 60.668 15.968 C 62.961 15.986, 65.449 16.235, 66.197 16.522 C 67.247 16.925, 67.468 16.071, 67.165 12.772 C 66.949 10.422, 67.116 8.830, 67.536 9.233 C 67.956 9.637, 68.345 11.437, 68.400 13.233 L 68.500 16.500 75.500 16.233 C 79.350 16.086, 83.055 15.766, 83.733 15.521 C 85.572 14.857, 84.079 12, 81.893 12 C 80.852 12, 80 11.550, 80 11 C 80 9.812, 82.924 9.782, 88.750 10.909 C 92.812 11.695, 93 11.624, 93 9.294 C 93 6.634, 91.352 4.592, 89 4.337 C 88.175 4.248, 85.076 3.685, 82.114 3.087 C 77.029 2.061, 54.002 1.783, 49.352 2.692 M 27.183 17.217 C 25.783 18.617, 25.638 20, 26.893 20 C 27.809 20, 29.318 16.984, 28.707 16.374 C 28.520 16.186, 27.834 16.566, 27.183 17.217 M 53.567 18.739 C 49.496 19.157, 43.061 23, 46.433 23 C 47.773 23, 47.961 23.478, 47.317 25.250 C 46.345 27.927, 46.294 41.651, 47.233 48 C 47.599 50.475, 47.921 53.063, 47.949 53.750 C 47.977 54.438, 48.620 55, 49.379 55 C 50.137 55, 51.271 56.237, 51.899 57.750 C 52.763 59.832, 53.765 60.526, 56.020 60.606 C 58.885 60.709, 59 60.545, 59 56.379 C 59 51.986, 54.755 39.084, 52.940 37.963 C 51.481 37.061, 48.647 26.361, 49.370 24.479 C 49.773 23.429, 50.656 23.073, 51.890 23.465 C 52.935 23.797, 55.450 23.276, 57.479 22.309 C 61.019 20.621, 61.210 20.623, 62.185 22.367 C 62.999 23.820, 63.935 24.055, 66.851 23.539 C 72.651 22.513, 74 21.952, 74 20.569 C 74 18.438, 64.664 17.602, 53.567 18.739 M 82 20.845 C 82 21.310, 82.900 22.505, 84 23.500 C 85.513 24.869, 86.026 26.673, 86.109 30.905 C 86.168 33.982, 86.552 39.200, 86.962 42.500 L 87.706 48.500 87.903 39.500 C 88.012 34.550, 88.266 28.584, 88.469 26.242 C 88.759 22.880, 88.447 21.774, 86.984 20.992 C 84.717 19.778, 82 19.698, 82 20.845 M 26.116 22.183 C 26.052 23.108, 25.100 24.151, 24 24.500 C 21.614 25.257, 21.519 25.982, 23.468 28.559 C 24.276 29.626, 24.951 31.528, 24.968 32.785 C 24.996 34.801, 24.752 34.938, 22.895 33.944 C 21.737 33.324, 19.255 32.696, 17.379 32.547 C 13.275 32.221, 12.775 33.489, 13.346 42.783 C 13.702 48.572, 14.788 52.250, 15.157 48.917 C 15.244 48.137, 15.581 49.750, 15.907 52.500 C 16.233 55.250, 16.148 57.761, 15.718 58.079 C 15.287 58.398, 14.669 60.829, 14.344 63.483 C 13.833 67.661, 13.971 68.225, 15.377 67.686 C 16.269 67.343, 17 67.499, 17 68.031 C 17 68.564, 16.550 69, 16 69 C 15.450 69, 15 69.357, 15 69.793 C 15 70.679, 23.665 73.441, 26 73.299 C 31.329 72.975, 36.954 71.735, 36.491 70.986 C 35.792 69.854, 39.720 67.709, 41.021 68.513 C 41.559 68.846, 42 68.191, 42 67.059 C 42 65.927, 41.663 64.963, 41.250 64.918 C 31.388 63.836, 27 62.119, 27 59.340 C 27 57.324, 27.494 57, 30.566 57 C 34.972 57, 38.333 55.311, 37.621 53.455 C 37.328 52.690, 37.534 51.788, 38.080 51.450 C 38.627 51.113, 36.919 49.211, 34.287 47.225 C 31.654 45.238, 29.169 43.137, 28.765 42.556 C 27.110 40.176, 28.129 43.700, 29.969 46.717 L 31.931 49.935 29.743 51.467 C 28.540 52.310, 27.030 53, 26.389 53 C 25.747 53, 25.285 53.739, 25.361 54.642 C 25.437 55.546, 24.938 56.483, 24.250 56.726 C 23.421 57.018, 22.972 56.044, 22.917 53.833 C 22.765 47.785, 22.319 45.606, 21.152 45.217 C 19.622 44.707, 19.694 42.801, 21.329 40.565 C 22.434 39.053, 23.027 38.944, 24.844 39.917 C 26.629 40.872, 27.138 40.803, 27.622 39.543 C 28.420 37.463, 31 37.574, 31 39.689 C 31 41.084, 31.371 40.979, 33.138 39.083 C 34.758 37.343, 34.969 36.599, 34.010 36.006 C 32.020 34.776, 33.821 33, 37.059 33 C 39.744 33, 40 32.700, 40 29.559 C 40 25.397, 39.443 25.004, 32.522 24.290 C 28.696 23.895, 26.967 23.253, 26.663 22.115 C 26.282 20.687, 26.219 20.695, 26.116 22.183 M 60.068 28.050 C 60.131 31.290, 60.202 31.361, 61.235 29.217 C 62.048 27.530, 62.031 26.631, 61.167 25.767 C 60.278 24.878, 60.016 25.420, 60.068 28.050 M 105 27.088 C 105 27.590, 105.450 28, 106 28 C 107.583 28, 107.172 30.088, 104.433 35.972 C 102.172 40.830, 102.060 41.571, 103.437 42.578 C 105.212 43.875, 104.987 50.288, 103.039 53.928 C 101.631 56.558, 103.509 59.891, 105.358 58.042 C 106.684 56.716, 109 56.689, 109 58 C 109 58.550, 108.293 59, 107.428 59 C 106.105 59, 105.960 59.911, 106.510 64.750 C 106.870 67.912, 107.382 71.286, 107.649 72.248 C 108.465 75.191, 112.724 75.517, 117.343 72.989 C 122.992 69.897, 122.978 69.915, 123.441 65.258 C 123.666 62.998, 124.332 60.248, 124.921 59.147 C 125.511 58.046, 125.720 56.434, 125.386 55.564 C 125.053 54.695, 125.548 52.366, 126.486 50.388 C 127.644 47.948, 127.865 46.465, 127.174 45.774 C 126.614 45.214, 126.396 44.130, 126.690 43.365 C 126.984 42.600, 126.734 41.385, 126.136 40.664 C 125.537 39.942, 125.112 37.635, 125.191 35.535 C 125.286 33.012, 124.775 31.308, 123.683 30.510 C 122.774 29.846, 122.320 29.013, 122.674 28.659 C 123.028 28.306, 120.251 28.263, 116.503 28.565 C 111.663 28.954, 109.467 28.755, 108.924 27.877 C 108.010 26.398, 105 25.793, 105 27.088 M 27 34.469 C 27 35.363, 27.586 35.712, 28.500 35.362 C 29.325 35.045, 30 34.384, 30 33.893 C 30 33.402, 29.325 33, 28.500 33 C 27.675 33, 27 33.661, 27 34.469 M 65.570 34.887 C 65.269 35.374, 65.692 36.329, 66.511 37.009 C 67.750 38.038, 68 37.889, 68 36.122 C 68 33.977, 66.579 33.254, 65.570 34.887 M 35.805 40.240 C 35.297 42.896, 37.470 46.863, 38.738 45.595 C 39.155 45.178, 38.686 44.244, 37.695 43.519 C 36.486 42.635, 36.293 42.069, 37.107 41.798 C 37.978 41.507, 38.032 40.880, 37.300 39.572 C 36.373 37.915, 36.238 37.975, 35.805 40.240 M 109.750 43.689 C 108.787 43.941, 108 44.371, 108 44.645 C 108 45.480, 110.879 48.079, 111.675 47.962 C 112.086 47.901, 112.745 48.673, 113.141 49.676 C 113.801 51.351, 113.865 51.357, 113.930 49.750 C 114.002 47.957, 115.130 47.463, 116.354 48.687 C 117.777 50.110, 121 49.656, 121 48.033 C 121 47.135, 121.532 45.868, 122.183 45.217 C 122.834 44.566, 123.091 43.758, 122.755 43.422 C 122.418 43.085, 121.336 43.753, 120.349 44.905 C 118.475 47.094, 114.563 47.720, 113.500 46 C 113.147 45.429, 114.087 44.970, 115.691 44.930 C 118.162 44.868, 118.259 44.756, 116.500 44 C 114.325 43.065, 112.466 42.980, 109.750 43.689 M 70 45.542 C 66.975 46.238, 64.372 46.851, 64.215 46.904 C 64.058 46.957, 64.411 47.900, 65 49 C 65.726 50.356, 65.737 51, 65.035 51 C 63.300 51, 63.860 52.401, 66.944 55.777 C 69.017 58.047, 70.717 58.966, 72.694 58.884 C 74.237 58.820, 74.759 58.571, 73.853 58.330 C 72.022 57.844, 70.586 53.876, 71.937 53.036 C 72.411 52.741, 72.958 51.375, 73.152 50 C 73.429 48.046, 74.022 47.556, 75.863 47.758 C 77.658 47.954, 78.074 47.636, 77.610 46.426 C 77.274 45.552, 77 44.648, 77 44.418 C 77 43.926, 77.071 43.915, 70 45.542 M 4.651 48.468 C 4.341 49.275, 4.518 50.202, 5.044 50.527 C 5.570 50.852, 6 50.191, 6 49.059 C 6 46.644, 5.444 46.401, 4.651 48.468 M 8 48.382 C 8 49.207, 8.450 50.160, 9 50.500 C 9.550 50.840, 10 50.443, 10 49.618 C 10 48.793, 9.550 47.840, 9 47.500 C 8.450 47.160, 8 47.557, 8 48.382 M 11 49.500 C 11 50.325, 11.450 51, 12 51 C 12.550 51, 13 50.325, 13 49.500 C 13 48.675, 12.550 48, 12 48 C 11.450 48, 11 48.675, 11 49.500 M 76.432 50.367 C 75.671 51.193, 75.730 52.387, 76.636 54.513 C 77.337 56.156, 77.964 57.275, 78.029 57 C 79.291 51.717, 78.440 48.185, 76.432 50.367 M 141.729 49.604 C 141.328 50.005, 141 51.023, 141 51.867 C 141 52.992, 141.296 53.104, 142.113 52.287 C 142.724 51.676, 143.053 50.657, 142.842 50.025 C 142.631 49.392, 142.130 49.203, 141.729 49.604 M 14.079 52.583 C 14.127 53.748, 14.364 53.985, 14.683 53.188 C 14.972 52.466, 14.936 51.603, 14.604 51.271 C 14.272 50.939, 14.036 51.529, 14.079 52.583 M 8.392 53.466 C 8.706 55.608, 10 56.621, 10 54.726 C 10 53.841, 9.590 52.864, 9.088 52.554 C 8.586 52.244, 8.273 52.655, 8.392 53.466 M 80.204 55.451 C 79.256 57.531, 79.304 58, 80.462 58 C 82.433 58, 83.276 56.316, 82.237 54.459 C 81.511 53.162, 81.172 53.328, 80.204 55.451 M 19.697 59.393 C 19.288 60.434, 19.189 61.522, 19.476 61.810 C 20.389 62.722, 21.191 61.227, 20.809 59.328 C 20.459 57.588, 20.405 57.591, 19.697 59.393 M 32.657 60.912 C 33.557 61.964, 34.966 62.567, 35.787 62.251 C 37.044 61.769, 36.990 61.466, 35.449 60.339 C 32.567 58.232, 30.691 58.617, 32.657 60.912 M 59.742 60.592 C 58.699 61.634, 58.845 67.207, 59.962 68.972 C 60.777 70.261, 60.965 70.256, 61.474 68.929 C 62.231 66.956, 60.708 59.625, 59.742 60.592 M 108 64.981 C 108 65.541, 109.425 66, 111.167 66 C 114.808 66, 114.676 65.563, 110.750 64.622 C 109.117 64.230, 108 64.376, 108 64.981 M 17.578 75.892 C 13.356 76.547, 11.850 78.345, 14.631 79.412 C 17.297 80.435, 36.203 80.888, 39 79.996 C 40.375 79.558, 41.107 79.155, 40.628 79.100 C 40.148 79.045, 40.262 78.389, 40.881 77.643 C 41.802 76.534, 40.883 76.168, 35.857 75.643 C 28.940 74.920, 23.356 74.996, 17.578 75.892 M 133.751 80.689 C 131.785 81.203, 131.272 82.986, 130.724 91.203 C 130.298 97.580, 131.103 98.022, 132.722 92.300 C 133.765 88.619, 135.836 79.881, 135.611 80.116 C 135.550 80.180, 134.713 80.438, 133.751 80.689 M 32 83.963 C 29.525 84.346, 25.625 85.193, 23.333 85.846 C 19.442 86.954, 19.178 87.255, 19.355 90.389 C 19.459 92.235, 20.128 94.449, 20.841 95.309 C 21.803 96.467, 21.862 97.390, 21.069 98.870 C 19.466 101.866, 19.699 108, 21.417 108 C 22.196 108, 23.060 107.438, 23.338 106.750 C 23.615 106.063, 23.878 106.498, 23.921 107.719 C 23.977 109.296, 23.567 109.771, 22.500 109.362 C 21.675 109.045, 21 109.326, 21 109.987 C 21 110.647, 21.869 111.414, 22.931 111.692 C 23.993 111.970, 24.642 112.770, 24.373 113.471 C 24.028 114.369, 24.646 114.599, 26.464 114.252 C 28.591 113.845, 28.832 113.503, 27.836 112.303 C 26.881 111.152, 26.928 110.658, 28.064 109.939 C 28.854 109.439, 29.927 109.024, 30.450 109.015 C 30.972 109.007, 30.860 108.460, 30.200 107.800 C 29.540 107.140, 29 106.015, 29 105.300 C 29 103.637, 32.644 103.596, 33.420 105.250 C 33.743 105.938, 33.843 104.431, 33.643 101.903 C 33.351 98.201, 33.655 97.072, 35.208 96.102 C 36.699 95.171, 36.990 94.229, 36.489 91.949 C 35.887 89.210, 36.049 89, 38.754 89 C 41.324 89, 41.667 88.647, 41.667 86 C 41.667 82.685, 41.073 82.560, 32 83.963 M 38.356 95.683 C 36.910 96.205, 37.831 100, 39.404 100 C 40.660 100, 41.328 96.294, 40.186 95.655 C 39.809 95.443, 38.985 95.456, 38.356 95.683 M 32.037 115.179 C 30.974 116.928, 30.320 118.708, 30.584 119.136 C 31.408 120.469, 34.145 118.819, 33.574 117.333 C 33.277 116.558, 33.701 115.716, 34.517 115.462 C 39.568 113.888, 39.628 113.838, 37.500 112.963 C 34.382 111.681, 34.093 111.798, 32.037 115.179 M 111.646 115.452 C 108.243 118.606, 108.183 122.418, 111.500 124.592 C 113.595 125.965, 114 127.012, 114 131.056 C 114 133.710, 114.520 136.203, 115.155 136.595 C 115.844 137.021, 116.039 136.871, 115.638 136.224 C 115.269 135.627, 115.378 134.885, 115.879 134.575 C 116.380 134.265, 117.022 134.614, 117.304 135.350 C 117.791 136.619, 123.368 136.965, 124.534 135.799 C 124.821 135.512, 124.593 134.061, 124.028 132.574 C 123.463 131.087, 123.020 128.662, 123.045 127.185 L 123.090 124.500 124.376 127.500 C 125.635 130.436, 125.667 130.376, 125.858 124.700 C 126.035 119.482, 125.758 118.604, 123.104 115.950 C 119.403 112.249, 115.295 112.071, 111.646 115.452 M 67.056 121.425 C 64.793 122.678, 64.755 122.815, 66.556 123.273 C 68.998 123.895, 63.989 124.194, 48.252 124.366 C 41.516 124.440, 36.003 124.838, 36.002 125.250 C 36.001 125.662, 36 126.402, 36 126.893 C 36 128.410, 39.178 129.098, 40.627 127.895 C 41.417 127.239, 42 127.172, 42 127.736 C 42 128.730, 50.967 130.477, 63.218 131.871 C 69.442 132.579, 70.875 132.332, 82.718 128.513 C 101.331 122.510, 101.703 122.059, 87.589 122.610 C 81.044 122.866, 75.239 123.353, 74.689 123.692 C 74.127 124.040, 74.002 123.805, 74.405 123.155 C 74.879 122.388, 74.175 121.995, 72.309 121.985 C 70.128 121.973, 69.835 121.753, 71 121 C 73.454 119.414, 70.017 119.784, 67.056 121.425 M 40.813 125.683 C 41.534 125.972, 42.397 125.936, 42.729 125.604 C 43.061 125.272, 42.471 125.036, 41.417 125.079 C 40.252 125.127, 40.015 125.364, 40.813 125.683 M 32 134.972 C 32 136.328, 33.777 137.170, 34.425 136.121 C 34.735 135.620, 34.316 134.952, 33.494 134.636 C 32.672 134.321, 32 134.472, 32 134.972" stroke="none" fill="#3467df" fill-rule="evenodd"/>
</svg>