<svg xmlns="http://www.w3.org/2000/svg" width="180" height="135" viewBox="0 0 180 135" version="1.1">
	<rect x="0" y="0" width="100%" height="100%" fill="#bfbfbf" />
	<path d="M 0.028 31.448 C 0.114 66.365, -0.183 65.104, 6.500 58.946 C 9.206 56.453, 15.936 53, 18.091 53 C 18.556 53, 18.688 53.649, 18.384 54.443 C 17.742 56.114, 30.992 72.469, 32.017 71.272 C 32.381 70.847, 34.055 67.050, 35.737 62.833 L 38.795 55.165 36.546 54.601 C 33.563 53.852, 29.351 47.344, 29.129 43.140 C 29.022 41.109, 29.975 37.950, 31.539 35.151 L 34.127 30.521 31.922 28.736 C 30.709 27.753, 30.003 26.664, 30.352 26.314 C 30.702 25.965, 31.778 26.384, 32.744 27.246 C 33.710 28.109, 36.464 29.337, 38.865 29.976 C 41.266 30.616, 44.378 32.287, 45.781 33.690 L 48.332 36.241 45.931 38.052 C 43.640 39.780, 43.841 41.500, 46.333 41.500 C 46.975 41.500, 47.641 42.489, 47.813 43.698 C 48.194 46.379, 46.260 50.278, 44.950 49.469 C 44.427 49.146, 44 49.323, 44 49.862 C 44 50.400, 45.437 51.157, 47.193 51.542 C 50.553 52.280, 53 54.129, 53 55.929 C 53 56.518, 53.461 57, 54.025 57 C 54.588 57, 55.477 58.125, 56 59.500 C 57.082 62.346, 56.535 62.280, 68.500 61.008 C 73.450 60.482, 100.788 60.025, 129.250 59.992 L 181 59.931 180.921 29.716 C 180.878 13.097, 180.614 0.065, 180.336 0.756 C 180.057 1.447, 179.305 1.685, 178.665 1.285 C 176.809 0.126, 174.150 -0.052, 173.537 0.940 C 173.227 1.442, 165.227 1.897, 155.760 1.951 C 146.292 2.005, 136.961 2.294, 135.023 2.594 C 133.085 2.893, 115.614 2.432, 96.198 1.569 C 76.782 0.706, 47.183 0, 30.423 0 L -0.050 0 0.028 31.448 M 0.444 31 C 0.444 47.775, 0.581 54.637, 0.748 46.250 C 0.915 37.862, 0.915 24.137, 0.748 15.750 C 0.581 7.362, 0.444 14.225, 0.444 31 M 178.501 8.250 C 177.813 12.121, 177.677 12.277, 176.972 10 C 176.547 8.625, 176.155 8.063, 176.100 8.750 C 176.045 9.438, 175.073 10, 173.941 10 C 172.809 10, 172.128 9.602, 172.428 9.116 C 172.731 8.627, 169.969 8.371, 166.237 8.544 C 160.419 8.813, 160.114 8.750, 164 8.078 L 168.500 7.300 164 6.972 C 158.377 6.561, 157.336 6.609, 153 7.472 C 150.386 7.992, 149.880 7.898, 151 7.100 C 152.165 6.269, 151.607 6.031, 148.500 6.031 C 145.389 6.031, 144.833 6.269, 146 7.102 C 147.192 7.954, 147.014 8.066, 145.135 7.650 C 143.834 7.362, 141.994 7.611, 141.046 8.203 C 139.891 8.925, 138.741 8.955, 137.561 8.294 C 136.372 7.629, 134.055 7.715, 130.426 8.558 C 127.470 9.245, 122.720 9.826, 119.869 9.848 C 117.019 9.870, 114.418 10.323, 114.090 10.855 C 113.761 11.387, 108.094 12.135, 101.496 12.519 C 94.898 12.902, 89.312 13.392, 89.083 13.608 C 88.854 13.823, 109.217 14, 134.333 14 L 180 14 180 9 C 180 6.250, 179.833 4, 179.628 4 C 179.423 4, 178.916 5.912, 178.501 8.250 M 143 10.500 C 141.951 11.763, 142.129 11.988, 144.128 11.921 C 145.432 11.878, 145.935 11.614, 145.244 11.336 C 144.553 11.057, 144.242 10.418, 144.553 9.915 C 145.460 8.447, 144.360 8.862, 143 10.500 M 109.813 10.683 C 110.534 10.972, 111.397 10.936, 111.729 10.604 C 112.061 10.272, 111.471 10.036, 110.417 10.079 C 109.252 10.127, 109.015 10.364, 109.813 10.683 M 37 37.965 C 37 38.534, 36.325 39, 35.500 39 C 34.675 39, 34 39.450, 34 40 C 34 40.550, 35.575 41, 37.500 41 C 41.385 41, 42.065 39.640, 39 38 C 37.644 37.274, 37 37.263, 37 37.965 M 22 41.929 C 22 43.131, 24.869 46, 26.071 46 C 27.484 46, 27.198 45.198, 25 43 C 22.802 40.802, 22 40.516, 22 41.929 M 37 50.107 C 37 50.718, 37.728 50.935, 38.627 50.590 C 39.521 50.246, 40.871 50.478, 41.627 51.105 C 42.475 51.809, 43 51.856, 43 51.229 C 43 50.127, 40.684 49, 38.418 49 C 37.638 49, 37 49.498, 37 50.107 M 163.352 61.993 C 162.171 62.470, 160.893 63.363, 160.513 63.979 C 160.019 64.778, 148.174 65.069, 119.161 64.997 C 53.859 64.835, 57.683 64.725, 58.442 66.750 C 59.806 70.392, 65.616 79.387, 68.474 82.282 C 70.784 84.622, 71.453 86.208, 71.474 89.397 C 71.490 91.880, 70.908 93.965, 70 94.679 C 68.684 95.713, 68.715 95.940, 70.250 96.536 C 71.359 96.966, 72.042 98.364, 72.116 100.357 C 72.180 102.086, 72.438 102.713, 72.689 101.750 C 72.941 100.787, 73.612 100, 74.180 100 C 74.749 100, 74.969 99.362, 74.670 98.583 C 74.371 97.803, 74.773 96.917, 75.563 96.614 C 77.510 95.867, 77.388 94, 75.393 94 C 74.338 94, 73.995 93.456, 74.393 92.418 C 74.727 91.548, 75 90.596, 75 90.303 C 75 90.010, 76.164 90.533, 77.587 91.465 C 79.009 92.397, 80.365 92.968, 80.600 92.733 C 81.441 91.892, 78.119 85.420, 75.850 83.480 C 73.539 81.504, 73.538 81.504, 75.017 83.500 C 76.339 85.283, 76.335 85.371, 74.973 84.313 C 74.134 83.660, 73.361 82.085, 73.256 80.813 L 73.066 78.500 96.783 78.500 C 109.827 78.500, 121.805 78.137, 123.399 77.694 L 126.298 76.887 122.649 74.407 C 118.419 71.533, 118.134 70.526, 121.250 69.472 C 124.842 68.258, 173.099 67.697, 177.029 68.824 L 180.500 69.820 176.417 69.910 C 174.171 69.959, 171.995 70.338, 171.581 70.750 C 170.846 71.483, 166.768 71.907, 160.250 71.927 C 158.463 71.933, 157 72.401, 157 72.969 C 157 73.536, 157.350 74, 157.777 74 C 158.205 74, 160.005 75.325, 161.777 76.944 C 164.063 79.031, 165 80.776, 165 82.944 C 165 84.799, 165.473 85.902, 166.205 85.750 C 166.867 85.612, 167.430 85.982, 167.455 86.571 C 167.480 87.161, 168.287 88.430, 169.250 89.393 C 170.213 90.355, 171 91.588, 171 92.133 C 171 92.737, 172.725 92.864, 175.424 92.459 C 179.713 91.816, 179.860 91.883, 180.274 94.648 C 180.966 99.279, 181.041 71.990, 180.352 66.250 L 179.721 61 172.611 61.063 C 168.700 61.098, 164.534 61.517, 163.352 61.993 M 51 62.824 C 51 63.536, 50.632 63.891, 50.182 63.613 C 49.732 63.335, 48.075 63.887, 46.500 64.840 C 42.883 67.027, 40.226 76.458, 42.510 79 C 43.251 79.825, 43.861 80.725, 43.864 81 C 43.868 81.275, 44.159 82.249, 44.510 83.166 C 44.862 84.082, 45.003 86.069, 44.825 87.583 C 44.576 89.693, 43.713 90.598, 41.123 91.465 C 37.675 92.620, 34 96.230, 34 98.464 C 34 99.442, 35.120 99.421, 39.250 98.365 C 42.138 97.627, 45.400 96.591, 46.500 96.063 C 47.600 95.535, 49.400 94.963, 50.500 94.791 C 51.684 94.607, 52.630 93.566, 52.820 92.240 C 53.200 89.572, 53.371 89.542, 56.491 91.586 C 57.823 92.459, 59.446 92.842, 60.099 92.439 C 60.892 91.949, 60.408 91.246, 58.643 90.321 C 57.189 89.559, 55.947 88.388, 55.881 87.718 C 55.298 81.721, 55.543 71.782, 56.286 71.323 C 56.845 70.978, 56.823 70.502, 56.232 70.125 C 55.692 69.781, 54.294 67.707, 53.125 65.515 C 51.956 63.323, 51 62.112, 51 62.824 M 1 82.916 L 1 97.950 3.565 96.975 C 8.780 94.993, 9.354 95.865, 5.582 100.040 C 3.575 102.263, 2.175 104.474, 2.472 104.955 C 2.769 105.436, 2.447 106.057, 1.756 106.336 C 0.752 106.740, 0.752 106.858, 1.754 106.921 C 2.443 106.964, 4.686 106.100, 6.739 105 C 10.651 102.903, 13.604 102.434, 14.167 103.821 C 14.350 104.272, 17.875 103.865, 22 102.917 C 26.125 101.969, 28.600 101.134, 27.500 101.061 C 23.010 100.764, 20.086 97.632, 9.491 81.770 C 6.532 77.340, 6.445 76.862, 8.750 77.697 C 9.713 78.046, 8.925 76.750, 7 74.816 C 4.672 72.479, 3.227 71.669, 2.684 72.401 C 2.228 73.016, 2.136 72.547, 2.475 71.334 C 2.809 70.143, 2.613 68.879, 2.041 68.525 C 1.337 68.090, 1 72.756, 1 82.916 M 30 69 C 30 69.550, 30.477 70, 31.059 70 C 31.641 70, 31.840 69.550, 31.500 69 C 31.160 68.450, 30.684 68, 30.441 68 C 30.198 68, 30 68.450, 30 69 M 50.710 72.198 C 49.139 75.509, 49.121 76.267, 50.502 81.158 C 51.567 84.933, 51.892 85.473, 51.609 83 C 51.389 81.075, 50.859 78.375, 50.431 77 C 49.726 74.736, 49.813 74.631, 51.351 75.893 C 53.696 77.816, 54.167 76.952, 53.229 72.441 L 52.427 68.580 50.710 72.198 M 2 74.889 C 2 75.957, 5.919 80.806, 5.967 79.797 C 6.033 78.400, 3.659 74, 2.839 74 C 2.378 74, 2 74.400, 2 74.889 M 176.834 75.876 C 177.898 76.551, 177.831 76.851, 176.502 77.361 C 175.586 77.712, 174 78, 172.977 78 C 171.955 78, 170.840 78.450, 170.500 79 C 170.119 79.616, 171.823 80, 174.941 80 C 179.671 80, 180 79.837, 180 77.500 C 180 75.570, 179.487 75.003, 177.750 75.015 C 176.136 75.026, 175.877 75.270, 176.834 75.876 M 45.529 80.723 C 46.338 82.660, 47 85.314, 47 86.622 C 47 89.090, 48.389 89.798, 49.549 87.921 C 50.715 86.034, 47.946 78.219, 45.924 77.690 C 44.164 77.230, 44.142 77.403, 45.529 80.723 M 47.500 91 C 47.840 91.550, 48.316 92, 48.559 92 C 48.802 92, 49 91.550, 49 91 C 49 90.450, 48.523 90, 47.941 90 C 47.359 90, 47.160 90.450, 47.500 91 M 167 94.333 C 167 97.222, 167.444 99, 168.167 99 C 168.808 99, 169.032 98.699, 168.664 98.331 C 168.297 97.963, 168.771 96.805, 169.720 95.757 C 171.080 94.254, 171.133 93.920, 169.972 94.176 C 169.135 94.360, 168.494 93.776, 168.487 92.821 C 168.480 91.897, 168.143 90.809, 167.737 90.404 C 167.332 89.998, 167 91.767, 167 94.333 M 83 95.727 C 83 96.777, 85.114 99, 86.112 99 C 86.503 99, 86.708 98.213, 86.567 97.250 C 86.311 95.497, 83 94.083, 83 95.727 M 163.342 111.243 C 160.699 115.619, 130.318 117.633, 120.907 114.057 C 115.834 112.129, 115.807 112.129, 117.560 114.067 C 121.856 118.813, 142.120 120.671, 154.540 117.458 C 160.095 116.021, 166.190 111.856, 164.789 110.455 C 164.456 110.122, 163.805 110.477, 163.342 111.243" stroke="none" fill="#3467df" fill-rule="evenodd"/>
</svg>