<svg xmlns="http://www.w3.org/2000/svg" width="60" height="60" viewBox="0 0 60 60" version="1.1">
	<rect x="0" y="0" width="100%" height="100%" fill="#bfbfbf" />
	<path d="M 21.994 2.875 C 17.250 4.430, 13.492 6.844, 9.860 10.668 C 3.800 17.048, 2.518 20.419, 2.509 30 C 2.501 37.550, 2.829 39.095, 5.449 43.824 C 10.603 53.128, 19.040 58, 30 58 C 41.625 58, 49.997 52.814, 55.097 42.454 C 57.990 36.577, 58.224 35.392, 57.793 28.760 C 57.261 20.555, 55.440 16.249, 50.140 10.665 C 44.756 4.993, 39.689 2.737, 31.500 2.368 C 27.650 2.195, 23.372 2.423, 21.994 2.875 M 21.800 13.200 C 22.460 13.860, 23 15.687, 23 17.259 C 23 19.074, 23.399 19.871, 24.094 19.442 C 24.696 19.070, 24.981 17.683, 24.728 16.359 C 24.475 15.035, 24.658 13.711, 25.134 13.417 C 25.610 13.123, 26 14.232, 26 15.882 C 26 17.532, 26.450 19.160, 27 19.500 C 27.550 19.840, 28 19.416, 28 18.559 C 28 17.702, 28.675 17, 29.500 17 C 30.325 17, 31 17.450, 31 18 C 31 18.550, 31.450 19, 32 19 C 32.550 19, 33 17.425, 33 15.500 C 33 13.575, 32.550 12, 32 12 C 31.450 12, 31 12.675, 31 13.500 C 31 14.325, 30.325 15, 29.500 15 C 28.675 15, 28 14.325, 28 13.500 C 28 12.437, 26.922 12, 24.300 12 C 21.422 12, 20.867 12.267, 21.800 13.200 M 34 15.531 C 34 19.301, 36.223 21.177, 38.267 19.133 C 39.111 18.289, 38.902 17.996, 37.450 17.985 C 35.820 17.972, 35.746 17.808, 37 16.985 C 38.333 16.109, 38.333 15.889, 37 15 C 35.667 14.111, 35.667 13.891, 37 13.015 C 38.218 12.216, 38.077 12.028, 36.250 12.015 C 34.339 12.002, 34 12.531, 34 15.531 M 13 33 C 13 36.725, 13.189 36.992, 15.750 36.884 C 17.540 36.809, 17.870 36.605, 16.697 36.300 C 15.266 35.929, 15.136 35.541, 16.069 34.416 C 16.912 33.401, 16.927 33, 16.122 33 C 15.505 33, 15 32.550, 15 32 C 15 30.053, 16.593 31.040, 18.407 34.111 C 19.811 36.489, 20.451 36.902, 21.122 35.861 C 21.848 34.735, 22.148 34.729, 22.856 35.826 C 23.490 36.808, 24.256 36.231, 25.806 33.604 C 26.999 31.583, 27.490 29.803, 26.948 29.468 C 26.424 29.144, 25.558 30.032, 25.023 31.440 C 23.815 34.617, 22.758 34.812, 23.536 31.714 C 23.997 29.874, 23.698 29.429, 22 29.429 C 20.259 29.429, 19.990 29.871, 20.461 31.964 L 21.031 34.500 18.932 31.750 C 17.778 30.238, 15.971 29, 14.917 29 C 13.347 29, 13 29.725, 13 33 M 29.494 30.010 C 29.157 30.555, 29.359 31, 29.941 31 C 30.523 31, 31 32.350, 31 34 C 31 35.650, 31.450 37, 32 37 C 32.550 37, 33 35.650, 33 34 C 33 29.932, 34.966 30.163, 35.132 34.250 L 35.263 37.500 36 34 L 36.737 30.500 36.868 33.750 C 37.026 37.651, 39 38.161, 39 34.300 C 39 32.304, 39.293 31.893, 40.122 32.722 C 40.739 33.339, 41.831 33.618, 42.549 33.343 C 43.455 32.995, 43.688 33.477, 43.310 34.921 C 43 36.110, 43.245 37, 43.883 37 C 44.526 37, 45 35.238, 45 32.845 C 45 28.896, 44.910 28.771, 43.186 30.331 C 41.832 31.557, 41.085 31.685, 40.236 30.836 C 38.768 29.368, 30.293 28.717, 29.494 30.010 M 46.667 29.667 C 46.300 30.033, 46 31.833, 46 33.667 C 46 36.815, 46.196 37, 49.531 37 C 52.022 37, 53.222 36.484, 53.604 35.250 C 53.902 34.288, 54.591 32.674, 55.135 31.665 C 55.937 30.175, 55.791 29.894, 54.356 30.170 C 53.383 30.357, 52.323 31.631, 52 33 C 51.663 34.428, 50.578 35.621, 49.456 35.799 C 47.801 36.060, 47.731 35.933, 49 34.978 C 50.132 34.125, 50.193 33.723, 49.250 33.341 C 47.482 32.623, 47.696 31, 49.559 31 C 50.416 31, 50.840 30.550, 50.500 30 C 49.796 28.860, 47.659 28.675, 46.667 29.667 M 5 33.385 C 5 35.373, 5.450 37, 6 37 C 6.550 37, 7 36.255, 7 35.345 C 7 33.805, 7.127 33.805, 8.829 35.345 C 11.469 37.735, 12 37.426, 12 33.500 C 12 31.575, 11.550 30, 11 30 C 10.450 30, 10 30.685, 10 31.523 C 10 32.856, 9.689 32.842, 7.500 31.408 L 5 29.770 5 33.385" stroke="none" fill="blue" fill-rule="evenodd"/>
</svg>