<svg xmlns="http://www.w3.org/2000/svg" width="180" height="135" viewBox="0 0 180 135" version="1.1">
	<rect x="0" y="0" width="100%" height="100%" fill="#bfbfbf" />
	<path d="M 101 11 C 101 11.550, 101.900 12, 103 12 C 104.100 12, 105 11.550, 105 11 C 105 10.450, 104.100 10, 103 10 C 101.900 10, 101 10.450, 101 11 M 107.750 10.662 C 108.438 10.940, 109.563 10.940, 110.250 10.662 C 110.938 10.385, 110.375 10.158, 109 10.158 C 107.625 10.158, 107.063 10.385, 107.750 10.662 M 92 11.821 C 92 12.272, 89.485 12.491, 86.412 12.306 C 82.238 12.055, 80.931 12.291, 81.249 13.235 C 81.485 13.937, 82.819 14.362, 84.245 14.191 C 86.113 13.966, 87.813 14.879, 90.473 17.540 C 92.962 20.028, 94.751 21.037, 96.066 20.693 C 97.130 20.415, 98 20.548, 98 20.989 C 98 21.767, 101.736 22.513, 111 23.584 C 113.475 23.870, 116.494 24.597, 117.709 25.199 C 121.157 26.908, 124.088 34.309, 124.516 42.387 C 124.724 46.299, 124.665 48.520, 124.387 47.323 C 123.542 43.695, 121.641 42.846, 116.025 43.591 C 109.182 44.499, 107.856 45.886, 109.187 50.743 C 110.439 55.312, 111.979 58.354, 112.684 57.649 C 112.971 57.362, 114.246 58.336, 115.518 59.814 C 116.789 61.291, 118.205 62.126, 118.663 61.668 C 119.122 61.211, 118.690 60.247, 117.704 59.526 C 116.020 58.294, 116.074 58.087, 118.597 56.102 C 120.549 54.567, 121.629 54.278, 122.552 55.043 C 124.084 56.315, 125.506 54.628, 124.405 52.845 C 123.982 52.162, 124.128 51.961, 124.763 52.353 C 125.409 52.753, 126.492 51.036, 127.492 48.025 C 128.893 43.806, 128.969 42.144, 127.984 37.268 C 127.343 34.095, 126.033 30.137, 125.073 28.470 C 124.113 26.804, 123.028 24.248, 122.662 22.790 C 122.296 21.332, 120.492 18.544, 118.654 16.594 C 115.937 13.714, 114.632 13.075, 111.695 13.185 C 109.707 13.260, 108.305 13.684, 108.579 14.128 C 108.853 14.571, 110.381 14.674, 111.974 14.355 C 114.513 13.847, 114.806 14.026, 114.341 15.803 C 113.874 17.589, 113.453 17.705, 110.798 16.780 C 108.559 15.999, 107.593 16.040, 107.038 16.939 C 106.476 17.848, 105.900 17.757, 104.717 16.574 C 103.851 15.708, 102.511 15, 101.738 15 C 100.965 15, 100.002 14.668, 99.596 14.263 C 99.191 13.857, 98.328 13.476, 97.679 13.415 C 93.286 13.004, 92.976 12.631, 96.500 12 L 100.500 11.284 96.250 11.142 C 93.912 11.064, 92 11.369, 92 11.821 M 73.053 13.436 C 72.137 14.540, 72.133 15.380, 73.038 17.071 C 73.919 18.716, 74.416 18.944, 75.015 17.976 C 75.455 17.264, 75.595 15.966, 75.326 15.091 C 74.887 13.663, 74.975 13.666, 76.181 15.117 C 77.318 16.483, 77.724 16.521, 78.809 15.359 C 79.870 14.224, 79.640 13.814, 77.481 12.993 C 74.220 11.753, 74.471 11.728, 73.053 13.436 M 78.531 17.779 C 78.181 18.692, 78.214 19.119, 78.605 18.728 C 78.996 18.337, 79.939 18.534, 80.700 19.166 C 81.609 19.920, 82.423 19.977, 83.070 19.330 C 83.716 18.684, 83.215 17.963, 81.611 17.233 C 79.594 16.313, 79.057 16.409, 78.531 17.779 M 102.405 17.858 C 104.443 20.150, 105 20.446, 105 19.241 C 105 18.823, 103.987 17.859, 102.750 17.099 C 100.508 15.722, 100.507 15.724, 102.405 17.858 M 87.500 19 C 87.840 19.550, 88.316 20, 88.559 20 C 88.802 20, 89 19.550, 89 19 C 89 18.450, 88.523 18, 87.941 18 C 87.359 18, 87.160 18.450, 87.500 19 M 118 18.755 C 118 19.305, 118.675 20.315, 119.500 21 C 120.337 21.694, 121 21.803, 121 21.245 C 121 20.695, 120.325 19.685, 119.500 19 C 118.663 18.306, 118 18.197, 118 18.755 M 73 25 C 71.900 26.100, 70.605 27, 70.122 27 C 69.639 27, 68.489 28.012, 67.566 29.250 C 66.057 31.273, 65.944 31.298, 66.443 29.500 C 66.864 27.982, 66.417 28.200, 64.585 30.408 C 62.339 33.116, 62.059 33.202, 60.515 31.658 C 59.603 30.746, 59.255 30, 59.741 30 C 60.226 30, 61.680 28.538, 62.970 26.750 L 65.317 23.500 62.732 25.855 C 60.359 28.017, 57.213 28.083, 58.536 25.942 C 58.848 25.437, 58.394 25.295, 57.525 25.629 C 56.657 25.962, 54.771 28.240, 53.335 30.692 C 50.422 35.662, 49.211 45.591, 50.690 52.367 C 51.478 55.977, 51.799 56.258, 55.512 56.591 C 57.699 56.788, 59.941 57.560, 60.495 58.308 C 61.048 59.057, 62.694 59.966, 64.154 60.329 C 66.461 60.903, 66.946 60.594, 67.862 57.967 C 68.441 56.304, 68.664 54.287, 68.356 53.484 C 68.048 52.681, 68.968 50.024, 70.401 47.578 C 72.954 43.222, 73.356 38.246, 71.113 38.750 C 69.581 39.094, 69.714 35.869, 71.331 33.473 C 72.972 31.040, 76.166 23, 75.492 23 C 75.221 23, 74.100 23.900, 73 25 M 89 43 C 87.710 43.834, 87.738 43.972, 89.203 43.985 C 90.140 43.993, 92.065 44.528, 93.481 45.173 C 96.284 46.450, 95.228 47.951, 91.500 47.991 C 90.400 48.003, 88.211 48.685, 86.636 49.506 C 85.060 50.328, 82.833 51, 81.686 51 C 80.349 51, 79.946 51.346, 80.563 51.963 C 81.092 52.492, 84.368 53.010, 87.843 53.115 C 95.708 53.351, 98.525 55.346, 95.010 58.193 C 93.526 59.394, 93.260 60, 94.215 60 C 96.070 60, 100.244 55.577, 99.290 54.623 C 98.889 54.222, 99.277 54.169, 100.151 54.505 C 101.963 55.200, 103.081 53.281, 104.564 46.933 C 105.101 44.630, 104.756 44.244, 101.216 43.183 C 96.457 41.757, 91.048 41.676, 89 43 M 121 47 C 121 47.550, 121.477 48, 122.059 48 C 122.641 48, 122.840 47.550, 122.500 47 C 122.160 46.450, 121.684 46, 121.441 46 C 121.198 46, 121 46.450, 121 47 M 82 49.167 C 82 49.625, 82.675 50, 83.500 50 C 84.325 50, 85 49.625, 85 49.167 C 85 48.708, 84.325 48.333, 83.500 48.333 C 82.675 48.333, 82 48.708, 82 49.167 M 94 51.441 C 94 52.298, 94.450 53, 95 53 C 95.550 53, 96 52.577, 96 52.059 C 96 51.541, 95.550 50.840, 95 50.500 C 94.450 50.160, 94 50.584, 94 51.441 M 76.813 51.683 C 77.534 51.972, 78.397 51.936, 78.729 51.604 C 79.061 51.272, 78.471 51.036, 77.417 51.079 C 76.252 51.127, 76.015 51.364, 76.813 51.683 M 130 53 C 130 53.550, 130.450 54, 131 54 C 131.550 54, 132 53.550, 132 53 C 132 52.450, 131.550 52, 131 52 C 130.450 52, 130 52.450, 130 53 M 126.507 54.989 C 126.157 55.555, 126.558 55.723, 127.448 55.382 C 129.180 54.717, 129.497 54, 128.059 54 C 127.541 54, 126.843 54.445, 126.507 54.989 M 54.728 60.128 C 55.566 60.966, 55.564 61.726, 54.719 63.078 C 53.128 65.626, 55.954 71.496, 58.878 71.716 C 60.045 71.804, 61 71.454, 61 70.938 C 61 70.422, 60.491 70, 59.868 70 C 59.125 70, 58.921 68.626, 59.273 66 C 59.683 62.941, 59.472 62, 58.373 62 C 57.584 62, 56.678 61.325, 56.362 60.500 C 56.045 59.675, 55.294 59, 54.693 59 C 53.923 59, 53.934 59.334, 54.728 60.128 M 102.332 67.619 C 99.404 68.625, 98.394 68.645, 97.798 67.707 C 97.266 66.871, 97.026 66.849, 97.015 67.635 C 96.993 69.304, 101.551 72, 104.395 72 C 106.176 72, 106.950 72.614, 107.180 74.209 C 107.382 75.604, 108.421 76.634, 110 77.005 C 112.097 77.497, 112.218 77.701, 110.750 78.265 C 109.787 78.635, 108.366 78.694, 107.591 78.397 C 106.816 78.099, 104.473 78.328, 102.385 78.904 C 99.694 79.647, 98.394 79.638, 97.921 78.873 C 97.049 77.461, 93.484 79.296, 92.594 81.615 C 91.698 83.950, 92.292 84.220, 95.578 82.970 C 98.533 81.847, 111.848 81.945, 112.559 83.096 C 112.781 83.454, 110.720 84.045, 107.981 84.408 C 105.241 84.772, 103 85.448, 103 85.912 C 103 87.408, 105.604 88.973, 109.095 89.575 C 114.542 90.514, 117 92.098, 117 94.669 C 117 97.177, 116.328 97.493, 114.054 96.054 C 113.165 95.492, 111.891 95.523, 110.749 96.134 C 108.648 97.259, 97.674 99.336, 94.234 99.260 C 92.988 99.232, 90.738 98.392, 89.234 97.392 C 86.526 95.592, 86.112 95.448, 82.789 95.152 C 81.847 95.069, 79.295 93.200, 77.117 91 C 72.791 86.630, 68 85.474, 68 88.800 C 68 89.790, 67.508 91.092, 66.907 91.693 C 65.423 93.177, 67.110 96.186, 70.423 97.959 C 73.400 99.552, 73.650 100.537, 71.395 101.799 C 70.164 102.488, 73.045 104.370, 83.770 109.882 C 91.459 113.834, 98.563 117.965, 99.556 119.062 C 101.306 120.996, 101.290 121.108, 99.034 122.689 C 85.185 132.389, 87.939 135.121, 111.343 134.896 C 124.826 134.767, 126.058 134.618, 122.500 133.550 C 116.479 131.742, 114 130.135, 114 128.037 C 114 125.739, 109.491 122, 106.719 122 C 104.877 122, 104.930 121.794, 107.354 119.548 C 109.076 117.952, 110 116.054, 110 114.113 C 110 109.596, 111.680 106.071, 116.136 101.236 C 118.359 98.825, 121.042 94.899, 122.097 92.512 C 124.515 87.047, 127.203 67.587, 125.324 69.146 C 124.639 69.715, 123.792 71.081, 123.442 72.182 C 123.041 73.446, 122.178 74.018, 121.098 73.736 C 119.717 73.375, 119.469 73.837, 119.808 76.144 C 120.282 79.378, 119.427 79.688, 116.223 77.443 C 113.381 75.453, 113.352 72.175, 116.166 71.134 L 118.333 70.333 116.173 68.173 C 113.701 65.701, 108.514 65.493, 102.332 67.619 M 60.998 79.503 C 59.902 80.823, 59.934 81.627, 61.186 84.271 L 62.693 87.452 63.416 83.596 C 64.241 79.201, 62.996 77.095, 60.998 79.503 M 55 81.809 C 55 83.354, 55.679 85.491, 56.509 86.559 C 57.938 88.398, 57.995 88.342, 57.591 85.500 C 57.356 83.850, 57.127 81.713, 57.082 80.750 C 56.944 77.815, 55 78.804, 55 81.809 M 114.500 87 C 114.160 87.550, 114.332 88, 114.882 88 C 115.432 88, 116.160 87.550, 116.500 87 C 116.840 86.450, 116.668 86, 116.118 86 C 115.568 86, 114.840 86.450, 114.500 87 M 56.488 110.019 C 56.202 110.483, 56.473 111.174, 57.090 111.556 C 57.888 112.049, 57.820 112.526, 56.857 113.201 C 55.802 113.941, 55.778 114.265, 56.750 114.659 C 57.438 114.938, 58 115.788, 58 116.548 C 58 118.298, 61.701 120.329, 63.578 119.608 C 64.360 119.308, 65 119.499, 65 120.031 C 65 120.564, 65.675 121, 66.500 121 C 67.325 121, 68 121.675, 68 122.500 C 68 123.325, 68.459 124, 69.020 124 C 70.522 124, 69.453 128.449, 67.364 130.887 C 64.935 133.725, 63.470 133.547, 62.098 130.250 C 61.065 127.768, 56.036 122.218, 53.500 120.762 C 52.871 120.401, 52.628 122.100, 52.845 125.344 C 53.120 129.461, 53.724 130.946, 55.845 132.714 C 58.341 134.795, 59.460 134.929, 74.500 134.941 L 90.500 134.953 80.324 125.164 C 74.727 119.779, 68.313 114.103, 66.071 112.549 C 61.929 109.679, 57.432 108.492, 56.488 110.019 M 14.676 132.452 C 12.572 133.202, 10.585 134.082, 10.259 134.408 C 9.933 134.733, 15.367 135, 22.333 135 C 35.222 135, 38.254 133.998, 31.250 132.053 C 26.160 130.639, 19.295 130.804, 14.676 132.452" stroke="none" fill="#3467df" fill-rule="evenodd"/>
</svg>