<svg xmlns="http://www.w3.org/2000/svg" width="180" height="135" viewBox="0 0 180 135" version="1.1">
	<rect x="0" y="0" width="100%" height="100%" fill="#bfbfbf" />
	<path d="M 0.228 19.167 C 0.445 34.458, 0.781 38.428, 1.889 38.797 C 2.839 39.113, 3.026 38.823, 2.479 37.880 C 2.007 37.065, 2.052 36.841, 2.590 37.333 C 3.090 37.792, 3.501 38.692, 3.503 39.333 C 3.504 39.975, 4.274 40.505, 5.214 40.512 C 6.154 40.518, 7.503 41.171, 8.212 41.963 C 9.320 43.203, 9.256 43.219, 7.750 42.079 C 5.174 40.130, 5.620 42.343, 8.361 45.114 C 11.332 48.116, 14.145 53.522, 13.218 54.448 C 12.832 54.834, 13.300 55.589, 14.258 56.125 C 15.216 56.661, 15.993 57.865, 15.985 58.800 C 15.975 59.923, 15.718 60.104, 15.227 59.334 C 14.819 58.692, 12.795 56.824, 10.728 55.181 C 7.310 52.465, 6.658 52.292, 3.487 53.265 L 0.003 54.335 0.024 94.705 L 0.044 135.075 17.272 134.788 C 30.936 134.560, 34.443 134.226, 34.225 133.175 C 34.031 132.243, 34.626 132.040, 36.225 132.490 C 38 132.990, 38.171 132.900, 37 132.081 C 36.175 131.503, 34.919 131.024, 34.208 131.015 C 33.498 131.007, 31.923 130.068, 30.708 128.930 C 28.578 126.933, 28.566 126.811, 30.353 125.494 C 31.711 124.494, 32.898 124.391, 34.788 125.110 C 36.804 125.876, 37.559 125.752, 38.234 124.546 C 38.710 123.695, 40.202 123, 41.550 123 C 44.299 123, 44.707 121.442, 42.576 119.079 C 41.352 117.721, 41.349 117.232, 42.560 115.582 C 43.728 113.989, 44.373 113.849, 46.365 114.757 C 47.685 115.358, 49.953 115.719, 51.406 115.560 C 52.860 115.400, 54.289 115.659, 54.583 116.135 C 55.604 117.786, 58 116.990, 58 115 C 58 113.527, 57.333 113, 55.469 113 C 54.076 113, 52.692 112.360, 52.391 111.577 C 51.171 108.397, 46.497 109.129, 43.302 113 C 42.621 113.825, 42.049 114.111, 42.032 113.635 C 42.014 113.159, 40.891 113.497, 39.535 114.385 C 38.180 115.273, 36.380 116, 35.535 116 C 34.691 116, 34 116.648, 34 117.441 C 34 119.551, 32.131 120.354, 30.456 118.964 C 29.431 118.113, 29 118.087, 29 118.878 C 29 121.069, 26.030 119.957, 24.652 117.250 C 22.288 112.602, 21.700 109.917, 23.115 110.225 C 23.812 110.376, 24.573 109.600, 24.806 108.500 C 25.221 106.548, 26.717 105.046, 28.276 105.015 C 28.702 105.007, 28.365 106.328, 27.526 107.950 C 26.687 109.573, 25.993 111.711, 25.985 112.700 C 25.972 114.228, 25.823 114.273, 25 113 C 24.179 111.730, 24.028 111.778, 24.015 113.317 C 24.003 114.745, 24.483 114.985, 26.250 114.435 C 27.488 114.050, 28.650 113.345, 28.833 112.868 C 29.017 112.391, 30.169 112, 31.395 112 C 32.620 112, 34.589 111.100, 35.770 110 C 38.093 107.835, 42.634 107.165, 41.395 109.170 C 40.885 109.995, 41.236 110.107, 42.586 109.551 C 43.639 109.117, 45.082 108.740, 45.793 108.714 C 46.504 108.688, 46.856 108.067, 46.574 107.333 C 46.178 106.300, 47.653 106, 53.138 106 C 59.484 106, 60.140 106.181, 59.496 107.750 C 58.228 110.840, 58.445 112.509, 60.082 112.245 C 61.798 111.968, 70 119.224, 70 121.019 C 70 121.623, 70.441 121.846, 70.979 121.513 C 71.518 121.180, 72.841 121.380, 73.919 121.956 C 75.976 123.057, 78.167 121.424, 76.358 120.138 C 75.010 119.181, 72.901 113.969, 73.482 113.030 C 73.760 112.579, 73.285 111.940, 72.425 111.610 C 71.326 111.188, 71.068 110.341, 71.555 108.755 C 72.498 105.688, 72.359 105.725, 75.696 107.640 C 78.643 109.332, 82 109.007, 82 107.031 C 82 106.464, 81.298 106, 80.441 106 C 79.584 106, 79.128 105.601, 79.430 105.114 C 79.908 104.340, 97.258 103.829, 118.186 103.972 C 121.863 103.997, 125.152 103.564, 125.495 103.009 C 125.837 102.454, 126.991 102, 128.059 102 C 129.515 102, 130 102.695, 130 104.783 C 130 107.394, 130.283 107.577, 134.608 107.766 C 138.448 107.933, 139.024 107.734, 138.060 106.572 C 137.424 105.805, 137.262 104.969, 137.701 104.714 C 138.731 104.116, 142.250 105.383, 141.824 106.198 C 141.646 106.540, 142.733 107.789, 144.240 108.974 C 147.174 111.282, 149.303 110.952, 148.303 108.346 C 147.791 107.012, 148.025 107.041, 149.758 108.525 C 150.895 109.498, 151.591 110.903, 151.305 111.647 C 151.011 112.414, 151.436 113, 152.286 113 C 153.911 113, 155 115.038, 155 118.082 C 155 119.255, 155.692 120, 156.782 120 C 157.971 120, 158.634 120.850, 158.775 122.553 C 158.891 123.957, 159.438 125.950, 159.990 126.981 C 161.309 129.447, 160.259 132, 157.924 132 C 156.664 132, 156.252 132.494, 156.650 133.531 C 157.140 134.807, 159.173 135.015, 168.869 134.781 L 180.500 134.500 180.500 90.692 L 180.500 46.884 178.225 45.169 C 176.974 44.225, 175.720 42.184, 175.438 40.633 L 174.927 37.812 177.789 39.849 L 180.650 41.887 180.899 20.944 L 181.148 0 90.552 0 L -0.043 0 0.228 19.167 M 0.408 19.500 C 0.395 29.950, 0.548 35.592, 0.746 32.038 C 0.944 28.484, 1.645 24.911, 2.303 24.096 C 3.237 22.942, 3.232 22.777, 2.282 23.347 C 1.359 23.901, 0.987 21.224, 0.747 12.289 C 0.573 5.805, 0.420 9.050, 0.408 19.500 M 23 22.465 C 23 22.721, 24.377 24.499, 26.061 26.417 C 29.754 30.623, 28.989 33.188, 23.500 35 C 21.567 35.638, 19.618 36.912, 19.170 37.830 C 18.065 40.093, 19.173 45.226, 20.889 45.797 C 21.817 46.106, 22.014 45.832, 21.483 44.972 C 20.897 44.024, 21.256 43.834, 22.844 44.249 C 24.474 44.675, 25 44.365, 25 42.978 C 25 41.969, 24.325 40.468, 23.500 39.643 C 20.765 36.908, 21.784 36.091, 27.250 36.636 C 30.138 36.923, 34.525 37.127, 37 37.088 L 41.500 37.017 38.250 38.460 C 33.525 40.559, 34.237 42, 40 42 C 43.453 42, 45 42.405, 45 43.309 C 45 45.202, 42.406 48.466, 41.748 47.401 C 40.815 45.891, 31 46.982, 31 48.597 C 31 49.368, 31.450 50, 32 50 C 32.550 50, 33 50.689, 33 51.531 C 33 52.374, 33.747 53.350, 34.660 53.700 C 36.042 54.230, 35.920 54.485, 33.935 55.220 C 31.981 55.942, 31.816 56.272, 33.024 57.036 C 33.836 57.549, 35.475 57.976, 36.667 57.985 C 37.858 57.993, 39.060 58.563, 39.338 59.250 C 39.639 59.997, 39.874 59.795, 39.921 58.750 C 39.964 57.788, 39.550 57, 39 57 C 38.450 57, 38 56.541, 38 55.981 C 38 55.393, 39.058 55.228, 40.500 55.589 C 42.826 56.173, 43 55.962, 43 52.549 C 43 50.532, 43.399 49.128, 43.886 49.430 C 44.374 49.731, 45.007 49.083, 45.293 47.989 C 45.579 46.895, 46.500 46, 47.339 46 C 49.708 46, 50.275 42.432, 48.463 38.928 C 45.337 32.883, 36.816 26, 32.457 26 C 31.554 26, 29.671 25.100, 28.273 24 C 25.957 22.178, 23 21.318, 23 22.465 M 98.750 23.737 C 96.138 24.496, 94 25.540, 94 26.058 C 94 27.347, 94.611 27.253, 98.171 25.411 C 101.963 23.451, 107.539 24.268, 110.750 27.255 C 113.266 29.596, 113.894 28.037, 111.429 25.571 C 110.564 24.707, 109.774 24, 109.672 24 C 109.570 24, 108.140 23.631, 106.493 23.179 C 104.566 22.650, 101.809 22.849, 98.750 23.737 M 154.740 28.262 C 152.443 31.093, 153.505 31.908, 156 29.230 C 157.089 28.061, 157.635 26.892, 157.213 26.632 C 156.792 26.371, 155.679 27.105, 154.740 28.262 M 156.872 30.750 C 155.629 32.336, 155.664 32.371, 157.250 31.128 C 158.916 29.821, 159.445 29, 158.622 29 C 158.415 29, 157.627 29.788, 156.872 30.750 M 156.569 33.923 C 154.660 36.033, 155.377 36.681, 157.872 35.100 C 158.626 34.622, 159.065 33.695, 158.846 33.039 C 158.590 32.269, 157.784 32.582, 156.569 33.923 M 11.667 33.667 C 10.711 34.622, 10.845 36, 11.893 36 C 12.384 36, 13.045 35.325, 13.362 34.500 C 13.947 32.976, 12.881 32.452, 11.667 33.667 M 97.986 34.414 C 97.444 34.956, 97 35.933, 97 36.585 C 97 37.848, 105.330 40.933, 109.188 41.100 C 111.463 41.198, 111.460 41.211, 109 41.941 C 107.625 42.349, 105.959 42.267, 105.298 41.759 C 104.637 41.250, 103.212 41.115, 102.132 41.458 C 101.052 41.801, 99.878 41.612, 99.523 41.038 C 98.636 39.601, 95 41.609, 95 43.535 C 95 44.341, 94.550 45, 94 45 C 93.450 45, 93 45.498, 93 46.107 C 93 46.716, 93.642 46.968, 94.427 46.666 C 95.212 46.365, 96.392 46.767, 97.049 47.559 C 97.707 48.352, 98.982 49, 99.882 49 C 100.782 49, 102.058 49.863, 102.717 50.918 C 104.411 53.631, 107.178 52.859, 109.402 49.051 L 111.305 45.792 109.234 47.086 C 107.536 48.146, 106.877 48.143, 105.581 47.067 C 104.216 45.934, 103.996 46.079, 103.970 48.128 C 103.943 50.221, 103.819 50.294, 102.920 48.750 C 102.359 47.788, 101.318 47, 100.605 47 C 99.081 47, 95.754 43.579, 96.527 42.807 C 96.819 42.515, 99.632 42.882, 102.779 43.622 C 110.845 45.521, 111.453 45.403, 112.799 41.679 C 114.322 37.468, 114.322 36.278, 112.800 37.800 C 112.140 38.460, 110.170 39, 108.421 39 C 105.887 39, 105.009 38.436, 104.089 36.214 C 102.913 33.376, 99.910 32.490, 97.986 34.414 M 13.729 37.004 C 12.805 38.083, 12.311 39.648, 12.632 40.483 C 13.453 42.624, 14.326 42.360, 15.614 39.581 C 17.150 36.267, 15.864 34.510, 13.729 37.004 M 90.500 38 C 89.684 41.713, 91.444 44.506, 93.015 41.992 C 93.677 40.933, 93.505 40.403, 92.421 40.166 C 91.201 39.900, 91.137 39.540, 92.105 38.374 C 92.955 37.350, 93.001 36.601, 92.259 35.859 C 91.517 35.117, 90.993 35.754, 90.500 38 M 170.500 36 C 170.840 36.550, 171.568 37, 172.118 37 C 172.668 37, 172.840 36.550, 172.500 36 C 172.160 35.450, 171.432 35, 170.882 35 C 170.332 35, 170.160 35.450, 170.500 36 M 159 39.100 C 159 39.595, 159.675 40, 160.500 40 C 162.327 40, 162.428 41.161, 160.750 42.885 C 159.740 43.923, 159.960 44.105, 161.898 43.835 C 164.465 43.476, 166.914 40.580, 165.687 39.353 C 164.594 38.261, 159 38.048, 159 39.100 M 2.556 43.127 C 4.485 45.322, 4.484 45.334, 2.500 44.671 C 1.400 44.304, 2.917 46.274, 5.870 49.048 C 8.824 51.823, 11.524 53.808, 11.870 53.460 C 12.217 53.112, 11.588 52.079, 10.473 51.164 C 9.358 50.249, 7.436 47.857, 6.202 45.849 C 4.969 43.841, 3.206 41.909, 2.286 41.556 C 0.891 41.021, 0.936 41.282, 2.556 43.127 M 171.500 42 C 171.840 42.550, 172.316 43, 172.559 43 C 172.802 43, 173 42.550, 173 42 C 173 41.450, 172.523 41, 171.941 41 C 171.359 41, 171.160 41.450, 171.500 42 M 153.166 45.128 C 153.350 46.422, 154.285 47.629, 155.245 47.812 C 156.673 48.084, 156.837 47.733, 156.149 45.874 C 154.974 42.697, 152.741 42.139, 153.166 45.128 M 170.040 50.089 C 167.910 53.551, 166.434 54.997, 165.427 54.610 C 164.612 54.297, 163.216 54.893, 162.325 55.933 C 161.435 56.973, 160.097 57.591, 159.353 57.305 C 158.609 57.020, 158 57.236, 158 57.786 C 158 58.986, 160.848 60.212, 161.993 59.504 C 162.440 59.228, 163.353 60.464, 164.022 62.251 C 164.692 64.038, 165.805 67.036, 166.497 68.914 C 167.744 72.299, 167.765 72.308, 168.977 70.043 C 169.770 68.562, 169.813 67.998, 169.100 68.438 C 168.495 68.812, 168.007 68.754, 168.015 68.309 C 168.035 67.227, 170.347 60.761, 171.168 59.491 C 171.787 58.533, 175 46.890, 175 45.606 C 175 43.646, 172.757 45.673, 170.040 50.089 M 33 48.674 C 33 48.810, 33.931 49.789, 35.069 50.849 C 37.334 52.960, 40.525 52.680, 41.442 50.290 C 41.899 49.100, 41.488 48.912, 39.511 49.408 C 38.130 49.754, 37 49.607, 37 49.081 C 37 48.555, 36.100 48.192, 35 48.275 C 33.900 48.358, 33 48.537, 33 48.674 M 24 50 C 24 50.550, 24.477 51, 25.059 51 C 25.641 51, 25.840 50.550, 25.500 50 C 25.160 49.450, 24.684 49, 24.441 49 C 24.198 49, 24 49.450, 24 50 M 0.437 80 C 0.437 94.575, 0.577 100.537, 0.747 93.250 C 0.918 85.962, 0.918 74.037, 0.747 66.750 C 0.577 59.462, 0.437 65.425, 0.437 80 M 103.020 55.476 C 102.231 56.426, 102.155 57, 102.819 57 C 104.027 57, 105.436 55.103, 104.743 54.409 C 104.491 54.158, 103.716 54.638, 103.020 55.476 M 7 55.917 C 7 56.513, 7.444 57, 7.987 57 C 8.529 57, 9.704 58.688, 10.598 60.750 C 11.492 62.813, 12.437 63.933, 12.698 63.240 C 12.959 62.548, 12.342 60.559, 11.327 58.821 C 9.446 55.600, 7 53.958, 7 55.917 M 34.598 60.736 C 33.394 61.939, 34.051 63, 36 63 C 37.100 63, 38 62.598, 38 62.107 C 38 60.983, 35.399 59.934, 34.598 60.736 M 157.195 66.500 C 157.215 68.150, 157.439 68.704, 157.693 67.731 C 157.947 66.758, 157.930 65.408, 157.656 64.731 C 157.382 64.054, 157.175 64.850, 157.195 66.500 M 12.320 67.303 C 14.480 68.965, 13.434 74.378, 11.122 73.499 C 9.822 73.004, 9.748 73.132, 10.750 74.141 C 12.412 75.815, 13.679 74.402, 14.493 69.968 C 15.068 66.832, 14.895 66.418, 12.952 66.271 C 11.062 66.129, 10.975 66.269, 12.320 67.303 M 104.459 67.067 C 104.096 67.653, 104.014 68.348, 104.276 68.610 C 104.538 68.872, 105.019 68.392, 105.345 67.543 C 106.021 65.781, 105.445 65.471, 104.459 67.067 M 156 74.500 C 156 75.325, 156.730 76, 157.622 76 C 158.951 76, 159.020 75.729, 158 74.500 C 157.315 73.675, 156.585 73, 156.378 73 C 156.170 73, 156 73.675, 156 74.500 M 9.133 75.661 C 9.837 76.508, 10.521 77.719, 10.654 78.351 C 10.786 78.983, 11.170 80.850, 11.507 82.500 C 12.339 86.576, 14 88.125, 14 84.825 C 14 79.516, 12.832 76.469, 10.350 75.297 C 8.146 74.257, 8.004 74.299, 9.133 75.661 M 155.070 79.128 C 155.032 80.573, 154.325 82.315, 153.500 83 C 151.786 84.423, 151.523 86, 153 86 C 153.550 86, 154 85.473, 154 84.829 C 154 84.185, 154.621 82.947, 155.381 82.079 C 156.276 81.055, 156.476 79.797, 155.951 78.500 C 155.229 76.719, 155.133 76.788, 155.070 79.128 M 174.475 79.722 C 174.813 82.802, 175.795 83.697, 176.583 81.643 C 176.930 80.739, 177.841 80, 178.607 80 C 181.218 80, 180.010 78.228, 177.109 77.803 C 174.570 77.430, 174.249 77.664, 174.475 79.722 M 13.935 90.429 L 17.369 93.976 13.935 94.678 L 10.500 95.380 14.401 96.206 C 16.546 96.660, 18.543 96.791, 18.837 96.497 C 19.862 95.471, 15.149 88.599, 12.834 87.744 C 10.830 87.005, 10.985 87.384, 13.935 90.429 M 150.184 92.886 C 148.983 95.024, 148 97.239, 148 97.810 C 148 98.947, 153.574 96.498, 154.539 94.937 C 155.296 93.713, 154.337 93.749, 151.934 95.035 C 149.207 96.495, 149.533 95.097, 152.687 91.805 C 154.575 89.834, 154.927 89, 153.871 89 C 153.045 89, 151.385 90.749, 150.184 92.886 M 19.102 98.807 C 18.900 101.397, 21.251 108.963, 22.095 108.441 C 22.577 108.143, 22.563 107.154, 22.064 106.204 C 21.572 105.267, 20.727 102.925, 20.187 101 C 19.646 99.075, 19.158 98.088, 19.102 98.807 M 47.718 101.174 C 43.893 101.991, 37.525 104.863, 38.157 105.485 C 38.346 105.671, 40.975 105.365, 44 104.804 C 49.723 103.744, 73.011 104.223, 76.500 105.472 C 77.905 105.975, 78.103 105.904, 77.165 105.233 C 76.430 104.707, 75.980 103.877, 76.165 103.388 C 76.349 102.900, 71.550 102.178, 65.500 101.783 C 59.450 101.389, 53.825 100.909, 53 100.716 C 52.175 100.523, 49.798 100.729, 47.718 101.174 M 178.161 105.547 C 176.547 109.089, 176.651 110.535, 178.414 109.072 C 179.618 108.072, 179.843 109.781, 179.934 120.636 C 179.993 127.642, 180.256 133.590, 180.520 133.854 C 180.784 134.117, 181 127.932, 181 120.108 C 181 109.961, 180.683 106.078, 179.893 106.566 C 179.148 107.027, 179.006 106.555, 179.460 105.125 C 180.392 102.189, 179.569 102.456, 178.161 105.547 M 149.500 105 C 147.870 105.701, 147.812 105.872, 149.191 105.930 C 150.121 105.968, 151.160 105.550, 151.500 105 C 152.211 103.850, 152.176 103.850, 149.500 105 M 91 107 C 91 107.550, 91.477 108, 92.059 108 C 92.641 108, 92.840 107.550, 92.500 107 C 92.160 106.450, 91.684 106, 91.441 106 C 91.198 106, 91 106.450, 91 107 M 99.544 106.929 C 99.229 107.439, 99.985 108.002, 101.225 108.179 C 104.395 108.630, 104.560 111.362, 101.517 112.991 C 99.552 114.042, 98.686 114.086, 97.780 113.180 C 97.131 112.531, 96.015 112, 95.300 112 C 93.276 112, 93.772 115.376, 96 116.768 C 97.100 117.455, 98 118.913, 98 120.008 C 98 121.112, 98.669 122, 99.500 122 C 100.325 122, 101 121.598, 101 121.107 C 101 119.760, 104.206 118.806, 105.244 119.844 C 105.791 120.391, 104.925 121.629, 103.077 122.945 C 101.385 124.150, 100 126.006, 100 127.068 C 100 128.131, 99.550 129, 99 129 C 98.450 129, 98 129.705, 98 130.567 C 98 131.697, 98.578 131.951, 100.070 131.478 C 101.638 130.980, 102.273 131.328, 102.687 132.910 C 103.131 134.610, 104.005 134.996, 107.367 134.978 C 109.922 134.964, 112.455 134.209, 114 133 C 115.375 131.924, 115.938 131.034, 115.250 131.022 C 114.496 131.009, 114 129.633, 114 127.559 C 114 125.666, 113.547 123.838, 112.992 123.495 C 111.153 122.358, 114.812 119.929, 118.212 120.030 C 120.021 120.084, 122.762 119.933, 124.304 119.695 C 126.685 119.328, 127.070 119.583, 126.855 121.382 C 126.716 122.547, 127.125 124.453, 127.766 125.619 C 128.406 126.784, 128.608 128.093, 128.215 128.528 C 127.554 129.259, 128.520 129.002, 132.559 127.370 C 133.840 126.853, 134.064 127.435, 133.809 130.620 L 133.500 134.500 139.953 134.803 C 146.215 135.097, 146.356 135.050, 144.703 133.224 C 142.699 131.010, 142.486 129.013, 144.250 128.968 C 144.970 128.950, 144.699 128.330, 143.613 127.508 C 141.976 126.269, 141.452 126.270, 139.669 127.519 C 137.860 128.786, 137.396 128.763, 135.806 127.325 C 134.813 126.426, 134 124.944, 134 124.032 C 134 121.786, 129.132 117.407, 125.750 116.610 C 122.267 115.789, 122.230 114.243, 125.663 112.938 C 127.730 112.152, 128.058 111.658, 127.129 110.729 C 126.471 110.071, 124.610 109.466, 122.994 109.385 C 120.400 109.254, 120.176 109.460, 121.074 111.139 C 123.280 115.261, 119.029 116.501, 116.408 112.500 C 115.507 111.125, 114.216 110, 113.540 110 C 112.863 110, 111.495 109.100, 110.500 108 C 108.584 105.883, 100.669 105.109, 99.544 106.929 M 127 107.794 C 127 108.323, 127.727 109.358, 128.615 110.096 C 130.013 111.256, 130.181 111.182, 129.865 109.551 C 129.489 107.607, 127 106.082, 127 107.794 M 86 110.865 C 86 111.418, 86.439 113.024, 86.975 114.435 C 87.653 116.218, 87.617 117, 86.859 117 C 86.256 117, 86.003 117.904, 86.294 119.018 C 86.585 120.127, 86.274 121.590, 85.605 122.268 C 83.057 124.848, 83.036 126.945, 85.535 129.444 C 86.891 130.800, 88 132.633, 88 133.518 C 88 134.731, 88.800 135.050, 91.250 134.813 C 94.047 134.544, 94.453 134.164, 94.160 132.088 C 93.973 130.762, 93.185 129.042, 92.410 128.267 C 91.634 127.492, 90.994 126.327, 90.986 125.679 C 90.979 125.030, 90.693 123.375, 90.350 122 C 89.838 119.944, 89.965 119.722, 91.064 120.750 C 94.364 123.838, 95.037 119.824, 92.197 114 C 90.596 110.720, 86 108.394, 86 110.865 M 132.364 111.850 C 131.294 112.597, 131.190 114.523, 132.167 115.500 C 132.534 115.867, 134.321 116.242, 136.139 116.334 C 138.340 116.444, 139.788 117.176, 140.472 118.522 C 141.038 119.635, 142.253 120.396, 143.173 120.214 C 144.109 120.029, 146.258 121.435, 148.052 123.407 C 150.559 126.163, 151.639 126.729, 152.998 126.001 C 153.955 125.489, 155.021 125.355, 155.369 125.702 C 155.716 126.049, 156 125.178, 156 123.766 C 156 121.628, 155.372 121.046, 152.250 120.285 C 149.303 119.567, 148.546 118.930, 148.716 117.310 C 149.085 113.789, 145.499 111.584, 139.078 111.381 C 135.898 111.281, 132.877 111.492, 132.364 111.850 M 170.663 118.500 C 164.201 127.043, 164.524 128.355, 171.303 121.107 C 173.821 118.416, 176.020 116.352, 176.190 116.521 C 176.361 116.689, 176.594 115.516, 176.710 113.914 C 176.825 112.311, 176.788 111, 176.627 111 C 176.467 111, 173.783 114.375, 170.663 118.500 M 5.250 117.674 C 2.219 119.789, 2.388 121.236, 5.500 119.818 C 6.875 119.192, 8 118.076, 8 117.339 C 8 115.725, 8.054 115.718, 5.250 117.674 M 157.042 116.750 C 157.096 117.733, 164 125.548, 164 124.627 C 164 122.627, 159.759 116, 158.480 116 C 157.666 116, 157.019 116.338, 157.042 116.750 M 49 121 C 49 121.550, 49.477 122, 50.059 122 C 50.641 122, 50.840 121.550, 50.500 121 C 50.160 120.450, 49.684 120, 49.441 120 C 49.198 120, 49 120.450, 49 121 M 59.221 121.558 C 57.997 122.415, 56.579 122.858, 56.070 122.543 C 55.560 122.228, 54.998 122.990, 54.821 124.235 C 54.584 125.909, 53.936 126.422, 52.339 126.202 C 51.150 126.038, 49.886 126.376, 49.530 126.952 C 49.173 127.528, 47.919 128, 46.741 128 C 45.076 128, 44.867 128.267, 45.800 129.200 C 49.028 132.428, 45.258 135.412, 41.793 132.371 C 39.755 130.583, 39.690 130.581, 40.330 132.332 C 40.699 133.339, 41 134.352, 41 134.582 C 41 135.264, 64.610 135.057, 65.298 134.369 C 65.645 134.021, 65.270 132.796, 64.465 131.646 C 62.596 128.978, 62.601 126.576, 64.479 125.017 C 65.577 124.106, 65.697 123.302, 64.944 121.895 C 63.711 119.592, 62.158 119.501, 59.221 121.558 M 67 124.893 C 67 125.384, 67.675 126.045, 68.500 126.362 C 69.325 126.678, 70 127.531, 70 128.256 C 70 128.981, 70.951 129.646, 72.113 129.734 C 73.275 129.821, 74.445 130.112, 74.713 130.380 C 75.661 131.328, 73.854 133, 71.882 133 C 70.782 133, 70.160 132.550, 70.500 132 C 70.840 131.450, 70.690 131, 70.166 131 C 68.997 131, 67.913 133.579, 68.736 134.402 C 69.064 134.731, 72.862 135, 77.175 135 C 84.986 135, 85.012 134.991, 83.853 132.750 C 83.213 131.512, 82.373 129.825, 81.986 129 C 81.599 128.175, 80.431 127.500, 79.391 127.500 C 78.351 127.500, 77.223 127.121, 76.884 126.658 C 76.545 126.195, 75.278 126.420, 74.069 127.158 C 72.115 128.351, 71.664 128.250, 70.025 126.250 C 68.085 123.885, 67 123.398, 67 124.893 M 151 131 C 151 131.550, 151.423 132, 151.941 132 C 152.459 132, 153.160 131.550, 153.500 131 C 153.840 130.450, 153.416 130, 152.559 130 C 151.702 130, 151 130.450, 151 131 M 126 132 C 126 132.550, 126.477 133, 127.059 133 C 127.641 133, 127.840 132.550, 127.500 132 C 127.160 131.450, 126.684 131, 126.441 131 C 126.198 131, 126 131.450, 126 132 M 174 133.059 C 174 133.641, 174.450 133.840, 175 133.500 C 175.550 133.160, 176 132.684, 176 132.441 C 176 132.198, 175.550 132, 175 132 C 174.450 132, 174 132.477, 174 133.059" stroke="none" fill="#3467df" fill-rule="evenodd"/>
</svg>