<svg xmlns="http://www.w3.org/2000/svg" width="60" height="60" viewBox="0 0 60 60" version="1.1">
	<rect x="0" y="0" width="100%" height="100%" fill="#bfbfbf" />
	<path d="M 29.840 0.493 C 29.569 0.764, 26.907 1.437, 23.924 1.989 C 19.506 2.807, 17.811 3.744, 14.787 7.041 C 12.452 9.588, 10.858 12.465, 10.492 14.795 C 10.172 16.833, 9.700 19.625, 9.442 21 C 8.303 27.073, 8.327 28.400, 9.618 30.874 C 10.371 32.318, 10.990 34.218, 10.994 35.096 C 11 36.586, 12.813 41.078, 15.125 45.334 C 15.673 46.343, 15.834 48.480, 15.482 50.084 C 14.844 52.986, 14.805 53, 7.421 53 L 0 53 0 56.500 L 0 60 15.750 59.985 C 31.344 59.970, 33.264 59.678, 33.750 57.250 C 33.888 56.563, 34.112 55.458, 34.250 54.795 C 34.388 54.133, 33.975 53.570, 33.333 53.545 C 31.762 53.484, 31.394 52.969, 30.622 49.750 C 30.007 47.189, 30.186 46.993, 33.231 46.900 C 36.293 46.807, 36.342 46.752, 34 46.038 C 31.500 45.275, 31.636 45.114, 36 43.658 C 36.954 43.340, 36.703 43.129, 35.309 43.079 C 32.533 42.979, 31.569 41.481, 33.262 39.900 C 34.297 38.933, 34.349 37.220, 33.512 31.655 C 32.547 25.238, 32.198 24.520, 29.478 23.360 C 27.840 22.662, 26.950 22.070, 27.500 22.045 C 28.822 21.986, 28.634 17.053, 27.207 14.387 C 26.354 12.793, 26.377 11.867, 27.300 10.605 C 28.277 9.268, 29.903 8.990, 35.406 9.216 C 41.472 9.466, 42.519 9.806, 44.212 12.077 C 46.751 15.485, 47.947 20.977, 47.976 29.372 C 47.995 34.896, 48.255 36.033, 49.300 35.166 C 51.548 33.300, 53.177 24.679, 52.452 18.476 C 51.939 14.080, 51.141 12.093, 49.082 10.080 C 47.598 8.629, 46.109 6.726, 45.772 5.850 C 44.523 2.594, 31.962 -1.629, 29.840 0.493 M 55 5.378 C 55 9.003, 55.502 11.172, 56.542 12.035 C 58.957 14.040, 59.819 12.047, 59.262 5.750 C 58.839 0.974, 58.434 -0, 56.876 -0 C 55.274 -0, 55 0.785, 55 5.378 M 37.380 25.452 C 37.074 26.251, 37.113 27.374, 37.467 27.947 C 38.286 29.272, 45.124 28.844, 44.623 27.500 C 44.418 26.950, 43.744 26.613, 43.125 26.750 C 42.506 26.887, 42 26.325, 42 25.500 C 42 23.570, 38.118 23.529, 37.380 25.452 M 26.199 29.463 C 25.563 30.858, 24.347 32, 23.496 32 C 22.127 32, 22.114 32.320, 23.380 34.768 C 24.167 36.290, 24.587 38.711, 24.312 40.147 C 23.873 42.445, 24.094 42.705, 26.157 42.311 C 28.238 41.913, 28.487 41.340, 28.387 37.182 C 28.325 34.607, 28.736 31.915, 29.301 31.200 C 30.028 30.279, 29.894 29.465, 28.841 28.413 C 27.526 27.097, 27.222 27.218, 26.199 29.463 M 56.646 37.452 C 55.191 38.801, 53.982 39.588, 53.961 39.202 C 53.887 37.874, 51 45.231, 51 46.748 C 51 47.582, 50.111 49.036, 49.025 49.978 C 47.938 50.921, 46.654 52.762, 46.170 54.071 C 45.382 56.199, 45.708 56.637, 49.254 58.225 C 51.434 59.201, 54.744 60, 56.609 60 L 60 60 60 47.500 C 60 40.625, 59.841 35, 59.646 35 C 59.451 35, 58.101 36.104, 56.646 37.452 M 24 46.559 C 24 47.416, 24.450 47.840, 25 47.500 C 25.550 47.160, 26 46.459, 26 45.941 C 26 45.423, 25.550 45, 25 45 C 24.450 45, 24 45.702, 24 46.559" stroke="none" fill="#3467df" fill-rule="evenodd"/>
</svg>