<svg xmlns="http://www.w3.org/2000/svg" width="180" height="135" viewBox="0 0 180 135" version="1.1">
	<rect x="0" y="0" width="100%" height="100%" fill="#bfbfbf" />
	<path d="M -0 30.428 L -0 60.855 5.841 57.842 C 10.906 55.231, 12.312 54.924, 16.417 55.540 C 20.525 56.156, 21.367 56.702, 22.781 59.666 C 24.293 62.837, 24.289 63.314, 22.724 66.292 C 21.355 68.897, 21.198 70.628, 21.889 75.500 C 22.766 81.694, 22.480 84, 20.834 84 C 20.310 84, 20.182 84.485, 20.548 85.077 C 21.010 85.826, 19.730 85.939, 16.357 85.450 C 13.686 85.062, 11.205 84.577, 10.844 84.372 C 9.519 83.617, 11.237 80.211, 13.574 78.961 C 15.886 77.723, 15.906 77.622, 14.093 76.353 C 13.049 75.621, 11.656 72.681, 10.973 69.766 C 9.472 63.365, 8.532 62.062, 5.690 62.442 C -0.361 63.252, -0 60.893, -0 99.607 L 0 135 75.579 135 L 151.159 135 150.527 132.122 C 148.645 123.556, 144.120 109.621, 142.669 107.926 C 139.307 104, 141.614 102.715, 147.013 105.507 C 149.129 106.601, 150.322 108.312, 151.370 111.757 C 152.164 114.366, 155.029 120.550, 157.738 125.500 L 162.664 134.500 171.582 134.500 L 180.500 134.500 180.631 98.500 C 180.704 78.700, 180.449 64.404, 180.067 66.731 C 178.644 75.377, 177.892 72.469, 176.402 52.571 C 175.904 45.921, 175.138 42.603, 173.399 39.571 C 166.961 28.347, 166.130 22.587, 169.885 15.225 C 171.052 12.938, 172.499 8.771, 173.101 5.966 C 174.092 1.345, 174.350 1.001, 175.847 2.303 C 176.756 3.093, 178.056 3.538, 178.735 3.291 C 179.692 2.944, 180.032 9.322, 180.250 31.672 L 180.532 60.500 180.766 30.250 L 181 0 90.500 0 L 0 0 -0 30.428 M 0.444 31 C 0.444 47.775, 0.581 54.637, 0.748 46.250 C 0.915 37.862, 0.915 24.137, 0.748 15.750 C 0.581 7.362, 0.444 14.225, 0.444 31 M 83.250 7.989 C 79.050 10.550, 79.078 11.990, 83.301 10.668 C 85.340 10.030, 86.654 8.940, 86.739 7.818 C 86.905 5.606, 87.180 5.593, 83.250 7.989 M 74.374 14.467 C 74.065 15.274, 74.043 16.511, 74.327 17.217 C 74.610 17.923, 74.878 17.525, 74.921 16.333 C 74.964 15.142, 75.563 13.940, 76.250 13.662 C 77.229 13.267, 77.222 13.141, 76.219 13.079 C 75.514 13.036, 74.684 13.660, 74.374 14.467 M 120 21 C 120 21.550, 117.615 22, 114.700 22 C 111.785 22, 108.794 22.563, 108.053 23.250 C 106.976 24.250, 106.848 24.250, 107.412 23.250 C 108.250 21.767, 106.157 21.663, 100.750 22.919 C 97.715 23.623, 97 23.507, 97 22.311 C 97 21.498, 96.438 21.040, 95.750 21.292 C 95.063 21.544, 94.612 22.256, 94.750 22.875 C 94.887 23.494, 94.380 24, 93.622 24 C 92.865 24, 91.687 24.673, 91.004 25.495 C 90.008 26.696, 90.060 27.442, 91.269 29.287 C 92.594 31.311, 92.599 31.917, 91.312 34.375 C 90.507 35.910, 90.113 37.853, 90.436 38.694 C 90.846 39.763, 90.568 40.048, 89.511 39.643 C 88.412 39.221, 88 39.742, 88 41.556 C 88 43.543, 88.628 44.176, 91.086 44.667 C 92.783 45.007, 94.406 45.895, 94.693 46.642 C 94.980 47.389, 96.011 48, 96.985 48 C 97.958 48, 99.315 48.675, 100 49.500 C 100.685 50.325, 101.765 51, 102.400 51 C 103.035 51, 104.593 51.727, 105.862 52.616 C 107.510 53.771, 107.861 54.539, 107.091 55.309 C 106.321 56.079, 105.154 55.563, 103 53.500 C 99.349 50.002, 97.293 51.084, 99.502 55.342 C 100.300 56.879, 100.850 59.118, 100.726 60.318 C 100.556 61.961, 101.488 63.004, 104.500 64.541 C 111.535 68.131, 114.185 70.215, 113.098 71.302 C 111.561 72.839, 113.526 75.639, 116.989 76.846 C 118.656 77.427, 122.654 78.201, 125.873 78.565 C 131.687 79.223, 131.731 79.208, 132.442 76.374 C 132.836 74.804, 133.685 73.144, 134.329 72.684 C 135.213 72.053, 135.193 71.723, 134.250 71.341 C 133.563 71.062, 133 70.061, 133 69.117 C 133 66.412, 130.933 64.811, 129.248 66.209 C 128.261 67.028, 127.648 67.053, 127.174 66.295 C 126.803 65.703, 124.025 64.962, 121 64.647 C 113.164 63.832, 113 63.788, 113 62.524 C 113 61.896, 113.614 60.542, 114.365 59.516 C 115.442 58.042, 117.095 57.633, 122.211 57.574 C 129.202 57.494, 132 58.829, 132 62.245 C 132 63.700, 132.341 63.978, 133.250 63.267 C 133.938 62.729, 135.479 62.050, 136.675 61.758 C 138.257 61.371, 138.704 61.608, 138.314 62.625 C 137.951 63.569, 138.276 63.831, 139.316 63.432 C 140.504 62.977, 140.722 63.348, 140.273 65.065 L 139.691 67.288 142.751 65.026 C 144.433 63.782, 146.303 63.069, 146.905 63.441 C 148.736 64.573, 148.126 61.424, 146.171 59.655 C 144.101 57.782, 139.814 57.494, 136.934 59.035 C 135.123 60.004, 135 59.694, 135 54.160 C 135 46.242, 134.064 42, 132.316 42 C 131.527 42, 131.160 42.450, 131.500 43 C 132.657 44.872, 130.395 44.008, 127.193 41.355 C 121.735 36.833, 123.355 33.058, 130.773 33.014 C 132.998 33, 133.010 32.942, 131.345 30.250 C 127.265 23.657, 120 17.733, 120 21 M 112.191 31.851 C 110.921 32.208, 109.947 32.900, 110.026 33.388 C 110.245 34.731, 107.805 35.972, 105 35.945 L 102.500 35.920 105.250 34.428 C 108.722 32.545, 108.716 32, 105.223 32 C 103.523 32, 101.149 33.184, 99.104 35.053 C 95.916 37.964, 95.848 38.170, 97.631 39.521 C 98.659 40.299, 101.525 40.958, 104 40.984 C 107.474 41.020, 108.158 41.275, 107 42.102 C 105.824 42.942, 106.040 43.050, 108 42.600 C 109.375 42.285, 110.950 42.014, 111.500 41.998 C 112.050 41.982, 111.825 41.533, 111 41 C 109.837 40.249, 110.175 40.001, 112.500 39.897 C 114.150 39.823, 115.894 39.835, 116.375 39.923 C 116.856 40.011, 118.084 39.329, 119.103 38.407 C 121.405 36.323, 121.244 32, 118.864 32 C 117.929 32, 116.564 31.821, 115.832 31.601 C 115.099 31.382, 113.461 31.495, 112.191 31.851 M 131.500 37 C 131.840 37.550, 132.316 38, 132.559 38 C 132.802 38, 133 37.550, 133 37 C 133 36.450, 132.523 36, 131.941 36 C 131.359 36, 131.160 36.450, 131.500 37 M 113.959 51.500 C 111.964 55.247, 111.957 55.344, 113.838 53.026 C 115.700 50.732, 115.980 50.668, 117.673 52.149 C 118.678 53.028, 121.157 54.043, 123.182 54.406 C 126.114 54.931, 127.066 54.704, 127.857 53.291 C 129.022 51.208, 129.116 51.284, 131.830 56.500 C 133.147 59.031, 133.928 59.816, 133.956 58.636 C 133.991 57.160, 131.104 50.715, 129.194 48.006 C 129.003 47.735, 125.975 47.510, 122.467 47.506 L 116.087 47.500 113.959 51.500 M 76.527 52.879 C 75.749 56.421, 76.519 59.602, 78.324 60.294 C 79.221 60.638, 79.521 59.515, 79.393 56.294 C 79.168 50.631, 77.466 48.603, 76.527 52.879 M 72.040 52.800 C 71.990 54.417, 74.993 60.340, 75.570 59.763 C 75.802 59.531, 75.112 57.577, 74.036 55.421 C 72.960 53.264, 72.062 52.085, 72.040 52.800 M 83.695 54.943 C 83.991 56.074, 84.631 57, 85.117 57 C 86.465 57, 86.170 55.386, 84.579 54.065 C 83.412 53.097, 83.254 53.255, 83.695 54.943 M 80.440 58.098 C 80.180 58.518, 80.425 59.144, 80.984 59.490 C 82.752 60.583, 82.084 62, 79.800 62 C 78.134 62, 77.881 62.281, 78.757 63.157 C 80.574 64.974, 86.429 62.922, 86.804 60.338 C 87.045 58.670, 86.475 58.150, 84.010 57.788 C 82.306 57.538, 80.699 57.677, 80.440 58.098 M 19.500 63.667 C 19.500 64.950, 20.063 66, 20.750 66 C 21.438 66, 22 64.950, 22 63.667 C 22 62.383, 21.438 61.333, 20.750 61.333 C 20.063 61.333, 19.500 62.383, 19.500 63.667 M 67.500 61.724 C 66.400 61.994, 64.926 62.682, 64.224 63.252 C 63.522 63.822, 60.073 64.210, 56.560 64.113 C 51.666 63.978, 49.287 64.435, 46.383 66.065 C 40.480 69.381, 37.035 73.863, 37.016 78.250 C 37.007 80.313, 37.450 82, 38 82 C 38.550 82, 39 81.550, 39 81 C 39 80.450, 40.013 80.007, 41.250 80.015 C 43.069 80.028, 43.213 80.216, 42 81 C 40.678 81.854, 40.684 81.971, 42.050 81.985 C 42.902 81.993, 44.140 81.460, 44.800 80.800 C 45.733 79.867, 46 79.880, 46 80.859 C 46 81.551, 46.457 81.835, 47.016 81.490 C 47.575 81.144, 47.739 80.386, 47.379 79.804 C 46.924 79.068, 47.282 79.058, 48.555 79.771 C 50.275 80.733, 54.342 79.130, 56.026 76.826 C 56.316 76.430, 57.216 76.525, 58.026 77.037 C 59.264 77.820, 59.220 77.972, 57.750 77.985 C 56.788 77.993, 56 78.475, 56 79.056 C 56 79.637, 54.550 81.437, 52.777 83.056 C 49.836 85.743, 49.743 86, 51.712 86 C 55.612 86, 58.733 84.201, 59.392 81.573 C 59.748 80.158, 60.671 79, 61.445 79 C 62.218 79, 66.564 80.796, 71.102 82.990 C 75.640 85.185, 79.578 86.755, 79.854 86.480 C 80.737 85.596, 74.765 80.073, 68.288 75.784 C 64.830 73.494, 62 71.306, 62 70.921 C 62 70.537, 63.477 69.946, 65.281 69.607 C 69.684 68.781, 72.401 65.617, 70.983 62.968 C 70.404 61.885, 69.833 61.052, 69.715 61.116 C 69.597 61.180, 68.600 61.453, 67.500 61.724 M 151.646 64.452 C 148.548 67.323, 148.471 67.800, 150.617 70.864 C 151.676 72.376, 152.898 72.999, 154.158 72.669 C 155.699 72.266, 155.959 72.555, 155.462 74.120 C 154.932 75.790, 155.325 76.074, 158.171 76.080 C 160.002 76.084, 164.339 76.333, 167.810 76.635 C 173.225 77.106, 174.244 77.511, 174.998 79.495 C 176.359 83.075, 178.002 83.523, 177.985 80.309 C 177.955 74.509, 173.966 70.355, 162.783 64.479 C 156.879 61.376, 154.970 61.371, 151.646 64.452 M 0.451 99.500 C 0.451 119.300, 0.585 127.542, 0.748 117.815 C 0.912 108.088, 0.912 91.888, 0.749 81.815 C 0.586 71.742, 0.452 79.700, 0.451 99.500 M 116 66.966 C 116 67.470, 116.533 68.211, 117.184 68.613 C 117.997 69.116, 117.763 69.582, 116.434 70.102 C 114.748 70.762, 114.724 70.868, 116.250 70.930 C 117.213 70.968, 118 71.450, 118 72 C 118 72.556, 120.667 73, 124 73 C 129.270 73, 130 72.764, 130 71.061 C 130 69.513, 129.043 68.982, 125.250 68.425 C 122.638 68.041, 119.487 67.350, 118.250 66.888 C 116.943 66.401, 116 66.434, 116 66.966 M 144 69.395 C 144 70.757, 146.803 73, 148.504 73 C 148.853 73, 148.995 71.987, 148.820 70.750 C 148.444 68.103, 144 66.854, 144 69.395 M 136 74.201 C 136 74.640, 136.498 75, 137.107 75 C 137.716 75, 137.955 75.675, 137.638 76.500 C 136.908 78.405, 137.454 78.404, 139.360 76.497 C 140.698 75.160, 140.932 75.210, 141.487 76.959 C 141.830 78.040, 141.636 79.812, 141.055 80.896 C 139.636 83.548, 139.724 84.043, 141.494 83.364 C 142.316 83.048, 142.692 82.311, 142.330 81.725 C 141.916 81.056, 142.294 80.899, 143.348 81.303 C 144.894 81.897, 144.904 81.715, 143.471 78.944 C 142.617 77.292, 142.158 75.553, 142.451 75.079 C 142.744 74.605, 141.413 74.033, 139.492 73.809 C 137.571 73.585, 136 73.761, 136 74.201 M 63 75 C 63 75.550, 63.477 76, 64.059 76 C 64.641 76, 64.840 75.550, 64.500 75 C 64.160 74.450, 63.684 74, 63.441 74 C 63.198 74, 63 74.450, 63 75 M 145 84.333 C 145 85.067, 145.632 85.667, 146.405 85.667 C 147.177 85.667, 147.579 85.067, 147.298 84.333 C 147.016 83.600, 146.384 83, 145.893 83 C 145.402 83, 145 83.600, 145 84.333 M 156 86.059 C 156 86.641, 156.450 86.840, 157 86.500 C 157.550 86.160, 158 85.684, 158 85.441 C 158 85.198, 157.550 85, 157 85 C 156.450 85, 156 85.477, 156 86.059 M 107.032 108.750 C 107.092 110.166, 109.698 112.969, 110.349 112.318 C 111.828 110.839, 110.941 108, 109 108 C 107.900 108, 107.014 108.338, 107.032 108.750 M 107.393 116.582 C 107.727 117.452, 108 118.338, 108 118.550 C 108 118.763, 108.675 118.678, 109.500 118.362 C 111.754 117.497, 111.303 115, 108.893 115 C 107.383 115, 106.958 115.448, 107.393 116.582 M 141.537 124.606 C 139.490 126.653, 141.156 129, 144.654 129 C 147.793 129, 148.912 126.140, 146.471 124.355 C 144.098 122.620, 143.492 122.650, 141.537 124.606" stroke="none" fill="#3467df" fill-rule="evenodd"/>
</svg>