<svg xmlns="http://www.w3.org/2000/svg" width="90" height="90" viewBox="0 0 90 90" version="1.1">
	<rect x="0" y="0" width="100%" height="100%" fill="#bfbfbf" />
	<path d="M 0 45 L 0 90 23.030 90 L 46.060 90 44.092 87.250 C 41.754 83.984, 40.896 78.452, 42.750 78.600 C 43.438 78.655, 44.916 78.768, 46.035 78.850 C 47.703 78.973, 47.889 79.338, 47.067 80.874 C 46.296 82.316, 46.512 83.154, 48.007 84.506 C 49.075 85.473, 50.216 87.104, 50.542 88.132 C 51.034 89.682, 52.154 90, 57.113 90 L 63.091 90 62.434 86.500 C 61.599 82.048, 62.773 82, 68.855 86.234 C 73.196 89.257, 74.056 89.469, 82 89.484 L 90.500 89.500 90.760 44.750 L 91.021 0 45.510 0 L 0 0 0 45 M 0.460 45.500 C 0.460 70.250, 0.590 80.232, 0.749 67.682 C 0.908 55.132, 0.908 34.882, 0.749 22.682 C 0.590 10.482, 0.460 20.750, 0.460 45.500 M 36 4.096 C 32.425 5.798, 28.389 7.399, 27.031 7.654 C 23.606 8.298, 21.977 9.854, 19.863 14.500 C 17.680 19.300, 17.488 28.818, 19.463 34.359 C 20.852 38.254, 20.475 45, 18.869 45 C 18.391 45, 18 45.477, 18 46.059 C 18 46.641, 18.414 46.862, 18.919 46.550 C 19.425 46.237, 20.155 48.929, 20.540 52.532 C 21.165 58.366, 21.597 59.354, 24.490 61.560 C 28.825 64.867, 31 63.976, 31 58.893 C 31 56.752, 30.550 55, 30 55 C 28.066 55, 29.036 52.929, 32.586 49.482 C 34.558 47.567, 37.188 46, 38.431 46 C 40.992 46, 44 43.148, 44 40.721 C 44 39.829, 44.733 38.689, 45.628 38.188 C 48.175 36.763, 45.530 35.802, 42.660 37.109 C 40.738 37.985, 39.468 37.932, 37.085 36.878 C 35.388 36.126, 34 35.145, 34 34.697 C 34 34.249, 33.581 34.141, 33.069 34.457 C 32.557 34.774, 31.856 34.575, 31.510 34.016 C 31.165 33.457, 31.471 32.985, 32.191 32.966 C 32.911 32.947, 31.700 32.063, 29.500 31 C 26.471 29.537, 26.032 29.060, 27.691 29.034 C 28.896 29.015, 30.148 29.430, 30.473 29.956 C 30.798 30.482, 31.725 30.659, 32.532 30.349 C 33.339 30.040, 34 30.316, 34 30.964 C 34 31.675, 34.661 31.482, 35.664 30.479 C 36.826 29.317, 38.257 28.993, 40.414 29.406 C 42.779 29.859, 43.150 29.746, 42 28.920 C 40.820 28.073, 41.086 27.937, 43.250 28.283 C 44.763 28.525, 46 28.335, 46 27.861 C 46 26.900, 44.895 26.715, 40.500 26.944 L 37.500 27.101 40.126 25.674 C 42.703 24.274, 46.856 24.175, 48.943 25.465 C 49.524 25.824, 50 27.179, 50 28.476 C 50 29.772, 50.563 31.060, 51.250 31.338 C 52.065 31.667, 51.949 31.870, 50.917 31.921 C 50.046 31.964, 49.333 32.632, 49.333 33.405 C 49.333 34.177, 49.933 34.579, 50.667 34.298 C 52.930 33.429, 52.146 35.717, 49 39.161 C 45.357 43.150, 45.264 43.863, 48.465 43.251 C 49.821 42.992, 52.299 43.257, 53.972 43.840 C 56.300 44.652, 57.303 44.591, 58.247 43.581 C 59.254 42.503, 59.893 42.822, 61.740 45.325 C 64.919 49.634, 64.655 52.359, 61.452 48.296 C 58.933 45.099, 58.314 45, 53.500 47.021 C 52.400 47.483, 49.819 48.375, 47.764 49.003 C 42.818 50.516, 41.953 52.109, 46.168 51.940 C 51.927 51.710, 59.694 52.792, 61.824 54.122 C 63.679 55.280, 65.438 58.895, 64.569 59.764 C 64.376 59.957, 63.238 58.739, 62.041 57.058 C 60.181 54.445, 59.255 54.013, 55.682 54.090 L 51.500 54.180 54.898 55.157 L 58.296 56.134 55.544 57.562 C 54.030 58.347, 52.425 58.763, 51.977 58.486 C 51.528 58.208, 50.429 58.714, 49.533 59.610 C 47.723 61.419, 47.757 61.433, 46.054 58.164 C 45.385 56.880, 44.635 56.031, 44.388 56.279 C 44.140 56.527, 44.703 58.063, 45.639 59.694 C 47.713 63.308, 52.373 66.227, 53.796 64.804 C 54.450 64.150, 55.708 64.418, 57.500 65.592 C 60.085 67.286, 60.126 67.435, 58.357 68.729 C 57.336 69.476, 55.487 70.341, 54.250 70.652 C 53.013 70.963, 52 71.566, 52 71.993 C 52 73.352, 56.840 76, 59.324 76 C 60.705 76, 63.700 77.745, 66.403 80.123 C 68.979 82.391, 71.304 84.029, 71.570 83.763 C 71.836 83.498, 70.466 80.922, 68.527 78.040 C 66.587 75.157, 65 71.772, 65 70.516 C 65 69.003, 64.242 68.020, 62.750 67.601 C 60.655 67.012, 60.624 66.895, 62.311 65.900 C 63.307 65.313, 64.755 65.076, 65.529 65.373 C 66.303 65.670, 67.239 65.422, 67.610 64.823 C 69.093 62.422, 70.998 49.009, 70.999 40.950 C 71 35.635, 71.454 31.946, 72.200 31.200 C 73.133 30.267, 73.046 30, 71.807 30 C 70.537 30, 70.198 28.786, 70.130 23.995 C 70.020 16.133, 68.194 12.875, 60.883 7.493 C 50.937 0.171, 45.736 -0.539, 36 4.096 M 19.002 27.750 C 19.004 28.163, 20.391 28.550, 22.086 28.611 C 24.119 28.684, 24.714 28.434, 23.834 27.876 C 22.174 26.824, 18.999 26.741, 19.002 27.750 M 55.667 28.667 C 54.510 29.823, 54.945 33.660, 56.250 33.817 C 56.938 33.899, 59.075 34.188, 61 34.459 C 63.636 34.830, 63.883 34.761, 62 34.180 C 59.628 33.448, 59.603 33.364, 61.500 32.546 C 62.600 32.072, 64.175 31.774, 65 31.884 C 66.333 32.061, 66.333 31.969, 65 31.057 C 62.955 29.658, 58.663 29.737, 57.200 31.200 C 56.533 31.867, 56 31.956, 56 31.400 C 56 30.850, 56.540 29.860, 57.200 29.200 C 57.918 28.482, 57.985 28, 57.367 28 C 56.798 28, 56.033 28.300, 55.667 28.667 M 41.473 32.044 C 41.148 32.570, 41.809 33, 42.941 33 C 45.356 33, 45.599 32.444, 43.532 31.651 C 42.725 31.341, 41.798 31.518, 41.473 32.044 M 34 41 C 33.175 41.533, 32.950 41.969, 33.500 41.969 C 34.050 41.969, 35.175 41.533, 36 41 C 36.825 40.467, 37.050 40.031, 36.500 40.031 C 35.950 40.031, 34.825 40.467, 34 41 M 37.360 55.503 C 37.003 56.436, 37.423 57.852, 38.327 58.755 C 39.793 60.222, 39.979 60.217, 40.560 58.703 C 40.918 57.771, 40.497 56.354, 39.594 55.451 C 38.128 53.985, 37.941 53.989, 37.360 55.503" stroke="none" fill="#3467df" fill-rule="evenodd"/>
</svg>