<svg xmlns="http://www.w3.org/2000/svg" width="90" height="90" viewBox="0 0 90 90" version="1.1">
	<rect x="0" y="0" width="100%" height="100%" fill="#bfbfbf" />
	<path d="M 23 0.826 C 23 1.280, 24.125 2.708, 25.500 4 C 27.372 5.759, 28 5.967, 28 4.829 C 28 3.994, 27.177 2.565, 26.171 1.655 C 24.173 -0.154, 23 -0.460, 23 0.826 M 8.229 6.187 C 8.727 7.682, 11 8.505, 11 7.190 C 11 6.653, 10.287 5.941, 9.416 5.606 C 8.443 5.233, 7.985 5.456, 8.229 6.187 M 6.070 7.691 C 6.109 8.136, 6.527 9.400, 7 10.500 C 7.829 12.428, 7.862 12.421, 7.930 10.309 C 7.968 9.104, 7.550 7.840, 7 7.500 C 6.450 7.160, 6.032 7.246, 6.070 7.691 M 16.651 9.468 C 15.980 11.216, 17.525 12.411, 19.155 11.405 C 19.825 10.990, 20.039 11.128, 19.666 11.732 C 19.312 12.304, 19.917 13.007, 21.011 13.293 C 23.537 13.953, 23.628 11.878, 21.171 9.655 C 18.911 7.610, 17.388 7.547, 16.651 9.468 M 21.020 19.524 C 21.716 20.362, 22.491 20.842, 22.743 20.591 C 23.436 19.897, 22.027 18, 20.819 18 C 20.155 18, 20.231 18.574, 21.020 19.524 M 18.500 22 C 19.600 22.473, 21.175 22.884, 22 22.914 C 23.333 22.963, 23.333 22.862, 22 22 C 21.175 21.467, 19.600 21.055, 18.500 21.086 L 16.500 21.141 18.500 22 M 11 26.094 C 11 28.643, 11.361 29, 13.941 29 C 15.559 29, 17.160 28.550, 17.500 28 C 17.840 27.450, 17.416 27, 16.559 27 C 15.702 27, 15 26.377, 15 25.617 C 15 24.856, 14.100 23.998, 13 23.710 C 11.339 23.276, 11 23.680, 11 26.094 M 62 25 C 62 25.550, 62.450 26, 63 26 C 63.550 26, 64 25.550, 64 25 C 64 24.450, 63.550 24, 63 24 C 62.450 24, 62 24.450, 62 25 M 47.715 55.301 C 47.243 56.530, 47.585 57, 48.950 57 C 49.987 57, 51.661 57.262, 52.668 57.582 C 54.383 58.126, 54.379 58.064, 52.603 56.614 C 51.559 55.761, 50.360 55.277, 49.938 55.538 C 49.516 55.799, 48.990 55.470, 48.769 54.807 C 48.515 54.046, 48.126 54.228, 47.715 55.301 M 38.449 58.273 C 37.920 59.652, 37.022 59.867, 33.895 59.367 C 31.445 58.976, 30 59.134, 30 59.795 C 30 61.047, 25.219 62.669, 19 63.527 C 13.602 64.271, 12.217 65.352, 13.965 67.458 C 15.600 69.428, 21.482 69.447, 27 67.500 C 29.338 66.675, 33.445 66, 36.126 66 C 40.961 66, 41 65.974, 40.985 62.750 C 40.976 60.962, 40.550 58.838, 40.038 58.028 C 39.241 56.766, 39.013 56.801, 38.449 58.273 M 70.250 58.031 C 67.693 59.059, 67.530 59.799, 69.339 62.178 C 70.175 63.277, 71.094 63.560, 72.004 62.998 C 72.798 62.507, 74.165 62.553, 75.196 63.105 C 76.395 63.746, 77 63.723, 77 63.035 C 77 62.466, 76.523 62, 75.941 62 C 75.359 62, 75.160 61.550, 75.500 61 C 75.842 60.446, 75.087 59.984, 73.809 59.965 L 71.500 59.929 74 58.500 C 76.197 57.244, 76.258 57.074, 74.500 57.099 C 73.400 57.114, 71.487 57.534, 70.250 58.031 M 53 71.588 C 53 72.365, 53.638 73, 54.418 73 C 55.198 73, 56.622 73.301, 57.582 73.670 C 58.720 74.107, 59.092 73.957, 58.649 73.241 C 58.251 72.598, 58.908 71.963, 60.235 71.708 C 62.087 71.352, 61.953 71.234, 59.500 71.060 C 57.850 70.943, 55.712 70.696, 54.750 70.512 C 53.752 70.321, 53 70.783, 53 71.588 M 41.441 73.532 C 43.978 75.451, 45.571 75.428, 43.643 73.500 C 42.818 72.675, 41.548 72.014, 40.821 72.032 C 39.992 72.052, 40.223 72.611, 41.441 73.532 M 60.507 73.989 C 60.157 74.555, 60.558 74.723, 61.448 74.382 C 63.180 73.717, 63.497 73, 62.059 73 C 61.541 73, 60.843 73.445, 60.507 73.989 M 68.060 74.428 C 66.829 75.911, 55.652 76.372, 56.560 74.902 C 56.816 74.489, 55.219 74.860, 53.012 75.727 C 50.806 76.594, 49 77.712, 49 78.211 C 49 78.710, 48.658 78.906, 48.239 78.648 C 47.271 78.050, 43.454 80.788, 44.207 81.540 C 45.114 82.447, 71.949 86, 77.894 86 C 80.956 86, 85.027 85.233, 87.184 84.250 C 90.491 82.743, 90.987 82.096, 90.762 79.589 C 90.589 77.667, 89.887 76.591, 88.694 76.420 C 87.292 76.218, 87.136 76.459, 87.997 77.496 C 89.298 79.064, 88.152 79.520, 80.464 80.492 C 75.890 81.070, 75.429 80.946, 75.429 79.138 C 75.429 78.043, 75.773 77.360, 76.194 77.620 C 77.625 78.504, 80.940 76.007, 80.356 74.485 C 79.565 72.423, 71.431 72.436, 70.638 74.500 C 70.322 75.325, 69.544 76, 68.909 76 C 68.078 76, 68.103 75.581, 69 74.500 C 69.685 73.675, 70.020 73, 69.745 73 C 69.470 73, 68.712 73.642, 68.060 74.428 M 1.998 76.454 C 4.673 77.934, 5.607 77.791, 4.541 76.067 C 4.179 75.480, 2.896 75.016, 1.691 75.035 C -0.422 75.070, -0.411 75.120, 1.998 76.454 M 61 78 C 59.707 78.835, 59.734 78.971, 61.191 78.985 C 62.121 78.993, 63.160 78.550, 63.500 78 C 64.282 76.734, 62.958 76.734, 61 78 M 66.015 78.750 C 66.024 79.749, 66.351 80.071, 66.777 79.500 C 67.187 78.950, 67.931 78.162, 68.428 77.750 C 68.926 77.338, 68.583 77, 67.667 77 C 66.740 77, 66.007 77.777, 66.015 78.750 M 1 80.453 C 1 82.308, 1.528 83, 2.941 83 C 5.884 83, 6.064 81.702, 3.397 79.703 C 1.025 77.925, 1 77.933, 1 80.453 M 19.500 86 C 18.164 86.574, 20.154 86.859, 25.500 86.859 C 30.846 86.859, 32.836 86.574, 31.500 86 C 30.400 85.527, 27.700 85.141, 25.500 85.141 C 23.300 85.141, 20.600 85.527, 19.500 86" stroke="none" fill="#3467df" fill-rule="evenodd"/>
</svg>