<svg xmlns="http://www.w3.org/2000/svg" width="300" height="300" viewBox="0 0 300 300" version="1.1">
	<rect x="0" y="0" width="100%" height="100%" fill="#bfbfbf" />
	<path d="M 296.227 23.737 C 296.473 39.708, 296.674 41.508, 298.250 41.810 C 299.865 42.121, 300 40.747, 300 24.073 C 300 6.598, 299.933 6, 297.977 6 C 296.012 6, 295.962 6.509, 296.227 23.737 M 113.262 24.250 C 113.468 26.196, 113.061 26.480, 110.250 26.353 C 107.906 26.246, 107 26.641, 107 27.769 C 107 28.629, 106.704 29.037, 106.342 28.675 C 105.980 28.313, 105.037 28.555, 104.245 29.211 C 103.100 30.162, 102.606 30.047, 101.823 28.647 C 101.079 27.319, 100.513 27.159, 99.508 27.993 C 98.589 28.756, 97.978 28.773, 97.530 28.049 C 96.586 26.520, 95 26.766, 95 28.441 C 95 30.507, 92.927 31.501, 91.943 29.907 C 90.959 28.316, 90.500 28.683, 89.529 31.839 C 88.862 34.007, 89.054 34.153, 92.154 33.839 C 93.994 33.653, 95.588 33.950, 95.696 34.500 C 95.803 35.050, 94.791 35.415, 93.446 35.312 C 91.846 35.189, 91 35.647, 91 36.637 C 91 37.738, 90.115 38.071, 87.750 37.857 C 85.699 37.672, 84.584 37.990, 84.729 38.718 C 84.855 39.353, 84.083 39.807, 83.014 39.726 C 81.319 39.598, 81.251 39.380, 82.481 38.021 C 83.736 36.635, 83.429 36.457, 79.695 36.410 C 77.388 36.380, 76.231 36.523, 77.125 36.727 C 79.675 37.310, 79.132 41.592, 76.317 43.098 C 74.418 44.114, 74.017 44.933, 74.493 46.827 C 74.973 48.743, 74.775 49.128, 73.551 48.658 C 71.706 47.950, 71.516 49.116, 73.200 50.800 C 74.133 51.733, 74.133 52, 73.200 52 C 72.540 52, 71.138 51.138, 70.083 50.083 C 68.009 48.009, 66.796 48.305, 67.701 50.664 C 68.033 51.528, 67.047 53.238, 65.305 54.817 C 61.696 58.089, 59.124 64.841, 61.036 66.022 C 61.727 66.449, 62.050 67.427, 61.756 68.195 C 60.905 70.411, 64.456 70.101, 65.870 67.836 C 67 66.027, 66.919 65.891, 65.063 66.480 C 63.859 66.862, 63 66.691, 63 66.067 C 63 65.480, 63.563 64.988, 64.250 64.973 C 64.938 64.958, 67.075 63.581, 69 61.913 C 72.200 59.141, 72.285 58.933, 70 59.492 C 67.558 60.089, 67.546 60.066, 69.500 58.493 C 70.600 57.608, 72.501 57.070, 73.725 57.298 C 75.049 57.545, 76.630 56.961, 77.630 55.857 C 78.554 54.835, 79.857 54, 80.526 54 C 81.195 54, 82.813 52.428, 84.121 50.507 C 86.475 47.050, 88 46.065, 88 48 C 88 48.550, 87.550 49, 87 49 C 86.450 49, 86 49.900, 86 51 C 86 53.785, 87.815 53.499, 89.182 50.500 C 89.808 49.125, 90.924 48, 91.661 48 C 92.397 48, 93 47.550, 93 47 C 93 46.450, 92.550 46, 92 46 C 91.450 46, 91 45.523, 91 44.941 C 91 44.359, 91.450 44.160, 92 44.500 C 92.567 44.851, 93 44.010, 93 42.559 C 93 41.152, 93.421 40, 93.936 40 C 95.426 40, 94.154 49.383, 92.498 50.610 C 91.674 51.221, 91 52.203, 91 52.793 C 91 53.383, 90.108 54.148, 89.018 54.494 C 86.141 55.408, 88.650 57.790, 91.846 57.179 C 93.650 56.834, 94.089 57.047, 93.509 57.985 C 92.985 58.833, 93.186 59.097, 94.111 58.772 C 94.875 58.504, 95.438 57.546, 95.361 56.642 C 95.285 55.739, 95.847 55, 96.611 55 C 97.375 55, 98 54.550, 98 54 C 98 52.526, 100.576 52.784, 101.910 54.392 C 103.203 55.950, 107.319 57.326, 106.442 55.907 C 106.134 55.408, 106.385 55, 107 55 C 107.615 55, 107.840 54.550, 107.500 54 C 107.158 53.446, 107.890 53, 109.141 53 C 114.103 53, 108.220 50.307, 102.750 50.074 C 101.787 50.033, 101 49.295, 101 48.433 C 101 47.308, 100.364 47.023, 98.750 47.423 C 97.513 47.730, 97.063 47.723, 97.750 47.407 C 98.438 47.092, 99 45.746, 99 44.417 C 99 43.087, 99.450 42, 100 42 C 100.550 42, 101 41.526, 101 40.946 C 101 40.366, 102.348 38.453, 103.995 36.696 C 106.869 33.629, 106.991 33.594, 106.995 35.809 C 106.998 37.318, 106.595 37.868, 105.830 37.395 C 105.031 36.901, 104.874 37.229, 105.333 38.426 C 106.213 40.718, 105.047 42.682, 103.890 40.857 C 103.207 39.779, 103.027 39.836, 103.015 41.133 C 103.007 42.032, 103.901 43.002, 105.001 43.290 C 106.102 43.578, 106.751 43.405, 106.442 42.907 C 106.134 42.408, 107.735 42, 110 42 C 112.265 42, 113.869 41.597, 113.564 41.104 C 113.260 40.611, 113.893 39.149, 114.972 37.854 L 116.932 35.500 115.965 39 C 115.432 40.925, 114.539 42.653, 113.980 42.839 C 113.422 43.026, 112.301 43.842, 111.490 44.653 C 110.679 45.464, 109.593 45.866, 109.077 45.547 C 108.561 45.228, 107.856 45.425, 107.510 45.984 C 107.165 46.543, 107.782 47, 108.882 47 C 109.982 47, 111.160 47.450, 111.500 48 C 112.418 49.486, 115.647 49.210, 117.357 47.500 C 118.182 46.675, 119.583 46, 120.470 46 C 121.358 46, 123.050 45.100, 124.230 44 C 126.205 42.161, 128.559 41.511, 131.750 41.925 C 132.438 42.015, 133 41.393, 133 40.544 C 133 39.667, 133.864 39, 135 39 C 136.100 39, 137 38.550, 137 38 C 137 37.450, 137.990 37, 139.200 37 C 140.762 37, 141.090 36.690, 140.330 35.930 C 139.671 35.271, 137.779 35.139, 135.397 35.585 C 132.210 36.183, 131.881 36.446, 133.517 37.085 C 135.087 37.698, 135.153 37.874, 133.833 37.930 C 132.917 37.968, 131.992 38.525, 131.778 39.166 C 131.491 40.027, 130.592 40.053, 128.339 39.268 C 126.524 38.635, 124.723 38.562, 123.894 39.087 C 121.993 40.290, 118 40.231, 118 39 C 118 38.450, 118.655 38, 119.455 38 C 120.255 38, 122.034 36.875, 123.409 35.500 C 124.784 34.125, 125.814 33, 125.698 33 C 125.582 33, 124.027 33.419, 122.243 33.930 C 119.664 34.670, 119 34.568, 119 33.430 C 119 32.540, 120.039 31.994, 121.750 31.985 C 125.164 31.966, 128.632 30.079, 125.500 29.945 C 124.265 29.892, 125.001 29.309, 127.425 28.421 C 131.525 26.919, 133.580 25.592, 131 26.112 C 128.817 26.552, 123.835 25.077, 124.402 24.158 C 124.985 23.216, 117.688 23.457, 116.110 24.432 C 115.478 24.823, 115 24.446, 115 23.559 C 115 22.702, 114.555 22, 114.012 22 C 113.468 22, 113.131 23.012, 113.262 24.250 M 133.443 23.445 C 131.101 24.402, 130.882 24.741, 132.263 25.271 C 133.195 25.628, 135.366 25.329, 137.087 24.605 C 139.752 23.485, 139.927 23.214, 138.267 22.780 C 137.194 22.500, 135.024 22.799, 133.443 23.445 M 87 25 C 88.375 26.076, 90.400 26.913, 91.500 26.862 C 93.415 26.772, 93.418 26.747, 91.571 26.276 C 90.510 26.006, 89.015 25.158, 88.249 24.392 C 87.484 23.626, 86.327 23.010, 85.679 23.022 C 85.030 23.034, 85.625 23.924, 87 25 M 128 24 C 128 24.550, 128.450 25, 129 25 C 129.550 25, 130 24.550, 130 24 C 130 23.450, 129.550 23, 129 23 C 128.450 23, 128 23.450, 128 24 M 82 25.059 C 82 25.641, 82.450 25.840, 83 25.500 C 83.550 25.160, 84 24.684, 84 24.441 C 84 24.198, 83.550 24, 83 24 C 82.450 24, 82 24.477, 82 25.059 M 101 24.393 C 101 24.609, 101.698 25.054, 102.552 25.382 C 103.442 25.723, 103.843 25.555, 103.493 24.989 C 102.906 24.038, 101 23.583, 101 24.393 M 137 26 C 136.099 26.582, 135.975 26.975, 136.691 26.985 C 137.346 26.993, 138.160 26.550, 138.500 26 C 139.267 24.758, 138.921 24.758, 137 26 M 143 27.903 C 143 28.468, 143.883 29.402, 144.962 29.980 C 146.042 30.557, 148.383 33.161, 150.165 35.765 C 151.947 38.369, 153.989 41.095, 154.702 41.821 C 155.416 42.548, 156 43.716, 156 44.416 C 156 45.743, 159.117 49, 160.388 49 C 160.789 49, 160.810 48.502, 160.434 47.893 C 159.962 47.129, 160.486 47.023, 162.125 47.550 C 164.956 48.461, 165.230 48.466, 171 47.701 C 173.475 47.373, 174.600 47.350, 173.500 47.649 C 170.408 48.492, 169.279 50, 171.741 50 C 175.343 50, 175.407 51.991, 171.809 52.107 C 168.745 52.206, 168.834 52.287, 173 53.195 C 178.453 54.385, 180.550 56, 176.641 56 C 175.056 56, 174.145 56.426, 174.500 57 C 174.840 57.550, 176.168 58, 177.452 58 C 178.736 58, 180.038 58.656, 180.345 59.457 C 180.794 60.626, 180.426 60.732, 178.488 59.995 C 177.158 59.490, 175.837 59.455, 175.551 59.917 C 174.906 60.962, 179.958 66.144, 180.996 65.503 C 181.780 65.018, 184.645 73.854, 184.190 75.354 C 184.048 75.823, 184.218 77.111, 184.568 78.215 C 185.110 79.923, 185.412 80.016, 186.586 78.843 C 187.681 77.747, 187.743 76.640, 186.884 73.481 C 186.288 71.291, 185.171 68.790, 184.401 67.921 C 183.630 67.053, 183 64.900, 183 63.136 C 183 61.373, 182.273 58.820, 181.385 57.465 C 180.497 56.109, 180.102 55, 180.507 55 C 180.913 55, 180.689 54.330, 180.010 53.512 C 179.014 52.312, 179.066 51.912, 180.277 51.447 C 181.178 51.102, 181.578 50.101, 181.276 48.947 C 180.999 47.888, 180.379 47.266, 179.898 47.563 C 179.417 47.861, 179.291 47.406, 179.618 46.552 C 179.946 45.698, 179.716 45, 179.107 45 C 178.498 45, 177.993 45.563, 177.985 46.250 C 177.974 47.095, 177.667 47.023, 177.037 46.026 C 176.445 45.089, 176.481 44.321, 177.137 43.916 C 177.735 43.546, 177.406 42.986, 176.353 42.582 C 175.355 42.199, 174.388 42.336, 174.204 42.887 C 174.021 43.437, 173.225 43.640, 172.435 43.337 C 171.555 42.999, 171 43.408, 171 44.393 C 171 46.928, 162.880 46.609, 161 44 C 160.207 42.900, 158.983 42, 158.279 42 C 157.576 42, 157 41.534, 157 40.965 C 157 40.251, 157.601 40.251, 158.934 40.965 C 159.998 41.534, 161.686 41.966, 162.684 41.924 C 163.810 41.877, 163.322 41.402, 161.401 40.674 C 158.320 39.507, 154.064 36, 155.729 36 C 156.208 36, 157.028 36.415, 157.550 36.922 C 158.072 37.429, 160.075 38.254, 162 38.756 C 164.586 39.430, 165.415 40.139, 165.175 41.470 C 164.914 42.915, 165.311 43.149, 167.175 42.650 C 168.454 42.307, 170.550 42.021, 171.833 42.014 C 175.474 41.992, 173.887 39.928, 168.962 38.278 C 166.508 37.456, 164.334 36.629, 164.131 36.439 C 163.353 35.714, 167.037 32.905, 167.992 33.495 C 168.547 33.838, 169 33.416, 169 32.559 C 169 30.723, 168.533 30.644, 165.920 32.043 C 164.442 32.834, 164.035 32.774, 164.236 31.793 C 164.417 30.907, 163.240 30.500, 160.500 30.500 C 157.301 30.500, 156.556 30.162, 156.780 28.810 C 156.973 27.644, 156.423 27.168, 155.005 27.275 C 153.871 27.360, 153.155 27.961, 153.406 28.617 C 154.123 30.484, 152.816 31.126, 151.599 29.505 C 150.283 27.752, 143 26.395, 143 27.903 M 135 30 L 132.694 32 135.597 31.985 C 137.194 31.976, 139.175 31.526, 140 30.985 C 141.333 30.109, 141.333 29.891, 140 29.015 C 137.937 27.661, 137.626 27.722, 135 30 M 116.639 29.694 C 115.673 30.660, 115.873 35, 116.883 35 C 117.992 35, 118.990 30.112, 118.005 29.503 C 117.606 29.256, 116.991 29.342, 116.639 29.694 M 86 31 C 86 31.550, 85.325 32, 84.500 32 C 83.675 32, 83 32.450, 83 33 C 83 33.550, 83.900 34, 85 34 C 86.333 34, 87 33.333, 87 32 C 87 30.900, 86.775 30, 86.500 30 C 86.225 30, 86 30.450, 86 31 M 129 34 C 127.667 34.862, 127.667 34.969, 129 34.969 C 129.825 34.969, 131.175 34.533, 132 34 C 133.333 33.138, 133.333 33.031, 132 33.031 C 131.175 33.031, 129.825 33.467, 129 34 M 171.132 33.897 C 170.028 34.597, 170.172 35.172, 171.882 36.882 C 174.795 39.795, 176 39.536, 176 36 C 176 32.884, 174.057 32.044, 171.132 33.897 M 172.150 34.950 C 172.370 35.610, 172.876 36.116, 173.275 36.075 C 174.471 35.951, 174.239 34.580, 172.950 34.150 C 172.290 33.930, 171.930 34.290, 172.150 34.950 M 128 37.393 C 128 37.609, 128.698 38.054, 129.552 38.382 C 130.442 38.723, 130.843 38.555, 130.493 37.989 C 129.906 37.038, 128 36.583, 128 37.393 M 143 38 C 143.825 38.533, 144.950 38.969, 145.500 38.969 C 146.050 38.969, 145.825 38.533, 145 38 C 144.175 37.467, 143.050 37.031, 142.500 37.031 C 141.950 37.031, 142.175 37.467, 143 38 M 86.668 40.424 C 86.298 41.386, 86.575 41.717, 87.463 41.376 C 88.237 41.079, 89.029 41.641, 89.297 42.677 C 89.674 44.135, 89.791 44.174, 89.884 42.872 C 90.052 40.510, 87.407 38.496, 86.668 40.424 M 134.667 40.667 C 133.516 41.817, 133.938 43, 135.500 43 C 136.325 43, 137 42.325, 137 41.500 C 137 39.938, 135.817 39.516, 134.667 40.667 M 138.333 41.500 C 138.333 42.325, 138.864 43, 139.514 43 C 141.008 43, 144.313 45.892, 145.800 48.500 C 146.931 50.486, 146.939 50.486, 146.970 48.441 C 147.005 46.040, 145.483 43.947, 142.027 41.646 C 138.974 39.613, 138.333 39.588, 138.333 41.500 M 150.100 41.705 C 150.829 42.917, 151.640 43.694, 151.903 43.431 C 152.166 43.168, 151.570 42.176, 150.579 41.226 C 148.857 39.577, 148.835 39.598, 150.100 41.705 M 82.872 44.750 C 81.629 46.336, 81.664 46.371, 83.250 45.128 C 84.916 43.821, 85.445 43, 84.622 43 C 84.415 43, 83.627 43.788, 82.872 44.750 M 148 43.948 C 148 44.470, 149.156 46.144, 150.569 47.669 C 151.982 49.194, 153.383 51.666, 153.683 53.163 C 153.982 54.660, 155.751 57.272, 157.614 58.967 C 161.404 62.416, 162.214 61.921, 158.774 58.259 C 157.125 56.504, 156.984 56.057, 158.230 56.535 C 159.699 57.098, 159.794 56.770, 158.983 53.942 C 157.634 49.237, 153.734 43.834, 152.753 45.310 C 152.175 46.180, 151.601 46.029, 150.621 44.750 C 149.146 42.826, 148 42.475, 148 43.948 M 103.813 47.683 C 104.534 47.972, 105.397 47.936, 105.729 47.604 C 106.061 47.272, 105.471 47.036, 104.417 47.079 C 103.252 47.127, 103.015 47.364, 103.813 47.683 M 117.269 50.693 C 118.242 50.947, 119.592 50.930, 120.269 50.656 C 120.946 50.382, 120.150 50.175, 118.500 50.195 C 116.850 50.215, 116.296 50.439, 117.269 50.693 M 150.015 51.191 C 150.007 52.121, 150.450 53.160, 151 53.500 C 152.266 54.282, 152.266 52.958, 151 51 C 150.165 49.707, 150.029 49.734, 150.015 51.191 M 126.200 52.122 C 123.341 53.179, 116.610 53.495, 115.222 52.637 C 114.550 52.222, 114 52.310, 114 52.834 C 114 54.719, 117.598 55.099, 123.990 53.890 C 127.571 53.213, 130.905 52.309, 131.399 51.880 C 132.468 50.955, 128.907 51.120, 126.200 52.122 M 132.750 54.689 C 130.466 55.286, 130.538 56.538, 133 59 C 134.100 60.100, 135.014 61.563, 135.030 62.250 C 135.047 62.940, 135.519 62.713, 136.085 61.742 C 136.648 60.775, 136.832 59.538, 136.495 58.992 C 136.158 58.446, 136.653 58, 137.596 58 C 139.183 58, 139.176 57.851, 137.500 56 C 136.505 54.900, 135.422 54.052, 135.095 54.116 C 134.768 54.180, 133.713 54.438, 132.750 54.689 M 145.699 55.958 C 146.354 58.460, 148 59.693, 148 57.681 C 148 56.891, 147.360 55.714, 146.579 55.065 C 145.412 54.097, 145.254 54.257, 145.699 55.958 M 148 54.393 C 148 54.609, 148.698 55.054, 149.552 55.382 C 150.442 55.723, 150.843 55.555, 150.493 54.989 C 149.906 54.038, 148 53.583, 148 54.393 M 72.813 55.683 C 73.534 55.972, 74.397 55.936, 74.729 55.604 C 75.061 55.272, 74.471 55.036, 73.417 55.079 C 72.252 55.127, 72.015 55.364, 72.813 55.683 M 109.306 56.419 C 109.795 57.889, 112.988 58.412, 114.182 57.218 C 114.807 56.593, 114.051 56.088, 112.049 55.794 C 110.096 55.507, 109.080 55.739, 109.306 56.419 M 117.020 57.524 C 117.716 58.362, 118.491 58.842, 118.743 58.591 C 119.436 57.897, 118.027 56, 116.819 56 C 116.155 56, 116.231 56.574, 117.020 57.524 M 125.345 58.543 C 125.019 59.392, 125.034 60.367, 125.376 60.710 C 125.719 61.053, 126 60.621, 126 59.750 C 126 58.879, 126.563 57.940, 127.250 57.662 C 128.229 57.267, 128.222 57.141, 127.219 57.079 C 126.514 57.036, 125.671 57.694, 125.345 58.543 M 150 58.133 C 150 59.012, 150.885 60.856, 151.967 62.231 C 153.049 63.607, 153.708 64.959, 153.431 65.235 C 153.155 65.512, 154.500 66.484, 156.422 67.396 C 160.299 69.236, 162.024 71.080, 159.168 70.334 C 157.984 70.024, 157.333 70.392, 157.333 71.371 C 157.333 72.206, 157.596 72.854, 157.917 72.811 C 158.238 72.768, 159.968 73.075, 161.763 73.494 C 164.137 74.048, 165.205 74.967, 165.682 76.868 C 166.042 78.305, 166.888 80.031, 167.561 80.704 C 168.527 81.670, 168.894 81.513, 169.299 79.964 C 169.582 78.884, 169.480 78, 169.073 78 C 168.667 78, 168.419 76.987, 168.523 75.750 C 168.627 74.513, 167.941 72.375, 166.998 71 C 166.056 69.625, 165.484 67.938, 165.726 67.250 C 165.990 66.502, 165.307 66, 164.024 66 C 162.660 66, 162.141 66.419, 162.595 67.155 C 163.084 67.946, 162.867 68.033, 161.905 67.431 C 160.501 66.554, 160.037 66.438, 156.750 66.152 C 155.787 66.069, 155 65.526, 155 64.947 C 155 64.368, 153.875 62.238, 152.500 60.215 C 151.079 58.124, 150 57.225, 150 58.133 M 106.694 58.639 C 105.895 59.438, 106.798 61, 108.059 61 C 108.577 61, 109 60.325, 109 59.500 C 109 57.954, 107.820 57.513, 106.694 58.639 M 153.564 59.293 C 153.940 60.279, 154.499 60.834, 154.807 60.526 C 155.115 60.219, 154.808 59.412, 154.124 58.733 C 153.136 57.753, 153.022 57.868, 153.564 59.293 M 83.640 62.016 C 82.188 63.742, 81 65.691, 81 66.349 C 81 67.006, 79.614 69.226, 77.920 71.281 C 76.226 73.337, 75.013 75.538, 75.224 76.173 C 75.436 76.808, 76.935 75.230, 78.555 72.666 C 80.175 70.101, 81.784 68.003, 82.131 68.002 C 82.479 68.001, 83.993 66.387, 85.497 64.415 C 89.100 59.692, 87.421 57.523, 83.640 62.016 M 121 60 C 121 60.550, 121.450 61, 122 61 C 122.550 61, 123 60.550, 123 60 C 123 59.450, 122.550 59, 122 59 C 121.450 59, 121 59.450, 121 60 M 127 61.039 C 127 62.734, 127.236 62.861, 128.395 61.789 C 129.834 60.459, 129.597 59, 127.941 59 C 127.423 59, 127 59.918, 127 61.039 M 188.713 61.226 C 187.271 62.718, 187.104 63.717, 187.848 66.413 C 188.355 68.249, 188.578 71.045, 188.344 72.626 L 187.918 75.500 189.292 72.500 L 190.667 69.500 191.239 74.500 C 191.553 77.249, 191.468 79.724, 191.050 80 C 189.707 80.884, 187.781 88.073, 188.242 90.484 C 188.537 92.031, 188.280 92.661, 187.476 92.352 C 186.809 92.097, 185.320 93.488, 184.166 95.444 C 182.529 98.218, 182.382 99, 183.499 99 C 184.286 99, 185.437 98.052, 186.057 96.893 C 186.849 95.413, 187.500 95.100, 188.241 95.841 C 188.983 96.583, 188.782 97.683, 187.569 99.535 C 186.618 100.986, 186.095 102.429, 186.407 102.740 C 186.719 103.052, 188.515 99.925, 190.399 95.791 C 194.633 86.501, 197.019 71.335, 195.199 65.284 C 193.707 60.324, 191.140 58.718, 188.713 61.226 M 146 60.382 C 146 62.264, 148.561 65.914, 150.179 66.337 C 151.651 66.722, 151.863 66.540, 151.066 65.579 C 150.489 64.884, 150.313 64.020, 150.675 63.658 C 151.037 63.296, 150.840 63, 150.238 63 C 149.636 63, 148.436 62.293, 147.571 61.429 C 146.707 60.564, 146 60.093, 146 60.382 M 172.543 60.931 C 172.226 61.443, 172.425 62.144, 172.984 62.490 C 173.543 62.835, 174 62.416, 174 61.559 C 174 59.802, 173.400 59.544, 172.543 60.931 M 156.638 62.500 C 156.955 63.325, 157.391 64, 157.607 64 C 157.823 64, 158 63.325, 158 62.500 C 158 61.675, 157.564 61, 157.031 61 C 156.499 61, 156.322 61.675, 156.638 62.500 M 140.638 63.500 C 140.322 64.325, 140.499 65, 141.031 65 C 141.564 65, 142 64.325, 142 63.500 C 142 62.675, 141.823 62, 141.607 62 C 141.391 62, 140.955 62.675, 140.638 63.500 M 189.667 63.667 C 188.726 64.608, 188.837 67.781, 189.833 68.397 C 190.292 68.680, 190.667 67.582, 190.667 65.956 C 190.667 62.736, 190.645 62.688, 189.667 63.667 M 167.557 65.418 C 168.624 66.198, 169.710 66.624, 169.969 66.364 C 170.520 65.814, 167.941 64.038, 166.559 64.015 C 166.041 64.007, 166.491 64.638, 167.557 65.418 M 64.750 71.392 C 62.893 72.802, 62.183 81, 63.918 81 C 66.463 81, 68.007 79.479, 68.584 76.403 C 68.935 74.532, 69.574 73, 70.004 73 C 70.434 73, 71.045 72.325, 71.362 71.500 C 72.105 69.562, 67.265 69.483, 64.750 71.392 M 180 75 C 180 75.550, 180.450 76, 181 76 C 181.550 76, 182 75.550, 182 75 C 182 74.450, 181.550 74, 181 74 C 180.450 74, 180 74.450, 180 75 M 3 78.031 C 3 80.512, 5.867 81.821, 7.086 79.896 C 8.647 77.430, 8.065 76, 5.500 76 C 3.654 76, 3 76.531, 3 78.031 M 158 76.409 C 158 76.599, 158.675 77.315, 159.500 78 C 160.365 78.718, 161 78.815, 161 78.229 C 161 77.671, 160.325 76.955, 159.500 76.638 C 158.675 76.322, 158 76.219, 158 76.409 M 162 77.441 C 162 78.298, 162.450 79, 163 79 C 163.550 79, 164 78.577, 164 78.059 C 164 77.541, 163.550 76.840, 163 76.500 C 162.450 76.160, 162 76.584, 162 77.441 M 269.563 79.070 C 271.602 81.323, 273.174 81.616, 272.399 79.599 C 272.104 78.828, 270.951 77.959, 269.839 77.668 C 267.900 77.161, 267.889 77.220, 269.563 79.070 M 73.864 79.016 C 72.964 79.542, 71.931 81.553, 71.569 83.486 C 71.206 85.419, 70.494 87, 69.986 87 C 69.478 87, 69.284 87.577, 69.555 88.282 C 69.825 88.987, 71.274 89.474, 72.773 89.363 C 74.273 89.253, 76.287 89.126, 77.250 89.081 C 78.428 89.027, 79 88.183, 79 86.500 C 79 85.125, 78.550 84, 78 84 C 77.450 84, 77 82.650, 77 81 C 77 77.815, 76.482 77.487, 73.864 79.016 M 156.733 80.124 C 157.412 80.808, 158.219 81.115, 158.526 80.807 C 158.834 80.499, 158.279 79.940, 157.293 79.564 C 155.868 79.022, 155.753 79.136, 156.733 80.124 M 182.079 80.583 C 182.127 81.748, 182.364 81.985, 182.683 81.188 C 182.972 80.466, 182.936 79.603, 182.604 79.271 C 182.272 78.939, 182.036 79.529, 182.079 80.583 M 255.086 81.401 C 254.453 82.997, 254.120 84.797, 254.348 85.401 C 254.575 86.006, 255.280 85.194, 255.914 83.599 C 256.547 82.003, 256.880 80.203, 256.652 79.599 C 256.425 78.994, 255.720 79.806, 255.086 81.401 M 274.600 79.674 C 275.205 80.128, 275.985 81.175, 276.332 82 C 276.777 83.054, 276.896 82.930, 276.732 81.583 C 276.605 80.528, 275.825 79.482, 275 79.257 C 274.035 78.994, 273.893 79.143, 274.600 79.674 M 179.658 83.368 C 178.882 86.315, 179.236 87.476, 180.720 86.854 C 181.184 86.659, 181.305 85.150, 180.988 83.500 L 180.412 80.500 179.658 83.368 M 198.984 86.559 C 197.518 91.793, 198.042 92.757, 201.496 91.184 C 204.632 89.755, 205.028 84.620, 202.122 83.065 C 200.472 82.182, 200.090 82.607, 198.984 86.559 M 271 83.059 C 271 83.641, 271.450 83.840, 272 83.500 C 272.550 83.160, 273 82.684, 273 82.441 C 273 82.198, 272.550 82, 272 82 C 271.450 82, 271 82.477, 271 83.059 M 172.607 87.582 C 171.644 90.093, 171.887 91, 173.525 91 C 174.424 91, 175.300 92.248, 175.658 94.039 C 176.374 97.622, 178.368 97.455, 178.807 93.775 C 179.011 92.057, 178.250 90.341, 176.511 88.602 C 173.453 85.544, 173.395 85.529, 172.607 87.582 M 66.471 89.328 C 65.992 90.503, 66.310 91.739, 67.363 92.792 C 68.714 94.143, 68.988 94.173, 68.930 92.964 C 68.891 92.159, 68.489 90.600, 68.037 89.500 C 67.259 87.608, 67.174 87.599, 66.471 89.328 M 124 88.302 C 124 88.596, 125.463 89.736, 127.250 90.835 C 131.105 93.205, 140.140 94.079, 140.785 92.144 C 141.020 91.440, 140.602 90.965, 139.856 91.090 C 139.110 91.214, 137.825 91.053, 137 90.732 C 136.175 90.411, 134.150 89.917, 132.500 89.635 C 130.850 89.352, 128.262 88.816, 126.750 88.444 C 125.237 88.072, 124 88.008, 124 88.302 M 239 89 C 239 89.550, 239.477 90, 240.059 90 C 240.641 90, 240.840 89.550, 240.500 89 C 240.160 88.450, 239.684 88, 239.441 88 C 239.198 88, 239 88.450, 239 89 M 255 88.882 C 255 89.432, 255.450 90.160, 256 90.500 C 256.550 90.840, 257 90.668, 257 90.118 C 257 89.568, 256.550 88.840, 256 88.500 C 255.450 88.160, 255 88.332, 255 88.882 M 74 92.059 C 74 92.641, 73.520 92.821, 72.933 92.459 C 71.644 91.662, 69.076 94.816, 69.032 97.250 C 69.013 98.268, 69.732 98.994, 70.750 98.985 C 72.246 98.972, 72.282 98.828, 71 98 C 70 97.354, 69.917 97.026, 70.750 97.015 C 71.438 97.007, 72.030 96.213, 72.067 95.250 C 72.125 93.764, 74.631 101.526, 75.054 104.500 C 75.132 105.050, 75.734 103.484, 76.391 101.020 C 77.804 95.721, 77.331 91, 75.387 91 C 74.624 91, 74 91.477, 74 92.059 M 166.531 93.096 C 166.850 94.102, 166.650 95.785, 166.088 96.836 C 165.011 98.848, 166.642 101.041, 170.126 102.269 C 171.257 102.668, 171.603 103.629, 171.260 105.421 C 170.968 106.948, 171.223 108, 171.883 108 C 172.498 108, 173 107.122, 173 106.050 C 173 104.977, 173.703 103.706, 174.563 103.225 C 175.676 102.602, 175.933 101.581, 175.455 99.675 C 175.085 98.204, 174.372 97, 173.870 97 C 173.368 97, 172.464 95.917, 171.861 94.594 C 170.503 91.614, 165.625 90.243, 166.531 93.096 M 269 93 C 269 95.155, 270.596 95.554, 273 94 C 274.282 93.172, 274.246 93.028, 272.750 93.015 C 271.788 93.007, 271 92.550, 271 92 C 271 91.450, 270.550 91, 270 91 C 269.450 91, 269 91.900, 269 93 M 173.079 93.583 C 173.127 94.748, 173.364 94.985, 173.683 94.188 C 173.972 93.466, 173.936 92.603, 173.604 92.271 C 173.272 91.939, 173.036 92.529, 173.079 93.583 M 86.675 98.723 C 82.875 99.294, 80.131 101.787, 80.741 104.116 C 81.017 105.172, 80.717 106, 80.058 106 C 79.411 106, 79.141 105.581, 79.457 105.069 C 79.774 104.557, 79.627 103.887, 79.131 103.581 C 78.635 103.274, 78.005 104.195, 77.731 105.628 C 77.074 109.061, 80.394 112.749, 82.366 110.777 C 83.078 110.065, 83.488 108.965, 83.278 108.333 C 83.067 107.701, 83.368 106.890, 83.947 106.533 C 84.526 106.175, 85 105.009, 85 103.941 C 85 102.348, 85.707 102, 88.941 102 C 91.109 102, 93.160 102.450, 93.500 103 C 93.840 103.550, 95.243 104, 96.618 104 C 97.993 104, 98.871 104.399, 98.570 104.887 C 98.268 105.375, 98.579 105.754, 99.261 105.730 C 103.069 105.592, 106.054 106.103, 105.613 106.817 C 105.336 107.266, 106.434 108.416, 108.054 109.373 C 111.114 111.181, 111.710 112.443, 110 113.500 C 109.450 113.840, 109 113.676, 109 113.137 C 109 112.081, 102.171 109.496, 101.405 110.262 C 101.151 110.515, 102.419 111.494, 104.222 112.435 C 106.651 113.705, 106.853 113.970, 105 113.462 C 98.633 111.713, 87.917 112.708, 86.383 115.190 C 85.430 116.731, 86.448 117.019, 89.626 116.107 C 91.706 115.511, 93.168 115.650, 94.417 116.563 C 95.950 117.684, 96.531 117.582, 98.357 115.874 C 99.839 114.488, 101.271 114.054, 103 114.467 C 106.427 115.284, 107.031 115.338, 110.750 115.158 C 113.419 115.028, 114 114.593, 114 112.722 C 114 111.469, 113.100 109.674, 112 108.732 C 110.900 107.790, 110 106.124, 110 105.030 C 110 103.702, 108.611 102.332, 105.820 100.908 C 102.268 99.096, 101.107 98.938, 98.103 99.861 C 95.290 100.724, 94.106 100.644, 92.318 99.473 C 91.082 98.663, 89.942 98.067, 89.785 98.150 C 89.628 98.232, 88.229 98.490, 86.675 98.723 M 154.500 99 C 154.840 99.550, 154.641 100, 154.059 100 C 153.477 100, 153 100.502, 153 101.117 C 153 101.741, 153.882 102.003, 155 101.710 C 156.100 101.423, 157 101.595, 157 102.094 C 157 102.592, 157.565 103, 158.256 103 C 159.389 103, 160.707 105.334, 162.352 110.250 C 162.674 111.213, 163.401 112, 163.969 112 C 164.536 112, 164.955 111.213, 164.900 110.250 C 164.722 107.120, 163.521 103.879, 162.588 104.009 C 162.087 104.079, 161.096 102.755, 160.387 101.068 C 159.415 98.758, 158.452 98, 156.489 98 C 155.006 98, 154.148 98.431, 154.500 99 M 136.250 101.163 C 132.666 102.149, 131.850 104, 135 104 C 136.160 104, 137 104.667, 137 105.588 C 137 106.900, 137.738 107.053, 141.250 106.470 C 143.588 106.082, 145.650 105.367, 145.833 104.882 C 146.017 104.397, 147.029 104, 148.083 104 C 149.137 104, 150 103.491, 150 102.868 C 150 102.130, 148.645 101.918, 146.105 102.259 C 143.685 102.584, 141.697 102.306, 140.855 101.525 C 139.895 100.635, 138.551 100.529, 136.250 101.163 M 64.853 102.670 C 62.258 103.359, 61.058 109.962, 62.976 112.995 C 63.791 114.284, 64.112 114.228, 65.308 112.594 C 66.265 111.285, 66.915 111.054, 67.406 111.849 C 67.798 112.482, 68.519 113, 69.010 113 C 69.501 113, 69.065 111.130, 68.042 108.845 C 67.019 106.560, 66.414 104.085, 66.698 103.345 C 66.982 102.605, 67.053 102.052, 66.857 102.116 C 66.661 102.180, 65.759 102.429, 64.853 102.670 M 130.084 109.473 C 127.871 110.273, 126.552 111.465, 126.340 112.854 C 125.847 116.083, 128.827 115.554, 132.161 111.820 C 136.090 107.419, 136.012 107.331, 130.084 109.473 M 166.667 109.667 C 166.300 110.033, 166.014 111.046, 166.030 111.917 C 166.055 113.217, 166.251 113.174, 167.122 111.675 C 168.199 109.823, 167.887 108.447, 166.667 109.667 M 187 110 C 185.716 110.830, 185.751 110.972, 187.240 110.985 C 188.885 110.999, 188.886 111.110, 187.268 113 C 185.261 115.343, 182.801 115.682, 183.638 113.500 C 183.955 112.675, 183.781 112, 183.252 112 C 182.722 112, 181.860 113.463, 181.335 115.250 C 180.680 117.482, 179.851 118.408, 178.690 118.206 C 177.761 118.045, 177 118.382, 177 118.956 C 177 119.530, 177.450 120, 178 120 C 179.782 120, 179.058 122.899, 177 124 C 173.970 125.622, 174.483 128, 177.864 128 C 179.591 128, 181.727 129, 183.249 130.521 C 185.392 132.664, 185.862 132.802, 186.385 131.439 C 187.578 128.330, 187.063 124, 185.500 124 C 184.675 124, 184 123.550, 184 123 C 184 122.450, 184.450 122, 185 122 C 185.550 122, 186 121.239, 186 120.309 C 186 118.834, 186.188 118.866, 187.468 120.559 C 188.451 121.858, 188.947 122.046, 188.968 121.128 C 188.994 120.021, 189.291 119.996, 190.500 121 C 191.802 122.081, 192 121.529, 192 116.822 C 192 113.840, 191.460 110.860, 190.800 110.200 C 189.362 108.762, 188.950 108.740, 187 110 M 85 112.969 C 85 113.501, 85.675 113.678, 86.500 113.362 C 87.325 113.045, 88 112.609, 88 112.393 C 88 112.177, 87.325 112, 86.500 112 C 85.675 112, 85 112.436, 85 112.969 M 134.189 113.965 L 130.878 115.814 133.880 116.474 C 135.581 116.847, 137.830 116.626, 139.069 115.963 C 140.416 115.242, 141.493 115.159, 141.877 115.747 C 143.145 117.688, 147.118 119.097, 149.288 118.374 C 150.504 117.969, 152.850 117.757, 154.500 117.903 C 158.421 118.250, 156.761 116.743, 151.357 115.049 C 149.078 114.335, 146.646 114.101, 145.952 114.530 C 145.182 115.006, 144.941 114.904, 145.334 114.268 C 145.688 113.696, 145.082 112.993, 143.987 112.707 C 142.893 112.421, 142.249 112.595, 142.558 113.093 C 142.866 113.592, 142.390 114, 141.500 114 C 140.610 114, 140.160 113.550, 140.500 113 C 141.495 111.390, 137.781 111.958, 134.189 113.965 M 171.079 113.583 C 171.127 114.748, 171.364 114.985, 171.683 114.188 C 171.972 113.466, 171.936 112.603, 171.604 112.271 C 171.272 111.939, 171.036 112.529, 171.079 113.583 M 137 115 C 136.099 115.582, 135.975 115.975, 136.691 115.985 C 137.346 115.993, 138.160 115.550, 138.500 115 C 139.267 113.758, 138.921 113.758, 137 115 M 158 114.819 C 158 116.027, 159.897 117.436, 160.591 116.743 C 160.842 116.491, 160.362 115.716, 159.524 115.020 C 158.574 114.231, 158 114.155, 158 114.819 M 67.998 121.505 C 66.861 124.496, 66.698 127, 67.640 127 C 68.741 127, 70.935 123.579, 70.968 121.809 C 71.022 118.938, 69.051 118.736, 67.998 121.505 M 72.822 119.512 C 71.859 120.475, 73.109 127.366, 74.405 128.235 C 75.032 128.656, 74.539 128.976, 73.250 128.985 C 71.317 128.998, 71.002 129.528, 71.015 132.750 C 71.025 135.240, 71.320 136.043, 71.893 135.139 C 72.367 134.391, 72.533 132.928, 72.261 131.889 C 71.699 129.742, 72.304 129.557, 75.066 131.035 C 76.688 131.903, 77 131.737, 77 130.004 C 77 128.867, 76.328 127.679, 75.506 127.364 C 74.684 127.048, 74.198 126.489, 74.426 126.121 C 75.085 125.054, 73.560 118.773, 72.822 119.512 M 171.667 122.667 C 171.300 123.033, 170.997 124.496, 170.994 125.917 C 170.990 127.338, 170.302 129.815, 169.464 131.422 C 168.280 133.692, 168.215 134.515, 169.172 135.106 C 170.962 136.213, 172.172 135.118, 171.500 133 C 171.180 131.993, 171.417 130.860, 172.026 130.484 C 173.794 129.391, 174.305 130.675, 173.305 133.699 C 172.796 135.240, 172.552 137.287, 172.763 138.250 C 173.231 140.383, 176 140.597, 176 138.500 C 176 137.675, 176.675 137, 177.500 137 C 178.325 137, 179 136.362, 179 135.582 C 179 134.802, 179.269 133.462, 179.598 132.605 C 180.007 131.541, 179.293 130.649, 177.348 129.794 C 173.707 128.192, 172.948 127.055, 173.650 124.258 C 174.189 122.111, 173.098 121.235, 171.667 122.667 M 93.269 128.693 C 94.242 128.947, 95.592 128.930, 96.269 128.656 C 96.946 128.382, 96.150 128.175, 94.500 128.195 C 92.850 128.215, 92.296 128.439, 93.269 128.693 M 140.441 129.532 C 141.509 130.339, 143.309 130.948, 144.441 130.884 C 146.450 130.771, 146.451 130.756, 144.500 130.287 C 143.400 130.022, 142.072 129.400, 141.550 128.903 C 141.028 128.406, 140.127 128.014, 139.550 128.032 C 138.972 128.049, 139.374 128.724, 140.441 129.532 M 150.813 130.683 C 151.534 130.972, 152.397 130.936, 152.729 130.604 C 153.061 130.272, 152.471 130.036, 151.417 130.079 C 150.252 130.127, 150.015 130.364, 150.813 130.683 M 62 133.227 C 62 135.050, 63.773 136.561, 64.757 135.576 C 65.100 135.233, 64.620 134.192, 63.690 133.262 C 62.132 131.703, 62 131.700, 62 133.227 M 70.510 138.016 C 70.856 138.575, 71.557 138.774, 72.069 138.457 C 73.456 137.600, 73.198 137, 71.441 137 C 70.584 137, 70.165 137.457, 70.510 138.016 M 189.600 138.600 C 189.244 139.527, 189.178 140.511, 189.453 140.786 C 189.728 141.061, 190.244 140.527, 190.600 139.600 C 190.956 138.673, 191.022 137.689, 190.747 137.414 C 190.472 137.139, 189.956 137.673, 189.600 138.600 M 101 140.059 C 101 140.641, 101.450 140.840, 102 140.500 C 102.550 140.160, 103 139.684, 103 139.441 C 103 139.198, 102.550 139, 102 139 C 101.450 139, 101 139.477, 101 140.059 M 0.206 145.991 C 0.425 149.330, 0.949 150.567, 2.250 150.814 C 3.316 151.017, 4 150.532, 4 149.573 C 4 148.708, 4.787 147.971, 5.750 147.937 C 7.097 147.888, 6.984 147.666, 5.261 146.973 C 3.382 146.217, 3.170 145.682, 3.944 143.646 C 4.773 141.467, 4.614 141.234, 2.390 141.360 C 0.095 141.490, -0.066 141.830, 0.206 145.991 M 173.250 144.346 C 172.012 145.569, 171 147.144, 171 147.844 C 171 148.545, 170.647 148.900, 170.215 148.633 C 169.528 148.208, 169.364 150.908, 169.844 154.750 C 170.082 156.654, 173.788 156.241, 174.332 154.250 C 174.595 153.287, 174.741 154.412, 174.655 156.749 C 174.570 159.085, 174.162 160.998, 173.750 160.999 C 173.338 160.999, 173 160.325, 173 159.500 C 173 157.924, 171.458 157.450, 170.639 158.775 C 170.376 159.201, 170.528 161.113, 170.978 163.025 C 171.427 164.936, 171.841 165.938, 171.898 165.250 C 171.954 164.563, 172.563 164.015, 173.250 164.033 C 173.938 164.052, 173.438 164.952, 172.139 166.033 C 170.841 167.115, 170.348 168, 171.044 168 C 171.927 168, 171.814 168.548, 170.669 169.814 C 169.501 171.103, 169.337 171.937, 170.099 172.699 C 170.861 173.461, 170.691 174.697, 169.511 176.978 C 168.599 178.742, 167.620 179.953, 167.335 179.668 C 166.555 178.888, 167.998 175, 169.067 175 C 169.580 175, 170 174.546, 170 173.992 C 170 173.386, 169.219 173.471, 168.045 174.204 C 166.970 174.875, 166.292 175.625, 166.537 175.870 C 166.782 176.115, 166.486 176.914, 165.879 177.645 C 165.273 178.376, 165.027 179.627, 165.333 180.425 C 165.655 181.264, 165.175 182.094, 164.195 182.396 C 163.263 182.682, 163.996 182.784, 165.824 182.621 C 168.766 182.359, 169.084 182.565, 168.588 184.412 C 168.280 185.561, 167.990 187.850, 167.943 189.500 C 167.872 192.056, 167.737 192.204, 167.034 190.500 C 166.289 188.695, 166.056 188.841, 164.643 192 C 163.783 193.925, 163.026 195.275, 162.963 195 C 162.297 192.122, 162.310 191.074, 163.006 191.504 C 163.463 191.786, 164.155 190.551, 164.544 188.759 C 164.933 186.966, 165.752 185.182, 166.363 184.794 C 166.974 184.406, 166.468 184.164, 165.237 184.257 C 163.838 184.362, 163 185.081, 163 186.174 C 163 188.700, 158.970 192.125, 156.805 191.438 C 155.812 191.123, 155 191.346, 155 191.933 C 155 193.680, 153.184 193.143, 152.689 191.250 C 152.405 190.161, 152.188 190.528, 152.116 192.220 C 152.040 193.999, 150.962 195.708, 149 197.158 C 147.350 198.378, 146 200.015, 146 200.795 C 146 201.601, 145.395 201.982, 144.599 201.676 C 143.757 201.353, 142.989 201.933, 142.677 203.126 C 142.248 204.767, 142.410 204.905, 143.602 203.916 C 144.778 202.939, 144.929 203.021, 144.416 204.359 C 144 205.442, 144.309 206, 145.326 206 C 146.172 206, 147.135 205.149, 147.466 204.108 C 147.796 203.067, 148.944 201.987, 150.016 201.706 C 151.624 201.285, 151.800 201.506, 151.018 202.967 C 150.497 203.940, 150.290 204.957, 150.559 205.226 C 150.828 205.495, 150.440 206.220, 149.696 206.837 C 148.752 207.621, 147.315 207.664, 144.929 206.980 C 140.503 205.710, 139 205.743, 139 207.107 C 139 207.716, 139.708 207.942, 140.573 207.610 C 141.669 207.190, 142.048 207.511, 141.823 208.671 C 141.328 211.222, 139.445 211.313, 138.341 208.839 C 137.724 207.455, 137.094 207.038, 136.667 207.730 C 136.290 208.340, 136.689 209.547, 137.555 210.412 C 139.439 212.296, 138.644 214, 135.882 214 C 134.782 214, 134.160 214.450, 134.500 215 C 135.282 216.266, 133.958 216.266, 132 215 C 130.698 214.159, 130.717 214.029, 132.143 214.015 C 133.477 214.003, 135 212.131, 135 210.504 C 135 210.321, 132.214 211.521, 128.808 213.171 C 124.941 215.044, 121.571 216.017, 119.832 215.762 C 118.301 215.537, 116.896 215.812, 116.709 216.372 C 116.498 217.006, 114.144 216.690, 110.471 215.535 C 104.306 213.596, 103.599 213.186, 98.889 208.827 C 97.300 207.357, 95.971 206.682, 95.937 207.327 C 95.902 207.972, 95.466 207.488, 94.969 206.250 C 94.453 204.968, 93.204 204, 92.064 204 C 90.686 204, 90.244 203.527, 90.645 202.483 C 91 201.559, 90.206 200.163, 88.613 198.911 C 87.176 197.780, 86 196.213, 86 195.427 C 86 194.642, 85.550 194, 85 194 C 84.450 194, 84 193.114, 84 192.031 C 84 190.664, 83.527 190.244, 82.449 190.658 C 81.170 191.149, 81.036 190.749, 81.685 188.376 C 82.736 184.535, 82.399 179.186, 81 177.500 C 79.191 175.321, 75.796 176.031, 76.378 178.467 C 77.631 183.712, 77.975 187.592, 77.271 188.545 C 75.132 191.442, 68.648 194, 63.443 194 C 60.449 194, 58 194.450, 58 195 C 58 195.550, 55.978 196, 53.507 196 C 51.035 196, 43.273 197.075, 36.257 198.388 C 29.240 199.702, 18.693 201.231, 12.817 201.788 C 6.941 202.344, 1.654 203.096, 1.067 203.459 C 0.335 203.911, 0 219.170, 0 252.059 L 0 300 30.409 300 L 60.818 300 62.069 293 C 62.757 289.150, 63.640 286, 64.031 286 C 64.422 286, 65.055 283.642, 65.437 280.760 C 65.820 277.878, 67.409 270.116, 68.968 263.510 C 72.581 248.212, 72.867 246.403, 71.919 244.869 C 71.490 244.175, 71.522 242.893, 71.989 242.020 C 72.522 241.024, 72.136 238.395, 70.952 234.966 C 67.108 223.830, 68.788 211.635, 76.535 194.435 C 78.768 189.477, 79.333 188.829, 79.969 190.500 C 80.388 191.600, 80.339 193.625, 79.860 195 C 79.011 197.434, 79.031 197.447, 80.619 195.500 C 82.211 193.548, 82.232 193.560, 81.495 196 C 81.080 197.375, 80.686 200.595, 80.620 203.155 C 80.554 205.715, 80.118 207.573, 79.650 207.284 C 79.183 206.995, 79.233 207.600, 79.763 208.629 C 80.403 209.874, 80.243 213.784, 79.285 220.308 C 77.642 231.503, 78.266 233.550, 84.259 236.616 C 87.495 238.271, 87.497 238.270, 85.685 236.236 C 83.439 233.715, 85.013 232.404, 88.229 234.117 C 90.284 235.212, 90.371 235.171, 89.138 233.677 C 87.894 232.168, 88.065 232.123, 91.138 233.158 C 92.987 233.781, 94.950 234.613, 95.500 235.007 C 97.381 236.356, 101.877 237.009, 102.487 236.021 C 102.822 235.479, 101.321 234.267, 99.153 233.327 C 96.897 232.350, 95.409 231.097, 95.677 230.400 C 96.109 229.272, 92.463 227.349, 90.750 227.802 C 90.338 227.911, 89.997 227.212, 89.993 226.250 C 89.990 225.287, 89.093 223.150, 88 221.500 C 85.380 217.544, 85.432 216.008, 88.073 219.365 C 89.212 220.814, 90.755 222, 91.500 222 C 92.245 222, 93.698 223.072, 94.729 224.383 C 95.760 225.693, 98.911 227.935, 101.732 229.364 C 104.553 230.794, 107.482 232.850, 108.242 233.935 C 110.413 237.034, 114.539 238.052, 123.345 237.659 C 129.339 237.391, 132.957 236.632, 137 234.792 C 140.025 233.416, 144.300 231.716, 146.500 231.014 C 148.700 230.313, 150.950 229.388, 151.500 228.959 C 152.050 228.530, 154.260 227.850, 156.411 227.448 C 159.792 226.816, 160.237 226.939, 159.693 228.358 C 159.346 229.261, 159.299 230, 159.587 230 C 160.718 230, 165.005 219.121, 166.294 212.983 C 167.042 209.418, 168.935 204.475, 170.501 202 C 172.958 198.116, 173.331 196.572, 173.224 190.722 C 173.138 185.996, 173.436 184.152, 174.208 184.629 C 174.964 185.096, 175.094 184.551, 174.619 182.906 C 174.236 181.583, 173.683 178.925, 173.391 177 C 172.890 173.704, 172.950 173.612, 174.417 175.424 C 175.274 176.482, 176.255 178.844, 176.599 180.674 C 176.942 182.503, 177.623 184, 178.111 184 C 179.184 184, 179.318 199.692, 178.250 200.167 C 177.838 200.350, 176.539 204.325, 175.365 209 C 173.490 216.466, 173.330 218.839, 174.054 228.500 C 174.508 234.550, 175.410 249.400, 176.059 261.500 C 176.709 273.600, 177.636 283.650, 178.120 283.833 C 178.604 284.017, 179 287.733, 179 292.091 L 179 300.015 239.750 299.758 L 300.500 299.500 300.562 251 C 300.596 224.325, 300.461 205.352, 300.262 208.838 C 299.948 214.334, 299.674 215.084, 298.200 214.484 C 297.265 214.103, 295.375 213.437, 294 213.004 C 292.625 212.570, 288.426 210.820, 284.670 209.114 L 277.840 206.012 278.517 199.685 C 279.163 193.653, 279.075 193.279, 276.633 191.679 C 274.901 190.545, 271.974 190, 267.608 190 C 260.892 190, 260.047 190.493, 256.487 196.489 C 255.577 198.022, 254.848 198.071, 249.257 196.971 C 245.836 196.298, 243.247 195.409, 243.503 194.995 C 244.212 193.847, 238.855 193.040, 223.500 191.982 C 200.981 190.430, 193.222 188.782, 185.485 183.910 C 180.048 180.487, 178.417 178.953, 175.675 174.683 C 174.067 172.179, 173.988 171.072, 174.964 164.683 C 175.567 160.733, 176.288 156.760, 176.564 155.855 C 176.841 154.951, 176.487 153.601, 175.778 152.855 C 174.146 151.140, 173.675 145.275, 175.300 146.900 C 176.963 148.563, 178.426 148.219, 177 146.500 C 175.980 145.271, 176.049 145, 177.378 145 C 178.270 145, 179 144.325, 179 143.500 C 179 141.312, 175.849 141.775, 173.250 144.346 M 103.525 145.080 C 103.918 146.318, 105.585 148.463, 107.230 149.847 C 108.875 151.231, 110.814 152.956, 111.539 153.682 C 113.410 155.553, 117.340 155.314, 121.193 153.095 C 123.012 152.047, 126.412 150.883, 128.750 150.507 C 131.088 150.131, 133.006 149.526, 133.014 149.162 C 133.021 148.798, 133.324 147.375, 133.687 146 C 134.277 143.763, 134.172 143.643, 132.687 144.861 C 131.727 145.648, 129.576 146.053, 127.584 145.820 C 125.690 145.599, 124.360 145.774, 124.629 146.209 C 124.898 146.644, 124.281 147, 123.259 147 C 122.237 147, 120.845 147.555, 120.166 148.234 C 118.003 150.397, 112.727 150.035, 110 147.536 C 108.625 146.275, 106.445 144.701, 105.155 144.036 C 102.976 142.913, 102.861 142.987, 103.525 145.080 M 65 145.941 C 65 146.459, 65.445 147.157, 65.989 147.493 C 66.555 147.843, 66.723 147.442, 66.382 146.552 C 65.717 144.820, 65 144.503, 65 145.941 M 74.079 146.583 C 74.127 147.748, 74.364 147.985, 74.683 147.188 C 74.972 146.466, 74.936 145.603, 74.604 145.271 C 74.272 144.939, 74.036 145.529, 74.079 146.583 M 68.250 149.250 C 68.478 149.938, 69.514 150.664, 70.551 150.865 C 72.182 151.181, 72.256 151.013, 71.096 149.615 C 69.510 147.704, 67.656 147.466, 68.250 149.250 M 179.661 151.441 C 178.707 153.928, 178.757 154, 181.441 154 C 182.784 154, 184.196 153.492, 184.580 152.870 C 185.004 152.184, 184.733 151.924, 183.889 152.208 C 183.125 152.465, 182.010 152.010, 181.411 151.197 C 180.466 149.916, 180.234 149.948, 179.661 151.441 M 74.543 152.931 C 74.226 153.443, 74.378 154.115, 74.879 154.425 C 75.380 154.735, 76.048 154.316, 76.364 153.494 C 76.986 151.874, 75.483 151.409, 74.543 152.931 M 170.543 152.931 C 170.226 153.443, 170.425 154.144, 170.984 154.490 C 171.543 154.835, 172 154.416, 172 153.559 C 172 151.802, 171.400 151.544, 170.543 152.931 M 203 153.559 C 203 154.416, 203.457 154.835, 204.016 154.490 C 204.575 154.144, 204.774 153.443, 204.457 152.931 C 203.600 151.544, 203 151.802, 203 153.559 M 165 154 C 165 154.550, 165.702 155, 166.559 155 C 167.416 155, 167.840 154.550, 167.500 154 C 167.160 153.450, 166.459 153, 165.941 153 C 165.423 153, 165 153.450, 165 154 M 218.580 155.535 C 217.850 158.444, 214.008 160.279, 209.976 159.644 C 208.486 159.409, 206.731 159.548, 206.076 159.953 C 204.392 160.994, 205.821 165.963, 207.858 166.152 C 208.761 166.236, 210.169 166.349, 210.987 166.404 C 211.804 166.459, 212.625 167.290, 212.810 168.252 C 212.995 169.213, 213.532 170, 214.002 170 C 214.472 170, 215.564 170.707, 216.429 171.571 C 217.297 172.440, 218 172.648, 218 172.036 C 218 171.311, 218.602 171.235, 219.750 171.818 C 220.713 172.307, 224.313 172.804, 227.750 172.924 L 234 173.141 233.832 162.821 C 233.739 157.144, 233.484 154.300, 233.265 156.500 C 232.783 161.336, 231.291 163.237, 229.906 160.782 C 229.006 159.188, 228.788 159.212, 226.881 161.119 C 225.440 162.560, 225.009 163.900, 225.438 165.609 C 225.879 167.367, 225.573 168.227, 224.335 168.702 C 223.348 169.081, 222.447 168.841, 222.213 168.138 C 221.896 167.187, 221.486 167.182, 220.360 168.116 C 218.578 169.595, 217.285 168.407, 216.848 164.889 C 216.495 162.038, 218.442 159, 220.622 159 C 222.255 159, 222.450 157.396, 220.932 156.458 C 220.344 156.095, 220.105 155.168, 220.400 154.399 C 220.696 153.629, 220.550 153, 220.077 153 C 219.604 153, 218.930 154.141, 218.580 155.535 M 72.079 156.583 C 72.127 157.748, 72.364 157.985, 72.683 157.188 C 72.972 156.466, 72.936 155.603, 72.604 155.271 C 72.272 154.939, 72.036 155.529, 72.079 156.583 M 227.500 157 C 227.840 157.550, 228.316 158, 228.559 158 C 228.802 158, 229 157.550, 229 157 C 229 156.450, 228.523 156, 227.941 156 C 227.359 156, 227.160 156.450, 227.500 157 M 240.733 157.124 C 241.412 157.808, 242.219 158.115, 242.526 157.807 C 242.834 157.499, 242.279 156.940, 241.293 156.564 C 239.868 156.022, 239.753 156.136, 240.733 157.124 M 75.079 158.583 C 75.127 159.748, 75.364 159.985, 75.683 159.188 C 75.972 158.466, 75.936 157.603, 75.604 157.271 C 75.272 156.939, 75.036 157.529, 75.079 158.583 M 242.195 162.500 C 242.215 164.150, 242.439 164.704, 242.693 163.731 C 242.947 162.758, 242.930 161.408, 242.656 160.731 C 242.382 160.054, 242.175 160.850, 242.195 162.500 M 99.609 165.666 C 98.174 167.213, 97 168.776, 97 169.139 C 97 170.091, 105.928 170.662, 107.324 169.800 C 108.003 169.380, 108.787 169.797, 109.179 170.787 C 109.814 172.385, 109.864 172.383, 109.930 170.750 C 110.010 168.750, 111.097 168.497, 112.705 170.105 C 113.763 171.163, 119.969 171.741, 132.179 171.918 C 135.799 171.970, 138.401 172.544, 139.357 173.500 C 141.849 175.992, 142.269 175.187, 140.081 172.114 C 137.857 168.990, 131.606 166.009, 127.230 165.985 C 125.281 165.974, 124.895 165.719, 125.881 165.095 C 127.639 163.981, 122.584 163.289, 110.859 163.038 C 102.562 162.859, 102.114 162.964, 99.609 165.666 M 120.500 165 C 120.840 165.550, 121.316 166, 121.559 166 C 121.802 166, 122 165.550, 122 165 C 122 164.450, 121.523 164, 120.941 164 C 120.359 164, 120.160 164.450, 120.500 165 M 59.667 166.667 C 59.300 167.033, 59 167.798, 59 168.367 C 59 168.993, 59.466 168.934, 60.183 168.217 C 60.834 167.566, 61.134 166.801, 60.850 166.517 C 60.566 166.232, 60.033 166.300, 59.667 166.667 M 244.500 167 C 244.840 167.550, 245.568 168, 246.118 168 C 246.668 168, 246.840 167.550, 246.500 167 C 246.160 166.450, 245.432 166, 244.882 166 C 244.332 166, 244.160 166.450, 244.500 167 M 74 168 C 74 168.550, 74.477 169, 75.059 169 C 75.641 169, 75.840 168.550, 75.500 168 C 75.160 167.450, 74.684 167, 74.441 167 C 74.198 167, 74 167.450, 74 168 M 120.813 169.683 C 121.534 169.972, 122.397 169.936, 122.729 169.604 C 123.061 169.272, 122.471 169.036, 121.417 169.079 C 120.252 169.127, 120.015 169.364, 120.813 169.683 M 75.116 172.750 C 75.027 174.482, 75.518 174.973, 77.250 174.884 C 78.844 174.802, 79.008 174.638, 77.811 174.323 C 76.883 174.077, 75.923 173.117, 75.677 172.189 C 75.362 170.992, 75.198 171.156, 75.116 172.750 M 162 171.941 C 162 172.459, 162.445 173.157, 162.989 173.493 C 163.555 173.843, 163.723 173.442, 163.382 172.552 C 162.717 170.820, 162 170.503, 162 171.941 M 273.079 173.583 C 273.127 174.748, 273.364 174.985, 273.683 174.188 C 273.972 173.466, 273.936 172.603, 273.604 172.271 C 273.272 171.939, 273.036 172.529, 273.079 173.583 M 78 178.059 C 78 178.641, 78.450 178.840, 79 178.500 C 79.550 178.160, 80 177.684, 80 177.441 C 80 177.198, 79.550 177, 79 177 C 78.450 177, 78 177.477, 78 178.059 M 114.721 180.286 C 114.433 181.035, 114.966 181.571, 116 181.571 C 117.034 181.571, 117.567 181.035, 117.279 180.286 C 117.008 179.579, 116.432 179, 116 179 C 115.568 179, 114.992 179.579, 114.721 180.286 M 171.667 179.667 C 171.300 180.033, 171.014 181.046, 171.030 181.917 C 171.055 183.217, 171.251 183.174, 172.122 181.675 C 173.199 179.823, 172.887 178.447, 171.667 179.667 M 158 184 C 158 185.867, 158.267 186.133, 159.200 185.200 C 160.133 184.267, 160.133 183.733, 159.200 182.800 C 158.267 181.867, 158 182.133, 158 184 M 169.583 186.866 C 169.152 187.563, 169.070 188.403, 169.400 188.733 C 170.295 189.628, 171.271 188.312, 170.787 186.862 C 170.449 185.846, 170.213 185.846, 169.583 186.866 M 155.842 188.602 C 157.100 189.483, 158.400 189.933, 158.731 189.602 C 159.062 189.271, 158.782 189, 158.108 189 C 157.434 189, 157.160 188.550, 157.500 188 C 157.843 187.445, 157.103 187, 155.837 187 L 153.555 187 155.842 188.602 M 251.510 191.016 C 251.856 191.575, 252.557 191.774, 253.069 191.457 C 254.456 190.600, 254.198 190, 252.441 190 C 251.584 190, 251.165 190.457, 251.510 191.016 M 158.500 193 C 157.505 194.100, 157.194 195, 157.810 195 C 158.426 195, 159.411 194.100, 160 193 C 160.589 191.900, 160.899 191, 160.690 191 C 160.481 191, 159.495 191.900, 158.500 193 M 263.813 196.683 C 264.534 196.972, 265.397 196.936, 265.729 196.604 C 266.061 196.272, 265.471 196.036, 264.417 196.079 C 263.252 196.127, 263.015 196.364, 263.813 196.683 M 275 197.531 C 275 198.339, 275.675 199, 276.500 199 C 277.325 199, 278 198.598, 278 198.107 C 278 197.616, 277.325 196.955, 276.500 196.638 C 275.586 196.288, 275 196.637, 275 197.531 M 165.863 202.193 C 164.563 203.949, 161.813 207.152, 159.750 209.310 C 157.688 211.469, 156 213.577, 156 213.995 C 156 214.413, 155.325 215.315, 154.500 216 C 153.675 216.685, 153.036 217.752, 153.079 218.372 C 153.129 219.081, 153.345 219.035, 153.662 218.250 C 154.520 216.124, 156.867 216.793, 156.290 219 C 155.642 221.478, 156.466 221.547, 158.750 219.206 C 161.039 216.860, 167 205.552, 167 203.555 C 167 202.700, 167.375 202, 167.833 202 C 168.292 202, 168.667 201.325, 168.667 200.500 C 168.667 198.474, 168.571 198.532, 165.863 202.193 M 259.813 199.683 C 260.534 199.972, 261.397 199.936, 261.729 199.604 C 262.061 199.272, 261.471 199.036, 260.417 199.079 C 259.252 199.127, 259.015 199.364, 259.813 199.683 M 76.207 205.081 C 74.992 209.869, 75.845 209.493, 77.567 204.481 C 78.226 202.567, 78.422 201, 78.004 201 C 77.586 201, 76.777 202.836, 76.207 205.081 M 0.463 252 C 0.463 278.675, 0.592 289.587, 0.749 276.250 C 0.907 262.913, 0.907 241.088, 0.749 227.750 C 0.592 214.412, 0.463 225.325, 0.463 252 M 77.079 213.583 C 77.127 214.748, 77.364 214.985, 77.683 214.188 C 77.972 213.466, 77.936 212.603, 77.604 212.271 C 77.272 211.939, 77.036 212.529, 77.079 213.583 M 152.964 222.164 C 151.819 224.397, 151.846 224.424, 153.574 222.774 C 154.568 221.824, 155.107 220.773, 154.771 220.438 C 154.436 220.103, 153.623 220.880, 152.964 222.164 M 154.222 224.526 C 153.519 225.324, 151.719 226.239, 150.222 226.559 C 148.725 226.880, 146.600 227.549, 145.500 228.045 C 143.452 228.969, 144.878 228.842, 151.316 227.527 C 154.057 226.967, 159.019 222.981, 156.903 223.038 C 156.131 223.059, 154.925 223.729, 154.222 224.526 M 77 249.441 C 77 250.298, 77.450 251, 78 251 C 78.550 251, 79 250.577, 79 250.059 C 79 249.541, 78.550 248.840, 78 248.500 C 77.450 248.160, 77 248.584, 77 249.441" stroke="none" fill="#3467df" fill-rule="evenodd"/>
</svg>