<svg xmlns="http://www.w3.org/2000/svg" width="60" height="60" viewBox="0 0 60 60" version="1.1">
	<rect x="0" y="0" width="100%" height="100%" fill="#bfbfbf" />
	<path d="M 0.186 3.145 C -0.025 5.909, 0.137 6.131, 1.528 4.977 C 2.398 4.255, 3.550 2.840, 4.090 1.832 C 4.910 0.300, 4.690 0, 2.748 0 C 0.861 0, 0.380 0.590, 0.186 3.145 M 33.529 1.554 C 32.444 2.374, 31.015 2.836, 30.352 2.582 C 29.689 2.327, 28.611 2.763, 27.958 3.551 C 26.952 4.763, 27.411 4.921, 30.951 4.580 C 34.478 4.240, 35.663 4.643, 38.518 7.150 C 40.381 8.785, 42.178 10.986, 42.513 12.041 C 42.848 13.096, 43.601 13.856, 44.186 13.730 C 44.771 13.603, 45.456 14.063, 45.709 14.751 C 46.002 15.552, 45.598 15.783, 44.584 15.394 C 43.325 14.911, 43 15.504, 43 18.287 L 43 21.787 39.075 20.905 C 34.198 19.810, 26.371 21.194, 21.847 23.952 C 17.444 26.636, 17.200 26.567, 17.621 22.750 C 17.876 20.446, 17.708 19.929, 17.044 20.972 C 16.255 22.213, 15.992 22.143, 15.372 20.527 C 14.967 19.472, 14.626 16.897, 14.614 14.805 C 14.602 12.712, 14.207 11, 13.737 11 C 13.267 11, 13.131 11.403, 13.435 11.895 C 14.058 12.903, 11.239 14.266, 10.050 13.531 C 9.627 13.270, 8.089 14.393, 6.633 16.028 C 5.155 17.687, 4.540 19.003, 5.242 19.008 C 6.539 19.016, 9 23.397, 9 25.699 C 9 26.415, 8.550 27, 8 27 C 7.450 27, 7 27.723, 7 28.607 C 7 29.625, 6.450 30.003, 5.500 29.638 C 4.675 29.322, 4 29.499, 4 30.031 C 4 30.564, 4.563 31.007, 5.250 31.015 C 6.205 31.027, 6.191 31.227, 5.192 31.860 C 4.342 32.399, 4.117 33.619, 4.550 35.345 C 4.968 37.010, 4.808 38, 4.120 38 C 3.516 38, 3.116 39.125, 3.229 40.500 C 3.343 41.875, 3.977 43, 4.639 43 C 5.300 43, 6.138 44.350, 6.500 46 C 7.140 48.915, 7.941 49.460, 10.946 49.030 C 12.156 48.856, 12.177 49.082, 11.074 50.411 C 10.349 51.285, 10.090 52, 10.500 52 C 10.910 52, 10.685 52.675, 10 53.500 C 8.539 55.260, 10.057 55.543, 11.770 53.830 C 12.662 52.938, 13.168 53.234, 13.906 55.080 C 14.863 57.476, 14.874 57.477, 14.937 55.250 C 15.019 52.312, 16.995 52.312, 17.015 55.250 C 17.028 57.115, 17.213 57.244, 18.096 56 C 18.917 54.845, 19.024 55.132, 18.562 57.250 L 17.962 60 30.071 60 C 41.411 60, 42.297 59.857, 44.038 57.750 L 45.896 55.500 45.301 58 C 44.953 59.456, 45.079 60.152, 45.602 59.666 C 46.681 58.663, 46.824 47.991, 45.750 48.655 C 45.337 48.910, 45 49.711, 45 50.437 C 45 51.162, 44.325 52.315, 43.500 53 C 42.511 53.821, 42 53.874, 42 53.154 C 42 52.554, 41.325 52.322, 40.500 52.638 C 39.496 53.024, 39.005 52.600, 39.015 51.357 C 39.028 49.878, 39.213 49.787, 39.925 50.912 C 40.616 52.005, 40.921 51.779, 41.273 49.912 C 41.727 47.506, 41.728 47.505, 41.864 49.809 C 42.060 53.133, 44 51.447, 44 47.952 C 44 45.544, 44.400 45.044, 46.250 45.147 C 47.487 45.215, 49.288 44.937, 50.250 44.528 C 51.310 44.079, 52 44.223, 52 44.893 C 52 45.502, 52.845 46, 53.878 46 C 54.911 46, 56.437 47.013, 57.269 48.250 C 58.101 49.488, 58.992 50.275, 59.249 50 C 60.215 48.967, 60.864 41.966, 59.941 42.537 C 59.423 42.856, 59 42.416, 59 41.559 C 59 40.667, 58.145 40, 57 40 C 54.716 40, 54.439 38.961, 56.242 37.158 C 57.230 36.170, 57.180 35.728, 55.992 34.990 C 55.062 34.413, 54.374 34.429, 54.167 35.032 C 53.640 36.561, 52 36.159, 52 34.500 C 52 33.675, 52.477 33, 53.059 33 C 53.641 33, 53.857 32.577, 53.537 32.060 C 53.218 31.543, 53.573 30.544, 54.327 29.839 C 55.864 28.403, 55.379 25.008, 53.633 24.985 C 52.935 24.975, 53.008 24.647, 53.824 24.130 C 54.919 23.436, 54.912 23.049, 53.788 21.895 C 52.238 20.305, 51.672 16, 53.012 16 C 53.501 16, 54.306 16.724, 54.801 17.609 C 55.602 19.041, 55.767 19.048, 56.294 17.676 C 56.723 16.558, 56.009 15.926, 53.693 15.376 C 51.937 14.960, 50.116 14.720, 49.647 14.844 C 49.177 14.968, 47.715 13.905, 46.397 12.483 C 45.078 11.061, 43.992 10.258, 43.983 10.698 C 43.974 11.139, 43.030 10.037, 41.885 8.250 C 40.740 6.462, 39.510 4.986, 39.152 4.968 C 38.793 4.951, 37.602 4.258, 36.505 3.429 C 34.793 2.135, 34.722 1.787, 36.005 0.976 C 36.827 0.456, 37.050 0.038, 36.500 0.047 C 35.950 0.056, 34.613 0.734, 33.529 1.554 M 54.566 0.898 C 53.237 1.418, 53.003 1.884, 53.816 2.387 C 54.467 2.789, 55.437 2.848, 55.971 2.518 C 56.943 1.917, 57.706 4.128, 58.283 9.212 C 58.910 14.736, 60 13.119, 60 6.667 C 60 -0.422, 59.444 -1.012, 54.566 0.898 M 20.461 2.240 C 20.106 3.166, 18.957 4.196, 17.908 4.529 C 16.858 4.862, 16 5.849, 16 6.722 C 16 8.148, 16.187 8.141, 17.829 6.655 C 18.835 5.745, 20.410 5, 21.329 5 C 23.209 5, 23.403 4.186, 22.038 2.028 C 21.238 0.762, 21.017 0.792, 20.461 2.240 M 43.525 6.960 C 42.677 8.332, 43.428 9.362, 44.905 8.854 C 45.511 8.646, 45.588 7.940, 45.093 7.143 C 44.468 6.137, 44.063 6.090, 43.525 6.960 M 47 16.393 C 47 16.609, 47.698 17.054, 48.552 17.382 C 49.442 17.723, 49.843 17.555, 49.493 16.989 C 48.906 16.038, 47 15.583, 47 16.393 M 31.613 30.165 C 32.217 35.175, 32.392 35.447, 34.492 34.642 C 35.923 34.092, 35.926 33.757, 34.515 31.028 C 33.659 29.374, 33.002 27.690, 33.055 27.285 C 33.107 26.881, 32.688 26.396, 32.122 26.207 C 31.474 25.991, 31.286 27.451, 31.613 30.165 M 43.079 30.583 C 43.127 31.748, 43.364 31.985, 43.683 31.188 C 43.972 30.466, 43.936 29.603, 43.604 29.271 C 43.272 28.939, 43.036 29.529, 43.079 30.583 M 58.638 35.500 C 58.955 36.325, 59.391 37, 59.607 37 C 59.823 37, 60 36.325, 60 35.500 C 60 34.675, 59.564 34, 59.031 34 C 58.499 34, 58.322 34.675, 58.638 35.500 M 51 38 C 51 38.550, 51.477 39, 52.059 39 C 52.641 39, 52.840 38.550, 52.500 38 C 52.160 37.450, 51.684 37, 51.441 37 C 51.198 37, 51 37.450, 51 38 M 35.500 55 C 33.870 55.701, 33.812 55.872, 35.191 55.930 C 36.121 55.968, 37.160 55.550, 37.500 55 C 38.211 53.850, 38.176 53.850, 35.500 55 M 1 56.059 C 1 56.641, 1.450 56.840, 2 56.500 C 2.550 56.160, 3 55.684, 3 55.441 C 3 55.198, 2.550 55, 2 55 C 1.450 55, 1 55.477, 1 56.059" stroke="none" fill="#3467df" fill-rule="evenodd"/>
</svg>