<svg xmlns="http://www.w3.org/2000/svg" width="60" height="60" viewBox="0 0 60 60" version="1.1">
	<rect x="0" y="0" width="100%" height="100%" fill="#bfbfbf" />
	<path d="M -0 29.989 L 0 60 10 60 C 15.500 60, 20 59.703, 20 59.341 C 20 58.978, 18.185 56.278, 15.968 53.341 C 13.750 50.403, 12.148 48, 12.409 48 C 12.670 48, 14.994 50.743, 17.574 54.096 C 20.652 58.096, 22.519 59.778, 23.007 58.989 C 23.539 58.128, 23.944 58.101, 24.434 58.893 C 25.134 60.025, 35.196 60.471, 36.250 59.417 C 36.571 59.096, 35.954 57.954, 34.880 56.880 C 33.806 55.806, 33.195 54.493, 33.523 53.964 C 34.742 51.990, 32.055 53.083, 30.608 55.149 C 29.165 57.210, 28.998 57.229, 26.520 55.605 C 24.211 54.092, 23.781 51.129, 26.076 52.547 C 26.592 52.866, 27.284 52.423, 27.614 51.563 C 27.967 50.644, 29.406 50, 31.107 50 C 34.149 50, 34.904 48.304, 32.800 46.200 C 31.867 45.267, 31.894 45, 32.922 45 C 33.947 45, 33.982 44.683, 33.074 43.589 C 32.353 42.721, 32.273 41.949, 32.866 41.583 C 33.396 41.255, 34.057 41.553, 34.336 42.244 C 34.614 42.935, 34.878 42.525, 34.921 41.333 C 34.964 40.142, 34.549 39.016, 33.998 38.833 C 33.341 38.614, 33.374 37.297, 34.096 34.999 C 36.143 28.487, 35.030 21, 32.014 21 C 29.490 21, 27 19.969, 27 18.924 C 27 18.451, 27.727 18.342, 28.616 18.683 C 29.948 19.194, 30.051 18.964, 29.201 17.376 C 28.526 16.114, 28.504 14.850, 29.139 13.716 C 29.672 12.764, 29.903 11.650, 29.651 11.242 C 29.400 10.834, 31.738 10.533, 34.847 10.573 C 39.195 10.629, 41.337 10.098, 44.126 8.272 C 46.576 6.668, 48.684 6.050, 50.626 6.367 C 52.207 6.625, 53.837 6.873, 54.250 6.918 C 54.663 6.963, 55 7.498, 55 8.107 C 55 8.716, 54.336 8.959, 53.525 8.648 C 52.302 8.179, 52.157 8.888, 52.679 12.791 C 53.024 15.381, 53.629 17.725, 54.021 18 C 54.963 18.660, 51.557 35.274, 49.305 41 C 47.581 45.385, 46.739 49.595, 47.797 48.536 C 48.087 48.246, 49.770 50.154, 51.536 52.777 C 55.483 58.638, 57.521 60.398, 59.487 59.643 C 60.790 59.143, 61 54.976, 61 29.588 L 61 0.113 30.500 0.046 L -0 -0.022 -0 29.989 M 0.443 30.500 C 0.443 47, 0.580 53.890, 0.748 45.812 C 0.915 37.733, 0.916 24.233, 0.748 15.812 C 0.581 7.390, 0.444 14, 0.443 30.500 M 39.315 23.490 C 37.611 25.340, 38.848 29, 41.176 29 C 42.244 29, 42.871 28.601, 42.570 28.113 C 41.682 26.677, 44.585 24.907, 46.623 25.642 C 49.782 26.781, 47.619 25.156, 43.949 23.633 C 41.140 22.468, 40.280 22.441, 39.315 23.490 M 26.500 25 C 26.160 25.550, 26.332 26, 26.882 26 C 27.432 26, 28.160 25.550, 28.500 25 C 28.840 24.450, 28.668 24, 28.118 24 C 27.568 24, 26.840 24.450, 26.500 25 M 40.032 37.128 C 40.014 38.023, 40.675 39.315, 41.500 40 C 43.423 41.596, 43.443 39.968, 41.532 37.441 C 40.298 35.810, 40.059 35.760, 40.032 37.128 M 39.500 45 C 39.840 45.550, 40.316 46, 40.559 46 C 40.802 46, 41 45.550, 41 45 C 41 44.450, 40.523 44, 39.941 44 C 39.359 44, 39.160 44.450, 39.500 45 M 54.104 49.158 C 54.987 49.900, 56.017 51.478, 56.393 52.664 C 56.770 53.849, 57.773 55.397, 58.624 56.103 C 59.963 57.214, 60.125 57.019, 59.835 54.643 C 59.604 52.755, 58.410 51.263, 56 49.855 C 54.075 48.729, 53.222 48.416, 54.104 49.158 M 42.257 53.250 C 41.713 53.938, 41.045 55.737, 40.773 57.250 C 40.378 59.443, 40.655 60, 42.139 60 C 43.644 60, 44 59.234, 44 56 C 44 51.684, 43.775 51.329, 42.257 53.250 M 51.362 57.530 C 51.988 58.880, 53.063 59.988, 53.750 59.992 C 55.669 60.004, 55.186 58.681, 52.580 56.788 C 50.241 55.088, 50.232 55.094, 51.362 57.530" stroke="none" fill="#3467df" fill-rule="evenodd"/>
</svg>