<svg xmlns="http://www.w3.org/2000/svg" width="60" height="60" viewBox="0 0 60 60" version="1.1">
	<rect x="0" y="0" width="100%" height="100%" fill="#bfbfbf" />
	<path d="M 13.732 1.915 C 13.457 2.969, 12.179 3.981, 10.894 4.165 C 9.029 4.432, 8.386 5.360, 7.719 8.750 C 7.138 11.700, 6.365 13.019, 5.191 13.063 C 3.966 13.109, 4.120 13.376, 5.750 14.031 C 6.988 14.529, 8.037 15.738, 8.083 16.718 C 8.232 19.899, 8.651 22.454, 9.400 24.750 C 9.998 26.580, 9.760 27, 8.126 27 C 7.022 27, 5.827 27.472, 5.470 28.048 C 5.114 28.624, 3.850 28.962, 2.661 28.798 C 0.571 28.510, 0.491 28.869, 0.218 39.676 C -0.059 50.648, -0.022 50.858, 2.218 51.176 C 5.249 51.606, 5.280 54.583, 2.250 54.262 C 0.617 54.089, 0 54.549, 0 55.939 C -0 57.720, 0.406 57.655, 5.750 55.016 C 8.912 53.454, 12.175 51.915, 13 51.595 C 13.825 51.275, 15.226 50.488, 16.114 49.847 C 17.002 49.206, 18.500 48.978, 19.444 49.340 C 20.765 49.847, 21.008 50.688, 20.500 52.998 C 19.956 55.479, 20.117 55.892, 21.433 55.387 C 22.309 55.051, 23.695 55.332, 24.513 56.011 C 25.727 57.018, 26 56.943, 26 55.601 C 26 54.697, 27.125 53.445, 28.500 52.818 C 29.875 52.192, 31 51.301, 31 50.839 C 31 50.378, 31.007 49.663, 31.015 49.250 C 31.023 48.837, 32.486 48.003, 34.265 47.395 L 37.500 46.290 33.255 45.558 C 27.328 44.536, 27.153 43.342, 32.945 43.428 C 36.443 43.480, 38.412 42.945, 40.039 41.500 L 42.291 39.500 41.769 42.328 C 41.045 46.255, 44.841 50, 49.545 50 C 51.445 50, 53 49.550, 53 49 C 53 47.659, 56.627 47.730, 59.228 49.122 L 61.324 50.244 60.662 33.462 C 60.298 24.232, 60 12.927, 60 8.340 L 60 0 37.117 0 C 15.412 0, 14.207 0.099, 13.732 1.915 M 38.250 14.676 C 33.920 16.218, 33.495 17.022, 33.965 22.779 C 34.074 24.119, 33.199 25.828, 31.842 26.927 L 29.532 28.797 34.016 29.933 C 40.672 31.618, 43 32.787, 43 34.443 C 43 35.261, 43.957 36.442, 45.126 37.068 C 47.701 38.445, 52 36.861, 52 34.535 C 52 33.373, 57.643 30, 59.587 30 C 59.776 30, 60.076 34.612, 60.254 40.250 L 60.578 50.500 60.789 39.317 C 60.980 29.214, 60.822 28.078, 59.152 27.548 C 57.142 26.910, 55 23.027, 55 20.021 C 55 17.563, 49.898 13.974, 45.760 13.520 C 43.967 13.323, 40.587 13.843, 38.250 14.676 M 29.762 33.707 C 31.006 33.946, 32.806 33.937, 33.762 33.687 C 34.718 33.437, 33.700 33.241, 31.500 33.252 C 29.300 33.263, 28.518 33.468, 29.762 33.707 M 5.318 43.750 C 6.673 50.589, 7.632 53.405, 8.260 52.389 C 9.510 50.366, 7.855 41, 6.247 41 C 5.174 41, 4.921 41.747, 5.318 43.750" stroke="none" fill="#3467df" fill-rule="evenodd"/>
</svg>