<svg xmlns="http://www.w3.org/2000/svg" width="400" height="300" viewBox="0 0 400 300" version="1.1">
	<path d="M 150.365 78.071 C 145.494 79.511, 137.900 85.061, 134.292 89.816 C 128.056 98.037, 127.891 99.684, 128.212 150.638 C 128.492 195.215, 128.561 196.631, 130.661 201.176 C 133.841 208.057, 140.116 214.335, 146.753 217.276 L 152.500 219.824 200.500 220.162 L 248.500 220.500 254.834 217.066 C 261.160 213.636, 266.097 208.604, 269.616 202 C 271.202 199.022, 271.556 195.442, 271.990 178 C 272.271 166.725, 272.275 144.675, 272 129 L 271.500 100.500 268.720 94.839 C 265.667 88.623, 260.415 83.328, 253.795 79.793 C 249.503 77.502, 249.468 77.500, 201.500 77.322 C 174.343 77.221, 152.139 77.546, 150.365 78.071 M 160.571 124.571 C 158.354 126.788, 158.219 168.548, 160.419 171.559 C 161.772 173.411, 163.543 173.513, 198.919 173.785 C 223.882 173.977, 236.654 173.721, 238 173 C 242.543 170.569, 240.371 168.691, 222.746 159.812 C 206.266 151.510, 205.389 151.191, 203 152.622 C 200.540 154.095, 200.533 154.090, 202.552 152.309 C 203.681 151.314, 212.563 145.550, 222.291 139.500 C 236.244 130.821, 239.979 128.048, 239.988 126.357 C 239.995 125.178, 239.288 123.941, 238.418 123.607 C 237.548 123.273, 220.030 123, 199.490 123 C 166.871 123, 161.944 123.199, 160.571 124.571" stroke="black" fill="#dedede"/>
</svg>