<svg xmlns="http://www.w3.org/2000/svg" width="492" height="328" viewBox="0 0 492 328" version="1.1">
	<rect x="0" y="0" width="100%" height="100%" fill="#bfbfbf" />
	<path d="M 0 164.002 L 0 328.004 246.250 327.752 L 492.500 327.500 492.753 163.750 L 493.006 0 466.753 0.068 C 447.122 0.118, 441.068 0.409, 442.750 1.220 C 444.629 2.127, 445 3.112, 445 7.202 C 445 9.896, 445.745 13.539, 446.656 15.300 C 449.062 19.948, 450.957 32.085, 450.982 43 C 450.998 50.144, 451.437 53.283, 452.752 55.657 C 453.713 57.394, 456.209 61.894, 458.297 65.657 C 460.385 69.421, 464.063 75.577, 466.471 79.339 L 470.848 86.178 470.421 95.281 C 470.157 100.927, 469.534 104.670, 468.780 105.136 C 466.226 106.714, 453.811 107.488, 436 107.179 C 416.645 106.843, 396.091 107.886, 401.500 108.930 C 403.980 109.408, 404.553 110.053, 404.805 112.647 C 404.973 114.372, 404.411 118.485, 403.555 121.787 C 402.700 125.088, 402 129.587, 402 131.786 C 402 135.278, 402.336 135.867, 404.655 136.450 C 406.276 136.856, 407.591 136.662, 408.030 135.951 C 408.512 135.172, 408.962 135.130, 409.391 135.824 C 409.744 136.395, 409.574 137.145, 409.014 137.492 C 408.395 137.874, 408.335 138.785, 408.862 139.811 C 409.339 140.740, 409.512 142.110, 409.247 142.855 C 408.892 143.850, 409.347 144.025, 410.963 143.512 C 412.849 142.913, 413.116 143.147, 412.832 145.146 C 412.649 146.430, 411.714 147.629, 410.754 147.812 C 409.515 148.049, 409.182 147.688, 409.610 146.573 C 410.017 145.512, 409.645 145, 408.467 145 C 406.356 145, 404.099 142.241, 403.968 139.500 C 403.886 137.759, 403.747 137.817, 402.896 139.946 C 401.215 144.157, 401.214 168.684, 402.896 188.781 C 404.213 204.534, 404.272 208.299, 403.218 209.354 C 401.227 211.345, 402.800 213.816, 407.357 215.855 C 411.578 217.745, 415.777 221.557, 414.758 222.575 C 414.448 222.885, 413.295 222.577, 412.195 221.890 C 410.548 220.861, 409.754 220.931, 407.683 222.288 C 404.318 224.493, 405.061 227.967, 408.854 227.755 C 410.309 227.674, 412.943 227.952, 414.706 228.373 C 417.593 229.063, 417.872 228.933, 417.513 227.070 C 417.011 224.461, 417.137 224.475, 421.595 227.500 C 423.784 228.986, 424.614 230, 423.640 230 C 422.738 230, 422 230.675, 422 231.500 C 422 232.333, 422.889 233, 424 233 C 425.100 233, 426 233.450, 426 234 C 426 234.550, 425.325 235, 424.500 235 C 423.675 235, 423 235.873, 423 236.941 C 423 238.009, 422.518 239.180, 421.929 239.544 C 421.272 239.950, 421.113 241.709, 421.517 244.103 C 421.947 246.648, 421.798 248, 421.088 248 C 420.490 248, 420 248.675, 420 249.500 C 420 250.325, 419.401 251, 418.669 251 C 417.937 251, 416.725 252.145, 415.976 253.544 C 414.736 255.863, 414.127 256.062, 409.117 255.794 C 403.110 255.473, 403.729 256.216, 401.585 246.750 C 401.242 245.237, 400.284 244, 399.456 244 C 396.488 244, 394.861 234.997, 397.080 230.851 C 397.914 229.292, 397.801 228.437, 396.580 227.088 C 395.711 226.128, 395 224.167, 395 222.730 C 395 219.390, 393.754 218.673, 388.093 218.754 C 383.944 218.814, 383.098 219.263, 379.344 223.402 L 375.189 227.985 375.521 212.242 C 375.779 200.047, 375.613 197.232, 374.782 199.750 C 373.398 203.949, 370.691 204.200, 371.342 200.069 C 371.893 196.571, 371.195 195.594, 369.279 197.183 C 368.108 198.155, 367.992 197.880, 368.583 195.525 C 369.148 193.273, 369.013 192.874, 367.913 193.554 C 366.019 194.724, 363 194.860, 363 193.774 C 363 192.297, 360.924 194.053, 359.953 196.352 C 359.345 197.791, 359.236 196.518, 359.624 192.497 C 360.130 187.243, 359.940 186.256, 358.101 184.592 C 356.885 183.491, 356 181.467, 356 179.786 C 356 178.189, 355.579 177.142, 355.064 177.461 C 353.972 178.136, 353.980 178.027, 353.844 193 C 353.757 202.656, 353.607 203.698, 352.913 199.500 C 352.458 196.750, 351.924 190.028, 351.726 184.561 C 351.474 177.571, 350.983 174.494, 350.071 174.190 C 349.046 173.849, 348.901 175.608, 349.378 182.629 C 349.710 187.508, 350.060 193.863, 350.157 196.750 C 350.254 199.637, 350.618 202, 350.966 202 C 351.314 202, 351.419 203.535, 351.200 205.412 C 350.981 207.288, 351.247 209.619, 351.792 210.592 C 353.021 212.790, 350.900 215.283, 348.564 214.386 C 347.256 213.884, 347.015 212.183, 347.184 204.639 C 347.420 194.094, 346.344 183.094, 344.869 180.968 C 344.130 179.904, 344.011 180.479, 344.435 183.059 C 345.609 190.213, 346.045 203.146, 345.092 202.557 C 344.571 202.235, 343.864 202.854, 343.521 203.934 C 342.488 207.187, 336 207.791, 336 204.634 C 336 204, 335.112 202.927, 334.027 202.249 C 332.194 201.104, 332.096 201.229, 332.652 204.008 C 333.032 205.912, 332.841 207, 332.125 207 C 331.506 207, 331 205.902, 331 204.559 C 331 203.216, 330.550 201.840, 330 201.500 C 329.051 200.914, 328.832 201.344, 328.600 204.250 C 328.545 204.938, 328.042 205.990, 327.482 206.589 C 326.253 207.905, 320.840 209.068, 321.589 207.856 C 321.880 207.385, 321.191 207, 320.059 207 C 318.927 207, 318 207.414, 318 207.920 C 318 208.910, 310.738 208.686, 307.280 207.589 C 306.118 207.220, 304.882 207.382, 304.532 207.948 C 304.124 208.608, 302.973 208.373, 301.325 207.293 C 299.446 206.062, 296.282 205.565, 289.575 205.445 C 284.526 205.356, 279.397 204.748, 278.177 204.095 C 276.957 203.442, 275.448 203.223, 274.825 203.608 C 274.157 204.021, 273.966 203.864, 274.360 203.227 C 275.309 201.691, 272.167 200.927, 266.961 201.428 C 263.849 201.728, 261.983 201.389, 260.788 200.308 C 259.845 199.455, 258.383 199.023, 257.537 199.347 C 256.692 199.672, 256 199.446, 256 198.846 C 256 198.109, 255.531 198.145, 254.552 198.957 C 253.398 199.915, 252.065 199.635, 247.970 197.579 C 245.146 196.161, 242.003 195, 240.985 195 C 239.967 195, 238.881 194.199, 238.570 193.220 C 237.890 191.078, 232.281 188.656, 231.743 190.272 C 231.258 191.726, 222.279 187.269, 218.500 183.700 L 215.500 180.867 214.580 184.183 C 213.388 188.484, 213.362 188.505, 211.565 186.708 C 210.717 185.860, 209.136 185.413, 208.018 185.706 C 206.609 186.074, 206 185.746, 206 184.617 C 206 183.548, 205.068 182.961, 203.250 182.885 C 197.151 182.629, 194.905 181.618, 192.527 178.058 C 191.349 176.295, 190.286 175.538, 189.889 176.180 C 189.523 176.772, 188.716 176.942, 188.095 176.559 C 187.475 176.176, 187.257 175.393, 187.612 174.819 C 188.555 173.292, 185.800 171.921, 184.297 173.169 C 183.598 173.749, 181.841 173.926, 180.392 173.562 C 177.946 172.948, 177.806 173.089, 178.419 175.534 C 178.849 177.248, 178.717 177.943, 178.040 177.525 C 177.468 177.171, 176.986 177.696, 176.970 178.691 C 176.943 180.259, 176.817 180.292, 176.025 178.937 C 175.411 177.888, 173.706 177.395, 170.836 177.437 C 167.731 177.483, 165.899 176.885, 164.135 175.250 C 162.328 173.575, 160.498 173, 156.968 173 C 154.361 173, 150.940 172.328, 149.364 171.506 C 147.789 170.685, 144.570 170.010, 142.210 170.006 C 137.205 169.999, 130.942 167.101, 128.815 163.808 C 126.475 160.184, 123.989 152.031, 123.331 145.816 C 122.792 140.727, 123.070 139.470, 125.983 133.816 C 127.773 130.342, 129.889 126.756, 130.686 125.847 C 131.980 124.370, 131.807 123.999, 129.068 122.381 C 127.380 121.384, 126 119.806, 126 118.873 C 126 116.700, 131.358 112.173, 134.827 111.416 C 136.297 111.095, 138.066 110.658, 138.759 110.445 C 139.451 110.231, 141.216 110.512, 142.681 111.069 C 144.146 111.626, 146.055 111.743, 146.922 111.330 C 147.790 110.917, 151.381 110.561, 154.901 110.539 L 161.302 110.500 164.401 105.888 C 170.530 96.768, 170.162 97.198, 169.442 100 C 169.089 101.375, 168.314 104.602, 167.719 107.172 C 167.008 110.242, 165.927 112.168, 164.568 112.789 C 161.691 114.103, 159.441 123.679, 161.136 127.398 C 161.790 128.834, 162.003 130.331, 161.609 130.724 C 160.543 131.790, 154.154 124.605, 152.316 120.273 C 151.435 118.198, 150.516 117.062, 150.274 117.750 C 150.032 118.437, 149.394 119, 148.858 119 C 148.321 119, 148.135 118.591, 148.444 118.090 C 148.753 117.590, 148.725 116.447, 148.381 115.550 C 147.869 114.217, 147.503 114.405, 146.377 116.574 C 144.540 120.116, 144.575 120.264, 147.750 122.301 L 150.500 124.065 144.500 123.575 C 141.200 123.306, 139.400 123.315, 140.500 123.594 C 141.600 123.874, 143.483 124.590, 144.684 125.185 C 145.886 125.781, 147.798 126.025, 148.934 125.727 C 150.070 125.430, 151 125.526, 151 125.941 C 151 126.355, 151.900 127.732, 153 129 C 155.568 131.960, 155.712 134.451, 153.239 133.128 C 152.270 132.609, 150.625 131.244, 149.584 130.093 C 148.542 128.942, 146.617 128, 145.305 128 L 142.919 128 145.470 130.750 C 146.873 132.262, 147.805 134.063, 147.542 134.750 C 147.278 135.438, 147.750 136, 148.590 136 C 149.431 136, 149.896 136.360, 149.624 136.800 C 149.352 137.240, 149.930 138.100, 150.909 138.711 C 152.478 139.691, 152.629 139.510, 152.183 137.179 C 151.726 134.787, 151.833 134.676, 153.304 136.018 C 157.042 139.424, 158.216 140.179, 161.595 141.349 C 165.827 142.814, 166.466 144.384, 163 144.799 C 161.625 144.964, 159.838 145.325, 159.028 145.603 C 156.638 146.422, 159.999 148.038, 162.689 147.363 C 165.050 146.771, 171.641 148.591, 173.688 150.401 C 177.799 154.036, 178 154.133, 178 152.473 C 178 151.183, 178.836 150.952, 182.250 151.296 C 184.588 151.532, 186.950 151.876, 187.500 152.061 C 188.050 152.245, 189.534 152.045, 190.798 151.616 C 192.188 151.143, 193.638 151.284, 194.467 151.973 C 195.523 152.849, 196.057 152.721, 196.787 151.416 C 197.554 150.046, 198.744 149.817, 202.975 150.224 C 205.856 150.500, 208.503 151.147, 208.857 151.661 C 209.210 152.175, 210.585 152.664, 211.910 152.748 C 213.236 152.831, 214.599 153.352, 214.941 153.904 C 215.282 154.457, 216.448 154.907, 217.531 154.906 C 220.948 154.900, 225.399 155.716, 228.334 156.885 C 229.893 157.506, 231.542 157.783, 231.999 157.501 C 232.455 157.219, 232.988 157.465, 233.183 158.048 C 233.377 158.632, 234.203 159.210, 235.018 159.333 C 237.447 159.699, 239.076 161.067, 238.396 162.169 C 237.984 162.835, 238.473 162.817, 239.781 162.117 C 241.224 161.345, 242.683 161.342, 244.880 162.108 C 246.573 162.698, 248.530 162.976, 249.229 162.726 C 249.928 162.475, 251.337 162.702, 252.360 163.229 C 253.655 163.897, 255.505 163.697, 258.453 162.571 C 263.033 160.822, 273.957 160.776, 275.250 162.500 C 275.729 163.139, 276.303 163.031, 276.840 162.200 C 277.302 161.485, 278.652 160.827, 279.840 160.737 C 282.784 160.515, 283.797 154.717, 281.533 151.054 C 280.883 150.001, 281.333 149.840, 283.601 150.314 C 285.195 150.648, 285.935 150.675, 285.244 150.375 C 283.517 149.625, 284.702 148, 286.976 148 C 287.997 148, 288.983 147.558, 289.167 147.017 C 289.350 146.477, 291.020 145.869, 292.877 145.666 C 296.362 145.287, 298.644 142.851, 297.400 140.838 C 296.962 140.130, 297.133 139.964, 297.845 140.405 C 298.480 140.797, 299.020 141.879, 299.045 142.809 C 299.072 143.813, 299.649 143.281, 300.464 141.500 C 301.559 139.108, 301.861 138.905, 301.954 140.500 C 302.060 142.314, 302.197 142.272, 303.425 140.056 C 304.678 137.793, 304.815 137.755, 305.273 139.556 C 305.713 141.285, 305.781 141.300, 305.884 139.691 C 305.948 138.696, 306.450 138.160, 307 138.500 C 307.550 138.840, 308 138.641, 308 138.059 C 308 137.477, 308.675 137, 309.500 137 C 310.325 137, 311 137.707, 311 138.571 C 311 140, 311.143 140, 312.571 138.571 C 313.436 137.707, 314.609 137, 315.180 137 C 315.787 137, 315.957 135.963, 315.589 134.500 C 315.244 133.125, 315.308 131.996, 315.731 131.992 C 316.635 131.983, 319 127.167, 319 125.336 C 319 124.640, 320.003 123.533, 321.229 122.877 C 322.456 122.221, 324.063 121.080, 324.801 120.342 C 327.297 117.846, 322.823 118.951, 318 122.022 C 315.525 123.598, 311.205 126.257, 308.399 127.931 C 305.594 129.606, 301.769 132.324, 299.899 133.972 C 298.030 135.620, 295.470 136.975, 294.210 136.984 C 292.951 136.993, 290.120 137.919, 287.919 139.041 C 283.391 141.351, 274.474 142.576, 273.512 141.020 C 273.166 140.459, 273.396 140, 274.024 140 C 276.776 140, 290.222 133.825, 294.648 130.529 C 304.716 123.031, 306 121.872, 306 120.291 C 306 119.398, 306.671 117.955, 307.491 117.084 C 314.333 109.813, 315.936 107.434, 317.011 102.954 C 317.665 100.229, 318.605 98, 319.100 98 C 319.595 98, 320.007 97.213, 320.015 96.250 C 320.028 94.777, 320.179 94.734, 320.965 95.977 C 321.595 96.974, 321.427 97.976, 320.449 99.056 C 319.652 99.937, 319 101.047, 319 101.523 C 319 101.999, 320.156 100.839, 321.569 98.944 C 322.982 97.050, 324.557 95.612, 325.069 95.750 C 325.581 95.887, 326 95.325, 326 94.500 C 326 91.922, 327.932 92.862, 328.568 95.750 C 328.902 97.263, 329.287 98.950, 329.423 99.500 C 329.746 100.803, 341.772 88.292, 342.549 85.845 C 342.876 84.814, 343.496 84.188, 343.926 84.454 C 344.995 85.115, 347 80.483, 347 77.354 C 347 75.951, 347.627 73.384, 348.393 71.651 C 350.375 67.167, 351.248 64.722, 351.481 63 C 352.313 56.852, 353.312 53, 354.075 53 C 354.592 53, 354.763 45.250, 354.478 34.750 C 353.745 7.800, 353.664 6.951, 351.713 5.859 C 350.771 5.332, 350 3.798, 350 2.450 L 350 0 175 0 L 0 0 0 164.002 M 367.750 4.632 C 364.300 8.776, 362.721 14, 364.918 14 C 365.424 14, 366.805 12.433, 367.989 10.517 C 369.173 8.602, 371.991 5.452, 374.251 3.517 L 378.360 0 374.930 0.064 C 372.123 0.116, 370.819 0.945, 367.750 4.632 M 387.395 0.713 C 385.131 0.999, 383.018 2.579, 379.588 6.553 C 377.001 9.549, 375.337 12, 375.889 12 C 377.285 12, 388.897 5.174, 392.327 2.338 C 395.458 -0.251, 395.336 -0.291, 387.395 0.713 M 404.081 2.250 C 404.057 3.488, 404.041 5.798, 404.045 7.386 C 404.053 10.360, 401.632 15, 400.072 15 C 399.587 15, 399.435 13.176, 399.734 10.946 C 400.276 6.903, 400.270 6.894, 397.389 7.576 C 394.227 8.324, 381.654 16.169, 380.327 18.220 C 379.872 18.924, 379.454 20.175, 379.398 21 C 379.025 26.496, 379.232 26.288, 374.750 25.669 C 371.184 25.176, 370.862 25.260, 372.750 26.194 C 373.988 26.805, 375 27.579, 375 27.912 C 375 28.853, 370.872 31.205, 370.273 30.606 C 369.176 29.510, 369.072 21.619, 370.137 20.335 C 370.746 19.601, 370.910 19, 370.500 19 C 370.090 19, 370.272 18.377, 370.904 17.616 C 371.835 16.494, 371.367 16.104, 368.424 15.552 C 364.062 14.733, 363.844 14.909, 363.318 19.688 C 363.090 21.752, 362.489 23.698, 361.981 24.012 C 361.473 24.326, 360.818 27.047, 360.526 30.058 C 360.233 33.070, 359.545 37.099, 358.997 39.011 C 357.439 44.442, 357.651 45.626, 359.829 43.655 C 360.835 42.745, 361.965 42, 362.341 42 C 363.605 42, 361.702 50.448, 358.961 57 C 357.029 61.618, 355.768 67.408, 354.604 77 C 353.704 84.425, 352.557 93.632, 352.055 97.460 C 351.553 101.288, 351.374 104.795, 351.657 105.254 C 351.940 105.712, 351.732 106.630, 351.194 107.294 C 350.656 107.957, 349.983 109.400, 349.698 110.500 C 349.414 111.600, 349.364 108.563, 349.586 103.750 C 349.934 96.209, 349.768 95, 348.381 95 C 347.047 95, 346.873 95.810, 347.358 99.750 C 347.680 102.362, 347.693 103.938, 347.388 103.250 C 346.306 100.813, 345.361 102.051, 345.541 105.669 C 345.769 110.230, 345.053 113.151, 343.886 112.430 C 343.399 112.128, 343 110.925, 343 109.755 C 343 108.586, 342.061 106.630, 340.914 105.409 C 339.204 103.588, 339.030 102.812, 339.950 101.094 C 340.566 99.942, 340.717 98.993, 340.285 98.985 C 339.853 98.976, 340.128 98.572, 340.896 98.086 C 341.739 97.552, 342.021 96.498, 341.609 95.423 C 340.565 92.702, 338.646 95.292, 336.066 102.906 C 334.872 106.430, 333.243 110.242, 332.447 111.379 C 331.651 112.515, 331 114.470, 331 115.723 C 331 117.355, 330.417 118, 328.941 118 C 327.533 118, 327.135 118.395, 327.684 119.250 C 328.126 119.938, 328.547 121.400, 328.620 122.500 C 329.096 129.605, 330.160 135.548, 331.009 135.833 C 331.554 136.017, 332 136.658, 332 137.258 C 332 137.858, 333.765 141.778, 335.923 145.969 C 338.081 150.159, 339.773 154.243, 339.682 155.044 C 339.592 155.845, 340.144 158.957, 340.909 161.960 C 342.201 167.030, 342.372 167.244, 343.299 164.960 C 344.772 161.331, 344.971 159.769, 344.304 157.092 C 343.724 154.766, 343.655 154.749, 342.266 156.592 C 340.951 158.336, 340.870 158.167, 341.321 154.618 C 341.864 150.355, 338.730 141.431, 337.053 142.467 C 335.996 143.120, 336.259 137.008, 337.365 135.219 C 337.732 134.624, 337.639 133.895, 337.157 133.597 C 335.799 132.758, 338.289 125.897, 339.748 126.457 C 341.804 127.246, 341.169 123.821, 338.750 121.072 L 336.500 118.514 338.920 120.507 C 340.972 122.197, 341.245 122.242, 340.720 120.801 C 340.280 119.591, 340.519 119.262, 341.551 119.658 C 342.348 119.964, 343 119.684, 343 119.036 C 343 118.298, 343.588 118.445, 344.571 119.429 C 345.436 120.293, 346.561 121, 347.071 121 C 347.582 121, 348 121.575, 348 122.278 C 348 123.493, 349.069 124.599, 353.532 128 C 355.281 129.333, 355.376 129.333, 354.386 128 C 353.774 127.175, 353.211 125.713, 353.136 124.750 C 352.820 120.692, 352.622 120, 351.774 120 C 351.284 120, 351.174 119.528, 351.530 118.951 C 351.966 118.246, 352.703 118.328, 353.781 119.201 C 354.983 120.175, 355.196 120.187, 354.633 119.250 C 353.653 117.619, 354.822 117.673, 360 119.500 C 362.338 120.325, 364.642 121, 365.120 121 C 366.338 121, 365.046 113.653, 363.679 112.804 C 363.062 112.422, 362.888 111.779, 363.291 111.375 C 363.695 110.972, 365.351 111.623, 366.972 112.821 C 369.829 114.934, 375 115.822, 375 114.200 C 375 113.760, 374.438 112.799, 373.750 112.064 C 372.725 110.969, 372.906 110.826, 374.750 111.270 C 376.253 111.633, 377 111.358, 377 110.442 C 377 108.583, 380.164 107.022, 384.184 106.898 L 387.500 106.795 384.413 106.057 C 379.128 104.794, 378.778 104.261, 379.532 98.642 C 379.986 95.257, 381.317 91.962, 383.426 89 C 385.188 86.525, 388.389 81.350, 390.539 77.500 C 392.690 73.650, 395.923 68.051, 397.725 65.059 C 401.434 58.897, 401.649 58, 399.417 58 C 398.546 58, 398.022 57.437, 398.253 56.750 C 398.483 56.063, 399.483 55.498, 400.474 55.495 C 402.821 55.488, 404.250 51.536, 403.727 46.500 C 403.245 41.860, 405.266 27.536, 407.324 21 C 408.103 18.525, 409.312 13.289, 410.010 9.364 C 411.425 1.412, 410.569 1.955, 421.526 2.050 C 424.840 2.078, 428.665 1.657, 430.026 1.114 C 431.838 0.391, 428.707 0.110, 418.312 0.063 C 404.259 0.001, 404.124 0.021, 404.081 2.250 M 0.488 164.500 C 0.488 254.700, 0.606 291.452, 0.750 246.171 C 0.894 200.890, 0.894 127.090, 0.750 82.171 C 0.606 37.252, 0.488 74.300, 0.488 164.500 M 128 2.739 C 123.888 4.808, 123.757 5.935, 126.906 12.159 L 129.264 16.818 132.882 15.607 C 134.872 14.940, 137.625 14.493, 139 14.612 C 143.380 14.993, 145.932 13.989, 145.239 12.158 C 144.684 10.690, 144.814 10.701, 146.377 12.250 C 148.669 14.521, 148.988 14.459, 148.928 11.750 C 148.900 10.512, 149.080 7.475, 149.326 5 C 149.573 2.525, 149.579 1.016, 149.339 1.646 C 148.913 2.764, 144.725 2.721, 135.500 1.505 C 132.786 1.147, 130.375 1.543, 128 2.739 M 119.126 5.922 C 117.431 6.970, 118.061 10.396, 120.011 10.737 C 120.830 10.880, 122.124 10.596, 122.888 10.105 C 124.033 9.368, 123.941 8.853, 122.362 7.158 C 121.144 5.850, 119.968 5.401, 119.126 5.922 M 413 7.559 C 413 8.416, 413.457 8.835, 414.016 8.490 C 414.575 8.144, 414.774 7.443, 414.457 6.931 C 413.600 5.544, 413 5.802, 413 7.559 M 419.957 10.167 C 419.934 10.350, 419.653 14.775, 419.333 20 C 418.523 33.246, 416.806 36.803, 413.418 32.250 C 412.220 30.639, 412.128 30.679, 412.271 32.750 C 412.356 33.987, 413.005 35, 413.713 35 C 414.421 35, 415 35.398, 415 35.883 C 415 37.159, 420.324 38.017, 421.450 36.923 C 421.972 36.415, 424.083 36, 426.141 36 C 430.500 36, 431.824 34.571, 429.676 32.187 C 428.840 31.259, 427.844 29.249, 427.462 27.719 C 426.904 25.484, 426.350 25.052, 424.634 25.517 C 422.846 26.002, 422.768 25.926, 424.155 25.051 C 425.685 24.086, 425.664 23.621, 423.879 18.925 C 422.817 16.130, 422.073 13.137, 422.224 12.275 C 422.376 11.413, 421.938 10.511, 421.250 10.270 C 420.563 10.030, 419.981 9.983, 419.957 10.167 M 122.164 12.302 C 120.730 14.031, 121.875 18.177, 123.682 17.798 C 124.465 17.634, 125.082 17.163, 125.053 16.750 C 125.024 16.337, 125 14.875, 125 13.500 C 125 10.761, 123.847 10.274, 122.164 12.302 M 392.500 13 C 391.505 14.100, 391.097 15.018, 391.595 15.040 C 392.093 15.062, 391.262 15.751, 389.750 16.572 C 388.238 17.393, 387 18.500, 387 19.032 C 387 19.564, 386.277 20, 385.393 20 C 384.338 20, 383.995 20.544, 384.393 21.582 C 384.727 22.452, 385 23.352, 385 23.582 C 385 24.723, 387.862 23.802, 388.362 22.500 C 389.197 20.322, 392.078 20.561, 391.374 22.750 C 390.915 24.177, 391.001 24.232, 391.840 23.048 C 392.405 22.249, 392.679 21.289, 392.447 20.914 C 392.215 20.539, 392.651 18.155, 393.415 15.616 C 394.179 13.077, 394.693 11, 394.557 11 C 394.421 11, 393.495 11.900, 392.500 13 M 413 12 C 413 12.550, 413.450 13, 414 13 C 414.550 13, 415 12.550, 415 12 C 415 11.450, 414.550 11, 414 11 C 413.450 11, 413 11.450, 413 12 M 372 13 C 371.099 13.582, 370.975 13.975, 371.691 13.985 C 372.346 13.993, 373.160 13.550, 373.500 13 C 374.267 11.758, 373.921 11.758, 372 13 M 141.750 17.758 C 138.845 19.559, 138.161 21.022, 140.250 20.967 C 141.587 20.931, 146 17.572, 146 16.590 C 146 15.597, 144.628 15.974, 141.750 17.758 M 131.571 18.571 C 129.818 20.325, 129.809 20.350, 129.573 24.396 C 129.453 26.434, 129.936 27.432, 131.201 27.763 C 132.191 28.022, 133.030 28.968, 133.067 29.867 C 133.104 30.765, 135.586 34.875, 138.582 39 C 141.579 43.125, 145.032 48.070, 146.255 49.988 L 148.479 53.476 149.218 48.488 C 150.214 41.767, 149.588 24.188, 148.307 22.907 C 147.603 22.203, 146.448 22.868, 144.640 25.016 C 142.238 27.870, 141.479 30.313, 141.925 33.750 C 142.015 34.438, 141.407 35, 140.575 35 C 139.625 35, 139.282 34.428, 139.653 33.463 C 139.977 32.617, 139.454 31.054, 138.489 29.988 C 136.779 28.098, 136.829 23.216, 138.605 18.587 C 139.438 16.417, 133.739 16.404, 131.571 18.571 M 324.079 20.583 C 324.127 21.748, 324.364 21.985, 324.683 21.188 C 324.972 20.466, 324.936 19.603, 324.604 19.271 C 324.272 18.939, 324.036 19.529, 324.079 20.583 M 398 22.926 C 394.886 24.560, 388.181 26.239, 384 26.431 C 383.175 26.469, 382.468 27.175, 382.429 28 C 382.261 31.537, 378.731 37.340, 372.998 43.502 C 367.972 48.904, 367.067 50.376, 368.047 51.556 C 369.003 52.708, 368.933 53, 367.702 53 C 365.061 53, 364.162 62.464, 366.710 63.442 C 368.018 63.944, 368.070 63.790, 367.019 62.523 C 366.154 61.481, 366.110 61, 366.878 61 C 367.495 61, 367.888 60.494, 367.750 59.875 C 367.613 59.256, 367.988 58.569, 368.583 58.347 C 369.179 58.126, 369.667 58.632, 369.667 59.472 C 369.667 60.313, 369.354 61, 368.971 61 C 368.588 61, 368.399 62.125, 368.549 63.500 C 368.854 66.271, 368.117 66.629, 365.977 64.750 C 365.194 64.063, 365.306 64.410, 366.226 65.523 C 368.134 67.830, 367.104 70.786, 364.862 69.436 C 363.798 68.796, 363.744 68.932, 364.614 70.058 C 365.783 71.573, 365.767 73.059, 364.515 79.323 C 363.835 82.721, 363.958 83.109, 365.625 82.823 C 367.118 82.566, 367.459 83.060, 367.297 85.250 C 367.160 87.108, 367.576 88, 368.581 88 C 370.434 88, 370.055 83.981, 367.964 81.447 C 366.593 79.785, 366.658 79.757, 369 81 C 371.290 82.216, 371.384 82.187, 370.128 80.664 C 369.373 79.749, 369.051 79, 369.413 79 C 369.774 79, 369.603 78.127, 369.032 77.061 C 368.308 75.707, 368.318 74.921, 369.065 74.460 C 369.654 74.096, 369.886 73.145, 369.580 72.347 C 369.273 71.549, 369.421 71.142, 369.907 71.442 C 371.306 72.307, 371.971 69.372, 370.672 68.063 C 369.773 67.156, 369.946 67.051, 371.414 67.611 C 372.750 68.120, 373.110 67.986, 372.605 67.170 C 372.207 66.526, 372.344 66, 372.910 66 C 373.475 66, 373.680 65.329, 373.365 64.508 C 373.046 63.679, 373.460 62.761, 374.298 62.439 C 375.125 62.122, 375.715 61.263, 375.608 60.532 C 375.281 58.304, 372.760 55.878, 371.340 56.423 C 370.595 56.709, 370 56.285, 370 55.469 C 370 53.775, 371.578 53.508, 372.525 55.041 C 372.879 55.613, 374.818 57.132, 376.834 58.416 C 378.850 59.701, 381.807 61.975, 383.405 63.471 C 385.723 65.642, 386.026 66.366, 384.905 67.058 C 384.132 67.535, 383.411 68.729, 383.302 69.712 C 383.193 70.696, 382.668 73.232, 382.135 75.350 C 381.220 78.985, 381.258 79.097, 382.833 77.350 C 384.450 75.555, 388.301 68.267, 388.434 66.748 C 388.470 66.335, 391.120 63.068, 394.321 59.488 C 397.740 55.666, 400.005 52.264, 399.809 51.246 C 399.501 49.649, 398.416 50.838, 387.336 64.911 C 386.505 65.965, 383 61.418, 383 59.286 C 383 57.912, 382.564 57.151, 381.984 57.510 C 381.425 57.856, 381.269 58.627, 381.638 59.224 C 382.039 59.871, 381.844 60.021, 381.155 59.595 C 380.520 59.203, 379.993 58.121, 379.985 57.191 C 379.973 55.861, 379.786 55.790, 379.110 56.857 C 377.763 58.982, 376.849 56.528, 377.929 53.687 C 379.238 50.243, 378.088 49.569, 375.328 52.161 C 374.052 53.360, 372.714 54.048, 372.355 53.689 C 371.295 52.629, 376.747 45.876, 383.003 40.500 C 389.728 34.722, 390.628 32.885, 385.250 35.916 L 381.500 38.030 384.875 35.087 C 388.794 31.672, 399.883 25.550, 400.691 26.357 C 402.661 28.328, 394.800 39, 391.378 39 C 390.620 39, 390.307 39.635, 390.638 40.500 C 390.955 41.325, 390.716 42, 390.107 42 C 388.041 42, 387.502 42.169, 386.250 43.207 C 384.770 44.436, 384.535 49.405, 386 48.500 C 386.550 48.160, 387 46.982, 387 45.882 C 387 44.782, 387.452 44.161, 388.004 44.502 C 388.556 44.843, 388.720 46.268, 388.368 47.669 C 387.964 49.279, 388.205 50.509, 389.023 51.014 C 390.060 51.655, 389.988 52.505, 388.658 55.308 C 387.071 58.653, 386.354 62.979, 387.592 61.741 C 387.918 61.415, 388.792 59.428, 389.534 57.324 C 390.276 55.221, 391.324 53.601, 391.862 53.724 C 392.401 53.846, 393.889 52.842, 395.171 51.491 C 396.452 50.140, 398.063 49.027, 398.750 49.017 C 399.587 49.006, 400.006 47.265, 400.017 43.750 C 400.027 40.862, 400.702 35.350, 401.517 31.500 C 403.171 23.692, 403.361 20.979, 402.250 21.044 C 401.837 21.069, 399.925 21.915, 398 22.926 M 125.469 23.050 C 124.519 24.588, 125.820 25.580, 127.104 24.296 C 127.822 23.578, 127.839 23.019, 127.156 22.597 C 126.596 22.251, 125.837 22.455, 125.469 23.050 M 106.636 24.506 C 106.321 25.328, 106.472 26, 106.972 26 C 108.328 26, 109.170 24.223, 108.121 23.575 C 107.620 23.265, 106.952 23.684, 106.636 24.506 M 324.158 25 C 324.158 26.375, 324.385 26.938, 324.662 26.250 C 324.940 25.563, 324.940 24.438, 324.662 23.750 C 324.385 23.063, 324.158 23.625, 324.158 25 M 380 24.583 C 380 26.349, 382.153 26.042, 382.771 24.188 C 382.989 23.534, 382.454 23, 381.583 23 C 380.712 23, 380 23.712, 380 24.583 M 282.500 26 C 282.160 26.550, 282.332 27, 282.882 27 C 283.432 27, 284.160 26.550, 284.500 26 C 284.840 25.450, 284.668 25, 284.118 25 C 283.568 25, 282.840 25.450, 282.500 26 M 292 27.969 C 292 28.501, 292.675 28.678, 293.500 28.362 C 294.325 28.045, 295 27.609, 295 27.393 C 295 27.177, 294.325 27, 293.500 27 C 292.675 27, 292 27.436, 292 27.969 M 300.559 28.532 C 299.491 29.339, 299.099 30, 299.686 30 C 300.274 30, 301.315 29.325, 302 28.500 C 303.557 26.624, 303.067 26.634, 300.559 28.532 M 113 31.607 C 113 32.625, 112.450 33.003, 111.500 32.638 C 110.675 32.322, 110 32.481, 110 32.992 C 110 33.504, 109.052 34.805, 107.894 35.884 C 106.656 37.038, 106.099 38.351, 106.542 39.068 C 107.087 39.950, 106.574 40.152, 104.699 39.793 C 103.071 39.482, 101.909 39.795, 101.588 40.631 C 101.306 41.366, 100.384 41.701, 99.538 41.376 C 98.547 40.996, 98 41.358, 98 42.393 C 98 43.277, 97.339 44, 96.531 44 C 95.724 44, 95.271 44.563, 95.527 45.250 C 96.262 47.232, 94.397 52.528, 93.070 52.228 C 92.408 52.078, 91.949 52.753, 92.049 53.728 C 92.382 56.980, 92.012 58, 90.500 58 C 89.675 58, 89 58.436, 89 58.969 C 89 59.501, 89.675 59.678, 90.500 59.362 C 91.325 59.045, 92 59.284, 92 59.893 C 92 60.502, 91.550 61, 91 61 C 90.450 61, 90 61.886, 90 62.969 C 90 64.353, 89.531 64.757, 88.417 64.330 C 87.172 63.852, 86.885 64.338, 87.068 66.611 C 87.567 72.789, 87.183 73.758, 84.442 73.234 C 82.882 72.935, 82.077 72.242, 82.379 71.455 C 82.651 70.746, 82.204 69.908, 81.385 69.594 C 80.480 69.247, 80.156 69.444, 80.560 70.098 C 80.985 70.784, 80.298 71.051, 78.658 70.836 C 74.977 70.354, 74.929 72.315, 78.594 73.500 C 80.295 74.050, 81.766 74.950, 81.863 75.500 C 81.960 76.050, 82.889 76.500, 83.929 76.500 C 86.577 76.500, 87.726 77.929, 85.971 79.039 C 84.885 79.726, 84.843 79.973, 85.809 79.985 C 86.540 79.993, 86.804 80.508, 86.406 81.151 C 85.912 81.951, 85.288 81.747, 84.364 80.483 C 83.249 78.958, 82.628 78.848, 80.529 79.805 C 79.151 80.433, 77.342 80.685, 76.510 80.365 C 75.623 80.025, 74.145 80.762, 72.945 82.142 L 70.894 84.500 71.515 82.250 C 72.180 79.837, 71.400 79.449, 69 81 C 68.051 81.613, 67.948 81.975, 68.719 81.985 C 69.389 81.993, 69.683 82.663, 69.371 83.474 C 68.873 84.773, 68.631 84.773, 67.331 83.474 C 66.521 82.663, 65.706 82, 65.522 82 C 64.822 82, 66.285 86.058, 67.186 86.615 C 67.712 86.940, 67.368 88.041, 66.410 89.099 C 65.405 90.210, 65.170 91, 65.845 91 C 66.480 91, 67 90.550, 67 90 C 67 89.450, 67.900 89, 69 89 C 71.390 89, 71.677 91.526, 69.387 92.405 C 68.171 92.871, 68.046 93.351, 68.879 94.354 C 69.486 95.085, 69.649 96.052, 69.241 96.502 C 68.834 96.952, 69.063 96.997, 69.750 96.601 C 70.438 96.206, 71 95.064, 71 94.063 C 71 93.063, 71.675 91.685, 72.500 91 C 73.325 90.315, 74.052 88.798, 74.116 87.628 C 74.225 85.634, 74.263 85.624, 74.733 87.475 C 75.008 88.561, 75.798 89.911, 76.489 90.475 C 78.242 91.906, 79.080 95.968, 77.656 96.137 C 77.020 96.212, 75.713 96.271, 74.750 96.267 C 73.787 96.264, 73 96.863, 73 97.599 C 73 98.436, 73.623 98.698, 74.664 98.299 C 75.809 97.859, 76.095 98.038, 75.580 98.871 C 75.165 99.542, 73.967 99.807, 72.892 99.466 C 71.132 98.907, 71.011 99.215, 71.582 102.790 C 72.164 106.427, 72.012 106.780, 69.606 107.384 C 68.173 107.744, 67 108.506, 67 109.078 C 67 109.650, 66.550 109.840, 66 109.500 C 65.450 109.160, 65 109.314, 65 109.842 C 65 111.291, 58.182 115.045, 57.774 113.821 C 57.583 113.249, 56.768 113.589, 55.963 114.578 C 54.661 116.177, 54.679 116.308, 56.128 115.765 C 57.024 115.430, 58.188 115.588, 58.715 116.115 C 59.974 117.374, 64.856 115.539, 65.633 113.515 C 65.952 112.682, 66.642 112, 67.166 112 C 67.690 112, 67.810 112.498, 67.434 113.107 C 66.954 113.884, 67.754 113.993, 70.121 113.473 C 74.547 112.501, 80 109.871, 80 108.708 C 80 108.201, 80.675 108.045, 81.500 108.362 C 82.325 108.678, 83 108.510, 83 107.988 C 83 107.465, 84.221 106.732, 85.714 106.357 C 88.169 105.741, 88.240 105.603, 86.464 104.908 C 85.384 104.486, 85.063 104.109, 85.750 104.070 C 87.542 103.970, 87.300 101, 85.500 101 C 84.675 101, 84.014 100.213, 84.032 99.250 C 84.057 97.858, 84.568 98.073, 86.532 100.306 C 87.889 101.849, 89.004 102.524, 89.009 101.806 C 89.024 99.753, 93.934 90.292, 93.969 92.250 C 94.030 95.682, 95.746 93.927, 96.290 89.877 C 96.917 85.200, 96.270 82.668, 94.621 83.347 C 91.117 84.789, 90.400 84.912, 89.393 84.239 C 87.660 83.082, 89.939 71, 91.890 71 C 92.975 71, 93.095 71.305, 92.316 72.084 C 91.719 72.681, 91.454 74.020, 91.726 75.060 C 92.118 76.558, 92.607 76.745, 94.073 75.961 C 95.143 75.388, 95.685 74.342, 95.356 73.485 C 94.988 72.527, 95.395 72, 96.501 72 C 97.832 72, 98.076 71.439, 97.589 69.500 C 97.075 67.452, 97.327 67, 98.981 67 C 100.091 67, 101 67.378, 101 67.839 C 101 68.301, 102.125 69.192, 103.500 69.818 C 105.098 70.546, 106 70.593, 106 69.947 C 106 69.392, 105.325 68.678, 104.500 68.362 C 103.675 68.045, 103 66.751, 103 65.487 C 103 63.680, 102.572 63.299, 101 63.710 C 98.425 64.384, 98.448 63.213, 101.054 60.953 C 103.104 59.175, 103.101 59.166, 99.554 56.336 C 97.599 54.776, 96 53.177, 96 52.781 C 96 51.556, 99.430 53.271, 100.807 55.184 C 101.525 56.183, 102.655 57, 103.316 57 C 103.978 57, 105.081 57.900, 105.768 59 C 107.475 61.733, 109.422 61.657, 107.954 58.914 C 107.340 57.767, 107.089 56.578, 107.395 56.271 C 107.702 55.965, 108.236 56.451, 108.581 57.351 C 108.927 58.252, 109.581 58.759, 110.036 58.478 C 110.490 58.197, 111.149 58.432, 111.500 59 C 112.427 60.499, 114.014 59.200, 113.355 57.482 C 112.993 56.538, 113.749 55.666, 115.507 54.997 C 117.757 54.142, 118.008 53.715, 116.986 52.483 C 115.994 51.288, 116.037 51, 117.211 51 C 119.472 51, 120.027 52.081, 118.872 54.239 C 117.213 57.339, 119.348 58.652, 121.900 56.100 C 124.379 53.621, 124.565 52.154, 122.500 51.362 C 121.675 51.045, 121 49.785, 121 48.562 C 121 47.221, 120.021 45.814, 118.534 45.018 C 115.695 43.499, 116.183 41.606, 119.170 42.554 C 120.882 43.097, 121.026 42.917, 120.165 41.309 C 119.356 39.797, 119.506 39.429, 120.930 39.429 C 122.138 39.429, 122.552 39.996, 122.234 41.214 C 121.972 42.214, 122.308 43, 122.997 43 C 123.795 43, 124.072 44.054, 123.787 46 C 123.545 47.650, 123.718 49, 124.173 49 C 124.628 49, 125 48.073, 125 46.941 C 125 45.809, 125.403 45.131, 125.895 45.435 C 126.388 45.740, 127.063 45.279, 127.395 44.412 C 128.285 42.095, 128.175 41.883, 126.250 42.206 C 124.946 42.425, 124.580 41.926, 124.813 40.250 C 125.094 38.225, 124.158 37.501, 121.750 37.882 C 121.338 37.947, 121 37.550, 121 37 C 121 36.450, 120.213 35.993, 119.250 35.985 C 116.125 35.957, 114.462 34.353, 115.840 32.693 C 116.809 31.525, 116.730 31.110, 115.444 30.617 C 113.165 29.743, 113 29.810, 113 31.607 M 301 32 C 299.718 32.828, 299.754 32.972, 301.250 32.985 C 302.212 32.993, 303 32.550, 303 32 C 303 30.780, 302.887 30.780, 301 32 M 294 35.500 C 292.980 36.729, 293.049 37, 294.378 37 C 295.270 37, 296 36.325, 296 35.500 C 296 34.675, 295.830 34, 295.622 34 C 295.415 34, 294.685 34.675, 294 35.500 M 141.609 36.824 C 141.256 37.395, 141.455 38.163, 142.050 38.531 C 143.536 39.449, 144.062 38.719, 143.071 37.114 C 142.539 36.255, 142.024 36.152, 141.609 36.824 M 318.658 37.449 C 318.287 38.416, 318.582 38.714, 319.545 38.344 C 320.339 38.040, 320.740 37.388, 320.435 36.895 C 319.669 35.655, 319.303 35.769, 318.658 37.449 M 410 37 C 410 37.550, 410.450 38, 411 38 C 411.550 38, 412 37.550, 412 37 C 412 36.450, 411.550 36, 411 36 C 410.450 36, 410 36.450, 410 37 M 311.860 38.750 C 307.665 43.815, 307.653 43.913, 311.450 42.192 C 313.517 41.256, 314.509 40.315, 313.856 39.911 C 313.244 39.533, 313.053 38.723, 313.431 38.112 C 314.498 36.386, 313.474 36.802, 311.860 38.750 M 285.813 39.683 C 286.534 39.972, 287.397 39.936, 287.729 39.604 C 288.061 39.272, 287.471 39.036, 286.417 39.079 C 285.252 39.127, 285.015 39.364, 285.813 39.683 M 251.879 42.279 C 252.362 42.762, 254.049 42.995, 255.628 42.798 C 258.272 42.468, 258.202 42.399, 254.751 41.921 C 252.601 41.623, 251.376 41.776, 251.879 42.279 M 420.030 45.701 C 415.781 50.370, 415.760 50.429, 417.870 51.829 C 420.434 53.532, 420.804 58.754, 418.426 59.667 C 417.560 59.999, 415.083 59.687, 412.921 58.974 C 407.330 57.129, 406.223 59.034, 411.500 61.419 C 412.902 62.053, 408.163 66, 406.001 66 C 404.774 66, 404.027 67.043, 403.592 69.363 C 403.245 71.212, 402.054 73.546, 400.945 74.550 C 399.837 75.553, 399.151 76.951, 399.421 77.656 C 399.692 78.361, 399.261 80.190, 398.463 81.719 C 397.665 83.249, 396.978 85.175, 396.936 86 C 396.885 86.992, 396.580 86.823, 396.035 85.500 C 395.346 83.829, 394.994 84.282, 393.898 88.250 C 393.176 90.862, 392.285 93, 391.918 93 C 390.862 93, 391.112 87.633, 392.233 86.250 C 392.955 85.358, 392.826 85, 391.783 85 C 390.028 85, 388 89.104, 388 92.654 C 388 94.418, 388.428 95.050, 389.378 94.685 C 390.136 94.394, 391.197 94.597, 391.736 95.136 C 392.376 95.776, 394.181 94.367, 396.938 91.075 C 399.820 87.631, 402.390 85.664, 405.042 84.869 C 408.631 83.794, 409.194 83.910, 412.463 86.404 C 417.293 90.088, 417.068 94.524, 412 95.500 C 410.706 95.749, 409.164 96.446, 408.573 97.047 C 407.799 97.837, 408.228 97.962, 410.114 97.497 C 412.273 96.964, 412.842 97.256, 413.380 99.176 C 413.988 101.341, 414.125 101.380, 415.377 99.750 C 416.949 97.702, 419.250 97.515, 421.968 99.212 C 424.751 100.950, 425.398 99.671, 423.548 96.093 C 421.815 92.742, 422.462 91.923, 424.608 94.750 C 426.625 97.408, 426.439 94.072, 424.408 91.173 C 423.533 89.923, 422.606 87.010, 422.347 84.700 C 422.089 82.390, 421.339 79.950, 420.681 79.278 C 419.798 78.376, 419.714 75.762, 420.360 69.278 C 420.841 64.450, 421.294 57.287, 421.367 53.361 C 421.469 47.867, 421.940 45.733, 423.411 44.105 C 424.461 42.940, 425.096 41.762, 424.820 41.487 C 424.545 41.212, 422.389 43.108, 420.030 45.701 M 110.750 42.662 C 111.438 42.940, 112.563 42.940, 113.250 42.662 C 113.938 42.385, 113.375 42.158, 112 42.158 C 110.625 42.158, 110.063 42.385, 110.750 42.662 M 104.500 44 C 104.840 44.550, 105.541 45, 106.059 45 C 106.577 45, 107 44.550, 107 44 C 107 43.450, 106.298 43, 105.441 43 C 104.584 43, 104.160 43.450, 104.500 44 M 308.694 45.585 C 307.065 46.987, 306.476 48, 307.289 48 C 308.750 48, 312.627 44.292, 311.911 43.579 C 311.685 43.354, 310.237 44.257, 308.694 45.585 M 333.367 43.785 C 333.722 44.359, 333.447 45.047, 332.756 45.313 C 332.065 45.579, 332.518 45.746, 333.762 45.684 C 336.135 45.567, 336.321 43.940, 334.048 43.183 C 333.311 42.937, 333.008 43.205, 333.367 43.785 M 318.581 45.744 C 317.675 48.599, 313.398 54.065, 312.653 53.320 C 312.294 52.961, 312 53.225, 312 53.907 C 312 54.589, 312.783 54.996, 313.741 54.811 C 315.403 54.491, 320.588 45.255, 319.638 44.305 C 319.388 44.054, 318.912 44.702, 318.581 45.744 M 324.116 44.750 C 324.052 45.438, 324.009 46.230, 324.020 46.510 C 324.080 48.027, 320.712 53.084, 319.048 53.974 C 317.892 54.593, 317.265 55.781, 317.487 56.933 C 317.771 58.407, 317.385 58.767, 315.840 58.469 C 314.152 58.144, 314.024 58.324, 315.058 59.570 C 316.032 60.744, 316.036 61.625, 315.078 63.727 C 314.085 65.908, 313.678 66.131, 312.855 64.948 C 311.987 63.701, 311.905 63.708, 312.257 65 C 313.205 68.471, 315.707 65.921, 320.293 56.813 C 322.976 51.486, 324.960 46.311, 324.702 45.313 C 324.443 44.316, 324.180 44.063, 324.116 44.750 M 129.691 47.364 C 129.319 48.333, 128.612 48.878, 128.120 48.574 C 126.466 47.552, 125.084 50.393, 126.570 51.761 C 127.689 52.792, 128.236 52.570, 129.564 50.543 C 130.457 49.180, 131.003 47.510, 130.778 46.833 C 130.515 46.044, 130.124 46.235, 129.691 47.364 M 330.165 52.805 C 330.017 56.227, 330.234 57.093, 330.966 56 C 332.177 54.189, 332.321 49.316, 331.184 48.614 C 330.735 48.336, 330.277 50.222, 330.165 52.805 M 306.667 49.667 C 306.300 50.033, 306 50.798, 306 51.367 C 306 51.993, 306.466 51.934, 307.183 51.217 C 307.834 50.566, 308.134 49.801, 307.850 49.517 C 307.566 49.233, 307.033 49.300, 306.667 49.667 M 245.756 51.802 C 247.017 52.936, 247.557 54.055, 246.981 54.340 C 246.341 54.656, 246.367 54.774, 247.050 54.650 C 249.022 54.291, 248.553 52.775, 246 51.259 L 243.500 49.774 245.756 51.802 M 130.500 53 C 130.160 53.550, 130.584 54, 131.441 54 C 132.298 54, 133 53.550, 133 53 C 133 52.450, 132.577 52, 132.059 52 C 131.541 52, 130.840 52.450, 130.500 53 M 386.500 53 C 386.840 53.550, 387.316 54, 387.559 54 C 387.802 54, 388 53.550, 388 53 C 388 52.450, 387.523 52, 386.941 52 C 386.359 52, 386.160 52.450, 386.500 53 M 88.079 54.583 C 88.127 55.748, 88.364 55.985, 88.683 55.188 C 88.972 54.466, 88.936 53.603, 88.604 53.271 C 88.272 52.939, 88.036 53.529, 88.079 54.583 M 110.500 54 C 110.840 54.550, 111.541 55, 112.059 55 C 112.577 55, 113 54.550, 113 54 C 113 53.450, 112.298 53, 111.441 53 C 110.584 53, 110.160 53.450, 110.500 54 M 242 55 C 242 55.550, 242.423 56, 242.941 56 C 243.459 56, 244.160 55.550, 244.500 55 C 244.840 54.450, 244.416 54, 243.559 54 C 242.702 54, 242 54.450, 242 55 M 325.459 56.067 C 325.096 56.653, 325.014 57.348, 325.276 57.610 C 325.538 57.872, 326.019 57.392, 326.345 56.543 C 327.021 54.781, 326.445 54.471, 325.459 56.067 M 322.564 57.707 C 322.022 59.132, 322.136 59.247, 323.124 58.267 C 323.808 57.588, 324.115 56.781, 323.807 56.474 C 323.499 56.166, 322.940 56.721, 322.564 57.707 M 95 58.406 C 95 60.355, 96.275 61.066, 97.933 60.042 C 98.967 59.402, 98.786 58.956, 97.135 58.072 C 95.403 57.145, 95 57.208, 95 58.406 M 327.694 61.250 C 325.782 65.753, 324.586 66.162, 325.500 62 C 325.862 60.350, 325.748 59, 325.246 59 C 324.744 59, 324.298 59.563, 324.255 60.250 C 323.742 68.424, 322.907 71.357, 320.445 73.639 C 318.978 74.998, 318.090 76.423, 318.471 76.805 C 319.432 77.765, 325 71.354, 325 69.288 C 325 68.364, 326.170 65.919, 327.600 63.855 C 329.031 61.791, 329.995 59.517, 329.743 58.801 C 329.492 58.086, 328.570 59.188, 327.694 61.250 M 287 60.059 C 287 60.641, 287.450 60.840, 288 60.500 C 288.550 60.160, 289 59.684, 289 59.441 C 289 59.198, 288.550 59, 288 59 C 287.450 59, 287 59.477, 287 60.059 M 114.507 60.989 C 114.157 61.555, 114.558 61.723, 115.448 61.382 C 117.180 60.717, 117.497 60, 116.059 60 C 115.541 60, 114.843 60.445, 114.507 60.989 M 312.459 61.067 C 311.383 62.808, 312.608 63.177, 313.980 61.524 C 314.769 60.574, 314.845 60, 314.181 60 C 313.597 60, 312.821 60.480, 312.459 61.067 M 319.585 62.510 C 318.027 64.889, 318.054 65.137, 320.094 67.260 L 322.247 69.500 321.088 67.250 C 320.451 66.013, 320.283 65, 320.715 64.999 C 321.147 64.999, 321.565 63.874, 321.644 62.499 C 321.824 59.388, 321.630 59.389, 319.585 62.510 M 376.424 60.877 C 376.811 61.503, 376.412 62.288, 375.538 62.624 C 374.309 63.095, 374.209 63.547, 375.097 64.617 C 375.970 65.668, 375.946 66, 375 66 C 374.015 66, 374.019 66.318, 375.019 67.523 C 376.092 68.816, 375.997 68.939, 374.391 68.336 C 372.721 67.708, 372.660 67.822, 373.872 69.313 C 374.855 70.521, 374.906 71, 374.051 71 C 373.301 71, 373.459 71.602, 374.476 72.619 C 376.398 74.541, 376.895 74.191, 377.674 70.373 C 378.779 64.954, 378.543 60.707, 377.111 60.217 C 376.261 59.925, 375.994 60.182, 376.424 60.877 M 82.495 64.802 C 82.709 66.836, 82.918 68.725, 82.958 69 C 82.998 69.275, 83.467 68.825, 84 68 C 85.445 65.765, 85.199 62.290, 83.552 61.658 C 82.411 61.221, 82.187 61.886, 82.495 64.802 M 92.500 65 C 92.160 65.550, 92.097 66, 92.359 66 C 92.622 66, 93.553 66.275, 94.430 66.611 C 95.596 67.059, 95.857 66.791, 95.404 65.611 C 94.704 63.787, 93.417 63.516, 92.500 65 M 303.100 66.295 C 301.835 68.402, 301.857 68.423, 303.579 66.774 C 304.570 65.824, 305.166 64.832, 304.903 64.569 C 304.640 64.306, 303.829 65.083, 303.100 66.295 M 142.441 67.414 C 142.752 70.245, 143.795 72, 145.166 72 C 145.774 72, 145.909 71.265, 145.488 70.250 C 145.089 69.287, 144.740 67.957, 144.714 67.293 C 144.688 66.629, 144.110 65.872, 143.429 65.611 C 142.631 65.305, 142.280 65.946, 142.441 67.414 M 333.079 67.583 C 333.127 68.748, 333.364 68.985, 333.683 68.188 C 333.972 67.466, 333.936 66.603, 333.604 66.271 C 333.272 65.939, 333.036 66.529, 333.079 67.583 M 326.564 68.707 C 326.022 70.132, 326.136 70.247, 327.124 69.267 C 327.808 68.588, 328.115 67.781, 327.807 67.474 C 327.499 67.166, 326.940 67.721, 326.564 68.707 M 303.872 69.664 C 302.628 71.172, 302.710 71.216, 304.750 70.129 C 307.077 68.889, 307.650 68, 306.122 68 C 305.640 68, 304.627 68.749, 303.872 69.664 M 71 70 C 71 70.550, 71.477 71, 72.059 71 C 72.641 71, 72.840 70.550, 72.500 70 C 72.160 69.450, 71.684 69, 71.441 69 C 71.198 69, 71 69.450, 71 70 M 327.618 72.552 C 327.277 73.442, 327.445 73.843, 328.011 73.493 C 328.555 73.157, 329 73.385, 329 74 C 329 74.615, 329.430 74.852, 329.956 74.527 C 331.018 73.871, 330.239 71, 329 71 C 328.568 71, 327.946 71.698, 327.618 72.552 M 298.500 76.189 L 296.500 78.259 298.750 77.094 C 299.988 76.454, 301 75.495, 301 74.965 C 301 73.688, 300.841 73.766, 298.500 76.189 M 307.079 74.856 C 306.996 76.284, 302 82.707, 302 81.386 C 302 80.963, 301.288 81.491, 300.418 82.559 C 298.859 84.473, 298.846 84.472, 299.478 82.500 C 299.992 80.896, 299.869 80.747, 298.859 81.750 C 298.167 82.438, 296.817 83, 295.859 83 C 294.901 83, 293.799 83.516, 293.410 84.146 C 292.913 84.949, 293.475 85.098, 295.290 84.642 C 296.713 84.285, 298.157 84.446, 298.499 84.999 C 298.915 85.671, 299.766 85.661, 301.061 84.968 C 302.127 84.397, 303 84.201, 303 84.533 C 303 84.865, 304.350 84.175, 306 83 C 307.650 81.825, 309 80.366, 309 79.758 C 309 79.149, 307.830 79.742, 306.399 81.076 L 303.798 83.500 305.988 79.767 C 307.192 77.713, 307.948 75.463, 307.668 74.767 C 307.279 73.801, 307.139 73.822, 307.079 74.856 M 68 78 C 68 78.550, 68.477 79, 69.059 79 C 69.641 79, 69.840 78.550, 69.500 78 C 69.160 77.450, 68.684 77, 68.441 77 C 68.198 77, 68 77.450, 68 78 M 291.507 77.989 C 291.157 78.555, 291.558 78.723, 292.448 78.382 C 294.180 77.717, 294.497 77, 293.059 77 C 292.541 77, 291.843 77.445, 291.507 77.989 M 312.212 80.032 C 310.421 82.900, 310.739 83.818, 312.602 81.158 C 313.483 79.900, 314.029 78.695, 313.814 78.481 C 313.600 78.266, 312.879 78.964, 312.212 80.032 M 359 79.941 C 359 81.009, 359.385 82.120, 359.856 82.411 C 360.326 82.702, 360.499 81.828, 360.239 80.470 C 359.675 77.519, 359 77.231, 359 79.941 M 77.938 82.809 C 76.346 84.531, 76.416 88, 78.042 88 C 78.534 88, 78.678 87.325, 78.362 86.500 C 78.045 85.675, 78.284 85, 78.893 85 C 79.502 85, 80 84.358, 80 83.573 C 80 82.789, 80.787 81.941, 81.750 81.689 C 83.204 81.309, 83.162 81.222, 81.500 81.175 C 80.400 81.144, 78.797 81.880, 77.938 82.809 M 257.813 83.683 C 258.534 83.972, 259.397 83.936, 259.729 83.604 C 260.061 83.272, 259.471 83.036, 258.417 83.079 C 257.252 83.127, 257.015 83.364, 257.813 83.683 M 93.583 84.866 C 93.152 85.563, 93.070 86.403, 93.400 86.733 C 94.295 87.628, 95.271 86.312, 94.787 84.862 C 94.449 83.846, 94.213 83.846, 93.583 84.866 M 330.583 86.643 C 329.665 89.037, 330.381 89.221, 331.796 86.955 C 332.468 85.880, 332.611 85, 332.115 85 C 331.620 85, 330.930 85.739, 330.583 86.643 M 238.750 86.662 C 239.438 86.940, 240.563 86.940, 241.250 86.662 C 241.938 86.385, 241.375 86.158, 240 86.158 C 238.625 86.158, 238.063 86.385, 238.750 86.662 M 85.179 92.382 C 83.756 96.317, 83.720 97, 84.934 97 C 85.447 97, 86.010 95.763, 86.184 94.250 C 86.457 91.874, 86.908 91.529, 89.500 91.710 C 91.150 91.826, 91.825 91.652, 91 91.325 C 90.175 90.998, 88.793 90.368, 87.929 89.925 C 86.733 89.313, 86.077 89.899, 85.179 92.382 M 308 90.932 C 308 91.628, 306.538 93.573, 304.750 95.254 C 302.481 97.388, 302.179 97.951, 303.750 97.120 C 306.345 95.747, 309.574 91.241, 308.635 90.302 C 308.286 89.953, 308 90.236, 308 90.932 M 290.813 93.683 C 291.534 93.972, 292.397 93.936, 292.729 93.604 C 293.061 93.272, 292.471 93.036, 291.417 93.079 C 290.252 93.127, 290.015 93.364, 290.813 93.683 M 345.232 97 C 345.232 98.925, 345.438 99.713, 345.689 98.750 C 345.941 97.787, 345.941 96.213, 345.689 95.250 C 345.438 94.287, 345.232 95.075, 345.232 97 M 87.150 95.950 C 87.370 96.610, 87.876 97.116, 88.275 97.075 C 89.471 96.951, 89.239 95.580, 87.950 95.150 C 87.290 94.930, 86.930 95.290, 87.150 95.950 M 92.500 96 C 92.160 96.550, 92.359 97, 92.941 97 C 93.523 97, 94 96.550, 94 96 C 94 95.450, 93.802 95, 93.559 95 C 93.316 95, 92.840 95.450, 92.500 96 M 79.356 99.499 C 79.544 102.757, 81 102.758, 81 99.500 C 81 98.125, 80.598 97, 80.106 97 C 79.614 97, 79.276 98.125, 79.356 99.499 M 67 99.559 C 67 100.416, 66.596 100.868, 66.103 100.563 C 65.609 100.258, 63.803 100.289, 62.088 100.632 C 58.853 101.279, 58.313 103.241, 60.679 105.750 C 62.413 107.590, 63.305 107.273, 62.717 105.026 C 62.298 103.422, 62.837 102.934, 65.601 102.415 C 68.041 101.957, 69 101.245, 69 99.889 C 69 98.850, 68.550 98, 68 98 C 67.450 98, 67 98.702, 67 99.559 M 313.507 99.989 C 313.157 100.555, 313.558 100.723, 314.448 100.382 C 316.180 99.717, 316.497 99, 315.059 99 C 314.541 99, 313.843 99.445, 313.507 99.989 M 307.429 102 C 307.429 103.034, 307.965 103.567, 308.714 103.279 C 309.421 103.008, 310 102.432, 310 102 C 310 101.568, 309.421 100.992, 308.714 100.721 C 307.965 100.433, 307.429 100.966, 307.429 102 M 73.275 103 C 73.358 104.100, 73.732 105, 74.106 105 C 75.069 105, 75.983 102.316, 75.264 101.598 C 74.060 100.394, 73.128 101.051, 73.275 103 M 288.813 101.683 C 289.534 101.972, 290.397 101.936, 290.729 101.604 C 291.061 101.272, 290.471 101.036, 289.417 101.079 C 288.252 101.127, 288.015 101.364, 288.813 101.683 M 53.625 102.798 C 53.354 103.237, 53.455 104.119, 53.850 104.758 C 54.345 105.558, 54.951 105.309, 55.793 103.960 C 56.797 102.352, 56.757 102, 55.567 102 C 54.770 102, 53.896 102.359, 53.625 102.798 M 81.583 102.866 C 81.152 103.563, 81.070 104.403, 81.400 104.733 C 82.295 105.628, 83.271 104.312, 82.787 102.862 C 82.449 101.846, 82.213 101.846, 81.583 102.866 M 312.333 103.405 C 312.333 104.177, 312.931 104.580, 313.661 104.300 C 314.391 104.020, 314.740 103.388, 314.435 102.895 C 313.589 101.526, 312.333 101.830, 312.333 103.405 M 77 104 C 77 104.550, 77.477 105, 78.059 105 C 78.641 105, 78.840 104.550, 78.500 104 C 78.160 103.450, 77.684 103, 77.441 103 C 77.198 103, 77 103.450, 77 104 M 170.459 105.067 C 170.096 105.653, 170.014 106.348, 170.276 106.610 C 170.538 106.872, 171.019 106.392, 171.345 105.543 C 172.021 103.781, 171.445 103.471, 170.459 105.067 M 57.499 107.002 C 57.113 107.626, 56.210 107.911, 55.493 107.636 C 54.077 107.092, 50.621 110.288, 51.583 111.250 C 51.907 111.573, 51.243 112.335, 50.109 112.942 C 48.974 113.549, 47.528 115.013, 46.895 116.196 L 45.744 118.346 48.507 116.173 C 50.026 114.978, 51.911 114, 52.694 114 C 53.477 114, 53.843 113.555, 53.507 113.011 C 53.157 112.445, 53.558 112.277, 54.448 112.618 C 55.468 113.010, 56 112.643, 56 111.548 C 56 110.632, 56.399 110.128, 56.886 110.430 C 57.374 110.731, 58.031 109.990, 58.347 108.782 C 59.001 106.281, 58.541 105.315, 57.499 107.002 M 284.904 107.615 C 283.744 109.013, 283.818 109.181, 285.449 108.865 C 286.486 108.664, 287.522 107.938, 287.750 107.250 C 288.344 105.466, 286.490 105.704, 284.904 107.615 M 175.667 107.667 C 174.303 109.030, 175.065 110.114, 176.963 109.512 C 178.529 109.015, 179.234 109.623, 180.442 112.516 C 181.276 114.511, 182.412 115.863, 182.968 115.520 C 183.523 115.177, 183.765 115.482, 183.505 116.198 C 182.962 117.697, 190.556 130, 192.024 130 C 193.405 130, 193.236 127.399, 191.750 125.783 C 189.772 123.630, 188 120.168, 188 118.455 C 188 117.590, 187.563 117.152, 187.029 117.482 C 186.495 117.812, 185.772 116.942, 185.423 115.548 C 185.073 114.154, 184.385 113.262, 183.893 113.566 C 183.402 113.870, 183 113.449, 183 112.632 C 183 111.814, 181.814 110.212, 180.365 109.073 C 177.551 106.859, 176.722 106.611, 175.667 107.667 M 300.500 108 C 298.677 108.783, 298.721 108.859, 301 108.859 C 302.375 108.859, 304.400 108.473, 305.500 108 C 307.323 107.217, 307.279 107.141, 305 107.141 C 303.625 107.141, 301.600 107.527, 300.500 108 M 362 108.139 C 362 108.612, 363.125 109, 364.500 109 C 365.875 109, 367 108.827, 367 108.617 C 367 108.406, 365.875 108.018, 364.500 107.755 C 363.125 107.492, 362 107.665, 362 108.139 M 391.269 107.693 C 392.242 107.947, 393.592 107.930, 394.269 107.656 C 394.946 107.382, 394.150 107.175, 392.500 107.195 C 390.850 107.215, 390.296 107.439, 391.269 107.693 M 372 108.383 C 372 108.594, 372.900 109.002, 374 109.290 C 375.100 109.577, 376 109.405, 376 108.906 C 376 108.408, 375.100 108, 374 108 C 372.900 108, 372 108.173, 372 108.383 M 62 114 C 62 114.550, 62.450 115, 63 115 C 63.550 115, 64 114.550, 64 114 C 64 113.450, 63.550 113, 63 113 C 62.450 113, 62 113.450, 62 114 M 116.274 115.126 C 115.647 115.753, 114.128 116.319, 112.899 116.383 C 111.671 116.448, 110.471 117.085, 110.233 117.799 C 109.902 118.794, 110.921 118.963, 114.593 118.523 C 120.283 117.840, 120.859 117.431, 118.898 115.469 C 117.787 114.358, 117.128 114.272, 116.274 115.126 M 298.500 116 C 297.505 117.100, 297.102 118, 297.604 118 C 298.107 118, 299.081 117.100, 299.768 116 C 300.455 114.900, 300.858 114, 300.663 114 C 300.469 114, 299.495 114.900, 298.500 116 M 50.500 121 C 50.160 121.550, 50.359 122, 50.941 122 C 51.523 122, 52 121.550, 52 121 C 52 120.450, 51.802 120, 51.559 120 C 51.316 120, 50.840 120.450, 50.500 121 M 376.125 137.417 C 376.056 147.271, 376.211 155.122, 376.469 154.864 C 377.355 153.978, 377.824 128.499, 377.037 124 C 376.501 120.932, 376.211 125.201, 376.125 137.417 M 133.558 121.907 C 133.249 122.405, 133.898 122.578, 134.999 122.290 C 137.334 121.679, 137.629 121, 135.559 121 C 134.766 121, 133.866 121.408, 133.558 121.907 M 62 123 C 61.175 123.533, 60.950 123.969, 61.500 123.969 C 62.050 123.969, 63.175 123.533, 64 123 C 64.825 122.467, 65.050 122.031, 64.500 122.031 C 63.950 122.031, 62.825 122.467, 62 123 M 50 126 C 50 126.550, 50.450 127, 51 127 C 51.550 127, 52 126.550, 52 126 C 52 125.450, 51.550 125, 51 125 C 50.450 125, 50 125.450, 50 126 M 44.768 127.168 C 45.350 127.750, 46.415 128.028, 47.137 127.788 C 47.886 127.538, 47.432 127.085, 46.080 126.731 C 44.417 126.296, 44.026 126.426, 44.768 127.168 M 52.458 128.068 C 52.095 128.656, 51.145 128.886, 50.347 128.580 C 49.537 128.269, 49.166 128.459, 49.507 129.011 C 50.404 130.463, 52.576 130.216, 54 128.500 C 54.785 127.554, 54.852 127, 54.181 127 C 53.597 127, 52.821 127.481, 52.458 128.068 M 404 130.393 C 404 132.089, 406.704 133.287, 407.527 131.956 C 407.852 131.430, 407.840 130.550, 407.500 130 C 406.576 128.505, 404 128.794, 404 130.393 M 63.529 131.614 C 62.819 132.324, 61.957 132.624, 61.614 132.281 C 61.271 131.937, 58.367 132.938, 55.161 134.504 C 49.436 137.301, 45.989 141.555, 47.486 143.977 C 47.833 144.539, 47.416 145, 46.559 145 C 45.702 145, 45 144.598, 45 144.107 C 45 143.616, 44.348 142.964, 43.551 142.658 C 42.419 142.224, 42.286 142.583, 42.942 144.301 C 43.490 145.735, 44.508 146.418, 45.870 146.266 C 47.665 146.064, 47.905 146.479, 47.585 149.230 C 47.380 150.990, 46.712 152.596, 46.100 152.800 C 44.611 153.296, 45.741 155, 47.559 155 C 48.352 155, 49.007 154.213, 49.015 153.250 C 49.028 151.754, 49.172 151.718, 50 153 C 50.784 154.213, 50.972 154.069, 50.985 152.250 C 50.993 151.012, 51.480 150, 52.067 150 C 52.676 150, 52.865 150.851, 52.506 151.982 C 51.942 153.758, 52.310 153.680, 56.049 151.232 C 58.344 149.729, 60.388 148.593, 60.592 148.707 C 60.797 148.820, 62.539 148.255, 64.464 147.451 C 66.389 146.646, 68.310 146.044, 68.732 146.112 C 71.721 146.597, 74.004 145.794, 74.030 144.250 C 74.059 142.583, 74.109 142.583, 75.080 144.250 C 76.477 146.648, 79.721 146.454, 80.524 143.925 C 80.886 142.783, 80.917 141.583, 80.591 141.258 C 80.266 140.933, 80 141.247, 80 141.956 C 80 142.801, 79.569 142.935, 78.750 142.344 C 78.063 141.848, 75.644 141.456, 73.376 141.472 C 70.272 141.493, 69.306 141.129, 69.467 140 C 69.585 139.175, 70.653 138.356, 71.841 138.180 C 74.225 137.828, 74.653 136.053, 72.800 134.200 C 71.870 133.270, 71.869 133, 72.797 133 C 73.456 133, 74.614 134.463, 75.371 136.250 L 76.747 139.500 76.790 134.823 L 76.833 130.146 70.827 130.234 C 67.365 130.285, 64.273 130.870, 63.529 131.614 M 79 131 C 79 131.550, 79.477 132, 80.059 132 C 80.641 132, 80.840 131.550, 80.500 131 C 80.160 130.450, 79.684 130, 79.441 130 C 79.198 130, 79 130.450, 79 131 M 195.105 136.453 C 196.284 138.451, 197.458 139.875, 197.715 139.618 C 198.459 138.875, 195.629 133.690, 194.231 133.234 C 193.468 132.986, 193.817 134.271, 195.105 136.453 M 79 137.559 C 79 138.416, 79.457 138.835, 80.016 138.490 C 80.575 138.144, 80.774 137.443, 80.457 136.931 C 79.600 135.544, 79 135.802, 79 137.559 M 83 137 C 82.099 137.582, 81.975 137.975, 82.691 137.985 C 83.346 137.993, 84.160 137.550, 84.500 137 C 85.267 135.758, 84.921 135.758, 83 137 M 55.158 139 C 55.158 140.375, 55.385 140.938, 55.662 140.250 C 55.940 139.563, 55.940 138.438, 55.662 137.750 C 55.385 137.063, 55.158 137.625, 55.158 139 M 208 139.474 C 208 139.735, 209.350 140.647, 211 141.500 C 212.650 142.353, 214 142.794, 214 142.480 C 214 142.166, 215.145 143.055, 216.545 144.455 C 219.283 147.192, 220.524 147.579, 221.500 146 C 221.840 145.450, 221.641 145, 221.059 145 C 220.477 145, 220 144.334, 220 143.519 C 220 142.705, 218.762 141.767, 217.250 141.436 C 215.738 141.105, 213.195 140.422, 211.601 139.917 C 208.266 138.862, 208 138.829, 208 139.474 M 44.500 141 C 44.160 141.550, 44.359 142, 44.941 142 C 45.523 142, 46 141.550, 46 141 C 46 140.450, 45.802 140, 45.559 140 C 45.316 140, 44.840 140.450, 44.500 141 M 312.029 140.961 C 311.220 141.473, 310.863 142.196, 311.236 142.569 C 312.151 143.484, 315 142.320, 315 141.031 C 315 139.761, 313.965 139.737, 312.029 140.961 M 71 142.882 C 71 143.432, 71.450 144.160, 72 144.500 C 72.550 144.840, 73 144.668, 73 144.118 C 73 143.568, 72.550 142.840, 72 142.500 C 71.450 142.160, 71 142.332, 71 142.882 M 54 144.469 C 54 145.363, 54.586 145.712, 55.500 145.362 C 56.325 145.045, 57 144.384, 57 143.893 C 57 143.402, 56.325 143, 55.500 143 C 54.675 143, 54 143.661, 54 144.469 M 50 145 C 50 145.550, 50.675 146, 51.500 146 C 52.325 146, 53 145.550, 53 145 C 53 144.450, 52.325 144, 51.500 144 C 50.675 144, 50 144.450, 50 145 M 154.500 145 C 154.840 145.550, 155.568 146, 156.118 146 C 156.668 146, 156.840 145.550, 156.500 145 C 156.160 144.450, 155.432 144, 154.882 144 C 154.332 144, 154.160 144.450, 154.500 145 M 40.638 146.500 C 40.955 147.325, 41.391 148, 41.607 148 C 41.823 148, 42 147.325, 42 146.500 C 42 145.675, 41.564 145, 41.031 145 C 40.499 145, 40.322 145.675, 40.638 146.500 M 52 148.059 C 52 148.641, 52.450 148.840, 53 148.500 C 53.550 148.160, 54 147.684, 54 147.441 C 54 147.198, 53.550 147, 53 147 C 52.450 147, 52 147.477, 52 148.059 M 49 149 C 49 149.550, 49.450 150, 50 150 C 50.550 150, 51 149.550, 51 149 C 51 148.450, 50.550 148, 50 148 C 49.450 148, 49 148.450, 49 149 M 39.731 151.920 C 39.296 153.583, 39.426 153.974, 40.168 153.232 C 40.750 152.650, 41.028 151.585, 40.788 150.863 C 40.538 150.114, 40.085 150.568, 39.731 151.920 M 68 151.249 C 52.309 158.240, 52.740 157.952, 53.358 161.039 C 53.780 163.151, 53.472 164.207, 52.219 164.937 C 51.273 165.488, 51.047 165.953, 51.715 165.970 C 52.384 165.986, 54.410 164.762, 56.218 163.250 C 60.220 159.903, 62.933 158.132, 65.250 157.354 C 66.213 157.031, 67 156.465, 67 156.096 C 67 155.727, 68.013 155.350, 69.250 155.258 C 70.487 155.166, 72.353 154.058, 73.395 152.795 C 74.513 151.442, 75.455 150.969, 75.693 151.644 C 75.915 152.273, 76.969 152.559, 78.037 152.280 C 79.104 152.001, 79.731 151.374, 79.430 150.886 C 78.670 149.656, 71.030 149.899, 68 151.249 M 408.813 151.683 C 409.534 151.972, 410.397 151.936, 410.729 151.604 C 411.061 151.272, 410.471 151.036, 409.417 151.079 C 408.252 151.127, 408.015 151.364, 408.813 151.683 M 41.731 153.920 C 41.296 155.583, 41.426 155.974, 42.168 155.232 C 42.750 154.650, 43.028 153.585, 42.788 152.863 C 42.538 152.114, 42.085 152.568, 41.731 153.920 M 285.441 156.450 C 283.566 157.851, 283.577 157.881, 285.750 157.334 C 286.988 157.022, 288 156.369, 288 155.883 C 288 154.693, 287.705 154.759, 285.441 156.450 M 76.654 157.774 C 75.466 158.962, 74.705 159.153, 74.214 158.386 C 73.775 157.703, 72.729 157.584, 71.500 158.078 C 69.575 158.853, 69.587 158.909, 71.806 159.573 L 74.111 160.262 71.165 163.143 C 67.461 166.764, 55.290 185.016, 54.866 187.584 C 54.692 188.638, 54.921 190.092, 55.375 190.817 C 55.829 191.541, 55.906 192.428, 55.546 192.788 C 55.186 193.148, 54.473 192.780, 53.961 191.971 C 53.255 190.855, 53.027 191.164, 53.015 193.250 C 53.007 194.762, 53.450 196, 54 196 C 54.550 196, 55 195.640, 55 195.201 C 55 194.761, 56.575 194.585, 58.500 194.810 C 60.425 195.035, 62 195.568, 62 195.994 C 62 196.877, 51.620 198.538, 48.325 198.182 C 47.129 198.053, 45.905 198.345, 45.605 198.831 C 45.305 199.316, 45.487 204.390, 46.010 210.107 C 46.533 215.823, 47.262 224.428, 47.629 229.229 C 48.113 235.559, 48.766 238.383, 50.003 239.502 C 51.296 240.673, 55.198 241.197, 66.137 241.669 C 78.737 242.214, 80.773 242.084, 82.211 240.646 C 83.116 239.741, 84.339 239, 84.929 239 C 85.518 239, 86 238.325, 86 237.500 C 86 236.667, 85.111 236, 84 236 C 82.900 236, 82 236.450, 82 237 C 82 237.550, 81.550 238, 81 238 C 80.450 238, 80 236.965, 80 235.701 C 80 234.014, 79.134 233.089, 76.750 232.228 C 73.709 231.130, 59.189 230.371, 56.113 231.149 C 54.084 231.663, 52.859 226.238, 54.026 221.903 C 54.564 219.906, 55.075 216.453, 55.162 214.229 C 55.344 209.590, 56.650 209.542, 59.241 214.080 C 60.847 216.894, 63.725 217.332, 62.678 214.603 C 61.911 212.605, 65.531 213.019, 66.816 215.077 C 67.809 216.667, 67.746 217, 66.449 217 C 65.443 217, 65.163 217.448, 65.667 218.250 C 66.099 218.938, 66.554 221.033, 66.679 222.907 C 66.804 224.781, 67.138 226.918, 67.422 227.657 C 68.027 229.233, 75.562 229.518, 76.500 228 C 76.840 227.450, 76.459 227, 75.653 227 C 74.240 227, 74.254 225.162, 75.698 221 C 75.985 220.175, 76.326 218.031, 76.456 216.237 C 76.742 212.300, 77.193 211.753, 79.437 212.614 C 80.463 213.008, 80.976 213.985, 80.703 215.027 C 79.872 218.204, 81.612 219.343, 87.416 219.423 C 91.390 219.478, 93 219.123, 93 218.191 C 93 217.471, 93.397 217.127, 93.882 217.427 C 94.368 217.727, 95.883 217.094, 97.249 216.019 C 98.615 214.945, 99.984 214.318, 100.292 214.626 C 100.600 214.934, 101.580 213.779, 102.469 212.060 C 105.031 207.106, 106.034 209.472, 103.921 215.485 C 102.864 218.491, 102 222.117, 102 223.542 C 102 225.611, 101.626 226.016, 100.148 225.547 C 98.519 225.030, 98.343 225.434, 98.690 228.898 C 99.005 232.046, 98.724 232.931, 97.292 233.303 C 95.591 233.744, 95.592 233.774, 97.317 233.884 C 98.728 233.974, 98.978 234.503, 98.435 236.250 C 98.050 237.488, 97.345 238.650, 96.868 238.833 C 94.349 239.801, 96.615 241, 100.961 241 C 104.777 241, 106.393 241.505, 107.961 243.189 C 109.564 244.909, 110 245.039, 110 243.796 C 110 241.842, 111.183 241.371, 118.343 240.476 C 122.260 239.987, 124 240.113, 124 240.885 C 124 241.498, 124.675 242, 125.500 242 C 126.325 242, 127 241.571, 127 241.046 C 127 240.105, 133.393 240.507, 135.087 241.554 C 135.567 241.850, 136.799 241.643, 137.826 241.093 C 139.133 240.394, 140.077 240.455, 140.972 241.297 C 141.969 242.235, 142.351 242.225, 142.708 241.250 C 142.960 240.563, 143.595 240, 144.119 240 C 144.673 240, 144.612 240.856, 143.972 242.052 C 142.920 244.019, 143.085 244.086, 147.945 243.660 C 150.734 243.416, 153.268 243.625, 153.577 244.124 C 153.886 244.624, 154.651 244.716, 155.278 244.328 C 157.133 243.182, 172.044 243.120, 171.339 244.261 C 170.942 244.903, 172.907 245.102, 176.826 244.819 C 181.314 244.494, 183.066 244.731, 183.443 245.711 C 183.861 246.801, 184.331 246.812, 186.008 245.773 C 187.549 244.818, 188.242 244.790, 188.784 245.661 C 189.271 246.442, 190.837 246.578, 193.573 246.078 C 195.809 245.669, 199.581 245.488, 201.956 245.676 C 204.420 245.871, 206.966 245.477, 207.887 244.759 C 209.308 243.650, 209.342 243.702, 208.171 245.198 C 206.121 247.816, 208.061 250.210, 212.448 250.476 C 214.830 250.621, 216.364 250.214, 216.695 249.351 C 216.981 248.608, 218.048 248, 219.068 248 C 220.088 248, 221.789 247.070, 222.848 245.933 L 224.773 243.866 226.131 246.933 C 226.877 248.620, 228.053 250, 228.744 250 C 229.435 250, 230 250.502, 230 251.115 C 230 251.859, 230.748 251.775, 232.250 250.860 C 233.488 250.106, 235.930 249.508, 237.678 249.529 C 239.426 249.551, 240.776 249.109, 240.678 248.547 C 240.580 247.985, 241.958 247.600, 243.739 247.692 L 246.979 247.859 245.429 244.862 C 244.576 243.213, 244.095 241.332, 244.360 240.682 C 244.698 239.854, 244.866 239.892, 244.921 240.809 C 244.965 241.538, 245.513 241.801, 246.158 241.403 C 246.951 240.912, 247.138 241.366, 246.751 242.844 C 246.140 245.182, 246.962 245.638, 248.685 243.915 C 249.464 243.136, 250.219 243.733, 251.369 246.037 C 252.248 247.800, 252.724 249.638, 252.425 250.121 C 252.126 250.605, 252.310 251, 252.834 251 C 254.013 251, 255.194 248.122, 254.485 246.976 C 254.199 246.512, 255.322 246.171, 256.982 246.219 C 258.642 246.266, 260 246.587, 260 246.933 C 260 247.279, 261.351 248.071, 263.002 248.695 C 265.127 249.497, 265.826 250.291, 265.395 251.414 C 264.985 252.482, 265.346 253, 266.500 253 C 267.613 253, 268.012 252.474, 267.638 251.500 C 267.288 250.586, 267.637 250, 268.531 250 C 269.339 250, 270 249.330, 270 248.512 C 270 247.571, 269.187 247.111, 267.791 247.262 C 266.369 247.415, 265.452 246.878, 265.218 245.754 C 264.959 244.508, 265.306 244.180, 266.427 244.610 C 267.303 244.947, 268 244.698, 268 244.048 C 268 243.407, 268.450 243.160, 269 243.500 C 269.550 243.840, 270 243.641, 270 243.059 C 270 242.477, 270.675 242, 271.500 242 C 272.325 242, 272.888 241.440, 272.750 240.755 C 272.582 239.920, 274.145 239.428, 277.500 239.260 C 280.250 239.122, 283.962 238.791, 285.750 238.524 C 287.538 238.257, 289 238.412, 289 238.867 C 289 239.323, 290.417 239.736, 292.150 239.785 C 299.190 239.985, 303 241.121, 303 243.021 C 303 244.035, 303.907 245.153, 305.015 245.505 C 307.586 246.321, 306.838 247.512, 302.890 248.888 C 300.053 249.878, 299.898 249.828, 301.138 248.323 C 302.373 246.827, 302.284 246.788, 300.185 247.906 C 298.207 248.960, 298.062 249.374, 299.185 250.757 C 300.315 252.147, 300.256 252.283, 298.765 251.724 C 297.248 251.156, 297.185 251.334, 298.265 253.131 C 299.432 255.075, 300.132 255.156, 311 254.599 C 317.325 254.274, 323.063 254.026, 323.750 254.046 C 328.200 254.178, 330 254.645, 330 255.667 C 330 256.309, 332.363 257.350, 335.250 257.981 C 354.502 262.185, 359.273 262.970, 365.643 262.984 C 371.244 262.997, 372.917 262.659, 373.393 261.418 C 374.416 258.752, 374.036 245.593, 372.890 244 C 371.980 242.734, 371.899 242.773, 372.374 244.250 C 372.949 246.036, 371.935 246.602, 370.583 245.250 C 370.171 244.838, 369.083 244.484, 368.167 244.465 C 367.250 244.445, 365.452 243.848, 364.172 243.138 C 362.891 242.427, 361.233 242.080, 360.486 242.367 C 359.740 242.653, 358.911 242.350, 358.644 241.694 C 358.274 240.786, 358.139 240.792, 358.079 241.719 C 358.036 242.389, 357.319 242.676, 356.487 242.357 C 355.655 242.037, 354.349 242.295, 353.585 242.930 C 352.540 243.797, 352.099 243.798, 351.812 242.936 C 351.601 242.304, 349.870 241.660, 347.965 241.503 C 346.059 241.347, 344.500 241.139, 344.500 241.041 C 344.500 240.943, 343.262 240.699, 341.750 240.499 C 340.238 240.300, 339 240.489, 339 240.919 C 339 241.349, 336.638 241.322, 333.750 240.859 C 328.315 239.987, 318.086 241.243, 317.056 242.910 C 316.748 243.408, 314.760 244.142, 312.638 244.540 C 309.025 245.218, 308.824 245.130, 309.456 243.138 C 310.006 241.405, 309.810 241.136, 308.392 241.680 C 307.032 242.202, 306.800 241.964, 307.326 240.592 C 307.697 239.626, 308 238.648, 308 238.418 C 308 238.188, 309.350 238, 311 238 C 312.650 238, 314 237.598, 314 237.107 C 314 235.721, 311.476 235.086, 309.909 236.077 C 307.959 237.312, 306 237.220, 306 235.893 C 306 235.284, 306.675 235.045, 307.500 235.362 C 308.325 235.678, 308.996 235.614, 308.991 235.219 C 308.977 234.186, 293.016 226.651, 292.319 227.348 C 291.999 227.668, 290.796 227.270, 289.646 226.465 C 288.496 225.659, 286.807 225, 285.893 225 C 284.978 225, 283.470 223.840, 282.541 222.422 C 281.572 220.944, 280.256 220.071, 279.458 220.378 C 278.691 220.672, 277.798 220.482, 277.473 219.956 C 277.148 219.430, 275.968 219, 274.851 219 C 271.825 219, 254.992 212.974, 252.822 211.114 C 251.787 210.226, 250.166 209.425, 249.220 209.333 C 247.401 209.156, 242.496 207.512, 237.489 205.402 C 235.833 204.704, 232.568 203.903, 230.232 203.621 C 227.897 203.340, 225.539 202.833, 224.993 202.496 C 224.447 202.158, 223.472 202.208, 222.827 202.607 C 221.211 203.605, 216.075 203.686, 216.683 202.704 C 216.953 202.266, 215.898 202.095, 214.337 202.323 C 212.777 202.551, 210.150 202.196, 208.500 201.533 C 206.850 200.870, 203.925 200.257, 202 200.170 C 197.621 199.972, 190.735 197.598, 191.710 196.623 C 192.111 196.222, 191.665 196.191, 190.720 196.554 C 189.634 196.971, 189 196.732, 189 195.907 C 189 194.890, 188.733 194.867, 187.800 195.800 C 186.095 197.505, 185.448 197.295, 185.273 194.978 C 185.190 193.866, 185.544 193.218, 186.061 193.537 C 186.577 193.857, 187 193.686, 187 193.159 C 187 192.631, 184.750 191.660, 182 191 C 179.250 190.340, 177 189.466, 177 189.057 C 177 188.649, 171.713 186.610, 165.250 184.527 C 158.787 182.444, 153.073 180.348, 152.550 179.870 C 150.711 178.186, 142.474 179.837, 138.866 182.614 C 138.115 183.192, 136.066 184.233, 134.312 184.928 C 132.559 185.623, 129.278 187.948, 127.020 190.095 C 121.939 194.929, 120 195.178, 123.535 190.543 C 124.985 188.642, 125.881 186.617, 125.527 186.043 C 125.172 185.469, 125.359 185, 125.941 185 C 126.523 185, 127 185.477, 127 186.059 C 127 186.641, 127.457 186.835, 128.016 186.490 C 128.575 186.144, 128.731 185.373, 128.362 184.776 C 127.986 184.169, 128.151 183.976, 128.736 184.337 C 129.311 184.692, 130.512 183.868, 131.405 182.505 C 132.921 180.190, 132.904 179.904, 131.145 178.145 C 130.108 177.108, 127.968 176.301, 126.381 176.349 C 124.611 176.403, 123.596 175.967, 123.750 175.218 C 123.888 174.548, 123.325 174, 122.500 174 C 121.675 174, 121 174.540, 121 175.200 C 121 176.111, 120.701 176.101, 119.758 175.158 C 118.770 174.170, 118.820 173.725, 120.008 172.974 C 120.829 172.455, 121.275 171.989, 121 171.939 C 120.725 171.888, 119.713 171.696, 118.750 171.512 C 117.593 171.290, 117 171.804, 117 173.029 C 117 174.048, 116.550 175.160, 116 175.500 C 115.450 175.840, 115 175.416, 115 174.559 C 115 173.702, 114.600 173, 114.111 173 C 113.622 173, 113.243 172.438, 113.269 171.750 C 113.411 167.911, 112.863 167.203, 109.439 166.803 C 107.481 166.574, 105.650 166.758, 105.370 167.210 C 105.091 167.662, 104.443 167.774, 103.931 167.457 C 103.419 167.141, 103 167.584, 103 168.441 C 103 169.298, 102.550 170, 102 170 C 100.650 170, 100.738 168.662, 102.183 167.217 C 103.907 165.493, 102.112 164.364, 97.191 164.077 C 96.471 164.034, 96.119 163.616, 96.410 163.146 C 96.700 162.677, 95.751 161.752, 94.300 161.091 C 91.956 160.023, 91.807 160.062, 92.954 161.445 C 93.780 162.440, 93.853 163, 93.158 163 C 92.560 163, 91.610 162.139, 91.046 161.087 C 90.367 159.817, 89.159 159.268, 87.455 159.456 C 85.622 159.657, 85.037 159.345, 85.412 158.369 C 86.302 156.048, 84.264 156.854, 81.916 159.750 C 80.598 161.377, 79.953 161.758, 80.337 160.685 C 80.863 159.217, 80.605 158.990, 78.994 159.502 C 76.862 160.179, 76.149 158.471, 78.250 157.720 C 78.938 157.475, 79.248 156.998, 78.940 156.661 C 78.633 156.324, 77.604 156.824, 76.654 157.774 M 45.183 158.217 C 44.532 158.868, 44 159.792, 44 160.271 C 44 160.751, 44.729 160.414, 45.619 159.524 C 46.510 158.633, 47.042 157.709, 46.802 157.469 C 46.563 157.229, 45.834 157.566, 45.183 158.217 M 40.500 159 C 40.160 159.550, 40.359 160, 40.941 160 C 41.523 160, 42 159.550, 42 159 C 42 158.450, 41.802 158, 41.559 158 C 41.316 158, 40.840 158.450, 40.500 159 M 65.884 161.045 C 63.706 162.264, 57.072 172.032, 56.537 174.807 C 56.018 177.501, 57.675 176.764, 59.131 173.653 C 61.695 168.175, 63.789 165.116, 64.521 165.777 C 64.961 166.175, 65.016 165.968, 64.644 165.318 C 64.267 164.661, 64.945 163.452, 66.173 162.591 C 68.626 160.873, 68.396 159.639, 65.884 161.045 M 85.441 165.481 C 83.762 166.762, 83.703 167.096, 85 167.955 C 86.147 168.715, 86.576 168.481, 86.821 166.960 C 86.998 165.865, 87.561 165.229, 88.071 165.544 C 88.582 165.860, 89 165.641, 89 165.059 C 89 163.586, 87.727 163.737, 85.441 165.481 M 376.158 166 C 376.158 167.375, 376.385 167.938, 376.662 167.250 C 376.940 166.563, 376.940 165.438, 376.662 164.750 C 376.385 164.063, 376.158 164.625, 376.158 166 M 46.872 170.750 C 45.629 172.336, 45.664 172.371, 47.250 171.128 C 48.916 169.821, 49.445 169, 48.622 169 C 48.415 169, 47.627 169.787, 46.872 170.750 M 43.506 174.994 C 42.507 176.097, 42.155 177, 42.723 177 C 43.981 177, 46.475 174.142, 45.803 173.470 C 45.538 173.205, 44.504 173.890, 43.506 174.994 M 376.158 175 C 376.158 176.375, 376.385 176.938, 376.662 176.250 C 376.940 175.563, 376.940 174.438, 376.662 173.750 C 376.385 173.063, 376.158 173.625, 376.158 175 M 209 175.294 C 209 176.141, 208.477 177.008, 207.839 177.220 C 207.152 177.449, 207.958 179.016, 209.809 181.054 C 213.186 184.770, 214.106 183.621, 211.250 179.253 C 210.287 177.782, 210.063 176.924, 210.750 177.348 C 212.515 178.436, 212.309 176.502, 210.500 175 C 209.277 173.985, 209 174.040, 209 175.294 M 131.656 176.747 C 131.366 177.216, 132.039 178.168, 133.150 178.862 C 134.900 179.954, 135.125 179.892, 134.835 178.395 C 134.461 176.464, 132.469 175.432, 131.656 176.747 M 245.429 178.061 C 245.429 179.480, 245.940 179.987, 247.072 179.691 C 247.976 179.455, 249.455 179.675, 250.358 180.180 C 253.287 181.820, 252.092 179.485, 249.096 177.716 C 245.457 175.566, 245.429 175.569, 245.429 178.061 M 220.813 178.683 C 221.534 178.972, 222.397 178.936, 222.729 178.604 C 223.061 178.272, 222.471 178.036, 221.417 178.079 C 220.252 178.127, 220.015 178.364, 220.813 178.683 M 50 182 C 50 182.550, 50.477 183, 51.059 183 C 51.641 183, 51.840 182.550, 51.500 182 C 51.160 181.450, 50.684 181, 50.441 181 C 50.198 181, 50 181.450, 50 182 M 189.232 183 C 189.919 184.100, 191.183 185, 192.041 185 C 192.898 185, 194.140 185.540, 194.800 186.200 C 195.486 186.886, 196 186.966, 196 186.388 C 196 185.203, 190.564 181, 189.032 181 C 188.367 181, 188.440 181.732, 189.232 183 M 69 189 C 69 189.550, 69.477 190, 70.059 190 C 70.641 190, 70.840 189.550, 70.500 189 C 70.160 188.450, 69.684 188, 69.441 188 C 69.198 188, 69 188.450, 69 189 M 80.500 193 C 80.840 193.550, 80.079 194.053, 78.809 194.118 C 76.874 194.217, 76.985 194.360, 79.500 195 C 84.114 196.174, 96.226 196.174, 95.500 195 C 95.160 194.450, 92.235 194, 89 194 C 85.765 194, 82.840 193.550, 82.500 193 C 82.160 192.450, 81.432 192, 80.882 192 C 80.332 192, 80.160 192.450, 80.500 193 M 57.813 193.683 C 58.534 193.972, 59.397 193.936, 59.729 193.604 C 60.061 193.272, 59.471 193.036, 58.417 193.079 C 57.252 193.127, 57.015 193.364, 57.813 193.683 M 363.500 199 C 363.160 199.550, 363.359 200, 363.941 200 C 364.523 200, 365 199.550, 365 199 C 365 198.450, 364.802 198, 364.559 198 C 364.316 198, 363.840 198.450, 363.500 199 M 426 199 C 426 199.550, 426.450 200, 427 200 C 427.550 200, 428 199.550, 428 199 C 428 198.450, 427.550 198, 427 198 C 426.450 198, 426 198.450, 426 199 M 85.750 204.662 C 86.438 204.940, 87.563 204.940, 88.250 204.662 C 88.938 204.385, 88.375 204.158, 87 204.158 C 85.625 204.158, 85.063 204.385, 85.750 204.662 M 372 209.941 C 372 210.459, 372.375 211.114, 372.833 211.397 C 373.292 211.680, 373.667 211.257, 373.667 210.456 C 373.667 209.655, 373.292 209, 372.833 209 C 372.375 209, 372 209.423, 372 209.941 M 368 211.110 C 366.761 212.001, 366.825 212.083, 368.371 211.579 C 369.870 211.091, 370.137 211.370, 369.714 212.985 C 369.306 214.548, 369.671 214.997, 371.344 214.985 C 372.908 214.974, 373.133 214.737, 372.165 214.123 C 371.430 213.657, 370.868 212.989, 370.915 212.638 C 371.301 209.750, 370.485 209.322, 368 211.110 M 303 237.393 C 303 237.609, 303.698 238.054, 304.552 238.382 C 305.442 238.723, 305.843 238.555, 305.493 237.989 C 304.906 237.038, 303 236.583, 303 237.393 M 409.524 237.810 C 409.236 238.098, 409 238.708, 409 239.167 C 409 240.283, 413.735 240.237, 414.429 239.114 C 415.017 238.164, 410.398 236.936, 409.524 237.810 M 87.571 238.886 C 87.270 239.373, 88.253 240.006, 89.756 240.294 C 92.820 240.879, 94.320 240.327, 93.457 238.931 C 92.726 237.747, 88.296 237.713, 87.571 238.886 M 306.500 244 C 306.840 244.550, 307.316 245, 307.559 245 C 307.802 245, 308 244.550, 308 244 C 308 243.450, 307.523 243, 306.941 243 C 306.359 243, 306.160 243.450, 306.500 244 M 386.446 248.250 C 386.698 251.137, 386.926 254.287, 386.952 255.250 C 386.978 256.212, 387.471 257, 388.048 257 C 388.845 257, 388.854 246.596, 388.059 243.250 C 388.027 243.113, 387.547 243, 386.994 243 C 386.389 243, 386.170 245.092, 386.446 248.250 M 262.638 251.500 C 262.322 252.325, 262.499 253, 263.031 253 C 263.564 253, 264 252.325, 264 251.500 C 264 250.675, 263.823 250, 263.607 250 C 263.391 250, 262.955 250.675, 262.638 251.500 M 289 251 C 289.825 251.533, 290.950 251.969, 291.500 251.969 C 292.050 251.969, 291.825 251.533, 291 251 C 290.175 250.467, 289.050 250.031, 288.500 250.031 C 287.950 250.031, 288.175 250.467, 289 251 M 110 256.500 C 110 257.325, 110.450 258, 111 258 C 111.550 258, 112 257.325, 112 256.500 C 112 255.675, 111.550 255, 111 255 C 110.450 255, 110 255.675, 110 256.500 M 124 258.941 C 124 259.459, 124.450 260.160, 125 260.500 C 125.550 260.840, 126 260.416, 126 259.559 C 126 258.702, 125.550 258, 125 258 C 124.450 258, 124 258.423, 124 258.941 M 123.531 267.950 C 123.208 268.472, 123.069 270.701, 123.222 272.903 C 123.449 276.165, 123.939 277.016, 125.868 277.502 C 128.859 278.254, 129.736 277.409, 128.319 275.139 C 127.632 274.040, 127.553 272.764, 128.108 271.771 C 128.601 270.891, 128.729 269.458, 128.395 268.586 C 127.730 266.854, 124.471 266.428, 123.531 267.950 M 49.638 273.500 C 49.955 274.325, 50.391 275, 50.607 275 C 50.823 275, 51 274.325, 51 273.500 C 51 272.675, 50.564 272, 50.031 272 C 49.499 272, 49.322 272.675, 49.638 273.500 M 107.178 274.682 C 107.452 276.967, 107.026 277.488, 104.299 278.198 C 100.595 279.163, 99.741 280.161, 100.632 282.484 C 101.091 283.679, 101.966 283.974, 103.731 283.531 C 108.240 282.400, 111.147 287.222, 106.750 288.539 C 105.513 288.910, 103.817 290.073, 102.983 291.124 C 101.844 292.557, 99.355 293.275, 93.014 293.998 C 87.509 294.626, 84.220 294.620, 83.581 293.981 C 83.042 293.442, 80.665 293, 78.300 293 C 74.189 293, 74 292.868, 74 290 C 74 288.350, 73.662 286.967, 73.250 286.926 C 71.023 286.705, 67.563 285.897, 67.172 285.505 C 66.925 285.258, 67.995 284.572, 69.549 283.981 L 72.376 282.907 69.436 281.119 C 65.838 278.931, 50.830 275.779, 49.642 276.962 C 49.170 277.432, 49.045 279.995, 49.364 282.658 C 50.131 289.052, 50.131 288.998, 49.403 292.750 C 48.687 296.445, 50.386 297.282, 51.434 293.750 L 52.102 291.500 53.053 293.842 C 54.132 296.501, 53.551 298, 51.441 298 C 49.134 298, 49.557 305.557, 52 308 C 53.100 309.100, 54.627 310, 55.393 310 C 56.159 310, 57.045 310.675, 57.362 311.500 C 58.091 313.400, 60.889 313.454, 61.607 311.582 C 62.042 310.448, 62.868 310.649, 65.715 312.582 C 69.848 315.386, 73.595 315.676, 76.123 313.389 C 77.669 311.989, 78.578 311.939, 83.033 313.008 C 86.335 313.800, 88.506 313.894, 89.129 313.271 C 90.306 312.094, 88.421 307.325, 85.717 304.638 C 83.889 302.821, 83.776 302.840, 81.102 305.402 C 79.595 306.846, 78.131 307.798, 77.850 307.516 C 77.568 307.235, 78.008 304.820, 78.828 302.149 C 80.270 297.449, 80.432 297.301, 83.909 297.507 C 89.191 297.820, 89.269 297.856, 88.584 299.641 C 88.238 300.543, 88.570 302.231, 89.322 303.391 C 90.074 304.551, 90.947 307.450, 91.261 309.833 C 91.953 315.086, 92.270 315.461, 94.849 314.081 C 95.960 313.486, 98.278 313, 100 313 C 101.722 313, 104.031 312.519, 105.130 311.931 C 106.586 311.151, 107.519 311.186, 108.572 312.060 C 111.803 314.741, 118.927 311.728, 126.106 304.644 C 128.781 302.005, 129 301.227, 129 294.378 C 129 287.031, 127.272 279, 125.691 279 C 123.360 279, 121.060 281.433, 119.113 285.960 C 117.920 288.732, 116.690 291, 116.380 291 C 116.069 291, 114.671 290.100, 113.273 289 C 111.874 287.900, 111.128 286.993, 111.615 286.985 C 112.102 286.976, 111.825 286.533, 111 286 C 110.051 285.387, 109.948 285.025, 110.719 285.015 C 111.389 285.007, 111.678 284.325, 111.362 283.500 C 110.938 282.397, 111.494 282, 113.459 282 C 117.278 282, 121.908 279.285, 121.987 277 C 121.996 276.725, 119.190 276.632, 115.752 276.793 C 111.483 276.994, 109.955 276.780, 110.936 276.120 C 112.125 275.318, 112.147 274.882, 111.063 273.576 C 108.935 271.012, 106.811 271.616, 107.178 274.682 M 52.710 283 C 53.262 285.110, 55.456 285.689, 56.500 284 C 57.578 282.256, 59.160 282.922, 58.544 284.861 C 57.838 287.087, 60.564 290.554, 63.750 291.480 C 68.599 292.890, 64.982 285.468, 59.253 282.250 C 58.029 281.563, 55.938 281, 54.607 281 C 52.680 281, 52.294 281.407, 52.710 283 M 375.357 287.513 C 375.037 288.345, 375.218 289.582, 375.758 290.263 C 376.298 290.943, 377.290 293.210, 377.964 295.300 C 378.637 297.391, 380.046 299.636, 381.094 300.291 C 382.142 300.945, 383 302.224, 383 303.132 C 383 304.098, 384.137 305.069, 385.740 305.471 C 387.247 305.849, 388.748 306.593, 389.076 307.124 C 389.882 308.427, 402.834 309.441, 407.497 308.566 L 411.244 307.864 408.372 304.837 C 406.792 303.172, 403.587 300.903, 401.250 299.795 C 398.913 298.686, 397 297.379, 397 296.890 C 397 296.400, 395.200 296, 393 296 C 388.375 296, 387.770 294.458, 391.750 292.816 L 394.500 291.681 392 291.087 C 390.625 290.760, 387.605 289.482, 385.290 288.246 C 380.423 285.650, 376.192 285.337, 375.357 287.513 M 122.564 288.707 C 122.022 290.132, 122.136 290.247, 123.124 289.267 C 123.808 288.588, 124.115 287.781, 123.807 287.474 C 123.499 287.166, 122.940 287.721, 122.564 288.707 M 114 297.878 C 114 300.132, 114.638 302.285, 115.524 303.020 C 117.750 304.867, 118.236 303.756, 117.461 298.592 C 116.581 292.718, 114 292.186, 114 297.878 M 243 296.069 C 243 296.581, 244.107 297, 245.461 297 C 246.815 297, 248.727 297.808, 249.711 298.796 C 252.817 301.913, 256.676 303.105, 259.500 301.818 C 262.394 300.499, 262.791 297.493, 260.250 296.134 C 257.968 294.913, 243 294.856, 243 296.069 M 61 297.393 C 61 298.159, 60.325 299.045, 59.500 299.362 C 57.467 300.142, 57.615 301.670, 59.965 304.193 C 61.569 305.914, 62.205 306.075, 63.421 305.065 C 64.241 304.385, 65.335 304.089, 65.851 304.408 C 67.492 305.422, 68.092 301.830, 66.778 298.861 C 65.441 295.840, 61 294.712, 61 297.393 M 108.079 297.583 C 108.127 298.748, 108.364 298.985, 108.683 298.188 C 108.972 297.466, 108.936 296.603, 108.604 296.271 C 108.272 295.939, 108.036 296.529, 108.079 297.583 M 72 300.700 C 72 304.799, 73.422 304.266, 74.538 299.750 C 75.067 297.608, 74.861 297, 73.608 297 C 72.420 297, 72 297.967, 72 300.700 M 196.223 304.557 C 193.251 306.638, 193.421 307.603, 196.979 308.843 C 201.257 310.334, 207 309.224, 207 306.904 C 207 303.217, 200.238 301.744, 196.223 304.557 M 255.122 305.879 C 252.918 307.314, 254.814 309, 258.632 309 C 261.439 309, 262.080 308.648, 261.815 307.250 C 261.446 305.303, 257.308 304.456, 255.122 305.879 M 59 307 C 59 307.550, 59.477 308, 60.059 308 C 60.641 308, 60.840 307.550, 60.500 307 C 60.160 306.450, 59.684 306, 59.441 306 C 59.198 306, 59 306.450, 59 307 M 70 309.500 C 70 310.325, 70.675 311, 71.500 311 C 72.325 311, 73 310.325, 73 309.500 C 73 308.675, 72.325 308, 71.500 308 C 70.675 308, 70 308.675, 70 309.500 M 54.667 314.667 C 53.669 315.664, 53.862 319.203, 54.879 318.575 C 56.026 317.866, 57.034 314, 56.073 314 C 55.666 314, 55.033 314.300, 54.667 314.667" stroke="none" fill="#3467df" fill-rule="evenodd"/>
</svg>