<svg xmlns="http://www.w3.org/2000/svg" width="32" height="16" viewBox="0 0 32 16" version="1.1">
	<rect x="0" y="0" width="100%" height="100%" fill="#bfbfbf" />
	<path d="M 1.889 1.211 C 2.599 2.152, 4.152 3.232, 5.340 3.609 C 7.454 4.281, 7.458 4.312, 5.500 5.078 C 2.280 6.336, 0.735 6.133, 1.349 4.532 C 1.659 3.725, 1.578 2.857, 1.168 2.604 C 0.759 2.351, 0.334 3.237, 0.223 4.572 C 0.113 5.907, 0.467 7, 1.011 7 C 1.555 7, 2 7.477, 2 8.059 C 2 8.641, 1.551 8.841, 1.003 8.502 C 0.361 8.105, 0.376 8.859, 1.044 10.615 C 1.615 12.117, 1.872 13.892, 1.615 14.561 C 1.278 15.438, 2.923 15.778, 7.500 15.778 C 12.077 15.778, 13.722 15.438, 13.385 14.561 C 13.128 13.892, 13.385 12.117, 13.956 10.615 C 14.624 8.859, 14.639 8.105, 13.997 8.502 C 13.449 8.841, 13 8.641, 13 8.059 C 13 7.477, 13.445 7, 13.989 7 C 14.533 7, 14.887 5.907, 14.777 4.572 C 14.666 3.237, 14.241 2.351, 13.832 2.604 C 13.422 2.857, 13.341 3.725, 13.651 4.532 C 14.265 6.133, 12.720 6.336, 9.500 5.078 C 7.542 4.312, 7.546 4.281, 9.660 3.609 C 10.848 3.232, 12.401 2.152, 13.111 1.211 C 14.207 -0.239, 14.190 -0.310, 13.002 0.750 C 11.241 2.320, 9.645 2.384, 10.595 0.845 C 11.041 0.124, 10.869 -0.037, 10.138 0.415 C 9.494 0.813, 9.197 1.510, 9.478 1.964 C 9.759 2.419, 9.429 2.996, 8.744 3.248 C 7.044 3.873, 4.868 3.023, 5.510 1.984 C 5.797 1.519, 5.506 0.813, 4.862 0.415 C 4.131 -0.037, 3.959 0.124, 4.405 0.845 C 5.355 2.384, 3.759 2.320, 1.998 0.750 C 0.810 -0.310, 0.793 -0.239, 1.889 1.211 M 3.534 7.963 C 1.488 10.224, 1.997 12.393, 4.944 13.970 C 6.522 14.815, 7.004 14.772, 7.015 13.785 C 7.027 12.781, 7.202 12.770, 7.815 13.735 C 8.422 14.691, 9.096 14.621, 10.799 13.428 C 13.479 11.551, 13.589 9.843, 11.171 7.655 C 8.727 5.443, 5.704 5.565, 3.534 7.963 M 7 8.417 C 7 9.196, 6.438 10.060, 5.750 10.338 C 5.003 10.639, 5.205 10.874, 6.250 10.921 C 7.360 10.971, 8 10.268, 8 9 C 8 7.900, 7.775 7, 7.500 7 C 7.225 7, 7 7.638, 7 8.417" stroke="none" fill="blue" fill-rule="evenodd"/>
</svg>