<svg xmlns="http://www.w3.org/2000/svg" width="32" height="16" viewBox="0 0 32 16" version="1.1">
	<rect x="0" y="0" width="100%" height="100%" fill="#bfbfbf" />
	<path d="M 6.674 2.862 C 7.021 4.188, 6.489 4.904, 4.831 5.349 C 1.305 6.293, 0.731 6.143, 1.382 4.448 C 1.723 3.558, 1.555 3.157, 0.989 3.507 C -0.218 4.253, -0.329 7, 0.847 7 C 1.313 7, 1.628 8.975, 1.546 11.389 L 1.398 15.778 7.500 15.778 L 13.602 15.778 13.454 11.389 C 13.372 8.975, 13.687 7, 14.153 7 C 15.329 7, 15.218 4.253, 14.011 3.507 C 13.445 3.157, 13.277 3.558, 13.618 4.448 C 14.269 6.143, 13.695 6.293, 10.169 5.349 C 8.511 4.904, 7.979 4.188, 8.326 2.862 C 8.618 1.744, 8.288 1, 7.500 1 C 6.712 1, 6.382 1.744, 6.674 2.862 M 3 2.393 C 3 2.609, 3.698 3.054, 4.552 3.382 C 5.442 3.723, 5.843 3.555, 5.493 2.989 C 4.906 2.038, 3 1.583, 3 2.393 M 9.507 2.989 C 9.157 3.555, 9.558 3.723, 10.448 3.382 C 12.180 2.717, 12.497 2, 11.059 2 C 10.541 2, 9.843 2.445, 9.507 2.989 M 3.534 7.963 C 1.488 10.224, 1.997 12.393, 4.944 13.970 C 6.522 14.815, 7.004 14.772, 7.015 13.785 C 7.027 12.781, 7.202 12.770, 7.815 13.735 C 8.422 14.691, 9.096 14.621, 10.799 13.428 C 13.479 11.551, 13.589 9.843, 11.171 7.655 C 8.727 5.443, 5.704 5.565, 3.534 7.963 M 7.116 8.550 C 7.052 9.678, 6.552 11.142, 6.004 11.804 C 5.456 12.466, 5.724 12.384, 6.600 11.622 C 7.476 10.860, 7.976 9.396, 7.712 8.368 C 7.279 6.684, 7.221 6.702, 7.116 8.550" stroke="none" fill="blue" fill-rule="evenodd"/>
</svg>