<svg xmlns="http://www.w3.org/2000/svg" width="32" height="16" viewBox="0 0 32 16" version="1.1">
	<rect x="0" y="0" width="100%" height="100%" fill="#bfbfbf" />
	<path d="M 4.166 8.618 C 2.371 12.258, 1.049 15.382, 1.227 15.561 C 1.406 15.740, 3.003 14.967, 4.776 13.845 C 7.692 11.999, 8 11.335, 8 6.902 C 8 4.206, 7.872 2, 7.715 2 C 7.558 2, 5.961 4.978, 4.166 8.618 M 9.049 6.652 C 9.004 11.390, 9.259 11.968, 12.224 13.845 C 13.997 14.967, 15.601 15.732, 15.789 15.545 C 15.976 15.357, 14.548 12.120, 12.614 8.352 L 9.098 1.500 9.049 6.652" stroke="none" fill="blue" fill-rule="evenodd"/>
</svg>