<svg xmlns="http://www.w3.org/2000/svg" width="32" height="16" viewBox="0 0 32 16" version="1.1">
	<rect x="0" y="0" width="100%" height="100%" fill="#bfbfbf" />
	<path d="M 10.466 3.038 C 9.473 4.134, 7.932 4.796, 7.033 4.511 C 5.856 4.137, 4.777 5.279, 3.155 8.617 C 1.920 11.161, 1.100 13.433, 1.333 13.667 C 1.567 13.900, 3.849 13.076, 6.405 11.834 C 9.567 10.298, 10.874 9.115, 10.497 8.133 C 10.193 7.339, 10.890 5.682, 12.047 4.450 C 13.204 3.219, 13.727 1.949, 13.209 1.629 C 12.691 1.309, 11.457 1.943, 10.466 3.038 M 10.468 4.035 C 9.455 5.155, 8.037 5.844, 7.317 5.568 C 6.525 5.264, 5.199 6.650, 3.962 9.074 L 1.917 13.083 5.994 11.003 C 8.236 9.859, 9.783 8.457, 9.431 7.888 C 9.079 7.318, 9.816 5.760, 11.070 4.426 C 12.323 3.092, 13.115 2, 12.829 2 C 12.544 2, 11.481 2.916, 10.468 4.035" stroke="none" fill="blue" fill-rule="evenodd"/>
</svg>