<svg xmlns="http://www.w3.org/2000/svg" width="32" height="16" viewBox="0 0 32 16" version="1.1">
	<rect x="0" y="0" width="100%" height="100%" fill="#bfbfbf" />
	<path d="M 5.214 4.496 C 2.587 9.904, 2.574 10, 4.500 10 C 5.500 10, 6 11, 6 13 C 6 15, 6.500 16, 7.500 16 C 8.500 16, 9 15, 9 13 C 9 11, 9.500 10, 10.500 10 C 12.449 10, 12.357 9.354, 9.669 4.219 L 7.428 -0.061 5.214 4.496 M 5.720 5.461 C 4.322 8.393, 4.276 9, 5.453 9 C 6.306 9, 7.034 10.298, 7.277 12.250 L 7.680 15.500 7.840 12.323 C 7.932 10.504, 8.606 9.008, 9.417 8.823 C 10.598 8.554, 10.549 7.953, 9.121 5.211 L 7.408 1.921 5.720 5.461" stroke="none" fill="blue" fill-rule="evenodd"/>
</svg>