<svg xmlns="http://www.w3.org/2000/svg" width="32" height="16" viewBox="0 0 32 16" version="1.1">
	<rect x="0" y="0" width="100%" height="100%" fill="#bfbfbf" />
	<path d="M 4.219 6.331 L -0.061 8.572 4.496 10.786 C 9.904 13.413, 10 13.426, 10 11.500 C 10 10.500, 11 10, 13 10 C 15 10, 16 9.500, 16 8.500 C 16 7.500, 15 7, 13 7 C 11 7, 10 6.500, 10 5.500 C 10 3.551, 9.354 3.643, 4.219 6.331 M 5.211 6.879 L 1.921 8.592 5.461 10.280 C 8.393 11.678, 9 11.724, 9 10.547 C 9 9.694, 10.298 8.966, 12.250 8.723 L 15.500 8.320 12.323 8.160 C 10.504 8.068, 9.008 7.394, 8.823 6.583 C 8.554 5.402, 7.953 5.451, 5.211 6.879" stroke="none" fill="blue" fill-rule="evenodd"/>
</svg>