<svg xmlns="http://www.w3.org/2000/svg" width="32" height="16" viewBox="0 0 32 16" version="1.1">
	<rect x="0" y="0" width="100%" height="100%" fill="#bfbfbf" />
	<path d="M 6 4.500 C 6 5.500, 5 6, 3 6 C 1 6, 0 6.500, 0 7.500 C 0 8.500, 1 9, 3 9 C 5 9, 6 9.500, 6 10.500 C 6 12.426, 6.096 12.413, 11.504 9.786 L 16.061 7.572 11.781 5.331 C 6.646 2.643, 6 2.551, 6 4.500 M 7 5.453 C 7 6.306, 5.702 7.034, 3.750 7.277 L 0.500 7.680 3.677 7.840 C 5.496 7.932, 6.992 8.606, 7.177 9.417 C 7.446 10.598, 8.047 10.549, 10.789 9.121 L 14.079 7.408 10.539 5.720 C 7.607 4.322, 7 4.276, 7 5.453" stroke="none" fill="blue" fill-rule="evenodd"/>
</svg>