<svg xmlns="http://www.w3.org/2000/svg" width="32" height="16" viewBox="0 0 32 16" version="1.1">
	<rect x="0" y="0" width="100%" height="100%" fill="#bfbfbf" />
	<path d="M 1.629 1.791 C 1.309 2.309, 1.943 3.543, 3.038 4.534 C 4.134 5.527, 4.796 7.068, 4.511 7.967 C 4.137 9.144, 5.279 10.223, 8.617 11.845 C 11.161 13.080, 13.433 13.900, 13.667 13.667 C 13.900 13.433, 13.076 11.151, 11.834 8.595 C 10.298 5.433, 9.115 4.126, 8.133 4.503 C 7.339 4.807, 5.682 4.110, 4.450 2.953 C 3.219 1.796, 1.949 1.273, 1.629 1.791 M 3.855 4.176 C 5.150 5.648, 5.921 7.318, 5.569 7.888 C 5.217 8.457, 6.764 9.859, 9.006 11.003 L 13.083 13.083 11.003 9.006 C 9.859 6.764, 8.457 5.217, 7.888 5.569 C 7.318 5.921, 5.648 5.150, 4.176 3.855 L 1.500 1.500 3.855 4.176" stroke="none" fill="blue" fill-rule="evenodd"/>
</svg>