<svg xmlns="http://www.w3.org/2000/svg" width="32" height="16" viewBox="0 0 32 16" version="1.1">
	<rect x="0" y="0" width="100%" height="100%" fill="#bfbfbf" />
	<path d="M 3.250 4.723 C 0.118 5.112, -0 5.292, -0 9.680 C -0 13.943, 0.143 14.189, 2.250 13.531 C 3.487 13.144, 5.763 12.876, 7.307 12.934 C 9.166 13.005, 11.092 12.062, 13.012 10.142 C 16.131 7.023, 15.978 6, 12.392 6 C 11.141 6, 9.840 5.550, 9.500 5 C 9.160 4.450, 8.346 4.072, 7.691 4.160 C 7.036 4.248, 5.037 4.502, 3.250 4.723 M 5.384 6.442 C 4.247 9.406, 5.468 11.495, 8.509 11.787 C 10.806 12.007, 11.152 11.837, 10 11.052 C 8.740 10.194, 8.820 10.017, 10.500 9.945 L 12.500 9.859 10.500 9.043 C 8.815 8.356, 9.051 8.156, 12 7.774 C 15.235 7.354, 15.160 7.307, 11 7.145 C 7.688 7.016, 6.896 6.713, 8 6 C 9.276 5.175, 9.235 5.028, 7.719 5.015 C 6.739 5.007, 5.688 5.649, 5.384 6.442 M 3.232 9 C 3.232 10.925, 3.438 11.713, 3.689 10.750 C 3.941 9.787, 3.941 8.213, 3.689 7.250 C 3.438 6.287, 3.232 7.075, 3.232 9" stroke="none" fill="blue" fill-rule="evenodd"/>
</svg>