<svg xmlns="http://www.w3.org/2000/svg" width="32" height="16" viewBox="0 0 32 16" version="1.1">
	<rect x="0" y="0" width="100%" height="100%" fill="#bfbfbf" />
	<path d="M 1 2.473 C 1 2.734, 1.990 4.985, 3.201 7.477 C 4.786 10.739, 5.858 11.862, 7.033 11.489 C 7.932 11.204, 9.473 11.866, 10.466 12.962 C 11.457 14.057, 12.691 14.691, 13.209 14.371 C 13.727 14.051, 13.204 12.781, 12.047 11.550 C 10.890 10.318, 10.193 8.661, 10.497 7.867 C 10.874 6.887, 9.590 5.713, 6.499 4.212 C 1.783 1.920, 1 1.673, 1 2.473 M 3.997 6.994 C 5.141 9.236, 6.543 10.783, 7.112 10.431 C 7.682 10.079, 9.352 10.850, 10.824 12.145 L 13.500 14.500 11.145 11.824 C 9.850 10.352, 9.079 8.682, 9.431 8.112 C 9.783 7.543, 8.236 6.141, 5.994 4.997 L 1.917 2.917 3.997 6.994" stroke="none" fill="blue" fill-rule="evenodd"/>
</svg>