<svg xmlns="http://www.w3.org/2000/svg" width="32" height="16" viewBox="0 0 32 16" version="1.1">
	<rect x="0" y="0" width="100%" height="100%" fill="#bfbfbf" />
	<path d="M 6.731 3.072 C 4.945 4.903, 3.999 6.903, 4.067 8.706 C 4.125 10.243, 3.856 12.512, 3.469 13.750 C 2.813 15.853, 3.059 16, 7.252 16 L 11.737 16 12.311 11.750 C 12.626 9.413, 12.461 7.072, 11.942 6.550 C 11.424 6.027, 11 4.592, 11 3.359 C 11 -0, 9.805 -0.081, 6.731 3.072 M 9.104 4 C 8.899 6.929, 8.719 7.174, 8 5.500 L 7.141 3.500 7.055 5.500 C 6.983 7.180, 6.806 7.260, 5.948 6 C 5.163 4.848, 4.993 5.197, 5.213 7.500 C 5.462 10.100, 5.899 10.500, 8.486 10.500 C 10.700 10.500, 11.555 9.983, 11.790 8.500 C 12.043 6.908, 11.906 6.796, 11.121 7.950 C 10.386 9.030, 10.034 8.264, 9.742 4.950 C 9.387 0.928, 9.326 0.837, 9.104 4 M 6.250 12.689 C 7.213 12.941, 8.787 12.941, 9.750 12.689 C 10.713 12.438, 9.925 12.232, 8 12.232 C 6.075 12.232, 5.287 12.438, 6.250 12.689" stroke="none" fill="blue" fill-rule="evenodd"/>
</svg>