<svg xmlns="http://www.w3.org/2000/svg" width="32" height="16" viewBox="0 0 32 16" version="1.1">
	<rect x="0" y="0" width="100%" height="100%" fill="#bfbfbf" />
	<path d="M 3.689 4.250 C 3.374 6.588, 3.539 8.928, 4.058 9.450 C 4.576 9.973, 5 11.360, 5 12.533 C 5 15.975, 6.057 16.097, 9.142 13.012 C 11.062 11.092, 12.005 9.166, 11.934 7.307 C 11.876 5.763, 12.144 3.488, 12.531 2.250 C 13.187 0.147, 12.941 0, 8.748 0 L 4.263 0 3.689 4.250 M 6.250 3.689 C 7.213 3.941, 8.787 3.941, 9.750 3.689 C 10.713 3.438, 9.925 3.232, 8 3.232 C 6.075 3.232, 5.287 3.438, 6.250 3.689 M 4.713 5.621 C 4.321 6.013, 4.007 7.046, 4.015 7.917 C 4.029 9.304, 4.151 9.314, 5 8 C 5.713 6.896, 6.016 7.688, 6.145 11 C 6.307 15.160, 6.354 15.235, 6.774 12 C 7.156 9.051, 7.356 8.815, 8.043 10.500 L 8.859 12.500 8.945 10.500 C 9.017 8.820, 9.194 8.740, 10.052 10 C 10.837 11.152, 11.007 10.803, 10.787 8.500 C 10.560 6.126, 9.970 5.438, 7.963 5.204 C 6.567 5.041, 5.104 5.229, 4.713 5.621" stroke="none" fill="blue" fill-rule="evenodd"/>
</svg>