<svg xmlns="http://www.w3.org/2000/svg" width="32" height="16" viewBox="0 0 32 16" version="1.1">
	<rect x="0" y="0" width="100%" height="100%" fill="#bfbfbf" />
	<path d="M 8.246 3.261 C 5.216 4.783, 4.141 5.868, 4.510 7.031 C 4.796 7.932, 4.136 9.472, 3.038 10.466 C 1.943 11.457, 1.309 12.691, 1.629 13.209 C 1.949 13.727, 3.219 13.204, 4.450 12.047 C 5.682 10.890, 7.339 10.193, 8.133 10.497 C 9.113 10.874, 10.287 9.590, 11.788 6.499 C 14.962 -0.033, 14.906 -0.084, 8.246 3.261 M 8.716 4.085 C 6.635 5.184, 5.220 6.547, 5.571 7.115 C 5.922 7.683, 5.150 9.352, 3.855 10.824 L 1.500 13.500 4.176 11.145 C 5.648 9.850, 7.318 9.079, 7.888 9.431 C 8.457 9.783, 9.850 8.255, 10.982 6.035 C 12.114 3.816, 12.919 2.020, 12.770 2.044 C 12.622 2.069, 10.797 2.987, 8.716 4.085" stroke="none" fill="blue" fill-rule="evenodd"/>
</svg>