<svg xmlns="http://www.w3.org/2000/svg" width="32" height="16" viewBox="0 0 32 16" version="1.1">
	<rect x="0" y="0" width="100%" height="100%" fill="#bfbfbf" />
	<path d="M 6.554 4.913 C 6.184 5.511, 4.859 6, 3.608 6 C 0.022 6, -0.131 7.023, 2.988 10.142 C 4.908 12.062, 6.834 13.005, 8.693 12.934 C 10.237 12.876, 12.512 13.144, 13.750 13.531 C 15.860 14.190, 16 13.946, 16 9.617 C 16 5.500, 15.756 4.999, 13.750 4.986 C 12.512 4.979, 10.538 4.715, 9.363 4.399 C 8.187 4.084, 6.923 4.315, 6.554 4.913 M 8 5.931 C 9.146 6.725, 8.439 7.011, 5 7.145 C 0.840 7.307, 0.765 7.354, 4 7.774 C 6.949 8.156, 7.185 8.356, 5.500 9.043 L 3.500 9.859 5.500 9.945 C 7.180 10.017, 7.260 10.194, 6 11.052 C 4.848 11.837, 5.197 12.007, 7.500 11.787 C 10.100 11.538, 10.500 11.101, 10.500 8.514 C 10.500 6.300, 9.983 5.445, 8.500 5.210 C 6.850 4.948, 6.763 5.074, 8 5.931 M 12.232 9 C 12.232 10.925, 12.438 11.713, 12.689 10.750 C 12.941 9.787, 12.941 8.213, 12.689 7.250 C 12.438 6.287, 12.232 7.075, 12.232 9" stroke="none" fill="blue" fill-rule="evenodd"/>
</svg>