<svg xmlns="http://www.w3.org/2000/svg" width="32" height="16" viewBox="0 0 32 16" version="1.1">
	<rect x="0" y="0" width="100%" height="100%" fill="#bfbfbf" />
	<path d="M 6 3 C 6 5, 5.500 6, 4.500 6 C 2.551 6, 2.643 6.646, 5.331 11.781 L 7.572 16.061 9.786 11.504 C 12.413 6.096, 12.426 6, 10.500 6 C 9.500 6, 9 5, 9 3 C 9 1, 8.500 0, 7.500 0 C 6.500 0, 6 1, 6 3 M 7.160 3.750 C 7.055 5.885, 6.491 7, 5.516 7 C 4.243 7, 4.272 7.502, 5.720 10.539 L 7.408 14.079 9.121 10.789 C 10.501 8.138, 10.570 7.439, 9.476 7.188 C 8.729 7.016, 7.938 5.441, 7.719 3.688 L 7.320 0.500 7.160 3.750" stroke="none" fill="blue" fill-rule="evenodd"/>
</svg>