<svg xmlns="http://www.w3.org/2000/svg" width="147" height="145" viewBox="0 0 147 145" version="1.1">
	<path d="M 58.500 2.623 C 43.508 5.751, 27.008 16.024, 17.538 28.126 C 0.228 50.250, -2.864 80.672, 9.753 104.741 C 17.447 119.419, 27.647 129.300, 42.500 136.465 C 54.389 142.201, 60.214 143.496, 74 143.467 C 87.086 143.440, 95.684 141.336, 107.086 135.371 C 134.659 120.944, 149.620 89.217, 143.472 58.208 C 141.504 48.284, 134.672 34.332, 127.811 26.226 C 111.160 6.555, 83.995 -2.695, 58.500 2.623 M 62.502 19.615 C 40.284 24.525, 23.071 42.882, 19.990 64.952 C 15.078 100.137, 45.853 130.923, 81.028 126.013 C 95.360 124.012, 110.020 114.877, 118.381 102.738 C 127.490 89.511, 130.102 70.311, 124.819 55.398 C 115.516 29.134, 88.812 13.800, 62.502 19.615 M 64.900 42.880 C 62.956 44.454, 62.514 45.914, 62.177 51.880 C 61.905 56.682, 62.137 59, 62.887 59 C 63.587 59, 64 56.647, 64 52.655 C 64 44.271, 65.353 43, 74.272 43 C 82.492 43, 84 44.585, 84 53.223 C 84 56.798, 84.424 59, 85.113 59 C 85.863 59, 86.095 56.682, 85.823 51.880 C 85.295 42.533, 83.629 41, 74 41 C 68.856 41, 66.662 41.453, 64.900 42.880 M 71.280 57.029 C 66.946 58.755, 66.931 65.546, 71.257 67.966 C 73.721 69.344, 74.280 69.344, 76.750 67.969 C 83.565 64.174, 78.545 54.136, 71.280 57.029 M 71.120 60.776 C 69.878 63.096, 71.488 66, 74.015 66 C 76.518 66, 78.139 63, 76.866 60.724 C 75.611 58.482, 72.332 58.511, 71.120 60.776 M 57 62.430 C 57 63.974, 60.131 64.773, 63.750 64.152 C 64.987 63.940, 66 63.144, 66 62.383 C 66 61.410, 64.665 61, 61.500 61 C 58.264 61, 57 61.402, 57 62.430 M 82 62.500 C 82 63.611, 83.167 64, 86.500 64 C 89.833 64, 91 63.611, 91 62.500 C 91 61.389, 89.833 61, 86.500 61 C 83.167 61, 82 61.389, 82 62.500 M 65.400 67.765 C 62.909 69.429, 62 73.362, 62 82.484 C 62 92.538, 63.593 98, 66.526 98 C 67.652 98, 68.004 96.643, 68.015 92.250 C 68.032 85.892, 68.459 84.848, 71.750 83.115 C 73.484 82.201, 74.516 82.201, 76.250 83.115 C 79.541 84.848, 79.968 85.892, 79.985 92.250 C 80 97.905, 80.414 98.695, 82.600 97.235 C 85.085 95.576, 86 91.639, 86 82.613 C 86 68.755, 83.764 65.196, 77.258 68.700 C 74.080 70.412, 73.786 70.414, 70.882 68.747 C 67.491 66.801, 66.981 66.710, 65.400 67.765 M 71.524 85.359 C 69.990 86.481, 69.654 88.120, 69.604 94.732 C 69.541 103.130, 70.660 106, 74 106 C 77.304 106, 78.306 103.298, 78.181 94.725 C 78.086 88.208, 77.707 86.259, 76.339 85.259 C 74.181 83.680, 73.809 83.688, 71.524 85.359" stroke="none" fill="black" fill-rule="evenodd"/>
</svg>