<svg xmlns="http://www.w3.org/2000/svg" width="32" height="16" viewBox="0 0 32 16" version="1.1">
	<rect x="0" y="0" width="100%" height="100%" fill="#bfbfbf" />
	<path d="M 2.687 4.805 C 1.209 6.347, 0 8.086, 0 8.669 C -0 9.838, 7.018 15, 8.608 15 C 10.327 15, 16.260 8.230, 15.549 7.079 C 14.905 6.037, 7.314 2, 5.999 2 C 5.655 2, 4.165 3.262, 2.687 4.805 M 3.457 5.048 C 1.604 7.095, 0.603 10.051, 1.843 9.810 C 3.437 9.500, 5.928 11.316, 5.334 12.355 C 4.974 12.985, 5.048 13.166, 5.498 12.759 C 5.948 12.351, 6.841 12.453, 7.484 12.986 C 8.291 13.657, 9.676 12.898, 11.976 10.525 L 15.301 7.094 12.632 5.878 C 10.227 4.782, 9.642 4.951, 6.731 7.581 L 3.500 10.500 6.264 7.431 C 8.919 4.482, 8.994 3, 6.488 3 C 5.840 3, 4.476 3.922, 3.457 5.048 M 10.437 10.250 L 7.500 13.500 10.750 10.563 C 12.538 8.948, 14 7.485, 14 7.313 C 14 6.540, 13.175 7.221, 10.437 10.250" stroke="none" fill="blue" fill-rule="evenodd"/>
</svg>