<svg xmlns="http://www.w3.org/2000/svg" width="32" height="16" viewBox="0 0 32 16" version="1.1">
	<rect x="0" y="0" width="100%" height="100%" fill="#bfbfbf" />
	<path d="M 4.972 5.534 C 4.013 6.689, 3.970 7.616, 4.798 9.284 C 5.402 10.503, 6.033 12.311, 6.198 13.303 C 6.616 15.798, 8.404 15.934, 8.788 13.500 C 8.961 12.400, 9.598 10.503, 10.202 9.284 C 11.395 6.879, 9.923 4, 7.500 4 C 6.810 4, 5.672 4.690, 4.972 5.534 M 5.379 6.454 C 5.073 7.253, 5.463 8.823, 6.248 9.943 C 7.665 11.966, 7.681 11.964, 8.955 9.585 C 9.659 8.268, 9.931 6.698, 9.559 6.095 C 8.589 4.525, 6.035 4.744, 5.379 6.454" stroke="none" fill="blue" fill-rule="evenodd"/>
</svg>