<svg xmlns="http://www.w3.org/2000/svg" width="32" height="16" viewBox="0 0 32 16" version="1.1">
	<rect x="0" y="0" width="100%" height="100%" fill="#bfbfbf" />
	<path d="M 2.438 1.300 C 2.141 2.076, 2.033 5.588, 2.199 9.105 L 2.500 15.500 7.500 15.500 L 12.500 15.500 12.500 8 L 12.500 0.500 7.740 0.195 C 4.348 -0.023, 2.824 0.295, 2.438 1.300 M 3 8 L 3 15 7.500 15 L 12 15 12 8 L 12 1 7.500 1 L 3 1 3 8 M 4 4.500 C 4 5.548, 5.056 6, 7.500 6 C 9.944 6, 11 5.548, 11 4.500 C 11 3.452, 9.944 3, 7.500 3 C 5.056 3, 4 3.452, 4 4.500" stroke="none" fill="blue" fill-rule="evenodd"/>
</svg>