<svg xmlns="http://www.w3.org/2000/svg" width="160" height="160" viewBox="0 0 160 160" version="1.1">
	<rect x="0" y="0" width="100%" height="100%" fill="#bfbfbf" />
	<path d="M 26.205 59.750 L 23.500 62.500 29.250 62.800 C 32.413 62.965, 37.588 62.965, 40.750 62.800 L 46.500 62.500 43.795 59.750 C 41.432 57.347, 40.322 57, 35 57 C 29.678 57, 28.568 57.347, 26.205 59.750 M 11.636 68.636 L 9 71.273 9 109 L 9 146.727 11.636 149.364 L 14.273 152 79.713 152 L 145.154 152 148.077 149.077 L 151 146.154 151 108.713 L 151 71.273 148.364 68.636 L 145.727 66 80 66 L 14.273 66 11.636 68.636 M 124.445 76.362 C 124.119 77.661, 123.998 80.248, 124.176 82.112 L 124.500 85.500 131.912 85.797 C 140.098 86.125, 140.959 85.607, 140.985 80.332 C 141.013 74.394, 140.480 74, 132.412 74 C 125.496 74, 125.001 74.147, 124.445 76.362 M 71.500 88.896 C 54.447 96.791, 54.897 122.211, 72.218 129.447 C 79.944 132.674, 90.356 130.843, 96.376 125.197 C 107.665 114.612, 104.048 94.512, 89.782 88.553 C 84.774 86.461, 76.421 86.618, 71.500 88.896" stroke="none" fill="blue" fill-rule="evenodd"/>
</svg>