<svg xmlns="http://www.w3.org/2000/svg" width="32" height="16" viewBox="0 0 32 16" version="1.1">
	<rect x="0" y="0" width="100%" height="100%" fill="#bfbfbf" />
	<path d="M 2.455 2.455 C 1.105 3.805, 0 6.075, 0 7.500 C 0 10.834, 4.166 15, 7.500 15 C 8.925 15, 11.195 13.895, 12.545 12.545 C 15.674 9.417, 15.674 5.583, 12.545 2.455 C 11.195 1.105, 8.925 0, 7.500 0 C 6.075 0, 3.805 1.105, 2.455 2.455 M 3 3 C -0.961 6.961, 1.919 14, 7.500 14 C 13.081 14, 15.961 6.961, 12 3 C 9.443 0.443, 5.557 0.443, 3 3 M 8.750 7.662 C 9.438 7.940, 10.563 7.940, 11.250 7.662 C 11.938 7.385, 11.375 7.158, 10 7.158 C 8.625 7.158, 8.063 7.385, 8.750 7.662" stroke="none" fill="blue" fill-rule="evenodd"/>
</svg>