<svg xmlns="http://www.w3.org/2000/svg" width="32" height="16" viewBox="0 0 32 16" version="1.1">
	<rect x="0" y="0" width="100%" height="100%" fill="#bfbfbf" />
	<path d="M 4 7.500 L 4 14 8.500 14 L 13 14 13 7.500 L 13 1 8.500 1 L 4 1 4 7.500 M 5 7.500 L 5 13 8.500 13 L 12 13 12 7.500 L 12 2 8.500 2 L 5 2 5 7.500 M 6 5 C 6 6.467, 6.667 7, 8.500 7 C 10.333 7, 11 6.467, 11 5 C 11 3.533, 10.333 3, 8.500 3 C 6.667 3, 6 3.533, 6 5 M 8.813 9.683 C 9.534 9.972, 10.397 9.936, 10.729 9.604 C 11.061 9.272, 10.471 9.036, 9.417 9.079 C 8.252 9.127, 8.015 9.364, 8.813 9.683" stroke="none" fill="blue" fill-rule="evenodd"/>
</svg>