<svg xmlns="http://www.w3.org/2000/svg" width="32" height="16" viewBox="0 0 32 16" version="1.1">
	<rect x="0" y="0" width="100%" height="100%" fill="#bfbfbf" />
	<path d="M 3 3.893 C 3 6.431, 2.478 7.986, 1.500 8.362 C -0.011 8.941, -0.646 12.934, 0.750 13.077 C 1.163 13.119, 2.290 13.304, 3.255 13.489 C 4.220 13.673, 4.756 13.414, 4.446 12.912 C 4.136 12.410, 5.510 12, 7.500 12 C 9.490 12, 10.864 12.410, 10.554 12.912 C 10.244 13.414, 10.780 13.673, 11.745 13.489 C 12.710 13.304, 13.838 13.119, 14.250 13.077 C 15.646 12.934, 15.011 8.941, 13.500 8.362 C 12.522 7.986, 12 6.431, 12 3.893 L 12 0 7.500 0 L 3 0 3 3.893 M 4 4 C 4 6.762, 4.278 7, 7.500 7 C 10.722 7, 11 6.762, 11 4 C 11 1.238, 10.722 1, 7.500 1 C 4.278 1, 4 1.238, 4 4 M 5 4 C 5 5.467, 5.667 6, 7.500 6 C 9.333 6, 10 5.467, 10 4 C 10 2.533, 9.333 2, 7.500 2 C 5.667 2, 5 2.533, 5 4 M 6 4 C 6 4.550, 6.675 5, 7.500 5 C 8.325 5, 9 4.550, 9 4 C 9 3.450, 8.325 3, 7.500 3 C 6.675 3, 6 3.450, 6 4 M 1 10.250 C 1 11.121, 2.959 11.500, 7.463 11.500 C 11.017 11.500, 13.155 11.223, 12.213 10.885 C 10.695 10.340, 10.728 10.211, 12.500 9.751 C 13.600 9.465, 11.463 9.180, 7.750 9.116 C 2.955 9.034, 1 9.362, 1 10.250 M 1 15.250 C 1 15.662, 3.925 16, 7.500 16 C 11.075 16, 14 15.662, 14 15.250 C 14 14.838, 11.075 14.500, 7.500 14.500 C 3.925 14.500, 1 14.838, 1 15.250" stroke="none" fill="blue" fill-rule="evenodd"/>
</svg>