<svg xmlns="http://www.w3.org/2000/svg" width="32" height="16" viewBox="0 0 32 16" version="1.1">
	<rect x="0" y="0" width="100%" height="100%" fill="#bfbfbf" />
	<path d="M 0 7.883 C 0 14.176, 0.193 14.818, 2.250 15.370 C 10.169 17.492, 18.964 14.641, 14.521 11.392 C 12.848 10.168, 12.822 10, 14.309 10 C 15.615 10, 16 9.090, 16 6 L 16 2 11.500 2 L 7 2 7 5.927 C 7 8.825, 7.458 9.973, 8.750 10.311 C 10.067 10.655, 9.943 10.797, 8.250 10.884 C 6.201 10.990, 6 10.553, 6 6 C 6 1.111, 5.933 1, 3 1 L 0 1 0 7.883 M 1 7.955 C 1 13.906, 1.002 13.910, 4.317 14.532 C 8.933 15.398, 14.266 14.743, 14.756 13.250 C 15.045 12.371, 13.790 12, 10.524 12 C 7.971 12, 6.114 12.375, 6.397 12.833 C 6.680 13.292, 6.369 13.668, 5.706 13.669 C 4.864 13.670, 4.602 11.912, 4.839 7.836 C 5.150 2.476, 5.007 2, 3.089 2 C 1.204 2, 1 2.582, 1 7.955 M 8 6 C 8 8.762, 8.278 9, 11.500 9 C 14.722 9, 15 8.762, 15 6 C 15 3.238, 14.722 3, 11.500 3 C 8.278 3, 8 3.238, 8 6 M 9 6 C 9 7.467, 9.667 8, 11.500 8 C 13.333 8, 14 7.467, 14 6 C 14 4.533, 13.333 4, 11.500 4 C 9.667 4, 9 4.533, 9 6 M 10 6 C 10 6.550, 10.675 7, 11.500 7 C 12.325 7, 13 6.550, 13 6 C 13 5.450, 12.325 5, 11.500 5 C 10.675 5, 10 5.450, 10 6" stroke="none" fill="blue" fill-rule="evenodd"/>
</svg>