<svg xmlns="http://www.w3.org/2000/svg" width="32" height="16" viewBox="0 0 32 16" version="1.1">
	<rect x="0" y="0" width="100%" height="100%" fill="#bfbfbf" />
	<path d="M 0 6 C 0 11.968, 0.015 12, 2.930 12 C 5.174 12, 5.962 12.527, 6.294 14.250 L 6.728 16.500 6.864 14.250 C 6.997 12.044, 8.083 11.568, 12.500 11.778 C 13.600 11.830, 13.938 11.639, 13.250 11.353 C 12.562 11.067, 12 10.389, 12 9.845 C 12 9.302, 11.325 8.182, 10.500 7.357 C 9.167 6.024, 9 6.143, 9 8.429 C 9 10.762, 8.630 11, 5 11 L 1 11 1 6 C 1 1.667, 1.267 1, 3 1 C 4.333 1, 5 1.667, 5 3 C 5 4.501, 5.667 5, 7.674 5 L 10.349 5 8 2.500 C 6.569 0.977, 4.547 -0, 2.826 -0 C 0.039 -0, 0 0.082, 0 6 M 6 3 C 6 3.550, 6.477 4, 7.059 4 C 7.641 4, 7.840 3.550, 7.500 3 C 7.160 2.450, 6.684 2, 6.441 2 C 6.198 2, 6 2.450, 6 3 M 2.750 6.662 C 3.438 6.940, 4.563 6.940, 5.250 6.662 C 5.938 6.385, 5.375 6.158, 4 6.158 C 2.625 6.158, 2.063 6.385, 2.750 6.662 M 5.813 8.683 C 6.534 8.972, 7.397 8.936, 7.729 8.604 C 8.061 8.272, 7.471 8.036, 6.417 8.079 C 5.252 8.127, 5.015 8.364, 5.813 8.683 M 13.669 8.683 C 14.311 9.142, 15.044 11.089, 15.296 13.009 C 15.735 16.353, 15.749 16.335, 15.627 12.577 C 15.544 10.016, 14.979 8.515, 14 8.251 C 12.977 7.976, 12.872 8.113, 13.669 8.683" stroke="none" fill="blue" fill-rule="evenodd"/>
</svg>