<svg xmlns="http://www.w3.org/2000/svg" width="32" height="16" viewBox="0 0 32 16" version="1.1">
	<rect x="0" y="0" width="100%" height="100%" fill="#bfbfbf" />
	<path d="M 0 3.427 C 0 5.849, 0.513 6.987, 1.750 7.311 C 3.417 7.746, 3.417 7.774, 1.750 7.884 C 0.394 7.974, 0 8.901, 0 12 L 0 16 11.906 16 C 23.750 16, 23.810 15.988, 23.262 13.750 C 22.485 10.577, 21.049 9, 18.937 9 C 17.936 9, 16.813 8.507, 16.441 7.904 C 16.022 7.227, 16.461 6.942, 17.588 7.159 C 19.960 7.616, 23.689 4.002, 23.170 1.750 C 22.831 0.280, 21.598 0, 15.457 0 C 9.336 -0, 8.072 0.285, 7.689 1.750 C 7.254 3.417, 7.226 3.417, 7.116 1.750 C 7.029 0.439, 6.122 0, 3.500 0 C 0.181 0, 0 0.177, 0 3.427 M 24.749 2.469 C 25.287 5.283, 26.530 6.474, 29.750 7.262 C 31.793 7.762, 32 7.454, 32 3.906 C 32 0.039, 31.961 -0, 28.139 -0 C 24.572 -0, 24.313 0.188, 24.749 2.469 M 1 1.755 C 1 2.305, 1.675 3.315, 2.500 4 C 3.337 4.694, 4 4.803, 4 4.245 C 4 3.695, 3.325 2.685, 2.500 2 C 1.663 1.306, 1 1.197, 1 1.755 M 11.872 2.750 C 10.629 4.336, 10.664 4.371, 12.250 3.128 C 13.213 2.373, 14 1.585, 14 1.378 C 14 0.555, 13.179 1.084, 11.872 2.750 M 18.500 3 C 19.495 4.100, 20.535 5, 20.810 5 C 21.085 5, 20.495 4.100, 19.500 3 C 18.505 1.900, 17.465 1, 17.190 1 C 16.915 1, 17.505 1.900, 18.500 3 M 28.065 2.422 C 27.378 3.250, 27.285 4.058, 27.838 4.400 C 28.353 4.718, 29.296 4.348, 29.935 3.578 C 30.622 2.750, 30.715 1.942, 30.162 1.600 C 29.647 1.282, 28.704 1.652, 28.065 2.422 M 5.046 5.444 C 2.345 8.699, 6.815 12.614, 9.811 9.618 C 11.084 8.344, 11.215 7.563, 10.376 6.231 C 8.916 3.913, 6.601 3.571, 5.046 5.444 M 12.813 7.683 C 13.534 7.972, 14.397 7.936, 14.729 7.604 C 15.061 7.272, 14.471 7.036, 13.417 7.079 C 12.252 7.127, 12.015 7.364, 12.813 7.683 M 26.495 10.507 C 23.513 13.601, 24.421 16, 28.573 16 C 31.800 16, 32 15.803, 32 12.617 C 32 8.455, 29.424 7.468, 26.495 10.507 M 1.872 12.750 C 0.629 14.336, 0.664 14.371, 2.250 13.128 C 3.916 11.821, 4.445 11, 3.622 11 C 3.415 11, 2.627 11.787, 1.872 12.750 M 11 11.755 C 11 12.305, 11.675 13.315, 12.500 14 C 13.337 14.694, 14 14.803, 14 14.245 C 14 13.695, 13.325 12.685, 12.500 12 C 11.663 11.306, 11 11.197, 11 11.755 M 18.065 12.422 C 17.378 13.250, 17.285 14.058, 17.838 14.400 C 18.353 14.718, 19.296 14.348, 19.935 13.578 C 20.622 12.750, 20.715 11.942, 20.162 11.600 C 19.647 11.282, 18.704 11.652, 18.065 12.422 M 28.500 13 C 29.495 14.100, 30.535 15, 30.810 15 C 31.085 15, 30.495 14.100, 29.500 13 C 28.505 11.900, 27.465 11, 27.190 11 C 26.915 11, 27.505 11.900, 28.500 13 M 7.079 13.583 C 7.127 14.748, 7.364 14.985, 7.683 14.188 C 7.972 13.466, 7.936 12.603, 7.604 12.271 C 7.272 11.939, 7.036 12.529, 7.079 13.583" stroke="none" fill="blue" fill-rule="evenodd"/>
</svg>