<svg xmlns="http://www.w3.org/2000/svg" width="32" height="16" viewBox="0 0 32 16" version="1.1">
	<rect x="0" y="0" width="100%" height="100%" fill="#bfbfbf" />
	<path d="M 13 2 C 13 2.550, 13.675 3, 14.500 3 C 15.325 3, 16 2.550, 16 2 C 16 1.450, 15.325 1, 14.500 1 C 13.675 1, 13 1.450, 13 2 M 2.559 3.570 C 0.637 4.986, 0.637 5.014, 2.559 6.430 C 3.626 7.217, 4.650 7.442, 4.833 6.930 C 5.017 6.419, 6.479 6, 8.083 6 C 9.688 6, 11 5.550, 11 5 C 11 4.450, 9.688 4, 8.083 4 C 6.479 4, 5.017 3.581, 4.833 3.070 C 4.650 2.558, 3.626 2.783, 2.559 3.570 M 14 8 C 14 8.550, 14.450 9, 15 9 C 15.550 9, 16 8.550, 16 8 C 16 7.450, 15.550 7, 15 7 C 14.450 7, 14 7.450, 14 8 M 14 11 C 14 11.550, 14.450 12, 15 12 C 15.550 12, 16 11.550, 16 11 C 16 10.450, 15.550 10, 15 10 C 14.450 10, 14 10.450, 14 11 M 13 14 C 13 14.550, 13.675 15, 14.500 15 C 15.325 15, 16 14.550, 16 14 C 16 13.450, 15.325 13, 14.500 13 C 13.675 13, 13 13.450, 13 14" stroke="none" fill="blue" fill-rule="evenodd"/>
</svg>