<svg xmlns="http://www.w3.org/2000/svg" width="32" height="16" viewBox="0 0 32 16" version="1.1">
	<rect x="0" y="0" width="100%" height="100%" fill="#bfbfbf" />
	<path d="M 0.696 0.750 C 0.465 1.163, 0.597 4.875, 0.991 9 C 1.385 13.125, 1.773 15.741, 1.853 14.813 C 1.971 13.459, 2.690 13.238, 5.500 13.694 C 8.217 14.135, 9 13.921, 9 12.738 C 9 10.812, 6.003 9.597, 4.633 10.967 C 3.043 12.557, 2 12.199, 2 10.063 C 2 8.407, 2.509 8.208, 5.500 8.694 C 8.217 9.135, 9 8.921, 9 7.738 C 9 5.812, 6.003 4.597, 4.633 5.967 C 3.154 7.446, 2 7.241, 2 5.500 C 2 4.675, 2.675 4, 3.500 4 C 5.491 4, 5.428 1.378, 3.418 0.607 C 1.401 -0.167, 1.206 -0.157, 0.696 0.750 M 1 2 C 1 2.550, 1.702 3, 2.559 3 C 3.416 3, 3.840 2.550, 3.500 2 C 3.160 1.450, 2.459 1, 1.941 1 C 1.423 1, 1 1.450, 1 2 M 9.813 3.683 C 10.534 3.972, 11.397 3.936, 11.729 3.604 C 12.061 3.272, 11.471 3.036, 10.417 3.079 C 9.252 3.127, 9.015 3.364, 9.813 3.683 M 5 7 C 5 7.550, 5.702 8, 6.559 8 C 7.416 8, 7.840 7.550, 7.500 7 C 7.160 6.450, 6.459 6, 5.941 6 C 5.423 6, 5 6.450, 5 7 M 5 12 C 5 12.550, 5.702 13, 6.559 13 C 7.416 13, 7.840 12.550, 7.500 12 C 7.160 11.450, 6.459 11, 5.941 11 C 5.423 11, 5 11.450, 5 12" stroke="none" fill="blue" fill-rule="evenodd"/>
</svg>