<svg xmlns="http://www.w3.org/2000/svg" width="32" height="16" viewBox="0 0 32 16" version="1.1">
	<rect x="0" y="0" width="100%" height="100%" fill="#bfbfbf" />
	<path d="M 0 8 L 0 16 10.750 15.960 C 20.853 15.922, 21.334 15.830, 18.750 14.428 C 16.187 13.038, 16 12.496, 16 6.468 L 16 0 8 0 L 0 0 0 8 M 25.500 1.665 C 27.150 2.537, 29.288 3.939, 30.250 4.780 C 31.870 6.196, 32 6.076, 32 3.155 C 32 0.052, 31.921 0.001, 27.250 0.040 L 22.500 0.080 25.500 1.665 M 1.310 6.500 C 1.315 9.800, 1.502 11.029, 1.725 9.232 C 1.947 7.435, 1.943 4.735, 1.715 3.232 C 1.486 1.729, 1.304 3.200, 1.310 6.500 M 3.310 7.500 C 3.315 10.800, 3.502 12.029, 3.725 10.232 C 3.947 8.435, 3.943 5.735, 3.715 4.232 C 3.486 2.729, 3.304 4.200, 3.310 7.500 M 5.310 8.500 C 5.315 11.800, 5.502 13.029, 5.725 11.232 C 5.947 9.435, 5.943 6.735, 5.715 5.232 C 5.486 3.729, 5.304 5.200, 5.310 8.500 M 7 9.500 L 7 15 11 15 L 15 15 15 11 C 15 8.111, 14.583 7, 13.500 7 C 12.675 7, 12 6.325, 12 5.500 C 12 4.567, 11.056 4, 9.500 4 C 7.136 4, 7 4.300, 7 9.500 M 26.649 6.528 C 27.216 8.005, 31 10.620, 31 9.535 C 31 8.877, 27.180 5, 26.531 5 C 26.274 5, 26.327 5.688, 26.649 6.528 M 8.813 7.683 C 9.534 7.972, 10.397 7.936, 10.729 7.604 C 11.061 7.272, 10.471 7.036, 9.417 7.079 C 8.252 7.127, 8.015 7.364, 8.813 7.683 M 9.250 9.689 C 10.213 9.941, 11.787 9.941, 12.750 9.689 C 13.713 9.438, 12.925 9.232, 11 9.232 C 9.075 9.232, 8.287 9.438, 9.250 9.689 M 9.250 11.689 C 10.213 11.941, 11.787 11.941, 12.750 11.689 C 13.713 11.438, 12.925 11.232, 11 11.232 C 9.075 11.232, 8.287 11.438, 9.250 11.689 M 8.750 13.662 C 9.438 13.940, 10.563 13.940, 11.250 13.662 C 11.938 13.385, 11.375 13.158, 10 13.158 C 8.625 13.158, 8.063 13.385, 8.750 13.662 M 28.500 14 C 28.840 14.550, 29.541 15, 30.059 15 C 30.577 15, 31 14.550, 31 14 C 31 13.450, 30.298 13, 29.441 13 C 28.584 13, 28.160 13.450, 28.500 14" stroke="none" fill="blue" fill-rule="evenodd"/>
</svg>