<svg xmlns="http://www.w3.org/2000/svg" width="32" height="16" viewBox="0 0 32 16" version="1.1">
	<rect x="0" y="0" width="100%" height="100%" fill="#bfbfbf" />
	<path d="M 2 8 L 2 16 7.500 16 L 13 16 13 8 L 13 0 7.500 0 L 2 0 2 8 M 4 2.059 C 4 2.641, 4.450 2.840, 5 2.500 C 5.550 2.160, 6 1.684, 6 1.441 C 6 1.198, 5.550 1, 5 1 C 4.450 1, 4 1.477, 4 2.059 M 6.894 3.250 C 6.836 4.488, 6.873 6.773, 6.978 8.329 C 7.082 9.885, 6.385 12.022, 5.429 13.079 C 3.740 14.944, 3.810 15, 7.845 15 L 12 15 12 8 C 12 1.200, 11.929 1, 9.500 1 C 7.605 1, 6.974 1.545, 6.894 3.250" stroke="none" fill="blue" fill-rule="evenodd"/>
</svg>