<svg xmlns="http://www.w3.org/2000/svg" width="16" height="16" viewBox="0 0 16 16" version="1.1">
	<rect x="0" y="0" width="100%" height="100%" fill="#bfbfbf" />
	<path d="M 6.473 2.956 C 6.798 3.482, 7.730 3.657, 8.543 3.345 C 9.592 2.943, 9.843 3.247, 9.404 4.389 C 9.064 5.275, 8.047 6.014, 7.143 6.030 C 5.628 6.058, 5.629 6.136, 7.157 7.028 C 8.232 7.656, 8.617 8.749, 8.253 10.142 C 7.748 12.073, 7.502 11.919, 5.806 8.613 C 4.769 6.592, 4.197 4.389, 4.534 3.719 C 4.872 3.049, 4.440 3.374, 3.574 4.441 C 1.451 7.060, 1.593 9.593, 4 12 C 6.329 14.329, 8.866 14.550, 11.464 12.650 C 14.763 10.238, 11.943 2, 7.819 2 C 6.753 2, 6.148 2.430, 6.473 2.956" stroke="none" fill="blue" fill-rule="evenodd"/>
</svg>