<svg xmlns="http://www.w3.org/2000/svg" width="32" height="16" viewBox="0 0 32 16" version="1.1">
	<rect x="0" y="0" width="100%" height="100%" fill="#bfbfbf" />
	<path d="M 2.580 0.870 C 2.273 1.367, 2.692 2.329, 3.511 3.009 C 4.330 3.689, 5 3.910, 5 3.500 C 5 3.090, 5.640 3.286, 6.421 3.935 C 7.588 4.903, 7.746 4.745, 7.305 3.057 C 6.863 1.368, 7.235 1, 9.383 1 C 11.333 1, 12 1.510, 12 3 C 12 4.111, 12.667 5, 13.500 5 C 14.633 5, 15 6.222, 15 10 L 15 15 10.977 15 L 6.954 15 8.579 12.520 C 9.923 10.469, 10.546 10.222, 12.178 11.095 C 13.908 12.021, 14.030 11.925, 13.168 10.315 C 12.628 9.304, 11.166 7.583, 9.921 6.489 C 8.579 5.310, 8 5.111, 8.500 6 C 9.184 7.215, 8.979 7.193, 7.422 5.885 C 5.880 4.589, 5.006 4.490, 3 5.385 C 0.998 6.278, 0.500 7.222, 0.500 10.126 C 0.500 13.311, 0.799 13.752, 2.958 13.751 C 4.310 13.750, 5.585 14.256, 5.792 14.875 C 6.002 15.505, 8.330 16, 11.083 16 L 16 16 16 9.655 C 16 4.778, 15.577 2.927, 14.171 1.655 C 11.779 -0.510, 7.098 -0.460, 5.286 1.750 C 4.497 2.712, 4.117 2.969, 4.442 2.319 C 5.142 0.920, 3.391 -0.442, 2.580 0.870 M 13 3 C 13 3.550, 13.477 4, 14.059 4 C 14.641 4, 14.840 3.550, 14.500 3 C 14.160 2.450, 13.684 2, 13.441 2 C 13.198 2, 13 2.450, 13 3 M 2.384 7.442 C 1.247 10.406, 2.468 12.495, 5.509 12.787 C 7.806 13.007, 8.152 12.837, 7 12.052 C 5.740 11.194, 5.820 11.017, 7.500 10.945 L 9.500 10.859 7.500 9.922 C 5.862 9.154, 6.079 9.044, 8.697 9.311 C 10.456 9.491, 11.667 9.270, 11.388 8.819 C 11.110 8.369, 9.221 7.993, 7.191 7.985 C 4.440 7.973, 3.882 7.723, 5 7 C 6.276 6.175, 6.235 6.028, 4.719 6.015 C 3.739 6.007, 2.688 6.649, 2.384 7.442" stroke="none" fill="blue" fill-rule="evenodd"/>
</svg>