<svg xmlns="http://www.w3.org/2000/svg" width="52" height="59" viewBox="0 0 52 59" version="1.1">
	<rect x="0" y="0" width="100%" height="100%" fill="#bfbfbf" />
	<path d="M 1.479 1.033 C 1.128 1.602, 0.593 5.344, 0.290 9.349 C -0.160 15.295, 0.151 17.814, 1.981 23.066 C 4.501 30.299, 6.926 33.799, 7.106 30.464 C 7.164 29.384, 7.121 27.177, 7.011 25.560 L 6.809 22.620 9.494 25.810 C 13.073 30.064, 16.391 30.043, 19.019 25.750 L 21.008 22.500 17.801 21.164 C 16.037 20.430, 13.110 20.002, 11.297 20.213 C 8.249 20.569, 8 20.383, 8 17.750 C 8 16.183, 8.657 13.630, 9.460 12.077 C 10.849 9.392, 11.129 9.297, 15.210 10.142 C 17.570 10.630, 20.554 11.190, 21.843 11.387 C 24.920 11.858, 32.270 10.181, 33.114 8.816 C 34.441 6.669, 35.818 9.115, 35.751 13.503 C 35.688 17.713, 35.510 18, 32.964 18 C 30.312 18, 23 20.563, 23 21.493 C 23 23.104, 26.635 30.688, 27.841 31.596 C 29.010 32.475, 28.408 32.954, 24.790 34.022 C 21.981 34.852, 20.322 35.906, 20.391 36.819 C 20.451 37.625, 19.875 38.504, 19.111 38.772 C 18.174 39.101, 17.983 38.836, 18.525 37.960 C 19.109 37.014, 18.853 36.843, 17.582 37.330 C 16.622 37.699, 15.648 38, 15.418 38 C 15.188 38, 15 38.450, 15 39 C 15 39.550, 15.633 40, 16.406 40 C 17.292 40, 17.630 40.698, 17.319 41.887 C 16.777 43.962, 18.487 45.639, 19.490 44.016 C 20.464 42.440, 24 42.819, 24 44.500 C 24 45.452, 24.958 46, 26.622 46 C 28.899 46, 29.072 46.208, 27.933 47.580 C 27.176 48.493, 25.657 48.976, 24.341 48.725 C 23.087 48.485, 22.310 48.692, 22.614 49.185 C 23.443 50.525, 17.737 48.880, 16.188 47.331 C 15.456 46.599, 14.494 46, 14.050 46 C 13.606 46, 12.677 44.636, 11.987 42.968 C 11.296 41.300, 10.550 40.117, 10.328 40.339 C 9.407 41.260, 12.650 46.759, 16.195 50.287 C 18.288 52.370, 20 54.247, 20 54.458 C 20 54.669, 18.681 55.131, 17.069 55.485 C 15.457 55.839, 13.614 56.761, 12.972 57.533 C 11.984 58.724, 13.161 58.910, 20.689 58.755 C 30.148 58.559, 29.597 58.881, 30.112 53.250 C 30.201 52.288, 30.678 50.983, 31.174 50.352 C 31.670 49.721, 32.267 48.212, 32.500 47 C 33.450 42.070, 38.264 40.395, 42.653 43.470 C 44.691 44.897, 44.766 44.788, 45.267 39.720 C 45.767 34.658, 44.699 31.450, 42.887 32.570 C 42.399 32.871, 41.993 32.079, 41.985 30.809 C 41.974 29.130, 41.735 28.871, 41.108 29.859 C 39.909 31.752, 31.418 32.592, 29.508 31.007 C 26.893 28.837, 27.656 26.981, 30.896 27.629 C 33.034 28.057, 34.342 27.658, 35.896 26.104 C 38.507 23.493, 40.678 23.410, 41.466 25.892 C 41.974 27.492, 44.632 28.935, 47.168 28.986 C 48.578 29.015, 52.188 21.825, 51.700 19.960 C 51.418 18.882, 51.595 18, 52.094 18 C 53.335 18, 53.247 5.271, 52 4.500 C 51.450 4.160, 51 3.009, 51 1.941 C 51 0.073, 50.086 0, 26.559 0 C 10.818 0, 1.891 0.368, 1.479 1.033 M 51.730 11.250 C 52.455 19.634, 53 19.813, 53 11.667 C 53 8, 52.593 5, 52.095 5 C 51.593 5, 51.431 7.788, 51.730 11.250 M 10.667 22.667 C 9.298 24.036, 10.078 24.708, 12.500 24.245 C 13.875 23.982, 15 23.369, 15 22.883 C 15 21.854, 11.647 21.687, 10.667 22.667 M 47.248 43.421 C 47.417 47.397, 47.954 49.492, 48.883 49.799 C 49.996 50.166, 50.124 49.307, 49.538 45.378 C 48.401 37.758, 46.954 36.522, 47.248 43.421 M 41.500 40 C 41.840 40.550, 42.541 41, 43.059 41 C 43.577 41, 44 40.550, 44 40 C 44 39.450, 43.298 39, 42.441 39 C 41.584 39, 41.160 39.450, 41.500 40 M 36 47.408 C 36 48.114, 39.010 49.347, 43.223 50.366 C 45.344 50.879, 45.825 50.707, 45.396 49.590 C 45.093 48.800, 44.182 47.900, 43.371 47.589 C 42.424 47.225, 42.152 47.438, 42.612 48.181 C 43.113 48.993, 42.754 49.105, 41.414 48.556 C 38.063 47.185, 36 46.747, 36 47.408 M 9.624 56.539 C 8.659 59.053, 8.943 59.702, 10.122 57.675 C 10.706 56.671, 10.973 55.639, 10.715 55.382 C 10.458 55.124, 9.966 55.645, 9.624 56.539 M 45 58 C 45 58.550, 45.900 59, 47 59 C 48.100 59, 49 58.550, 49 58 C 49 57.450, 48.100 57, 47 57 C 45.900 57, 45 57.450, 45 58" stroke="none" fill="#3467df" fill-rule="evenodd"/>
</svg>