<svg xmlns="http://www.w3.org/2000/svg" width="32" height="16" viewBox="0 0 32 16" version="1.1">
	<rect x="0" y="0" width="100%" height="100%" fill="#bfbfbf" />
	<path d="M 0 8 L 0 16 8.257 16 L 16.514 16 16.149 11.408 C 15.948 8.876, 16.281 6.319, 16.892 5.708 C 17.501 5.099, 18 3.565, 18 2.300 C 18 0.070, 17.725 0, 9 0 L 0 0 0 8 M 30.787 3 C 31.029 4.650, 31.401 6, 31.613 6 C 31.826 6, 32 4.650, 32 3 C 32 1.350, 31.628 0, 31.173 0 C 30.718 0, 30.545 1.350, 30.787 3 M 6 1.976 L 9.500 2.737 6.417 2.868 C 4.401 2.954, 3.333 3.519, 3.333 4.500 C 3.333 5.654, 4.506 5.970, 8.417 5.868 C 13.219 5.744, 13.306 5.696, 10 5 L 6.500 4.263 9.583 4.132 C 14.930 3.903, 13.206 1.515, 7.580 1.357 C 3.018 1.229, 2.857 1.292, 6 1.976 M 25.768 3.168 C 26.350 3.750, 27.415 4.028, 28.137 3.788 C 28.886 3.538, 28.432 3.085, 27.080 2.731 C 25.417 2.296, 25.026 2.426, 25.768 3.168 M 20.768 5.168 C 21.350 5.750, 22.415 6.028, 23.137 5.788 C 23.886 5.538, 23.432 5.085, 22.080 4.731 C 20.417 4.296, 20.026 4.426, 20.768 5.168 M 1 11 L 1 15 8 15 L 15 15 15 11 L 15 7 8 7 L 1 7 1 11 M 5 9.500 C 5 10.548, 6.056 11, 8.500 11 C 10.944 11, 12 10.548, 12 9.500 C 12 8.452, 10.944 8, 8.500 8 C 6.056 8, 5 8.452, 5 9.500 M 18 11.500 C 18 14.401, 18.363 15, 20.122 15 C 21.863 15, 22.029 14.739, 21.041 13.550 C 20.024 12.324, 20.355 12.149, 23.169 12.418 C 25.001 12.594, 25.436 12.537, 24.136 12.291 C 22.836 12.046, 21.546 10.980, 21.270 9.923 C 20.382 6.528, 18 7.677, 18 11.500 M 28.978 10.925 C 29.440 12.533, 29.614 14.053, 29.365 14.301 C 29.117 14.550, 29.502 14.979, 30.222 15.255 C 31.196 15.629, 31.435 14.767, 31.160 11.878 C 30.934 9.511, 30.274 8, 29.465 8 C 28.475 8, 28.352 8.741, 28.978 10.925 M 7.269 9.693 C 8.242 9.947, 9.592 9.930, 10.269 9.656 C 10.946 9.382, 10.150 9.175, 8.500 9.195 C 6.850 9.215, 6.296 9.439, 7.269 9.693 M 4.655 13.250 C 5.258 14.226, 11.742 14.226, 12.345 13.250 C 12.600 12.838, 10.870 12.500, 8.500 12.500 C 6.130 12.500, 4.400 12.838, 4.655 13.250" stroke="none" fill="blue" fill-rule="evenodd"/>
</svg>