<svg xmlns="http://www.w3.org/2000/svg" width="32" height="16" viewBox="0 0 32 16" version="1.1">
	<rect x="0" y="0" width="100%" height="100%" fill="#bfbfbf" />
	<path d="M 0 6 L 0 12 4 12 C 7.333 12, 8 12.333, 8 14 C 8 15.100, 8.450 16, 9 16 C 9.550 16, 10 15.325, 10 14.500 C 10 13.667, 10.889 13, 12 13 C 13.111 13, 14 13.667, 14 14.500 C 14 15.325, 14.450 16, 15 16 C 15.550 16, 16 14.200, 16 12 C 16 8.827, 15.638 8.016, 14.250 8.079 C 13.205 8.126, 13.003 8.361, 13.750 8.662 C 16.070 9.599, 15.021 11, 12 11 C 8.970 11, 7.811 9.421, 10.402 8.823 C 11.592 8.549, 11.595 8.309, 10.425 7.232 C 9.289 6.188, 8.936 6.407, 8.415 8.482 C 7.895 10.553, 7.182 11, 4.392 11 L 1 11 1 6 C 1 1.667, 1.267 1, 3 1 C 4.333 1, 5 1.667, 5 3 C 5 4.501, 5.667 5, 7.674 5 L 10.349 5 8 2.500 C 6.569 0.977, 4.547 -0, 2.826 -0 C 0.039 -0, 0 0.082, 0 6 M 6 3 C 6 3.550, 6.477 4, 7.059 4 C 7.641 4, 7.840 3.550, 7.500 3 C 7.160 2.450, 6.684 2, 6.441 2 C 6.198 2, 6 2.450, 6 3 M 2.750 6.662 C 3.438 6.940, 4.563 6.940, 5.250 6.662 C 5.938 6.385, 5.375 6.158, 4 6.158 C 2.625 6.158, 2.063 6.385, 2.750 6.662" stroke="none" fill="blue" fill-rule="evenodd"/>
</svg>