<svg xmlns="http://www.w3.org/2000/svg" width="32" height="16" viewBox="0 0 32 16" version="1.1">
	<rect x="0" y="0" width="100%" height="100%" fill="#bfbfbf" />
	<path d="M 3 8 L 3 14 8 14 L 13 14 13 10.174 C 13 5.609, 9.771 2, 5.686 2 C 3.070 2, 3 2.156, 3 8 M 4 8 L 4 13 8 13 C 11.778 13, 12 12.833, 12 10 C 12 7.667, 11.556 7, 10 7 C 8.667 7, 8 6.333, 8 5 C 8 3.667, 7.333 3, 6 3 C 4.267 3, 4 3.667, 4 8 M 9 5 C 9 5.550, 9.477 6, 10.059 6 C 10.641 6, 10.840 5.550, 10.500 5 C 10.160 4.450, 9.684 4, 9.441 4 C 9.198 4, 9 4.450, 9 5 M 5.750 8.662 C 6.438 8.940, 7.563 8.940, 8.250 8.662 C 8.938 8.385, 8.375 8.158, 7 8.158 C 5.625 8.158, 5.063 8.385, 5.750 8.662 M 8.813 10.683 C 9.534 10.972, 10.397 10.936, 10.729 10.604 C 11.061 10.272, 10.471 10.036, 9.417 10.079 C 8.252 10.127, 8.015 10.364, 8.813 10.683" stroke="none" fill="blue" fill-rule="evenodd"/>
</svg>