<svg xmlns="http://www.w3.org/2000/svg" width="32" height="16" viewBox="0 0 32 16" version="1.1">
	<rect x="0" y="0" width="100%" height="100%" fill="#bfbfbf" />
	<path d="M 2.667 4.667 C 2.300 5.033, 2 6.833, 2 8.667 L 2 12 7 12 C 11.333 12, 12 11.733, 12 10 C 12 8.806, 12.667 8, 13.655 8 C 15.143 8, 15.128 7.799, 13.500 6 C 12.240 4.608, 10.420 4, 7.512 4 C 5.214 4, 3.033 4.300, 2.667 4.667 M 3 8.187 C 3 10.802, 3.281 11, 7 11 C 9.889 11, 11 10.583, 11 9.500 C 11 8.675, 10.127 8, 9.059 8 C 7.991 8, 6.898 7.644, 6.629 7.209 C 6.360 6.774, 7.745 6.605, 9.707 6.834 C 12.248 7.131, 13.066 6.915, 12.552 6.084 C 12.139 5.416, 9.939 5.015, 7.415 5.145 C 3.295 5.358, 3 5.562, 3 8.187 M 7.813 9.683 C 8.534 9.972, 9.397 9.936, 9.729 9.604 C 10.061 9.272, 9.471 9.036, 8.417 9.079 C 7.252 9.127, 7.015 9.364, 7.813 9.683" stroke="none" fill="blue" fill-rule="evenodd"/>
</svg>