<svg xmlns="http://www.w3.org/2000/svg" width="16" height="16" viewBox="0 0 16 16" version="1.1">
	<rect x="0" y="0" width="100%" height="100%" fill="#bfbfbf" />
	<path d="M 0 8.040 L 0 16.081 8.250 15.790 L 16.500 15.500 16.792 7.750 L 17.084 0 8.542 0 L 0 0 0 8.040 M 0.343 8.500 C 0.346 12.900, 0.522 14.576, 0.733 12.224 C 0.945 9.872, 0.942 6.272, 0.727 4.224 C 0.512 2.176, 0.339 4.100, 0.343 8.500 M 4 3 C 1.603 5.397, 1.403 9.882, 3.574 12.559 C 4.440 13.626, 4.813 13.825, 4.402 13 C 3.849 11.887, 4.173 11.952, 5.657 13.250 C 8.389 15.640, 11.574 15.447, 13.443 12.777 C 15.565 9.748, 15.397 6.775, 12.927 3.635 C 10.437 0.468, 6.791 0.209, 4 3" stroke="none" fill="blue" fill-rule="evenodd"/>
</svg>