<svg xmlns="http://www.w3.org/2000/svg" width="32" height="16" viewBox="0 0 32 16" version="1.1">
	<rect x="0" y="0" width="100%" height="100%" fill="#bfbfbf" />
	<path d="M 13 2 C 13 2.550, 13.675 3, 14.500 3 C 15.325 3, 16 2.550, 16 2 C 16 1.450, 15.325 1, 14.500 1 C 13.675 1, 13 1.450, 13 2 M 14 5 C 14 5.550, 14.450 6, 15 6 C 15.550 6, 16 5.550, 16 5 C 16 4.450, 15.550 4, 15 4 C 14.450 4, 14 4.450, 14 5 M 2 5.820 C 1.070 6.241, 0.500 7.869, 0.500 10.098 C 0.500 13.489, 0.693 13.704, 3.853 13.822 C 6.312 13.913, 7.968 13.186, 10.059 11.095 C 13.133 8.021, 12.967 7, 9.392 7 C 8.141 7, 6.840 6.550, 6.500 6 C 5.805 4.875, 4.224 4.812, 2 5.820 M 2.384 7.442 C 1.247 10.406, 2.468 12.495, 5.509 12.787 C 7.806 13.007, 8.152 12.837, 7 12.052 C 5.740 11.194, 5.820 11.017, 7.500 10.945 L 9.500 10.859 7.500 10.043 C 5.815 9.356, 6.051 9.156, 9 8.774 C 12.235 8.354, 12.160 8.307, 8 8.145 C 4.688 8.016, 3.896 7.713, 5 7 C 6.276 6.175, 6.235 6.028, 4.719 6.015 C 3.739 6.007, 2.688 6.649, 2.384 7.442 M 14 11 C 14 11.550, 14.450 12, 15 12 C 15.550 12, 16 11.550, 16 11 C 16 10.450, 15.550 10, 15 10 C 14.450 10, 14 10.450, 14 11 M 13 14 C 13 14.550, 13.675 15, 14.500 15 C 15.325 15, 16 14.550, 16 14 C 16 13.450, 15.325 13, 14.500 13 C 13.675 13, 13 13.450, 13 14" stroke="none" fill="blue" fill-rule="evenodd"/>
</svg>