<svg xmlns="http://www.w3.org/2000/svg" width="32" height="16" viewBox="0 0 32 16" version="1.1">
	<rect x="0" y="0" width="100%" height="100%" fill="#bfbfbf" />
	<path d="M 0.667 5.667 C -0.581 6.914, -0.006 11.750, 1.542 13.035 C 2.711 14.005, 3.366 14.034, 4.242 13.158 C 5.735 11.665, 10.265 11.665, 11.758 13.158 C 12.634 14.034, 13.289 14.005, 14.458 13.035 C 18.412 9.753, 13.617 5, 6.352 5 C 3.592 5, 1.033 5.300, 0.667 5.667 M 1 8.500 C 1 10.929, 1.200 11, 8 11 C 12 11, 15 10.571, 15 10 C 15 9.450, 13.636 9, 11.969 9 C 10.197 9, 8.698 8.377, 8.362 7.500 C 8.006 6.574, 6.487 6, 4.393 6 C 1.440 6, 1 6.325, 1 8.500 M 9 7 C 9 7.550, 9.927 8, 11.059 8 C 12.191 8, 12.840 7.550, 12.500 7 C 12.160 6.450, 11.234 6, 10.441 6 C 9.648 6, 9 6.450, 9 7" stroke="none" fill="blue" fill-rule="evenodd"/>
</svg>