<svg xmlns="http://www.w3.org/2000/svg" width="32" height="16" viewBox="0 0 32 16" version="1.1">
	<rect x="0" y="0" width="100%" height="100%" fill="#bfbfbf" />
	<path d="M 0 8.025 L 0 16.050 16.250 15.775 L 32.500 15.500 32.792 7.750 L 33.084 0 16.542 0 L 0 0 0 8.025 M 0.343 8.500 C 0.346 12.900, 0.522 14.576, 0.733 12.224 C 0.945 9.872, 0.942 6.272, 0.727 4.224 C 0.512 2.176, 0.339 4.100, 0.343 8.500 M 2.390 6.500 L 2.500 10.500 7.088 10.798 C 10.294 11.007, 12.062 10.630, 12.960 9.548 C 14.087 8.190, 13.701 8, 9.822 8 C 7.390 8, 4.769 8.563, 3.998 9.250 C 2.806 10.313, 2.794 10.239, 3.921 8.750 C 4.649 7.787, 6.540 7, 8.122 7 C 11.464 7, 11.971 5.487, 8.899 4.684 C 7.744 4.382, 7.026 3.767, 7.304 3.317 C 7.582 2.868, 6.565 2.500, 5.044 2.500 C 2.467 2.500, 2.287 2.771, 2.390 6.500 M 18.200 3.200 C 17.540 3.860, 17 5.795, 17 7.500 C 17 11.749, 18.602 13, 24.045 13 C 27.477 13, 29.181 12.458, 30.569 10.923 C 32.417 8.882, 32.407 8.815, 29.974 6.920 C 26.890 4.518, 22.065 2, 20.546 2 C 19.916 2, 18.860 2.540, 18.200 3.200 M 18.689 3.644 C 18.411 3.923, 18.551 5.433, 19 7 C 19.449 8.567, 19.646 10.021, 19.436 10.231 C 19.226 10.441, 20.922 10.722, 23.205 10.857 C 25.488 10.992, 27.675 11.299, 28.065 11.540 C 28.454 11.781, 29.288 11.358, 29.917 10.600 C 30.863 9.460, 30.192 9.230, 26.031 9.265 C 20.432 9.313, 19.142 7.777, 24.128 7 L 27.334 6.500 24.917 5.341 C 21.388 3.648, 19.264 3.069, 18.689 3.644" stroke="none" fill="blue" fill-rule="evenodd"/>
</svg>