<svg xmlns="http://www.w3.org/2000/svg" width="32" height="16" viewBox="0 0 32 16" version="1.1">
	<rect x="0" y="0" width="100%" height="100%" fill="#bfbfbf" />
	<path d="M 0 8.025 L 0 16.050 16.250 15.775 L 32.500 15.500 32.792 7.750 L 33.084 0 16.542 0 L 0 0 0 8.025 M 0.343 8.500 C 0.346 12.900, 0.522 14.576, 0.733 12.224 C 0.945 9.872, 0.942 6.272, 0.727 4.224 C 0.512 2.176, 0.339 4.100, 0.343 8.500 M 3.655 4.250 C 3.909 4.662, 4.965 5, 6 5 C 7.035 5, 8.091 4.662, 8.345 4.250 C 8.600 3.837, 7.545 3.500, 6 3.500 C 4.455 3.500, 3.400 3.837, 3.655 4.250 M 19.200 4.200 C 18.540 4.860, 18 6.795, 18 8.500 C 18 12.784, 19.605 14, 25.260 14 L 30.121 14 29.810 10.324 C 29.569 7.466, 28.833 6.259, 26.500 4.897 C 22.892 2.791, 20.808 2.592, 19.200 4.200 M 3 9 C 3 11.889, 3.167 12, 7.500 12 C 11.833 12, 12 11.889, 12 9 C 12 6.111, 11.833 6, 7.500 6 C 3.167 6, 3 6.111, 3 9 M 20 9.500 C 20 11.750, 20.400 12, 24 12 C 27.600 12, 28 11.750, 28 9.500 C 28 7.250, 27.600 7, 24 7 C 20.400 7, 20 7.250, 20 9.500" stroke="none" fill="blue" fill-rule="evenodd"/>
</svg>