<svg xmlns="http://www.w3.org/2000/svg" width="32" height="16" viewBox="0 0 32 16" version="1.1">
	<rect x="0" y="0" width="100%" height="100%" fill="#bfbfbf" />
	<path d="M 0 7.992 L 0 16 10.008 16 C 19.213 16, 19.945 15.860, 19.125 14.250 C 16.456 9.013, 15.867 7.052, 16.168 4.412 C 16.370 2.641, 17.019 1.608, 17.824 1.775 C 18.553 1.926, 18.864 1.588, 18.515 1.025 C 17.626 -0.414, 8.381 -0.255, 5.986 1.241 C 4.404 2.229, 3.593 2.227, 2 1.232 C 0.063 0.022, 0 0.233, 0 7.992 M 2.750 0.662 C 3.438 0.940, 4.563 0.940, 5.250 0.662 C 5.938 0.385, 5.375 0.158, 4 0.158 C 2.625 0.158, 2.063 0.385, 2.750 0.662 M 22 0.525 C 22 0.813, 23.137 1.482, 24.526 2.010 C 25.915 2.538, 27.297 3.764, 27.598 4.735 C 29.638 11.325, 32 11.512, 32 5.083 L 32 0 27 0 C 24.250 0, 22 0.236, 22 0.525 M 1 6.223 C 1 9.424, 1.010 9.431, 2.557 7.223 C 4.269 4.777, 6.940 4.340, 8.800 6.200 C 9.733 7.133, 10 6.911, 10 5.200 C 10 3.259, 9.470 3, 5.500 3 C 1.098 3, 1 3.070, 1 6.223 M 18 5.300 C 18 6.015, 18.447 7.047, 18.994 7.594 C 19.541 8.141, 20.082 9.723, 20.197 11.111 C 20.379 13.312, 20.920 13.663, 24.453 13.870 C 26.679 14, 28.927 14.533, 29.450 15.054 C 30.951 16.549, 31.888 16.163, 31.734 14.113 C 31.615 12.540, 30.795 12.233, 26.797 12.267 C 21.383 12.313, 20.241 10.762, 25.128 10 L 28.334 9.500 25.735 8.117 C 24.305 7.357, 22.406 7.014, 21.516 7.356 C 20.453 7.763, 20.139 7.584, 20.603 6.834 C 21.067 6.082, 20.861 5.968, 20 6.500 C 19.134 7.035, 18.932 6.918, 19.405 6.155 C 20.334 4.651, 23.276 4.676, 24.800 6.200 C 25.733 7.133, 26 7.022, 26 5.700 C 26 4.383, 25.098 4, 22 4 C 19.385 4, 18 4.450, 18 5.300 M 3.390 7.427 C 3.088 8.212, 2.990 9.900, 3.171 11.177 C 3.453 13.169, 4.154 13.543, 8.088 13.798 C 11.294 14.007, 13.062 13.630, 13.960 12.548 C 15.087 11.190, 14.701 11, 10.822 11 C 8.390 11, 5.769 11.563, 4.998 12.250 C 3.806 13.313, 3.794 13.239, 4.921 11.750 C 5.649 10.787, 7.540 10, 9.122 10 C 12.727 10, 12.797 8.877, 9.293 7.250 C 5.780 5.619, 4.064 5.670, 3.390 7.427" stroke="none" fill="blue" fill-rule="evenodd"/>
</svg>