<svg xmlns="http://www.w3.org/2000/svg" width="32" height="16" viewBox="0 0 32 16" version="1.1">
	<rect x="0" y="0" width="100%" height="100%" fill="#bfbfbf" />
	<path d="M 0.415 1.362 C 0.127 2.111, 0.029 5.374, 0.196 8.612 C 0.466 13.847, 0.749 14.535, 2.750 14.820 C 4.582 15.080, 5 14.662, 5 12.570 C 5 10.300, 5.408 10, 8.500 10 C 11.597 10, 12 10.298, 12 12.583 C 12 14.206, 12.465 15.012, 13.250 14.750 C 14.087 14.471, 14.500 12.078, 14.500 7.500 C 14.500 2.922, 14.087 0.529, 13.250 0.250 C 12.386 -0.038, 12 1.094, 12 3.917 L 12 8 7.500 8 L 3 8 3 4 C 3 0.129, 1.482 -1.419, 0.415 1.362 M 7 12 C 7 12.550, 7.450 13, 8 13 C 8.550 13, 9 12.550, 9 12 C 9 11.450, 8.550 11, 8 11 C 7.450 11, 7 11.450, 7 12" stroke="none" fill="blue" fill-rule="evenodd"/>
</svg>