<svg xmlns="http://www.w3.org/2000/svg" width="32" height="16" viewBox="0 0 32 16" version="1.1">
	<rect x="0" y="0" width="100%" height="100%" fill="#bfbfbf" />
	<path d="M 0 8 L 0 16 9.200 16 C 16.356 16, 18.133 15.733, 17.200 14.800 C 15.650 13.250, 15.650 7.750, 17.200 6.200 C 17.860 5.540, 19.210 5, 20.200 5 C 21.333 5, 22 4.259, 22 3 C 22 1.399, 22.667 1, 25.345 1 C 30.109 1, 32 3.529, 32 9.898 C 32 14.768, 31.841 15.115, 29.750 14.796 C 28.512 14.607, 27.597 13.947, 27.716 13.328 C 27.837 12.699, 26.222 12.040, 24.050 11.833 C 21.840 11.623, 20.414 11.861, 20.739 12.386 C 21.065 12.913, 20.749 12.963, 20.003 12.502 C 18.968 11.862, 19.039 11.444, 20.349 10.487 C 22.528 8.893, 22.465 6.764, 20.250 7.190 C 19.069 7.418, 18.468 8.518, 18.400 10.577 C 18.306 13.440, 18.541 13.641, 22.237 13.859 C 24.402 13.987, 26.975 14.592, 27.954 15.203 C 31.718 17.554, 33 15.606, 33 7.531 L 33 0 16.500 0 L 0 0 0 8 M 0.063 8.583 C 0.109 14.252, 0.380 15.872, 1.017 14.287 C 1.507 13.070, 2.829 11.499, 3.954 10.797 C 6.881 8.968, 6.699 5.633, 3.703 6.206 C 1.841 6.562, 1.368 6.174, 1.201 4.153 C 0.727 -1.569, 0.005 1.245, 0.063 8.583 M 7 6 C 7 9.905, 7.083 10, 10.500 10 C 12.425 10, 14 10.338, 14.001 10.750 C 14.001 11.162, 11.837 11.350, 9.192 11.166 C 5.716 10.925, 4.020 11.272, 3.069 12.416 C 1.903 13.822, 2.268 14, 6.319 14 C 8.828 14, 11.148 13.570, 11.473 13.044 C 11.798 12.518, 12.725 12.341, 13.532 12.651 C 14.676 13.090, 15 12.307, 15 9.107 C 15 6.123, 14.590 5, 13.500 5 C 12.675 5, 12 4.325, 12 3.500 C 12 2.567, 11.056 2, 9.500 2 C 7.250 2, 7 2.400, 7 6 M 25.559 4.468 C 28.070 6.368, 29.083 6.379, 28.362 4.500 C 28.045 3.675, 26.848 3, 25.702 3 C 23.655 3, 23.652 3.026, 25.559 4.468 M 9.250 6.689 C 10.213 6.941, 11.787 6.941, 12.750 6.689 C 13.713 6.438, 12.925 6.232, 11 6.232 C 9.075 6.232, 8.287 6.438, 9.250 6.689 M 9.250 8.689 C 10.213 8.941, 11.787 8.941, 12.750 8.689 C 13.713 8.438, 12.925 8.232, 11 8.232 C 9.075 8.232, 8.287 8.438, 9.250 8.689" stroke="none" fill="blue" fill-rule="evenodd"/>
</svg>