<svg xmlns="http://www.w3.org/2000/svg" width="32" height="16" viewBox="0 0 32 16" version="1.1">
	<rect x="0" y="0" width="100%" height="100%" fill="#bfbfbf" />
	<path d="M 6.384 8.037 C 4.789 12.591, 4.607 14, 5.616 14 C 6.380 14, 6.694 13.367, 6.362 12.500 C 5.957 11.445, 6.443 11, 8 11 C 9.557 11, 10.043 11.445, 9.638 12.500 C 9.226 13.574, 9.737 14, 11.435 14 L 13.808 14 11.828 8.750 C 10.739 5.862, 9.539 3.179, 9.161 2.787 C 8.783 2.394, 7.533 4.757, 6.384 8.037 M 7.583 7.866 C 7.152 8.563, 7.070 9.403, 7.400 9.733 C 8.295 10.628, 9.271 9.312, 8.787 7.862 C 8.449 6.846, 8.213 6.846, 7.583 7.866" stroke="none" fill="blue" fill-rule="evenodd"/>
</svg>