<svg xmlns="http://www.w3.org/2000/svg" width="32" height="16" viewBox="0 0 32 16" version="1.1">
	<rect x="0" y="0" width="100%" height="100%" fill="#bfbfbf" />
	<path d="M 9.522 7.935 C 8.596 10.721, 7.402 13, 6.869 13 C 6.335 13, 5.183 11.313, 4.309 9.250 L 2.720 5.500 1.436 9 C -0.195 13.446, -0.237 14, 1.059 14 C 1.641 14, 1.840 13.550, 1.500 13 C 1.160 12.450, 1.610 12, 2.500 12 C 3.390 12, 3.840 12.450, 3.500 13 C 3.133 13.594, 4.312 14, 6.410 14 C 9.134 14, 9.806 13.659, 9.362 12.500 C 8.957 11.445, 9.443 11, 11 11 C 12.557 11, 13.043 11.445, 12.638 12.500 C 12.253 13.504, 12.682 14, 13.935 14 C 15.750 14, 15.747 13.838, 13.816 8.750 C 12.720 5.862, 11.684 3.358, 11.514 3.185 C 11.343 3.012, 10.447 5.150, 9.522 7.935 M 10.583 7.866 C 10.152 8.563, 10.070 9.403, 10.400 9.733 C 11.295 10.628, 12.271 9.312, 11.787 7.862 C 11.449 6.846, 11.213 6.846, 10.583 7.866" stroke="none" fill="blue" fill-rule="evenodd"/>
</svg>