<svg xmlns="http://www.w3.org/2000/svg" width="32" height="16" viewBox="0 0 32 16" version="1.1">
	<rect x="0" y="0" width="100%" height="100%" fill="#bfbfbf" />
	<path d="M 1.613 8.407 C 1.280 9.731, 0.733 11.531, 0.397 12.407 C 0.053 13.303, 0.296 14, 0.952 14 C 1.593 14, 1.840 13.550, 1.500 13 C 1.160 12.450, 1.610 12, 2.500 12 C 3.390 12, 3.840 12.450, 3.500 13 C 3.160 13.550, 3.752 14, 4.816 14 C 6.719 14, 6.719 13.938, 4.770 10 C 3.682 7.800, 2.662 6, 2.504 6 C 2.346 6, 1.945 7.083, 1.613 8.407 M 12.684 8.360 C 11.834 9.658, 10.400 11.458, 9.497 12.360 C 8.035 13.822, 8.028 14, 9.429 14 C 10.293 14, 11 13.550, 11 13 C 11 12.450, 11.702 12, 12.559 12 C 13.416 12, 13.840 12.450, 13.500 13 C 13.160 13.550, 13.483 14, 14.217 14 C 15.172 14, 15.444 12.860, 15.171 10 C 14.962 7.800, 14.664 6, 14.510 6 C 14.356 6, 13.534 7.062, 12.684 8.360 M 12.500 10 C 12.160 10.550, 12.359 11, 12.941 11 C 13.523 11, 14 10.550, 14 10 C 14 9.450, 13.802 9, 13.559 9 C 13.316 9, 12.840 9.450, 12.500 10" stroke="none" fill="blue" fill-rule="evenodd"/>
</svg>