<svg xmlns="http://www.w3.org/2000/svg" width="32" height="16" viewBox="0 0 32 16" version="1.1">
	<rect x="0" y="0" width="100%" height="100%" fill="#bfbfbf" />
	<path d="M 1.611 8.414 C 1.280 9.734, 0.733 11.531, 0.397 12.407 C 0.053 13.303, 0.296 14, 0.952 14 C 1.593 14, 1.840 13.550, 1.500 13 C 1.160 12.450, 1.610 12, 2.500 12 C 3.390 12, 3.840 12.450, 3.500 13 C 3.131 13.596, 4.343 14, 6.500 14 C 8.657 14, 9.869 13.596, 9.500 13 C 9.160 12.450, 9.610 12, 10.500 12 C 11.390 12, 11.840 12.450, 11.500 13 C 11.152 13.564, 11.962 14, 13.358 14 L 15.834 14 13.667 10.008 C 12.475 7.813, 11.169 6.013, 10.763 6.008 C 10.358 6.004, 9.316 7.688, 8.448 9.750 C 6.944 13.322, 6.802 13.408, 5.435 11.559 C 4.646 10.491, 4 9.055, 4 8.368 C 4 5.989, 2.211 6.024, 1.611 8.414" stroke="none" fill="blue" fill-rule="evenodd"/>
</svg>