<svg xmlns="http://www.w3.org/2000/svg" width="469" height="159" viewBox="0 0 469 159" version="1.1">
	<rect x="0" y="0" width="100%" height="100%" fill="#bfbfbf" />
	<path d="M 461 0.927 C 461 1.436, 460.212 2.059, 459.250 2.311 C 458.288 2.562, 460.200 2.768, 463.500 2.768 C 466.800 2.768, 468.712 2.562, 467.750 2.311 C 466.788 2.059, 466 1.436, 466 0.927 C 466 0.417, 464.875 0, 463.500 0 C 462.125 0, 461 0.417, 461 0.927 M 3.313 3.805 C 6.418 7.046, 6.922 11.613, 4.250 12.311 C 3.288 12.562, 4.525 12.768, 7 12.768 C 9.475 12.768, 10.713 12.562, 9.750 12.311 C 7.078 11.613, 7.582 7.046, 10.687 3.805 L 13.374 1 7 1 L 0.626 1 3.313 3.805 M 31 1.889 C 29.059 2.425, 28.427 3.340, 28.172 5.986 C 27.992 7.860, 27.092 9.943, 26.174 10.615 C 24.238 12.031, 25.180 13.529, 27.457 12.655 C 28.431 12.281, 29 10.803, 29 8.648 C 29 5.952, 29.474 5.106, 31.250 4.630 C 34.735 3.696, 35 3.828, 35 6.500 C 35 8.114, 34.439 9, 33.417 9 C 32.546 9, 32.021 9.563, 32.250 10.250 C 32.479 10.938, 33.304 11.500, 34.083 11.500 C 35.087 11.500, 35.588 9.971, 35.802 6.250 C 36.123 0.685, 35.946 0.525, 31 1.889 M 50.536 2.960 C 48.109 5.642, 49.200 9.761, 52.562 10.605 C 53.954 10.954, 55.373 10.960, 55.715 10.618 C 56.058 10.276, 57.164 10.744, 58.175 11.658 C 60.430 13.699, 61.811 12.683, 59.905 10.385 C 59.145 9.470, 58.656 7.716, 58.817 6.487 C 59.156 3.899, 56.656 1, 54.084 1 C 53.108 1, 51.512 1.882, 50.536 2.960 M 126.763 2.797 C 126.380 4.263, 125.403 5.011, 123.844 5.032 C 121.625 5.062, 121.598 5.138, 123.341 6.458 C 124.614 7.423, 124.972 8.511, 124.503 9.990 C 123.890 11.922, 124.017 12.006, 125.831 10.873 C 127.468 9.851, 128.161 9.885, 129.592 11.060 C 131.194 12.375, 131.292 12.289, 130.721 10.075 C 130.292 8.412, 130.631 7.244, 131.798 6.357 C 133.362 5.169, 133.330 5.061, 131.403 5.032 C 130.226 5.014, 128.874 4.033, 128.323 2.797 L 127.340 0.594 126.763 2.797 M 150.763 2.797 C 150.380 4.263, 149.403 5.011, 147.844 5.032 C 145.625 5.062, 145.598 5.138, 147.341 6.458 C 148.614 7.423, 148.972 8.511, 148.503 9.990 C 147.890 11.922, 148.017 12.006, 149.831 10.873 C 151.468 9.851, 152.161 9.885, 153.592 11.060 C 155.194 12.375, 155.292 12.289, 154.721 10.075 C 154.292 8.412, 154.631 7.244, 155.798 6.357 C 157.362 5.169, 157.330 5.061, 155.403 5.032 C 154.226 5.014, 152.874 4.033, 152.323 2.797 L 151.340 0.594 150.763 2.797 M 172.388 2.432 C 172.056 3.297, 172.062 5.110, 172.401 6.462 C 172.862 8.298, 172.510 9.192, 171.009 9.995 C 167.426 11.913, 168.870 13, 175 13 C 181.004 13, 182.537 11.961, 179.250 10.118 C 178.060 9.451, 177.500 7.915, 177.500 5.319 C 177.500 2.118, 177.135 1.448, 175.246 1.180 C 173.892 0.988, 172.750 1.488, 172.388 2.432 M 338.536 2.960 C 336.109 5.642, 337.200 9.761, 340.562 10.605 C 341.954 10.954, 343.373 10.960, 343.715 10.618 C 344.058 10.276, 345.164 10.744, 346.175 11.658 C 348.430 13.699, 349.811 12.683, 347.905 10.385 C 347.145 9.470, 346.656 7.716, 346.817 6.487 C 347.156 3.899, 344.656 1, 342.084 1 C 341.108 1, 339.512 1.882, 338.536 2.960 M 362.536 2.960 C 360.109 5.642, 361.200 9.761, 364.562 10.605 C 365.954 10.954, 367.373 10.960, 367.715 10.618 C 368.058 10.276, 369.164 10.744, 370.175 11.658 C 372.430 13.699, 373.811 12.683, 371.905 10.385 C 371.145 9.470, 370.656 7.716, 370.817 6.487 C 371.156 3.899, 368.656 1, 366.084 1 C 365.108 1, 363.512 1.882, 362.536 2.960 M 390 3.500 C 390 4.875, 390.450 6, 391 6 C 391.550 6, 392 4.875, 392 3.500 C 392 2.125, 391.550 1, 391 1 C 390.450 1, 390 2.125, 390 3.500 M 419 7 C 419 10.333, 419.444 13, 420 13 C 420.556 13, 421 10.333, 421 7 C 421 3.667, 420.556 1, 420 1 C 419.444 1, 419 3.667, 419 7 M 462.813 1.683 C 463.534 1.972, 464.397 1.936, 464.729 1.604 C 465.061 1.272, 464.471 1.036, 463.417 1.079 C 462.252 1.127, 462.015 1.364, 462.813 1.683 M 75.769 5.231 L 79 8.462 82.231 5.231 L 85.462 2 79 2 L 72.538 2 75.769 5.231 M 97.614 2.720 C 96.156 4.177, 97.211 7.828, 99.809 10.317 L 102.618 13.008 105.393 10.112 C 107.197 8.229, 108.051 6.391, 107.834 4.858 C 107.543 2.803, 106.905 2.475, 102.864 2.303 C 100.314 2.195, 97.951 2.382, 97.614 2.720 M 193 7.500 L 193 13 199 13 L 205 13 205 7.500 L 205 2 199 2 L 193 2 193 7.500 M 217 4.500 C 217 6.500, 217.500 7, 219.500 7 C 221.500 7, 222 6.500, 222 4.500 C 222 2.500, 221.500 2, 219.500 2 C 217.500 2, 217 2.500, 217 4.500 M 223 4.500 C 223 6.500, 223.500 7, 225.500 7 C 227.500 7, 228 6.500, 228 4.500 C 228 2.500, 227.500 2, 225.500 2 C 223.500 2, 223 2.500, 223 4.500 M 241 3.500 C 241 4.325, 241.675 5, 242.500 5 C 243.325 5, 244 4.325, 244 3.500 C 244 2.675, 243.325 2, 242.500 2 C 241.675 2, 241 2.675, 241 3.500 M 245 3.500 C 245 4.325, 245.675 5, 246.500 5 C 247.325 5, 248 4.325, 248 3.500 C 248 2.675, 247.325 2, 246.500 2 C 245.675 2, 245 2.675, 245 3.500 M 249 3.500 C 249 4.325, 249.675 5, 250.500 5 C 251.325 5, 252 4.325, 252 3.500 C 252 2.675, 251.325 2, 250.500 2 C 249.675 2, 249 2.675, 249 3.500 M 265 3.500 C 265 4.325, 265.675 5, 266.500 5 C 267.325 5, 268 4.325, 268 3.500 C 268 2.675, 267.325 2, 266.500 2 C 265.675 2, 265 2.675, 265 3.500 M 269 3.500 C 269 4.583, 270.111 5, 273 5 C 275.889 5, 277 4.583, 277 3.500 C 277 2.417, 275.889 2, 273 2 C 270.111 2, 269 2.417, 269 3.500 M 296.500 5 C 294.499 7.089, 293.307 7.670, 292.463 6.969 C 291.648 6.293, 290.907 6.407, 290.145 7.325 C 289.286 8.361, 289.558 9.176, 291.315 10.826 L 293.605 12.978 297.851 8.652 C 301.332 5.105, 301.849 4.119, 300.718 3.181 C 299.636 2.283, 298.728 2.675, 296.500 5 M 314.473 3.044 C 314.118 3.618, 314.372 4.743, 315.036 5.544 C 315.984 6.686, 315.969 7.333, 314.965 8.542 C 313.142 10.738, 315.262 12.858, 317.458 11.035 C 318.711 9.995, 319.289 9.995, 320.542 11.035 C 322.738 12.858, 324.858 10.738, 323.035 8.542 C 321.995 7.289, 321.995 6.711, 323.035 5.458 C 324.880 3.235, 322.729 1.150, 320.500 3 C 319.300 3.996, 318.634 4.034, 317.758 3.158 C 316.323 1.723, 315.311 1.688, 314.473 3.044 M 386.035 3.934 C 384.499 6.805, 384.767 8.767, 387 11 C 389.546 13.546, 392.454 13.546, 395 11 C 397.354 8.646, 397.548 6.131, 395.582 3.443 C 393.720 0.896, 392.476 2.188, 394.173 4.906 C 395.861 7.608, 394.221 10.500, 391 10.500 C 387.842 10.500, 386.135 7.614, 387.757 5.017 C 389.252 2.623, 389.310 2, 388.035 2 C 387.505 2, 386.605 2.870, 386.035 3.934 M 436.853 2.672 C 434.972 3.169, 433.952 6.102, 434.686 8.908 C 435.617 12.469, 442.383 12.469, 443.314 8.908 C 443.912 6.619, 443.086 3, 441.965 3 C 441.524 3, 440.564 2.828, 439.832 2.619 C 439.099 2.409, 437.759 2.433, 436.853 2.672 M 51.389 4.430 C 50.393 7.025, 51.788 9.169, 54.246 8.820 C 57.450 8.365, 57.450 3.635, 54.246 3.180 C 52.893 2.988, 51.750 3.488, 51.389 4.430 M 196 5 C 196 6.556, 196.667 7, 199 7 C 201.333 7, 202 6.556, 202 5 C 202 3.444, 201.333 3, 199 3 C 196.667 3, 196 3.444, 196 5 M 339.389 4.430 C 338.393 7.025, 339.788 9.169, 342.246 8.820 C 343.898 8.585, 344.500 7.833, 344.500 6 C 344.500 4.167, 343.898 3.415, 342.246 3.180 C 340.893 2.988, 339.750 3.488, 339.389 4.430 M 363.389 4.430 C 362.393 7.025, 363.788 9.169, 366.246 8.820 C 367.898 8.585, 368.500 7.833, 368.500 6 C 368.500 4.167, 367.898 3.415, 366.246 3.180 C 364.893 2.988, 363.750 3.488, 363.389 4.430 M 73 7 C 73 10.238, 73.095 10.333, 74.714 8.714 C 76.333 7.095, 76.333 6.905, 74.714 5.286 C 73.095 3.667, 73 3.762, 73 7 M 82.958 5.550 C 81.896 6.831, 81.961 7.390, 83.336 8.764 C 84.888 10.317, 85 10.212, 85 7.214 C 85 3.568, 84.763 3.375, 82.958 5.550 M 340.446 5.087 C 339.416 6.755, 341.733 8.667, 343.113 7.287 C 344.267 6.133, 343.545 4, 342 4 C 341.515 4, 340.816 4.489, 340.446 5.087 M 459 8.500 L 459 13 463.500 13 L 468 13 468 8.500 L 468 4 463.500 4 L 459 4 459 8.500 M 150.212 5.869 C 148.980 6.630, 149.867 8.380, 151.655 8.718 C 153.289 9.027, 154.142 6.269, 152.596 5.675 C 151.894 5.406, 150.821 5.493, 150.212 5.869 M 364 6 C 364 6.550, 364.900 7, 366 7 C 367.100 7, 368 6.550, 368 6 C 368 5.450, 367.100 5, 366 5 C 364.900 5, 364 5.450, 364 6 M 416 9 C 416 11.200, 416.450 13, 417 13 C 417.550 13, 418 11.200, 418 9 C 418 6.800, 417.550 5, 417 5 C 416.450 5, 416 6.800, 416 9 M 437.446 6.087 C 436.416 7.755, 438.733 9.667, 440.113 8.287 C 441.267 7.133, 440.545 5, 439 5 C 438.515 5, 437.816 5.489, 437.446 6.087 M 460.252 8.500 C 460.263 10.700, 460.468 11.482, 460.707 10.238 C 460.946 8.994, 460.937 7.194, 460.687 6.238 C 460.437 5.282, 460.241 6.300, 460.252 8.500 M 462.252 8.500 C 462.263 10.700, 462.468 11.482, 462.707 10.238 C 462.946 8.994, 462.937 7.194, 462.687 6.238 C 462.437 5.282, 462.241 6.300, 462.252 8.500 M 464.252 8.500 C 464.263 10.700, 464.468 11.482, 464.707 10.238 C 464.946 8.994, 464.937 7.194, 464.687 6.238 C 464.437 5.282, 464.241 6.300, 464.252 8.500 M 466.252 8.500 C 466.263 10.700, 466.468 11.482, 466.707 10.238 C 466.946 8.994, 466.937 7.194, 466.687 6.238 C 466.437 5.282, 466.241 6.300, 466.252 8.500 M 241 7.500 C 241 8.325, 241.675 9, 242.500 9 C 243.325 9, 244 8.325, 244 7.500 C 244 6.675, 243.325 6, 242.500 6 C 241.675 6, 241 6.675, 241 7.500 M 245 7.500 C 245 8.325, 245.675 9, 246.500 9 C 247.325 9, 248 8.325, 248 7.500 C 248 6.675, 247.325 6, 246.500 6 C 245.675 6, 245 6.675, 245 7.500 M 249 7.500 C 249 8.325, 249.675 9, 250.500 9 C 251.325 9, 252 8.325, 252 7.500 C 252 6.675, 251.325 6, 250.500 6 C 249.675 6, 249 6.675, 249 7.500 M 265 7.500 C 265 8.325, 265.675 9, 266.500 9 C 267.325 9, 268 8.325, 268 7.500 C 268 6.675, 267.325 6, 266.500 6 C 265.675 6, 265 6.675, 265 7.500 M 269 7.500 C 269 8.583, 270.111 9, 273 9 C 275.889 9, 277 8.583, 277 7.500 C 277 6.417, 275.889 6, 273 6 C 270.111 6, 269 6.417, 269 7.500 M 74.392 10.119 C 72.743 11.942, 72.888 12, 79.059 12 C 85.102 12, 85.340 11.911, 83.696 10.267 C 81.308 7.879, 76.489 7.803, 74.392 10.119 M 196 10 C 196 11.556, 196.667 12, 199 12 C 201.333 12, 202 11.556, 202 10 C 202 8.444, 201.333 8, 199 8 C 196.667 8, 196 8.444, 196 10 M 217 10.500 C 217 12.500, 217.500 13, 219.500 13 C 221.500 13, 222 12.500, 222 10.500 C 222 8.500, 221.500 8, 219.500 8 C 217.500 8, 217 8.500, 217 10.500 M 223 10.500 C 223 12.500, 223.500 13, 225.500 13 C 227.500 13, 228 12.500, 228 10.500 C 228 8.500, 227.500 8, 225.500 8 C 223.500 8, 223 8.500, 223 10.500 M 413 10.500 C 413 11.875, 413.450 13, 414 13 C 414.550 13, 415 11.875, 415 10.500 C 415 9.125, 414.550 8, 414 8 C 413.450 8, 413 9.125, 413 10.500 M 241 11.500 C 241 12.325, 241.675 13, 242.500 13 C 243.325 13, 244 12.325, 244 11.500 C 244 10.675, 243.325 10, 242.500 10 C 241.675 10, 241 10.675, 241 11.500 M 245 11.500 C 245 12.325, 245.675 13, 246.500 13 C 247.325 13, 248 12.325, 248 11.500 C 248 10.675, 247.325 10, 246.500 10 C 245.675 10, 245 10.675, 245 11.500 M 249 11.500 C 249 12.325, 249.675 13, 250.500 13 C 251.325 13, 252 12.325, 252 11.500 C 252 10.675, 251.325 10, 250.500 10 C 249.675 10, 249 10.675, 249 11.500 M 265 11.500 C 265 12.325, 265.675 13, 266.500 13 C 267.325 13, 268 12.325, 268 11.500 C 268 10.675, 267.325 10, 266.500 10 C 265.675 10, 265 10.675, 265 11.500 M 269 11.500 C 269 12.583, 270.111 13, 273 13 C 275.889 13, 277 12.583, 277 11.500 C 277 10.417, 275.889 10, 273 10 C 270.111 10, 269 10.417, 269 11.500 M 410 11.500 C 410 12.325, 410.450 13, 411 13 C 411.550 13, 412 12.325, 412 11.500 C 412 10.675, 411.550 10, 411 10 C 410.450 10, 410 10.675, 410 11.500 M 2.500 28 C 0.919 29.650, 0.160 31, 0.813 31 C 1.466 31, 2 32.350, 2 34 C 2 36, 2.500 37, 3.500 37 C 4.333 37, 5 36.111, 5 35 C 5 33.889, 5.667 33, 6.500 33 C 7.333 33, 8 33.889, 8 35 C 8 36.111, 8.667 37, 9.500 37 C 10.500 37, 11 36, 11 34 C 11 32.350, 11.534 31, 12.187 31 C 12.840 31, 12.081 29.650, 10.500 28 C 8.919 26.350, 7.119 25, 6.500 25 C 5.881 25, 4.081 26.350, 2.500 28 M 26 31 L 26 37 30.500 37 C 34.976 37, 35 36.981, 35 33.500 C 35 30.667, 34.619 30, 33 30 C 31.533 30, 31 29.333, 31 27.500 C 31 25.500, 30.500 25, 28.500 25 C 26.111 25, 26 25.267, 26 31 M 51 27 C 49.900 28.100, 49 29.900, 49 31 C 49 32.100, 49.900 33.900, 51 35 C 52.100 36.100, 53.900 37, 55 37 C 57.576 37, 61 33.576, 61 31 C 61 29.900, 60.100 28.100, 59 27 C 57.900 25.900, 56.100 25, 55 25 C 53.900 25, 52.100 25.900, 51 27 M 74.700 29.250 C 73.881 31.587, 72.891 34.288, 72.499 35.250 C 71.924 36.661, 72.310 37, 74.487 37 C 76.346 37, 77.350 36.377, 77.710 35 C 77.998 33.900, 78.578 33, 79 33 C 79.422 33, 80.002 33.900, 80.290 35 C 80.650 36.377, 81.654 37, 83.513 37 C 85.690 37, 86.076 36.661, 85.501 35.250 C 85.109 34.288, 84.119 31.587, 83.300 29.250 C 81.839 25.078, 80 23.545, 80 26.500 C 80 27.325, 79.550 28, 79 28 C 78.450 28, 78 27.325, 78 26.500 C 78 23.545, 76.161 25.078, 74.700 29.250 M 101 27.500 C 101 28.875, 100.495 30, 99.878 30 C 99.102 30, 99.140 30.464, 100 31.500 C 101.040 32.753, 100.896 33, 99.122 33 C 97.667 33, 97 33.628, 97 35 C 97 36.758, 97.667 37, 102.500 37 C 107.333 37, 108 36.758, 108 35 C 108 33.628, 107.333 33, 105.878 33 C 104.104 33, 103.960 32.753, 105 31.500 C 105.860 30.464, 105.898 30, 105.122 30 C 104.505 30, 104 28.875, 104 27.500 C 104 25.944, 103.433 25, 102.500 25 C 101.567 25, 101 25.944, 101 27.500 M 123 27 C 121.900 28.100, 121 29.900, 121 31 C 121 33.576, 124.424 37, 127 37 C 128.100 37, 129.900 36.100, 131 35 C 132.100 33.900, 133 32.100, 133 31 C 133 29.900, 132.100 28.100, 131 27 C 129.900 25.900, 128.100 25, 127 25 C 125.900 25, 124.100 25.900, 123 27 M 147 27 C 145.900 28.100, 145 29.900, 145 31 C 145 33.576, 148.424 37, 151 37 C 152.100 37, 153.900 36.100, 155 35 C 156.100 33.900, 157 32.100, 157 31 C 157 29.900, 156.100 28.100, 155 27 C 153.900 25.900, 152.100 25, 151 25 C 149.900 25, 148.100 25.900, 147 27 M 170.098 28.149 C 169.494 29.881, 169 32.581, 169 34.149 C 169 36.974, 169.056 37, 175.139 37 L 181.279 37 180.684 31.976 C 179.906 25.408, 179.576 25, 175.039 25 C 171.627 25, 171.072 25.354, 170.098 28.149 M 195 27 C 193.900 28.100, 193 29.900, 193 31 C 193 33.576, 196.424 37, 199 37 C 200.100 37, 201.900 36.100, 203 35 C 204.100 33.900, 205 32.100, 205 31 C 205 29.900, 204.100 28.100, 203 27 C 201.900 25.900, 200.100 25, 199 25 C 197.900 25, 196.100 25.900, 195 27 M 218.999 27.001 C 217.900 28.100, 217 29.900, 217 31 C 217 33.576, 220.424 37, 223 37 C 225.083 37, 229 33.736, 229 32 C 229 30.331, 227.558 30.877, 226.193 33.063 C 224.675 35.493, 221.224 35.329, 219.607 32.750 C 218.172 30.460, 219.877 27.622, 222.963 27.166 C 224.392 26.955, 224.976 27.230, 224.552 27.916 C 224.154 28.561, 224.716 29, 225.941 29 C 227.236 29, 227.999 28.351, 227.998 27.250 C 227.995 24.591, 221.587 24.413, 218.999 27.001 M 242.999 27.001 C 240.978 29.022, 240.365 31, 241.759 31 C 242.177 31, 243.081 30.100, 243.768 29 C 244.455 27.900, 245.940 27, 247.067 27 C 248.195 27, 248.840 27.450, 248.500 28 C 248.160 28.550, 248.809 29, 249.941 29 C 251.236 29, 251.999 28.351, 251.998 27.250 C 251.995 24.591, 245.587 24.413, 242.999 27.001 M 266 31 L 266 37 271.500 37 L 277 37 277 31 L 277 25 271.500 25 L 266 25 266 31 M 291.290 27 C 291.002 28.100, 290.369 29, 289.883 29 C 289.398 29, 289 30.800, 289 33 L 289 37 294.500 37 L 300 37 300 33 C 300 30.800, 299.602 29, 299.117 29 C 298.631 29, 297.998 28.100, 297.710 27 C 297.351 25.626, 296.346 25, 294.500 25 C 292.654 25, 291.649 25.626, 291.290 27 M 339 27 C 337.900 28.100, 337.025 30.238, 337.056 31.750 C 337.110 34.363, 337.172 34.326, 338.306 31 C 339.366 27.894, 339.894 27.500, 343 27.500 C 346.106 27.500, 346.634 27.894, 347.694 31 C 348.828 34.326, 348.890 34.363, 348.944 31.750 C 349.009 28.550, 345.883 25, 343 25 C 341.900 25, 340.100 25.900, 339 27 M 433 27.914 C 433 30.527, 433.256 30.759, 435.481 30.164 C 436.846 29.799, 437.971 29.163, 437.981 28.750 C 438.066 25.405, 437.798 25, 435.500 25 C 433.405 25, 433 25.472, 433 27.914 M 439.565 27.250 C 439.950 28.488, 440.655 29.650, 441.132 29.833 C 441.609 30.017, 442 30.804, 442 31.583 C 442 32.362, 442.675 33, 443.500 33 C 445.316 33, 445.491 31.365, 443.750 30.662 C 442.750 30.259, 442.750 30.142, 443.750 30.079 C 444.438 30.036, 445 28.875, 445 27.500 C 445 25.377, 444.538 25, 441.933 25 C 439.211 25, 438.944 25.254, 439.565 27.250 M 457.300 30 C 457.300 33.025, 457.487 34.263, 457.716 32.750 C 457.945 31.238, 457.945 28.763, 457.716 27.250 C 457.487 25.738, 457.300 26.975, 457.300 30 M 459.300 30 C 459.300 33.025, 459.487 34.263, 459.716 32.750 C 459.945 31.238, 459.945 28.763, 459.716 27.250 C 459.487 25.738, 459.300 26.975, 459.300 30 M 462 30 C 462 32.750, 462.450 35, 463 35 C 463.550 35, 464 32.750, 464 30 C 464 27.250, 463.550 25, 463 25 C 462.450 25, 462 27.250, 462 30 M 465.300 30 C 465.300 33.025, 465.487 34.263, 465.716 32.750 C 465.945 31.238, 465.945 28.763, 465.716 27.250 C 465.487 25.738, 465.300 26.975, 465.300 30 M 467 30 C 467 32.750, 467.450 35, 468 35 C 468.550 35, 469 32.750, 469 30 C 469 27.250, 468.550 25, 468 25 C 467.450 25, 467 27.250, 467 30 M 32 27.500 C 32 28.325, 32.730 29, 33.622 29 C 34.951 29, 35.020 28.729, 34 27.500 C 33.315 26.675, 32.585 26, 32.378 26 C 32.170 26, 32 26.675, 32 27.500 M 314.310 31.500 C 314.315 34.800, 314.502 36.029, 314.725 34.232 C 314.947 32.435, 314.943 29.735, 314.715 28.232 C 314.486 26.729, 314.304 28.200, 314.310 31.500 M 319.750 26.810 C 316.423 27.086, 316 27.424, 316 29.810 C 316 32.252, 316.345 32.499, 319.739 32.489 C 322.489 32.480, 323.565 32.018, 323.812 30.739 C 324.467 27.336, 323.595 26.492, 319.750 26.810 M 434 27.500 C 434 28.325, 434.675 29, 435.500 29 C 436.325 29, 437 28.325, 437 27.500 C 437 26.675, 436.325 26, 435.500 26 C 434.675 26, 434 26.675, 434 27.500 M 441 27.500 C 441 28.325, 441.675 29, 442.500 29 C 443.325 29, 444 28.325, 444 27.500 C 444 26.675, 443.325 26, 442.500 26 C 441.675 26, 441 26.675, 441 27.500 M 52.040 28.452 C 49.383 31.653, 53.285 36.570, 56.750 34.388 C 58.972 32.989, 59.515 30.325, 57.960 28.452 C 56.416 26.591, 53.584 26.591, 52.040 28.452 M 124.040 28.452 C 121.383 31.653, 125.285 36.570, 128.750 34.388 C 130.972 32.989, 131.515 30.325, 129.960 28.452 C 128.416 26.591, 125.584 26.591, 124.040 28.452 M 148.040 28.452 C 146.485 30.325, 147.028 32.989, 149.250 34.388 C 152.715 36.570, 156.617 31.653, 153.960 28.452 C 152.416 26.591, 149.584 26.591, 148.040 28.452 M 171.676 29.131 C 171.106 31.309, 172.943 34, 175 34 C 177.057 34, 178.894 31.309, 178.324 29.131 C 177.925 27.604, 176.982 27, 175 27 C 173.018 27, 172.075 27.604, 171.676 29.131 M 196.040 28.452 C 193.383 31.653, 197.285 36.570, 200.750 34.388 C 202.972 32.989, 203.515 30.325, 201.960 28.452 C 200.416 26.591, 197.584 26.591, 196.040 28.452 M 267 31.500 L 267 36 271.500 36 L 276 36 276 31.500 L 276 27 271.500 27 L 267 27 267 31.500 M 293 28 C 293 28.550, 293.675 29, 294.500 29 C 295.325 29, 296 28.550, 296 28 C 296 27.450, 295.325 27, 294.500 27 C 293.675 27, 293 27.450, 293 28 M 365.500 28 C 365.160 28.550, 364.009 29, 362.941 29 C 361.667 29, 361 29.687, 361 31 C 361 32.259, 361.667 33, 362.800 33 C 363.790 33, 365.140 33.540, 365.800 34.200 C 366.733 35.133, 367 34.467, 367 31.200 C 367 26.960, 366.630 26.171, 365.500 28 M 389.500 28 C 389.160 28.550, 388.009 29, 386.941 29 C 385.667 29, 385 29.687, 385 31 C 385 32.259, 385.667 33, 386.800 33 C 387.790 33, 389.140 33.540, 389.800 34.200 C 390.733 35.133, 391 34.467, 391 31.200 C 391 26.960, 390.630 26.171, 389.500 28 M 413.500 28 C 413.160 28.550, 412.009 29, 410.941 29 C 409.667 29, 409 29.687, 409 31 C 409 32.259, 409.667 33, 410.800 33 C 411.790 33, 413.140 33.540, 413.800 34.200 C 414.733 35.133, 415 34.467, 415 31.200 C 415 26.960, 414.630 26.171, 413.500 28 M 418 28 C 418 28.615, 417.663 28.909, 417.250 28.655 C 416.837 28.400, 416.500 29.455, 416.500 31 C 416.500 32.545, 416.837 33.600, 417.250 33.345 C 417.663 33.091, 418 33.385, 418 34 C 418 34.615, 418.450 34.840, 419 34.500 C 419.550 34.160, 420 32.585, 420 31 C 420 29.415, 419.550 27.840, 419 27.500 C 418.450 27.160, 418 27.385, 418 28 M 54.079 29.750 C 54.026 31.262, 54.574 31.995, 55.750 31.985 C 56.829 31.975, 57.078 31.688, 56.400 31.235 C 55.795 30.831, 55.043 29.825, 54.729 29 C 54.347 27.998, 54.132 28.247, 54.079 29.750 M 125.711 29.999 C 125.161 32.101, 126.368 33.508, 127.906 32.558 C 128.942 31.918, 128.163 28, 127 28 C 126.578 28, 125.998 28.900, 125.711 29.999 M 149.746 29.250 C 149.197 30.883, 150.019 34, 151 34 C 151.981 34, 152.803 30.883, 152.254 29.250 C 152.023 28.563, 151.458 28, 151 28 C 150.542 28, 149.977 28.563, 149.746 29.250 M 271.269 28.693 C 272.242 28.947, 273.592 28.930, 274.269 28.656 C 274.946 28.382, 274.150 28.175, 272.500 28.195 C 270.850 28.215, 270.296 28.439, 271.269 28.693 M 392.500 31 C 392.500 32.545, 392.837 33.600, 393.250 33.345 C 393.663 33.091, 394 32.035, 394 31 C 394 29.965, 393.663 28.909, 393.250 28.655 C 392.837 28.400, 392.500 29.455, 392.500 31 M 78 30.500 C 78 31.325, 78.450 32, 79 32 C 79.550 32, 80 31.325, 80 30.500 C 80 29.675, 79.550 29, 79 29 C 78.450 29, 78 29.675, 78 30.500 M 198 31 C 198 32.867, 198.267 33.133, 199.200 32.200 C 200.133 31.267, 200.133 30.733, 199.200 29.800 C 198.267 28.867, 198 29.133, 198 31 M 368.429 31 C 368.429 31.864, 369.136 32.571, 370 32.571 C 370.864 32.571, 371.571 31.864, 371.571 31 C 371.571 30.136, 370.864 29.429, 370 29.429 C 369.136 29.429, 368.429 30.136, 368.429 31 M 418.158 31 C 418.158 32.375, 418.385 32.938, 418.662 32.250 C 418.940 31.563, 418.940 30.438, 418.662 29.750 C 418.385 29.063, 418.158 29.625, 418.158 31 M 271.269 30.693 C 272.242 30.947, 273.592 30.930, 274.269 30.656 C 274.946 30.382, 274.150 30.175, 272.500 30.195 C 270.850 30.215, 270.296 30.439, 271.269 30.693 M 250.232 33 C 249.545 34.100, 248.060 35, 246.933 35 C 245.805 35, 245.160 34.550, 245.500 34 C 245.840 33.450, 245.191 33, 244.059 33 C 242.764 33, 242.001 33.649, 242.002 34.750 C 242.005 37.409, 248.413 37.587, 251.001 34.999 C 253.022 32.978, 253.635 31, 252.241 31 C 251.823 31, 250.919 31.900, 250.232 33 M 434.019 31.833 C 433.458 32.017, 433 33.254, 433 34.583 C 433 36.494, 433.523 37, 435.500 37 C 437.500 37, 438 36.500, 438 34.500 C 438 33.125, 438.459 32, 439.020 32 C 439.580 32, 439.856 33.013, 439.632 34.250 C 439.285 36.173, 439.682 36.518, 442.363 36.623 C 444.088 36.691, 444.707 36.544, 443.738 36.297 C 442.769 36.051, 442.233 35.433, 442.547 34.924 C 442.861 34.416, 442.641 34, 442.059 34 C 441.477 34, 441 33.343, 441 32.540 C 441 31.191, 437.168 30.803, 434.019 31.833 M 271.269 32.693 C 272.242 32.947, 273.592 32.930, 274.269 32.656 C 274.946 32.382, 274.150 32.175, 272.500 32.195 C 270.850 32.215, 270.296 32.439, 271.269 32.693 M 339 34.500 C 339 35.875, 339.450 37, 340 37 C 340.550 37, 341 35.875, 341 34.500 C 341 33.125, 340.550 32, 340 32 C 339.450 32, 339 33.125, 339 34.500 M 345 34.500 C 345 35.875, 345.450 37, 346 37 C 346.550 37, 347 35.875, 347 34.500 C 347 33.125, 346.550 32, 346 32 C 345.450 32, 345 33.125, 345 34.500 M 434 34.500 C 434 35.325, 434.675 36, 435.500 36 C 436.325 36, 437 35.325, 437 34.500 C 437 33.675, 436.325 33, 435.500 33 C 434.675 33, 434 33.675, 434 34.500 M 271.269 34.693 C 272.242 34.947, 273.592 34.930, 274.269 34.656 C 274.946 34.382, 274.150 34.175, 272.500 34.195 C 270.850 34.215, 270.296 34.439, 271.269 34.693 M 458.813 36.683 C 459.534 36.972, 460.397 36.936, 460.729 36.604 C 461.061 36.272, 460.471 36.036, 459.417 36.079 C 458.252 36.127, 458.015 36.364, 458.813 36.683 M 1 51.804 C 1 53.698, 2.141 55.713, 4.516 58.015 L 8.032 61.423 10.727 58.727 L 13.423 56.032 10.015 52.516 C 5.557 47.916, 1 47.556, 1 51.804 M 25 51.804 C 25 53.698, 26.141 55.713, 28.516 58.015 L 32.032 61.423 34.727 58.727 L 37.423 56.032 34.015 52.516 C 29.557 47.916, 25 47.556, 25 51.804 M 34.979 52.478 C 38.276 55.880, 38.310 56, 36.514 57.984 C 33.821 60.960, 35.243 61.435, 38.014 58.485 L 40.370 55.977 36.989 52.489 C 35.129 50.570, 33.158 49, 32.608 49 C 32.058 49, 33.125 50.565, 34.979 52.478 M 50.667 49.667 C 50.300 50.033, 50 52.733, 50 55.667 L 50 61 54.500 61 L 59 61 59 56.060 L 59 51.121 55.250 50.728 L 51.500 50.336 55.698 50.168 L 59.895 50 60.263 55.250 L 60.630 60.500 60.815 54.750 L 61 49 56.167 49 C 53.508 49, 51.033 49.300, 50.667 49.667 M 74 55.222 L 74 61.444 76.204 59.240 L 78.409 57.036 80.704 59.192 L 83 61.349 83 55.174 L 83 49 78.500 49 L 74 49 74 55.222 M 100 51 C 100 52.111, 99.333 53, 98.500 53 C 97.452 53, 97 54.056, 97 56.500 C 97 58.425, 97.450 60, 98 60 C 98.550 60, 99 59.550, 99 59 C 99 58.450, 100.800 58, 103 58 C 105.200 58, 107 58.450, 107 59 C 107 59.550, 107.450 60, 108 60 C 109.641 60, 109.185 53.285, 107.500 52.638 C 106.675 52.322, 106 51.374, 106 50.531 C 106 49.497, 105.027 49, 103 49 C 100.667 49, 100 49.444, 100 51 M 148.542 54.500 C 145.566 61.230, 145.607 61, 147.389 61 C 148.153 61, 148.715 60.213, 148.639 59.250 C 148.551 58.143, 149.325 57.384, 150.750 57.181 C 152.777 56.893, 153.501 57.830, 153.118 60.250 C 153.053 60.663, 153.875 61, 154.945 61 C 156.803 61, 156.776 60.743, 154.352 55.250 C 152.957 52.087, 151.651 49.332, 151.450 49.126 C 151.249 48.920, 149.941 51.338, 148.542 54.500 M 170.500 55 L 170.500 61 173.628 61 C 177.568 61, 179.542 58.881, 178.105 56.195 C 177.536 55.133, 177.321 54.013, 177.626 53.707 C 177.932 53.401, 177.886 52.217, 177.524 51.075 C 177.039 49.548, 176.025 49, 173.683 49 L 170.500 49 170.500 55 M 198.379 49.804 C 199.161 51.069, 197.020 59.367, 195.694 60.210 C 194.967 60.672, 195.478 60.973, 197 60.978 C 199.275 60.985, 199.519 60.572, 199.710 56.393 C 199.826 53.867, 200.443 51.171, 201.083 50.400 C 202.019 49.273, 201.820 49, 200.063 49 C 198.864 49, 198.106 49.362, 198.379 49.804 M 216.933 49.333 C 216.541 53.255, 216.900 60, 217.500 60 C 218.418 60, 218.541 50.207, 217.633 49.300 C 217.285 48.952, 216.970 48.967, 216.933 49.333 M 220 50.406 C 220 51.344, 220.702 51.629, 222.106 51.262 C 224.077 50.747, 224.190 51.041, 223.856 55.856 C 223.575 59.921, 223.815 61.001, 225 61.001 C 226.185 61.001, 226.425 59.921, 226.144 55.856 C 225.810 51.041, 225.923 50.747, 227.894 51.262 C 229.298 51.629, 230 51.344, 230 50.406 C 230 49.385, 228.630 49, 225 49 C 221.370 49, 220 49.385, 220 50.406 M 242 50.406 C 242 51.347, 242.702 51.629, 244.119 51.259 C 246.068 50.749, 246.207 51.037, 245.843 54.852 C 245.532 58.105, 245.782 59, 247 59 C 248.218 59, 248.468 58.105, 248.157 54.852 C 247.793 51.037, 247.932 50.749, 249.881 51.259 C 251.298 51.629, 252 51.347, 252 50.406 C 252 49.385, 250.630 49, 247 49 C 243.370 49, 242 49.385, 242 50.406 M 173 52 C 173 53.289, 173.506 53.998, 174.250 53.750 C 174.938 53.521, 175.500 52.733, 175.500 52 C 175.500 51.267, 174.938 50.479, 174.250 50.250 C 173.506 50.002, 173 50.711, 173 52 M 265 51 C 265 51.550, 266.575 52, 268.500 52 C 270.425 52, 272 51.550, 272 51 C 272 50.450, 270.425 50, 268.500 50 C 266.575 50, 265 50.450, 265 51 M 291 51 C 291 51.550, 292.800 52, 295 52 C 297.200 52, 299 51.550, 299 51 C 299 50.450, 297.200 50, 295 50 C 292.800 50, 291 50.450, 291 51 M 318 51 C 318 51.550, 319.575 52, 321.500 52 C 323.425 52, 325 51.550, 325 51 C 325 50.450, 323.425 50, 321.500 50 C 319.575 50, 318 50.450, 318 51 M 337 51 C 337 51.556, 339.667 52, 343 52 C 346.333 52, 349 51.556, 349 51 C 349 50.444, 346.333 50, 343 50 C 339.667 50, 337 50.444, 337 51 M 361 51 C 361 51.550, 361.450 52, 362 52 C 362.550 52, 363 51.550, 363 51 C 363 50.450, 362.550 50, 362 50 C 361.450 50, 361 50.450, 361 51 M 364 51 C 364 51.550, 366.025 52, 368.500 52 C 370.975 52, 373 51.550, 373 51 C 373 50.450, 370.975 50, 368.500 50 C 366.025 50, 364 50.450, 364 51 M 388 52.559 C 388 53.966, 387.641 54.896, 387.202 54.625 C 386.763 54.354, 385.751 54.545, 384.952 55.051 C 383.811 55.773, 383.967 55.973, 385.684 55.985 C 387.293 55.996, 387.977 56.723, 388.284 58.750 C 388.513 60.263, 388.768 58.913, 388.850 55.750 C 388.933 52.587, 388.775 50, 388.500 50 C 388.225 50, 388 51.152, 388 52.559 M 390 51 C 390 51.550, 390.450 52, 391 52 C 391.550 52, 392 51.550, 392 51 C 392 50.450, 391.550 50, 391 50 C 390.450 50, 390 50.450, 390 51 M 409 51 C 409 51.550, 409.450 52, 410 52 C 410.550 52, 411 51.550, 411 51 C 411 50.450, 410.550 50, 410 50 C 409.450 50, 409 50.450, 409 51 M 417.300 55.500 C 417.300 58.800, 417.487 60.263, 417.716 58.750 C 418.023 56.723, 418.707 55.996, 420.316 55.985 C 422.033 55.973, 422.189 55.773, 421.048 55.051 C 420.249 54.545, 419.267 54.335, 418.866 54.583 C 418.464 54.831, 417.948 53.789, 417.718 52.267 C 417.488 50.745, 417.300 52.200, 417.300 55.500 M 457 55.500 L 457 61 463 61 L 469 61 469 55.500 L 469 50 463 50 L 457 50 457 55.500 M 122.750 51.689 C 121.458 52.027, 121 53.175, 121 56.073 L 121 60 127 60 L 133 60 133 56.117 C 133 52.935, 132.594 52.124, 130.750 51.630 C 128.273 50.966, 125.436 50.987, 122.750 51.689 M 433 55 L 433 59 437.500 59 C 440.984 59, 442 58.634, 442 57.378 C 442 56.049, 442.271 55.980, 443.500 57 C 444.781 58.063, 445 57.771, 445 55 C 445 52.229, 444.781 51.937, 443.500 53 C 442.271 54.020, 442 53.951, 442 52.622 C 442 51.366, 440.984 51, 437.500 51 L 433 51 433 55 M 458 54.406 C 458 57.443, 458.244 57.750, 460.250 57.237 C 461.488 56.920, 463.103 55.816, 463.840 54.783 C 464.894 53.306, 465.481 53.154, 466.590 54.075 C 467.728 55.019, 468 54.835, 468 53.122 C 468 51.242, 467.429 51, 463 51 L 458 51 458 54.406 M 459 53.500 C 459 54.417, 459.484 55.005, 460.075 54.808 C 460.666 54.611, 461.150 54.023, 461.150 53.500 C 461.150 52.977, 460.666 52.389, 460.075 52.192 C 459.484 51.995, 459 52.583, 459 53.500 M 150 54.500 C 150 55.325, 150.450 56, 151 56 C 151.550 56, 152 55.325, 152 54.500 C 152 53.675, 151.550 53, 151 53 C 150.450 53, 150 53.675, 150 54.500 M 265 54 C 265 54.550, 267.475 55, 270.500 55 C 273.525 55, 276 54.550, 276 54 C 276 53.450, 273.525 53, 270.500 53 C 267.475 53, 265 53.450, 265 54 M 289 54 C 289 54.556, 291.667 55, 295 55 C 298.333 55, 301 54.556, 301 54 C 301 53.444, 298.333 53, 295 53 C 291.667 53, 289 53.444, 289 54 M 314 54 C 314 54.550, 316.475 55, 319.500 55 C 322.525 55, 325 54.550, 325 54 C 325 53.450, 322.525 53, 319.500 53 C 316.475 53, 314 53.450, 314 54 M 337 54 C 337 54.556, 339.667 55, 343 55 C 346.333 55, 349 54.556, 349 54 C 349 53.444, 346.333 53, 343 53 C 339.667 53, 337 53.444, 337 54 M 361 54 C 361 54.550, 361.450 55, 362 55 C 362.550 55, 363 54.550, 363 54 C 363 53.450, 362.550 53, 362 53 C 361.450 53, 361 53.450, 361 54 M 364 54 C 364 54.550, 366.025 55, 368.500 55 C 370.975 55, 373 54.550, 373 54 C 373 53.450, 370.975 53, 368.500 53 C 366.025 53, 364 53.450, 364 54 M 390 54 C 390 54.550, 391.350 55, 393 55 C 394.650 55, 396 54.550, 396 54 C 396 53.450, 394.650 53, 393 53 C 391.350 53, 390 53.450, 390 54 M 409 54 C 409 54.550, 410.350 55, 412 55 C 413.650 55, 415 54.550, 415 54 C 415 53.450, 413.650 53, 412 53 C 410.350 53, 409 53.450, 409 54 M 101.250 54.689 C 102.213 54.941, 103.787 54.941, 104.750 54.689 C 105.713 54.438, 104.925 54.232, 103 54.232 C 101.075 54.232, 100.287 54.438, 101.250 54.689 M 125 56 C 125 57.333, 125.667 58, 127 58 C 128.333 58, 129 57.333, 129 56 C 129 54.667, 128.333 54, 127 54 C 125.667 54, 125 54.667, 125 56 M 126 56 C 126 56.550, 126.450 57, 127 57 C 127.550 57, 128 56.550, 128 56 C 128 55.450, 127.550 55, 127 55 C 126.450 55, 126 55.450, 126 56 M 173 57 C 173 58.506, 173.522 59.046, 174.750 58.810 C 175.713 58.624, 176.500 57.810, 176.500 57 C 176.500 56.190, 175.713 55.376, 174.750 55.190 C 173.522 54.954, 173 55.494, 173 57 M 265 57 C 265 57.550, 267.025 58, 269.500 58 C 271.975 58, 274 57.550, 274 57 C 274 56.450, 271.975 56, 269.500 56 C 267.025 56, 265 56.450, 265 57 M 291 57 C 291 57.550, 292.800 58, 295 58 C 297.200 58, 299 57.550, 299 57 C 299 56.450, 297.200 56, 295 56 C 292.800 56, 291 56.450, 291 57 M 316 57 C 316 57.550, 318.025 58, 320.500 58 C 322.975 58, 325 57.550, 325 57 C 325 56.450, 322.975 56, 320.500 56 C 318.025 56, 316 56.450, 316 57 M 337 57 C 337 57.556, 339.667 58, 343 58 C 346.333 58, 349 57.556, 349 57 C 349 56.444, 346.333 56, 343 56 C 339.667 56, 337 56.444, 337 57 M 361 57 C 361 57.550, 361.450 58, 362 58 C 362.550 58, 363 57.550, 363 57 C 363 56.450, 362.550 56, 362 56 C 361.450 56, 361 56.450, 361 57 M 364 57 C 364 57.550, 366.025 58, 368.500 58 C 370.975 58, 373 57.550, 373 57 C 373 56.450, 370.975 56, 368.500 56 C 366.025 56, 364 56.450, 364 57 M 390 57 C 390 57.550, 390.900 58, 392 58 C 393.100 58, 394 57.550, 394 57 C 394 56.450, 393.100 56, 392 56 C 390.900 56, 390 56.450, 390 57 M 409 57 C 409 57.550, 409.900 58, 411 58 C 412.100 58, 413 57.550, 413 57 C 413 56.450, 412.100 56, 411 56 C 409.900 56, 409 56.450, 409 57 M 100 60 C 100 60.550, 101.350 61, 103 61 C 104.650 61, 106 60.550, 106 60 C 106 59.450, 104.650 59, 103 59 C 101.350 59, 100 59.450, 100 60 M 241.344 60.250 C 241.090 60.663, 243.684 61, 247.108 61 C 250.532 61, 253.053 60.720, 252.711 60.378 C 251.808 59.475, 241.891 59.363, 241.344 60.250 M 265 60 C 265 60.556, 267.667 61, 271 61 C 274.333 61, 277 60.556, 277 60 C 277 59.444, 274.333 59, 271 59 C 267.667 59, 265 59.444, 265 60 M 289 60 C 289 60.556, 291.667 61, 295 61 C 298.333 61, 301 60.556, 301 60 C 301 59.444, 298.333 59, 295 59 C 291.667 59, 289 59.444, 289 60 M 313 60 C 313 60.556, 315.667 61, 319 61 C 322.333 61, 325 60.556, 325 60 C 325 59.444, 322.333 59, 319 59 C 315.667 59, 313 59.444, 313 60 M 337 60 C 337 60.556, 339.667 61, 343 61 C 346.333 61, 349 60.556, 349 60 C 349 59.444, 346.333 59, 343 59 C 339.667 59, 337 59.444, 337 60 M 361 60 C 361 60.550, 361.450 61, 362 61 C 362.550 61, 363 60.550, 363 60 C 363 59.450, 362.550 59, 362 59 C 361.450 59, 361 59.450, 361 60 M 364 60 C 364 60.550, 366.025 61, 368.500 61 C 370.975 61, 373 60.550, 373 60 C 373 59.450, 370.975 59, 368.500 59 C 366.025 59, 364 59.450, 364 60 M 390 60 C 390 60.550, 391.575 61, 393.500 61 C 395.425 61, 397 60.550, 397 60 C 397 59.450, 395.425 59, 393.500 59 C 391.575 59, 390 59.450, 390 60 M 409 60 C 409 60.550, 410.575 61, 412.500 61 C 414.425 61, 416 60.550, 416 60 C 416 59.450, 414.425 59, 412.500 59 C 410.575 59, 409 59.450, 409 60 M 75.991 76.517 C 74.068 80.036, 73.766 81.408, 74.616 82.763 C 76.803 86.252, 83.007 85.041, 82.995 81.128 C 82.992 80.232, 81.969 77.814, 80.722 75.754 L 78.454 72.008 75.991 76.517 M 10.188 74.063 C 10.428 74.784, 11.216 75.572, 11.938 75.813 C 12.688 76.063, 13.063 75.688, 12.813 74.938 C 12.572 74.216, 11.784 73.428, 11.063 73.188 C 10.313 72.938, 9.938 73.313, 10.188 74.063 M 28.571 74.571 C 26.394 76.749, 26.612 79.003, 29.330 82.400 L 31.651 85.300 33.825 82.245 C 35.021 80.566, 36 78.505, 36 77.667 C 36 75.777, 33.323 73, 31.500 73 C 30.754 73, 29.436 73.707, 28.571 74.571 M 51 75 C 49.900 76.100, 49 77.900, 49 79 C 49 81.576, 52.424 85, 55 85 C 57.576 85, 61 81.576, 61 79 C 61 77.900, 60.100 76.100, 59 75 C 57.900 73.900, 56.100 73, 55 73 C 53.900 73, 52.100 73.900, 51 75 M 171.479 76.022 L 168.583 79.045 171.792 82.253 L 175 85.462 178.208 82.253 L 181.417 79.045 178.521 76.022 C 176.929 74.360, 175.344 73, 175 73 C 174.656 73, 173.071 74.360, 171.479 76.022 M 98.200 75.200 C 96.650 76.750, 96.650 82.250, 98.200 83.800 C 99.866 85.466, 105.503 85.304, 106.960 83.548 C 107.623 82.749, 107.951 81.287, 107.689 80.298 C 107.274 78.735, 107.117 78.794, 106.489 80.750 C 105.928 82.498, 105.011 83, 102.383 83 C 99.183 83, 99 82.810, 99 79.500 C 99 76.456, 99.318 76, 101.441 76 C 102.784 76, 104.160 75.550, 104.500 75 C 105.387 73.565, 99.653 73.747, 98.200 75.200 M 104.541 77.015 C 102.914 78.610, 101.923 80.256, 102.338 80.672 C 103.024 81.357, 109 75.869, 109 74.554 C 109 73.347, 107.360 74.252, 104.541 77.015 M 122.200 75.200 C 120.650 76.750, 120.650 82.250, 122.200 83.800 C 123.897 85.497, 129.514 85.291, 131.020 83.476 C 131.716 82.638, 131.934 81.625, 131.506 81.226 C 131.077 80.827, 130.525 81.063, 130.280 81.750 C 130.034 82.438, 128.296 83, 126.417 83 C 123.217 83, 123 82.790, 123 79.693 C 123 77.016, 123.523 76.179, 125.750 75.299 L 128.500 74.213 125.950 74.106 C 124.547 74.048, 122.860 74.540, 122.200 75.200 M 146.200 75.200 C 145.540 75.860, 145 77.795, 145 79.500 C 145 81.205, 145.540 83.140, 146.200 83.800 C 146.860 84.460, 148.795 85, 150.500 85 C 153.892 85, 156.018 83.464, 155.968 81.050 C 155.941 79.746, 155.726 79.777, 154.608 81.250 C 153.839 82.263, 151.957 83, 150.140 83 C 147.218 83, 147 82.757, 147 79.500 C 147 76.180, 147.659 75.536, 150.675 75.908 C 151.321 75.988, 152.135 75.591, 152.484 75.027 C 153.386 73.567, 147.676 73.724, 146.200 75.200 M 195 79.500 C 195 82.525, 195.450 85, 196 85 C 196.550 85, 197 84.022, 197 82.826 L 197 80.651 199.500 83 L 202 85.349 202 79.500 L 202 73.651 199.500 76 L 197 78.349 197 76.174 C 197 74.978, 196.550 74, 196 74 C 195.450 74, 195 76.475, 195 79.500 M 217 79.500 C 217 82.525, 217.450 85, 218 85 C 218.550 85, 219 84.022, 219 82.826 L 219 80.651 221.500 83 L 224 85.349 224 83 L 224 80.651 226.500 83 L 229 85.349 229 79.500 L 229 73.651 226.500 76 L 224 78.349 224 76 L 224 73.651 221.500 76 L 219 78.349 219 76.174 C 219 74.978, 218.550 74, 218 74 C 217.450 74, 217 76.475, 217 79.500 M 244.746 76.731 L 241.992 79.618 244.996 82.496 L 248 85.374 248 83.013 L 248 80.651 250.500 83 L 253 85.349 253 79.500 L 253 73.651 250.582 75.923 L 248.165 78.194 247.832 76.019 C 247.510 73.911, 247.415 73.933, 244.746 76.731 M 267 79.500 L 267 85.113 270.868 82.807 C 272.996 81.538, 274.736 80.050, 274.736 79.500 C 274.736 78.950, 272.996 77.462, 270.868 76.193 L 267 73.887 267 79.500 M 337 79.500 L 337 85.349 339.418 83.077 L 341.835 80.806 342.168 82.981 C 342.490 85.089, 342.585 85.067, 345.254 82.269 L 348.008 79.382 345.004 76.504 L 342 73.626 342 75.987 L 342 78.349 339.500 76 L 337 73.651 337 79.500 M 361 79.500 L 361 85.349 363.500 83 L 366 80.651 366 83 L 366 85.349 368.500 83 L 371 80.651 371 82.826 C 371 84.022, 371.450 85, 372 85 C 372.550 85, 373 82.525, 373 79.500 C 373 76.475, 372.550 74, 372 74 C 371.450 74, 371 74.978, 371 76.174 L 371 78.349 368.500 76 L 366 73.651 366 76 L 366 78.349 363.500 76 L 361 73.651 361 79.500 M 388 79.500 L 388 85.349 390.500 83 L 393 80.651 393 82.826 C 393 84.022, 393.450 85, 394 85 C 394.550 85, 395 82.525, 395 79.500 C 395 76.475, 394.550 74, 394 74 C 393.450 74, 393 74.978, 393 76.174 L 393 78.349 390.500 76 L 388 73.651 388 79.500 M 412.500 77 L 409.626 80 415.500 80 L 421.374 80 418.500 77 C 416.919 75.350, 415.569 74, 415.500 74 C 415.431 74, 414.081 75.350, 412.500 77 M 436.683 76.809 L 433.992 79.618 437.003 82.502 C 439.345 84.747, 440.280 85.120, 441.214 84.186 C 442.148 83.252, 442.040 82.611, 440.728 81.299 C 439.189 79.761, 439.180 79.459, 440.618 77.869 C 442.097 76.235, 441.814 74, 440.128 74 C 439.713 74, 438.163 75.264, 436.683 76.809 M 460.461 75.063 C 460.100 75.648, 460.514 76.910, 461.382 77.869 C 462.820 79.459, 462.811 79.761, 461.272 81.299 C 459.960 82.611, 459.852 83.252, 460.786 84.186 C 461.720 85.120, 462.655 84.747, 464.997 82.502 L 468.008 79.618 465.317 76.809 C 462.397 73.761, 461.471 73.428, 460.461 75.063 M 5.494 78.007 C 3.242 80.357, 2.877 81.277, 3.822 82.222 C 4.767 83.167, 5.709 82.752, 8.140 80.322 C 9.850 78.611, 10.942 76.715, 10.566 76.106 C 9.516 74.408, 8.619 74.745, 5.494 78.007 M 30.120 76.355 C 29.249 77.405, 29.305 78.008, 30.355 78.880 C 31.405 79.751, 32.008 79.695, 32.880 78.645 C 33.751 77.595, 33.695 76.992, 32.645 76.120 C 31.595 75.249, 30.992 75.305, 30.120 76.355 M 52.200 76.200 C 50.079 78.321, 51.455 83, 54.200 83 C 54.640 83, 55 81.200, 55 79 C 55 74.865, 54.267 74.133, 52.200 76.200 M 127.144 77.081 C 124.404 79.633, 124.413 79.655, 128.108 79.399 C 132.256 79.112, 133.806 77.502, 131.251 76.134 C 129.704 75.307, 128.832 75.508, 127.144 77.081 M 152.989 76.513 C 152.298 77.345, 151.217 77.908, 150.587 77.763 C 148.767 77.345, 148.569 79.326, 150.320 80.430 C 151.519 81.186, 152.537 80.844, 154.455 79.042 C 155.855 77.727, 157 76.280, 157 75.826 C 157 74.445, 154.325 74.903, 152.989 76.513 M 291 79.500 C 291 82.833, 291.389 84, 292.500 84 C 293.611 84, 294 82.833, 294 79.500 C 294 76.167, 293.611 75, 292.500 75 C 291.389 75, 291 76.167, 291 79.500 M 295 79.500 C 295 82.833, 295.389 84, 296.500 84 C 297.611 84, 298 82.833, 298 79.500 C 298 76.167, 297.611 75, 296.500 75 C 295.389 75, 295 76.167, 295 79.500 M 315 79.500 L 315 84 319.500 84 L 324 84 324 79.500 L 324 75 319.500 75 L 315 75 315 79.500 M 172 77 C 172 77.550, 172.450 78, 173 78 C 173.550 78, 174 77.550, 174 77 C 174 76.450, 173.550 76, 173 76 C 172.450 76, 172 76.450, 172 77 M 176 77 C 176 77.550, 176.450 78, 177 78 C 177.550 78, 178 77.550, 178 77 C 178 76.450, 177.550 76, 177 76 C 176.450 76, 176 76.450, 176 77 M 75.543 79.931 C 75.226 80.443, 75.425 81.144, 75.984 81.490 C 76.543 81.835, 77 81.416, 77 80.559 C 77 78.802, 76.400 78.544, 75.543 79.931 M 172 81 C 172 81.550, 172.450 82, 173 82 C 173.550 82, 174 81.550, 174 81 C 174 80.450, 173.550 80, 173 80 C 172.450 80, 172 80.450, 172 81 M 176 81 C 176 81.550, 176.450 82, 177 82 C 177.550 82, 178 81.550, 178 81 C 178 80.450, 177.550 80, 177 80 C 176.450 80, 176 80.450, 176 81 M 410 82 C 410 82.550, 412.475 83, 415.500 83 C 418.525 83, 421 82.550, 421 82 C 421 81.450, 418.525 81, 415.500 81 C 412.475 81, 410 81.450, 410 82 M 1.469 83.050 C 0.519 84.588, 1.820 85.580, 3.104 84.296 C 3.822 83.578, 3.839 83.019, 3.156 82.597 C 2.596 82.251, 1.837 82.455, 1.469 83.050 M 3 99 C 1.900 100.100, 1 101.900, 1 103 C 1 105.576, 4.424 109, 7 109 C 9.576 109, 13 105.576, 13 103 C 13 100.424, 9.576 97, 7 97 C 5.900 97, 4.100 97.900, 3 99 M 27 99 C 25.900 100.100, 25 101.900, 25 103 C 25 105.576, 28.424 109, 31 109 C 33.576 109, 37 105.576, 37 103 C 37 101.900, 36.100 100.100, 35 99 C 33.900 97.900, 32.100 97, 31 97 C 29.900 97, 28.100 97.900, 27 99 M 51 99 C 49.900 100.100, 49 101.900, 49 103 C 49 105.576, 52.424 109, 55 109 C 57.576 109, 61 105.576, 61 103 C 61 101.900, 60.100 100.100, 59 99 C 57.900 97.900, 56.100 97, 55 97 C 53.900 97, 52.100 97.900, 51 99 M 75 99 C 73.900 100.100, 73 101.900, 73 103 C 73 104.100, 73.900 105.900, 75 107 C 76.100 108.100, 77.900 109, 79 109 C 80.100 109, 81.900 108.100, 83 107 C 84.100 105.900, 85 104.100, 85 103 C 85 101.900, 84.100 100.100, 83 99 C 81.900 97.900, 80.100 97, 79 97 C 77.900 97, 76.100 97.900, 75 99 M 99 99 C 97.900 100.100, 97 101.900, 97 103 C 97 104.100, 97.900 105.900, 99 107 C 100.100 108.100, 101.900 109, 103 109 C 104.100 109, 105.900 108.100, 107 107 C 108.100 105.900, 109 104.100, 109 103 C 109 101.900, 108.100 100.100, 107 99 C 105.900 97.900, 104.100 97, 103 97 C 101.900 97, 100.100 97.900, 99 99 M 123 99 C 121.900 100.100, 121 101.900, 121 103 C 121 104.100, 121.900 105.900, 123 107 C 124.100 108.100, 125.900 109, 127 109 C 128.100 109, 129.900 108.100, 131 107 C 132.100 105.900, 133 104.100, 133 103 C 133 101.900, 132.100 100.100, 131 99 C 129.900 97.900, 128.100 97, 127 97 C 125.900 97, 124.100 97.900, 123 99 M 147.680 100.055 L 144.860 103.014 147.853 106.007 L 150.846 109 153.846 106 L 156.846 103 153.846 100 C 152.196 98.350, 150.768 97.022, 150.673 97.048 C 150.578 97.075, 149.231 98.428, 147.680 100.055 M 171 99 C 169.900 100.100, 169 101.900, 169 103 C 169 104.100, 169.900 105.900, 171 107 C 172.100 108.100, 173.900 109, 175 109 C 176.100 109, 177.900 108.100, 179 107 C 180.100 105.900, 181 104.100, 181 103 C 181 101.900, 180.100 100.100, 179 99 C 177.900 97.900, 176.100 97, 175 97 C 173.900 97, 172.100 97.900, 171 99 M 195 99 C 193.900 100.100, 193 101.900, 193 103 C 193 104.100, 193.900 105.900, 195 107 C 196.100 108.100, 197.900 109, 199 109 C 200.100 109, 201.900 108.100, 203 107 C 204.100 105.900, 205 104.100, 205 103 C 205 101.900, 204.100 100.100, 203 99 C 201.900 97.900, 200.100 97, 199 97 C 197.900 97, 196.100 97.900, 195 99 M 219 99 C 217.900 100.100, 217 101.900, 217 103 C 217 104.100, 217.900 105.900, 219 107 C 220.100 108.100, 221.900 109, 223 109 C 224.100 109, 225.900 108.100, 227 107 C 228.100 105.900, 229 104.100, 229 103 C 229 101.900, 228.100 100.100, 227 99 C 225.900 97.900, 224.100 97, 223 97 C 221.900 97, 220.100 97.900, 219 99 M 293.107 99.850 C 291.274 102.424, 291.151 103, 292.432 103 C 293.508 103, 294 103.942, 294 106 C 294 108, 294.500 109, 295.500 109 C 296.492 109, 297 108.008, 297 106.073 C 297 104.285, 297.582 103.021, 298.498 102.823 C 299.701 102.564, 299.539 101.930, 297.672 99.600 L 295.349 96.700 293.107 99.850 M 317 99.927 C 317 101.637, 316.410 102.988, 315.580 103.177 C 314.479 103.427, 314.658 104.122, 316.380 106.266 L 318.600 109.032 320.830 106.016 C 322.606 103.614, 322.748 103, 321.530 103 C 320.497 103, 320 102.026, 320 100 C 320 98, 319.500 97, 318.500 97 C 317.508 97, 317 97.992, 317 99.927 M 369.325 97.658 C 369.687 98.020, 369.472 98.931, 368.849 99.682 C 367.375 101.457, 368.543 102.625, 370.318 101.151 C 371.069 100.528, 371.980 100.313, 372.342 100.675 C 372.704 101.037, 373 100.358, 373 99.167 C 373 97.611, 372.389 97, 370.833 97 C 369.642 97, 368.963 97.296, 369.325 97.658 M 394 98.500 C 393.325 99.313, 392.374 99.731, 391.887 99.430 C 391.399 99.129, 391 99.809, 391 100.941 C 391 102.386, 390.354 103, 388.833 103 C 387.642 103, 386.963 103.296, 387.325 103.658 C 387.687 104.020, 387.472 104.931, 386.849 105.682 C 385.375 107.457, 386.543 108.625, 388.318 107.151 C 389.069 106.528, 389.980 106.313, 390.342 106.675 C 390.704 107.037, 391 106.358, 391 105.167 C 391 103.611, 391.611 103, 393.167 103 C 394.358 103, 395.032 102.699, 394.664 102.331 C 394.297 101.963, 394.701 100.883, 395.563 99.930 C 396.459 98.940, 396.723 97.947, 396.178 97.610 C 395.655 97.287, 394.675 97.687, 394 98.500 M 343 99.432 C 343 100.294, 342.357 101, 341.571 101 C 339.951 101, 337 103.651, 337 105.107 C 337 105.700, 337.743 105.673, 338.934 105.035 C 341.601 103.608, 342.797 103.738, 343.177 105.498 C 343.436 106.701, 344.070 106.539, 346.400 104.672 L 349.300 102.349 346.150 100.107 C 343.576 98.274, 343 98.151, 343 99.432 M 413 100 C 413 101.333, 412.333 102, 411 102 C 409.889 102, 409 102.667, 409 103.500 C 409 104.333, 409.889 105, 411 105 C 412.333 105, 413 105.667, 413 107 C 413 108.111, 413.667 109, 414.500 109 C 415.333 109, 416 108.111, 416 107 C 416 105.667, 416.667 105, 418 105 C 419.111 105, 420 104.333, 420 103.500 C 420 102.667, 419.111 102, 418 102 C 416.667 102, 416 101.333, 416 100 C 416 98.889, 415.333 98, 414.500 98 C 413.667 98, 413 98.889, 413 100 M 462 98.969 C 462 99.501, 461.247 99.648, 460.326 99.295 C 459.078 98.816, 458.810 99.061, 459.270 100.262 C 459.610 101.147, 459.350 102.125, 458.694 102.435 C 457.769 102.873, 457.769 103.127, 458.694 103.565 C 459.350 103.875, 459.610 104.853, 459.270 105.738 C 458.817 106.920, 459.080 107.183, 460.262 106.730 C 461.147 106.390, 462.125 106.650, 462.435 107.306 C 462.873 108.231, 463.127 108.231, 463.565 107.306 C 463.875 106.650, 464.853 106.390, 465.738 106.730 C 466.920 107.183, 467.183 106.920, 466.730 105.738 C 466.390 104.853, 466.650 103.875, 467.306 103.565 C 468.231 103.127, 468.231 102.873, 467.306 102.435 C 466.650 102.125, 466.390 101.147, 466.730 100.262 C 467.190 99.061, 466.922 98.816, 465.674 99.295 C 464.753 99.648, 464 99.501, 464 98.969 C 464 98.436, 463.550 98, 463 98 C 462.450 98, 462 98.436, 462 98.969 M 172.040 100.452 C 169.383 103.653, 173.285 108.570, 176.750 106.388 C 180.212 104.207, 178.979 99, 175 99 C 174.035 99, 172.703 99.653, 172.040 100.452 M 196.040 100.452 C 193.383 103.653, 197.285 108.570, 200.750 106.388 C 204.212 104.207, 202.979 99, 199 99 C 198.035 99, 196.703 99.653, 196.040 100.452 M 220.040 100.452 C 219.377 101.251, 218.985 102.634, 219.167 103.525 C 219.430 104.805, 220.119 104.499, 222.437 102.074 C 225.136 99.250, 225.206 99, 223.310 99 C 222.174 99, 220.703 99.653, 220.040 100.452 M 243.600 101.328 L 240.700 103.651 243.850 105.893 C 246.424 107.726, 247 107.849, 247 106.568 C 247 105.492, 247.942 105, 250 105 C 252 105, 253 104.500, 253 103.500 C 253 102.508, 252.008 102, 250.073 102 C 248.285 102, 247.021 101.418, 246.823 100.502 C 246.564 99.299, 245.930 99.461, 243.600 101.328 M 271 100.432 C 271 101.508, 270.058 102, 268 102 C 266 102, 265 102.500, 265 103.500 C 265 104.492, 265.992 105, 267.927 105 C 269.715 105, 270.979 105.582, 271.177 106.498 C 271.436 107.701, 272.070 107.539, 274.400 105.672 L 277.300 103.349 274.150 101.107 C 271.576 99.274, 271 99.151, 271 100.432 M 5.195 101.555 C 4.115 102.778, 4.158 103.301, 5.445 104.588 C 6.852 105.994, 7.150 105.993, 8.571 104.571 C 9.968 103.175, 9.976 102.833, 8.643 101.500 C 6.838 99.696, 6.836 99.696, 5.195 101.555 M 52.889 100.667 C 52.828 100.850, 52.728 102, 52.667 103.222 C 52.581 104.943, 53.107 105.444, 55 105.444 C 58.377 105.444, 58.588 100.746, 55.222 100.498 C 54 100.408, 52.950 100.484, 52.889 100.667 M 101 101 C 101 101.550, 101.477 102, 102.059 102 C 102.641 102, 102.804 102.508, 102.420 103.130 C 101.996 103.815, 102.268 104.078, 103.111 103.797 C 105.449 103.018, 105.419 100, 103.073 100 C 101.933 100, 101 100.450, 101 101 M 148.619 100.808 C 148.272 101.370, 148.553 102.093, 149.244 102.415 C 150.252 102.884, 150.252 103.116, 149.244 103.585 C 148.553 103.907, 148.272 104.630, 148.619 105.192 C 149.018 105.837, 149.572 105.714, 150.125 104.857 C 150.851 103.731, 151.181 103.755, 152.066 105 C 152.906 106.183, 152.997 106.025, 152.498 104.250 C 152.111 102.874, 152.303 102, 152.992 102 C 153.611 102, 153.810 101.502, 153.434 100.893 C 152.957 100.121, 152.485 100.197, 151.875 101.143 C 151.138 102.286, 150.862 102.286, 150.125 101.143 C 149.572 100.286, 149.018 100.163, 148.619 100.808 M 79.583 101.750 C 79.171 102.162, 78.421 102.556, 77.917 102.625 C 77.412 102.694, 76.720 102.806, 76.378 102.875 C 76.035 102.944, 76.325 103.686, 77.021 104.525 C 78.151 105.887, 78.486 105.870, 80.143 104.370 C 82.092 102.607, 82.580 101, 81.167 101 C 80.708 101, 79.996 101.338, 79.583 101.750 M 173 103 C 173 104.333, 173.667 105, 175 105 C 176.333 105, 177 104.333, 177 103 C 177 101.667, 176.333 101, 175 101 C 173.667 101, 173 101.667, 173 103 M 198.543 102.592 C 197.227 103.554, 196.934 104.334, 197.627 105.027 C 198.321 105.721, 199.205 105.431, 200.389 104.123 C 202.530 101.757, 201.196 100.652, 198.543 102.592 M 223.563 103.926 C 220.864 106.750, 220.794 107, 222.690 107 C 225.184 107, 227.289 104.700, 226.833 102.475 C 226.570 101.195, 225.881 101.501, 223.563 103.926 M 28 103 C 28 103.550, 29.350 104, 31 104 C 32.650 104, 34 103.550, 34 103 C 34 102.450, 32.650 102, 31 102 C 29.350 102, 28 102.450, 28 103 M 125.429 104 C 125.429 105.212, 126.095 106, 127.121 106 C 128.320 106, 128.661 105.418, 128.290 104 C 128.002 102.900, 127.241 102, 126.598 102 C 125.955 102, 125.429 102.900, 125.429 104 M 435 103.500 C 435 104.611, 436.167 105, 439.500 105 C 442.833 105, 444 104.611, 444 103.500 C 444 102.389, 442.833 102, 439.500 102 C 436.167 102, 435 102.389, 435 103.500 M 364 104.500 C 363.325 105.313, 362.374 105.731, 361.887 105.430 C 361.399 105.129, 361 105.809, 361 106.941 C 361 108.386, 361.646 109, 363.167 109 C 364.358 109, 365.032 108.699, 364.664 108.331 C 364.297 107.963, 364.701 106.883, 365.563 105.930 C 366.459 104.940, 366.723 103.947, 366.178 103.610 C 365.655 103.287, 364.675 103.687, 364 104.500 M 3 123 C 1.900 124.100, 1 125.900, 1 127 C 1 129.576, 4.424 133, 7 133 C 9.576 133, 13 129.576, 13 127 C 13 124.424, 9.576 121, 7 121 C 5.900 121, 4.100 121.900, 3 123 M 26.067 122.944 C 25.629 123.800, 25.472 125.063, 25.718 125.750 C 26.353 127.521, 30 127.308, 30 125.500 C 30 124.675, 30.450 124, 31 124 C 31.550 124, 32 124.675, 32 125.500 C 32 127.361, 35.596 127.494, 36.300 125.659 C 37.242 123.205, 35.195 121.597, 30.997 121.492 C 28.185 121.421, 26.608 121.885, 26.067 122.944 M 56.686 122.017 C 52.714 123.209, 51 124.881, 51 127.563 C 51 128.839, 50.550 130.160, 50 130.500 C 49.450 130.840, 49 131.631, 49 132.259 C 49 133.081, 49.336 133.064, 50.200 132.200 C 50.860 131.540, 52.830 131, 54.578 131 C 58.377 131, 59.898 129.402, 60.679 124.589 C 61.295 120.794, 61.124 120.684, 56.686 122.017 M 77.711 121.622 C 77.320 122.013, 77 123.594, 77 125.135 C 77 127.215, 76.613 127.789, 75.500 127.362 C 74.468 126.965, 74 127.424, 74 128.834 C 74 132.048, 76.112 132.575, 78.310 129.909 L 80.297 127.500 79.629 130.250 C 78.895 133.277, 79.205 133.496, 82.066 131.965 C 84.228 130.808, 84.561 127.917, 82.893 124.799 C 82.020 123.169, 81.607 123.018, 80.944 124.091 C 80.298 125.136, 79.908 124.924, 79.263 123.181 C 78.801 121.932, 78.103 121.231, 77.711 121.622 M 125 122.752 C 120.351 125.074, 119.941 128.110, 123.897 130.927 L 126.905 133.068 128.012 128.784 C 128.621 126.428, 129.348 123.713, 129.627 122.750 C 130.264 120.554, 129.399 120.554, 125 122.752 M 147.234 126.406 C 145.455 129.380, 144 132.080, 144 132.406 C 144 132.733, 147.150 133, 151 133 C 154.850 133, 158 132.733, 158 132.406 C 158 131.452, 151.586 121, 151 121 C 150.707 121, 149.012 123.433, 147.234 126.406 M 174 123.345 C 174 124.635, 173.100 126.505, 172 127.500 C 170.900 128.495, 170 129.780, 170 130.355 C 170 130.996, 170.464 130.936, 171.200 130.200 C 172.956 128.444, 174.219 128.736, 173.579 130.750 C 173.152 132.095, 173.597 132.500, 175.500 132.500 C 177.403 132.500, 177.848 132.095, 177.421 130.750 C 176.781 128.736, 178.044 128.444, 179.800 130.200 C 180.536 130.936, 181 130.996, 181 130.355 C 181 129.780, 180.100 128.495, 179 127.500 C 177.900 126.505, 177 124.635, 177 123.345 C 177 121.927, 176.407 121, 175.500 121 C 174.593 121, 174 121.927, 174 123.345 M 193.994 121.833 C 193.447 122.017, 193 122.579, 193 123.083 C 193 123.588, 195.475 124, 198.500 124 C 201.525 124, 204 123.550, 204 123 C 204 122.450, 203.662 121.967, 203.250 121.928 C 199.988 121.613, 194.808 121.560, 193.994 121.833 M 228 121.786 C 228 122.454, 227.409 123, 226.687 123 C 225.965 123, 224.081 124.350, 222.500 126 C 220.919 127.650, 219.035 129, 218.313 129 C 217.591 129, 217 129.450, 217 130 C 217 132.046, 220.720 130.902, 223.500 128 C 226.882 124.470, 228 124.238, 228 127.067 C 228 128.680, 227.560 128.995, 226 128.500 C 224.784 128.114, 224 128.320, 224 129.026 C 224 129.665, 224.900 130.423, 226 130.710 C 227.100 130.998, 228 131.727, 228 132.331 C 228 132.935, 228.749 132.680, 229.664 131.764 C 231.039 130.390, 231.104 129.831, 230.042 128.550 C 228.993 127.287, 228.993 126.713, 230.042 125.450 C 231.104 124.169, 231.039 123.610, 229.664 122.236 C 228.606 121.177, 228 121.014, 228 121.786 M 371 122 C 371 122.550, 368.702 123, 365.893 123 C 361.647 123, 360.888 123.267, 361.393 124.582 C 361.727 125.452, 362 126.802, 362 127.582 C 362 128.536, 363.145 129, 365.500 129 C 367.425 129, 369 129.450, 369 130 C 369 130.550, 367.623 131, 365.941 131 C 364.259 131, 363.101 131.354, 363.368 131.786 C 363.635 132.219, 365.124 132.520, 366.677 132.455 C 369.169 132.351, 369.636 131.796, 370.660 127.718 C 371.298 125.178, 372.112 122.627, 372.469 122.050 C 372.826 121.472, 372.641 121, 372.059 121 C 371.477 121, 371 121.450, 371 122 M 437 122.500 C 436.140 123.536, 436.102 124, 436.878 124 C 437.495 124, 438 125.350, 438 127 C 438 128.686, 437.468 130, 436.786 130 C 436.028 130, 436.216 130.644, 437.286 131.714 C 438.905 133.333, 439.095 133.333, 440.714 131.714 C 441.784 130.644, 441.972 130, 441.214 130 C 440.532 130, 440 128.686, 440 127 C 440 125.350, 440.505 124, 441.122 124 C 441.898 124, 441.860 123.536, 441 122.500 C 440.315 121.675, 439.415 121, 439 121 C 438.585 121, 437.685 121.675, 437 122.500 M 99.166 123.597 C 96.196 125.676, 96.682 128.977, 100.250 130.967 C 102.721 132.344, 103.279 132.344, 105.750 130.967 C 109.318 128.977, 109.804 125.676, 106.834 123.597 C 105.581 122.718, 103.855 122, 103 122 C 102.145 122, 100.419 122.718, 99.166 123.597 M 241 126 C 241 128.200, 241.450 130, 242 130 C 242.550 130, 243 130.745, 243 131.655 C 243 133.195, 243.127 133.195, 244.829 131.655 C 245.835 130.745, 248.085 130, 249.829 130 C 252.862 130, 253 129.826, 253 126 L 253 122 247 122 L 241 122 241 126 M 386 123 C 384.954 123.676, 386.469 123.938, 391 123.866 C 396.077 123.786, 396.843 123.596, 394.500 123 C 390.167 121.897, 387.706 121.897, 386 123 M 410.250 122.662 C 409.563 122.940, 409.014 124.367, 409.030 125.833 C 409.057 128.127, 409.203 128.256, 410.080 126.750 C 410.834 125.456, 412.390 125, 416.050 125 C 421.876 125, 422.624 123.530, 417.250 122.642 C 413.017 121.942, 412.027 121.945, 410.250 122.662 M 217 123.883 C 217 124.805, 221.120 126.214, 221.806 125.527 C 222.023 125.310, 221.904 124.653, 221.541 124.067 C 220.748 122.783, 217 122.632, 217 123.883 M 291.515 125.984 C 289.300 128.297, 288.890 129.290, 289.783 130.183 C 290.676 131.076, 291.386 130.961, 292.783 129.697 C 294.486 128.155, 294.729 128.157, 296.299 129.728 C 297.628 131.057, 298.245 131.155, 299.208 130.192 C 300.172 129.228, 299.793 128.332, 297.424 125.962 L 294.417 122.955 291.515 125.984 M 314.450 124.081 C 314.082 124.676, 315.049 126.486, 316.599 128.104 L 319.417 131.045 322.424 128.038 C 324.751 125.711, 325.161 124.761, 324.239 123.839 C 323.317 122.917, 322.622 123.032, 321.167 124.349 C 319.489 125.867, 319.150 125.886, 318.021 124.525 C 316.530 122.729, 315.374 122.585, 314.450 124.081 M 336 124.500 C 335.140 125.536, 335.102 126, 335.878 126 C 336.495 126, 337 127.350, 337 129 C 337 131.841, 337.216 132, 341.059 132 C 343.510 132, 344.873 131.604, 344.500 131 C 344.160 130.450, 342.784 130, 341.441 130 C 339.667 130, 339 129.454, 339 128 C 339 126.900, 339.505 126, 340.122 126 C 340.898 126, 340.860 125.536, 340 124.500 C 339.315 123.675, 338.415 123, 338 123 C 337.585 123, 336.685 123.675, 336 124.500 M 341.500 124 C 341.840 124.550, 343.216 125, 344.559 125 C 346.333 125, 347 125.546, 347 127 C 347 128.100, 346.454 129, 345.786 129 C 345.028 129, 345.216 129.644, 346.286 130.714 C 347.905 132.333, 348.095 132.333, 349.714 130.714 C 350.784 129.644, 350.972 129, 350.214 129 C 349.532 129, 349 127.686, 349 126 C 349 123.159, 348.784 123, 344.941 123 C 342.490 123, 341.127 123.396, 341.500 124 M 6 126 C 6 127.100, 6.450 128, 7 128 C 7.550 128, 8 127.100, 8 126 C 8 124.900, 7.550 124, 7 124 C 6.450 124, 6 124.900, 6 126 M 54.306 126.526 L 51.500 129.053 55.250 126.928 C 59.035 124.783, 59.785 124, 58.056 124 C 57.536 124, 55.849 125.137, 54.306 126.526 M 130.576 125.338 C 130.894 126.166, 130.654 127.779, 130.042 128.922 C 128.774 131.290, 130.143 131.737, 131.960 129.548 C 133.399 127.814, 132.999 124.832, 131.249 124.249 C 130.476 123.992, 130.219 124.408, 130.576 125.338 M 458.049 125.441 C 456.869 126.863, 456.910 127.338, 458.336 128.764 C 459.394 129.823, 460 129.986, 460 129.214 C 460 128.532, 461.314 128, 463 128 C 464.686 128, 466 128.532, 466 129.214 C 466 129.972, 466.644 129.784, 467.714 128.714 C 469.333 127.095, 469.333 126.905, 467.714 125.286 C 466.644 124.216, 466 124.028, 466 124.786 C 466 126.308, 460.301 126.404, 459.797 124.890 C 459.568 124.204, 458.901 124.414, 458.049 125.441 M 148.571 127.864 L 147.090 130.727 151 130.727 L 154.910 130.727 153.429 127.864 C 152.615 126.289, 151.522 125, 151 125 C 150.478 125, 149.385 126.289, 148.571 127.864 M 193 129 L 193 133 198.500 133 L 204 133 204 129 L 204 125 198.500 125 L 193 125 193 129 M 266 127.429 C 266 130.316, 268.409 133, 271 133 C 273.591 133, 276 130.316, 276 127.429 C 276 124.334, 273.256 124.180, 272.820 127.250 C 272.644 128.488, 271.825 129.500, 271 129.500 C 270.175 129.500, 269.356 128.488, 269.180 127.250 C 268.744 124.180, 266 124.334, 266 127.429 M 385 129 L 385 133 391 133 L 397 133 397 129 L 397 125 391 125 L 385 125 385 129 M 99.227 127.500 C 99.461 129.058, 100.294 129.500, 103 129.500 C 105.706 129.500, 106.539 129.058, 106.773 127.500 C 107.048 125.672, 106.980 125.650, 105.987 127.250 C 105.390 128.213, 104.045 129, 103 129 C 101.955 129, 100.610 128.213, 100.013 127.250 C 99.020 125.650, 98.952 125.672, 99.227 127.500 M 123 126.711 C 123 127.285, 123.787 128.373, 124.750 129.128 C 126.369 130.397, 126.390 130.350, 125.033 128.500 C 124.226 127.400, 123.439 126.313, 123.283 126.083 C 123.127 125.854, 123 126.137, 123 126.711 M 150 127.500 C 150 128.325, 150.450 129, 151 129 C 151.550 129, 152 128.325, 152 127.500 C 152 126.675, 151.550 126, 151 126 C 150.450 126, 150 126.675, 150 127.500 M 410.526 128.950 C 409.687 130.573, 409 132.169, 409 132.498 C 409 132.827, 411.781 132.961, 415.181 132.798 C 421.110 132.512, 421.416 132.368, 422.684 129.250 L 424.006 126 418.029 126 C 412.421 126, 411.957 126.182, 410.526 128.950 M 26 131 C 26 132.333, 26.667 133, 28 133 C 29.333 133, 30 132.333, 30 131 C 30 129.667, 29.333 129, 28 129 C 26.667 129, 26 129.667, 26 131 M 32 131 C 32 132.333, 32.667 133, 34 133 C 35.333 133, 36 132.333, 36 131 C 36 129.667, 35.333 129, 34 129 C 32.667 129, 32 129.667, 32 131 M 197 145.893 C 197 146.934, 196.328 148.044, 195.506 148.359 C 194.277 148.831, 194.221 149.391, 195.189 151.516 C 196.182 153.695, 196.924 154.052, 199.933 153.799 C 202.961 153.545, 203.547 153.097, 203.808 150.836 C 204.036 148.867, 203.579 148.001, 202.058 147.518 C 200.926 147.159, 200 146.221, 200 145.433 C 200 144.645, 199.325 144, 198.500 144 C 197.675 144, 197 144.852, 197 145.893 M 2.228 149 L 1.213 153 7 153 L 12.787 153 11.772 149 C 10.813 145.223, 10.547 145, 7 145 C 3.453 145, 3.187 145.223, 2.228 149 M 53.317 146.250 C 51.919 148.431, 50.240 153.906, 50.797 154.464 C 51.092 154.759, 52.983 155, 55 155 C 59.665 155, 59.983 154.622, 58.612 150.714 C 57.200 146.690, 56.131 145, 55 145 C 54.515 145, 53.758 145.563, 53.317 146.250 M 75.471 147.464 C 74.387 148.584, 73.500 150.175, 73.500 151 C 73.500 152.961, 76.843 156, 79 156 C 81.157 156, 84.500 152.961, 84.500 151 C 84.500 149.012, 80.963 145.429, 79 145.429 C 78.143 145.429, 76.555 146.345, 75.471 147.464 M 102 147 C 101.411 148.100, 100.045 149, 98.965 149 C 97.448 149, 97 149.685, 97 152 C 97 155.761, 98.723 155.949, 99.284 152.250 L 99.700 149.500 99.850 152.231 C 100.064 156.128, 104.575 157.243, 107.169 154.040 C 109.565 151.081, 109.495 149, 107 149 C 105.667 149, 105 148.333, 105 147 C 105 145.900, 104.566 145, 104.035 145 C 103.505 145, 102.589 145.900, 102 147 M 198.116 147.357 C 198.030 149.480, 197.609 150.064, 196.477 149.629 C 195.222 149.148, 195.146 149.405, 196.044 151.082 C 196.808 152.510, 197.935 153.027, 199.809 152.810 C 203.053 152.434, 203.972 149.443, 201.121 148.538 C 200.025 148.191, 198.927 147.140, 198.680 146.203 C 198.430 145.252, 198.181 145.762, 198.116 147.357 M 220 146 C 220 146.550, 221.350 147, 223 147 C 224.650 147, 226 146.550, 226 146 C 226 145.450, 224.650 145, 223 145 C 221.350 145, 220 145.450, 220 146 M 243 147 C 241.900 148.100, 241 149.900, 241 151 C 241 152.100, 241.900 153.900, 243 155 C 244.100 156.100, 245.900 157, 247 157 C 248.100 157, 249.900 156.100, 251 155 C 252.100 153.900, 253 152.100, 253 151 C 253 149.900, 252.100 148.100, 251 147 C 249.900 145.900, 248.100 145, 247 145 C 245.900 145, 244.100 145.900, 243 147 M 267 147 C 265.900 148.100, 265 149.900, 265 151 C 265 152.100, 265.900 153.900, 267 155 C 268.100 156.100, 269.900 157, 271 157 C 272.100 157, 273.900 156.100, 275 155 C 276.100 153.900, 277 152.100, 277 151 C 277 149.900, 276.100 148.100, 275 147 C 273.900 145.900, 272.100 145, 271 145 C 269.900 145, 268.100 145.900, 267 147 M 291 147 C 289.900 148.100, 289 149.900, 289 151 C 289 152.100, 289.900 153.900, 291 155 C 292.100 156.100, 293.900 157, 295 157 C 296.100 157, 297.900 156.100, 299 155 C 300.100 153.900, 301 152.100, 301 151 C 301 149.900, 300.100 148.100, 299 147 C 297.900 145.900, 296.100 145, 295 145 C 293.900 145, 292.100 145.900, 291 147 M 315 147 C 313.900 148.100, 313 149.900, 313 151 C 313 152.100, 313.900 153.900, 315 155 C 316.100 156.100, 317.900 157, 319 157 C 320.100 157, 321.900 156.100, 323 155 C 324.100 153.900, 325 152.100, 325 151 C 325 149.900, 324.100 148.100, 323 147 C 321.900 145.900, 320.100 145, 319 145 C 317.900 145, 316.100 145.900, 315 147 M 339 147 C 337.900 148.100, 337 149.900, 337 151 C 337 152.100, 337.900 153.900, 339 155 C 340.100 156.100, 341.900 157, 343 157 C 344.100 157, 345.900 156.100, 347 155 C 348.100 153.900, 349 152.100, 349 151 C 349 149.900, 348.100 148.100, 347 147 C 345.900 145.900, 344.100 145, 343 145 C 341.900 145, 340.100 145.900, 339 147 M 367.324 146.750 C 366.987 147.713, 365.337 149.963, 363.657 151.752 C 361.288 154.275, 360.872 155.272, 361.800 156.200 C 362.728 157.128, 363.725 156.712, 366.248 154.343 C 368.037 152.663, 370.288 151.013, 371.250 150.676 C 372.212 150.339, 373 149.572, 373 148.972 C 373 148.373, 372.550 148.160, 372 148.500 C 370.251 149.581, 368.773 147.978, 370.074 146.411 C 371.002 145.293, 370.901 145, 369.591 145 C 368.681 145, 367.661 145.787, 367.324 146.750 M 412.250 145.716 C 413.762 145.945, 416.238 145.945, 417.750 145.716 C 419.262 145.487, 418.025 145.300, 415 145.300 C 411.975 145.300, 410.738 145.487, 412.250 145.716 M 437 146 C 437 146.550, 436.100 147, 435 147 C 433.556 147, 433 147.667, 433 149.400 C 433 151.667, 433.333 151.800, 439 151.800 C 444.667 151.800, 445 151.667, 445 149.400 C 445 147.667, 444.444 147, 443 147 C 441.900 147, 441 146.550, 441 146 C 441 145.450, 440.100 145, 439 145 C 437.900 145, 437 145.450, 437 146 M 457.079 147.250 C 457.132 148.753, 457.347 149.002, 457.729 148 C 458.043 147.175, 458.795 146.169, 459.400 145.765 C 460.078 145.312, 459.829 145.025, 458.750 145.015 C 457.574 145.005, 457.026 145.738, 457.079 147.250 M 466.189 145.677 C 467.117 145.923, 468.077 146.883, 468.323 147.811 C 468.638 149.008, 468.802 148.844, 468.884 147.250 C 468.973 145.518, 468.482 145.027, 466.750 145.116 C 465.156 145.198, 464.992 145.362, 466.189 145.677 M 36.286 150.500 C 36.294 153.250, 36.488 154.256, 36.718 152.736 C 36.947 151.216, 36.941 148.966, 36.704 147.736 C 36.467 146.506, 36.279 147.750, 36.286 150.500 M 102.250 148.329 C 100.485 152.233, 100.689 153.767, 103.073 154.523 C 104.480 154.970, 105.595 154.590, 106.542 153.341 C 108.453 150.818, 108.337 150, 106.070 150 C 104.839 150, 104.023 149.196, 103.820 147.782 C 103.517 145.681, 103.434 145.709, 102.250 148.329 M 123.750 146.716 C 121.470 147.062, 121 147.634, 121 150.066 C 121 153.781, 122.953 153.949, 123.136 150.250 C 123.265 147.642, 123.296 147.626, 123.729 149.927 C 124.272 152.814, 126.868 157, 128.115 157 C 128.602 157, 129 156.100, 129 155 C 129 153.667, 129.667 153, 131 153 C 133.399 153, 133.561 151.246, 131.443 148.223 C 129.909 146.032, 129.192 145.892, 123.750 146.716 M 150.200 147.275 C 148.327 148.151, 147.956 149.013, 148.200 151.925 C 148.457 154.993, 148.890 155.545, 151.250 155.816 C 153.190 156.040, 154 155.682, 154 154.602 C 154 153.759, 154.900 152.589, 156 152 C 158.418 150.706, 158.622 149, 156.360 149 C 155.458 149, 154.221 148.370, 153.610 147.600 C 152.756 146.522, 151.969 146.447, 150.200 147.275 M 172.359 147.506 C 172.044 148.328, 170.934 149, 169.893 149 C 167.413 149, 167.472 150.647, 170 152 C 171.100 152.589, 172 153.759, 172 154.602 C 172 155.682, 172.810 156.040, 174.750 155.816 C 177.108 155.545, 177.543 154.992, 177.799 151.933 C 178.052 148.924, 177.695 148.182, 175.516 147.189 C 173.391 146.221, 172.831 146.277, 172.359 147.506 M 342.493 146.989 C 342.843 147.555, 342.442 147.723, 341.552 147.382 C 339.041 146.418, 339.674 151.158, 342.401 153.743 C 344.467 155.701, 344.924 155.796, 346.006 154.493 C 347.037 153.251, 346.898 153, 345.181 153 C 342.956 153, 341.336 151.388, 343.004 150.832 C 344.741 150.253, 345.075 146, 343.384 146 C 342.558 146, 342.157 146.445, 342.493 146.989 M 385 147.500 C 385 148.667, 386.333 149, 391 149 C 395.667 149, 397 148.667, 397 147.500 C 397 146.333, 395.667 146, 391 146 C 386.333 146, 385 146.333, 385 147.500 M 29.250 148.247 C 26.607 149.095, 26 149.811, 26 152.086 C 26 153.624, 26.450 155.160, 27 155.500 C 27.550 155.840, 28 155.368, 28 154.452 C 28 153.535, 28.562 152.997, 29.250 153.256 C 34.928 155.390, 35 155.362, 35 151.067 C 35 146.682, 34.655 146.513, 29.250 148.247 M 126.250 147.662 C 124.616 148.322, 124.717 150.881, 126.500 154 C 127.911 156.468, 127.930 156.472, 127.965 154.250 C 127.989 152.678, 128.603 152, 130 152 C 132.315 152, 132.466 151.197, 130.608 148.750 C 129.253 146.966, 128.465 146.769, 126.250 147.662 M 150.596 148.306 C 149.501 149.107, 148.943 150.553, 149.155 152.046 C 149.586 155.088, 152.599 155.840, 153.462 153.121 C 153.809 152.025, 154.860 150.927, 155.797 150.680 C 156.748 150.430, 156.238 150.181, 154.643 150.116 C 152.539 150.031, 151.938 149.605, 152.362 148.500 C 153.065 146.666, 152.868 146.645, 150.596 148.306 M 173.629 148.477 C 174.064 149.609, 173.480 150.030, 171.357 150.116 C 169.762 150.181, 169.252 150.430, 170.203 150.680 C 171.140 150.927, 172.191 152.025, 172.538 153.121 C 173.443 155.972, 176.434 155.053, 176.810 151.809 C 177.027 149.935, 176.510 148.808, 175.082 148.044 C 173.405 147.146, 173.148 147.222, 173.629 148.477 M 388.250 147.716 C 389.762 147.945, 392.238 147.945, 393.750 147.716 C 395.262 147.487, 394.025 147.300, 391 147.300 C 387.975 147.300, 386.738 147.487, 388.250 147.716 M 411 147.878 C 411 148.360, 411.675 149.315, 412.500 150 C 413.325 150.685, 414 152.566, 414 154.181 C 414 155.885, 414.420 156.858, 415 156.500 C 415.550 156.160, 416 154.839, 416 153.563 C 416 152.288, 416.675 150.685, 417.500 150 C 419.990 147.933, 419.213 147, 415 147 C 412.800 147, 411 147.395, 411 147.878 M 459 148.417 C 459 149.196, 459.563 150.096, 460.250 150.417 C 461.250 150.883, 461.250 151.117, 460.250 151.583 C 458.539 152.382, 458.667 155, 460.417 155 C 461.196 155, 462.096 154.438, 462.417 153.750 C 462.883 152.750, 463.117 152.750, 463.583 153.750 C 464.382 155.461, 467 155.333, 467 153.583 C 467 152.804, 466.438 151.904, 465.750 151.583 C 464.750 151.117, 464.750 150.883, 465.750 150.417 C 466.438 150.096, 467 149.196, 467 148.417 C 467 146.667, 464.382 146.539, 463.583 148.250 C 463.117 149.250, 462.883 149.250, 462.417 148.250 C 461.618 146.539, 459 146.667, 459 148.417 M 218.218 150.421 C 217.323 152.385, 217.354 153.112, 218.361 153.720 C 219.070 154.149, 219.996 155.400, 220.418 156.500 C 221.169 158.457, 221.218 158.452, 222.715 156.250 C 223.556 155.012, 224.894 154, 225.688 154 C 226.674 154, 227.032 153.127, 226.816 151.250 C 226.545 148.892, 225.992 148.457, 222.933 148.201 C 219.945 147.950, 219.180 148.310, 218.218 150.421 M 293.607 148.826 C 292.929 149.925, 294.026 154, 295 154 C 295.974 154, 297.071 149.925, 296.393 148.826 C 296.112 148.372, 295.485 148, 295 148 C 294.515 148, 293.888 148.372, 293.607 148.826 M 317.649 150.233 C 316.972 152.823, 318.487 154.913, 319.967 153.433 C 321.021 152.379, 320.242 148, 319 148 C 318.578 148, 317.971 149.005, 317.649 150.233 M 145 152 C 145 153.650, 145.450 155, 146 155 C 146.550 155, 147 153.650, 147 152 C 147 150.350, 146.550 149, 146 149 C 145.450 149, 145 150.350, 145 152 M 179 152 C 179 153.650, 179.450 155, 180 155 C 180.550 155, 181 153.650, 181 152 C 181 150.350, 180.550 149, 180 149 C 179.450 149, 179 150.350, 179 152 M 219.044 150.918 C 218.146 152.595, 218.222 152.852, 219.477 152.371 C 220.609 151.936, 221.030 152.520, 221.116 154.643 C 221.181 156.238, 221.430 156.748, 221.680 155.797 C 221.927 154.860, 223.025 153.809, 224.121 153.462 C 226.972 152.557, 226.053 149.566, 222.809 149.190 C 220.935 148.973, 219.808 149.490, 219.044 150.918 M 245.750 149.689 C 243.322 150.324, 243.563 151.652, 246.233 152.351 C 248.733 153.005, 250.579 151.746, 249.554 150.087 C 248.855 148.957, 248.640 148.934, 245.750 149.689 M 268.488 150.019 C 267.426 151.738, 269.224 153.016, 271.767 152.351 C 273.934 151.784, 274.932 150, 273.082 150 C 272.577 150, 271.497 149.744, 270.683 149.432 C 269.869 149.119, 268.881 149.384, 268.488 150.019 M 385 151.500 C 385 152.667, 386.333 153, 391 153 C 395.667 153, 397 152.667, 397 151.500 C 397 150.333, 395.667 150, 391 150 C 386.333 150, 385 150.333, 385 151.500 M 388.250 151.716 C 389.762 151.945, 392.238 151.945, 393.750 151.716 C 395.262 151.487, 394.025 151.300, 391 151.300 C 387.975 151.300, 386.738 151.487, 388.250 151.716 M 433 154.500 C 433 155.667, 434.333 156, 439 156 C 443.667 156, 445 155.667, 445 154.500 C 445 153.333, 443.667 153, 439 153 C 434.333 153, 433 153.333, 433 154.500 M 1 155.500 C 1 156.667, 2.333 157, 7 157 C 11.667 157, 13 156.667, 13 155.500 C 13 154.333, 11.667 154, 7 154 C 2.333 154, 1 154.333, 1 155.500 M 385 155.500 C 385 156.667, 386.333 157, 391 157 C 395.667 157, 397 156.667, 397 155.500 C 397 154.333, 395.667 154, 391 154 C 386.333 154, 385 154.333, 385 155.500 M 457 155.333 C 457 156.260, 457.777 156.993, 458.750 156.985 C 459.749 156.976, 460.071 156.649, 459.500 156.223 C 458.950 155.813, 458.163 155.069, 457.750 154.572 C 457.337 154.074, 457 154.417, 457 155.333 M 468 154.927 C 468 155.436, 467.212 156.059, 466.250 156.311 C 464.933 156.655, 465.057 156.797, 466.750 156.884 C 468.135 156.955, 469 156.423, 469 155.500 C 469 154.675, 468.775 154, 468.500 154 C 468.225 154, 468 154.417, 468 154.927 M 197 156 C 197 156.550, 198.350 157, 200 157 C 201.650 157, 203 156.550, 203 156 C 203 155.450, 201.650 155, 200 155 C 198.350 155, 197 155.450, 197 156 M 388.250 155.716 C 389.762 155.945, 392.238 155.945, 393.750 155.716 C 395.262 155.487, 394.025 155.300, 391 155.300 C 387.975 155.300, 386.738 155.487, 388.250 155.716" stroke="none" fill="#3467df" fill-rule="evenodd"/>
</svg>