<svg xmlns="http://www.w3.org/2000/svg" width="32" height="16" viewBox="0 0 32 16" version="1.1">
	<rect x="0" y="0" width="100%" height="100%" fill="#bfbfbf" />
	<path d="M 2.455 2.455 C 1.105 3.805, 0 6.075, 0 7.500 C 0 10.834, 4.166 15, 7.500 15 C 8.925 15, 11.195 13.895, 12.545 12.545 C 15.674 9.417, 15.674 5.583, 12.545 2.455 C 11.195 1.105, 8.925 0, 7.500 0 C 6.075 0, 3.805 1.105, 2.455 2.455 M 4 2 C 2.787 2.784, 2.931 2.972, 4.750 2.985 C 6.479 2.996, 7 3.579, 7 5.500 C 7 7.480, 6.495 8, 4.573 8 C 3.103 8, 1.966 7.310, 1.689 6.250 C 1.408 5.173, 1.187 5.558, 1.116 7.250 C 0.873 13.002, 7.922 16.078, 12 12 C 17.309 6.691, 10.300 -2.071, 4 2 M 3 5.500 C 3 6.325, 3.675 7, 4.500 7 C 5.325 7, 6 6.325, 6 5.500 C 6 4.675, 5.325 4, 4.500 4 C 3.675 4, 3 4.675, 3 5.500 M 8.348 5.676 C 7.993 6.679, 6.791 8.512, 5.677 9.750 L 3.651 12 7.481 12 C 11.128 12, 11.231 11.913, 9.654 10.171 C 8.096 8.449, 8.131 8.346, 10.249 8.421 C 11.855 8.477, 12.500 7.931, 12.500 6.514 C 12.500 3.935, 9.200 3.269, 8.348 5.676 M 9 6.500 C 9 7.325, 9.675 8, 10.500 8 C 11.325 8, 12 7.325, 12 6.500 C 12 5.675, 11.325 5, 10.500 5 C 9.675 5, 9 5.675, 9 6.500" stroke="none" fill="blue" fill-rule="evenodd"/>
</svg>