<svg xmlns="http://www.w3.org/2000/svg" width="32" height="16" viewBox="0 0 32 16" version="1.1">
	<rect x="0" y="0" width="100%" height="100%" fill="#bfbfbf" />
	<path d="M 0 8 L 0 13 8 13 L 16 13 16 8 L 16 3 8 3 L 0 3 0 8 M 1 8 L 1 12 8 12 L 15 12 15 8 L 15 4 8 4 L 1 4 1 8 M 5.750 7.706 C 6.988 7.944, 9.012 7.944, 10.250 7.706 C 11.488 7.467, 10.475 7.272, 8 7.272 C 5.525 7.272, 4.512 7.467, 5.750 7.706 M 5.750 9.706 C 6.988 9.944, 9.012 9.944, 10.250 9.706 C 11.488 9.467, 10.475 9.272, 8 9.272 C 5.525 9.272, 4.512 9.467, 5.750 9.706" stroke="none" fill="blue" fill-rule="evenodd"/>
</svg>