<svg xmlns="http://www.w3.org/2000/svg" width="32" height="16" viewBox="0 0 32 16" version="1.1">
	<rect x="0" y="0" width="100%" height="100%" fill="#bfbfbf" />
	<path d="M 1 1.500 C 1 2.325, 1.337 3.014, 1.750 3.031 C 2.163 3.049, 3.254 4.102, 4.176 5.371 C 5.776 7.575, 5.742 7.799, 3.426 10.296 C -0.281 14.294, 0.330 15, 7.500 15 C 14.670 15, 15.281 14.294, 11.574 10.296 C 9.258 7.799, 9.224 7.575, 10.824 5.371 C 11.746 4.102, 12.838 3.049, 13.250 3.031 C 13.662 3.014, 14 2.325, 14 1.500 C 14 0.321, 12.611 0, 7.500 0 C 2.389 0, 1 0.321, 1 1.500 M 4 3.607 C 4 4.609, 4.553 5.002, 5.468 4.651 C 6.275 4.341, 7.245 4.587, 7.622 5.198 C 8.036 5.867, 7.854 6.028, 7.166 5.603 C 6.455 5.163, 6.225 5.422, 6.557 6.288 C 6.851 7.053, 6.396 8.257, 5.546 8.962 C 3.925 10.307, 3.427 13, 4.800 13 C 5.240 13, 6.089 12.511, 6.687 11.913 C 7.470 11.130, 7.962 11.130, 8.446 11.913 C 8.816 12.511, 9.541 13, 10.059 13 C 11.558 13, 11.152 10.825, 9.263 8.738 C 7.614 6.916, 7.614 6.755, 9.263 5.549 C 12.045 3.515, 11.292 2, 7.500 2 C 4.952 2, 4 2.437, 4 3.607" stroke="none" fill="blue" fill-rule="evenodd"/>
</svg>