<svg xmlns="http://www.w3.org/2000/svg" width="150" height="150" viewBox="0 0 150 150" version="1.1">
	<rect x="0" y="0" width="100%" height="100%" fill="#bfbfbf" />
	<path d="M 0 75 L 0 150 14.283 150 L 28.565 150 28.175 143.084 C 27.835 137.069, 28.128 135.536, 30.424 131.318 C 33.601 125.479, 39.887 120.975, 48.915 118.066 C 52.443 116.930, 55.969 116, 56.750 116 C 57.682 116, 56.940 114.324, 54.593 111.127 C 49.076 103.611, 47.042 98.315, 47.057 91.500 C 47.072 84.252, 49.195 71.835, 51.261 66.906 L 52.767 63.313 67.634 62.659 C 81.470 62.051, 88.997 61.112, 93.250 59.464 C 94.716 58.896, 95 59.364, 95 62.356 C 95 64.320, 96.317 72.249, 97.926 79.977 C 99.889 89.404, 100.594 94.928, 100.067 96.764 C 98.877 100.904, 93.964 109.594, 90.940 112.904 L 88.253 115.847 90.672 116.454 C 92.003 116.788, 93.521 116.796, 94.046 116.472 C 94.571 116.147, 95 116.434, 95 117.108 C 95 117.782, 95.282 118.051, 95.627 117.707 C 95.972 117.362, 97.560 117.755, 99.156 118.581 C 100.753 119.406, 102.496 119.812, 103.029 119.482 C 103.563 119.152, 104 119.304, 104 119.820 C 104 120.335, 105.237 121.281, 106.750 121.922 C 110.520 123.518, 115.208 127.938, 116.933 131.522 C 118.510 134.798, 119.973 148, 118.760 148 C 118.342 148, 118 148.461, 118 149.025 C 118 149.694, 123.643 149.954, 134.250 149.775 L 150.500 149.500 150.756 74.750 L 151.013 -0 75.506 -0 L 0 0 0 75 M 0.475 75.500 C 0.475 116.750, 0.598 133.771, 0.750 113.324 C 0.901 92.877, 0.901 59.127, 0.750 38.324 C 0.599 17.521, 0.475 34.250, 0.475 75.500 M 59.571 74.571 C 57.729 76.414, 57.629 77.438, 59.035 80.066 C 60.192 82.228, 63.963 82.637, 65.800 80.800 C 67.637 78.963, 67.228 75.192, 65.066 74.035 C 62.438 72.629, 61.414 72.729, 59.571 74.571 M 81.570 75.204 C 80.254 77.083, 80.226 77.708, 81.385 79.454 C 82.133 80.579, 83.759 81.500, 85 81.500 C 86.241 81.500, 87.867 80.579, 88.615 79.454 C 89.774 77.708, 89.746 77.083, 88.430 75.204 C 87.581 73.992, 86.038 73, 85 73 C 83.962 73, 82.419 73.992, 81.570 75.204 M 65 105 C 65 105.593, 68.667 106, 74 106 C 79.333 106, 83 105.593, 83 105 C 83 104.407, 79.333 104, 74 104 C 68.667 104, 65 104.407, 65 105" stroke="none" fill="#3467df" fill-rule="evenodd"/>
</svg>