<svg xmlns="http://www.w3.org/2000/svg" width="150" height="150" viewBox="0 0 150 150" version="1.1">
	<rect x="0" y="0" width="100%" height="100%" fill="#bfbfbf" />
	<path d="M 63.500 35.447 C 56.236 37.303, 53.290 38.659, 52.168 40.664 C 51.622 41.640, 48.998 43.127, 46.338 43.969 C 40.150 45.927, 38.004 49.757, 38.002 58.843 C 38 66.038, 40.909 81.408, 44.206 91.621 L 46.427 98.500 47.129 85.500 C 47.850 72.155, 49.285 63.567, 51.174 61.291 C 51.763 60.581, 53.945 60, 56.023 60 C 61.759 60, 81.773 56.345, 88.162 54.131 L 93.824 52.168 94.950 58.834 C 96.207 66.281, 100.947 89.675, 101.669 92 C 102.427 94.443, 103.843 91.071, 106.564 80.346 C 112.567 56.683, 107.192 40.104, 92.061 35.611 C 85.559 33.680, 70.751 33.595, 63.500 35.447 M 59.571 74.571 C 57.729 76.414, 57.629 77.438, 59.035 80.066 C 60.192 82.228, 63.963 82.637, 65.800 80.800 C 67.637 78.963, 67.228 75.192, 65.066 74.035 C 62.438 72.629, 61.414 72.729, 59.571 74.571 M 81.570 75.204 C 80.254 77.083, 80.226 77.708, 81.385 79.454 C 82.133 80.579, 83.759 81.500, 85 81.500 C 86.241 81.500, 87.867 80.579, 88.615 79.454 C 89.774 77.708, 89.746 77.083, 88.430 75.204 C 87.581 73.992, 86.038 73, 85 73 C 83.962 73, 82.419 73.992, 81.570 75.204 M 64.396 102.410 C 62.020 108.603, 79.783 111.010, 83.034 104.936 C 84.829 101.582, 82.990 100.531, 80.335 103.394 C 76.941 107.054, 70.872 107.044, 67.470 103.373 C 65.367 101.103, 64.948 100.972, 64.396 102.410" stroke="none" fill="#3467df" fill-rule="evenodd"/>
</svg>