<svg xmlns="http://www.w3.org/2000/svg" width="150" height="150" viewBox="0 0 150 150" version="1.1">
	<rect x="0" y="0" width="100%" height="100%" fill="#bfbfbf" />
	<path d="M 56.757 34.014 C 51.777 35.281, 45.701 39.207, 43.127 42.822 C 40.617 46.346, 37.998 55.880, 38.006 61.460 C 38.018 70.067, 43.428 93.090, 45.015 91.292 C 45.902 90.287, 51.961 59.758, 52.269 54.741 C 52.428 52.159, 52.901 51.136, 53.783 51.472 C 62.561 54.825, 83.461 58.979, 91.628 58.994 C 93.348 58.997, 95.237 59.581, 95.826 60.291 C 97.688 62.533, 99.135 71.083, 99.841 84 L 100.524 96.500 102.742 89.411 C 107.605 73.866, 109.751 58.526, 107.987 51.905 C 106.505 46.338, 104.596 44.202, 100.402 43.416 C 98.575 43.073, 95.744 41.516, 94.112 39.956 C 92.479 38.396, 88.749 36.397, 85.822 35.514 C 79.435 33.586, 61.982 32.685, 56.757 34.014 M 56.570 74.204 C 55.255 76.081, 55.227 76.710, 56.383 78.454 C 58.976 82.366, 64 81.129, 64 76.578 C 64 71.956, 59.215 70.427, 56.570 74.204 M 83.750 73.080 C 81.741 74.250, 81.432 78.032, 83.200 79.800 C 85.037 81.637, 88.808 81.228, 89.965 79.066 C 91.371 76.438, 91.271 75.414, 89.429 73.571 C 87.621 71.764, 86.219 71.642, 83.750 73.080 M 68.571 104.571 C 65.276 107.867, 67.497 111, 73.129 111 C 76.587 111, 80 109.013, 80 107 C 80 105.065, 76.645 103, 73.500 103 C 71.654 103, 69.436 103.707, 68.571 104.571 M 53.899 116.448 C 41.822 119.779, 33.457 125.359, 30.078 132.339 C 27.766 137.115, 27.504 140.673, 29.053 146.250 L 30.094 150 73.500 150 L 116.906 150 117.947 146.250 C 119.575 140.388, 119.208 136.811, 116.400 131.176 C 112.641 123.631, 105.034 118.824, 92.329 115.965 C 88.707 115.150, 87.587 115.353, 83.829 117.501 C 77.863 120.912, 70.196 120.911, 63.788 117.500 C 61.205 116.125, 58.958 115.040, 58.796 115.089 C 58.633 115.139, 56.430 115.750, 53.899 116.448" stroke="none" fill="#3467df" fill-rule="evenodd"/>
</svg>