<svg xmlns="http://www.w3.org/2000/svg" width="32" height="16" viewBox="0 0 32 16" version="1.1">
	<rect x="0" y="0" width="100%" height="100%" fill="#bfbfbf" />
	<path d="M 13 2 C 13 2.550, 13.675 3, 14.500 3 C 15.325 3, 16 2.550, 16 2 C 16 1.450, 15.325 1, 14.500 1 C 13.675 1, 13 1.450, 13 2 M 7 2.992 C 7 3.546, 5.650 4, 4 4 C 2.350 4, 1 4.450, 1 5 C 1 5.550, 2.350 6, 4 6 C 5.650 6, 7 6.454, 7 7.008 C 7 7.606, 7.814 7.508, 9 6.768 C 10.100 6.081, 11 5.285, 11 5 C 11 4.715, 10.100 3.919, 9 3.232 C 7.814 2.492, 7 2.394, 7 2.992 M 14 8 C 14 8.550, 14.450 9, 15 9 C 15.550 9, 16 8.550, 16 8 C 16 7.450, 15.550 7, 15 7 C 14.450 7, 14 7.450, 14 8 M 14 11 C 14 11.550, 14.450 12, 15 12 C 15.550 12, 16 11.550, 16 11 C 16 10.450, 15.550 10, 15 10 C 14.450 10, 14 10.450, 14 11 M 13 14 C 13 14.550, 13.675 15, 14.500 15 C 15.325 15, 16 14.550, 16 14 C 16 13.450, 15.325 13, 14.500 13 C 13.675 13, 13 13.450, 13 14" stroke="none" fill="blue" fill-rule="evenodd"/>
</svg>