<svg xmlns="http://www.w3.org/2000/svg" width="420" height="280" viewBox="0 0 420 280" version="1.1">
	<rect x="0" y="0" width="100%" height="100%" fill="#bfbfbf" />
	<path d="M 70 12.913 C 70 22.314, 70.341 25.971, 71.250 26.338 C 72.242 26.738, 72.239 26.858, 71.238 26.921 C 69.436 27.034, 69.494 165.621, 71.296 166.353 C 72.204 166.722, 72.192 166.862, 71.250 166.921 C 70.266 166.983, 70 179.009, 70 223.500 L 70 280 92.377 280 L 114.754 280 116.783 275.250 C 117.900 272.637, 119.326 268.574, 119.953 266.220 C 120.636 263.658, 121.519 262.203, 122.153 262.595 C 122.895 263.053, 122.897 263.446, 122.160 263.901 C 121.532 264.289, 121.452 265.114, 121.962 265.939 C 122.651 267.054, 123.792 266.700, 127.798 264.129 C 132.496 261.115, 132.813 260.639, 133.405 255.717 C 133.750 252.848, 133.814 249.428, 133.548 248.117 C 133.281 246.806, 132.843 240.686, 132.573 234.516 C 132.154 224.921, 131.674 222.418, 129.252 217.210 C 126.290 210.839, 124.217 210.111, 123.788 215.289 C 123.666 216.762, 123.264 217.637, 122.894 217.233 C 122.053 216.318, 118.306 200.123, 117.469 193.788 C 116.893 189.430, 117.020 189.041, 119.173 188.593 C 123.441 187.707, 137.760 185.921, 138.636 186.166 C 139.111 186.299, 142.533 185.816, 146.239 185.092 C 149.946 184.369, 154.220 184.108, 155.739 184.512 L 158.500 185.247 155.750 186.207 C 153.810 186.884, 153 187.854, 153 189.500 C 153 190.783, 152.529 191.990, 151.954 192.182 C 151.378 192.374, 150.695 194.244, 150.435 196.339 C 150.006 199.795, 150.149 200.087, 151.981 199.506 C 153.146 199.136, 154 199.317, 154 199.933 C 154 202.025, 155.768 200.943, 158.385 197.250 C 159.847 195.188, 164.474 190.575, 168.668 187 C 172.863 183.425, 179.500 177.575, 183.417 174 C 187.334 170.425, 193.168 165.475, 196.381 163 C 199.594 160.525, 203.980 157.067, 206.127 155.316 C 211.149 151.221, 220.559 147.662, 224.358 148.422 L 227.233 148.997 226.525 142.390 C 225.213 130.136, 220.553 119.608, 213.607 113.205 C 209.277 109.214, 207.799 108.449, 205.500 109.005 C 202.005 109.851, 198.996 109.803, 198.433 108.892 C 198.058 108.285, 196.974 109.158, 195.889 110.942 C 192.809 116.006, 186.609 117.397, 180.700 114.349 C 177.960 112.936, 171.021 108.121, 167.416 105.131 C 165.769 103.764, 160 102.707, 160 103.771 C 160 104.283, 162.566 106.681, 165.703 109.101 C 168.839 111.520, 172.986 115.015, 174.919 116.866 L 178.432 120.232 176.136 122.091 C 170.200 126.897, 163.187 126.457, 150.215 120.464 C 143.971 117.579, 142.535 117.232, 141.610 118.387 C 140.407 119.890, 129.120 124, 126.196 124 C 125.208 124, 123.972 124.409, 123.450 124.909 C 122.927 125.409, 120.072 126.529, 117.105 127.398 C 111.828 128.944, 111.747 128.937, 113.420 127.089 C 114.527 125.866, 114.758 124.969, 114.076 124.547 C 113.366 124.108, 113.475 123.180, 114.413 121.698 C 115.178 120.489, 116.097 118.090, 116.455 116.367 C 117.292 112.347, 121.652 108.475, 126.331 107.598 C 128.349 107.219, 130.007 106.367, 130.015 105.705 C 130.026 104.877, 130.299 104.923, 130.888 105.853 C 131.561 106.915, 132.209 106.958, 133.901 106.053 C 135.086 105.419, 135.790 104.469, 135.465 103.943 C 135.139 103.416, 135.689 102.684, 136.687 102.316 C 137.684 101.947, 138.802 101.195, 139.170 100.643 C 139.539 100.092, 140.664 99.574, 141.670 99.494 C 142.677 99.413, 147.606 98.314, 152.625 97.052 C 160.528 95.066, 161.684 94.507, 161.258 92.879 C 160.988 91.846, 161.269 91, 161.883 91 C 162.498 91, 163 91.675, 163 92.500 C 163 93.325, 163.450 94, 164 94 C 164.550 94, 165 93.100, 165 92 C 165 90.444, 164.333 90, 162 90 C 159.983 90, 159 89.502, 159 88.481 C 159 87.360, 159.655 87.126, 161.500 87.589 C 164.064 88.233, 164.555 87.341, 164.170 82.749 C 164.044 81.246, 164.305 81.173, 166.012 82.239 C 168.280 83.656, 168.617 85, 166.704 85 C 165.369 85, 164.962 89.297, 166.181 90.515 C 166.556 90.889, 166.742 91.714, 166.595 92.348 C 166.448 92.981, 166.516 93.163, 166.747 92.752 C 166.977 92.340, 168.320 92.293, 169.732 92.648 C 171.547 93.103, 172.088 92.952, 171.580 92.130 C 171.185 91.490, 170.443 91.226, 169.931 91.543 C 169.419 91.859, 169 91.696, 169 91.180 C 169 89.830, 174.667 87.676, 176.020 88.512 C 176.653 88.903, 177.817 88.279, 178.637 87.108 C 179.449 85.949, 180.988 85, 182.057 85 C 183.126 85, 184 84.475, 184 83.833 C 184 83.192, 184.289 82.956, 184.643 83.309 C 185.631 84.298, 182.844 87.154, 181.423 86.609 C 180.124 86.110, 178.640 88.608, 179.453 89.924 C 179.893 90.635, 178.529 90.969, 174.750 91.075 C 173.787 91.102, 173 91.516, 173 91.995 C 173 93.317, 177.161 94.356, 177.875 93.212 C 178.219 92.661, 180.637 92.283, 183.250 92.372 C 185.902 92.463, 188.007 92.086, 188.015 91.517 C 188.024 90.958, 188.467 91.175, 189 92 C 189.836 93.294, 189.971 93.269, 189.985 91.817 C 189.993 90.892, 190.900 89.849, 192 89.500 C 193.100 89.151, 194 87.996, 194 86.933 C 194 85.870, 194.363 85, 194.807 85 C 195.251 85, 196.062 83.987, 196.609 82.750 C 197.157 81.513, 197.489 81.048, 197.346 81.718 C 197.204 82.388, 197.518 83.202, 198.044 83.527 C 199.476 84.412, 199.196 86, 197.607 86 C 195.650 86, 194.731 88.971, 196.157 90.690 C 197.147 91.882, 196.938 92.055, 194.925 91.709 C 193.591 91.479, 193.063 91.484, 193.750 91.719 C 194.438 91.954, 195 92.509, 195 92.951 C 195 93.394, 196.575 93.042, 198.500 92.170 C 200.425 91.297, 202 90.201, 202 89.733 C 202 89.265, 202.450 89.160, 203 89.500 C 203.550 89.840, 204 89.615, 204 89 C 204 88.385, 204.419 88.141, 204.931 88.457 C 205.443 88.774, 206.127 88.603, 206.452 88.078 C 206.776 87.553, 207.933 87.294, 209.021 87.504 C 210.264 87.743, 211 87.342, 211 86.424 C 211 84.724, 208.032 85.239, 201.279 88.110 C 198.958 89.096, 196.826 89.528, 196.543 89.069 C 196.044 88.262, 204.781 84, 206.935 84 C 208.281 84, 208.325 82.319, 207 81.500 C 206.450 81.160, 206 81.286, 206 81.780 C 206 82.275, 204.762 83.241, 203.250 83.929 C 201.738 84.616, 200.801 84.875, 201.168 84.504 C 202.131 83.533, 199.981 77.894, 198.903 78.560 C 198.406 78.867, 198 78.593, 198 77.952 C 198 77.311, 197.325 77.045, 196.500 77.362 C 195.593 77.709, 195 77.366, 195 76.493 C 195 75.366, 194.451 75.258, 192.500 76 C 190.860 76.624, 190 76.604, 190 75.944 C 190 74.169, 193.045 73.697, 195.814 75.043 C 197.291 75.761, 198.909 76.247, 199.408 76.122 C 199.908 75.997, 200.612 76.371, 200.972 76.954 C 201.370 77.598, 202.534 76.971, 203.936 75.358 L 206.245 72.703 203.873 73.432 C 198.556 75.067, 197.268 75.140, 196.769 73.840 C 196.404 72.889, 197.162 72.519, 199.377 72.566 C 201.095 72.603, 203.240 72.275, 204.145 71.837 C 205.194 71.330, 206.234 71.578, 207.017 72.521 C 208.731 74.586, 210 74.364, 210 72 C 210 70.900, 210.450 70, 211 70 C 212.334 70, 212.282 72.708, 210.932 73.542 C 210.344 73.905, 210.105 74.832, 210.400 75.601 C 211.042 77.274, 209.840 77.440, 208.293 75.893 C 207.483 75.083, 206.901 75.316, 206.128 76.761 C 204.886 79.082, 205.541 80.006, 208.417 79.985 C 210.128 79.972, 210.232 79.796, 209 79 C 207.784 78.214, 207.919 78.028, 209.719 78.015 C 211.283 78.005, 211.767 78.442, 211.362 79.500 C 211.045 80.325, 210.384 81, 209.893 81 C 209.402 81, 209 81.439, 209 81.975 C 209 82.593, 209.885 82.614, 211.415 82.032 C 213.281 81.323, 213.968 81.475, 214.438 82.700 C 214.773 83.573, 215.313 84.021, 215.638 83.696 C 215.962 83.371, 215.277 81.896, 214.114 80.418 C 211.253 76.781, 211.425 76.334, 215.500 76.810 C 217.425 77.035, 219 77.620, 219 78.109 C 219 78.599, 219.436 79, 219.969 79 C 220.501 79, 220.678 78.325, 220.362 77.500 C 220.045 76.675, 218.944 76, 217.914 76 C 216.309 76, 216.196 75.663, 217.121 73.634 C 218.051 71.592, 218.798 71.309, 222.584 71.562 L 226.969 71.855 226.518 68.333 C 226.130 65.302, 226.275 64.983, 227.557 66.047 C 228.808 67.085, 228.932 66.980, 228.336 65.391 C 227.708 63.721, 227.822 63.660, 229.313 64.872 C 230.467 65.811, 231 65.879, 231 65.087 C 231 64.236, 231.534 64.215, 233.021 65.011 C 235.510 66.343, 237 65.533, 237 62.847 C 237 61.684, 237.820 60.598, 238.915 60.312 C 239.969 60.036, 241.102 58.729, 241.434 57.406 C 241.766 56.082, 242.495 55, 243.054 55 C 243.736 55, 243.730 55.637, 243.035 56.934 C 241.650 59.523, 241.666 59.558, 244.250 59.685 C 245.488 59.746, 245.941 59.581, 245.258 59.317 C 244.354 58.969, 244.296 58.316, 245.043 56.919 C 246.681 53.858, 247.751 54.687, 247.406 58.750 C 247.175 61.469, 247.316 61.950, 247.919 60.500 C 248.376 59.400, 248.574 58.194, 248.359 57.819 C 248.143 57.445, 248.494 56.813, 249.138 56.415 C 249.824 55.991, 250.042 56.122, 249.666 56.732 C 249.312 57.305, 249.648 58.293, 250.414 58.928 C 251.477 59.810, 251.948 59.778, 252.409 58.792 C 252.741 58.081, 252.794 58.665, 252.527 60.089 C 252.102 62.364, 252.495 62.813, 255.771 63.795 C 258.946 64.747, 259.235 64.714, 257.721 63.575 C 256.122 62.373, 256.105 62.174, 257.552 61.618 C 259.770 60.767, 259.795 60.778, 260.311 62.750 C 260.637 63.999, 260.801 63.820, 260.884 62.125 C 260.989 59.983, 260.682 59.805, 257.750 60.307 C 255.963 60.614, 255.063 60.633, 255.750 60.349 C 256.437 60.065, 257 59.394, 257 58.858 C 257 58.321, 256.574 58.146, 256.052 58.468 C 255.526 58.793, 255.290 58.091, 255.521 56.891 C 256.084 53.966, 256.808 53.408, 258.217 54.817 C 259.128 55.728, 258.995 56, 257.641 56 C 256.648 56, 256.170 56.465, 256.542 57.068 C 256.905 57.656, 257.855 57.886, 258.653 57.580 C 259.463 57.269, 259.834 57.459, 259.493 58.011 C 259.157 58.555, 259.407 59, 260.049 59 C 260.816 59, 260.986 58.081, 260.546 56.325 C 259.988 54.103, 260.112 53.848, 261.279 54.817 C 262.052 55.458, 262.970 55.697, 263.318 55.348 C 263.667 54.999, 264.236 55.451, 264.581 56.351 C 264.927 57.252, 265.565 57.769, 266 57.500 C 267.068 56.840, 268.174 59.910, 267.349 61.245 C 266.961 61.872, 267.165 62.016, 267.845 61.595 C 268.480 61.203, 269 61.373, 269 61.972 C 269 62.572, 268.325 63.322, 267.500 63.638 C 266.675 63.955, 266 64.706, 266 65.307 C 266 66.081, 266.328 66.072, 267.122 65.278 C 267.739 64.661, 268.842 64.386, 269.572 64.666 C 270.502 65.023, 270.840 64.357, 270.700 62.447 C 270.590 60.946, 271.038 59.527, 271.696 59.294 C 272.492 59.011, 272.736 59.726, 272.426 61.435 C 271.892 64.378, 272.666 64.605, 275.500 62.334 C 277.069 61.076, 277.130 60.858, 275.782 61.322 C 274.837 61.647, 273.798 61.482, 273.473 60.956 C 273.148 60.430, 273.273 60, 273.750 60 C 274.227 60, 275.491 59.292, 276.559 58.426 C 277.626 57.560, 277.938 57.137, 277.250 57.485 C 276.529 57.850, 276 57.494, 276 56.642 C 276 55.831, 275.663 54.978, 275.250 54.747 C 274.837 54.517, 275.175 54.513, 276 54.740 C 276.825 54.966, 279.292 55.372, 281.482 55.642 C 286.174 56.219, 286.974 56.770, 284.971 58.044 C 283.878 58.740, 284.206 58.927, 286.250 58.772 C 287.762 58.657, 289 58.212, 289 57.782 C 289 57.352, 289.623 57, 290.383 57 C 291.144 57, 291.979 55.889, 292.239 54.530 C 292.499 53.172, 292.326 52.298, 291.856 52.589 C 291.385 52.880, 291 53.766, 291 54.559 C 291 56.295, 286.444 56.528, 285.405 54.845 C 284.962 54.130, 285.130 53.962, 285.845 54.405 C 286.480 54.797, 287 54.751, 287 54.303 C 287 53.121, 292.778 50.744, 293.926 51.455 C 294.462 51.785, 295.388 51.143, 295.985 50.028 C 296.582 48.913, 297.560 48, 298.158 48 C 298.863 48, 298.801 48.535, 297.980 49.524 C 297.284 50.362, 297.004 51.337, 297.357 51.691 C 297.711 52.044, 298 51.864, 298 51.291 C 298 50.691, 299.807 50.355, 302.250 50.499 C 304.587 50.637, 305.919 50.537, 305.208 50.278 C 304.242 49.924, 304.199 49.466, 305.036 48.457 C 305.844 47.483, 306.836 47.367, 308.607 48.041 C 311.278 49.056, 316 48.966, 316 47.899 C 316 47.533, 316.871 47.006, 317.935 46.727 C 319.333 46.362, 319.717 45.635, 319.319 44.111 C 318.728 41.853, 319.336 41.640, 322.500 43 C 323.893 43.599, 324.045 43.902, 323 44 C 321.978 44.096, 322.137 44.390, 323.500 44.925 C 325.706 45.790, 330.368 43.405, 329.432 41.891 C 329.130 41.401, 329.857 41, 331.049 41 C 332.862 41, 333.114 41.409, 332.589 43.500 C 332.228 44.942, 332.393 46, 332.981 46 C 333.541 46, 334 45.460, 334 44.800 C 334 43.867, 334.267 43.867, 335.200 44.800 C 335.860 45.460, 337.097 45.993, 337.950 45.985 C 339.316 45.971, 339.322 45.854, 338 45 C 336.718 44.172, 336.754 44.028, 338.250 44.015 C 340.395 43.997, 340.528 41.671, 338.500 39.643 C 336.626 37.769, 336.617 37.333, 338.456 37.333 C 339.257 37.333, 339.680 37.708, 339.397 38.167 C 339.114 38.625, 339.385 39, 340 39 C 340.615 39, 340.840 39.450, 340.500 40 C 340.160 40.550, 340.347 41, 340.916 41 C 341.533 41, 341.707 42.217, 341.346 44.018 C 340.834 46.579, 341.002 46.936, 342.455 46.379 C 343.815 45.857, 343.893 45.547, 342.834 44.876 C 341.729 44.175, 341.732 44.028, 342.857 44.015 C 343.670 44.006, 343.975 43.378, 343.618 42.448 C 343.277 41.558, 343.445 41.157, 344.011 41.507 C 344.555 41.843, 345 41.416, 345 40.559 C 345 39.702, 345.436 39, 345.969 39 C 346.501 39, 346.678 39.675, 346.362 40.500 C 346.045 41.325, 346.284 42, 346.893 42 C 347.502 42, 348 41.523, 348 40.941 C 348 40.359, 348.386 40.121, 348.858 40.412 C 350.201 41.242, 350.038 26.757, 348.686 25.084 C 347.759 23.936, 347.772 23.780, 348.750 24.367 C 349.723 24.952, 350 22.343, 350 12.573 L 350 0.028 210 0.011 L 70 -0.007 70 12.913 M 265.500 2 L 262.500 2.763 265.500 2.782 C 267.150 2.792, 269.625 2.440, 271 2 L 273.500 1.199 271 1.218 C 269.625 1.228, 267.150 1.580, 265.500 2 M 245.750 3.735 C 243.137 3.941, 241 4.550, 241 5.089 C 241 5.628, 242.238 5.865, 243.750 5.616 C 245.262 5.368, 247.738 5.127, 249.250 5.082 C 250.762 5.037, 252 4.550, 252 4 C 252 3.450, 251.662 3.081, 251.250 3.180 C 250.838 3.279, 248.363 3.529, 245.750 3.735 M 256.813 3.683 C 257.534 3.972, 258.397 3.936, 258.729 3.604 C 259.061 3.272, 258.471 3.036, 257.417 3.079 C 256.252 3.127, 256.015 3.364, 256.813 3.683 M 225 7 C 225 7.550, 225.675 8, 226.500 8 C 227.325 8, 228 7.550, 228 7 C 228 6.450, 227.325 6, 226.500 6 C 225.675 6, 225 6.450, 225 7 M 216 8 C 216 9.145, 217.425 9.145, 221 8 C 223.231 7.285, 223.097 7.189, 219.750 7.100 C 217.688 7.045, 216 7.450, 216 8 M 197 10 C 197 10.550, 197.900 11, 199 11 C 200.100 11, 201 10.550, 201 10 C 201 9.450, 200.100 9, 199 9 C 197.900 9, 197 9.450, 197 10 M 187.750 10.689 C 186.787 10.941, 186 11.506, 186 11.944 C 186 12.744, 194.897 11.436, 195.834 10.499 C 196.435 9.898, 190.217 10.045, 187.750 10.689 M 297 12.107 C 297 12.716, 297.646 12.966, 298.435 12.663 C 299.225 12.360, 300.012 12.466, 300.185 12.899 C 300.358 13.331, 301.850 13.101, 303.500 12.387 L 306.500 11.090 301.750 11.045 C 298.917 11.018, 297 11.447, 297 12.107 M 179.813 12.683 C 180.534 12.972, 181.397 12.936, 181.729 12.604 C 182.061 12.272, 181.471 12.036, 180.417 12.079 C 179.252 12.127, 179.015 12.364, 179.813 12.683 M 158.750 14.253 C 155.037 14.792, 152 15.689, 152 16.245 C 152 16.879, 153.584 16.991, 156.250 16.544 C 158.588 16.153, 162.300 15.614, 164.500 15.346 C 166.700 15.078, 170.075 14.485, 172 14.030 C 175.335 13.240, 175.265 13.203, 170.500 13.236 C 167.750 13.256, 162.463 13.713, 158.750 14.253 M 265.250 14.696 C 262.143 15.308, 262.346 18, 265.500 18 C 266.875 18, 268 17.550, 268 17 C 268 16.450, 268.337 16.113, 268.750 16.250 C 269.163 16.387, 269.636 16.050, 269.803 15.500 C 270.151 14.351, 268.489 14.058, 265.250 14.696 M 126 19 C 124.862 19.736, 125.284 19.973, 127.750 19.985 C 129.537 19.993, 131 19.550, 131 19 C 131 17.730, 127.965 17.730, 126 19 M 120.750 19.662 C 121.438 19.940, 122.563 19.940, 123.250 19.662 C 123.938 19.385, 123.375 19.158, 122 19.158 C 120.625 19.158, 120.063 19.385, 120.750 19.662 M 232.324 19.718 C 230.578 19.937, 228.610 20.765, 227.952 21.558 C 227.294 22.351, 226.109 23, 225.319 23 C 224.528 23, 224.124 23.391, 224.419 23.870 C 224.968 24.758, 232.583 23.750, 233.691 22.643 C 234.027 22.306, 234.895 22.812, 235.619 23.766 C 236.868 25.410, 236.938 25.409, 236.968 23.750 C 236.992 22.452, 237.840 21.996, 240.250 21.985 C 242.707 21.973, 243.134 21.735, 242 21.008 C 241.175 20.478, 239.713 20.291, 238.750 20.590 C 237.787 20.890, 237 20.654, 237 20.067 C 237 19.480, 236.662 19.072, 236.250 19.160 C 235.838 19.248, 234.071 19.499, 232.324 19.718 M 111.250 20.662 C 110.563 20.940, 110 21.531, 110 21.977 C 110 22.749, 117.956 21.378, 118.888 20.445 C 119.493 19.841, 112.816 20.031, 111.250 20.662 M 79.500 24.890 C 77.408 25.345, 76.895 25.791, 77.807 26.365 C 79.400 27.369, 84 26.341, 84 24.981 C 84 23.920, 83.957 23.920, 79.500 24.890 M 304 25.080 C 304 25.815, 306.151 25.935, 310.750 25.456 C 319.750 24.519, 319.899 24, 311.167 24 C 306.703 24, 304 24.407, 304 25.080 M 323.250 24.689 C 324.212 24.941, 325.788 24.941, 326.750 24.689 C 327.712 24.438, 326.925 24.232, 325 24.232 C 323.075 24.232, 322.288 24.438, 323.250 24.689 M 331.500 25 C 331.840 25.550, 335.016 26, 338.559 26 C 342.186 26, 345 25.563, 345 25 C 345 24.428, 341.980 24, 337.941 24 C 333.490 24, 331.110 24.369, 331.500 25 M 298.813 25.683 C 299.534 25.972, 300.397 25.936, 300.729 25.604 C 301.061 25.272, 300.471 25.036, 299.417 25.079 C 298.252 25.127, 298.015 25.364, 298.813 25.683 M 284.750 26.716 C 283.238 26.945, 282 27.573, 282 28.112 C 282 29.181, 288.494 28.308, 291 26.902 C 292.618 25.995, 290.024 25.917, 284.750 26.716 M 185.027 29.022 C 183.117 29.471, 181.392 30.325, 181.194 30.919 C 180.995 31.514, 180.019 32, 179.024 32 C 177.241 32, 176 33.857, 176 36.525 C 176 37.478, 177.124 37.808, 179.750 37.624 C 182.602 37.424, 183.465 36.948, 183.354 35.635 C 183.070 32.288, 189.129 30.077, 192.616 32.255 C 193.230 32.639, 194.484 32.123, 195.402 31.109 C 196.986 29.358, 196.910 29.232, 193.910 28.632 C 190.251 27.900, 189.690 27.925, 185.027 29.022 M 197.766 30.977 L 194.500 33.953 197.195 33.763 C 199.151 33.625, 200.061 32.892, 200.514 31.089 C 201.008 29.119, 201.327 28.904, 202.053 30.052 C 202.811 31.250, 202.972 31.198, 202.985 29.750 C 203.007 27.228, 201.487 27.585, 197.766 30.977 M 265 30.721 C 263.625 30.968, 262.050 31.640, 261.500 32.214 C 260.181 33.592, 270.023 32.377, 271.410 30.990 C 272.440 29.960, 269.849 29.851, 265 30.721 M 303.500 32 C 303.138 32.585, 304.176 33, 306 33 C 307.824 33, 308.862 32.585, 308.500 32 C 308.160 31.450, 307.035 31, 306 31 C 304.965 31, 303.840 31.450, 303.500 32 M 331.500 32 C 331.139 32.583, 332.156 33, 333.941 33 C 335.623 33, 337 32.550, 337 32 C 337 31.450, 335.902 31, 334.559 31 C 333.216 31, 331.840 31.450, 331.500 32 M 203.813 32.683 C 204.534 32.972, 205.397 32.936, 205.729 32.604 C 206.061 32.272, 205.471 32.036, 204.417 32.079 C 203.252 32.127, 203.015 32.364, 203.813 32.683 M 173.079 35.583 C 173.127 36.748, 173.364 36.985, 173.683 36.188 C 173.972 35.466, 173.936 34.603, 173.604 34.271 C 173.272 33.939, 173.036 34.529, 173.079 35.583 M 245.500 34.986 C 243.850 35.430, 241.197 36.089, 239.605 36.452 C 237.973 36.823, 237.101 37.479, 237.605 37.956 C 238.992 39.265, 250.760 36.748, 250.255 35.250 C 249.785 33.858, 249.716 33.854, 245.500 34.986 M 125.500 38.675 C 124.400 38.918, 122.825 39.383, 122 39.707 C 121.175 40.032, 119.489 40.199, 118.254 40.078 C 116.580 39.914, 116.162 40.258, 116.611 41.429 C 117.005 42.455, 116.657 43, 115.607 43 C 114.723 43, 114 43.409, 114 43.909 C 114 44.409, 116.427 44.746, 119.394 44.659 C 122.360 44.571, 124.582 44.159, 124.330 43.743 C 123.673 42.654, 125.910 41.984, 131.558 41.579 C 134.276 41.384, 137.063 41.174, 137.750 41.112 C 138.438 41.051, 139 40.491, 139 39.869 C 139 39.135, 137.771 38.938, 135.500 39.306 C 133.575 39.619, 132 39.453, 132 38.937 C 132 37.986, 129.135 37.870, 125.500 38.675 M 230.500 38.896 C 228.244 39.391, 227.910 39.717, 229.153 40.209 C 230.062 40.568, 231.637 40.233, 232.653 39.463 C 233.669 38.693, 234.275 38.103, 234 38.150 C 233.725 38.198, 232.150 38.533, 230.500 38.896 M 316 39.059 C 316 39.641, 316.450 39.840, 317 39.500 C 317.550 39.160, 318 38.684, 318 38.441 C 318 38.198, 317.550 38, 317 38 C 316.450 38, 316 38.477, 316 39.059 M 326.731 40.080 C 327.085 41.432, 327.538 41.886, 327.788 41.137 C 328.028 40.415, 327.750 39.350, 327.168 38.768 C 326.426 38.026, 326.296 38.417, 326.731 40.080 M 146.761 41.530 C 147.021 42.889, 147.589 44, 148.023 44 C 148.950 44, 148.099 40.179, 147.024 39.515 C 146.620 39.265, 146.501 40.172, 146.761 41.530 M 216.665 41.507 C 211.536 42.917, 210.295 43.628, 211.268 44.601 C 212.259 45.593, 224.303 42.600, 224.752 41.250 C 225.266 39.700, 222.977 39.773, 216.665 41.507 M 268.507 40.989 C 268.157 41.555, 268.558 41.723, 269.448 41.382 C 271.180 40.717, 271.497 40, 270.059 40 C 269.541 40, 268.843 40.445, 268.507 40.989 M 334 41.383 C 334 41.594, 335.111 41.979, 336.470 42.239 C 337.828 42.499, 338.702 42.326, 338.411 41.856 C 337.899 41.027, 334 40.610, 334 41.383 M 349.079 42.719 C 349.034 43.409, 348.241 43.701, 347.250 43.393 C 345.693 42.909, 345.701 42.977, 347.325 44.016 C 349.383 45.332, 350.469 44.777, 349.683 42.813 C 349.311 41.884, 349.135 41.856, 349.079 42.719 M 244.029 43.961 C 243.220 44.473, 242.848 45.182, 243.204 45.537 C 244.167 46.501, 248.121 45.005, 247.456 43.928 C 246.738 42.768, 245.903 42.776, 244.029 43.961 M 255 43.932 C 255 44.382, 256.144 44.750, 257.542 44.750 C 260.464 44.750, 260.258 44.127, 257.135 43.526 C 255.961 43.300, 255 43.483, 255 43.932 M 262.768 44.168 C 263.350 44.750, 264.415 45.028, 265.137 44.788 C 265.886 44.538, 265.432 44.085, 264.080 43.731 C 262.417 43.296, 262.026 43.426, 262.768 44.168 M 280.664 44.832 C 280.849 45.564, 281 46.577, 281 47.082 C 281 47.587, 281.675 48, 282.500 48 C 283.359 48, 284 47.099, 284 45.893 C 284 44.473, 283.532 43.966, 282.565 44.337 C 281.775 44.640, 280.949 44.575, 280.729 44.194 C 280.508 43.812, 280.479 44.099, 280.664 44.832 M 308.710 45 C 308.998 46.100, 309.406 47, 309.617 47 C 309.827 47, 310 46.100, 310 45 C 310 43.900, 309.592 43, 309.094 43 C 308.595 43, 308.423 43.900, 308.710 45 M 313 44.083 C 313 45.342, 316.865 45.794, 317.327 44.589 C 317.602 43.874, 316.830 43.400, 315.392 43.400 C 314.076 43.400, 313 43.708, 313 44.083 M 110.013 45.029 C 111.841 46.185, 113 46.256, 113 45.213 C 113 44.780, 111.993 44.350, 110.763 44.257 C 109.004 44.125, 108.844 44.290, 110.013 45.029 M 142.813 44.683 C 143.534 44.972, 144.397 44.936, 144.729 44.604 C 145.061 44.272, 144.471 44.036, 143.417 44.079 C 142.252 44.127, 142.015 44.364, 142.813 44.683 M 167 44.393 C 167 44.609, 167.698 45.054, 168.552 45.382 C 169.442 45.723, 169.843 45.555, 169.493 44.989 C 168.906 44.038, 167 43.583, 167 44.393 M 251.667 44.667 C 250.452 45.881, 250.976 46.947, 252.500 46.362 C 253.325 46.045, 254 45.384, 254 44.893 C 254 43.845, 252.622 43.711, 251.667 44.667 M 304.500 45 C 304.160 45.550, 304.332 46, 304.882 46 C 305.432 46, 306.160 45.550, 306.500 45 C 306.840 44.450, 306.668 44, 306.118 44 C 305.568 44, 304.840 44.450, 304.500 45 M 329.459 45.067 C 329.096 45.653, 329.014 46.348, 329.276 46.610 C 329.538 46.872, 330.019 46.392, 330.345 45.543 C 331.021 43.781, 330.445 43.471, 329.459 45.067 M 200.750 45.689 C 199.787 45.941, 199 46.532, 199 47.004 C 199 47.837, 204.739 46.594, 205.802 45.531 C 206.414 44.919, 203.327 45.016, 200.750 45.689 M 297.733 46.124 C 298.412 46.808, 299.219 47.115, 299.526 46.807 C 299.834 46.499, 299.279 45.940, 298.293 45.564 C 296.868 45.022, 296.753 45.136, 297.733 46.124 M 346 46.559 C 346 47.416, 345.601 47.872, 345.114 47.570 C 344.626 47.269, 343.980 47.969, 343.677 49.126 C 343.141 51.178, 343.186 51.174, 345.564 48.940 C 348.122 46.537, 348.682 45, 347 45 C 346.450 45, 346 45.702, 346 46.559 M 276.564 47.293 C 276.940 48.279, 277.499 48.834, 277.807 48.526 C 278.115 48.219, 277.808 47.412, 277.124 46.733 C 276.136 45.753, 276.022 45.868, 276.564 47.293 M 285.701 47.664 C 286.131 48.783, 285.957 49.091, 285.170 48.605 C 284.526 48.207, 284 48.385, 284 49 C 284 49.615, 283.634 49.892, 283.188 49.616 C 282.741 49.340, 281.053 49.985, 279.438 51.050 C 277.459 52.354, 277.044 52.989, 278.167 52.993 C 279.083 52.997, 280.022 53.337, 280.253 53.750 C 280.483 54.163, 280.521 53.900, 280.335 53.166 C 280.150 52.433, 280.561 52.039, 281.249 52.291 C 281.937 52.544, 282.387 53.256, 282.250 53.875 C 282.113 54.494, 282.498 55, 283.107 55 C 283.722 55, 283.934 54.271, 283.585 53.360 C 283.189 52.329, 283.707 51.193, 284.978 50.303 C 287.058 48.846, 287.755 46, 286.031 46 C 285.499 46, 285.350 46.749, 285.701 47.664 M 241.048 47.949 C 240.249 48.455, 239.284 48.676, 238.904 48.441 C 238.059 47.919, 230.607 50.940, 231.222 51.555 C 231.895 52.229, 241.834 49.077, 242.516 47.974 C 243.259 46.771, 242.919 46.766, 241.048 47.949 M 294 48 C 294 48.550, 292.720 49, 291.155 49 C 289.513 49, 287.504 49.902, 286.405 51.133 C 284.509 53.256, 284.511 53.262, 287 52.521 C 288.375 52.111, 289.928 51.376, 290.450 50.888 C 290.972 50.399, 292.162 50, 293.093 50 C 294.024 50, 295.045 49.325, 295.362 48.500 C 295.678 47.675, 295.501 47, 294.969 47 C 294.436 47, 294 47.450, 294 48 M 332.750 47.662 C 333.438 47.940, 334.563 47.940, 335.250 47.662 C 335.938 47.385, 335.375 47.158, 334 47.158 C 332.625 47.158, 332.063 47.385, 332.750 47.662 M 187.931 48.936 C 188.988 49.605, 188.388 50.024, 185.634 50.541 C 183.584 50.925, 181.628 50.961, 181.287 50.620 C 180.946 50.279, 181.979 49.964, 183.583 49.921 C 185.188 49.878, 185.918 49.609, 185.207 49.323 C 184.496 49.038, 182.790 49.087, 181.415 49.432 C 179.133 50.005, 179.054 50.197, 180.504 51.647 C 181.874 53.017, 182.701 53.064, 186.546 51.987 C 191.198 50.685, 192.092 49.633, 189.418 48.607 C 187.096 47.716, 186.286 47.895, 187.931 48.936 M 252 50.059 C 252 51.191, 252.430 51.852, 252.956 51.527 C 253.482 51.202, 253.659 50.275, 253.349 49.468 C 252.556 47.401, 252 47.644, 252 50.059 M 255.543 48.931 C 255.226 49.443, 255.350 50.098, 255.817 50.387 C 256.284 50.676, 256.667 50.257, 256.667 49.456 C 256.667 47.770, 256.351 47.623, 255.543 48.931 M 259 49.274 C 259 50.159, 259.410 51.136, 259.912 51.446 C 260.414 51.756, 260.727 51.345, 260.608 50.534 C 260.294 48.392, 259 47.379, 259 49.274 M 270.500 49 C 270.840 49.550, 271.316 50, 271.559 50 C 271.802 50, 272 49.550, 272 49 C 272 48.450, 271.523 48, 270.941 48 C 270.359 48, 270.160 48.450, 270.500 49 M 272.655 50.457 C 272.329 51.306, 271.374 52, 270.531 52 C 269.689 52, 269 52.466, 269 53.035 C 269 53.747, 269.608 53.745, 270.944 53.030 C 273.113 51.869, 274.451 50.117, 273.724 49.390 C 273.462 49.128, 272.981 49.608, 272.655 50.457 M 308.079 50.583 C 308.127 51.748, 308.364 51.985, 308.683 51.188 C 308.972 50.466, 308.936 49.603, 308.604 49.271 C 308.272 48.939, 308.036 49.529, 308.079 50.583 M 224.429 52 C 224.429 53.034, 224.965 53.567, 225.714 53.279 C 226.421 53.008, 227 52.432, 227 52 C 227 51.568, 226.421 50.992, 225.714 50.721 C 224.965 50.433, 224.429 50.966, 224.429 52 M 264 51.059 C 264 51.641, 263.550 51.840, 263 51.500 C 262.450 51.160, 262 51.310, 262 51.834 C 262 53.718, 264.592 53.771, 264.733 51.890 C 264.812 50.851, 264.679 50, 264.438 50 C 264.197 50, 264 50.477, 264 51.059 M 275.459 51.067 C 275.096 51.653, 275.014 52.348, 275.276 52.610 C 275.538 52.872, 276.019 52.392, 276.345 51.543 C 277.021 49.781, 276.445 49.471, 275.459 51.067 M 249.048 51.949 C 248.249 52.455, 247.268 52.665, 246.867 52.418 C 246.466 52.170, 245.813 52.494, 245.415 53.138 C 244.979 53.843, 245.123 54.042, 245.776 53.638 C 246.373 53.269, 247.144 53.425, 247.490 53.984 C 248.490 55.601, 249.723 55.168, 250.290 53 C 250.577 51.900, 250.742 51.007, 250.656 51.015 C 250.570 51.024, 249.846 51.444, 249.048 51.949 M 105.813 52.683 C 106.534 52.972, 107.397 52.936, 107.729 52.604 C 108.061 52.272, 107.471 52.036, 106.417 52.079 C 105.252 52.127, 105.015 52.364, 105.813 52.683 M 220.223 54.428 C 220.334 55.763, 220.737 56.663, 221.118 56.427 C 221.793 56.010, 221.138 52, 220.395 52 C 220.190 52, 220.113 53.093, 220.223 54.428 M 255 52.383 C 255 52.594, 255.900 53.002, 257 53.290 C 258.100 53.577, 259 53.405, 259 52.906 C 259 52.408, 258.100 52, 257 52 C 255.900 52, 255 52.173, 255 52.383 M 299.750 52.689 C 298.788 52.941, 298 53.522, 298 53.980 C 298 55.009, 301.827 54.088, 302.575 52.879 C 303.142 51.961, 302.661 51.929, 299.750 52.689 M 166.500 54.606 L 163.500 56.049 167 55.419 C 168.925 55.073, 170.928 54.387, 171.450 53.895 C 172.903 52.526, 169.936 52.953, 166.500 54.606 M 217 55 C 216.099 55.582, 215.975 55.975, 216.691 55.985 C 217.346 55.993, 218.160 55.550, 218.500 55 C 219.267 53.758, 218.921 53.758, 217 55 M 226.872 55.336 C 228.036 56.746, 228.036 57.018, 226.872 57.118 C 226.118 57.184, 225.162 57.184, 224.750 57.118 C 224.338 57.053, 224 57.470, 224 58.044 C 224 58.618, 224.563 58.997, 225.250 58.886 C 225.938 58.775, 227.307 59.036, 228.293 59.466 C 229.279 59.896, 230.367 59.966, 230.710 59.624 C 231.053 59.281, 230.583 59, 229.667 59 C 227.725 59, 227.420 57.360, 229.247 56.751 C 229.987 56.504, 229.478 55.793, 227.997 55.004 C 225.710 53.784, 225.615 53.812, 226.872 55.336 M 238.038 55.545 C 238.692 56.333, 239.626 56.731, 240.113 56.430 C 241.653 55.478, 241.077 54.431, 238.924 54.269 C 237.231 54.142, 237.068 54.376, 238.038 55.545 M 293.601 55.164 C 293.856 55.576, 294.725 55.659, 295.532 55.349 C 297.568 54.568, 297.366 54.097, 295.069 54.270 C 294.007 54.350, 293.347 54.752, 293.601 55.164 M 147.250 58.299 C 142.181 59.579, 139 60.887, 139 61.691 C 139 63.383, 139.223 63.365, 147.757 61 C 151.727 59.900, 155.880 59, 156.987 59 C 158.110 59, 159 58.336, 159 57.500 C 159 55.612, 157.475 55.716, 147.250 58.299 M 233.885 56.550 C 233.821 57.072, 233.665 57.950, 233.537 58.500 C 233.409 59.050, 233.236 60.093, 233.152 60.817 C 233.055 61.662, 232.283 61.907, 231 61.500 C 229.853 61.136, 229 61.320, 229 61.933 C 229 62.520, 230.136 63, 231.525 63 C 234.422 63, 236.904 58.504, 235.037 56.637 C 234.430 56.030, 233.952 55.994, 233.885 56.550 M 262.681 57.388 C 262.376 58.183, 262.773 59.083, 263.563 59.386 C 264.353 59.689, 265 60.456, 265 61.091 C 265 61.875, 264.467 61.805, 263.337 60.872 C 261.912 59.696, 261.745 59.714, 262.170 61 C 262.443 61.825, 263.416 62.645, 264.333 62.823 C 266.376 63.220, 266.522 60.272, 264.586 57.721 C 263.471 56.251, 263.140 56.193, 262.681 57.388 M 209.500 58 C 209.840 58.550, 210.316 59, 210.559 59 C 210.802 59, 211 58.550, 211 58 C 211 57.450, 210.523 57, 209.941 57 C 209.359 57, 209.160 57.450, 209.500 58 M 216.252 58.642 C 217.216 59.753, 217.666 61.035, 217.252 61.490 C 216.838 61.946, 217.287 62.036, 218.250 61.691 C 219.435 61.266, 220 61.564, 220 62.615 C 220 63.468, 220.563 63.979, 221.250 63.750 C 222.738 63.254, 222.930 61.047, 221.500 60.890 C 220.950 60.830, 219.150 59.845, 217.500 58.701 C 214.581 56.678, 214.547 56.676, 216.252 58.642 M 273.500 58 C 273.840 58.550, 274.316 59, 274.559 59 C 274.802 59, 275 58.550, 275 58 C 275 57.450, 274.523 57, 273.941 57 C 273.359 57, 273.160 57.450, 273.500 58 M 268.500 59 C 268.840 59.550, 269.316 60, 269.559 60 C 269.802 60, 270 59.550, 270 59 C 270 58.450, 269.523 58, 268.941 58 C 268.359 58, 268.160 58.450, 268.500 59 M 280 59.090 C 280 59.656, 279.550 59.840, 279 59.500 C 278.450 59.160, 278 59.359, 278 59.941 C 278 61.206, 279.978 61.301, 281.834 60.124 C 282.908 59.443, 282.859 59.160, 281.584 58.671 C 280.713 58.336, 280 58.525, 280 59.090 M 207.500 61 C 206.847 62.057, 207.491 62.326, 210.083 62.081 C 211.859 61.913, 212.189 65.994, 210.500 67.235 C 209.862 67.703, 209.913 67.975, 210.639 67.985 C 212.694 68.012, 216.435 64.387, 215.162 63.600 C 214.523 63.205, 214 63.385, 214 64 C 214 64.615, 213.543 64.835, 212.984 64.490 C 212.425 64.144, 212.212 63.465, 212.512 62.981 C 212.811 62.497, 212.173 61.628, 211.094 61.050 C 208.666 59.751, 208.275 59.745, 207.500 61 M 188 63.191 C 188 65.274, 188.066 65.291, 189.348 63.538 C 190.197 62.377, 191.180 61.993, 192.003 62.502 C 192.866 63.035, 193.067 62.918, 192.595 62.155 C 191.301 60.060, 188 60.805, 188 63.191 M 223.683 62.384 C 222.819 64.635, 224.402 65.182, 226.603 63.394 C 227.646 62.546, 227.887 62.168, 227.138 62.554 C 226.389 62.940, 225.439 62.711, 225.027 62.044 C 224.475 61.151, 224.122 61.240, 223.683 62.384 M 238 61.878 C 238 62.925, 243.809 63.119, 244.442 62.093 C 244.705 61.668, 243.363 61.263, 241.460 61.191 C 239.557 61.119, 238 61.429, 238 61.878 M 196 63.059 C 196 63.641, 196.450 63.840, 197 63.500 C 197.550 63.160, 198 62.684, 198 62.441 C 198 62.198, 197.550 62, 197 62 C 196.450 62, 196 62.477, 196 63.059 M 249.551 63.272 C 250.399 65.482, 253.532 66.921, 255.089 65.814 C 256.211 65.017, 256.145 64.925, 254.765 65.368 C 253.667 65.721, 252.645 65.205, 251.980 63.963 C 250.829 61.812, 248.765 61.225, 249.551 63.272 M 129.250 64.031 C 125.901 65.377, 126.527 66.061, 130 64.850 C 131.650 64.275, 133 63.623, 133 63.402 C 133 62.809, 131.783 63.013, 129.250 64.031 M 242.678 63.788 C 240.916 64.162, 240.916 64.218, 242.677 65.505 C 243.678 66.237, 244.136 67.198, 243.694 67.639 C 243.253 68.081, 242.509 67.824, 242.042 67.068 C 241.457 66.121, 241.240 66.519, 241.346 68.346 C 241.451 70.147, 242.062 70.999, 243.250 70.999 C 244.817 71, 245.189 70.410, 244.915 68.362 C 244.868 68.011, 245.430 67.343, 246.165 66.877 C 247.160 66.246, 247.005 66.027, 245.559 66.015 C 243.696 66.001, 243.691 65.946, 245.441 64.667 C 247.323 63.291, 246.403 62.998, 242.678 63.788 M 204 64.383 C 204 64.594, 204.900 65.002, 206 65.290 C 207.100 65.577, 208 65.405, 208 64.906 C 208 64.408, 207.100 64, 206 64 C 204.900 64, 204 64.173, 204 64.383 M 220 66.500 C 220.785 67.446, 220.852 68, 220.181 68 C 219.597 68, 218.840 67.550, 218.500 67 C 218.160 66.450, 217.373 66, 216.750 66 C 216.127 66, 216.491 66.712, 217.559 67.582 C 219.595 69.241, 219.462 69.246, 215 67.676 C 214.725 67.579, 214.387 67.950, 214.250 68.500 C 214.113 69.050, 215.238 69.500, 216.750 69.500 C 218.262 69.500, 219.831 69.950, 220.235 70.500 C 220.683 71.110, 220.975 70.986, 220.985 70.183 C 220.995 69.308, 221.694 69.086, 223.064 69.520 C 224.691 70.037, 225.061 69.786, 224.814 68.338 C 224.497 66.484, 222.655 65.200, 220.128 65.070 C 219.020 65.014, 218.996 65.290, 220 66.500 M 238.459 66.067 C 238.096 66.653, 238.014 67.348, 238.276 67.610 C 238.538 67.872, 239.019 67.392, 239.345 66.543 C 240.021 64.781, 239.445 64.471, 238.459 66.067 M 247.710 67 C 247.423 68.100, 247.595 69, 248.094 69 C 248.592 69, 249 68.100, 249 67 C 249 65.900, 248.827 65, 248.617 65 C 248.406 65, 247.998 65.900, 247.710 67 M 174 67 C 173.175 67.533, 172.950 67.969, 173.500 67.969 C 174.050 67.969, 175.175 67.533, 176 67 C 176.825 66.467, 177.050 66.031, 176.500 66.031 C 175.950 66.031, 174.825 66.467, 174 67 M 232.030 66.679 C 232.014 67.327, 232.671 68.528, 233.491 69.348 C 234.621 70.478, 234.682 70.961, 233.741 71.341 C 232.968 71.653, 233.120 71.872, 234.143 71.921 C 235.047 71.964, 236.045 71.325, 236.362 70.500 C 236.707 69.601, 236.369 69, 235.518 69 C 234.738 69, 233.641 68.213, 233.080 67.250 C 232.519 66.287, 232.047 66.030, 232.030 66.679 M 261.510 67.016 C 261.856 67.575, 262.557 67.774, 263.069 67.457 C 264.456 66.600, 264.198 66, 262.441 66 C 261.584 66, 261.165 66.457, 261.510 67.016 M 111.500 67.684 C 103.519 69.486, 91 73.426, 91 74.136 C 91 75.434, 93.238 75.198, 101.239 73.057 C 105.232 71.988, 110.426 70.617, 112.780 70.010 C 115.134 69.403, 116.795 68.478, 116.471 67.953 C 115.861 66.966, 114.907 66.914, 111.500 67.684 M 180.813 67.683 C 181.534 67.972, 182.397 67.936, 182.729 67.604 C 183.061 67.272, 182.471 67.036, 181.417 67.079 C 180.252 67.127, 180.015 67.364, 180.813 67.683 M 198 68 C 197.099 68.582, 196.975 68.975, 197.691 68.985 C 198.346 68.993, 199.160 68.550, 199.500 68 C 200.267 66.758, 199.921 66.758, 198 68 M 206.543 67.931 C 206.226 68.443, 206.425 69.144, 206.984 69.490 C 207.543 69.835, 208 69.416, 208 68.559 C 208 66.802, 207.400 66.544, 206.543 67.931 M 160 70 C 158.718 70.828, 158.754 70.972, 160.250 70.985 C 161.213 70.993, 162 70.550, 162 70 C 162 68.780, 161.887 68.780, 160 70 M 165.010 69.892 C 163.573 70.292, 162.982 70.871, 163.613 71.261 C 164.214 71.632, 165.559 71.290, 166.603 70.500 C 168.693 68.918, 168.616 68.889, 165.010 69.892 M 171.500 70 C 171.160 70.550, 171.557 71, 172.382 71 C 173.207 71, 174.160 70.550, 174.500 70 C 174.840 69.450, 174.443 69, 173.618 69 C 172.793 69, 171.840 69.450, 171.500 70 M 182 70.059 C 182 70.641, 182.450 70.840, 183 70.500 C 183.550 70.160, 184 69.684, 184 69.441 C 184 69.198, 183.550 69, 183 69 C 182.450 69, 182 69.477, 182 70.059 M 187.436 69.603 C 187.676 69.934, 187.499 71.188, 187.043 72.388 C 186.516 73.774, 186.659 75.180, 187.435 76.241 C 188.468 77.655, 188.635 77.306, 188.519 73.981 C 188.444 71.818, 188.071 69.813, 187.691 69.524 C 187.311 69.236, 187.196 69.271, 187.436 69.603 M 192.813 69.683 C 193.534 69.972, 194.397 69.936, 194.729 69.604 C 195.061 69.272, 194.471 69.036, 193.417 69.079 C 192.252 69.127, 192.015 69.364, 192.813 69.683 M 140.750 71.689 C 139.787 71.941, 139 72.741, 139 73.467 C 139 74.510, 139.840 74.574, 143 73.772 C 145.200 73.214, 147 72.361, 147 71.878 C 147 70.975, 143.848 70.880, 140.750 71.689 M 192.500 72 C 192.160 72.550, 192.332 73, 192.882 73 C 193.432 73, 194.160 72.550, 194.500 72 C 194.840 71.450, 194.668 71, 194.118 71 C 193.568 71, 192.840 71.450, 192.500 72 M 214.079 72.583 C 214.127 73.748, 214.364 73.985, 214.683 73.188 C 214.972 72.466, 214.936 71.603, 214.604 71.271 C 214.272 70.939, 214.036 71.529, 214.079 72.583 M 237 72.059 C 237 72.641, 237.450 72.840, 238 72.500 C 238.550 72.160, 239 71.684, 239 71.441 C 239 71.198, 238.550 71, 238 71 C 237.450 71, 237 71.477, 237 72.059 M 230.057 73.569 C 230.701 74.344, 231.656 74.713, 232.180 74.389 C 233.344 73.669, 232.480 72.688, 230.415 72.385 C 229.211 72.208, 229.135 72.458, 230.057 73.569 M 243.500 73 C 243.840 73.550, 244.316 74, 244.559 74 C 244.802 74, 245 73.550, 245 73 C 245 72.450, 244.523 72, 243.941 72 C 243.359 72, 243.160 72.450, 243.500 73 M 223.543 73.931 C 223.226 74.443, 223.494 75.187, 224.138 75.585 C 224.836 76.017, 225.042 75.877, 224.648 75.240 C 224.285 74.652, 224.553 73.943, 225.244 73.664 C 226.143 73.302, 226.161 73.135, 225.309 73.079 C 224.654 73.036, 223.859 73.419, 223.543 73.931 M 182.570 75.887 C 182.269 76.374, 182.805 77.387, 183.761 78.137 C 185.312 79.353, 185.361 79.322, 184.208 77.847 C 183.153 76.497, 183.153 76.100, 184.208 75.676 C 185.095 75.320, 185.126 75.133, 184.309 75.079 C 183.654 75.036, 182.871 75.399, 182.570 75.887 M 79 77 C 77.718 77.828, 77.754 77.972, 79.250 77.985 C 80.213 77.993, 81 77.550, 81 77 C 81 75.780, 80.887 75.780, 79 77 M 191.243 78.504 C 190.551 79.289, 189.201 79.691, 188.243 79.397 C 187.284 79.103, 187.625 79.552, 189 80.395 C 190.577 81.363, 190.946 81.954, 190 81.996 C 188.716 82.054, 188.730 82.239, 190.099 83.282 C 190.979 83.952, 191.729 84.875, 191.766 85.333 C 191.803 85.792, 192.062 86.395, 192.342 86.675 C 192.621 86.955, 192.722 86.355, 192.567 85.342 C 192.411 84.329, 192.782 83.169, 193.392 82.765 C 194.165 82.253, 194.122 82.026, 193.250 82.015 C 192.563 82.007, 192 81.523, 192 80.941 C 192 80.359, 192.408 80.134, 192.907 80.442 C 193.405 80.751, 193.578 80.102, 193.290 79.001 C 193.002 77.901, 192.707 77.017, 192.633 77.038 C 192.560 77.059, 191.934 77.719, 191.243 78.504 M 229.490 78.016 C 229.144 78.575, 228.373 78.731, 227.776 78.362 C 227.144 77.971, 226.977 78.154, 227.378 78.802 C 228.136 80.028, 231 79.310, 231 77.893 C 231 76.701, 230.266 76.761, 229.490 78.016 M 180 78.941 C 180 79.459, 180.445 80.157, 180.989 80.493 C 181.555 80.843, 181.723 80.442, 181.382 79.552 C 180.717 77.820, 180 77.503, 180 78.941 M 158.204 81.045 C 157.532 82.120, 157.389 83, 157.885 83 C 158.782 83, 160.328 79.995, 159.736 79.402 C 159.564 79.231, 158.875 79.970, 158.204 81.045 M 129.459 81.067 C 128.433 82.727, 129.354 82.957, 130.789 81.399 C 131.499 80.630, 131.638 80, 131.098 80 C 130.559 80, 129.821 80.480, 129.459 81.067 M 203.114 80.929 C 202.255 81.461, 202.152 81.976, 202.824 82.391 C 203.395 82.744, 204.163 82.545, 204.531 81.950 C 205.449 80.464, 204.719 79.938, 203.114 80.929 M 134 82 C 134 82.550, 134.450 83, 135 83 C 135.550 83, 136 82.550, 136 82 C 136 81.450, 135.550 81, 135 81 C 134.450 81, 134 81.450, 134 82 M 217 81.378 C 217 81.585, 217.675 82.315, 218.500 83 C 219.729 84.020, 220 83.951, 220 82.622 C 220 81.730, 219.325 81, 218.500 81 C 217.675 81, 217 81.170, 217 81.378 M 145 84.969 C 145 85.501, 145.675 85.678, 146.500 85.362 C 147.325 85.045, 148 84.609, 148 84.393 C 148 84.177, 147.325 84, 146.500 84 C 145.675 84, 145 84.436, 145 84.969 M 159 84.893 C 159 86.002, 162.076 87.257, 162.864 86.469 C 163.182 86.151, 162.780 85.473, 161.971 84.961 C 160.101 83.778, 159 83.753, 159 84.893 M 170 86 C 170 86.550, 170.477 87, 171.059 87 C 171.641 87, 171.840 86.550, 171.500 86 C 171.160 85.450, 170.684 85, 170.441 85 C 170.198 85, 170 85.450, 170 86 M 185.500 86 C 185.160 86.550, 185.407 87, 186.048 87 C 186.724 87, 186.958 87.735, 186.605 88.750 C 186.097 90.209, 186.245 90.177, 187.498 88.559 C 188.324 87.491, 189 86.254, 189 85.809 C 189 84.655, 186.238 84.806, 185.500 86 M 100.573 87.895 C 98.876 88.560, 98.842 88.725, 100.291 89.281 C 101.196 89.629, 102.202 89.482, 102.527 88.956 C 102.852 88.430, 103.568 88, 104.118 88 C 104.668 88, 104.840 88.450, 104.500 89 C 104.160 89.550, 104.557 90, 105.382 90 C 107.874 90, 108.134 88.269, 105.739 87.627 C 103.099 86.920, 103.058 86.922, 100.573 87.895 M 189 88 C 189 88.550, 189.450 89, 190 89 C 190.550 89, 191 88.550, 191 88 C 191 87.450, 190.550 87, 190 87 C 189.450 87, 189 87.450, 189 88 M 153.274 88.530 C 153.699 88.998, 152.799 89.975, 151.274 90.701 C 148.894 91.834, 148.831 91.960, 150.829 91.584 C 152.592 91.252, 153.017 91.513, 152.578 92.657 C 152.237 93.547, 152.474 94.009, 153.158 93.781 C 154.793 93.236, 155.221 89.244, 153.736 88.390 C 153.056 87.999, 152.848 88.062, 153.274 88.530 M 130 90 C 130 90.550, 130.423 91, 130.941 91 C 131.459 91, 132.160 90.550, 132.500 90 C 132.840 89.450, 132.416 89, 131.559 89 C 130.702 89, 130 89.450, 130 90 M 86.015 93.750 C 86.028 95.151, 86.207 95.221, 86.914 94.104 C 87.400 93.337, 88.504 92.979, 89.367 93.311 C 90.230 93.642, 91.202 93.482, 91.527 92.956 C 91.854 92.427, 90.751 92, 89.059 92 C 86.807 92, 86.004 92.461, 86.015 93.750 M 131.923 93.250 C 131.211 95.578, 131.484 97.151, 132.782 98.206 C 134.165 99.330, 134.269 99.238, 133.568 97.500 C 133.125 96.400, 132.740 94.938, 132.714 94.250 C 132.673 93.171, 132.150 92.509, 131.923 93.250 M 110 94.393 C 110 94.609, 110.698 95.054, 111.552 95.382 C 112.442 95.723, 112.843 95.555, 112.493 94.989 C 111.906 94.038, 110 93.583, 110 94.393 M 146.226 95.579 C 147.176 96.570, 148.168 97.166, 148.431 96.903 C 148.694 96.640, 147.917 95.829, 146.705 95.100 C 144.598 93.835, 144.577 93.857, 146.226 95.579 M 137.594 96.152 C 137.985 96.785, 137.482 97.905, 136.476 98.641 C 135.469 99.377, 134.963 100.296, 135.351 100.684 C 136.387 101.720, 140.362 97.394, 139.562 96.101 C 139.188 95.495, 138.432 95, 137.882 95 C 137.332 95, 137.202 95.518, 137.594 96.152 M 123.656 100.545 C 123.960 101.339, 124.612 101.740, 125.105 101.435 C 126.345 100.669, 126.231 100.303, 124.551 99.658 C 123.584 99.287, 123.286 99.582, 123.656 100.545 M 188.682 99.651 C 187.720 100.614, 191.199 102.861, 192.737 102.270 C 193.740 101.886, 193.629 101.438, 192.279 100.414 C 190.247 98.872, 189.599 98.734, 188.682 99.651 M 84 102 C 84.825 102.533, 85.950 102.969, 86.500 102.969 C 87.050 102.969, 86.825 102.533, 86 102 C 85.175 101.467, 84.050 101.031, 83.500 101.031 C 82.950 101.031, 83.175 101.467, 84 102 M 94.507 101.989 C 94.157 102.555, 94.558 102.723, 95.448 102.382 C 97.180 101.717, 97.497 101, 96.059 101 C 95.541 101, 94.843 101.445, 94.507 101.989 M 112.813 102.683 C 113.534 102.972, 114.397 102.936, 114.729 102.604 C 115.061 102.272, 114.471 102.036, 113.417 102.079 C 112.252 102.127, 112.015 102.364, 112.813 102.683 M 221.879 102.904 C 222.825 103.503, 221.118 104.266, 216.443 105.333 C 212.694 106.188, 209.261 106.661, 208.813 106.385 C 208.366 106.108, 208.027 106.246, 208.061 106.691 C 208.095 107.136, 209.997 108.861, 212.288 110.525 C 217.683 114.443, 223.510 122.162, 225.942 128.613 C 227.002 131.425, 228.082 137.363, 228.342 141.808 C 228.844 150.393, 229.471 152.417, 231.401 151.676 C 232.244 151.353, 232.585 152.788, 232.550 156.501 C 232.506 161.129, 231.905 162.657, 227.705 168.804 C 220.616 179.178, 215.585 184.500, 209.202 188.377 C 199.602 194.209, 199.227 194.891, 198.852 207.180 C 198.674 213.054, 198.855 218.188, 199.255 218.588 C 199.655 218.989, 199.597 219.807, 199.127 220.408 C 198.656 221.009, 197.979 225.837, 197.623 231.138 C 196.746 244.196, 193.919 254.671, 189.369 261.723 C 185.981 266.975, 180 278.333, 180 279.516 C 180 279.782, 218.250 280, 265 280 L 350 280 350 269.360 C 350 260.443, 349.717 258.487, 348.250 257.279 C 346.687 255.991, 346.679 255.892, 348.177 256.359 C 349.676 256.826, 349.861 255.672, 349.925 245.498 C 349.973 237.913, 349.612 233.878, 348.844 233.403 C 348.115 232.953, 347.963 233.132, 348.432 233.889 C 349.141 235.038, 347.462 238, 346.101 238 C 345.741 238, 345.615 236.239, 345.820 234.087 C 346.123 230.914, 345.797 229.962, 344.097 229.052 C 342.297 228.089, 342 228.209, 342 229.903 C 342 231.259, 341.375 231.829, 340 231.725 C 338.900 231.642, 338 231.220, 338 230.787 C 338 230.354, 337.325 230, 336.500 230 C 335.675 230, 335 230.477, 335 231.059 C 335 231.641, 335.450 231.840, 336 231.500 C 336.550 231.160, 337 231.359, 337 231.941 C 337 232.523, 336.325 233, 335.500 233 C 334.675 233, 334 232.500, 334 231.889 C 334 231.278, 333.115 231.841, 332.033 233.139 C 330.952 234.438, 330.052 234.938, 330.033 234.250 C 330.015 233.563, 330.450 233, 331 233 C 331.550 233, 332 232.550, 332 232 C 332 231.450, 331.325 231, 330.500 231 C 329.675 231, 328.993 231.563, 328.985 232.250 C 328.974 233.145, 328.761 233.178, 328.235 232.366 C 327.831 231.743, 323.900 230.236, 319.500 229.019 C 315.100 227.802, 308.125 225.744, 304 224.446 C 299.875 223.147, 290.425 220.249, 283 218.005 C 275.575 215.761, 268.719 213.491, 267.764 212.962 C 265.380 211.641, 262.249 211.754, 261.774 213.177 C 261.544 213.867, 260.845 214.022, 260.084 213.552 C 259.029 212.900, 259.040 212.589, 260.143 211.890 C 261.221 211.208, 261.163 211.027, 259.864 211.015 C 258.965 211.007, 256.950 210.337, 255.388 209.526 C 253.545 208.570, 252.205 208.395, 251.574 209.026 C 250.089 210.511, 247.710 210.197, 248.324 208.599 C 248.647 207.755, 248.063 206.988, 246.856 206.673 C 245.190 206.237, 245.033 205.808, 245.925 204.140 C 247.351 201.475, 247.336 185.325, 245.906 184.442 C 245.304 184.070, 245.014 182.707, 245.261 181.413 C 245.509 180.119, 245.439 179.221, 245.106 179.416 C 244.772 179.612, 242.855 177.381, 240.844 174.459 L 237.188 169.146 244.682 165.443 C 253.626 161.023, 256.867 157.088, 259.464 147.495 C 261.762 139.005, 261.095 130.765, 257.352 121.386 C 253.986 112.955, 246.610 105.056, 240.384 103.216 C 235.641 101.815, 219.736 101.547, 221.879 102.904 M 218 109 C 218 109.550, 218.450 110, 219 110 C 219.550 110, 220 109.550, 220 109 C 220 108.450, 219.550 108, 219 108 C 218.450 108, 218 108.450, 218 109 M 92 111 C 92 111.550, 92.477 112, 93.059 112 C 93.641 112, 93.840 111.550, 93.500 111 C 93.160 110.450, 92.684 110, 92.441 110 C 92.198 110, 92 110.450, 92 111 M 278.500 111 C 278.160 111.550, 278.359 112, 278.941 112 C 279.523 112, 280 111.550, 280 111 C 280 110.450, 279.802 110, 279.559 110 C 279.316 110, 278.840 110.450, 278.500 111 M 101 113 C 101 113.550, 101.477 114, 102.059 114 C 102.641 114, 102.840 113.550, 102.500 113 C 102.160 112.450, 101.684 112, 101.441 112 C 101.198 112, 101 112.450, 101 113 M 114 113 C 114 113.550, 114.450 114, 115 114 C 115.550 114, 116 113.550, 116 113 C 116 112.450, 115.550 112, 115 112 C 114.450 112, 114 112.450, 114 113 M 76 115 C 76 115.550, 76.477 116, 77.059 116 C 77.641 116, 77.840 115.550, 77.500 115 C 77.160 114.450, 76.684 114, 76.441 114 C 76.198 114, 76 114.450, 76 115 M 103.636 116.494 C 103.952 117.316, 104.620 117.735, 105.121 117.425 C 106.170 116.777, 105.328 115, 103.972 115 C 103.472 115, 103.321 115.672, 103.636 116.494 M 310 116.500 C 310 117.325, 310.450 118, 311 118 C 311.550 118, 312 117.325, 312 116.500 C 312 115.675, 311.550 115, 311 115 C 310.450 115, 310 115.675, 310 116.500 M 83.500 117 C 83.840 117.550, 84.316 118, 84.559 118 C 84.802 118, 85 117.550, 85 117 C 85 116.450, 84.523 116, 83.941 116 C 83.359 116, 83.160 116.450, 83.500 117 M 227 116.378 C 227 116.585, 227.787 117.373, 228.750 118.128 C 230.336 119.371, 230.371 119.336, 229.128 117.750 C 227.821 116.084, 227 115.555, 227 116.378 M 298 117.378 C 298 117.585, 298.685 118.324, 299.523 119.019 C 300.796 120.076, 300.943 120.014, 300.416 118.641 C 299.878 117.240, 298 116.257, 298 117.378 M 290 119.833 C 290 121.025, 290.410 122, 290.912 122 C 291.928 122, 291.776 119.443, 290.696 118.362 C 290.313 117.980, 290 118.642, 290 119.833 M 107.441 121.437 C 105.520 122.858, 105.520 122.871, 107.446 122.599 C 108.516 122.449, 109.566 121.802, 109.779 121.163 C 110.287 119.638, 109.793 119.696, 107.441 121.437 M 230 120.741 C 230 121.369, 230.481 122.179, 231.068 122.542 C 231.656 122.905, 231.895 123.832, 231.600 124.601 C 231.304 125.371, 231.427 126, 231.873 126 C 232.565 126, 235 132.506, 235 134.354 C 235 134.696, 234.037 134.869, 232.860 134.738 C 231.683 134.607, 230.505 135.110, 230.242 135.855 C 229.875 136.893, 230.485 137.052, 232.838 136.536 L 235.913 135.860 236.279 143.180 L 236.645 150.500 236.690 142.500 C 236.723 136.601, 236.135 132.827, 234.449 128.131 C 232.233 121.961, 230 118.251, 230 120.741 M 234.305 121.750 C 234.466 122.713, 235.154 124.513, 235.834 125.750 C 236.514 126.987, 236.814 128, 236.500 128 C 236.186 128, 236.411 128.900, 237 130 C 237.589 131.100, 238.465 132, 238.948 132 C 240.451 132, 238.928 125.607, 236.905 123.426 C 235.847 122.285, 235.286 121.048, 235.658 120.676 C 236.029 120.304, 235.811 120, 235.173 120 C 234.535 120, 234.144 120.787, 234.305 121.750 M 238.868 123.118 C 239.766 124.696, 241.175 125.976, 242 125.962 C 243.287 125.940, 243.275 125.764, 241.912 124.718 C 241.039 124.048, 240.495 122.995, 240.703 122.377 C 240.911 121.760, 240.216 121.028, 239.159 120.752 C 237.320 120.271, 237.307 120.375, 238.868 123.118 M 299.681 123.612 C 300.128 124.776, 299.964 125.096, 299.170 124.605 C 298.468 124.171, 298 124.505, 298 125.441 C 298 126.298, 298.579 127, 299.287 127 C 300.781 127, 301.318 123.315, 299.948 122.468 C 299.433 122.150, 299.315 122.657, 299.681 123.612 M 78 123.902 C 78 124.940, 79.902 126.443, 80.466 125.850 C 80.649 125.658, 80.169 124.920, 79.399 124.211 C 78.630 123.501, 78 123.362, 78 123.902 M 227.667 124.667 C 226.455 125.878, 226.973 127, 228.750 127.015 C 230.113 127.027, 230.200 127.221, 229.143 127.890 C 228.268 128.445, 228.155 128.978, 228.824 129.391 C 230.451 130.397, 231.206 128.254, 230.011 126.021 C 228.821 123.796, 228.641 123.693, 227.667 124.667 M 92.507 126.989 C 92.157 127.555, 92.558 127.723, 93.448 127.382 C 95.180 126.717, 95.497 126, 94.059 126 C 93.541 126, 92.843 126.445, 92.507 126.989 M 106.605 128.588 C 105.755 130.803, 105.852 132, 106.883 132 C 108.061 132, 109.031 128.137, 108.011 127.507 C 107.570 127.234, 106.937 127.721, 106.605 128.588 M 96.638 129.500 C 96.955 130.325, 96.689 131, 96.048 131 C 95.407 131, 95.148 131.430, 95.473 131.956 C 95.798 132.482, 96.694 132.671, 97.464 132.376 C 99.182 131.716, 99.059 128, 97.319 128 C 96.613 128, 96.315 128.657, 96.638 129.500 M 74.510 130.016 C 74.856 130.575, 75.557 130.774, 76.069 130.457 C 77.456 129.600, 77.198 129, 75.441 129 C 74.584 129, 74.165 129.457, 74.510 130.016 M 87.500 131 C 87.160 131.550, 87.359 132, 87.941 132 C 88.523 132, 89 131.550, 89 131 C 89 130.450, 88.802 130, 88.559 130 C 88.316 130, 87.840 130.450, 87.500 131 M 242.633 133.250 C 243.056 134.488, 243.424 136.512, 243.451 137.750 C 243.545 142.063, 244.833 139.966, 244.833 135.500 C 244.833 132.188, 244.441 131, 243.349 131 C 242.249 131, 242.064 131.582, 242.633 133.250 M 239.200 134.200 C 237.567 135.833, 237.692 137, 239.500 137 C 240.333 137, 241 136.111, 241 135 C 241 132.669, 240.814 132.586, 239.200 134.200 M 156.250 140.442 C 153.912 140.960, 152 141.748, 152 142.192 C 152 142.636, 151.523 143, 150.941 143 C 150.359 143, 150.196 142.492, 150.580 141.870 C 151.004 141.185, 150.732 140.923, 149.889 141.204 C 149.125 141.458, 148.500 142.529, 148.500 143.583 C 148.500 144.946, 149.321 145.594, 151.341 145.825 C 153.887 146.117, 154.116 145.908, 153.539 143.825 C 152.959 141.726, 153.030 141.665, 154.270 143.198 C 155.301 144.471, 156.752 144.791, 160.072 144.478 C 167.495 143.777, 168.500 143.410, 168.500 141.405 C 168.500 139.987, 167.669 139.420, 165.250 139.187 C 163.079 138.977, 161.995 139.309, 161.985 140.187 C 161.975 140.988, 161.683 141.110, 161.235 140.500 C 160.755 139.847, 159.026 139.827, 156.250 140.442 M 239.308 143 C 239.308 145.200, 239.688 147, 240.154 147 C 240.619 147, 241 145.912, 241 144.582 C 241 143.252, 241.273 141.452, 241.607 140.582 C 241.989 139.587, 241.675 139, 240.761 139 C 239.732 139, 239.308 140.168, 239.308 143 M 81 140.941 C 81 141.459, 81.450 142.160, 82 142.500 C 82.550 142.840, 83 142.416, 83 141.559 C 83 140.702, 82.550 140, 82 140 C 81.450 140, 81 140.423, 81 140.941 M 166 141 C 166 141.550, 166.450 142, 167 142 C 167.550 142, 168 141.550, 168 141 C 168 140.450, 167.550 140, 167 140 C 166.450 140, 166 140.450, 166 141 M 281.510 141.016 C 281.856 141.575, 282.557 141.774, 283.069 141.457 C 284.456 140.600, 284.198 140, 282.441 140 C 281.584 140, 281.165 140.457, 281.510 141.016 M 243 142 C 243 142.550, 243.450 143, 244 143 C 244.550 143, 245 142.550, 245 142 C 245 141.450, 244.550 141, 244 141 C 243.450 141, 243 141.450, 243 142 M 78.500 145 C 78.840 145.550, 79.316 146, 79.559 146 C 79.802 146, 80 145.550, 80 145 C 80 144.450, 79.523 144, 78.941 144 C 78.359 144, 78.160 144.450, 78.500 145 M 231.459 145.067 C 230.383 146.808, 231.608 147.177, 232.980 145.524 C 233.769 144.574, 233.845 144, 233.181 144 C 232.597 144, 231.821 144.480, 231.459 145.067 M 160.714 147.714 C 159.644 148.784, 159 148.972, 159 148.214 C 159 147.546, 158.550 147, 158 147 C 157.450 147, 157 147.959, 157 149.131 C 157 151.037, 157.396 151.196, 160.750 150.642 C 162.813 150.301, 165.063 150.017, 165.750 150.011 C 166.438 150.005, 167 149.100, 167 148 C 167 145.454, 163.150 145.279, 160.714 147.714 M 154.710 150 C 154.998 151.100, 155.406 152, 155.617 152 C 155.827 152, 156 151.100, 156 150 C 156 148.900, 155.592 148, 155.094 148 C 154.595 148, 154.423 148.900, 154.710 150 M 162.750 151.816 C 161.157 152, 160 152.744, 160 153.585 C 160 154.604, 160.691 154.865, 162.309 154.459 C 165.302 153.707, 168.182 153.172, 169.750 153.077 C 170.438 153.034, 171 152.603, 171 152.117 C 171 151.260, 168.409 151.165, 162.750 151.816 M 234.638 153.500 C 234.322 154.325, 234.499 155, 235.031 155 C 235.564 155, 236 154.325, 236 153.500 C 236 152.675, 235.823 152, 235.607 152 C 235.391 152, 234.955 152.675, 234.638 153.500 M 152.695 153.789 C 149.726 154.412, 151.424 156.530, 154.587 156.149 C 156.189 155.957, 157.838 155.593, 158.250 155.340 C 159.555 154.543, 159.061 153, 157.500 153 C 156.675 153, 155.993 153.563, 155.985 154.250 C 155.975 155.065, 155.714 155.136, 155.235 154.455 C 154.831 153.880, 153.688 153.580, 152.695 153.789 M 233.731 157.920 C 233.296 159.583, 233.426 159.974, 234.168 159.232 C 234.750 158.650, 235.028 157.585, 234.788 156.863 C 234.538 156.114, 234.085 156.568, 233.731 157.920 M 99 160.876 C 99 163.702, 102.081 167.586, 103.331 166.336 C 104.380 165.287, 104.114 163.812, 103 164.500 C 102.420 164.859, 102 163.879, 102 162.166 C 102 160.464, 101.365 158.970, 100.500 158.638 C 99.386 158.211, 99 158.786, 99 160.876 M 337.158 161.881 C 336.191 162.494, 336.611 162.884, 338.658 163.278 C 341.852 163.891, 342.500 163.619, 341.541 162.067 C 340.752 160.790, 338.997 160.716, 337.158 161.881 M 349 162.927 C 349 163.436, 348.305 163.999, 347.456 164.177 C 346.186 164.443, 346.275 164.808, 347.956 166.240 C 349.947 167.935, 350 167.903, 350 164.990 C 350 163.346, 349.775 162, 349.500 162 C 349.225 162, 349 162.417, 349 162.927 M 107 165.878 C 107 166.360, 107.675 167.315, 108.500 168 C 109.753 169.040, 110 168.896, 110 167.122 C 110 165.902, 109.362 165, 108.500 165 C 107.675 165, 107 165.395, 107 165.878 M 346 170 C 346 170.550, 346.675 171, 347.500 171 C 348.325 171, 349 170.550, 349 170 C 349 169.450, 348.325 169, 347.500 169 C 346.675 169, 346 169.450, 346 170 M 257.872 173.664 C 256.628 175.172, 256.710 175.216, 258.750 174.129 C 261.077 172.889, 261.650 172, 260.122 172 C 259.640 172, 258.627 172.749, 257.872 173.664 M 260.872 175.750 C 259.629 177.336, 259.664 177.371, 261.250 176.128 C 262.916 174.821, 263.445 174, 262.622 174 C 262.415 174, 261.627 174.787, 260.872 175.750 M 271.714 188.418 C 270.091 189.650, 270.250 189.810, 273.464 190.186 C 277.206 190.622, 277.755 190.155, 275.800 188.200 C 274.311 186.711, 273.939 186.730, 271.714 188.418 M 265 189 C 265.825 189.533, 267.175 189.945, 268 189.914 C 268.989 189.878, 268.819 189.567, 267.500 189 C 264.751 187.819, 263.172 187.819, 265 189 M 284.721 194.960 C 284.427 196.084, 284.548 196.780, 284.989 196.507 C 285.431 196.234, 287.076 196.680, 288.646 197.499 C 291.980 199.238, 295.552 199.649, 293 198 C 291.755 197.195, 291.840 197.023, 293.500 196.985 C 295.382 196.942, 295.393 196.877, 293.689 195.886 C 292.693 195.307, 291.118 195.124, 290.189 195.481 C 287.956 196.338, 287.500 196.228, 287.500 194.833 C 287.500 192.755, 285.271 192.857, 284.721 194.960 M 303 198 C 304.185 200.233, 304.161 200.363, 302.770 199.215 C 301.486 198.157, 300.930 198.213, 299.606 199.537 C 297.482 201.661, 297.543 202.615, 299.692 200.872 C 300.776 199.994, 301.120 199.940, 300.649 200.725 C 299.882 202.001, 306.476 205.660, 310.652 206.276 C 311.836 206.450, 313.411 207.073, 314.152 207.660 C 314.894 208.247, 316.494 208.640, 317.708 208.534 C 318.923 208.427, 320.146 208.939, 320.427 209.670 C 320.708 210.402, 321.514 210.993, 322.219 210.985 C 323.129 210.974, 323.066 210.657, 322 209.890 C 320.752 208.993, 320.808 208.911, 322.332 209.406 C 323.339 209.733, 324.378 210, 324.641 210 C 324.903 210, 324.871 210.399, 324.570 210.887 C 324.268 211.375, 324.579 211.724, 325.261 211.663 C 325.942 211.603, 328.525 212.511, 331 213.683 C 336.616 216.342, 348.246 221.007, 349.250 221.003 C 349.663 221.001, 350 216.923, 350 211.941 C 350 206.156, 349.639 203.105, 349 203.500 C 348.450 203.840, 348 205.044, 348 206.176 C 348 207.714, 347.514 208.106, 346.075 207.730 C 344.724 207.377, 344.308 207.640, 344.682 208.613 C 344.975 209.376, 345.896 210, 346.729 210 C 347.901 210, 347.986 210.312, 347.105 211.373 C 346.478 212.129, 346.266 213.530, 346.634 214.489 C 347.194 215.947, 346.911 216.114, 344.901 215.513 C 343.581 215.119, 341.193 214.167, 339.596 213.398 C 337.999 212.629, 335.888 212, 334.905 212 C 333.922 212, 332.840 211.550, 332.500 211 C 332.160 210.450, 330.532 210, 328.882 210 C 327.232 210, 326.126 209.605, 326.425 209.122 C 326.723 208.639, 325.555 207.961, 323.829 207.616 C 319.572 206.764, 317.664 205.109, 319.035 203.457 C 320.385 201.831, 316.640 199, 313.138 199 C 311.808 199, 310.157 198.229, 309.468 197.288 C 308.410 195.840, 307.968 195.782, 306.608 196.910 C 305.265 198.025, 304.726 198.018, 303.336 196.872 C 301.813 195.616, 301.784 195.710, 303 198 M 296.333 198.456 C 296.333 199.257, 296.716 199.676, 297.183 199.387 C 297.650 199.098, 297.774 198.443, 297.457 197.931 C 296.649 196.623, 296.333 196.770, 296.333 198.456 M 321 199 C 321 199.550, 321.450 200, 322 200 C 322.550 200, 323 199.550, 323 199 C 323 198.450, 322.550 198, 322 198 C 321.450 198, 321 198.450, 321 199 M 311.500 201 C 311.160 201.550, 311.584 202, 312.441 202 C 313.298 202, 314 202.450, 314 203 C 314 203.550, 314.675 204, 315.500 204 C 317.491 204, 317.428 201.378, 315.418 200.607 C 313.188 199.751, 312.211 199.849, 311.500 201 M 255.201 204.250 C 254.272 207.771, 254.564 208.053, 260.500 209.367 C 263.235 209.972, 263.339 209.905, 261.680 208.604 C 259.944 207.243, 259.942 207.132, 261.633 206.186 C 263.125 205.350, 263.197 204.943, 262.089 203.608 C 261.366 202.736, 260.405 202.249, 259.956 202.527 C 259.506 202.805, 258.856 202.575, 258.510 202.016 C 257.340 200.123, 256.061 200.987, 255.201 204.250 M 257.012 204.977 C 256.149 206.591, 256.234 206.847, 257.477 206.371 C 258.315 206.049, 259 205.159, 259 204.393 C 259 202.440, 258.253 202.659, 257.012 204.977 M 296.559 204.468 C 297.626 205.276, 298.950 205.936, 299.500 205.936 C 300.050 205.936, 299.626 205.276, 298.559 204.468 C 297.491 203.661, 296.168 203, 295.618 203 C 295.068 203, 295.491 203.661, 296.559 204.468 M 325 205 C 325 205.550, 325.675 206, 326.500 206 C 327.325 206, 328 205.550, 328 205 C 328 204.450, 327.325 204, 326.500 204 C 325.675 204, 325 204.450, 325 205 M 301.334 206.250 C 301.335 206.938, 302.722 207.591, 304.418 207.703 L 307.500 207.906 305 206.488 C 301.878 204.718, 301.333 204.683, 301.334 206.250 M 309 209 C 309.825 209.533, 310.950 209.969, 311.500 209.969 C 312.050 209.969, 311.825 209.533, 311 209 C 310.175 208.467, 309.050 208.031, 308.500 208.031 C 307.950 208.031, 308.175 208.467, 309 209 M 339.813 210.683 C 340.534 210.972, 341.397 210.936, 341.729 210.604 C 342.061 210.272, 341.471 210.036, 340.417 210.079 C 339.252 210.127, 339.015 210.364, 339.813 210.683 M 313.399 212.250 C 313.003 212.938, 313.048 213.166, 313.498 212.759 C 313.948 212.351, 315.006 212.576, 315.850 213.259 C 316.881 214.093, 317.155 214.118, 316.686 213.335 C 316.302 212.695, 316.553 211.943, 317.244 211.664 C 317.935 211.386, 317.514 211.122, 316.309 211.079 C 315.104 211.036, 313.794 211.563, 313.399 212.250 M 243.348 214.197 C 243.532 215.406, 244.276 216.592, 245.001 216.834 C 245.896 217.132, 246.107 216.722, 245.659 215.555 C 245.297 214.610, 245 213.423, 245 212.918 C 245 212.413, 244.553 212, 244.006 212 C 243.460 212, 243.163 212.989, 243.348 214.197 M 254.500 213 C 254.160 213.550, 254.557 214, 255.382 214 C 256.207 214, 257.160 213.550, 257.500 213 C 257.840 212.450, 257.443 212, 256.618 212 C 255.793 212, 254.840 212.450, 254.500 213 M 318.569 212.888 C 317.756 214.204, 322.113 217.075, 325.159 217.230 C 326.446 217.295, 328.175 217.877, 329 218.523 C 331.512 220.488, 333.691 220.904, 335.025 219.672 C 336.018 218.756, 336.172 218.851, 335.733 220.109 C 335.292 221.372, 336.767 222.262, 342.585 224.242 C 349.377 226.553, 350 226.617, 350 225.004 C 350 223.650, 346.701 222.025, 335.750 217.986 C 327.913 215.095, 320.983 212.535, 320.351 212.297 C 319.719 212.058, 318.917 212.325, 318.569 212.888 M 246 213.933 C 246 214.520, 246.900 215, 248 215 C 249.100 215, 250 215.477, 250 216.059 C 250 216.641, 249.640 216.896, 249.200 216.624 C 248.760 216.352, 247.869 216.979, 247.221 218.018 C 246.451 219.251, 246.390 220.123, 247.045 220.528 C 247.598 220.869, 247.926 220.553, 247.775 219.824 C 247.624 219.096, 248.130 218.635, 248.899 218.800 C 249.669 218.965, 251.006 218.828, 251.871 218.496 C 253.242 217.970, 253.255 217.763, 251.972 216.886 C 250.909 216.158, 251.472 216.034, 254 216.437 L 257.500 216.994 254 215.640 C 247.621 213.172, 246 212.826, 246 213.933 M 274 218 C 275.939 219.253, 277 219.253, 277 218 C 277 217.450, 275.988 217.007, 274.750 217.015 C 272.931 217.028, 272.787 217.216, 274 218 M 234.694 218.639 C 234.342 218.991, 234.282 219.647, 234.559 220.096 C 235.183 221.105, 238 220.120, 238 218.893 C 238 217.867, 235.647 217.686, 234.694 218.639 M 255 219 C 255 219.550, 255.450 220, 256 220 C 256.550 220, 257 219.550, 257 219 C 257 218.450, 256.550 218, 256 218 C 255.450 218, 255 218.450, 255 219 M 286.276 221.329 C 286.755 222.767, 290 223.518, 290 222.190 C 290 221.664, 289.074 220.991, 287.943 220.695 C 286.634 220.353, 286.028 220.584, 286.276 221.329 M 226.710 224 C 226.998 225.100, 227.631 226, 228.117 226 C 228.602 226, 229 225.100, 229 224 C 229 222.900, 228.367 222, 227.594 222 C 226.680 222, 226.370 222.700, 226.710 224 M 231 222.810 C 231 223.347, 231.713 224.059, 232.584 224.394 C 233.557 224.767, 234.015 224.544, 233.771 223.813 C 233.273 222.318, 231 221.495, 231 222.810 M 245.672 224.009 C 246.316 224.688, 246.606 225.864, 246.315 226.622 C 246.024 227.380, 246.401 228, 247.152 228 C 247.904 228, 249.122 228.966, 249.860 230.147 C 250.942 231.880, 251.371 232.025, 252.085 230.897 C 253.445 228.749, 253.192 228.166, 250.750 227.820 C 249.512 227.644, 248.725 227.050, 249 226.500 C 249.275 225.950, 249.725 225.561, 250 225.635 C 254.675 226.895, 255.303 226.890, 252.500 225.613 C 250.850 224.862, 248.375 223.916, 247 223.511 C 245.036 222.933, 244.751 223.040, 245.672 224.009 M 277.970 225.944 C 279.424 228.661, 281.081 229.488, 282.021 227.966 C 282.645 226.956, 283.206 227.063, 284.603 228.460 C 286.316 230.173, 286.413 230.172, 287.021 228.439 C 287.461 227.186, 287.879 226.995, 288.387 227.816 C 288.789 228.467, 289.856 229, 290.759 229 C 293.497 229, 290.823 227.173, 287 226.433 C 285.075 226.060, 282.722 225.669, 281.770 225.564 C 280.819 225.460, 279.732 225.065, 279.354 224.687 C 277.908 223.241, 276.977 224.088, 277.970 225.944 M 270 226.059 C 270 226.641, 270.450 226.840, 271 226.500 C 271.550 226.160, 272 225.684, 272 225.441 C 272 225.198, 271.550 225, 271 225 C 270.450 225, 270 225.477, 270 226.059 M 303 227 C 303 227.550, 303.927 228, 305.059 228 C 306.191 228, 306.840 227.550, 306.500 227 C 306.160 226.450, 305.234 226, 304.441 226 C 303.648 226, 303 226.450, 303 227 M 228.500 228 C 228.160 228.550, 228.359 229, 228.941 229 C 229.523 229, 230 228.550, 230 228 C 230 227.450, 229.802 227, 229.559 227 C 229.316 227, 228.840 227.450, 228.500 228 M 294.500 230 C 297.249 231.181, 298.828 231.181, 297 230 C 296.175 229.467, 294.825 229.055, 294 229.086 C 293.011 229.122, 293.181 229.433, 294.500 230 M 224 231 C 224 231.550, 224.675 232, 225.500 232 C 226.325 232, 227 231.550, 227 231 C 227 230.450, 226.325 230, 225.500 230 C 224.675 230, 224 230.450, 224 231 M 300 231.393 C 300 231.609, 300.675 232.045, 301.500 232.362 C 302.325 232.678, 303 232.501, 303 231.969 C 303 231.436, 302.325 231, 301.500 231 C 300.675 231, 300 231.177, 300 231.393 M 320.500 232 C 320.840 232.550, 321.766 233, 322.559 233 C 323.352 233, 324 232.550, 324 232 C 324 231.450, 323.073 231, 321.941 231 C 320.809 231, 320.160 231.450, 320.500 232 M 294 232.882 C 294 233.432, 294.450 234.160, 295 234.500 C 295.550 234.840, 296 234.668, 296 234.118 C 296 233.568, 295.550 232.840, 295 232.500 C 294.450 232.160, 294 232.332, 294 232.882 M 304.715 233.699 C 305.088 234.673, 305.530 234.910, 305.748 234.256 C 305.958 233.627, 306.888 233.355, 307.815 233.651 C 309.255 234.110, 309.282 234.032, 308 233.110 C 305.692 231.450, 303.970 231.759, 304.715 233.699 M 260 233.941 C 260 234.459, 260.375 235.114, 260.833 235.397 C 261.292 235.680, 261.667 235.257, 261.667 234.456 C 261.667 233.655, 261.292 233, 260.833 233 C 260.375 233, 260 233.423, 260 233.941 M 279.010 233.978 C 277.228 234.413, 276.892 234.815, 277.827 235.393 C 278.545 235.837, 279.399 235.934, 279.725 235.609 C 280.050 235.284, 280.920 235.519, 281.658 236.131 C 282.396 236.744, 283.034 237.077, 283.077 236.872 C 283.881 232.958, 283.705 232.833, 279.010 233.978 M 312.279 235.939 C 313.808 237.178, 315.683 237.952, 316.447 237.659 C 317.210 237.366, 318.080 237.765, 318.379 238.546 C 318.684 239.339, 319.604 239.706, 320.462 239.376 C 321.308 239.052, 322 239.247, 322 239.810 C 322 240.373, 321.460 241.013, 320.801 241.233 C 320.047 241.484, 320.229 241.874, 321.289 242.280 C 322.217 242.637, 322.928 242.607, 322.870 242.214 C 322.593 240.360, 323.153 240.011, 324.900 240.947 C 326.347 241.721, 326.939 241.601, 327.383 240.444 C 327.704 239.608, 327.411 238.761, 326.733 238.561 C 326.055 238.361, 322.599 237.430, 319.053 236.492 C 315.507 235.553, 311.907 234.539, 311.053 234.237 C 310.199 233.935, 310.751 234.701, 312.279 235.939 M 330.500 236 C 328.592 236.820, 328.603 236.863, 330.750 236.930 C 331.988 236.968, 333 236.550, 333 236 C 333 235.450, 332.887 235.032, 332.750 235.070 C 332.613 235.109, 331.600 235.527, 330.500 236 M 257 236.972 C 257 238.328, 258.777 239.170, 259.425 238.121 C 259.735 237.620, 259.316 236.952, 258.494 236.636 C 257.672 236.321, 257 236.472, 257 236.972 M 272.733 239.124 C 273.412 239.808, 274.219 240.115, 274.526 239.807 C 274.834 239.499, 274.279 238.940, 273.293 238.564 C 271.868 238.022, 271.753 238.136, 272.733 239.124 M 274 242.441 C 274 243.298, 274.450 244, 275 244 C 275.550 244, 276 243.577, 276 243.059 C 276 242.541, 275.550 241.840, 275 241.500 C 274.450 241.160, 274 241.584, 274 242.441 M 282 244.810 C 282 245.336, 282.926 246.009, 284.057 246.305 C 285.366 246.647, 285.972 246.416, 285.724 245.671 C 285.245 244.233, 282 243.482, 282 244.810 M 309.461 245.918 C 311.640 247.063, 314.363 248, 315.511 248 C 316.660 248, 318.196 248.563, 318.925 249.250 C 319.994 250.259, 320.163 250.211, 319.797 249 C 319.547 248.175, 318.254 247.344, 316.922 247.154 C 315.590 246.964, 314.050 246.453, 313.500 246.020 C 312.950 245.586, 310.925 244.917, 309 244.533 L 305.500 243.835 309.461 245.918 M 339.500 246.496 C 341.900 247.627, 342.100 247.931, 340.500 248.018 C 338.661 248.118, 338.682 248.200, 340.763 249.036 C 342.007 249.536, 344.414 249.667, 346.112 249.328 L 349.198 248.710 345.498 247.438 C 343.462 246.738, 340.605 245.922, 339.148 245.624 C 336.637 245.110, 336.655 245.155, 339.500 246.496 M 333.500 247 C 333.840 247.550, 334.316 248, 334.559 248 C 334.802 248, 335 247.550, 335 247 C 335 246.450, 334.523 246, 333.941 246 C 333.359 246, 333.160 246.450, 333.500 247 M 346.813 250.683 C 347.534 250.972, 348.397 250.936, 348.729 250.604 C 349.061 250.272, 348.471 250.036, 347.417 250.079 C 346.252 250.127, 346.015 250.364, 346.813 250.683 M 309.500 252.027 C 307.635 252.734, 307.621 252.835, 309.293 253.516 C 311.229 254.305, 312.424 253.689, 311.854 252.197 C 311.659 251.686, 310.600 251.610, 309.500 252.027 M 317.880 253.946 C 320.839 254.967, 323.645 256.410, 324.115 257.152 C 324.975 258.508, 325.102 258.281, 325.400 254.850 C 325.455 254.217, 324.375 253.555, 323 253.378 C 312.003 251.962, 312.103 251.951, 317.880 253.946 M 302 254.787 C 302 255.220, 302.910 255.643, 304.022 255.727 C 305.134 255.810, 305.782 255.456, 305.463 254.939 C 304.760 253.803, 302 253.681, 302 254.787 M 338 255 C 338 255.550, 338.450 256, 339 256 C 339.550 256, 340 255.550, 340 255 C 340 254.450, 339.550 254, 339 254 C 338.450 254, 338 254.450, 338 255 M 334 263.987 C 334 265.162, 336.848 266.054, 337.457 265.070 C 337.743 264.607, 337.083 263.993, 335.989 263.707 C 334.895 263.421, 334 263.547, 334 263.987" stroke="none" fill="#3467df" fill-rule="evenodd"/>
</svg>