<svg xmlns="http://www.w3.org/2000/svg" width="420" height="280" viewBox="0 0 420 280" version="1.1">
	<rect x="0" y="0" width="100%" height="100%" fill="#bfbfbf" />
	<path d="M 236 3.937 C 225.932 7.019, 219.319 12.999, 213.663 24.136 C 212.368 26.686, 205.094 37.261, 197.499 47.636 C 189.903 58.011, 182.507 68.142, 181.063 70.149 L 178.438 73.799 172.980 71.492 C 167.138 69.022, 166.006 69.205, 162.241 73.232 C 160.255 75.357, 160.116 76.035, 161.097 78.848 C 162.189 81.980, 160.932 85.971, 155.936 95.236 C 154.705 97.521, 154.755 98.926, 156 97 C 156.803 95.758, 156.972 95.845, 156.985 97.506 C 156.994 98.766, 158.118 100.007, 160.006 100.842 C 163.093 102.209, 163.199 104.012, 160.191 103.985 C 158.883 103.973, 158.802 103.778, 159.834 103.124 C 160.883 102.459, 160.783 102.131, 159.364 101.586 C 158.372 101.206, 157.878 101.211, 158.265 101.598 C 158.652 101.985, 158.273 102.811, 157.422 103.434 C 155.834 104.595, 156.528 104.867, 162.177 105.300 C 163.099 105.371, 163.635 105.782, 163.368 106.214 C 162.701 107.292, 163.720 107.199, 166.316 105.944 C 168.487 104.893, 168.487 104.898, 166.250 106.854 C 163.431 109.318, 163.444 109.468, 166.494 109.644 C 167.865 109.723, 168.724 109.362, 168.403 108.842 C 168.081 108.323, 169.482 108.592, 171.515 109.442 C 173.549 110.292, 175.615 110.738, 176.106 110.434 C 176.598 110.131, 177 110.359, 177 110.941 C 177 111.523, 176.352 112, 175.559 112 C 174.766 112, 173.793 112.526, 173.395 113.170 C 172.904 113.964, 173.224 114.128, 174.388 113.681 C 175.502 113.254, 175.865 113.409, 175.424 114.123 C 175.050 114.728, 175.351 115.599, 176.093 116.057 C 176.835 116.516, 177.159 117.174, 176.814 117.519 C 175.812 118.521, 170.170 115.186, 168.922 112.855 C 168.254 111.606, 167.519 111.161, 167.140 111.774 C 166.729 112.439, 165.649 112.135, 164.171 110.937 C 162.823 109.846, 162.154 108.560, 162.578 107.873 C 163.017 107.163, 162.881 106.956, 162.236 107.354 C 161.646 107.719, 158.557 107.338, 155.372 106.509 C 152.186 105.679, 149.279 105, 148.912 105 C 148.544 105, 145.078 109.211, 141.209 114.358 C 134.913 122.735, 134.197 124.148, 134.386 127.824 C 134.502 130.083, 134.937 132.270, 135.351 132.685 C 135.766 133.100, 135.809 132.665, 135.446 131.720 C 134.988 130.526, 135.286 130, 136.419 130 C 137.911 130, 137.918 130.258, 136.500 133 C 135.647 134.650, 134.709 136, 134.415 136 C 134.122 136, 134.203 135.480, 134.595 134.845 C 135.041 134.124, 134.869 133.963, 134.138 134.415 C 133.494 134.813, 133.214 135.537, 133.515 136.024 C 134.041 136.875, 129.525 142.268, 118.464 154 C 109.209 163.816, 106.102 167.601, 105.067 170.325 C 104.507 171.796, 104.449 173, 104.938 173 C 105.426 173, 105.317 174.350, 104.694 176 C 103.420 179.376, 101.634 179.852, 100.002 177.250 C 99.089 175.795, 99.020 175.921, 99.589 178 C 99.966 179.375, 100.488 181.068, 100.749 181.761 C 101.057 182.582, 100.660 182.807, 99.611 182.404 C 98.725 182.064, 98 181.358, 98 180.834 C 98 180.310, 97.550 180.160, 97 180.500 C 96.450 180.840, 96 181.568, 96 182.118 C 96 182.668, 96.508 182.804, 97.130 182.420 C 97.778 182.019, 98.087 182.239, 97.855 182.936 C 97.632 183.604, 97.011 184.208, 96.475 184.280 C 94.752 184.508, 90.871 188.982, 91.505 190.008 C 91.842 190.554, 91.615 191, 91 191 C 90.385 191, 90.129 191.399, 90.430 191.887 C 90.731 192.374, 90.308 193.329, 89.489 194.009 C 88.670 194.689, 88 194.974, 88 194.643 C 88 192.951, 91.473 185.348, 92.703 184.346 C 93.482 183.711, 93.725 182.948, 93.242 182.650 C 92.759 182.351, 90.645 185.121, 88.543 188.804 C 86.441 192.487, 82.743 197.636, 80.324 200.247 C 75.143 205.839, 75.291 206.534, 83.084 213.153 C 85.898 215.544, 90.293 219.451, 92.850 221.835 C 95.408 224.219, 99.290 227.093, 101.478 228.221 C 103.665 229.350, 107.082 231.350, 109.071 232.665 C 111.059 233.981, 113.382 234.791, 114.233 234.464 C 115.084 234.138, 118.849 229.962, 122.600 225.185 C 126.351 220.408, 132.731 212.563, 136.777 207.751 C 140.823 202.940, 145.591 196.865, 147.373 194.251 C 151.436 188.292, 181.382 146.708, 203.064 116.916 C 212.104 104.495, 222.650 89.727, 226.500 84.099 C 238.750 66.190, 250.048 50.743, 256.922 42.500 C 265.789 31.869, 268.629 27.956, 269.458 25.229 C 270.228 22.694, 269.105 22.082, 249.630 14.420 C 244.201 12.285, 239.534 9.950, 239.259 9.232 C 238.983 8.513, 239.487 7.119, 240.379 6.134 C 241.270 5.149, 242 4.040, 242 3.671 C 242 2.822, 239.243 2.945, 236 3.937 M 295.500 41.949 C 294.400 42.401, 292.259 44.172, 290.742 45.885 C 289.226 47.598, 287.323 49, 286.515 49 C 284.210 49, 281.695 53.632, 282.306 56.752 C 282.710 58.812, 282.194 60.186, 280.246 62.240 C 278.816 63.746, 277.939 65.273, 278.298 65.631 C 278.657 65.990, 279.790 65.247, 280.816 63.979 C 282.099 62.394, 282.907 62.040, 283.404 62.845 C 283.812 63.504, 283.445 64.276, 282.563 64.614 C 279.852 65.654, 280.854 66.721, 285.193 67.415 C 290.306 68.232, 298.109 72.344, 299.855 75.140 C 301.883 78.386, 300.626 78.368, 294.271 75.061 C 289.860 72.766, 287.576 72.135, 285.314 72.587 C 283.395 72.971, 281.122 72.597, 279.138 71.572 C 277.090 70.512, 276 70.342, 276 71.081 C 276 71.704, 275.366 71.971, 274.592 71.674 C 273.672 71.321, 272.950 72.062, 272.511 73.811 C 271.419 78.164, 269.991 79.332, 268.294 77.261 C 267.501 76.292, 267.137 76.063, 267.485 76.750 C 267.859 77.489, 267.474 78, 266.544 78 C 265.679 78, 264.151 79.348, 263.148 80.996 C 262.146 82.644, 261.122 83.789, 260.873 83.539 C 260.623 83.290, 260.355 83.941, 260.276 84.986 C 260.172 86.365, 260.595 86.721, 261.816 86.284 C 263.635 85.633, 263.515 85.799, 260.558 88.033 C 259.490 88.840, 258.925 88.985, 259.302 88.355 C 260.280 86.723, 257.362 85.859, 256.082 87.401 C 255.496 88.107, 255.276 88.943, 255.592 89.259 C 255.908 89.575, 255.213 90.787, 254.047 91.953 C 252.881 93.119, 252.238 94.576, 252.618 95.191 C 253.042 95.876, 252.856 96.029, 252.138 95.585 C 251.494 95.187, 251.286 94.330, 251.676 93.681 C 252.137 92.911, 251.831 92.948, 250.795 93.787 C 249.825 94.572, 249.424 95.904, 249.764 97.205 C 250.193 98.847, 249.961 99.199, 248.755 98.736 C 246.969 98.051, 243.986 100.891, 243.579 103.662 C 243.431 104.673, 242.790 105.556, 242.155 105.625 C 239.697 105.891, 239.547 106.061, 240.971 106.961 C 242.657 108.027, 242.003 109.030, 239.369 109.416 C 238.189 109.589, 237.559 110.524, 237.566 112.091 C 237.572 113.416, 236.574 115.299, 235.348 116.276 C 234.122 117.253, 232.836 118.940, 232.492 120.026 C 232.147 121.112, 231.415 122, 230.865 122 C 229.903 122, 233.054 116.921, 235.717 114.179 C 236.423 113.452, 237 112.568, 237 112.214 C 237 110.954, 234.021 114.643, 227.111 124.458 C 221.964 131.770, 220.377 134.749, 221.140 135.668 C 221.867 136.545, 221.684 139.096, 220.528 144.178 C 218.588 152.705, 218.022 151.895, 230.250 158.094 L 238 162.022 238 158.546 C 238 153.476, 242.722 148.505, 249.596 146.338 C 256.137 144.276, 257.030 143.349, 260.511 135 C 268.427 116.013, 286.956 93.109, 299.500 86.804 C 303.341 84.873, 305.329 83.024, 308.608 78.331 C 309.985 76.361, 309.933 75.790, 308.041 72.081 C 306.896 69.837, 305.463 68, 304.857 68 C 304.070 68, 304.080 68.391, 304.890 69.367 C 305.752 70.406, 305.670 71.029, 304.548 71.960 C 303.291 73.003, 303.129 72.730, 303.459 70.123 C 303.791 67.498, 303.264 66.632, 299.773 64.064 C 297.532 62.416, 295.247 61.347, 294.695 61.689 C 294.143 62.030, 293.981 61.840, 294.334 61.268 C 294.688 60.695, 294.354 59.709, 293.592 59.077 C 291.732 57.533, 292.696 54.313, 295.216 53.654 C 296.804 53.239, 297.113 52.586, 296.631 50.666 C 295.544 46.336, 299.936 45.826, 307.594 49.392 C 311.761 51.332, 312.990 52.517, 314.344 55.902 C 316.348 60.909, 316.482 66.848, 314.653 69.527 C 312.602 72.532, 310.709 86.516, 311.498 92.834 C 312.351 99.659, 313.676 103.318, 314.998 102.501 C 315.549 102.161, 316 102.343, 316 102.906 C 316 104.387, 319.902 106.252, 321.621 105.592 C 322.761 105.154, 322.847 104.582, 322.008 103.015 C 321.373 101.828, 321.321 101, 321.881 101 C 322.405 101, 323.010 101.530, 323.226 102.177 C 323.940 104.320, 326.201 101.833, 325.739 99.413 C 325.465 97.984, 325.687 97.307, 326.303 97.687 C 326.977 98.104, 327.120 94.590, 326.729 87.175 C 326.120 75.648, 325.090 71.474, 323.972 76.010 C 323.553 77.706, 323.116 76.133, 322.602 71.081 C 321.481 60.082, 318.883 54.125, 312.628 48.209 C 306.215 42.145, 300.292 39.980, 295.500 41.949 M 269 76 C 269 76.550, 269.450 77, 270 77 C 270.550 77, 271 76.550, 271 76 C 271 75.450, 270.550 75, 270 75 C 269.450 75, 269 75.450, 269 76 M 170.315 77.066 C 169.114 77.517, 167.653 78.780, 167.069 79.872 C 166.157 81.575, 166.453 82.079, 169.157 83.428 C 172.783 85.237, 173.332 85.346, 172.565 84.105 C 171.972 83.145, 174.951 81.617, 175.786 82.452 C 176.060 82.727, 175.658 83.724, 174.893 84.668 C 174.127 85.612, 174.024 86.070, 174.665 85.686 C 175.305 85.302, 176.016 85.549, 176.245 86.235 C 176.546 87.137, 177.143 87, 178.402 85.741 C 180.366 83.777, 181.467 83.435, 180.431 85.112 C 180.053 85.723, 180.364 86.666, 181.122 87.206 C 182.189 87.967, 182.105 88.062, 180.750 87.626 C 179.787 87.316, 179 87.499, 179 88.031 C 179 88.564, 179.900 89, 181 89 C 182.100 89, 183 89.402, 183 89.893 C 183 90.384, 183.762 91.079, 184.694 91.436 C 186.238 92.029, 186.233 91.915, 184.629 90.142 C 183.310 88.685, 183.175 88.010, 184.089 87.445 C 184.905 86.941, 185.051 87.109, 184.529 87.953 C 183.948 88.893, 184.328 89.031, 186.021 88.493 C 187.980 87.872, 188.217 88.063, 187.740 89.888 C 187.435 91.051, 187.595 91.751, 188.093 91.442 C 188.592 91.134, 189 91.601, 189 92.480 C 189 93.832, 189.321 93.779, 191.091 92.130 C 194.736 88.734, 193.425 86.846, 183.832 81.674 C 181.836 80.598, 180.855 80.521, 179.936 81.368 C 179.013 82.218, 178.877 82.198, 179.389 81.288 C 180.421 79.454, 173.066 76.031, 170.315 77.066 M 168 81.059 C 168 81.641, 168.450 81.840, 169 81.500 C 169.550 81.160, 170 80.684, 170 80.441 C 170 80.198, 169.550 80, 169 80 C 168.450 80, 168 80.477, 168 81.059 M 170.584 81.641 C 170.057 83.014, 170.204 83.076, 171.477 82.019 C 173.212 80.579, 173.393 80, 172.107 80 C 171.616 80, 170.931 80.739, 170.584 81.641 M 265.079 83.583 C 265.127 84.748, 265.364 84.985, 265.683 84.188 C 265.972 83.466, 265.936 82.603, 265.604 82.271 C 265.272 81.939, 265.036 82.529, 265.079 83.583 M 314 89.500 C 314 92.833, 314.389 94, 315.500 94 C 317.327 94, 317.421 95.128, 315.750 97.002 C 314.710 98.168, 314.758 98.211, 316.034 97.259 C 317.474 96.184, 320.275 96.947, 320.085 98.362 C 320.038 98.713, 320.337 98.888, 320.750 98.750 C 321.646 98.451, 321.584 93.928, 320.613 88.749 C 319.988 85.422, 319.577 85, 316.955 85 C 314.120 85, 314 85.182, 314 89.500 M 189 86.393 C 189 86.609, 189.698 87.054, 190.552 87.382 C 191.442 87.723, 191.843 87.555, 191.493 86.989 C 190.906 86.038, 189 85.583, 189 86.393 M 271.079 87.583 C 271.127 88.748, 271.364 88.985, 271.683 88.188 C 271.972 87.466, 271.936 86.603, 271.604 86.271 C 271.272 85.939, 271.036 86.529, 271.079 87.583 M 256.675 87.658 C 256.313 88.020, 256.519 88.920, 257.131 89.658 C 258.460 91.259, 256.424 94.380, 254.732 93.334 C 254.155 92.978, 253.987 93.170, 254.355 93.765 C 254.720 94.356, 254.452 95.438, 253.759 96.171 C 253.067 96.903, 250.709 99.752, 248.521 102.501 C 246.332 105.251, 243.942 108.122, 243.209 108.883 C 242.088 110.047, 242.798 110.878, 247.688 114.130 C 250.885 116.255, 253.803 117.995, 254.173 117.997 C 254.777 118, 268.380 101.397, 270.268 98.351 C 271.175 96.889, 267.390 93, 265.061 93 C 264.203 93, 262.239 94.580, 260.698 96.512 C 258.227 99.609, 258.097 100.100, 259.593 100.674 C 260.658 101.083, 261.790 100.640, 262.634 99.485 C 264.622 96.768, 265.433 98.410, 263.534 101.308 C 261.819 103.925, 259.970 103.961, 256.571 101.445 C 254.723 100.078, 254.821 99.856, 258.902 96.199 C 262.677 92.817, 262.983 92.231, 261.582 91.068 C 260.712 90.346, 260 90.090, 260 90.500 C 260 90.910, 259.330 90.689, 258.511 90.009 C 257.692 89.329, 257.269 88.374, 257.570 87.887 C 258.210 86.851, 257.630 86.703, 256.675 87.658 M 273.624 89.539 C 273.281 90.432, 273.029 91.689, 273.063 92.332 C 273.098 92.974, 273.558 92.422, 274.085 91.105 C 274.612 89.787, 274.864 88.531, 274.645 88.312 C 274.426 88.093, 273.966 88.645, 273.624 89.539 M 324 91 C 324 92.100, 324.408 93, 324.906 93 C 325.405 93, 325.577 92.100, 325.290 91 C 325.002 89.900, 324.594 89, 324.383 89 C 324.173 89, 324 89.900, 324 91 M 263.500 91 C 263.160 91.550, 263.359 92, 263.941 92 C 264.523 92, 265 91.550, 265 91 C 265 90.450, 264.802 90, 264.559 90 C 264.316 90, 263.840 90.450, 263.500 91 M 246.278 100.250 C 244.324 102.777, 243.657 104.330, 244.840 103.599 C 246.024 102.867, 248.393 99, 247.658 99 C 247.431 99, 246.810 99.563, 246.278 100.250 M 250.159 105.999 C 247.779 109.219, 247.539 110, 248.932 110 C 250.330 110, 254.169 104.222, 253.177 103.609 C 252.705 103.317, 251.346 104.393, 250.159 105.999 M 254.475 109.212 C 252.582 111.462, 252.160 112.553, 253.066 112.855 C 254.274 113.258, 258.984 108.408, 258.995 106.750 C 259.006 105.097, 257.034 106.171, 254.475 109.212 M 169 110.834 C 169 112.555, 170.864 113.178, 172.742 112.085 C 173.709 111.521, 173.974 111.047, 173.332 111.030 C 172.689 111.014, 171.452 110.727, 170.582 110.393 C 169.712 110.059, 169 110.258, 169 110.834 M 151.872 122.750 C 150.629 124.336, 150.664 124.371, 152.250 123.128 C 153.213 122.373, 154 121.585, 154 121.378 C 154 120.555, 153.179 121.084, 151.872 122.750 M 157.750 122.662 C 158.438 122.940, 159.563 122.940, 160.250 122.662 C 160.938 122.385, 160.375 122.158, 159 122.158 C 157.625 122.158, 157.063 122.385, 157.750 122.662 M 228.200 124.200 C 227.540 124.860, 227.014 125.873, 227.030 126.450 C 227.047 127.028, 227.525 126.703, 228.092 125.729 C 228.659 124.755, 229.615 124.262, 230.216 124.633 C 230.871 125.038, 231.023 124.847, 230.595 124.155 C 229.713 122.727, 229.673 122.727, 228.200 124.200 M 223.299 131.424 C 221.439 134.296, 221.331 134.913, 222.601 135.400 C 223.458 135.729, 223.839 135.549, 223.489 134.982 C 223.150 134.434, 223.833 132.639, 225.005 130.993 C 226.177 129.347, 226.768 128.006, 226.318 128.012 C 225.868 128.019, 224.509 129.554, 223.299 131.424 M 314.250 132.031 C 311.567 133.109, 311.471 133.758, 313.640 136.155 C 315.164 137.839, 315.137 138.341, 313.265 143.234 C 311.448 147.979, 310.965 148.485, 308.375 148.352 C 305.350 148.195, 296.119 150.678, 294.623 152.050 C 294.134 152.498, 294.717 154.424, 295.942 156.406 L 298.137 159.958 294.819 163.287 C 291.765 166.350, 279.934 173.930, 265.750 181.911 C 262.587 183.691, 260 185.365, 260 185.632 C 260 185.900, 260.563 185.780, 261.250 185.367 C 262.111 184.850, 262.077 185.138, 261.138 186.295 C 259.801 187.943, 260.181 191.012, 261.719 190.987 C 262.148 190.980, 269.687 186.705, 278.472 181.487 C 287.257 176.269, 295.321 172, 296.393 172 C 297.465 172, 299.147 172.728, 300.131 173.619 C 302.617 175.868, 305.945 174.807, 311.506 169.995 C 316.744 165.462, 317.389 165.346, 324.101 167.729 C 328.580 169.320, 329.099 169.330, 330.583 167.846 C 331.878 166.551, 331.969 165.811, 331.047 164.089 C 330.416 162.909, 329.503 162.189, 329.019 162.488 C 328.535 162.788, 327.883 162.620, 327.571 162.115 C 326.650 160.625, 319.656 161.182, 317.648 162.905 C 315.910 164.397, 315.818 164.341, 316.148 161.997 C 316.482 159.629, 316.874 159.485, 323.745 159.206 L 330.991 158.913 332.681 162.457 L 334.371 166 336.685 163.826 C 340.591 160.156, 339.545 155.879, 332.205 145.500 C 327.276 138.531, 319.873 130.988, 318.038 131.063 C 317.192 131.098, 315.488 131.534, 314.250 132.031 M 323.145 145.890 C 322.028 146.597, 322.092 147.211, 323.510 149.374 C 325.474 152.373, 326.269 152.586, 327.947 150.564 C 328.832 149.498, 328.854 148.596, 328.034 147.064 C 326.857 144.863, 325.339 144.499, 323.145 145.890 M 205.667 148.667 C 204.544 149.789, 204.926 152.807, 206.250 153.282 C 206.938 153.528, 208.293 153.322, 209.263 152.823 C 210.657 152.105, 210.807 151.507, 209.978 149.958 C 208.932 148.004, 206.929 147.404, 205.667 148.667 M 198 150.550 C 198 150.842, 198.958 152.377, 200.129 153.960 C 201.539 155.868, 202.057 157.636, 201.664 159.202 C 201.338 160.502, 197.429 167.065, 192.979 173.787 C 188.528 180.509, 185.171 186.467, 185.518 187.029 C 185.865 187.590, 185.617 187.926, 184.967 187.775 C 183.686 187.477, 175.905 198.464, 161.791 220.500 C 153.289 233.775, 138.824 261.500, 137.484 267.092 L 136.863 269.684 142.528 268.915 C 145.644 268.492, 148.937 267.409, 149.847 266.508 C 150.756 265.607, 155.236 262.789, 159.803 260.246 C 165.650 256.989, 170.193 253.423, 175.164 248.190 C 183.034 239.905, 192 226.662, 192 223.321 C 192 222.123, 192.675 220.468, 193.500 219.643 C 194.325 218.818, 195 217.769, 195 217.311 C 195 216.854, 196.125 215.266, 197.500 213.783 C 198.875 212.301, 200 210.618, 200 210.044 C 200 209.470, 200.525 209, 201.167 209 C 201.808 209, 202.046 208.713, 201.695 208.361 C 201.142 207.809, 202.228 206.163, 207.015 200.292 C 207.557 199.628, 208 198.413, 208 197.592 C 208 196.771, 208.628 195.740, 209.396 195.300 C 210.163 194.860, 211.784 192.588, 212.997 190.250 C 214.210 187.912, 215.558 186, 215.993 186 C 216.427 186, 217.077 184.828, 217.437 183.395 C 217.946 181.365, 218.549 180.910, 220.169 181.334 C 221.381 181.651, 223.341 181.081, 224.873 179.966 C 227.039 178.391, 228.191 178.215, 231.439 178.965 C 237.375 180.336, 243.430 178.620, 240.044 176.527 C 239.518 176.202, 239.299 175.383, 239.559 174.708 C 239.850 173.949, 238.018 172.771, 234.765 171.624 C 225.517 168.364, 215.407 162.890, 206.582 156.364 C 201.862 152.874, 198 150.257, 198 150.550 M 226.362 162.500 C 225.569 164.564, 226.644 167, 228.346 167 C 229.121 167, 230.315 166.325, 231 165.500 C 231.993 164.303, 231.993 163.697, 231 162.500 C 230.315 161.675, 229.121 161, 228.346 161 C 227.571 161, 226.678 161.675, 226.362 162.500 M 103.459 165.067 C 103.096 165.653, 103.014 166.348, 103.276 166.610 C 103.538 166.872, 104.019 166.392, 104.345 165.543 C 105.021 163.781, 104.445 163.471, 103.459 165.067 M 197.536 171.125 C 195.272 174.546, 195.071 175.395, 196.188 176.823 C 197.342 178.298, 197.305 178.348, 195.876 177.233 C 194.503 176.161, 193.996 176.358, 192.585 178.511 C 191.667 179.911, 191.230 181.563, 191.613 182.183 C 192.039 182.873, 191.859 183.031, 191.147 182.591 C 190.488 182.184, 189.710 182.593, 189.347 183.538 C 188.152 186.653, 191.309 187.139, 193.708 184.210 C 194.929 182.720, 195.944 181.144, 195.964 180.708 C 195.984 180.273, 196.828 179.028, 197.840 177.941 C 198.852 176.855, 200.314 174.736, 201.088 173.233 C 201.863 171.730, 202.817 170.260, 203.209 169.966 C 203.600 169.672, 203.082 168.908, 202.058 168.268 C 200.441 167.259, 199.846 167.635, 197.536 171.125 M 97.997 173.250 C 96.525 175.261, 96.283 175.960, 97.363 175.082 C 99.003 173.751, 101.483 170, 100.723 170 C 100.532 170, 99.305 171.463, 97.997 173.250 M 100 174.378 C 100 174.585, 100.787 175.373, 101.750 176.128 C 103.336 177.371, 103.371 177.336, 102.128 175.750 C 100.821 174.084, 100 173.555, 100 174.378 M 98.667 184.667 C 98.300 185.033, 98 185.798, 98 186.367 C 98 186.993, 98.466 186.934, 99.183 186.217 C 99.834 185.566, 100.134 184.801, 99.850 184.517 C 99.566 184.232, 99.033 184.300, 98.667 184.667 M 187 188.892 C 187 189.566, 186.645 189.899, 186.212 189.631 C 185.779 189.363, 185.334 190.237, 185.223 191.572 C 185.113 192.907, 185.254 194, 185.536 194 C 186.334 194, 188.122 188.789, 187.528 188.195 C 187.238 187.904, 187 188.218, 187 188.892 M 188 192.441 C 188 193.234, 188.408 194.134, 188.907 194.442 C 189.405 194.751, 189.578 194.102, 189.290 193.001 C 188.679 190.666, 188 190.371, 188 192.441 M 117 193 C 117 193.550, 117.450 194, 118 194 C 118.550 194, 119 193.550, 119 193 C 119 192.450, 118.550 192, 118 192 C 117.450 192, 117 192.450, 117 193 M 181.511 193.982 C 181.185 194.510, 182.037 195.222, 183.404 195.565 C 184.771 195.908, 186.087 196.934, 186.329 197.845 C 186.729 199.354, 186.778 199.356, 186.884 197.865 C 187.022 195.922, 182.384 192.570, 181.511 193.982 M 108.500 200 C 108.160 200.550, 108.332 201, 108.882 201 C 109.432 201, 110.160 200.550, 110.500 200 C 110.840 199.450, 110.668 199, 110.118 199 C 109.568 199, 108.840 199.450, 108.500 200 M 115.507 199.989 C 115.157 200.555, 115.558 200.723, 116.448 200.382 C 118.180 199.717, 118.497 199, 117.059 199 C 116.541 199, 115.843 199.445, 115.507 199.989" stroke="none" fill="#3467df" fill-rule="evenodd"/>
</svg>