<svg xmlns="http://www.w3.org/2000/svg" width="32" height="16" viewBox="0 0 32 16" version="1.1">
	<rect x="0" y="0" width="100%" height="100%" fill="#bfbfbf" />
	<path d="M -0 1.583 C -0 2.454, 0.534 2.989, 1.187 2.771 C 3.042 2.153, 3.349 -0, 1.583 -0 C 0.712 -0, -0 0.712, -0 1.583 M 4.274 0.607 C 4.487 0.820, 5.766 1.086, 7.116 1.198 C 8.696 1.328, 9.571 2.016, 9.571 3.127 C 9.571 4.076, 9.218 4.635, 8.786 4.368 C 6.683 3.068, 8.396 5.991, 11.500 9 C 13.425 10.866, 15 12.996, 15 13.735 C 15 14.473, 13.164 13.260, 10.921 11.039 C 8.677 8.817, 6.682 7, 6.486 7 C 6.290 7, 4.950 7.449, 3.508 7.997 C 2.066 8.545, 1.080 8.658, 1.318 8.247 C 1.555 7.836, 1.420 6.600, 1.017 5.500 C 0.555 4.237, 0.231 5.803, 0.138 9.750 L -0.010 16 14.691 16 L 29.392 16 26.112 12.616 C 23.907 10.341, 22.202 9.396, 20.911 9.734 C 16.662 10.845, 14.153 4.642, 17.750 1.921 C 18.941 1.020, 19.148 0.997, 18.399 1.850 C 17.793 2.539, 17.514 4.239, 17.780 5.627 C 18.173 7.688, 18.686 8.045, 20.571 7.572 C 22.293 7.139, 23.839 7.870, 26.654 10.449 C 31.635 15.013, 32.401 14.019, 27.650 9.154 C 25.140 6.583, 24.139 4.801, 24.572 3.672 C 25.069 2.379, 24.637 2, 22.666 2 C 21.265 2, 19.839 1.549, 19.499 0.998 C 19.158 0.446, 15.506 0.046, 11.383 0.108 C 7.260 0.170, 4.061 0.395, 4.274 0.607 M 25.800 1.200 C 27.304 2.704, 27.386 5.357, 25.900 4.438 C 24.011 3.270, 26.564 7.264, 29.408 9.924 L 32 12.349 32 6.174 L 32 0 28.300 0 C 25.422 0, 24.867 0.267, 25.800 1.200 M 18.629 2.791 C 17.904 3.964, 20.756 6.578, 21.715 5.619 C 22.081 5.252, 21.673 4.245, 20.809 3.380 C 19.874 2.445, 18.991 2.206, 18.629 2.791 M 3 4 C 3 4.550, 3.450 5, 4 5 C 4.550 5, 5 4.550, 5 4 C 5 3.450, 4.550 3, 4 3 C 3.450 3, 3 3.450, 3 4" stroke="none" fill="blue" fill-rule="evenodd"/>
</svg>