<svg xmlns="http://www.w3.org/2000/svg" width="32" height="16" viewBox="0 0 32 16" version="1.1">
	<rect x="0" y="0" width="100%" height="100%" fill="#bfbfbf" />
	<path d="M 0.568 1.110 C 0.778 1.449, 3.042 1.603, 5.599 1.453 L 10.249 1.178 5.610 5.888 L 0.971 10.598 3.781 13.291 L 6.592 15.983 11.304 11.199 C 15.065 7.380, 15.764 6.164, 14.769 5.169 C 14.084 4.484, 13.518 3.153, 13.512 2.212 C 13.502 0.769, 12.454 0.499, 6.843 0.497 C 3.182 0.495, 0.358 0.771, 0.568 1.110 M 6.691 5.806 L 1.958 10.612 4.282 12.795 L 6.605 14.978 10.851 10.652 C 14.498 6.936, 14.887 6.151, 13.608 5.090 C 12.789 4.410, 12.365 3.212, 12.666 2.427 C 13.706 -0.283, 11.409 1.016, 6.691 5.806 M 8.333 9.651 C 8.333 10.635, 8.670 10.689, 9.667 9.862 C 10.400 9.253, 11 8.660, 11 8.544 C 11 8.428, 10.400 8.333, 9.667 8.333 C 8.933 8.333, 8.333 8.926, 8.333 9.651 M 4 10.544 C 4 10.660, 4.600 11.253, 5.333 11.862 C 6.330 12.689, 6.667 12.635, 6.667 11.651 C 6.667 10.926, 6.067 10.333, 5.333 10.333 C 4.600 10.333, 4 10.428, 4 10.544" stroke="none" fill="blue" fill-rule="evenodd"/>
</svg>