<svg xmlns="http://www.w3.org/2000/svg" width="32" height="16" viewBox="0 0 32 16" version="1.1">
	<rect x="0" y="0" width="100%" height="100%" fill="#bfbfbf" />
	<path d="M 2.455 2.455 C 1.105 3.805, 0 6.075, 0 7.500 C 0 10.834, 4.166 15, 7.500 15 C 8.925 15, 11.195 13.895, 12.545 12.545 C 15.674 9.417, 15.674 5.583, 12.545 2.455 C 11.195 1.105, 8.925 0, 7.500 0 C 6.075 0, 3.805 1.105, 2.455 2.455 M 3 3 C -0.961 6.961, 1.919 14, 7.500 14 C 13.081 14, 15.961 6.961, 12 3 C 9.443 0.443, 5.557 0.443, 3 3 M 6.813 2.683 C 7.534 2.972, 8.397 2.936, 8.729 2.604 C 9.061 2.272, 8.471 2.036, 7.417 2.079 C 6.252 2.127, 6.015 2.364, 6.813 2.683 M 3.916 3.750 C 3.871 3.888, 3.796 5.650, 3.750 7.667 C 3.668 11.266, 3.737 11.333, 7.500 11.333 C 11.274 11.333, 11.333 11.275, 11.333 7.520 C 11.333 3.815, 11.230 3.704, 7.666 3.604 C 5.649 3.547, 3.962 3.612, 3.916 3.750 M 5.380 6.452 C 4.375 9.070, 6.028 10.284, 8.076 8.431 C 9.108 7.497, 9.712 6.343, 9.417 5.866 C 8.566 4.488, 5.990 4.862, 5.380 6.452 M 2.079 7.583 C 2.127 8.748, 2.364 8.985, 2.683 8.188 C 2.972 7.466, 2.936 6.603, 2.604 6.271 C 2.272 5.939, 2.036 6.529, 2.079 7.583 M 12.079 7.583 C 12.127 8.748, 12.364 8.985, 12.683 8.188 C 12.972 7.466, 12.936 6.603, 12.604 6.271 C 12.272 5.939, 12.036 6.529, 12.079 7.583 M 6.813 12.683 C 7.534 12.972, 8.397 12.936, 8.729 12.604 C 9.061 12.272, 8.471 12.036, 7.417 12.079 C 6.252 12.127, 6.015 12.364, 6.813 12.683" stroke="none" fill="blue" fill-rule="evenodd"/>
</svg>