<svg xmlns="http://www.w3.org/2000/svg" width="32" height="16" viewBox="0 0 32 16" version="1.1">
	<rect x="0" y="0" width="100%" height="100%" fill="#bfbfbf" />
	<path d="M 2.455 2.455 C 1.105 3.805, 0 6.075, 0 7.500 C 0 10.834, 4.166 15, 7.500 15 C 8.925 15, 11.195 13.895, 12.545 12.545 C 15.674 9.417, 15.674 5.583, 12.545 2.455 C 11.195 1.105, 8.925 0, 7.500 0 C 6.075 0, 3.805 1.105, 2.455 2.455 M 3 3 C -0.961 6.961, 1.919 14, 7.500 14 C 13.081 14, 15.961 6.961, 12 3 C 9.443 0.443, 5.557 0.443, 3 3 M 4 4 C 2.900 5.100, 2 6.675, 2 7.500 C 2 9.438, 5.562 13, 7.500 13 C 9.438 13, 13 9.438, 13 7.500 C 13 6.675, 12.100 5.100, 11 4 C 9.900 2.900, 8.325 2, 7.500 2 C 6.675 2, 5.100 2.900, 4 4 M 5.364 6.493 C 5.018 7.396, 5.214 8.614, 5.800 9.200 C 7.324 10.724, 10.210 9.331, 9.812 7.265 C 9.369 4.963, 6.165 4.407, 5.364 6.493" stroke="none" fill="blue" fill-rule="evenodd"/>
</svg>