<svg xmlns="http://www.w3.org/2000/svg" width="32" height="16" viewBox="0 0 32 16" version="1.1">
	<rect x="0" y="0" width="100%" height="100%" fill="#bfbfbf" />
	<path d="M 0 8 L 0 16 10.923 16 L 21.846 16 18.923 13.077 C 17.315 11.469, 16 9.094, 16 7.799 C 16 4.621, 18.843 0.726, 20.656 1.421 C 21.464 1.731, 21.834 1.540, 21.493 0.989 C 21.153 0.439, 16.242 0, 10.441 0 L 0 0 0 8 M 27.214 1.060 C 28.157 1.609, 29.619 3.046, 30.464 4.252 C 31.981 6.418, 32 6.406, 32 3.223 C 32 0.247, 31.751 0.002, 28.750 0.030 C 26.101 0.055, 25.817 0.246, 27.214 1.060 M 3 3 C -0.961 6.961, 1.919 14, 7.500 14 C 13.081 14, 15.961 6.961, 12 3 C 9.443 0.443, 5.557 0.443, 3 3 M 4 4 C 2.900 5.100, 2 6.675, 2 7.500 C 2 9.438, 5.562 13, 7.500 13 C 9.438 13, 13 9.438, 13 7.500 C 13 6.675, 12.100 5.100, 11 4 C 9.900 2.900, 8.325 2, 7.500 2 C 6.675 2, 5.100 2.900, 4 4 M 26.218 3.062 C 27.163 3.613, 28.387 4.837, 28.938 5.782 C 29.489 6.727, 29.953 6.970, 29.970 6.321 C 30.009 4.798, 27.202 1.991, 25.679 2.030 C 25.030 2.047, 25.273 2.511, 26.218 3.062 M 5.364 6.493 C 5.018 7.396, 5.214 8.614, 5.800 9.200 C 7.324 10.724, 10.210 9.331, 9.812 7.265 C 9.369 4.963, 6.165 4.407, 5.364 6.493 M 22.345 7.543 C 22.019 8.392, 22.014 9.347, 22.333 9.667 C 23.342 10.676, 26 9.128, 26 7.531 C 26 5.535, 23.112 5.545, 22.345 7.543 M 18.030 9.679 C 17.991 11.202, 20.798 14.009, 22.321 13.970 C 22.970 13.953, 22.727 13.489, 21.782 12.938 C 20.837 12.387, 19.613 11.163, 19.062 10.218 C 18.511 9.273, 18.047 9.030, 18.030 9.679 M 30.557 11.288 C 31.235 13.054, 28.480 15.415, 26.889 14.432 C 26.131 13.963, 25.953 14.115, 26.405 14.845 C 26.797 15.480, 28.216 16, 29.559 16 C 31.480 16, 32 15.480, 32 13.559 C 32 12.216, 31.555 10.843, 31.011 10.507 C 30.468 10.171, 30.263 10.522, 30.557 11.288" stroke="none" fill="blue" fill-rule="evenodd"/>
</svg>