<svg xmlns="http://www.w3.org/2000/svg" width="32" height="16" viewBox="0 0 32 16" version="1.1">
	<rect x="0" y="0" width="100%" height="100%" fill="#bfbfbf" />
	<path d="M 0 8 L 0 16 10.923 16 L 21.846 16 18.923 13.077 C 17.315 11.469, 16 9.094, 16 7.799 C 16 4.621, 18.843 0.726, 20.656 1.421 C 21.464 1.731, 21.834 1.540, 21.493 0.989 C 21.153 0.439, 16.242 0, 10.441 0 L 0 0 0 8 M 27.214 1.060 C 28.157 1.609, 29.619 3.046, 30.464 4.252 C 31.981 6.418, 32 6.406, 32 3.223 C 32 0.247, 31.751 0.002, 28.750 0.030 C 26.101 0.055, 25.817 0.246, 27.214 1.060 M 3 3 C -0.961 6.961, 1.919 14, 7.500 14 C 13.081 14, 15.961 6.961, 12 3 C 9.443 0.443, 5.557 0.443, 3 3 M 6.813 2.683 C 7.534 2.972, 8.397 2.936, 8.729 2.604 C 9.061 2.272, 8.471 2.036, 7.417 2.079 C 6.252 2.127, 6.015 2.364, 6.813 2.683 M 22.828 3.136 C 20.699 3.916, 18 8.076, 18 10.578 C 18 11.358, 21.291 14, 22.263 14 C 22.878 14, 22.509 13.318, 21.441 12.485 C 19.587 11.037, 19.617 10.996, 22.106 11.557 C 25.637 12.353, 28.353 9.637, 27.557 6.106 C 26.996 3.617, 27.037 3.587, 28.485 5.441 C 29.318 6.509, 30 6.878, 30 6.263 C 30 5.001, 27.220 1.958, 26.179 2.079 C 25.805 2.122, 24.298 2.598, 22.828 3.136 M 3.916 3.750 C 3.871 3.888, 3.796 5.650, 3.750 7.667 C 3.668 11.266, 3.737 11.333, 7.500 11.333 C 11.274 11.333, 11.333 11.275, 11.333 7.520 C 11.333 3.815, 11.230 3.704, 7.666 3.604 C 5.649 3.547, 3.962 3.612, 3.916 3.750 M 23.235 4.037 C 21.056 4.912, 18.384 9.718, 19.472 10.805 C 19.762 11.096, 20 10.805, 20 10.158 C 20 9.279, 20.500 9.296, 21.984 10.222 C 23.633 11.252, 24.262 11.166, 25.714 9.714 C 27.139 8.289, 27.241 7.616, 26.267 6.055 C 25.337 4.567, 25.342 4.033, 26.286 3.650 C 26.954 3.379, 27.050 3.151, 26.500 3.142 C 25.950 3.134, 24.481 3.536, 23.235 4.037 M 5.364 6.493 C 5.018 7.396, 5.214 8.614, 5.800 9.200 C 7.324 10.724, 10.210 9.331, 9.812 7.265 C 9.369 4.963, 6.165 4.407, 5.364 6.493 M 2.079 7.583 C 2.127 8.748, 2.364 8.985, 2.683 8.188 C 2.972 7.466, 2.936 6.603, 2.604 6.271 C 2.272 5.939, 2.036 6.529, 2.079 7.583 M 12.079 7.583 C 12.127 8.748, 12.364 8.985, 12.683 8.188 C 12.972 7.466, 12.936 6.603, 12.604 6.271 C 12.272 5.939, 12.036 6.529, 12.079 7.583 M 22.345 7.543 C 22.019 8.392, 22.014 9.347, 22.333 9.667 C 23.342 10.676, 26 9.128, 26 7.531 C 26 5.535, 23.112 5.545, 22.345 7.543 M 30.557 11.288 C 31.235 13.054, 28.480 15.415, 26.889 14.432 C 26.131 13.963, 25.953 14.115, 26.405 14.845 C 26.797 15.480, 28.216 16, 29.559 16 C 31.480 16, 32 15.480, 32 13.559 C 32 12.216, 31.555 10.843, 31.011 10.507 C 30.468 10.171, 30.263 10.522, 30.557 11.288 M 6.813 12.683 C 7.534 12.972, 8.397 12.936, 8.729 12.604 C 9.061 12.272, 8.471 12.036, 7.417 12.079 C 6.252 12.127, 6.015 12.364, 6.813 12.683" stroke="none" fill="blue" fill-rule="evenodd"/>
</svg>