<svg xmlns="http://www.w3.org/2000/svg" width="32" height="16" viewBox="0 0 32 16" version="1.1">
	<rect x="0" y="0" width="100%" height="100%" fill="#bfbfbf" />
	<path d="M 6.447 2.059 C 4.457 4.258, 5.054 6.370, 8.233 8.375 C 11.632 10.519, 14.782 4.182, 11.800 1.200 C 10.073 -0.527, 8.569 -0.286, 6.447 2.059 M 7.354 2.521 C 6.401 5.004, 7.484 7.500, 9.514 7.500 C 12.235 7.500, 12.398 1.822, 9.688 1.425 C 8.692 1.278, 7.641 1.772, 7.354 2.521 M 8 4.622 C 8 6.850, 8.228 7.056, 9.512 5.990 C 10.663 5.035, 10.753 4.407, 9.890 3.367 C 8.293 1.443, 8 1.637, 8 4.622 M 0.398 7.405 C 0.102 8.177, 0.003 10.315, 0.180 12.155 L 0.500 15.500 8.298 15.793 L 16.097 16.086 15.858 11.485 C 15.727 8.954, 15.325 6.701, 14.964 6.478 C 14.603 6.255, 14.508 8.081, 14.753 10.536 L 15.199 15 8 15 L 0.801 15 1.250 10.500 C 1.703 5.960, 1.390 4.821, 0.398 7.405 M 5.655 11.250 C 5.909 11.662, 6.965 12, 8 12 C 9.035 12, 10.091 11.662, 10.345 11.250 C 10.600 10.838, 9.545 10.500, 8 10.500 C 6.455 10.500, 5.400 10.838, 5.655 11.250" stroke="none" fill="blue" fill-rule="evenodd"/>
</svg>