<svg xmlns="http://www.w3.org/2000/svg" width="32" height="16" viewBox="0 0 32 16" version="1.1">
	<rect x="0" y="0" width="100%" height="100%" fill="#bfbfbf" />
	<path d="M 5.917 2 C 5.871 3.100, 5.833 5.575, 5.833 7.500 C 5.833 9.425, 5.871 11.450, 5.917 12 C 5.963 12.550, 8.025 13, 10.500 13 C 12.975 13, 15 13.450, 15 14 C 15 14.573, 11.967 15, 7.901 15 L 0.801 15 1.256 10.445 C 1.534 7.660, 1.351 6.249, 0.787 6.813 C 0.279 7.321, 0.007 9.483, 0.182 11.618 L 0.500 15.500 8.250 15.792 L 16 16.084 16 8.042 L 16 0 11 0 C 6.694 0, 5.988 0.278, 5.917 2 M 7 6.500 L 7 12 11 12 L 15 12 15 6.500 L 15 1 11 1 L 7 1 7 6.500 M 10.064 4.250 C 8.511 6.716, 7.974 11, 9.217 11 C 9.648 11, 10.014 10.213, 10.030 9.250 C 10.059 7.583, 10.109 7.583, 11.080 9.250 C 11.641 10.213, 12.617 11, 13.250 11 C 14.089 11, 14.076 10.676, 13.200 9.800 C 11.599 8.199, 11.638 5.678, 13.250 6.588 C 14.213 7.131, 14.231 7.002, 13.328 6.025 C 12.684 5.327, 12.394 4.136, 12.685 3.378 C 13.538 1.155, 11.609 1.797, 10.064 4.250" stroke="none" fill="blue" fill-rule="evenodd"/>
</svg>