<svg xmlns="http://www.w3.org/2000/svg" width="32" height="16" viewBox="0 0 32 16" version="1.1">
	<rect x="0" y="0" width="100%" height="100%" fill="#bfbfbf" />
	<path d="M 5.917 1.940 C 5.871 3.073, 5.833 5.575, 5.833 7.500 C 5.833 9.425, 5.871 11.450, 5.917 12 C 5.963 12.550, 8.025 13, 10.500 13 C 12.975 13, 15 13.450, 15 14 C 15 14.573, 11.967 15, 7.901 15 L 0.801 15 1.256 10.445 C 1.534 7.660, 1.351 6.249, 0.787 6.813 C 0.279 7.321, 0.007 9.483, 0.182 11.618 L 0.500 15.500 8.297 15.793 L 16.093 16.086 15.797 9.293 C 15.588 4.513, 15.130 2.574, 14.250 2.750 C 13.563 2.887, 13.113 2.437, 13.250 1.750 C 13.406 0.968, 12.095 0.384, 9.750 0.190 C 6.551 -0.075, 5.988 0.182, 5.917 1.940 M 7 6.500 L 7 12 11 12 L 15 12 15 8 C 15 5.111, 14.583 4, 13.500 4 C 12.675 4, 12 3.325, 12 2.500 C 12 1.567, 11.056 1, 9.500 1 C 7.136 1, 7 1.300, 7 6.500 M 8.813 4.683 C 9.534 4.972, 10.397 4.936, 10.729 4.604 C 11.061 4.272, 10.471 4.036, 9.417 4.079 C 8.252 4.127, 8.015 4.364, 8.813 4.683 M 9.250 6.689 C 10.213 6.941, 11.787 6.941, 12.750 6.689 C 13.713 6.438, 12.925 6.232, 11 6.232 C 9.075 6.232, 8.287 6.438, 9.250 6.689 M 9.250 8.689 C 10.213 8.941, 11.787 8.941, 12.750 8.689 C 13.713 8.438, 12.925 8.232, 11 8.232 C 9.075 8.232, 8.287 8.438, 9.250 8.689 M 8.750 10.662 C 9.438 10.940, 10.563 10.940, 11.250 10.662 C 11.938 10.385, 11.375 10.158, 10 10.158 C 8.625 10.158, 8.063 10.385, 8.750 10.662" stroke="none" fill="blue" fill-rule="evenodd"/>
</svg>