<svg xmlns="http://www.w3.org/2000/svg" width="32" height="16" viewBox="0 0 32 16" version="1.1">
	<rect x="0" y="0" width="100%" height="100%" fill="#bfbfbf" />
	<path d="M 3.384 1.442 C 3.080 2.234, 2.991 3.697, 3.187 4.692 C 3.542 6.491, 4.182 6.565, 14.250 5.978 C 15.424 5.909, 16 5.051, 16 3.370 C 16 1.357, 15.624 0.985, 14.084 1.473 C 13.030 1.808, 11.879 1.613, 11.525 1.041 C 10.539 -0.556, 4.027 -0.235, 3.384 1.442 M 4 3.500 C 4 5.690, 4.433 6, 7.500 6 C 10.567 6, 11 5.690, 11 3.500 C 11 1.310, 10.567 1, 7.500 1 C 4.433 1, 4 1.310, 4 3.500 M 5.750 2.662 C 6.438 2.940, 7.563 2.940, 8.250 2.662 C 8.938 2.385, 8.375 2.158, 7 2.158 C 5.625 2.158, 5.063 2.385, 5.750 2.662 M 13.543 2.931 C 13.226 3.443, 13.425 4.144, 13.984 4.490 C 14.543 4.835, 15 4.416, 15 3.559 C 15 1.802, 14.400 1.544, 13.543 2.931 M 0.181 11.014 L 0.500 15.500 8.250 15.792 L 16 16.084 16 11.375 C 16 8.786, 15.676 6.991, 15.280 7.387 C 14.884 7.783, 14.693 9.658, 14.856 11.554 L 15.153 15 8 15 L 0.847 15 1.144 11.554 C 1.307 9.658, 1.085 7.752, 0.651 7.318 C 0.217 6.884, 0.006 8.547, 0.181 11.014 M 5.655 11.250 C 5.909 11.662, 6.965 12, 8 12 C 9.035 12, 10.091 11.662, 10.345 11.250 C 10.600 10.838, 9.545 10.500, 8 10.500 C 6.455 10.500, 5.400 10.838, 5.655 11.250" stroke="none" fill="blue" fill-rule="evenodd"/>
</svg>