<svg xmlns="http://www.w3.org/2000/svg" width="32" height="16" viewBox="0 0 32 16" version="1.1">
	<rect x="0" y="0" width="100%" height="100%" fill="#bfbfbf" />
	<path d="M 6.307 1.605 C 8.164 3.850, 7.759 6.495, 5.423 7.391 C 3.502 8.128, 3.614 13.435, 5.584 15.070 C 8.083 17.144, 10.500 14.960, 10.500 10.628 C 10.500 8.601, 10.998 6.999, 11.628 6.999 C 12.248 7, 13.334 6.302, 14.042 5.450 C 15.105 4.169, 15.037 3.608, 13.648 2.219 C 12.308 0.880, 11.593 0.773, 10.121 1.692 C 8.653 2.609, 7.894 2.503, 6.420 1.173 C 4.629 -0.444, 4.625 -0.429, 6.307 1.605 M 8.986 4.025 C 8.355 5.206, 8.037 6.370, 8.280 6.614 C 9.197 7.530, 14.145 4.934, 13.748 3.744 C 13.038 1.610, 10.189 1.779, 8.986 4.025 M 5.187 11.250 C 5.426 13.729, 5.975 14.500, 7.500 14.500 C 9.025 14.500, 9.574 13.729, 9.813 11.250 C 10.095 8.329, 9.861 8, 7.500 8 C 5.139 8, 4.905 8.329, 5.187 11.250" stroke="none" fill="blue" fill-rule="evenodd"/>
</svg>