<svg xmlns="http://www.w3.org/2000/svg" width="32" height="16" viewBox="0 0 32 16" version="1.1">
	<rect x="0" y="0" width="100%" height="100%" fill="#bfbfbf" />
	<path d="M 6 3.917 C 6 5.521, 5.438 7.034, 4.750 7.280 C 4.063 7.525, 3.808 8.058, 4.183 8.463 C 5.264 9.628, 7 8.073, 7 5.941 C 7 4.667, 7.687 4, 9 4 C 10.448 4, 11 4.667, 11 6.417 C 11 7.746, 10.438 9.034, 9.750 9.280 C 9.063 9.525, 8.808 10.058, 9.183 10.463 C 10.660 12.055, 12 9.666, 12 5.441 C 12 1.173, 11.883 1, 9 1 C 6.352 1, 6 1.343, 6 3.917 M 7.750 2.662 C 8.438 2.940, 9.563 2.940, 10.250 2.662 C 10.938 2.385, 10.375 2.158, 9 2.158 C 7.625 2.158, 7.063 2.385, 7.750 2.662 M 0.286 8.500 C 0.294 11.250, 0.488 12.256, 0.718 10.736 C 0.947 9.216, 0.941 6.966, 0.704 5.736 C 0.467 4.506, 0.279 5.750, 0.286 8.500 M 15.160 9.667 C 15.072 11.408, 14.438 13.034, 13.750 13.280 C 13.063 13.525, 12.845 14.095, 13.267 14.546 C 14.683 16.062, 16.149 13.285, 15.733 9.877 L 15.320 6.500 15.160 9.667" stroke="none" fill="blue" fill-rule="evenodd"/>
</svg>