<svg xmlns="http://www.w3.org/2000/svg" width="32" height="16" viewBox="0 0 32 16" version="1.1">
	<rect x="0" y="0" width="100%" height="100%" fill="#bfbfbf" />
	<path d="M 5.411 2.500 C 5.035 3.998, 4.068 5, 2.999 5 C 1.356 5, -0 6.846, -0 9.082 C -0 9.587, 1.399 10, 3.108 10 C 5.925 10, 6.158 9.765, 5.589 7.500 C 5.023 5.244, 5.259 5, 8 5 C 10.741 5, 10.977 5.244, 10.411 7.500 C 9.842 9.765, 10.075 10, 12.892 10 C 14.601 10, 16 9.587, 16 9.082 C 16 6.846, 14.644 5, 13.001 5 C 11.932 5, 10.965 3.998, 10.589 2.500 C 9.741 -0.881, 6.259 -0.881, 5.411 2.500 M 6.750 3.662 C 7.438 3.940, 8.563 3.940, 9.250 3.662 C 9.938 3.385, 9.375 3.158, 8 3.158 C 6.625 3.158, 6.063 3.385, 6.750 3.662 M 1.750 8.662 C 2.438 8.940, 3.563 8.940, 4.250 8.662 C 4.938 8.385, 4.375 8.158, 3 8.158 C 1.625 8.158, 1.063 8.385, 1.750 8.662 M 11.750 8.662 C 12.438 8.940, 13.563 8.940, 14.250 8.662 C 14.938 8.385, 14.375 8.158, 13 8.158 C 11.625 8.158, 11.063 8.385, 11.750 8.662 M 0.604 12.590 C -0.263 14.848, 0.735 16, 3.559 16 C 6.074 16, 6.442 15.314, 5.393 12.582 C 4.606 10.532, 1.391 10.537, 0.604 12.590 M 10.607 12.582 C 9.526 15.399, 9.947 16, 13 16 C 16.053 16, 16.474 15.399, 15.393 12.582 C 14.608 10.536, 11.392 10.536, 10.607 12.582 M 1.750 14.662 C 2.438 14.940, 3.563 14.940, 4.250 14.662 C 4.938 14.385, 4.375 14.158, 3 14.158 C 1.625 14.158, 1.063 14.385, 1.750 14.662 M 11.750 14.662 C 12.438 14.940, 13.563 14.940, 14.250 14.662 C 14.938 14.385, 14.375 14.158, 13 14.158 C 11.625 14.158, 11.063 14.385, 11.750 14.662" stroke="none" fill="blue" fill-rule="evenodd"/>
</svg>