<svg xmlns="http://www.w3.org/2000/svg" width="32" height="16" viewBox="0 0 32 16" version="1.1">
	<rect x="0" y="0" width="100%" height="100%" fill="#bfbfbf" />
	<path d="M 0.030 2.750 C 0.056 5.068, 0.218 5.230, 1.062 3.782 C 1.613 2.837, 2.837 1.613, 3.782 1.062 C 5.230 0.218, 5.068 0.056, 2.750 0.030 C 0.402 0.004, 0.004 0.402, 0.030 2.750 M 5.655 1.829 C 3.484 4.228, 3.555 7.287, 5.829 9.345 C 8.157 11.452, 10.843 11.452, 13.171 9.345 C 15.985 6.799, 15.424 9.667, 12.545 12.545 C 9.417 15.674, 5.583 15.674, 2.455 12.545 L -0 10.091 -0 13.045 L 0 16 10.923 16 L 21.846 16 18.923 13.077 C 15.316 9.470, 15.152 5.757, 18.455 2.455 L 20.909 0 14.110 0 C 8.792 0, 6.949 0.399, 5.655 1.829 M 23.430 0.887 C 23.731 1.374, 23.308 2.329, 22.489 3.009 C 20.697 4.497, 20.542 8.142, 22.200 9.800 C 23.858 11.458, 27.503 11.303, 28.991 9.511 C 29.671 8.692, 30.626 8.269, 31.113 8.570 C 31.601 8.871, 32 7.066, 32 4.559 L 32 0 27.441 0 C 24.934 0, 23.129 0.399, 23.430 0.887 M 29.286 13.606 L 27.071 16 29.536 16 C 31.498 16, 32 15.490, 32 13.500 C 32 10.560, 32.106 10.556, 29.286 13.606" stroke="none" fill="blue" fill-rule="evenodd"/>
</svg>