<svg xmlns="http://www.w3.org/2000/svg" width="32" height="16" viewBox="0 0 32 16" version="1.1">
	<rect x="0" y="0" width="100%" height="100%" fill="#bfbfbf" />
	<path d="M 1 8 L 1 16 7.500 16 L 14 16 14 9.655 C 14 1.799, 12.448 -0, 5.671 -0 L 1 0 1 8 M 2 8 L 2 15 7.500 15 L 13 15 13 10 C 13 6.222, 12.633 5, 11.500 5 C 10.667 5, 10 4.111, 10 3 C 10 1.333, 9.333 1, 6 1 L 2 1 2 8 M 11 3 C 11 3.550, 11.477 4, 12.059 4 C 12.641 4, 12.840 3.550, 12.500 3 C 12.160 2.450, 11.684 2, 11.441 2 C 11.198 2, 11 2.450, 11 3 M 5.310 7.492 C 4.656 8.204, 4.418 9.084, 4.781 9.448 C 5.145 9.811, 4.916 10.434, 4.274 10.831 C 3.507 11.305, 3.426 12.059, 4.037 13.026 C 4.667 14.023, 4.974 14.095, 4.985 13.250 C 4.993 12.563, 5.675 12, 6.500 12 C 7.325 12, 8 12.468, 8 13.039 C 8 13.639, 8.590 13.533, 9.395 12.789 C 10.162 12.080, 10.555 11.112, 10.267 10.638 C 9.979 10.164, 10.228 9.477, 10.819 9.112 C 11.511 8.684, 11.562 7.921, 10.963 6.974 C 10.333 5.977, 10.026 5.905, 10.015 6.750 C 9.998 8.176, 7.339 8.467, 6.833 7.099 C 6.650 6.603, 5.965 6.780, 5.310 7.492 M 6 10 C 6 10.550, 6.675 11, 7.500 11 C 8.325 11, 9 10.550, 9 10 C 9 9.450, 8.325 9, 7.500 9 C 6.675 9, 6 9.450, 6 10" stroke="none" fill="blue" fill-rule="evenodd"/>
</svg>