<svg xmlns="http://www.w3.org/2000/svg" width="32" height="16" viewBox="0 0 32 16" version="1.1">
	<rect x="0" y="0" width="100%" height="100%" fill="#bfbfbf" />
	<path d="M -0 7.750 L -0 15.500 11.250 15.361 C 17.437 15.285, 23.611 15.173, 24.969 15.111 C 27.245 15.009, 26.980 14.538, 21.580 9.081 C 17.645 5.104, 15.923 2.644, 16.330 1.581 C 16.854 0.216, 15.779 0, 8.469 0 L 0 0 -0 7.750 M 25 6.500 C 28.543 10.075, 31.568 13, 31.721 13 C 31.875 13, 32 10.075, 32 6.500 L 32 0 25.279 0 L 18.558 0 25 6.500 M 1.500 2 C 1.840 2.550, 2.316 3, 2.559 3 C 2.802 3, 3 2.550, 3 2 C 3 1.450, 2.523 1, 1.941 1 C 1.359 1, 1.160 1.450, 1.500 2 M 3.672 3.721 C 2.930 4.922, 12.707 14.627, 13.679 13.654 C 14.078 13.255, 12.121 10.645, 9.330 7.854 C 6.539 5.062, 3.993 3.203, 3.672 3.721 M 23.938 9.359 C 26.378 11.888, 28.596 13.738, 28.865 13.469 C 29.516 12.818, 24.032 7.103, 21.500 5.794 C 20.400 5.225, 21.497 6.829, 23.938 9.359" stroke="none" fill="blue" fill-rule="evenodd"/>
</svg>