<svg xmlns="http://www.w3.org/2000/svg" width="32" height="16" viewBox="0 0 32 16" version="1.1">
	<rect x="0" y="0" width="100%" height="100%" fill="#bfbfbf" />
	<path d="M 7 3.180 C 2.362 4.506, 1.361 5.447, 0.612 9.190 C -0.300 13.749, 2.459 16, 8.958 16 C 14.414 16, 15.026 15.170, 12.750 10.864 C 11.798 9.063, 10.819 8.578, 8.641 8.827 C 6.606 9.060, 5.916 8.772, 6.246 7.827 C 6.543 6.981, 8.002 6.603, 10.276 6.783 C 14.235 7.098, 15.808 5.679, 13.964 3.456 C 12.595 1.807, 11.903 1.780, 7 3.180 M 8.500 3.737 C 4.663 4.705, 1.727 6.060, 2.276 6.609 C 2.580 6.913, 3.822 6.631, 5.035 5.981 C 6.249 5.331, 8.829 4.800, 10.768 4.800 C 13.199 4.800, 13.860 4.525, 12.897 3.915 C 12.129 3.429, 11.275 3.076, 11 3.131 C 10.725 3.187, 9.600 3.459, 8.500 3.737 M 2.750 9.757 C 0.996 10.148, 0.228 13, 1.878 13 C 2.877 13, 5.491 10.105, 4.893 9.660 C 4.677 9.499, 3.713 9.543, 2.750 9.757 M 5.243 11.157 C 3.559 12.841, 3.565 15.581, 5.250 14.279 C 5.938 13.747, 7.757 13.399, 9.294 13.504 C 11.372 13.647, 12.011 13.286, 11.785 12.098 C 11.411 10.118, 6.927 9.473, 5.243 11.157" stroke="none" fill="blue" fill-rule="evenodd"/>
</svg>