<svg xmlns="http://www.w3.org/2000/svg" width="32" height="16" viewBox="0 0 32 16" version="1.1">
	<rect x="0" y="0" width="100%" height="100%" fill="#bfbfbf" />
	<path d="M 6.020 5.305 C 4.655 7.062, 4.318 7.882, 5.270 7.128 C 7.389 5.447, 7.427 6.041, 5.500 10.654 C 3.713 14.931, 3.706 15, 5.059 15 C 5.641 15, 5.906 14.658, 5.648 14.239 C 5.389 13.820, 5.746 12.700, 6.442 11.748 C 7.631 10.122, 7.813 10.136, 9.487 11.986 C 10.466 13.068, 11.667 13.706, 12.155 13.404 C 12.643 13.102, 12.021 11.997, 10.771 10.948 C 8.827 9.315, 8.716 8.896, 10 8.036 C 11.163 7.256, 11.195 7.027, 10.142 7.015 C 9.194 7.005, 8.973 6.245, 9.411 4.500 C 10.253 1.143, 9.025 1.434, 6.020 5.305" stroke="none" fill="blue" fill-rule="evenodd"/>
</svg>