<svg xmlns="http://www.w3.org/2000/svg" width="32" height="16" viewBox="0 0 32 16" version="1.1">
	<rect x="0" y="0" width="100%" height="100%" fill="#bfbfbf" />
	<path d="M 3 4 C 3 6.958, 2.593 8, 1.440 8 C 0.248 8, -0.047 8.886, 0.190 11.750 L 0.500 15.500 8 15.500 L 15.500 15.500 15.810 11.750 C 16.047 8.886, 15.752 8, 14.560 8 C 13.702 8, 13 7.178, 13 6.174 C 13 3.534, 8.813 0, 5.686 0 C 3.219 0, 3 0.326, 3 4 M 4 4.500 C 4 7.917, 4.095 8, 8 8 C 10.889 8, 12 7.583, 12 6.500 C 12 5.667, 11.111 5, 10 5 C 8.667 5, 8 4.333, 8 3 C 8 1.667, 7.333 1, 6 1 C 4.381 1, 4 1.667, 4 4.500 M 9 3 C 9 3.550, 9.477 4, 10.059 4 C 10.641 4, 10.840 3.550, 10.500 3 C 10.160 2.450, 9.684 2, 9.441 2 C 9.198 2, 9 2.450, 9 3 M 5.750 6.662 C 6.438 6.940, 7.563 6.940, 8.250 6.662 C 8.938 6.385, 8.375 6.158, 7 6.158 C 5.625 6.158, 5.063 6.385, 5.750 6.662 M 1 10.500 C 1 11.690, 2.444 12, 8 12 C 13.556 12, 15 11.690, 15 10.500 C 15 9.310, 13.556 9, 8 9 C 2.444 9, 1 9.310, 1 10.500 M 1 14 C 1 14.571, 4 15, 8 15 C 12 15, 15 14.571, 15 14 C 15 13.429, 12 13, 8 13 C 4 13, 1 13.429, 1 14" stroke="none" fill="blue" fill-rule="evenodd"/>
</svg>