<svg xmlns="http://www.w3.org/2000/svg" width="32" height="16" viewBox="0 0 32 16" version="1.1">
	<rect x="0" y="0" width="100%" height="100%" fill="#bfbfbf" />
	<path d="M 9.396 2.750 C 9.098 3.712, 8.469 5.230, 7.999 6.122 C 7.528 7.014, 7.523 8.139, 7.987 8.622 C 8.451 9.105, 8.981 10.590, 9.165 11.922 C 9.349 13.254, 10.074 14.457, 10.775 14.597 C 11.476 14.736, 11.589 14.621, 11.025 14.342 C 10.461 14.062, 10 12.772, 10 11.476 C 10 10.179, 9.511 8.816, 8.913 8.446 C 8.130 7.962, 8.130 7.470, 8.913 6.687 C 9.511 6.089, 10 4.827, 10 3.883 C 10 2.939, 10.563 1.940, 11.250 1.662 C 12.229 1.267, 12.222 1.141, 11.219 1.079 C 10.514 1.036, 9.694 1.788, 9.396 2.750 M 13 2 C 13 2.550, 13.675 3, 14.500 3 C 15.325 3, 16 2.550, 16 2 C 16 1.450, 15.325 1, 14.500 1 C 13.675 1, 13 1.450, 13 2 M 14 5 C 14 5.550, 14.450 6, 15 6 C 15.550 6, 16 5.550, 16 5 C 16 4.450, 15.550 4, 15 4 C 14.450 4, 14 4.450, 14 5 M 14 8 C 14 8.550, 14.450 9, 15 9 C 15.550 9, 16 8.550, 16 8 C 16 7.450, 15.550 7, 15 7 C 14.450 7, 14 7.450, 14 8 M 14 11 C 14 11.550, 14.450 12, 15 12 C 15.550 12, 16 11.550, 16 11 C 16 10.450, 15.550 10, 15 10 C 14.450 10, 14 10.450, 14 11 M 13 14 C 13 14.550, 13.675 15, 14.500 15 C 15.325 15, 16 14.550, 16 14 C 16 13.450, 15.325 13, 14.500 13 C 13.675 13, 13 13.450, 13 14" stroke="none" fill="blue" fill-rule="evenodd"/>
</svg>