<svg xmlns="http://www.w3.org/2000/svg" width="32" height="16" viewBox="0 0 32 16" version="1.1">
	<rect x="0" y="0" width="100%" height="100%" fill="#bfbfbf" />
	<path d="M 5 2.481 C 5 4.220, 4.327 5.131, 2.750 5.527 C 0.890 5.993, 0.500 6.778, 0.500 10.057 C 0.500 12.768, 0.886 13.874, 1.721 13.554 C 2.393 13.296, 3.598 13.741, 4.400 14.542 C 5.293 15.436, 7.820 16, 10.929 16 L 16 16 16 9.655 C 16 2.168, 14.354 0, 8.671 0 C 5.429 0, 5 0.290, 5 2.481 M 7.250 1.689 C 8.213 1.941, 9.787 1.941, 10.750 1.689 C 11.713 1.438, 10.925 1.232, 9 1.232 C 7.075 1.232, 6.287 1.438, 7.250 1.689 M 13 3 C 13 3.550, 13.477 4, 14.059 4 C 14.641 4, 14.840 3.550, 14.500 3 C 14.160 2.450, 13.684 2, 13.441 2 C 13.198 2, 13 2.450, 13 3 M 6 4.934 C 6 6.300, 6.807 6.960, 8.750 7.184 C 13 7.673, 12.207 12.155, 7.535 14.048 C 6.030 14.659, 6.737 14.890, 10.250 14.937 L 15 15 15 10 C 15 6.222, 14.633 5, 13.500 5 C 12.675 5, 12 4.550, 12 4 C 12 3.450, 10.650 3, 9 3 C 6.701 3, 6 3.452, 6 4.934 M 7.813 4.683 C 8.534 4.972, 9.397 4.936, 9.729 4.604 C 10.061 4.272, 9.471 4.036, 8.417 4.079 C 7.252 4.127, 7.015 4.364, 7.813 4.683 M 2.384 7.442 C 1.163 10.624, 2.448 12.496, 6.008 12.723 C 8.796 12.901, 9.097 12.764, 7.500 12.043 C 5.737 11.248, 5.856 11.118, 8.500 10.952 L 11.500 10.763 8.500 10.046 L 5.500 9.329 8.500 8.814 C 11.277 8.338, 11.217 8.289, 7.691 8.150 C 5.437 8.061, 4.134 7.592, 4.500 7 C 4.840 6.450, 4.627 6, 4.028 6 C 3.428 6, 2.688 6.649, 2.384 7.442 M 11.813 13.683 C 12.534 13.972, 13.397 13.936, 13.729 13.604 C 14.061 13.272, 13.471 13.036, 12.417 13.079 C 11.252 13.127, 11.015 13.364, 11.813 13.683" stroke="none" fill="blue" fill-rule="evenodd"/>
</svg>