<svg xmlns="http://www.w3.org/2000/svg" width="32" height="16" viewBox="0 0 32 16" version="1.1">
	<rect x="0" y="0" width="100%" height="100%" fill="#bfbfbf" />
	<path d="M 8.500 2 C 6.720 3.967, 6.753 4, 10.500 4 C 14.247 4, 14.280 3.967, 12.500 2 C 11.505 0.900, 10.605 0, 10.500 0 C 10.395 0, 9.495 0.900, 8.500 2 M 0 5.500 C 0 7.500, 0.500 8, 2.500 8 C 4.500 8, 5 7.500, 5 5.500 C 5 3.500, 4.500 3, 2.500 3 C 0.500 3, 0 3.500, 0 5.500 M 1 5.500 C 1 6.325, 1.675 7, 2.500 7 C 3.325 7, 4 6.325, 4 5.500 C 4 4.675, 3.325 4, 2.500 4 C 1.675 4, 1 4.675, 1 5.500 M 6 10.500 L 6 16 10.500 16 L 15 16 15 12.155 C 15 7.662, 12.646 5, 8.671 5 C 6.100 5, 6 5.206, 6 10.500 M 7 10.500 C 7 14.976, 7.019 15, 10.500 15 C 13.567 15, 14 14.690, 14 12.500 C 14 10.944, 13.433 10, 12.500 10 C 11.667 10, 11 9.111, 11 8 C 11 6.667, 10.333 6, 9 6 C 7.296 6, 7 6.667, 7 10.500 M 12 8 C 12 8.550, 12.477 9, 13.059 9 C 13.641 9, 13.840 8.550, 13.500 8 C 13.160 7.450, 12.684 7, 12.441 7 C 12.198 7, 12 7.450, 12 8 M 0.364 11.493 C 0.018 12.396, 0.214 13.614, 0.800 14.200 C 2.324 15.724, 5.210 14.331, 4.812 12.265 C 4.369 9.963, 1.165 9.407, 0.364 11.493 M 1 12.500 C 1 13.325, 1.675 14, 2.500 14 C 3.325 14, 4 13.325, 4 12.500 C 4 11.675, 3.325 11, 2.500 11 C 1.675 11, 1 11.675, 1 12.500 M 8.750 11.662 C 9.438 11.940, 10.563 11.940, 11.250 11.662 C 11.938 11.385, 11.375 11.158, 10 11.158 C 8.625 11.158, 8.063 11.385, 8.750 11.662" stroke="none" fill="blue" fill-rule="evenodd"/>
</svg>