<svg xmlns="http://www.w3.org/2000/svg" width="32" height="16" viewBox="0 0 32 16" version="1.1">
	<rect x="0" y="0" width="100%" height="100%" fill="#bfbfbf" />
	<path d="M 7.333 1.500 C 7.333 2.325, 7.858 3, 8.500 3 C 9.142 3, 9.667 2.325, 9.667 1.500 C 9.667 0.675, 9.142 0, 8.500 0 C 7.858 0, 7.333 0.675, 7.333 1.500 M 2.923 2.417 C 2.881 2.462, 2.679 3.175, 2.474 4 C 2.268 4.825, 1.807 6.487, 1.448 7.694 C 0.598 10.555, 4.888 15, 8.500 15 C 12.112 15, 16.402 10.555, 15.552 7.694 C 15.193 6.487, 14.772 4.862, 14.617 4.083 C 14.183 1.910, 11.114 1.861, 11.277 4.029 C 11.353 5.037, 11.884 5.780, 12.458 5.681 C 13.031 5.581, 13.500 6.850, 13.500 8.500 C 13.500 10.367, 13.028 11.406, 12.250 11.250 C 11.562 11.112, 11.112 11.562, 11.250 12.250 C 11.406 13.028, 10.367 13.500, 8.500 13.500 C 6.633 13.500, 5.594 13.028, 5.750 12.250 C 5.888 11.563, 5.456 11.113, 4.791 11.250 C 3.601 11.496, 2.770 7.262, 3.701 5.701 C 4.344 4.624, 7.028 6.948, 8.048 9.465 C 8.643 10.931, 8.891 11.054, 8.937 9.905 C 8.971 9.028, 8.130 7.523, 7.067 6.561 C 6.005 5.599, 5.349 4.254, 5.610 3.573 C 5.954 2.677, 3.610 1.668, 2.923 2.417" stroke="none" fill="blue" fill-rule="evenodd"/>
</svg>