<svg xmlns="http://www.w3.org/2000/svg" width="32" height="16" viewBox="0 0 32 16" version="1.1">
	<rect x="0" y="0" width="100%" height="100%" fill="#bfbfbf" />
	<path d="M 4.790 4.283 L 7.972 7.566 4.755 10.783 L 1.538 14 7.269 14 C 12.555 14, 12.998 13.825, 12.970 11.750 C 12.942 9.741, 12.830 9.687, 11.920 11.250 C 11.288 12.336, 9.694 13, 7.723 13 L 4.545 13 7.257 10.288 L 9.969 7.577 7.297 4.788 L 4.626 2 7.763 2 C 9.696 2, 11.292 2.672, 11.920 3.750 C 12.830 5.313, 12.942 5.259, 12.970 3.250 C 12.998 1.176, 12.553 1, 7.304 1 L 1.608 1 4.790 4.283" stroke="none" fill="blue" fill-rule="evenodd"/>
</svg>