<svg xmlns="http://www.w3.org/2000/svg" width="32" height="16" viewBox="0 0 32 16" version="1.1">
	<rect x="0" y="0" width="100%" height="100%" fill="#bfbfbf" />
	<path d="M 0 8.500 L 0 15 8 15 L 16 15 16 8.500 L 16 2 8 2 L 0 2 0 8.500 M 1 9.500 L 1 14 8 14 L 15 14 15 9.500 L 15 5 8 5 L 1 5 1 9.500 M 11.813 6.683 C 12.534 6.972, 13.397 6.936, 13.729 6.604 C 14.061 6.272, 13.471 6.036, 12.417 6.079 C 11.252 6.127, 11.015 6.364, 11.813 6.683 M 11.813 8.683 C 12.534 8.972, 13.397 8.936, 13.729 8.604 C 14.061 8.272, 13.471 8.036, 12.417 8.079 C 11.252 8.127, 11.015 8.364, 11.813 8.683 M 11.813 10.683 C 12.534 10.972, 13.397 10.936, 13.729 10.604 C 14.061 10.272, 13.471 10.036, 12.417 10.079 C 11.252 10.127, 11.015 10.364, 11.813 10.683 M 11.813 12.683 C 12.534 12.972, 13.397 12.936, 13.729 12.604 C 14.061 12.272, 13.471 12.036, 12.417 12.079 C 11.252 12.127, 11.015 12.364, 11.813 12.683" stroke="none" fill="blue" fill-rule="evenodd"/>
</svg>