<svg xmlns="http://www.w3.org/2000/svg" width="16" height="16" viewBox="0 0 16 16" version="1.1">
	<rect x="0" y="0" width="100%" height="100%" fill="#bfbfbf" />
	<path d="M 1 7.787 L 1 14.574 8 14.815 L 15 15.056 15 8.028 L 15 1 8 1 L 1 1 1 7.787 M 3.667 3.667 C 1.136 6.197, 6.809 14.003, 11.173 13.996 C 13.313 13.993, 13.243 13.836, 10.304 12.044 C 6.863 9.946, 3.328 5.338, 4.365 4.302 C 4.714 3.953, 5 4.176, 5 4.799 C 5 6.553, 10.734 12, 12.581 12 C 14.083 12, 14.073 11.760, 12.462 9.301 C 11.253 7.457, 11.059 6.480, 11.847 6.218 C 13.673 5.609, 13.186 2.998, 11.250 3.015 C 9.910 3.027, 9.812 3.229, 10.834 3.876 C 11.938 4.576, 11.931 4.812, 10.792 5.250 C 10.035 5.540, 8.562 5.153, 7.517 4.389 C 5.393 2.835, 4.639 2.694, 3.667 3.667 M 3.564 12.293 C 3.940 13.279, 4.499 13.834, 4.807 13.526 C 5.115 13.219, 4.808 12.412, 4.124 11.733 C 3.136 10.753, 3.022 10.868, 3.564 12.293" stroke="none" fill="blue" fill-rule="evenodd"/>
</svg>