<svg xmlns="http://www.w3.org/2000/svg" width="32" height="16" viewBox="0 0 32 16" version="1.1">
	<rect x="0" y="0" width="100%" height="100%" fill="#bfbfbf" />
	<path d="M 5 1 C 5 1.550, 4.273 2, 3.383 2 C 2.211 2, 1.925 2.603, 2.342 4.198 C 2.658 5.407, 2.373 7.068, 1.708 7.890 C 0.756 9.068, 0.765 9.225, 1.750 8.633 C 2.668 8.081, 3 8.960, 3 11.941 L 3 16 7.500 16 L 12 16 12 11.941 C 12 8.960, 12.332 8.081, 13.250 8.633 C 14.235 9.225, 14.244 9.068, 13.292 7.890 C 12.627 7.068, 12.342 5.407, 12.658 4.198 C 13.075 2.603, 12.789 2, 11.617 2 C 10.727 2, 10 1.550, 10 1 C 10 0.450, 8.875 0, 7.500 0 C 6.125 0, 5 0.450, 5 1 M 6.813 1.683 C 7.534 1.972, 8.397 1.936, 8.729 1.604 C 9.061 1.272, 8.471 1.036, 7.417 1.079 C 6.252 1.127, 6.015 1.364, 6.813 1.683 M 5.264 3.718 C 6.784 3.947, 9.034 3.941, 10.264 3.704 C 11.494 3.467, 10.250 3.279, 7.500 3.286 C 4.750 3.294, 3.744 3.488, 5.264 3.718 M 4.180 9.750 L 4 15 7.500 15 L 11 15 10.843 9.750 L 10.686 4.500 10 9.500 L 9.314 14.500 9 9.500 L 8.686 4.500 8 9.500 L 7.314 14.500 7 9.500 L 6.686 4.500 6.033 9.500 L 5.380 14.500 4.870 9.500 L 4.360 4.500 4.180 9.750" stroke="none" fill="blue" fill-rule="evenodd"/>
</svg>