<svg xmlns="http://www.w3.org/2000/svg" width="32" height="16" viewBox="0 0 32 16" version="1.1">
	<rect x="0" y="0" width="100%" height="100%" fill="#bfbfbf" />
	<path d="M 5 2 C 5 2.550, 4.325 3, 3.500 3 C 2.576 3, 2 3.938, 2 5.441 C 2 6.784, 1.565 8.151, 1.034 8.479 C 0.452 8.839, 0.724 10.451, 1.719 12.538 C 3.215 15.675, 3.765 16, 7.564 16 C 11.277 16, 11.899 15.657, 12.995 13.013 C 13.722 11.256, 14.699 10.297, 15.366 10.685 C 15.990 11.047, 15.713 10.444, 14.750 9.343 C 13.788 8.243, 13 6.365, 13 5.171 C 13 3.908, 12.373 3, 11.500 3 C 10.675 3, 10 2.550, 10 2 C 10 1.450, 8.875 1, 7.500 1 C 6.125 1, 5 1.450, 5 2 M 6.813 2.683 C 7.534 2.972, 8.397 2.936, 8.729 2.604 C 9.061 2.272, 8.471 2.036, 7.417 2.079 C 6.252 2.127, 6.015 2.364, 6.813 2.683 M 5.264 4.718 C 6.784 4.947, 9.034 4.941, 10.264 4.704 C 11.494 4.467, 10.250 4.279, 7.500 4.286 C 4.750 4.294, 3.744 4.488, 5.264 4.718 M 2.434 8.407 C 1.459 12.292, 3.540 15, 7.500 15 C 9.957 15, 11.247 14.406, 12.050 12.907 C 13.279 10.611, 12.552 6, 10.962 6 C 10.403 6, 10.230 7.070, 10.571 8.428 C 10.906 9.763, 10.668 11.675, 10.042 12.678 C 9.026 14.305, 8.970 14.260, 9.520 12.250 C 9.858 11.012, 9.777 8.988, 9.340 7.750 C 8.670 5.855, 8.447 6.210, 7.923 10 L 7.300 14.500 7.135 10 C 7.013 6.691, 6.713 5.897, 6 7 C 5.354 8, 5.026 8.083, 5.015 7.250 C 4.988 5.049, 3.060 5.914, 2.434 8.407" stroke="none" fill="blue" fill-rule="evenodd"/>
</svg>