<svg xmlns="http://www.w3.org/2000/svg" width="32" height="16" viewBox="0 0 32 16" version="1.1">
	<rect x="0" y="0" width="100%" height="100%" fill="#bfbfbf" />
	<path d="M 1.148 1.321 C -0.275 3.036, 1.191 4.536, 3.250 3.472 C 3.938 3.117, 3.455 3.679, 2.178 4.722 C 0.325 6.234, -0.079 7.413, 0.178 10.558 L 0.500 14.500 6.283 15.417 C 10.364 16.064, 12.399 16.001, 13.196 15.204 C 14.889 13.511, 9.117 11.464, 6.764 12.923 C 5.809 13.515, 4.121 14, 3.014 14 C 1.346 14, 1 13.342, 1 10.167 L 1 6.333 5.500 6.333 C 9.763 6.333, 10 6.481, 10 9.135 C 10 11.125, 10.405 11.782, 11.399 11.400 C 12.168 11.105, 13.095 11.344, 13.458 11.932 C 14.845 14.176, 16 12.843, 16 9 C 16 4.865, 15.267 4.133, 13.200 6.200 C 12.267 7.133, 11.733 7.133, 10.800 6.200 C 10.140 5.540, 8.828 5, 7.883 5 C 6.939 5, 5.318 3.835, 4.280 2.410 C 2.642 0.161, 2.230 0.018, 1.148 1.321 M 1.500 2 C 1.160 2.550, 1.359 3, 1.941 3 C 2.523 3, 3 2.550, 3 2 C 3 1.450, 2.802 1, 2.559 1 C 2.316 1, 1.840 1.450, 1.500 2 M 13.548 7.250 C 13.129 8.212, 13.129 9.787, 13.548 10.750 C 14.273 12.417, 14.329 12.417, 14.728 10.750 C 14.958 9.787, 14.958 8.213, 14.728 7.250 C 14.329 5.583, 14.273 5.583, 13.548 7.250 M 2.750 9.662 C 3.438 9.940, 4.563 9.940, 5.250 9.662 C 5.938 9.385, 5.375 9.158, 4 9.158 C 2.625 9.158, 2.063 9.385, 2.750 9.662 M 7.762 14.707 C 9.006 14.946, 10.806 14.937, 11.762 14.687 C 12.718 14.437, 11.700 14.241, 9.500 14.252 C 7.300 14.263, 6.518 14.468, 7.762 14.707" stroke="none" fill="blue" fill-rule="evenodd"/>
</svg>