<svg xmlns="http://www.w3.org/2000/svg" width="420" height="280" viewBox="0 0 420 280" version="1.1">
	<rect x="0" y="0" width="100%" height="100%" fill="#bfbfbf" />
	<path d="M -0 63.906 L -0 127.813 2.156 127.249 C 3.634 126.862, 4.088 127.049, 3.597 127.842 C 3.204 128.479, 2.234 129, 1.441 129 C 0.321 129, -0 130.592, -0 136.155 C -0 143.023, 0.073 143.244, 1.829 141.655 C 2.835 140.745, 4.112 140, 4.668 140 C 5.224 140, 6.192 138.875, 6.818 137.500 C 7.445 136.125, 8.669 135, 9.538 135 C 11.806 135, 20 127.888, 20 125.919 C 20 124.797, 21.141 124.077, 23.534 123.688 C 26.763 123.164, 33.861 118.617, 36.632 115.297 C 37.254 114.552, 39.425 113.133, 41.457 112.145 L 45.151 110.348 39.661 105.924 C 33.513 100.970, 32 98.500, 32 93.418 C 32 90.240, 32.178 90.025, 34 91 C 35.484 91.794, 36 93.094, 36 96.035 C 36 100.614, 38.061 103.163, 43.654 105.500 C 46.288 106.601, 47.551 106.726, 48.040 105.934 C 48.418 105.323, 50.268 104.956, 52.152 105.118 C 55.492 105.406, 58.597 103.883, 63.095 99.750 C 64.143 98.788, 65.423 98, 65.941 98 C 67.758 98, 68.112 95.969, 66.564 94.421 C 64.422 92.279, 64.436 87.570, 66.582 88.393 C 67.452 88.727, 68.511 89, 68.936 89 C 69.360 89, 70.905 90.109, 72.368 91.465 C 73.831 92.821, 76.934 94.409, 79.264 94.994 C 81.594 95.579, 84.694 96.720, 86.154 97.529 C 87.614 98.338, 89.527 99, 90.404 99 C 91.282 99, 92 99.405, 92 99.899 C 92 100.394, 93.756 101.713, 95.901 102.831 C 99.303 104.605, 100.039 104.686, 101.651 103.464 C 102.668 102.694, 104.239 102.049, 105.143 102.032 C 106.047 102.014, 107.045 101.325, 107.362 100.500 C 108.197 98.324, 109.478 98.656, 110.965 101.434 C 111.681 102.773, 113.445 104.332, 114.884 104.899 C 118.188 106.201, 128.789 105.718, 131.754 104.131 C 134.734 102.537, 134.606 101, 131.493 101 C 130.114 101, 126.689 99.763, 123.882 98.250 C 118.694 95.455, 104 83.496, 104 82.069 C 104 81.639, 102.374 79.159, 100.387 76.556 C 97.785 73.149, 96.471 72.129, 95.687 72.913 C 93.826 74.774, 92 74.109, 92 71.570 C 92 69.810, 92.621 69.051, 94.250 68.820 C 96.017 68.569, 96.569 67.748, 96.821 65 C 96.998 63.075, 97.561 61.073, 98.071 60.550 C 98.582 60.028, 99 58.592, 99 57.359 C 99 56.126, 99.496 54.811, 100.103 54.436 C 102.078 53.216, 106.015 43.615, 104.969 42.569 C 103.573 41.173, 103.773 37.758, 105.222 38.241 C 105.895 38.465, 106.750 39.740, 107.123 41.074 C 107.567 42.663, 107.835 42.896, 107.900 41.750 C 107.955 40.787, 108.889 39.111, 109.975 38.025 C 111.061 36.939, 112.218 34.979, 112.547 33.668 C 113.082 31.536, 112.743 31.219, 109.323 30.654 C 107.220 30.306, 102.308 30.017, 98.407 30.011 C 91.504 30, 91.123 30.134, 84.194 35 C 80.278 37.750, 76.785 40, 76.431 40 C 76.077 40, 73.972 41.438, 71.752 43.196 C 67.058 46.914, 65.146 48.036, 53.862 53.690 C 41.863 59.703, 36.415 61.384, 28.822 61.414 C 23.670 61.435, 21.671 61.013, 20.072 59.565 C 16.317 56.167, 18.176 48.560, 23.021 47.495 C 24.530 47.164, 27.506 45.415, 29.633 43.608 C 31.760 41.802, 37.228 38.393, 41.784 36.033 C 46.340 33.673, 50.518 30.900, 51.069 29.871 C 51.620 28.842, 52.674 28, 53.413 28 C 54.151 28, 55.343 27.292, 56.061 26.427 C 58.423 23.581, 65.115 20.773, 68.109 21.372 C 71.780 22.106, 72.446 20.836, 70.012 17.742 C 67.474 14.516, 67.221 10.312, 69.323 6.300 C 72.810 -0.356, 74.719 0, 35.500 0 L 0 0 -0 63.906 M 245.325 3.923 C 246.502 8.334, 245.204 11, 241.878 11 C 240.814 11, 239.934 11.759, 239.848 12.750 C 239.764 13.713, 239.650 15.155, 239.595 15.956 C 239.536 16.810, 237.883 17.746, 235.596 18.222 C 233.452 18.667, 231.154 19.775, 230.490 20.683 C 229.618 21.875, 227.945 22.284, 224.477 22.153 C 221.834 22.053, 217.103 22.437, 213.962 23.007 C 210.822 23.576, 204.258 24.430, 199.376 24.903 C 194.494 25.377, 189.150 26.314, 187.500 26.985 L 184.500 28.206 187 29.167 C 188.897 29.896, 190.223 29.698, 192.500 28.346 C 196.395 26.032, 220.806 25.023, 224.540 27.021 C 226.492 28.066, 227.477 28.002, 230.347 26.640 C 234.116 24.851, 238.709 24.530, 240.878 25.904 C 243.770 27.735, 238.907 30.869, 232 31.625 C 225.165 32.373, 224 32.923, 224 35.402 C 224 36.954, 224.713 37.953, 226.074 38.309 C 227.215 38.607, 228.393 39.785, 228.691 40.926 C 229.402 43.644, 230.150 43.560, 237.192 39.982 C 240.459 38.322, 243.502 37.192, 243.955 37.472 C 244.408 37.752, 245.087 39.223, 245.463 40.741 C 245.840 42.258, 247.127 44.549, 248.324 45.831 C 249.521 47.112, 250.392 48.348, 250.261 48.575 C 250.129 48.803, 250.891 50.905, 251.953 53.245 C 253.016 55.585, 255.091 60.175, 256.564 63.444 C 260.947 73.172, 261.109 81.196, 256.950 82.516 C 255.825 82.873, 254.301 82.665, 253.564 82.053 C 251.665 80.477, 247.394 82.493, 242.750 87.157 C 240.688 89.228, 239 91.165, 239 91.461 C 239 92.352, 242.807 92.067, 243.167 91.149 C 243.686 89.825, 252.120 84.787, 252.755 85.422 C 253.066 85.733, 252.574 86.813, 251.661 87.823 C 250.747 88.832, 249.995 90.747, 249.989 92.079 C 249.981 93.836, 248.622 95.460, 245.036 98 C 242.318 99.925, 240.073 102.014, 240.047 102.642 C 239.996 103.882, 238.055 104.488, 230.748 105.542 C 226.067 106.217, 225.986 106.182, 225.396 103.228 C 225.029 101.397, 223.861 99.802, 222.398 99.135 C 221.079 98.535, 220 97.557, 220 96.962 C 220 96.368, 220.450 96.160, 221 96.500 C 221.550 96.840, 222 96.191, 222 95.059 C 222 92.544, 220.715 92.428, 218.408 94.735 C 217.454 95.689, 215.650 96.335, 214.400 96.171 C 213.112 96.003, 211.232 96.768, 210.063 97.937 C 208.049 99.951, 208 99.954, 208 98.039 C 208 96.961, 208.615 95.504, 209.367 94.802 C 210.512 93.733, 210.515 93.361, 209.385 92.513 C 208.472 91.826, 208.340 91.019, 208.977 90.008 C 209.725 88.820, 210.170 88.770, 211.158 89.758 C 213.029 91.629, 214.299 91.251, 213.710 89 C 213.322 87.517, 213.680 87, 215.094 87 C 216.142 87, 217 86.377, 217 85.615 C 217 84.853, 218.125 83.493, 219.500 82.592 C 221.463 81.306, 222 80.112, 222 77.036 C 222 72.482, 220.696 71.172, 218.818 73.840 C 218.093 74.870, 216.556 76.011, 215.403 76.375 C 214.068 76.797, 212.867 78.501, 212.100 81.060 C 211.191 84.095, 210.049 85.486, 207.448 86.726 C 205.388 87.709, 204 89.101, 204 90.185 C 204 92.390, 202.683 92.528, 201 90.500 C 198.929 88.005, 196 88.619, 196 91.550 C 196 92.952, 195.312 95.430, 194.471 97.057 C 193.049 99.806, 192.654 99.968, 188.857 99.361 C 185.102 98.761, 184.823 98.869, 185.404 100.697 C 185.807 101.967, 185.265 103.665, 183.904 105.396 C 182.731 106.886, 182.032 108.366, 182.351 108.684 C 182.669 109.002, 182.477 110.108, 181.925 111.140 C 181.192 112.510, 180.187 112.879, 178.210 112.503 C 176.719 112.220, 176.167 112.288, 176.982 112.655 C 177.797 113.021, 179.067 113.924, 179.804 114.661 C 182.731 117.588, 187.754 115.277, 185.918 111.847 C 185.171 110.452, 185.279 110, 186.358 110 C 187.143 110, 188.070 110.739, 188.417 111.643 C 189.026 113.232, 190.370 112.790, 190.625 110.917 C 190.929 108.688, 191.085 108.584, 192 110 C 192.533 110.825, 192.976 112.992, 192.985 114.816 C 193.006 119.456, 194.618 122, 197.535 122 C 198.891 122, 200 122.450, 200 123 C 200 123.550, 200.450 124, 201 124 C 201.550 124, 202 123.311, 202 122.469 C 202 119.841, 204.649 119.770, 207.404 122.323 C 209.404 124.177, 209.701 124.901, 208.632 125.311 C 206.346 126.188, 204.222 131.367, 205.135 133.836 C 205.588 135.061, 205.499 137.186, 204.933 138.677 C 204.180 140.656, 204.252 141.543, 205.211 142.152 C 207.275 143.461, 208 143.143, 208 140.927 C 208 139.480, 208.529 138.963, 209.750 139.218 C 210.894 139.456, 211.414 140.366, 211.252 141.845 C 211.116 143.090, 211.690 145.434, 212.528 147.054 C 214.393 150.660, 213.481 150.779, 206.952 147.783 C 204.294 146.564, 201.913 144.775, 201.660 143.807 C 201.032 141.406, 196.313 139.287, 194.850 140.750 C 194.056 141.544, 194.476 142.567, 196.377 144.468 C 200.420 148.511, 199.878 149.928, 194.750 148.725 C 180.248 145.321, 171.480 141.054, 159.586 131.611 C 155.838 128.635, 148.400 126.544, 147.388 128.181 C 147.076 128.687, 146.521 131.215, 146.155 133.800 C 145.654 137.345, 144.938 138.743, 143.245 139.487 C 142.010 140.030, 141 141.069, 141 141.796 C 141 142.523, 141.409 142.865, 141.910 142.556 C 142.410 142.247, 143.515 142.260, 144.365 142.587 C 145.703 143.100, 145.652 143.458, 143.982 145.250 C 142.072 147.300, 142.077 147.342, 144.479 149.568 C 146.464 151.408, 146.800 152.460, 146.328 155.364 C 146.012 157.316, 146.094 159.720, 146.512 160.706 C 146.929 161.693, 147.322 163.617, 147.385 164.982 C 147.461 166.616, 148.183 167.594, 149.500 167.847 C 150.600 168.059, 151.811 168.725, 152.191 169.329 C 152.571 169.933, 154.596 170.901, 156.691 171.481 C 159.437 172.241, 160.951 173.434, 162.118 175.756 C 164.385 180.269, 165.983 182, 167.882 182 C 169.650 182, 172.272 185.395, 171.274 186.392 C 170.940 186.726, 169.649 187, 168.406 187 C 167.162 187, 165.231 188.163, 164.113 189.584 C 162.995 191.005, 161.612 191.878, 161.040 191.525 C 160.468 191.171, 160 191.575, 160 192.422 C 160 194.774, 155.397 195.490, 152.497 193.590 C 150.870 192.524, 149.055 192.184, 147.254 192.609 C 144.990 193.143, 144.722 193.022, 145.750 191.929 C 147.766 189.786, 147.197 188, 144.500 188 C 141.334 188, 141.365 188.889, 144.750 195.168 C 149.774 204.486, 150.103 205, 151.055 205 C 151.575 205, 152 205.675, 152 206.500 C 152 208.488, 150.819 208.396, 148.793 206.250 C 146.611 203.938, 144.216 202, 143.542 202 C 142.336 202, 143.108 204.844, 144.662 206.128 C 146.765 207.864, 151.226 217.825, 150.458 219.068 C 150.141 219.580, 149.203 220, 148.374 220 C 147.330 220, 147.057 220.605, 147.488 221.962 C 147.831 223.041, 147.572 224.931, 146.913 226.162 C 145.883 228.088, 146.014 228.597, 147.858 229.822 C 149.036 230.604, 150 232.121, 150 233.193 C 150 235.305, 152.203 238, 153.929 238 C 155.104 238, 155.327 239.984, 154.417 242.355 C 154.072 243.254, 153.186 243.625, 152.244 243.263 C 151.041 242.802, 150.817 243.081, 151.326 244.408 C 151.697 245.374, 152.007 246.689, 152.015 247.332 C 152.024 248.002, 152.444 247.861, 153 247 C 153.862 245.667, 153.983 245.667, 154.095 247 C 154.356 250.098, 153.771 253.542, 152.780 254.750 C 152.070 255.617, 152.099 256, 152.878 256 C 154.282 256, 154.394 264.639, 153 265.500 C 152.450 265.840, 152 266.991, 152 268.059 C 152 269.127, 151.603 270, 151.117 270 C 150.075 270, 150.203 274.974, 151.289 276.689 C 151.729 277.383, 151.305 278.306, 150.271 278.908 C 149.035 279.628, 161.964 279.948, 193.050 279.970 C 223.835 279.991, 237.936 279.664, 238.687 278.913 C 239.470 278.130, 239.962 278.130, 240.446 278.913 C 240.913 279.669, 254.465 280, 284.948 280 L 328.777 280 329.409 276.634 C 329.756 274.783, 329.762 272.545, 329.423 271.660 C 328.507 269.272, 326 272.082, 326 275.498 C 326 277.665, 325.596 278.082, 323.750 277.820 C 321.858 277.551, 321.449 276.788, 321.181 273.020 C 320.818 267.910, 319.618 266, 316.771 266 C 315.495 266, 314.975 265.507, 315.315 264.622 C 315.859 263.205, 314.281 261, 312.725 261 C 312.243 261, 311.996 262.439, 312.175 264.197 C 312.493 267.327, 312.412 267.396, 308.255 267.501 C 305.112 267.581, 303.874 267.177, 303.483 265.945 C 302.775 263.715, 303.901 261, 305.534 261 C 306.261 261, 307.740 259.875, 308.821 258.500 C 311.100 255.603, 312.510 255.216, 311.553 257.750 C 310.969 259.296, 311.058 259.325, 312.319 258 C 314.020 256.212, 315.345 250, 314.026 250 C 313.518 250, 311.900 251.575, 310.432 253.500 C 307.633 257.169, 302.946 258.324, 301.300 255.750 C 300.261 254.127, 296.435 252, 294.553 252 C 293.741 252, 292.252 252.887, 291.242 253.970 C 289.482 255.859, 289.254 255.871, 285.703 254.262 C 282.557 252.836, 282.033 252.147, 282.221 249.683 C 282.361 247.851, 283.189 246.471, 284.471 245.936 C 289.030 244.035, 291.311 241.376, 290.648 238.734 C 290.109 236.585, 290.447 236.040, 292.831 235.209 C 297.664 233.524, 302.198 237.894, 299.958 242.078 C 299.346 243.221, 299.175 244.909, 299.577 245.828 C 299.979 246.748, 300.210 248.288, 300.091 249.250 C 299.972 250.213, 300.337 251, 300.902 251 C 302.352 251, 304 247.596, 304 244.601 C 304 243.094, 304.809 241.637, 306 241 C 307.100 240.411, 308 239.270, 308 238.465 C 308 236.207, 309.871 236.717, 312.974 239.820 C 315.498 242.344, 315.621 242.756, 314.147 243.738 C 312.672 244.721, 312.761 245.026, 315 246.659 C 316.487 247.744, 319.493 248.557, 322.419 248.667 C 325.708 248.790, 327.629 249.373, 328.218 250.426 C 328.703 251.292, 329.977 252, 331.050 252 C 332.122 252, 333 252.450, 333 253 C 333 253.550, 332.288 254, 331.417 254 C 330.546 254, 330.025 254.562, 330.260 255.250 C 330.494 255.938, 331.657 256.359, 332.843 256.187 C 334.029 256.015, 335 256.385, 335 257.009 C 335 257.669, 335.657 257.486, 336.571 256.571 C 338.516 254.626, 339.013 254.621, 341.712 256.511 C 343.077 257.467, 344.098 257.650, 344.493 257.011 C 345.545 255.309, 347.004 255.880, 347.948 258.363 C 348.900 260.868, 352.586 262.479, 353.602 260.836 C 353.938 260.291, 355.854 260.137, 357.931 260.488 C 360.668 260.951, 362.001 260.704, 362.951 259.559 C 364.676 257.480, 365.736 257.594, 366.480 259.936 C 367.214 262.250, 369.704 262.963, 372.640 261.700 C 374.291 260.990, 375.261 261.261, 376.890 262.890 C 378.437 264.437, 380.252 265, 383.695 265 C 387.423 265, 388.966 265.551, 391.183 267.675 C 393.752 270.136, 394.182 270.240, 396.553 268.972 C 398.766 267.787, 399.260 267.798, 400.050 269.046 C 400.556 269.846, 400.976 270.111, 400.985 269.635 C 400.993 269.159, 402.210 269.562, 403.688 270.531 C 405.166 271.500, 408.654 272.407, 411.438 272.547 C 414.222 272.687, 417.288 273.120, 418.250 273.508 C 419.750 274.113, 420 273.617, 420 270.035 C 420 266.283, 419.771 265.886, 417.750 266.148 C 416.512 266.307, 414.934 266.086, 414.243 265.656 C 413.475 265.178, 412.753 265.481, 412.386 266.437 C 411.970 267.520, 410.462 268, 407.475 268 C 401.817 268, 400 267.219, 400 264.788 C 400 263.060, 399.459 262.841, 396 263.171 C 393.800 263.381, 392 263.224, 392 262.822 C 392 261.346, 399.361 260.729, 402.674 261.927 C 405.268 262.865, 407.298 262.872, 411.695 261.960 C 416.811 260.897, 417.496 260.959, 418.684 262.582 C 419.777 264.077, 420 252.716, 420 195.584 C 420 133.088, 419.854 126.842, 418.409 127.397 C 416.804 128.013, 410.436 125.514, 409.419 123.869 C 408.361 122.157, 410.139 119, 412.163 119 C 413.279 119, 415.498 118.228, 417.096 117.284 C 419.364 115.945, 420 114.849, 420 112.284 C 420 110.478, 419.550 109, 419 109 C 418.450 109, 418 108.347, 418 107.550 C 418 106.752, 417.307 105.711, 416.459 105.237 C 414.884 104.356, 415.397 101, 417.107 101 C 417.598 101, 418 100.100, 418 99 C 418 97.900, 418.450 97, 419 97 C 419.577 97, 420 93.856, 420 89.567 C 420 83.369, 419.709 82.042, 418.250 81.573 C 417.287 81.264, 415.614 79.686, 414.531 78.065 C 413.054 75.854, 412.243 75.383, 411.281 76.181 C 409.445 77.705, 409.688 78.922, 412.250 81.038 L 414.500 82.897 412.257 86.885 C 411.023 89.078, 410.266 91.530, 410.574 92.333 C 410.890 93.155, 410.037 94.823, 408.624 96.147 C 407.243 97.441, 405.638 99.765, 405.058 101.310 C 403.985 104.170, 402 104.168, 402 101.307 C 402 100.441, 403.800 96.199, 406 91.881 C 408.200 87.564, 410 83.349, 410 82.516 C 410 80.431, 408.069 80.603, 407.358 82.750 C 407.039 83.712, 404.129 90.018, 400.889 96.763 C 395.909 107.133, 395 109.873, 395 114.513 C 395 119.956, 394.976 120, 391.968 120 C 387.791 120, 378.286 116.669, 368.675 111.837 C 354.653 104.786, 353.596 103.529, 345.697 84.500 C 344.328 81.200, 342.870 77.375, 342.457 76 C 341.237 71.928, 337.309 66.337, 333.788 63.659 C 326.975 58.477, 312.891 55, 298.712 55 C 288.716 55, 281.162 49.305, 275.829 37.750 C 274.493 34.857, 273.518 34, 271.562 34 L 269.025 34 271.553 39.750 C 272.943 42.913, 275.075 46.324, 276.290 47.331 L 278.500 49.162 274.908 48.669 C 269.048 47.866, 260.929 41.948, 256.167 35.009 C 252.799 30.102, 252.155 28.518, 253.074 27.410 C 253.713 26.641, 253.989 25.067, 253.688 23.914 C 253.205 22.069, 253.460 21.897, 255.820 22.474 C 257.294 22.834, 259.531 24.225, 260.790 25.565 C 262.050 26.904, 263.709 28, 264.477 28 C 265.317 28, 266.007 29.296, 266.209 31.250 L 266.545 34.500 268.281 30.608 C 269.235 28.468, 272.263 24.506, 275.008 21.803 C 277.754 19.100, 279.997 16.352, 279.993 15.695 C 279.989 15.038, 278.324 13.375, 276.292 12 C 271.077 8.471, 268 5.488, 268 3.961 C 268 3.159, 267.032 3.561, 265.500 5 C 263.028 7.322, 263 7.325, 263 5.233 C 263 4.070, 263.450 2.840, 264 2.500 C 266.838 0.746, 264.045 0, 254.639 0 L 244.278 0 245.325 3.923 M 288 1.809 C 288 2.804, 287.339 4.491, 286.532 5.559 C 284.497 8.250, 284.625 8.695, 287.601 9.264 C 289.643 9.654, 291.308 8.790, 295.351 5.240 C 298.183 2.753, 300.688 0.557, 300.917 0.359 C 301.146 0.162, 298.333 -0, 294.667 -0 C 288.901 -0, 288 0.245, 288 1.809 M 390.750 6.115 C 394.188 9.458, 397 12.438, 397 12.738 C 397 13.038, 398.866 16.239, 401.147 19.851 C 407.298 29.590, 409.462 35.228, 412.058 48.277 C 414.078 58.435, 414.235 60.671, 413.200 64.542 C 411.489 70.941, 411.646 74, 413.686 74 C 414.613 74, 416.413 74.978, 417.686 76.174 L 420 78.349 420 72.783 C 420 67.693, 419.788 67.164, 417.522 66.595 C 415.296 66.036, 415.057 65.491, 415.171 61.237 C 415.272 57.466, 415.828 56.044, 417.898 54.264 C 420.161 52.318, 420.335 51.766, 419.241 50.014 C 418.498 48.825, 418.396 48, 418.992 48 C 419.641 48, 420 39.468, 420 24 L 420 0 402.250 0.019 L 384.500 0.038 390.750 6.115 M 323.415 9.137 C 322.675 10.335, 326.622 13.939, 328.715 13.978 C 329.965 14.001, 332 10.958, 332 9.066 C 332 7.633, 324.305 7.697, 323.415 9.137 M 340 11.929 C 340 15.348, 342.275 18, 345.207 18 C 347.197 18, 352 13.790, 352 12.046 C 352 10.884, 346.340 9, 342.851 9 C 340.365 9, 340 9.375, 340 11.929 M 293.305 13.266 C 290.995 14.577, 283.498 22.869, 284.131 23.412 C 284.334 23.587, 285.472 24.234, 286.660 24.851 C 288.022 25.559, 288.648 26.630, 288.355 27.751 C 288.027 29.006, 289.075 30.260, 291.918 32.014 C 294.134 33.381, 295.958 34.837, 295.973 35.250 C 295.988 35.663, 296.603 36, 297.339 36 C 299.010 36, 301.138 31.524, 300.393 29.580 C 300.088 28.787, 300.755 26.869, 301.874 25.319 C 303.115 23.601, 304.025 20.547, 304.205 17.500 L 304.500 12.500 300 12.260 C 297.525 12.129, 294.512 12.581, 293.305 13.266 M 358.053 19.750 C 356.643 24.826, 356.733 26.533, 358.487 27.989 C 360.374 29.555, 363.688 28.700, 367.411 25.687 C 370.694 23.031, 370.196 20.662, 366.548 21.577 C 364.093 22.194, 362.206 20.609, 364.044 19.473 C 364.737 19.045, 364.476 18.320, 363.310 17.436 C 360.390 15.222, 359.160 15.764, 358.053 19.750 M 164 27.754 C 155.734 28.594, 141.152 31.437, 141.578 32.126 C 142.254 33.220, 150.122 32.462, 157.500 30.592 C 160.800 29.756, 167.325 29.024, 172 28.965 C 176.675 28.907, 181.400 28.498, 182.500 28.057 C 184.324 27.325, 170.457 27.098, 164 27.754 M 368 31 C 368 31.550, 368.450 32, 369 32 C 369.550 32, 370 31.550, 370 31 C 370 30.450, 369.550 30, 369 30 C 368.450 30, 368 30.450, 368 31 M 373.413 32.493 C 370.186 37.418, 373.573 41.898, 379.415 40.432 C 382.679 39.613, 382.688 37.591, 379.449 33.344 C 376.397 29.342, 375.555 29.224, 373.413 32.493 M 156.250 33.662 C 154.908 34.204, 154.497 37, 155.759 37 C 156.177 37, 157.081 36.100, 157.768 35 C 159.008 33.014, 158.647 32.695, 156.250 33.662 M 93 41.059 C 93 41.641, 93.450 41.840, 94 41.500 C 94.550 41.160, 95 40.684, 95 40.441 C 95 40.198, 94.550 40, 94 40 C 93.450 40, 93 40.477, 93 41.059 M 170.250 43.250 C 170.479 43.938, 171.267 44.500, 172 44.500 C 172.733 44.500, 173.521 43.938, 173.750 43.250 C 173.998 42.506, 173.289 42, 172 42 C 170.711 42, 170.002 42.506, 170.250 43.250 M 118.500 45 C 118.160 45.550, 118.584 46, 119.441 46 C 120.298 46, 121 45.550, 121 45 C 121 44.450, 120.577 44, 120.059 44 C 119.541 44, 118.840 44.450, 118.500 45 M 166.230 49.255 C 163.902 51.733, 163.303 54, 164.977 54 C 166.300 54, 169.278 49.334, 168.824 47.973 C 168.624 47.372, 167.457 47.949, 166.230 49.255 M 146 49.441 C 146 50.234, 146.450 51.160, 147 51.500 C 147.550 51.840, 148 51.191, 148 50.059 C 148 48.927, 147.550 48, 147 48 C 146.450 48, 146 48.648, 146 49.441 M 383.438 50.068 C 381.729 51.957, 381.697 52.369, 383.068 54.811 C 384.667 57.661, 387.587 58.813, 389.179 57.221 C 390.505 55.895, 388.310 48, 386.616 48 C 385.898 48, 384.468 48.931, 383.438 50.068 M 216.048 52.949 C 215.249 53.455, 214.124 53.586, 213.548 53.242 C 212.971 52.898, 213.077 53.329, 213.782 54.199 C 214.487 55.070, 216.400 55.978, 218.032 56.218 C 220.597 56.594, 221 56.338, 221 54.327 C 221 51.859, 218.757 51.235, 216.048 52.949 M 225.467 54.037 C 223.890 55.779, 223.812 56.266, 224.994 56.996 C 226.091 57.674, 226.166 58.388, 225.328 60.185 C 222.336 66.604, 221.007 72, 222.418 72 C 224.468 72, 226 70.344, 226 68.128 C 226 66.666, 226.925 63.744, 228.057 61.633 C 231.472 55.261, 229.525 49.552, 225.467 54.037 M 109.299 55.106 C 105.863 56.100, 104.531 57.432, 105.463 58.940 C 105.807 59.497, 107.447 59.293, 109.490 58.440 C 114.639 56.288, 120.705 56.555, 122.232 59 C 124.332 62.362, 128.786 61.212, 127.423 57.660 C 126.179 54.417, 116.431 53.044, 109.299 55.106 M 152 57 C 152 58.100, 152.633 59, 153.406 59 C 154.320 59, 154.630 58.300, 154.290 57 C 154.002 55.900, 153.369 55, 152.883 55 C 152.398 55, 152 55.900, 152 57 M 387.785 76.124 C 385.127 77.853, 382.930 80.145, 382.575 81.557 C 382.158 83.219, 381.249 84.010, 379.731 84.032 C 378.504 84.049, 376.634 84.719, 375.575 85.520 C 373.875 86.806, 373.805 87.267, 374.979 89.460 C 376.373 92.065, 383.702 96.302, 385.206 95.372 C 385.688 95.075, 385.808 93.970, 385.473 92.916 C 384.455 89.706, 386.671 90.778, 388.914 94.579 C 390.076 96.547, 391.583 97.977, 392.263 97.756 C 394.291 97.096, 398.193 89.167, 398.444 85.195 C 398.733 80.630, 396.795 75.496, 394.276 74.147 C 392.786 73.350, 391.400 73.773, 387.785 76.124 M 95.188 78.739 C 95.690 81.345, 99 81.636, 99 79.073 C 99 77.642, 98.358 77, 96.927 77 C 95.496 77, 94.957 77.539, 95.188 78.739 M 305.500 79.472 C 302.598 81.259, 300.643 81.782, 298.378 81.380 C 295.584 80.884, 295.143 81.150, 294.179 83.917 C 293.586 85.618, 291.853 88.083, 290.328 89.394 L 287.555 91.780 289.948 96.890 C 292.620 102.593, 295 103.626, 295 99.082 C 295 95.567, 295.889 93, 297.107 93 C 298.330 93, 298.239 96.734, 296.997 97.502 C 296.339 97.909, 296.382 98.845, 297.124 100.232 C 298.027 101.919, 297.936 102.574, 296.670 103.499 C 295.296 104.504, 295.740 105.308, 300.027 109.579 C 302.744 112.285, 304.761 115.069, 304.509 115.764 C 304.258 116.459, 305.838 119.384, 308.022 122.264 C 310.205 125.144, 311.993 127.838, 311.996 128.250 C 311.998 128.662, 312.675 129, 313.500 129 C 315.198 129, 315.511 127.434, 314 126.500 C 313.450 126.160, 313 125.436, 313 124.890 C 313 123.254, 320.215 120.500, 324.500 120.500 C 327.735 120.500, 328.472 120.157, 328.354 118.705 C 328.273 117.718, 329.398 116.147, 330.854 115.213 C 332.309 114.280, 334.372 112.725, 335.439 111.758 C 337.947 109.483, 338.565 109.541, 340.443 112.223 L 342 114.445 342 112.129 C 342 110.654, 341.274 109.623, 340 109.290 C 338.900 109.002, 338 108.088, 338 107.258 C 338 106.120, 338.727 105.895, 340.961 106.342 C 342.590 106.668, 344.191 106.499, 344.520 105.967 C 344.849 105.435, 346.441 105, 348.059 105 C 351.811 105, 351.764 103.776, 347.833 99.093 C 344.781 95.458, 344.563 95.371, 341.854 96.723 C 338.480 98.406, 333 104.812, 333 107.072 C 333 108.967, 328.916 114, 327.379 114 C 325.465 114, 324.179 109.489, 324.927 105.399 C 326.521 96.682, 324.192 90.757, 320.043 92.977 C 318.897 93.590, 317.538 93.832, 317.023 93.514 C 316.509 93.196, 315.375 94.025, 314.503 95.355 C 313.135 97.442, 312.597 97.622, 310.571 96.665 C 308.468 95.673, 308.393 95.433, 309.850 94.367 C 310.746 93.713, 311.820 93.389, 312.239 93.648 C 312.658 93.906, 313 93.668, 313 93.118 C 313 91.488, 311.265 90.895, 308.515 91.585 C 306.697 92.042, 306.094 92.722, 306.467 93.898 C 306.840 95.072, 306.113 95.896, 303.998 96.695 C 301.307 97.710, 301 97.627, 301 95.882 C 301 94.812, 301.675 93.678, 302.500 93.362 C 303.325 93.045, 304 91.934, 304 90.893 C 304 89.664, 304.705 89, 306.010 89 C 307.115 89, 308.790 88.100, 309.732 87 C 310.674 85.900, 312.019 85, 312.722 85 C 313.425 85, 314 84.269, 314 83.375 C 314 82.096, 314.651 81.880, 317.059 82.362 L 320.117 82.973 317.991 79.987 C 315.295 76.201, 311.095 76.029, 305.500 79.472 M 92 80.383 C 92 82.929, 93.169 85, 94.607 85 C 96.728 85, 96.268 81.214, 94 80 C 92.426 79.158, 92 79.240, 92 80.383 M 71 80.941 C 71 81.459, 71.450 82.160, 72 82.500 C 72.550 82.840, 73 82.416, 73 81.559 C 73 80.702, 72.550 80, 72 80 C 71.450 80, 71 80.423, 71 80.941 M 311.500 81 C 311.840 81.550, 312.316 82, 312.559 82 C 312.802 82, 313 81.550, 313 81 C 313 80.450, 312.523 80, 311.941 80 C 311.359 80, 311.160 80.450, 311.500 81 M 390.429 85.710 C 390.839 90.289, 392.191 90.884, 394.428 87.470 C 396.358 84.524, 395.203 82, 391.925 82 C 390.421 82, 390.155 82.660, 390.429 85.710 M 62.558 83.775 C 62.251 84.082, 62 85.421, 62 86.750 C 62 89.549, 63.690 89.353, 65.702 86.322 C 66.926 84.480, 66.859 84.196, 65.096 83.735 C 64.007 83.451, 62.865 83.469, 62.558 83.775 M 225.660 83.750 C 225.407 84.162, 225.043 85.842, 224.851 87.481 C 224.358 91.674, 227.094 91.968, 228.882 87.914 C 230.058 85.248, 230.058 84.651, 228.882 83.906 C 227.171 82.822, 226.254 82.778, 225.660 83.750 M 298.174 86.314 C 295.526 89.134, 295.441 90, 297.813 90 C 298.810 90, 300.919 88.650, 302.500 87 L 305.374 84 302.861 84 C 301.479 84, 299.370 85.042, 298.174 86.314 M 313.306 86.645 C 312.919 87.654, 313.397 88.817, 314.542 89.654 C 316.126 90.813, 316.626 90.803, 317.841 89.587 C 318.629 88.800, 319.001 87.445, 318.668 86.578 C 317.871 84.501, 314.111 84.548, 313.306 86.645 M 274.546 99.395 C 274.993 101.778, 274.846 103, 274.111 103 C 273.500 103, 273 101.612, 273 99.917 C 273 97.893, 272.570 96.977, 271.750 97.253 C 270.487 97.677, 270.324 98.275, 270.115 103.250 C 270.031 105.266, 269.482 106, 268.059 106 C 266.991 106, 265.792 106.527, 265.394 107.171 C 264.919 107.940, 264.382 107.562, 263.829 106.066 C 263.275 104.570, 262.458 103.994, 261.442 104.384 C 260.557 104.724, 260.157 104.555, 260.507 103.989 C 260.843 103.445, 260.716 103, 260.226 103 C 258.508 103, 258.028 104.329, 259.224 105.770 C 259.888 106.569, 260.309 108.637, 260.160 110.364 C 259.801 114.529, 263.123 118.258, 266.449 117.423 C 268.115 117.005, 269.106 117.367, 269.828 118.658 C 270.390 119.662, 271.136 120.197, 271.486 119.848 C 272.183 119.150, 277 123.584, 277 124.923 C 277 125.381, 276.302 126.334, 275.449 127.042 C 273.607 128.571, 273.871 134.139, 275.816 134.778 C 276.540 135.016, 277.372 134.292, 277.666 133.169 C 278.092 131.540, 278.989 131.139, 282.114 131.182 C 284.267 131.212, 286.303 131.681, 286.639 132.225 C 287.024 132.848, 287.512 132.790, 287.958 132.068 C 288.890 130.559, 292.566 131.981, 296.457 135.355 C 298.083 136.766, 299.618 137.715, 299.867 137.466 C 300.523 136.811, 295.846 128, 294.843 128 C 294.379 128, 294 127.503, 294 126.895 C 294 126.287, 292.650 123.790, 291 121.345 C 289.350 118.900, 288 116.667, 288 116.383 C 288 116.099, 286.911 114.434, 285.581 112.683 C 284.250 110.932, 281.628 106.601, 279.753 103.057 C 275.753 95.497, 273.520 93.926, 274.546 99.395 M 331.694 98.639 C 330.895 99.438, 331.798 101, 333.059 101 C 333.577 101, 334 100.325, 334 99.500 C 334 97.954, 332.820 97.513, 331.694 98.639 M 215.710 103 C 215.998 104.100, 216.406 105, 216.617 105 C 216.827 105, 217 104.100, 217 103 C 217 101.900, 216.592 101, 216.094 101 C 215.595 101, 215.423 101.900, 215.710 103 M 307.494 105.006 C 306.496 106.110, 305.945 107.279, 306.271 107.604 C 306.941 108.274, 311.920 104.905, 311.969 103.750 C 312.031 102.267, 309.273 103.041, 307.494 105.006 M 418.583 103.866 C 418.152 104.563, 418.070 105.403, 418.400 105.733 C 419.295 106.628, 420.271 105.312, 419.787 103.862 C 419.449 102.846, 419.213 102.846, 418.583 103.866 M 410.229 107.188 C 410.847 109.042, 413 109.349, 413 107.583 C 413 106.713, 412.288 106, 411.417 106 C 410.546 106, 410.011 106.534, 410.229 107.188 M 333.813 110.683 C 334.534 110.972, 335.397 110.936, 335.729 110.604 C 336.061 110.272, 335.471 110.036, 334.417 110.079 C 333.252 110.127, 333.015 110.364, 333.813 110.683 M 400.336 111.567 C 399.545 113.629, 401.618 115.782, 403.033 114.367 C 404.178 113.222, 403.314 110, 401.862 110 C 401.353 110, 400.667 110.705, 400.336 111.567 M 253.236 113.500 C 253.195 116.866, 254.735 122.649, 254.900 119.750 C 254.955 118.787, 255.450 118, 256 118 C 256.550 118, 257 117.325, 257 116.500 C 257 115.675, 256.356 115, 255.570 115 C 254.783 115, 253.944 113.987, 253.706 112.750 C 253.383 111.074, 253.263 111.265, 253.236 113.500 M 197.570 112.887 C 197.269 113.374, 197.644 114.290, 198.405 114.921 C 199.467 115.803, 200.161 115.696, 201.394 114.463 C 202.277 113.580, 203 112.664, 203 112.429 C 203 111.599, 198.111 112.011, 197.570 112.887 M 408 115.441 C 408 116.942, 409.795 118.538, 410.590 117.743 C 411.288 117.046, 409.907 114, 408.893 114 C 408.402 114, 408 114.648, 408 115.441 M 334.281 117.750 C 333.919 118.713, 332.921 120.048, 332.062 120.718 C 331.203 121.388, 330.860 121.951, 331.300 121.968 C 332.685 122.023, 337.590 119.199, 338.945 117.566 C 340.069 116.212, 339.886 116, 337.591 116 C 335.980 116, 334.679 116.688, 334.281 117.750 M 230 119 C 230 119.550, 230.675 120, 231.500 120 C 232.325 120, 233 119.550, 233 119 C 233 118.450, 232.325 118, 231.500 118 C 230.675 118, 230 118.450, 230 119 M 248 118.317 C 248 118.491, 249.350 121.274, 251 124.500 C 252.650 127.726, 254 131.129, 254 132.061 C 254 134.554, 256.356 136.244, 257.807 134.793 C 259.498 133.102, 259.856 133.924, 260.092 140.024 C 260.209 143.036, 260.939 146.770, 261.715 148.322 C 262.808 150.508, 262.860 151.464, 261.945 152.567 C 261.023 153.677, 261.119 154.533, 262.382 156.460 C 263.509 158.180, 264 161.202, 264 166.416 C 264 170.534, 264.695 176.512, 265.545 179.701 C 268.254 189.869, 270.209 208.174, 268.858 210.734 C 268.016 212.329, 267.977 213.614, 268.720 215.234 C 269.724 217.420, 269.793 217.379, 270.676 214.068 C 271.804 209.841, 273.254 209.254, 275.938 211.938 C 277.072 213.072, 278.069 213.662, 278.152 213.250 C 278.236 212.838, 278.409 212.050, 278.537 211.500 C 278.665 210.950, 278.821 209.938, 278.885 209.250 C 278.948 208.563, 279.343 208, 279.762 208 C 280.517 208, 280.609 216.432, 279.879 218.650 C 279.428 220.019, 279.975 220.285, 282 219.682 C 291.599 216.824, 292.202 216.509, 293.708 213.567 C 294.572 211.880, 295.766 210.187, 296.361 209.804 C 296.955 209.422, 297.168 208.834, 296.832 208.499 C 296.497 208.164, 294.982 209.039, 293.465 210.445 C 291.949 211.850, 290.302 213, 289.806 213 C 289.310 213, 287.801 214.191, 286.452 215.646 L 284 218.292 284 215.646 C 284 214.191, 284.450 213, 285 213 C 285.550 213, 286 211.912, 286 210.583 C 286 209.254, 286.519 207.994, 287.152 207.783 C 287.786 207.571, 288.379 206.521, 288.470 205.449 C 288.712 202.593, 291.140 192.742, 292.032 191 C 292.454 190.175, 293.080 187.700, 293.423 185.500 C 293.766 183.300, 294.295 180.702, 294.598 179.728 C 295.450 176.986, 294.015 172, 292.374 172 C 291.567 172, 290.140 173.420, 289.203 175.157 C 287.208 178.855, 284.389 182, 283.070 182 C 281.890 182, 283.441 176.378, 285.208 174.249 C 285.919 173.393, 286.358 171.858, 286.186 170.838 C 285.985 169.655, 286.710 168.647, 288.186 168.055 C 289.459 167.544, 290.275 167.065, 290 166.989 C 289.725 166.913, 288.519 166.667, 287.319 166.443 C 282.622 165.562, 268.349 153.554, 265.620 148.187 C 262.850 142.739, 262.808 141.452, 265.396 141.238 C 266.712 141.129, 268.341 141.706, 269.017 142.520 C 269.692 143.334, 270.640 144, 271.122 144 C 272.631 144, 272.079 139.244, 270.500 138.638 C 269.633 138.306, 269 136.810, 269 135.093 C 269 131.683, 263.592 124.835, 262.730 127.154 C 262.350 128.175, 261.876 128.040, 260.766 126.597 C 258.965 124.255, 257 125.278, 257 128.559 C 257 129.902, 256.550 131, 256 131 C 255.450 131, 255 130.444, 255 129.764 C 255 127.920, 249.803 118, 248.836 118 C 248.376 118, 248 118.143, 248 118.317 M 3.150 123.950 C 3.370 124.610, 3.876 125.116, 4.275 125.075 C 5.471 124.951, 5.239 123.580, 3.950 123.150 C 3.290 122.930, 2.930 123.290, 3.150 123.950 M 365.263 124.120 C 363.092 124.744, 361.827 125.842, 361.423 127.452 C 361.091 128.772, 359.961 130.631, 358.910 131.581 C 357.860 132.532, 357 134.199, 357 135.287 C 357 137.009, 357.504 137.196, 360.927 136.737 C 363.464 136.396, 365.572 136.712, 366.880 137.628 C 368.692 138.897, 369.020 138.831, 370.001 136.997 C 371.317 134.539, 370.919 123.756, 369.500 123.424 C 368.950 123.295, 367.043 123.609, 365.263 124.120 M 2.427 134.479 C 0.735 135.759, 0.706 135.940, 2.191 135.968 C 3.121 135.986, 4.179 135.520, 4.541 134.933 C 5.630 133.171, 4.482 132.924, 2.427 134.479 M 130.500 141 C 130.160 141.550, 130.809 142, 131.941 142 C 133.073 142, 134 141.550, 134 141 C 134 140.450, 133.352 140, 132.559 140 C 131.766 140, 130.840 140.450, 130.500 141 M 216.500 141.937 C 212.057 142.800, 212.380 146.176, 217 147.175 C 221.434 148.134, 223 147.583, 223 145.067 C 223 142.497, 220.303 141.199, 216.500 141.937 M 125.543 147.250 C 126.390 151.172, 132.314 158.186, 136.641 160.391 C 138.369 161.271, 140.032 162.642, 140.338 163.437 C 141.253 165.823, 145 164.924, 145 162.319 C 145 160.730, 144.559 160.232, 143.508 160.635 C 142.606 160.981, 141.755 160.475, 141.353 159.354 C 140.450 156.830, 133.804 150.038, 132.219 150.017 C 131.514 150.008, 130.678 149.325, 130.362 148.500 C 130.045 147.675, 129.159 147, 128.393 147 C 127.627 147, 127 146.325, 127 145.500 C 127 144.675, 126.514 144, 125.921 144 C 125.225 144, 125.091 145.157, 125.543 147.250 M 171.542 165.868 C 170.779 168.270, 173.413 175, 175.116 175 C 175.785 175, 176.049 175.284, 175.702 175.631 C 174.345 176.988, 177.102 179.969, 179.528 179.768 C 182.238 179.544, 183.152 176, 180.500 176 C 179.452 176, 179 174.944, 179 172.500 C 179 170.575, 179.450 169, 180 169 C 180.550 169, 181 168.550, 181 168 C 181 165.924, 179.116 167.116, 177.840 170 C 176.149 173.819, 175.258 173.820, 175.394 170.002 C 175.457 168.225, 176.043 167.004, 176.833 167.002 C 179.244 166.998, 177.405 164.507, 174.759 164.192 C 172.893 163.970, 171.996 164.437, 171.542 165.868 M 248 171.774 C 248 174.452, 250.393 184, 251.065 184 C 251.498 184, 252.059 184.787, 252.311 185.750 C 252.592 186.827, 252.813 186.442, 252.884 184.750 C 252.948 183.238, 252.565 182, 252.034 182 C 251.503 182, 250.769 179.740, 250.403 176.978 C 250.036 174.215, 249.346 171.714, 248.868 171.419 C 248.391 171.123, 248 171.283, 248 171.774 M 310.224 180.811 C 310.180 182.357, 309.221 187.334, 308.092 191.870 C 306.963 196.406, 306.126 200.429, 306.232 200.809 C 306.338 201.189, 305.838 202.561, 305.120 203.857 C 303.642 206.526, 304.762 208.412, 307.256 207.455 C 308.952 206.804, 312 201.184, 312 198.706 C 312 197.885, 312.667 196.958, 313.483 196.645 C 314.299 196.332, 314.713 195.415, 314.403 194.608 C 314.093 193.801, 314.515 191.646, 315.340 189.820 C 316.166 187.994, 317.162 185.375, 317.555 184 C 317.948 182.625, 318.717 181.213, 319.263 180.862 C 321.291 179.559, 318.747 178, 314.593 178 C 310.577 178, 310.299 178.179, 310.224 180.811 M 211 182 C 211 182.550, 211.450 183, 212 183 C 212.550 183, 213 182.550, 213 182 C 213 181.450, 212.550 181, 212 181 C 211.450 181, 211 181.450, 211 182 M 335.583 181.866 C 335.152 182.563, 335.070 183.403, 335.400 183.733 C 336.295 184.628, 337.271 183.312, 336.787 181.862 C 336.449 180.846, 336.213 180.846, 335.583 181.866 M 190 184.441 C 190 185.784, 190.450 187.160, 191 187.500 C 191.583 187.861, 192 186.844, 192 185.059 C 192 183.377, 191.550 182, 191 182 C 190.450 182, 190 183.098, 190 184.441 M 216.507 182.988 C 216.134 183.593, 216.370 184.741, 217.032 185.538 C 217.694 186.336, 218.012 187.846, 217.738 188.893 C 217.464 189.940, 217.909 193.205, 218.725 196.149 C 219.542 199.092, 220.561 203.075, 220.990 205 C 222.018 209.612, 222.194 192.241, 221.177 186.511 C 220.474 182.549, 217.954 180.648, 216.507 182.988 M 225.566 184.893 C 224.835 186.076, 225.933 189, 227.107 189 C 228.290 189, 228.259 185.278, 227.069 184.543 C 226.557 184.226, 225.881 184.384, 225.566 184.893 M 325.256 185.755 C 325.329 186.720, 323.726 191.012, 321.694 195.293 C 319.662 199.574, 318 203.648, 318 204.347 C 318 205.046, 317.339 206.491, 316.532 207.559 C 314.585 210.133, 314.565 215.619, 316.500 216.362 C 318.582 217.161, 318.387 220, 316.250 220.001 C 314.130 220.003, 309 224.239, 309 225.989 C 309 226.950, 309.388 226.923, 310.654 225.873 C 312.376 224.443, 315.836 224.535, 317.417 226.054 C 317.965 226.579, 317.662 227.192, 316.667 227.574 C 313.998 228.599, 314.741 230, 317.953 230 C 321.080 230, 326.057 228.167, 327.157 226.611 C 327.519 226.100, 327.613 225.155, 327.366 224.511 C 326.934 223.385, 334.653 219.238, 336.230 219.750 C 336.653 219.887, 337 219.602, 337 219.117 C 337 218.631, 337.958 217.983, 339.130 217.676 C 340.605 217.291, 341.066 216.614, 340.630 215.478 C 340.283 214.575, 340 213.198, 340 212.418 C 340 211.638, 339.523 211, 338.941 211 C 338.359 211, 338.160 211.449, 338.499 211.998 C 338.838 212.547, 338.415 213.997, 337.558 215.221 C 335.835 217.681, 336.032 218.115, 335.576 210.860 C 335.463 209.066, 335.825 208.379, 336.705 208.717 C 337.417 208.990, 338 208.756, 338 208.195 C 338 207.635, 337.212 207.328, 336.250 207.512 C 335.288 207.696, 334.153 207.881, 333.729 207.923 C 333.304 207.966, 332.445 209.125, 331.818 210.500 C 330.603 213.166, 327.362 214.104, 328.362 211.500 C 328.718 210.570, 328.357 210, 327.410 210 C 326.569 210, 326.161 210.451, 326.501 211.002 C 327.064 211.913, 323.190 214, 320.935 214 C 318.500 214, 320.411 211.045, 323.750 209.646 C 325.813 208.783, 328.603 207.201, 329.951 206.132 C 332.022 204.489, 332.200 203.946, 331.101 202.622 C 330.023 201.323, 330.074 200.783, 331.399 199.458 C 333.412 197.445, 331.876 194, 328.965 194 C 327.377 194, 327 193.312, 327 190.417 C 327 187.978, 327.399 186.976, 328.250 187.282 C 329.796 187.836, 333 186.273, 333 184.965 C 333 184.434, 331.228 184, 329.062 184 C 325.924 184, 325.151 184.356, 325.256 185.755 M 207.667 185.667 C 207.300 186.033, 207 191.156, 207 197.050 C 207 206.819, 207.172 207.812, 208.942 208.275 C 211.555 208.958, 212 208.321, 212 203.898 C 212 201.826, 212.422 199.020, 212.938 197.664 C 213.685 195.699, 213.469 194.829, 211.876 193.388 C 210.697 192.321, 210.079 190.805, 210.370 189.693 C 211.219 186.445, 209.480 183.854, 207.667 185.667 M 245.575 190.036 C 243.082 195.417, 243.145 198.889, 245.673 195.432 C 247.305 193.200, 249.359 186.026, 248.587 185.254 C 248.288 184.954, 246.932 187.106, 245.575 190.036 M 328.638 190.500 C 328.955 191.325, 329.841 192, 330.607 192 C 331.373 192, 332 191.325, 332 190.500 C 332 189.675, 331.115 189, 330.031 189 C 328.692 189, 328.247 189.480, 328.638 190.500 M 134 191 C 134 191.550, 134.477 192, 135.059 192 C 135.641 192, 135.840 191.550, 135.500 191 C 135.160 190.450, 134.684 190, 134.441 190 C 134.198 190, 134 190.450, 134 191 M 188.094 191.676 C 188.481 193.906, 187.815 195.821, 185.961 197.811 C 184.393 199.495, 184.264 200, 185.404 200 C 188.481 200, 191.418 192.995, 188.975 191.485 C 188.412 191.136, 188.015 191.222, 188.094 191.676 M 251 195.114 C 251 196.341, 249.216 198.818, 246.750 201.014 C 244.412 203.097, 242.764 205.072, 243.088 205.405 C 243.863 206.201, 249.428 203.395, 251.122 201.353 C 252.683 199.472, 253.320 193, 251.943 193 C 251.424 193, 251 193.951, 251 195.114 M 334 193.488 C 334 193.848, 334.724 194.866, 335.608 195.751 C 337.085 197.228, 337.187 197.208, 336.858 195.512 C 336.527 193.804, 334 192.015, 334 193.488 M 227 196.500 C 227 198.189, 227.458 199.014, 228.250 198.750 C 228.938 198.521, 229.500 197.508, 229.500 196.500 C 229.500 195.492, 228.938 194.479, 228.250 194.250 C 227.458 193.986, 227 194.811, 227 196.500 M 363.250 196.031 C 362.012 196.529, 361 197.422, 361 198.016 C 361 198.610, 358.975 201.009, 356.500 203.346 C 354.018 205.691, 352.030 208.472, 352.068 209.549 C 352.129 211.319, 352.236 211.291, 353.220 209.250 C 353.817 208.012, 355.151 207, 356.184 207 C 357.217 207, 358.336 206.287, 358.671 205.415 C 359.136 204.202, 360.090 203.982, 362.727 204.477 C 365.928 205.077, 366.125 204.968, 365.482 202.943 C 364.976 201.348, 365.153 200.891, 366.145 201.239 C 366.890 201.501, 367.446 202.406, 367.379 203.250 C 367.312 204.095, 367.943 204.685, 368.781 204.562 C 369.761 204.418, 370.445 202.952, 370.702 200.447 C 370.922 198.306, 371.641 196.212, 372.301 195.793 C 373.986 194.721, 365.984 194.932, 363.250 196.031 M 197 199.059 C 197 200.191, 197.450 200.840, 198 200.500 C 198.550 200.160, 199 199.234, 199 198.441 C 199 197.648, 198.550 197, 198 197 C 197.450 197, 197 197.927, 197 199.059 M 241.500 199 C 241.160 199.550, 241.359 200, 241.941 200 C 242.523 200, 243 199.550, 243 199 C 243 198.450, 242.802 198, 242.559 198 C 242.316 198, 241.840 198.450, 241.500 199 M 214.683 201.650 C 213.514 202.819, 213.935 213.535, 215.200 214.800 C 216.133 215.733, 216.106 216, 215.078 216 C 214.015 216, 214 216.295, 215 217.500 C 217.612 220.647, 218.211 219.032, 217.503 210.750 C 216.815 202.691, 216.064 200.269, 214.683 201.650 M 156.500 203 C 156.840 203.550, 157.316 204, 157.559 204 C 157.802 204, 158 203.550, 158 203 C 158 202.450, 157.523 202, 156.941 202 C 156.359 202, 156.160 202.450, 156.500 203 M 181.500 205 C 181.160 205.550, 181.584 206, 182.441 206 C 183.298 206, 184 205.550, 184 205 C 184 204.450, 183.577 204, 183.059 204 C 182.541 204, 181.840 204.450, 181.500 205 M 239 208.500 C 239 209.325, 239.177 210, 239.393 210 C 239.609 210, 240.045 209.325, 240.362 208.500 C 240.678 207.675, 240.501 207, 239.969 207 C 239.436 207, 239 207.675, 239 208.500 M 346.797 207.786 C 344.937 208.160, 343.503 211.387, 344.488 212.981 C 345.330 214.342, 349.276 210.563, 348.841 208.812 C 348.653 208.059, 347.734 207.597, 346.797 207.786 M 152.751 209.246 C 152.073 211.280, 156.336 218.965, 158 218.706 C 160.328 218.344, 159.970 214.536, 157.286 211.106 C 154.680 207.777, 153.414 207.257, 152.751 209.246 M 243.479 210.024 C 241.752 211.931, 241.762 212, 243.738 212 C 244.864 212, 246.040 211.339, 246.349 210.532 C 247.249 208.187, 245.432 207.865, 243.479 210.024 M 350.175 209.691 C 350.079 210.896, 349.550 212.160, 349 212.500 C 347.679 213.317, 347.706 219, 349.031 219 C 350.608 219, 351.165 216.671, 350.738 211.864 C 350.524 209.464, 350.271 208.486, 350.175 209.691 M 359.958 210.078 C 359.346 211.221, 359.104 212.830, 359.420 213.652 C 360.100 215.425, 358.293 217.455, 355.146 218.454 C 353.820 218.875, 353.013 219.825, 353.193 220.755 C 353.762 223.691, 363 227.708, 363 225.019 C 363 224.480, 364.071 223.769, 365.379 223.441 C 367.307 222.957, 367.728 222.243, 367.599 219.680 C 367.484 217.397, 366.891 216.412, 365.470 216.142 C 362.805 215.637, 362.023 214.133, 362.691 210.797 C 363.354 207.479, 361.597 207.017, 359.958 210.078 M 330 217.500 C 330 218.325, 330.450 219, 331 219 C 331.550 219, 332 218.325, 332 217.500 C 332 216.675, 331.550 216, 331 216 C 330.450 216, 330 216.675, 330 217.500 M 378.802 221.899 C 378.551 223.604, 378.666 225, 379.057 225 C 380.154 225, 380.845 221.368, 380.006 220.009 C 379.544 219.263, 379.082 219.988, 378.802 221.899 M 346 221 C 346 221.550, 346.450 222, 347 222 C 347.550 222, 348 221.550, 348 221 C 348 220.450, 347.550 220, 347 220 C 346.450 220, 346 220.450, 346 221 M 236 222.941 C 236 224.009, 236.412 225.136, 236.915 225.447 C 238.011 226.125, 238.892 224.008, 238.246 222.250 C 237.531 220.307, 236 220.779, 236 222.941 M 299.571 223.571 C 297.582 225.561, 297.575 226.900, 299.551 227.658 C 301.060 228.237, 306 224.535, 306 222.826 C 306 221.382, 301.205 221.938, 299.571 223.571 M 240 225.500 C 240 226.325, 240.730 227, 241.622 227 C 242.951 227, 243.020 226.729, 242 225.500 C 241.315 224.675, 240.585 224, 240.378 224 C 240.170 224, 240 224.675, 240 225.500 M 320.553 224.915 C 320.231 225.436, 320.394 226.125, 320.915 226.447 C 321.436 226.769, 322.125 226.606, 322.447 226.085 C 322.769 225.564, 322.606 224.875, 322.085 224.553 C 321.564 224.231, 320.875 224.394, 320.553 224.915 M 83 227.882 C 83 228.432, 83.450 229.160, 84 229.500 C 84.550 229.840, 85 229.668, 85 229.118 C 85 228.568, 84.550 227.840, 84 227.500 C 83.450 227.160, 83 227.332, 83 227.882 M 64 231 C 64 232.650, 64.450 234, 65 234 C 65.550 234, 66.338 234, 66.750 234 C 67.787 234, 67.803 231.850, 66.781 229.750 C 65.458 227.030, 64 227.685, 64 231 M 362.250 229.662 C 360.241 230.473, 360.803 231.975, 363.500 233 C 364.875 233.523, 366 234.645, 366 235.494 C 366 236.666, 366.640 236.877, 368.655 236.372 C 371.008 235.781, 371.246 235.950, 370.749 237.853 C 370.130 240.218, 371.114 240.544, 374.078 238.958 C 376.823 237.489, 375.027 234.494, 370.508 233.003 C 368.578 232.366, 367 231.205, 367 230.422 C 367 229.028, 364.725 228.664, 362.250 229.662 M 355 231 C 355 231.550, 355.648 232, 356.441 232 C 357.234 232, 358.160 231.550, 358.500 231 C 358.840 230.450, 358.191 230, 357.059 230 C 355.927 230, 355 230.450, 355 231 M 287.053 232.900 C 286.284 234.338, 286.397 234.938, 287.518 235.369 C 288.581 235.776, 289 235.239, 289 233.469 C 289 230.509, 288.423 230.341, 287.053 232.900 M 78 235 C 78 235.550, 78.675 236, 79.500 236 C 80.325 236, 81 235.550, 81 235 C 81 234.450, 80.325 234, 79.500 234 C 78.675 234, 78 234.450, 78 235 M 280.971 237.531 C 279.695 238.889, 278.127 240, 277.486 240 C 276.845 240, 275.808 241.125, 275.182 242.500 C 274.555 243.875, 273.483 245, 272.799 245 C 272.115 245, 272.593 245.727, 273.862 246.616 C 275.559 247.805, 276.463 247.937, 277.284 247.116 C 277.898 246.502, 279.419 246, 280.665 246 C 283.257 246, 284.573 243.892, 284.838 239.316 C 285.081 235.101, 283.806 234.513, 280.971 237.531 M 73.077 239.299 C 71.952 242.257, 71.022 242.622, 69.216 240.816 C 68.564 240.164, 67.084 239.561, 65.926 239.476 C 64.008 239.335, 63.878 239.686, 64.467 243.411 C 65.398 249.307, 65.467 253.341, 64.671 255.414 C 64.104 256.891, 63.702 256.998, 62.488 255.990 C 61.670 255.311, 61 253.754, 61 252.531 C 61 250.008, 57.917 246, 55.977 246 C 55.269 246, 53.229 244.886, 51.444 243.525 L 48.199 241.050 48.298 244.525 C 48.352 246.436, 48.757 248, 49.198 248 C 50.790 248, 49.946 249.969, 47.306 252.417 C 44.756 254.782, 44.702 255.014, 46.305 256.784 C 47.905 258.553, 47.862 258.781, 45.499 261.001 C 44.124 262.292, 43 263.834, 43 264.428 C 43 265.021, 41.644 266.786, 39.987 268.350 C 37.125 271.052, 36.709 271.149, 31.681 270.282 C 28.770 269.781, 25.851 269.550, 25.194 269.769 C 23.607 270.298, 23.655 272.132, 25.250 271.925 C 29.425 271.383, 30.174 273.014, 27 275.732 C 22.611 279.490, 24.197 280, 40.250 279.996 C 53.905 279.993, 55.855 279.776, 58.893 277.924 C 61.008 276.634, 64.662 275.681, 68.593 275.394 C 72.062 275.141, 76.160 274.276, 77.700 273.473 C 81.115 271.692, 82.705 271.616, 83.236 273.208 C 83.818 274.955, 88.932 269.948, 89.482 267.092 C 89.952 264.655, 91.689 262.951, 96.250 260.454 C 97.763 259.626, 99 258.322, 99 257.556 C 99 256.790, 99.301 255.339, 99.670 254.332 C 100.294 252.623, 100.211 252.609, 98.420 254.123 C 97.364 255.015, 94.054 256.318, 91.064 257.017 C 87.203 257.920, 84.898 259.157, 83.107 261.285 C 80.741 264.097, 70.004 269.997, 67.250 269.999 C 63.850 270.001, 67.349 264.891, 71.641 263.585 C 73.670 262.969, 74.818 260.060, 75.229 254.500 C 75.311 253.400, 75.823 252.198, 76.368 251.830 C 76.913 251.461, 77.481 250.336, 77.630 249.330 C 77.779 248.323, 78.151 246.375, 78.456 245 C 78.846 243.243, 78.281 241.623, 76.557 239.549 L 74.104 236.597 73.077 239.299 M 322 240.500 C 322 241.325, 322.675 242, 323.500 242 C 324.333 242, 325 242.889, 325 244 C 325 246.285, 325.377 246.404, 328.066 244.965 C 330.825 243.488, 330.477 242.454, 326.599 240.614 C 322.411 238.627, 322 238.616, 322 240.500 M 87.389 243.593 C 85.941 246.643, 85.897 247.321, 87.092 248.075 C 88.959 249.252, 91 246.502, 91 242.809 C 91 238.948, 89.431 239.289, 87.389 243.593 M 357.290 243 C 357.002 244.100, 356.353 245, 355.848 245 C 355.341 245, 355.409 245.895, 356 247 C 357.063 248.987, 361 249.839, 361 248.082 C 361 247.577, 361.273 246.452, 361.607 245.582 C 362.002 244.552, 361.664 244, 360.638 244 C 359.649 244, 359.277 243.442, 359.638 242.500 C 359.955 241.675, 359.674 241, 359.013 241 C 358.353 241, 357.577 241.900, 357.290 243 M 112.543 244.931 C 112.226 245.443, 112.425 246.144, 112.984 246.490 C 113.543 246.835, 114 246.416, 114 245.559 C 114 243.802, 113.400 243.544, 112.543 244.931 M 252 248.300 C 252 249.565, 251.460 251.140, 250.800 251.800 C 249.867 252.733, 250.063 253, 251.683 253 C 252.999 253, 253.989 252.170, 254.370 250.750 C 255.326 247.182, 255.110 246, 253.500 246 C 252.601 246, 252 246.922, 252 248.300 M 80.573 249.521 C 79.513 250.323, 78.963 251.296, 79.351 251.684 C 79.738 252.072, 81.043 251.401, 82.250 250.194 C 84.707 247.737, 83.547 247.271, 80.573 249.521 M 268.545 250.859 C 267.826 253.122, 268.513 255, 270.059 255 C 271.238 255, 271.260 251.958, 270.094 250.118 C 269.406 249.031, 269.074 249.190, 268.545 250.859 M 345 249.415 C 345 250.139, 354.196 255, 355.567 255 C 358.381 255, 357.833 253.099, 354.441 251.098 C 351.392 249.299, 345 248.159, 345 249.415 M 39 254.059 C 39 254.641, 39.450 254.840, 40 254.500 C 40.550 254.160, 41 253.684, 41 253.441 C 41 253.198, 40.550 253, 40 253 C 39.450 253, 39 253.477, 39 254.059 M 144 255.500 C 144 256.991, 144.431 257.852, 145 257.500 C 145.550 257.160, 146 256.260, 146 255.500 C 146 254.740, 145.550 253.840, 145 253.500 C 144.431 253.148, 144 254.009, 144 255.500 M 155.152 260.346 C 155.373 264.710, 156.082 268.481, 156.821 269.218 C 157.868 270.262, 158.100 269.757, 158.071 266.500 C 158.051 264.300, 158.047 261.600, 158.062 260.500 C 158.122 256.216, 157.443 253.647, 156.135 253.211 C 155.039 252.846, 154.845 254.257, 155.152 260.346 M 375.012 256.515 C 375.690 257.332, 376.871 258, 377.636 258 C 378.401 258, 379.901 258.545, 380.968 259.212 C 382.036 259.879, 383.230 260.104, 383.621 259.712 C 384.685 258.648, 383.681 258.009, 378.488 256.446 C 374.330 255.195, 373.924 255.203, 375.012 256.515 M 274.863 259.827 C 273.486 261.960, 271.525 263.637, 270.188 263.827 C 267.296 264.238, 267.852 266.257, 271.066 267.016 C 273.119 267.500, 275.025 269.820, 276.264 273.339 C 276.426 273.800, 278.651 273.066, 281.207 271.707 C 285.687 269.325, 285.798 269.157, 284.311 267.034 C 283.176 265.413, 283.063 264.537, 283.884 263.716 C 285.847 261.753, 285.098 260.253, 281.118 258.178 L 277.235 256.155 274.863 259.827 M 323.500 257 C 323.840 257.550, 324.316 258, 324.559 258 C 324.802 258, 325 257.550, 325 257 C 325 256.450, 324.523 256, 323.941 256 C 323.359 256, 323.160 256.450, 323.500 257 M 97.342 262.800 C 96.656 263.912, 96.532 265.243, 97.037 266.061 C 98.245 268.015, 99.210 266.661, 98.825 263.552 C 98.524 261.116, 98.414 261.060, 97.342 262.800 M 119 265 C 117.707 265.835, 117.734 265.971, 119.191 265.985 C 120.121 265.993, 121.160 265.550, 121.500 265 C 122.282 263.734, 120.958 263.734, 119 265 M 334.306 267.645 C 333.932 268.619, 334.353 269.785, 335.338 270.505 C 337.185 271.856, 337.542 274.547, 336 275.500 C 335.450 275.840, 335 276.991, 335 278.059 C 335 281.008, 338.326 280.434, 339.687 277.250 C 341.668 272.615, 341.565 270.565, 339.236 268.236 C 336.578 265.578, 335.164 265.409, 334.306 267.645 M 127.854 267.706 C 126.399 267.930, 124.425 268.978, 123.468 270.036 C 121.816 271.861, 121.816 271.992, 123.465 272.625 C 124.420 272.991, 125.518 272.780, 125.905 272.154 C 126.291 271.529, 128.383 270.131, 130.554 269.048 C 134.416 267.121, 133.765 266.798, 127.854 267.706 M 93 270 C 93 270.550, 93.477 271, 94.059 271 C 94.641 271, 94.840 270.550, 94.500 270 C 94.160 269.450, 93.684 269, 93.441 269 C 93.198 269, 93 269.450, 93 270 M 312.750 270.789 C 310.191 272.347, 309.201 274.868, 310.600 276.266 C 311.641 277.308, 315.935 274.781, 316.580 272.748 C 317.519 269.790, 315.819 268.921, 312.750 270.789 M 346 272.500 C 346 275.261, 345.602 276, 344.117 276 C 343.074 276, 342 276.893, 341.710 278 C 341.244 279.783, 341.680 280, 345.724 280 L 350.262 280 349.544 276.250 C 349.149 274.188, 348.837 271.712, 348.851 270.750 C 348.865 269.788, 348.229 269, 347.438 269 C 346.461 269, 346 270.123, 346 272.500 M 351 270.616 C 351 272.159, 358.857 273.543, 360.169 272.231 C 360.806 271.594, 360.162 270.973, 358.323 270.451 C 353.978 269.215, 351 269.282, 351 270.616 M 96.695 273.943 C 96.991 275.074, 97.631 276, 98.117 276 C 99.465 276, 99.170 274.386, 97.579 273.065 C 96.412 272.097, 96.254 272.255, 96.695 273.943 M 365 273.294 C 365 274.098, 365.718 275.351, 366.596 276.080 C 367.990 277.236, 368.148 277.103, 367.846 275.030 C 367.468 272.436, 365 270.931, 365 273.294 M 352.366 275.235 C 352.700 276.481, 352.979 278.063, 352.986 278.750 C 352.994 279.438, 354.125 280, 355.500 280 C 359.474 280, 358.058 275.175, 353.629 273.625 C 352.069 273.079, 351.860 273.346, 352.366 275.235 M 379.770 273.563 C 379.460 273.873, 379.527 275.336, 379.919 276.813 C 380.471 278.894, 381.333 279.569, 383.737 279.807 C 386.456 280.077, 386.775 279.855, 386.297 278.027 C 385.523 275.068, 381.213 272.121, 379.770 273.563 M 105.241 276.986 C 103.538 279.713, 103.648 280, 106.393 280 C 108.770 280, 110.521 277.652, 109.444 275.910 C 108.504 274.388, 106.551 274.888, 105.241 276.986 M 144.464 276.059 C 144.068 276.700, 144.364 277.616, 145.122 278.096 C 147.236 279.435, 148.179 279.169, 147.823 277.333 C 147.421 275.258, 145.426 274.501, 144.464 276.059 M 189.015 276.750 C 189.007 277.988, 189.450 279, 190 279 C 191.253 279, 191.253 277.939, 190 276 C 189.216 274.787, 189.028 274.931, 189.015 276.750 M 274 277 C 274 277.550, 274.477 278, 275.059 278 C 275.641 278, 275.840 277.550, 275.500 277 C 275.160 276.450, 274.684 276, 274.441 276 C 274.198 276, 274 276.450, 274 277 M 13 279 C 13 279.550, 14.012 279.993, 15.250 279.985 C 17.069 279.972, 17.213 279.784, 16 279 C 14.061 277.747, 13 277.747, 13 279" stroke="none" fill="#3467df" fill-rule="evenodd"/>
</svg>