<svg xmlns="http://www.w3.org/2000/svg" width="32" height="16" viewBox="0 0 32 16" version="1.1">
	<rect x="0" y="0" width="100%" height="100%" fill="#bfbfbf" />
	<path d="M 3.522 4.210 C 1.839 7.669, 1.828 8.089, 3.359 10.425 C 4.261 11.802, 5 13.620, 5 14.465 C 5 15.436, 5.919 16, 7.500 16 C 9.206 16, 10.007 15.444, 10.022 14.250 C 10.034 13.287, 10.897 11.391, 11.938 10.036 C 13.797 7.617, 13.796 7.523, 11.916 4.882 C 10.862 3.402, 10 1.811, 10 1.346 C 10 0.881, 8.948 0.500, 7.663 0.500 C 5.958 0.500, 4.838 1.503, 3.522 4.210 M 6.813 2.683 C 7.534 2.972, 8.397 2.936, 8.729 2.604 C 9.061 2.272, 8.471 2.036, 7.417 2.079 C 6.252 2.127, 6.015 2.364, 6.813 2.683 M 4.410 5.375 C 3.211 8.498, 4.424 10.500, 7.514 10.500 C 10.165 10.500, 10.500 10.164, 10.500 7.500 C 10.500 4.969, 10.069 4.450, 7.744 4.183 C 5.986 3.981, 4.779 4.412, 4.410 5.375 M 6.813 12.683 C 7.534 12.972, 8.397 12.936, 8.729 12.604 C 9.061 12.272, 8.471 12.036, 7.417 12.079 C 6.252 12.127, 6.015 12.364, 6.813 12.683 M 6.813 14.683 C 7.534 14.972, 8.397 14.936, 8.729 14.604 C 9.061 14.272, 8.471 14.036, 7.417 14.079 C 6.252 14.127, 6.015 14.364, 6.813 14.683" stroke="none" fill="blue" fill-rule="evenodd"/>
</svg>