<svg xmlns="http://www.w3.org/2000/svg" width="400" height="300" viewBox="0 0 400 300" version="1.1">
	<rect x="0" y="0" width="100%" height="100%" fill="#bfbfbf" />
	<path d="M 0 150 L 0 300 74 300 C 114.700 300, 147.995 299.887, 147.990 299.750 C 147.984 299.613, 146.360 295, 144.381 289.500 C 142.401 284, 140.677 277.700, 140.549 275.500 C 140.267 270.640, 138.604 267.302, 132.641 259.625 C 127.869 253.481, 125.577 247.794, 124.597 239.661 L 124.014 234.823 128.757 238.224 C 133.419 241.567, 133.504 241.726, 133.757 247.562 C 133.899 250.828, 134.242 254.499, 134.519 255.720 C 135.091 258.240, 139.827 263, 141.761 263 C 142.466 263, 143.475 264.012, 144.004 265.250 C 145.252 268.172, 148.991 291.390, 148.996 296.250 C 148.998 298.313, 149.450 300, 150 300 C 151.409 300, 151.247 297.573, 148.642 279.750 C 146.590 265.709, 146.512 264.004, 147.920 264.033 C 153.571 264.150, 163.419 266.058, 164.113 267.171 C 164.569 267.902, 167.723 275.588, 171.123 284.250 L 177.303 300 183.529 300 C 187.691 300, 190.146 299.529, 190.935 298.578 C 193.157 295.901, 199.572 295.615, 204.449 297.975 C 207.192 299.303, 210.291 300.007, 212.543 299.814 C 216.561 299.468, 215.518 301.211, 224.033 280.624 L 227.291 272.749 235.874 273.445 C 250.097 274.599, 249.741 274.430, 249.367 279.844 C 249.190 282.405, 248.877 287.990, 248.672 292.256 L 248.300 300.012 324.400 299.756 L 400.500 299.500 400.753 149.750 L 401.007 0 200.503 0 L 0 0 0 150 M 0.487 150.500 C 0.487 233, 0.605 266.602, 0.750 225.172 C 0.894 183.741, 0.894 116.241, 0.750 75.172 C 0.605 34.102, 0.487 68, 0.487 150.500 M 195.455 11.795 C 190.453 12.088, 190.400 12.126, 189.252 16.295 C 188.615 18.608, 187.600 23.200, 186.996 26.500 C 186.392 29.800, 185.471 34.672, 184.949 37.326 C 183.672 43.818, 183.656 43.750, 186.481 43.750 C 189.618 43.750, 190.538 42.599, 191.878 37 L 192.956 32.500 192.481 37 C 191.879 42.698, 191.028 48.137, 190.484 49.750 C 190.194 50.612, 191.305 51, 194.063 51 C 198.297 51, 198.460 50.812, 199.467 44.750 C 200.080 41.064, 200.167 41, 204.595 41 C 207.072 41, 210.387 40.334, 211.961 39.520 C 220.769 34.965, 222.610 22.152, 214.914 18.964 C 213.311 18.301, 212 17.314, 212 16.772 C 212 16.230, 211.348 16.036, 210.551 16.342 C 209.642 16.691, 209.286 16.417, 209.596 15.609 C 210.718 12.688, 205.278 11.220, 195.455 11.795 M 195.338 17.250 C 194.909 17.938, 194.442 19.400, 194.300 20.500 C 194.158 21.600, 193.822 23.720, 193.554 25.211 C 193.285 26.702, 193.501 28.191, 194.033 28.520 C 194.565 28.849, 195 28.023, 195 26.684 C 195 25.345, 195.281 22.844, 195.625 21.125 C 196.151 18.495, 196.705 18, 199.125 18 C 200.706 18, 202 17.550, 202 17 C 202 15.553, 196.262 15.769, 195.338 17.250 M 204.750 16.662 C 205.438 16.940, 206.563 16.940, 207.250 16.662 C 207.938 16.385, 207.375 16.158, 206 16.158 C 204.625 16.158, 204.063 16.385, 204.750 16.662 M 203 25 C 203 25.550, 203.477 26, 204.059 26 C 204.641 26, 204.840 25.550, 204.500 25 C 204.160 24.450, 203.684 24, 203.441 24 C 203.198 24, 203 24.450, 203 25 M 207.750 25.706 C 208.988 25.944, 210 26.477, 210 26.889 C 210 28.357, 204.685 32.231, 202.488 32.364 C 199.812 32.527, 200.332 35, 203.042 35 C 208.758 35, 213.701 29.755, 211.025 26.530 C 210.326 25.688, 208.798 25.061, 207.628 25.136 C 205.590 25.267, 205.595 25.291, 207.750 25.706 M 195.813 30.683 C 196.534 30.972, 197.397 30.936, 197.729 30.604 C 198.061 30.272, 197.471 30.036, 196.417 30.079 C 195.252 30.127, 195.015 30.364, 195.813 30.683 M 163 62.500 C 163 65.525, 163.450 68, 164 68 C 164.550 68, 165 67.131, 165 66.070 C 165 64.829, 165.804 64.025, 167.250 63.820 C 168.741 63.608, 169.614 62.695, 169.837 61.113 C 170.214 58.452, 168.631 57.038, 165.250 57.015 C 163.188 57.001, 163 57.458, 163 62.500 M 188 62.500 C 188 66.722, 188.348 68, 189.500 68 C 190.509 68, 191 66.991, 191 64.917 C 191 61.091, 193.356 61.434, 193.816 65.327 C 194.308 69.476, 196.160 68.475, 195.810 64.250 C 195.561 61.238, 195.057 60.437, 193.250 60.180 C 192.012 60.005, 191 59.217, 191 58.430 C 191 57.644, 190.325 57, 189.500 57 C 188.348 57, 188 58.278, 188 62.500 M 198 62.583 C 198 66.628, 198.345 68.040, 199.250 67.708 C 199.938 67.456, 200.384 66.734, 200.243 66.103 C 200.101 65.472, 201.114 64.527, 202.493 64.003 C 205.380 62.905, 206.003 58.599, 203.418 57.607 C 198.938 55.888, 198 56.749, 198 62.583 M 222.848 58.750 C 222.682 60.657, 222.695 63.506, 222.881 66.250 C 223.084 69.229, 225 68.174, 225 65.083 C 225 63.479, 225.563 61.938, 226.250 61.659 C 227.191 61.278, 227.129 60.890, 226 60.091 C 224.667 59.148, 224.667 59.016, 226 58.897 C 226.825 58.823, 228.063 58.836, 228.750 58.925 C 229.438 59.015, 230 58.618, 230 58.044 C 230 57.470, 228.425 57, 226.500 57 C 223.891 57, 222.961 57.446, 222.848 58.750 M 232.872 58.750 C 231.776 65.194, 232.441 68, 235.067 68 C 236.130 68, 237 67.550, 237 67 C 237 66.450, 236.550 66, 236 66 C 234.554 66, 234.768 62.244, 236.241 61.753 C 237.144 61.452, 237.027 60.884, 235.813 59.670 C 234.004 57.862, 233.073 57.570, 232.872 58.750 M 165 60.417 C 165 61.288, 165.713 62, 166.583 62 C 167.454 62, 167.989 61.466, 167.771 60.813 C 167.153 58.958, 165 58.651, 165 60.417 M 201 60.441 C 201 61.298, 201.450 62, 202 62 C 202.550 62, 203 61.577, 203 61.059 C 203 60.541, 202.550 59.840, 202 59.500 C 201.450 59.160, 201 59.584, 201 60.441 M 172.190 63.750 C 172.476 67.211, 172.751 67.513, 175.750 67.663 C 178.891 67.821, 179 67.694, 179 63.913 C 179 59.512, 177.305 58.549, 176.816 62.673 C 176.356 66.566, 174 66.909, 174 63.083 C 174 61.388, 173.523 60, 172.940 60 C 172.326 60, 172.010 61.579, 172.190 63.750 M 181 61.640 C 181 62.542, 181.787 63.877, 182.750 64.608 C 184.417 65.873, 184.417 65.938, 182.750 65.968 C 179.963 66.019, 180.725 68, 183.531 68 C 186.596 68, 188.077 65.082, 185.756 63.618 C 184.295 62.696, 184.301 62.496, 185.827 61.336 C 187.290 60.223, 187.093 60.060, 184.250 60.032 C 181.892 60.009, 181 60.450, 181 61.640 M 207 64.125 C 207 66.256, 207.450 68, 208 68 C 208.550 68, 209 67.132, 209 66.071 C 209 65.011, 209.675 63.468, 210.500 62.643 C 212.547 60.596, 212.403 60.250, 209.500 60.250 C 207.263 60.250, 207 60.658, 207 64.125 M 213.667 60.667 C 212.356 61.978, 213.010 66.790, 214.582 67.393 C 217.516 68.519, 219.038 68.011, 220.168 65.530 C 221.029 63.641, 220.995 62.699, 220.025 61.530 C 218.735 59.975, 214.881 59.452, 213.667 60.667 M 228 64 C 228 66.200, 228.450 68, 229 68 C 229.550 68, 230 66.200, 230 64 C 230 61.800, 229.550 60, 229 60 C 228.450 60, 228 61.800, 228 64 M 215.500 63 C 214.771 64.180, 215.717 66, 217.059 66 C 217.577 66, 218 65.100, 218 64 C 218 61.891, 216.545 61.309, 215.500 63 M 199.759 81.423 C 194.873 83.167, 190.801 85.869, 191.457 86.931 C 191.744 87.394, 191.222 88.387, 190.297 89.137 C 188.851 90.310, 188.739 90.291, 189.500 89 C 190.252 87.723, 190.141 87.697, 188.751 88.823 C 187.833 89.568, 187.386 90.842, 187.729 91.737 C 188.132 92.786, 187.945 93.084, 187.179 92.611 C 186.456 92.164, 185.375 93.243, 184.310 95.477 C 182.832 98.576, 182.768 99.697, 183.836 103.780 C 184.516 106.376, 185.886 109.625, 186.881 111 C 190.841 116.472, 192.226 120.281, 191.695 124.240 C 191.061 128.964, 188.548 132, 185.274 132 C 183.077 132, 183 132.143, 184.429 133.571 C 186.880 136.023, 186.303 136.111, 182.500 133.867 C 180.575 132.732, 179 131.695, 179 131.563 C 179 131.432, 180.665 131.261, 182.699 131.185 C 184.837 131.105, 187.195 130.249, 188.285 129.159 C 190.070 127.374, 190.086 127.020, 188.586 122.601 C 187.714 120.032, 187 117.507, 187 116.989 C 187 116.472, 186.151 114.653, 185.114 112.947 L 183.228 109.846 183.742 114.404 C 184.320 119.534, 181.950 124.578, 179.417 123.606 C 178.628 123.304, 176.836 123.492, 175.434 124.025 C 173.750 124.665, 173.095 124.656, 173.502 123.997 C 173.841 123.449, 174.711 123, 175.437 123 C 176.162 123, 177.315 122.325, 178 121.500 C 179.068 120.213, 178.722 120, 175.563 120 C 173.539 120, 172.105 120.361, 172.378 120.803 C 172.651 121.245, 171.553 121.514, 169.937 121.403 C 168.322 121.291, 167 121.604, 167 122.100 C 167 122.595, 167.450 123, 168 123 C 168.550 123, 169 123.477, 169 124.059 C 169 124.641, 168.550 124.840, 168 124.500 C 167.450 124.160, 166.986 124.471, 166.970 125.191 C 166.952 125.967, 166.507 125.758, 165.880 124.678 C 165.067 123.281, 165.227 122.407, 166.565 120.928 C 167.705 119.668, 167.881 119, 167.072 119 C 166.391 119, 166.035 118.438, 166.282 117.750 C 166.528 117.063, 166.283 115.635, 165.737 114.577 C 164.797 112.757, 164.883 112.763, 167.339 114.695 C 169.130 116.104, 170.795 116.564, 172.717 116.181 L 175.500 115.627 172.024 114.893 C 166.923 113.817, 164.655 110.531, 165.378 105.262 C 166.019 100.583, 164.958 99.794, 162.585 103.182 C 161.550 104.660, 161.376 105.748, 162.046 106.555 C 163.192 107.937, 162.220 111.254, 160.907 110.442 C 160.421 110.142, 160.290 110.592, 160.616 111.442 C 160.943 112.293, 161.612 112.740, 162.105 112.435 C 163.375 111.650, 163.246 112.233, 161.077 117.076 L 159.154 121.371 158.737 117.936 C 158.428 115.385, 158.279 115.868, 158.160 119.809 C 158.072 122.729, 157.615 124.880, 157.144 124.589 C 156.674 124.298, 156.514 125.239, 156.789 126.679 C 157.100 128.304, 156.905 129.059, 156.275 128.670 C 155.158 127.980, 153.482 123.969, 152.585 119.843 C 152.146 117.820, 151.546 117.306, 150.073 117.691 C 147.679 118.317, 146.861 120.225, 148.187 122.091 C 148.943 123.155, 149.029 123.010, 148.535 121.500 C 148.017 119.916, 148.138 119.755, 149.117 120.726 C 150.097 121.699, 150.006 122.336, 148.676 123.805 C 147.754 124.824, 147 126.185, 147 126.829 C 147 128.406, 148.967 128.333, 149.125 126.750 C 149.193 126.063, 149.601 127.916, 150.030 130.870 C 150.459 133.823, 151.592 136.973, 152.546 137.870 C 153.907 139.148, 154.106 139.176, 153.469 138 C 152.865 136.886, 153.162 136.942, 154.624 138.221 C 155.895 139.331, 157.580 139.762, 159.376 139.437 C 161.147 139.116, 161.927 139.308, 161.521 139.966 C 160.637 141.397, 156.673 141.263, 155.103 139.750 C 154.054 138.739, 153.879 138.882, 154.186 140.500 C 154.490 142.096, 155.312 142.477, 158.257 142.388 C 160.287 142.327, 161.711 142.659, 161.422 143.127 C 161.133 143.594, 161.620 143.699, 162.506 143.360 C 163.391 143.020, 163.883 142.137, 163.599 141.397 C 163.315 140.658, 163.750 139.680, 164.566 139.223 C 165.700 138.588, 165.162 137.990, 162.274 136.675 C 159.364 135.350, 158.944 135.305, 160.441 136.479 C 162.214 137.868, 162.229 138, 160.614 138 C 158.421 138, 153 132.715, 153 130.577 C 153 129.710, 152.592 129, 152.094 129 C 151.595 129, 151.443 128.023, 151.755 126.829 C 152.231 125.008, 152.690 125.490, 154.605 129.829 C 156.903 135.037, 158.756 137.119, 157.013 132.535 C 156.422 130.980, 156.431 129.851, 157.038 129.476 C 157.567 129.149, 158 127.982, 158 126.882 C 158 125.782, 158.398 125.128, 158.884 125.428 C 159.370 125.729, 160.322 124.636, 161 123 C 162.627 119.072, 164.195 120.195, 163.552 124.828 C 163.123 127.923, 163.191 128.107, 163.983 126 C 164.762 123.930, 164.886 124.318, 164.705 128.250 C 164.584 130.863, 164.826 133, 165.243 133 C 165.659 133, 166 132.184, 166 131.187 C 166 130.190, 167.445 128.052, 169.212 126.437 C 170.978 124.822, 171.886 124.211, 171.230 125.081 C 170.268 126.355, 170.428 127.083, 172.057 128.831 C 174.136 131.062, 173.350 131.950, 171.200 129.800 C 169.424 128.024, 169.745 130.180, 171.681 133.027 L 173.362 135.500 171.161 133.577 C 168.978 131.670, 168.962 131.671, 169.285 133.782 C 169.463 134.953, 170.442 136.831, 171.460 137.955 C 172.477 139.080, 172.860 140, 172.310 140 C 170.569 140, 168.183 136.611, 167.733 133.500 L 167.300 130.500 167.150 133.576 C 166.963 137.410, 170.783 141.301, 175.024 141.595 C 179.089 141.876, 179.667 140.428, 175.999 139.149 C 172.108 137.793, 172.196 137.272, 176.250 137.649 C 178.803 137.886, 179.005 137.795, 177.191 137.226 C 175.921 136.827, 174.870 136.050, 174.856 135.500 C 174.842 134.950, 174.392 133.973, 173.858 133.329 C 173.148 132.474, 173.472 132.311, 175.056 132.725 C 176.993 133.231, 177.107 133.068, 176.113 131.212 C 175.501 130.068, 175 128.332, 175 127.354 C 175 126.376, 176.012 127.584, 177.250 130.038 C 178.662 132.839, 180.729 135.114, 182.800 136.148 C 185.816 137.655, 186.376 137.661, 189.300 136.227 C 191.060 135.363, 192.821 134.171, 193.214 133.578 C 193.606 132.985, 193.753 129.249, 193.540 125.275 C 193.210 119.107, 192.629 117.201, 189.576 112.255 C 184.459 103.964, 185.036 96.929, 191.384 90.194 C 193.098 88.376, 194.275 86.726, 194 86.528 C 193.725 86.329, 193.910 85.792, 194.410 85.333 C 194.939 84.849, 195.019 85.024, 194.601 85.750 C 193.686 87.341, 193.988 87.321, 198.346 85.500 C 202.983 83.562, 207.444 83.602, 213.572 85.635 C 220.388 87.896, 223 90.487, 223 94.986 C 223 98.735, 219.622 107, 218.090 107 C 217.616 107, 217.357 104.638, 217.516 101.750 C 217.675 98.862, 217.587 97.816, 217.319 99.424 C 216.938 101.722, 216.617 102.044, 215.822 100.924 C 215.036 99.817, 214.949 99.922, 215.430 101.395 C 215.796 102.517, 215.364 104.045, 214.369 105.145 C 212.017 107.744, 210.560 107.466, 212.443 104.777 C 213.299 103.555, 213.955 101.193, 213.900 99.527 C 213.803 96.569, 213.782 96.557, 213 99 C 212.294 101.204, 212.188 101.252, 212.100 99.405 C 211.938 95.999, 208.367 93.652, 202.197 92.895 C 196.785 92.231, 196.362 92.342, 193.750 95.114 C 192.238 96.719, 190.968 97.462, 190.930 96.766 C 190.796 94.361, 189.140 99.509, 189.086 102.500 C 189.047 104.632, 189.289 105.092, 189.923 104.091 C 190.413 103.316, 190.601 102.124, 190.340 101.443 C 190.078 100.762, 191.433 99.009, 193.350 97.547 C 196.274 95.316, 197.671 94.938, 202.040 95.194 C 206.117 95.434, 207.653 96.017, 209.123 97.885 C 211.395 100.771, 211.545 104.925, 209.473 107.559 C 208.061 109.353, 207.993 109.147, 208.573 104.840 C 208.936 102.140, 208.750 99.406, 208.130 98.340 C 207.407 97.095, 207.051 96.954, 207.030 97.905 C 207.006 99.024, 206.628 98.973, 205.171 97.655 C 202.598 95.326, 199.689 95.593, 195.320 98.557 C 193.248 99.964, 191.444 101.223, 191.311 101.356 C 191.178 101.488, 193.304 101.494, 196.034 101.369 C 200.969 101.142, 203.961 102.621, 204.030 105.321 C 204.047 105.970, 204.546 105.665, 205.140 104.643 C 205.991 103.178, 205.755 102.160, 204.017 99.809 L 201.815 96.831 203.964 97.981 C 206.642 99.414, 207.396 101.287, 206.589 104.502 C 205.763 107.791, 202.044 107.988, 201.900 104.750 C 201.805 102.591, 201.768 102.602, 201 105 C 200.312 107.149, 200.185 107.212, 200.100 105.446 C 200.019 103.783, 199.255 103.347, 196.090 103.160 L 192.180 102.930 192.201 107.715 C 192.215 110.927, 193.171 114.443, 195.111 118.410 C 196.700 121.660, 198 125.948, 198 127.937 C 198 130.383, 198.685 132.142, 200.113 133.365 C 201.615 134.650, 201.916 135.484, 201.155 136.245 C 200.395 137.005, 199.664 136.966, 198.631 136.109 C 196.130 134.033, 195.643 136.658, 197.445 142.500 C 197.924 144.055, 197.798 143.999, 196.878 142.250 C 196.227 141.012, 195.313 140, 194.847 140 C 193.521 140, 193.855 142.785, 195.237 143.246 C 195.918 143.473, 194.741 143.723, 192.623 143.803 C 190.504 143.883, 188.020 143.546, 187.102 143.055 C 186.084 142.510, 183.792 142.600, 181.217 143.288 C 176.941 144.429, 175.725 146.297, 178.551 147.381 C 182.720 148.981, 185.851 164.673, 183.047 169.913 C 181.394 173.001, 182.572 175.668, 188.234 181.654 C 194.138 187.897, 198.183 189.566, 203.760 188.065 C 211.231 186.053, 221.348 177.139, 226.533 168 C 227.289 166.667, 227.172 166.667, 225.473 168 C 223.852 169.272, 223.909 168.968, 225.847 166 C 229.752 160.019, 231.213 155.817, 232.625 146.500 C 234.210 136.040, 234.346 133.683, 233.620 129.218 C 233.327 127.413, 233.470 126.173, 233.939 126.462 C 234.407 126.752, 235.046 126.323, 235.358 125.510 C 235.693 124.635, 235.097 123.587, 233.898 122.946 C 232.330 122.106, 232.126 121.553, 233 120.500 C 233.876 119.444, 233.647 118.882, 231.979 117.989 C 230.796 117.356, 230.078 116.588, 230.383 116.284 C 231.464 115.203, 236.166 119.125, 235.590 120.626 C 235.215 121.604, 235.442 121.863, 236.261 121.392 C 236.943 121, 237.158 121.056, 236.741 121.515 C 236.323 121.975, 236.998 123.470, 238.241 124.837 C 239.483 126.204, 239.938 126.998, 239.250 126.602 C 237.213 125.428, 237.817 126.726, 240.606 129.515 C 242.039 130.948, 242.902 132.431, 242.523 132.810 C 242.145 133.189, 240.490 131.993, 238.846 130.154 C 237.202 128.314, 235.592 127.074, 235.268 127.398 C 234.944 127.723, 235.496 128.890, 236.494 129.994 C 238.473 132.180, 237.281 132.773, 234.977 130.750 C 234.194 130.063, 234.408 130.523, 235.453 131.774 C 236.605 133.153, 237.607 133.635, 238 133 C 238.401 132.351, 239.344 132.722, 240.479 133.976 C 242.451 136.156, 241.259 136.818, 239.088 134.750 C 238.015 133.729, 237.899 133.957, 238.450 136 L 239.125 138.500 237.215 136.127 L 235.306 133.754 234.653 138.516 C 233.747 145.123, 233.835 147.220, 234.988 146.507 C 235.611 146.122, 235.789 147.669, 235.470 150.698 C 235.104 154.167, 235.227 154.945, 235.911 153.500 C 236.602 152.044, 236.879 151.922, 236.930 153.054 C 237.024 155.135, 242.096 165.237, 242.729 164.604 C 243.004 164.330, 242.262 162.542, 241.081 160.632 C 239.517 158.100, 239.257 156.959, 240.122 156.425 C 240.823 155.991, 241.046 156.117, 240.666 156.732 C 240.312 157.305, 240.645 158.290, 241.406 158.922 C 242.500 159.830, 242.759 159.696, 242.645 158.285 C 242.524 156.798, 243.307 156.500, 247.333 156.500 C 251.388 156.500, 252.556 156.048, 254.583 153.694 C 257.430 150.389, 257.838 144.410, 255.418 141.441 C 253.875 139.546, 253.851 139.546, 254.452 141.420 C 254.791 142.476, 254.587 143.637, 254 144 C 253.412 144.363, 253.251 145.491, 253.641 146.507 C 254.322 148.281, 254.380 148.278, 255.105 146.427 C 255.756 144.763, 255.869 144.850, 255.930 147.059 C 256.055 151.635, 253.888 153.381, 248.902 152.721 C 244.912 152.193, 244.682 152.272, 246.441 153.569 C 247.948 154.680, 248.039 155, 246.846 155 C 244.954 155, 242.460 152.341, 241.170 148.947 C 240.084 146.091, 240.796 137, 242.105 137 C 242.570 137, 242.728 138.463, 242.456 140.250 C 242.065 142.821, 242.160 143.082, 242.911 141.500 C 243.780 139.667, 243.865 139.719, 243.930 142.128 C 244.024 145.648, 246.298 147.393, 249.685 146.543 C 251.442 146.102, 251.970 145.600, 251.186 145.115 C 250.273 144.551, 250.244 143.599, 251.067 141.237 C 251.865 138.949, 251.855 137.620, 251.032 136.303 C 250.034 134.707, 249.975 134.758, 250.520 136.750 C 250.858 137.988, 250.687 139, 250.141 139 C 249.594 139, 248.941 138.213, 248.689 137.250 C 248.438 136.287, 248.169 137.075, 248.092 139 C 247.956 142.416, 247.894 142.357, 245.507 136.552 C 244.163 133.281, 243.239 130.427, 243.456 130.211 C 244.238 129.429, 247.556 131.030, 250.160 133.446 C 252.370 135.497, 252.919 135.654, 253.410 134.375 C 254.312 132.023, 254.132 130.243, 253.149 131.793 C 252.691 132.516, 252.525 130.711, 252.774 127.707 C 253.248 121.991, 251.706 117.577, 248.316 114.944 C 246.575 113.593, 246.573 113.620, 248.250 115.596 C 250.469 118.210, 250.527 119.680, 248.339 117.872 C 246.822 116.619, 246.798 116.691, 248.055 118.710 C 248.812 119.926, 249.695 120.493, 250.018 119.971 C 250.340 119.449, 250.651 120.674, 250.708 122.692 L 250.812 126.362 248.347 121.931 C 246.992 119.494, 244.753 116.668, 243.373 115.652 C 241.292 114.119, 241.473 114.602, 244.432 118.478 C 246.394 121.049, 248 123.898, 248 124.809 C 248 125.819, 247.045 125.060, 245.551 122.860 C 243.223 119.434, 234.802 113, 232.647 113 C 232.091 113, 233.518 114.446, 235.818 116.214 C 239.597 119.119, 241.007 121, 239.403 121 C 239.075 121, 236.826 119.257, 234.406 117.126 C 231.985 114.995, 228.541 112.491, 226.752 111.560 L 223.500 109.868 229 110.495 C 232.025 110.839, 235.745 111.738, 237.267 112.492 C 238.789 113.246, 239.775 113.444, 239.458 112.932 C 238.563 111.484, 240.301 111.831, 243.027 113.645 L 245.500 115.289 243.383 113.056 C 241.726 111.307, 239.448 110.607, 232.883 109.831 C 224.114 108.795, 220.090 106.819, 223 104.979 C 225.001 103.714, 229.285 103.730, 228.500 105 C 228.160 105.550, 228.696 106.002, 229.691 106.005 C 230.686 106.007, 234.200 107.121, 237.500 108.481 C 244.105 111.202, 246.498 111.615, 245.405 109.845 C 244.959 109.124, 245.131 108.963, 245.862 109.415 C 246.506 109.813, 246.803 110.510, 246.522 110.964 C 246.241 111.419, 246.684 112.048, 247.506 112.364 C 248.583 112.777, 249 112.248, 249 110.469 C 249 109.111, 248.523 108, 247.941 108 C 247.359 108, 247.136 107.588, 247.447 107.085 C 247.758 106.582, 247.567 106.020, 247.023 105.835 C 246.479 105.651, 245.866 103.957, 245.661 102.072 C 245.271 98.492, 241.212 94, 238.368 94 C 237.407 94, 237.980 94.954, 239.923 96.589 C 243.742 99.802, 243.996 101.764, 240.250 99.114 C 236.736 96.628, 232.438 95.282, 233.500 97 C 234.037 97.869, 233.656 98.026, 232.163 97.552 C 231.015 97.187, 229.120 97.401, 227.952 98.026 C 225.126 99.538, 224.073 98.338, 226.646 96.536 C 228.167 95.470, 228.570 94.295, 228.267 91.809 C 227.758 87.633, 226.135 84.266, 224.291 83.558 C 223.375 83.207, 223.605 83.954, 224.931 85.640 C 227.101 88.398, 227.708 93.444, 225.998 94.501 C 225.447 94.842, 224.516 93.857, 223.929 92.312 C 222.407 88.309, 220.084 85.986, 215.500 83.881 C 212.869 82.673, 212.185 82.031, 213.500 82.007 C 215.160 81.976, 215.245 81.804, 214 81 C 211.868 79.622, 204.164 79.851, 199.759 81.423 M 190.396 83.511 C 188.803 84.892, 186.019 87.451, 184.210 89.198 C 181.773 91.549, 181.081 91.871, 181.543 90.437 C 182.047 88.873, 181.740 88.982, 179.951 91 C 178.733 92.375, 177.312 93.376, 176.793 93.225 C 176.275 93.074, 176.067 93.299, 176.330 93.726 C 176.594 94.152, 175.971 96.076, 174.947 98 C 173.922 99.925, 173.065 100.911, 173.042 100.191 C 173.019 99.471, 172.502 99.190, 171.893 99.566 C 171.148 100.026, 171.006 99.556, 171.458 98.132 C 171.983 96.478, 171.788 96.144, 170.571 96.611 C 169.713 96.940, 169.263 97.616, 169.570 98.112 C 169.876 98.609, 169.424 99.719, 168.564 100.579 C 166.101 103.041, 166.552 108.660, 169.359 110.500 C 170.721 111.392, 172.481 111.753, 173.523 111.353 C 174.765 110.876, 175.103 111.025, 174.605 111.830 C 174.207 112.474, 174.269 113, 174.741 113 C 176.302 113, 178.001 110.634, 177.937 108.550 C 177.878 106.654, 177.803 106.674, 176.945 108.814 C 176.435 110.087, 175.541 110.835, 174.960 110.475 C 174.228 110.023, 174.256 109.396, 175.050 108.439 C 175.681 107.679, 176.534 105.581, 176.945 103.778 C 177.355 101.975, 178.004 99.375, 178.387 98 L 179.083 95.500 177.577 98 C 175.874 100.827, 175.437 99.920, 177.050 96.906 C 177.628 95.827, 178.493 95.187, 178.974 95.484 C 179.454 95.781, 182.244 93.497, 185.174 90.409 C 188.103 87.321, 191.850 83.942, 193.500 82.901 C 195.339 81.740, 195.879 81.006, 194.896 81.004 C 194.014 81.002, 191.989 82.130, 190.396 83.511 M 208.813 81.683 C 209.534 81.972, 210.397 81.936, 210.729 81.604 C 211.061 81.272, 210.471 81.036, 209.417 81.079 C 208.252 81.127, 208.015 81.364, 208.813 81.683 M 222.681 86.727 C 223.681 88.502, 224.666 89.468, 224.868 88.873 C 225.070 88.278, 224.252 86.826, 223.049 85.646 L 220.861 83.500 222.681 86.727 M 196.314 87.922 C 193.459 89.688, 191 92.743, 191 94.523 C 191 94.883, 192.363 94.031, 194.029 92.629 C 197.489 89.718, 202.453 88.501, 206.895 89.477 C 210.192 90.201, 214.981 95.116, 215.030 97.827 C 215.057 99.283, 215.201 99.260, 216.140 97.643 C 216.991 96.178, 216.755 95.160, 215.018 92.811 L 212.818 89.834 215.421 91.540 C 218.443 93.520, 219.474 96.693, 218.681 101.577 C 218.348 103.629, 218.502 104.808, 219.059 104.463 C 219.577 104.144, 220 101.824, 220 99.309 C 220 92.677, 215.113 85.576, 211.910 87.556 C 211.409 87.865, 211 87.747, 211 87.294 C 211 86.842, 208.412 86.354, 205.250 86.211 C 200.939 86.015, 198.703 86.443, 196.314 87.922 M 180.515 97.610 C 179.251 100.273, 178.940 102.546, 179.390 105.825 C 179.913 109.641, 179.654 110.762, 177.755 112.899 C 176.488 114.327, 176.277 114.843, 177.274 114.077 C 178.250 113.328, 179.302 112.968, 179.611 113.278 C 180.762 114.429, 174.822 117.261, 171.049 117.360 C 168.303 117.432, 167.414 117.793, 168.061 118.573 C 168.568 119.184, 168.659 120.008, 168.262 120.404 C 167.866 120.800, 168.799 120.647, 170.336 120.062 C 171.873 119.478, 174.156 119, 175.410 119 C 179.853 119, 181.402 115.752, 181.142 106.985 C 181.010 102.524, 181.401 98.120, 182.034 96.936 C 182.655 95.777, 182.959 94.626, 182.712 94.379 C 182.464 94.131, 181.476 95.585, 180.515 97.610 M 226.133 100.383 C 224.155 101.480, 224.032 101.798, 225.383 102.317 C 226.272 102.658, 227.676 102.678, 228.502 102.361 C 230.697 101.519, 235.736 102.927, 234.114 103.930 C 233.111 104.549, 233.162 104.848, 234.348 105.303 C 235.441 105.723, 235.759 105.343, 235.489 103.942 C 235.054 101.686, 235.698 101.507, 237.976 103.250 C 238.875 103.938, 238.252 103.263, 236.593 101.750 C 233.318 98.766, 229.865 98.314, 226.133 100.383 M 232 101 C 232.825 101.533, 233.950 101.969, 234.500 101.969 C 235.050 101.969, 234.825 101.533, 234 101 C 233.175 100.467, 232.050 100.031, 231.500 100.031 C 230.950 100.031, 231.175 100.467, 232 101 M 174.116 104.162 C 174.003 105.778, 171.763 106.096, 170.362 104.696 C 169.111 103.444, 168 103.964, 168 105.800 C 168 107.739, 169.806 110, 171.355 110 C 171.880 110, 171.495 109.100, 170.500 108 C 168.582 105.881, 169.758 105.158, 171.800 107.200 C 173.401 108.801, 175.361 106.886, 174.710 104.356 C 174.322 102.848, 174.210 102.812, 174.116 104.162 M 194.347 105.634 C 192.613 107.040, 192.665 107.106, 195.215 106.711 C 196.708 106.480, 198.135 106.788, 198.386 107.395 C 198.637 108.003, 198.878 107.761, 198.921 106.857 C 199.033 104.533, 196.531 103.864, 194.347 105.634 M 189.079 107.583 C 189.127 108.748, 189.364 108.985, 189.683 108.188 C 189.972 107.466, 189.936 106.603, 189.604 106.271 C 189.272 105.939, 189.036 106.529, 189.079 107.583 M 223.813 106.683 C 224.534 106.972, 225.397 106.936, 225.729 106.604 C 226.061 106.272, 225.471 106.036, 224.417 106.079 C 223.252 106.127, 223.015 106.364, 223.813 106.683 M 194 108.950 C 194 109.437, 193.727 110.548, 193.393 111.418 C 192.540 113.640, 194.273 113.394, 195.712 111.089 C 196.673 109.551, 196.622 109.069, 195.453 108.620 C 194.654 108.314, 194 108.462, 194 108.950 M 232.813 108.683 C 233.534 108.972, 234.397 108.936, 234.729 108.604 C 235.061 108.272, 234.471 108.036, 233.417 108.079 C 232.252 108.127, 232.015 108.364, 232.813 108.683 M 181.046 117.240 C 179.259 120.028, 178.873 122, 180.113 122 C 181.150 122, 183.231 117.193, 182.780 115.839 C 182.622 115.367, 181.842 115.997, 181.046 117.240 M 184.957 119.250 C 184.816 121.313, 184.655 123.563, 184.600 124.250 C 184.545 124.938, 183.375 126.285, 182 127.245 C 179.659 128.880, 179.421 128.884, 178.250 127.304 C 177.563 126.377, 177 126.099, 177 126.686 C 177 128.738, 179.766 130.196, 181.697 129.162 C 186.056 126.829, 187.210 124.431, 186.183 119.837 L 185.214 115.500 184.957 119.250 M 151.079 120.583 C 151.127 121.748, 151.364 121.985, 151.683 121.188 C 151.972 120.466, 151.936 119.603, 151.604 119.271 C 151.272 118.939, 151.036 119.529, 151.079 120.583 M 240.607 120.581 C 240.273 121.451, 240.675 123.126, 241.500 124.304 C 243.210 126.745, 243.518 125.837, 241.965 122.934 C 241.395 121.870, 241.192 121, 241.514 121 C 241.835 121, 242.966 122.912, 244.027 125.250 C 245.228 127.895, 245.963 128.745, 245.974 127.500 C 245.991 125.670, 242.576 119, 241.622 119 C 241.397 119, 240.941 119.712, 240.607 120.581 M 168.459 128.067 C 168.096 128.653, 168.014 129.348, 168.276 129.610 C 168.538 129.872, 169.019 129.392, 169.345 128.543 C 170.021 126.781, 169.445 126.471, 168.459 128.067 M 195.217 131.808 C 194.462 133.972, 192.980 135.541, 190.791 136.492 C 187.087 138.101, 188.460 138.536, 192.453 137.018 C 194.966 136.063, 197.428 131.785, 196.708 129.625 C 196.512 129.036, 195.841 130.018, 195.217 131.808 M 217.530 134.281 C 212.158 135.188, 209.390 136.790, 210.784 138.184 C 211.275 138.675, 214.660 138.354, 218.576 137.446 C 222.384 136.563, 226.911 136.005, 228.636 136.206 C 230.895 136.469, 231.634 136.209, 231.276 135.277 C 230.423 133.055, 226.478 132.769, 217.530 134.281 M 144.229 137.727 C 142.783 138.243, 139.980 143.243, 140.039 145.200 C 140.061 145.915, 140.714 145.037, 141.491 143.250 C 142.268 141.463, 143.166 140, 143.487 140 C 143.808 140, 143.605 140.870, 143.035 141.934 C 142.466 142.998, 142.061 145.811, 142.136 148.184 C 142.220 150.837, 142.440 151.536, 142.706 150 C 142.945 148.625, 143.782 145.286, 144.567 142.580 C 146.119 137.227, 146.107 137.057, 144.229 137.727 M 200.596 141.500 C 201.426 146.461, 202.005 147.259, 201.985 143.417 C 201.976 141.813, 201.510 139.825, 200.948 139 C 200.215 137.925, 200.116 138.634, 200.596 141.500 M 186.609 139.824 C 186.256 140.395, 186.455 141.163, 187.050 141.531 C 188.536 142.449, 189.062 141.719, 188.071 140.114 C 187.539 139.255, 187.024 139.152, 186.609 139.824 M 257.519 142.699 C 259.205 146.736, 260 147.894, 260 146.316 C 260 144.237, 257.773 139, 256.889 139 C 256.385 139, 256.669 140.664, 257.519 142.699 M 165.900 141.717 C 164.645 143.316, 164.670 143.367, 166.145 142.215 C 167.627 141.057, 167.861 141.634, 168.502 148.024 C 168.894 151.926, 168.942 155.392, 168.607 155.726 C 168.273 156.060, 167.954 154.571, 167.898 152.417 L 167.795 148.500 166.976 151.984 C 166.525 153.900, 164.914 156.537, 163.395 157.844 C 161.128 159.794, 159.853 160.131, 156.268 159.727 C 151.935 159.238, 151.916 159.250, 153.701 161.287 C 155.446 163.278, 155.440 163.313, 153.500 162.461 C 152.400 161.979, 149.630 161.565, 147.345 161.542 C 145.061 161.519, 143.400 161.162, 143.655 160.750 C 143.909 160.338, 143.697 160, 143.181 160 C 141.909 160, 139.641 162.840, 139.354 164.792 C 139.226 165.667, 138.855 167.534, 138.530 168.941 C 138.084 170.874, 138.187 171.133, 138.954 170 C 139.513 169.175, 139.976 167.738, 139.985 166.807 C 140.005 164.561, 143.816 161.981, 146.973 162.076 C 149.243 162.144, 149.144 162.289, 146 163.500 C 144.075 164.241, 142.907 164.882, 143.405 164.924 C 143.903 164.966, 143.634 165.787, 142.807 166.750 C 139.824 170.224, 139.584 171.267, 141.940 170.519 C 145.152 169.500, 151.017 169.163, 150.483 170.028 C 150.229 170.438, 150.631 171.279, 151.375 171.896 C 152.440 172.780, 152.704 172.584, 152.614 170.972 C 152.461 168.231, 150.250 167.020, 146.547 167.650 C 144.203 168.049, 143.846 167.922, 145 167.100 C 148.222 164.804, 151.469 165.872, 155.338 170.500 C 157.415 172.985, 158.517 175.014, 157.800 175.032 C 157.009 175.051, 157.260 175.638, 158.441 176.532 C 159.509 177.339, 162.434 178.032, 164.941 178.070 C 167.791 178.114, 168.831 178.405, 167.714 178.846 C 166.233 179.431, 166.525 179.821, 169.427 181.137 C 171.852 182.236, 173.066 182.381, 173.384 181.611 C 173.697 180.853, 173.867 180.879, 173.921 181.693 C 173.964 182.350, 173.196 183.475, 172.214 184.193 C 171.231 184.912, 169.680 187.074, 168.766 188.997 C 167.158 192.382, 167.171 192.519, 169.179 193.262 C 170.617 193.794, 172.631 193.259, 175.746 191.518 C 178.437 190.014, 179.719 189.634, 178.942 190.570 C 176.641 193.342, 172.302 195.010, 169.071 194.364 C 166.579 193.866, 166 194.080, 166 195.500 C 166 196.921, 166.579 197.134, 169.080 196.634 C 176.579 195.134, 181.374 191.524, 182.541 186.500 C 183.219 183.581, 183.192 183.554, 181.537 185.500 L 179.837 187.500 180.532 185.500 C 181.983 181.326, 182.038 179.620, 180.630 182.500 C 179.823 184.150, 179.126 185.062, 179.081 184.527 C 179.037 183.993, 178.298 184.558, 177.439 185.783 C 176.581 187.009, 174.443 188.706, 172.689 189.554 C 170.767 190.484, 170.135 190.581, 171.099 189.798 C 171.979 189.084, 172.772 188.165, 172.862 187.756 C 172.953 187.347, 173.756 185.482, 174.648 183.612 C 175.600 181.615, 176.012 179.185, 175.646 177.727 C 175.076 175.454, 174.654 175.285, 170.677 175.733 C 167.887 176.047, 165.287 175.682, 163.413 174.714 C 160.005 172.951, 156.106 169.012, 158.164 169.410 C 160.688 169.898, 165 172.322, 165 173.253 C 165 174.018, 172.987 173.781, 177.583 172.879 C 178.938 172.614, 179.043 172.088, 179.458 163.500 C 179.644 159.650, 179.599 157.850, 179.358 159.500 C 178.715 163.899, 177.009 167.783, 175.459 168.377 C 173.907 168.973, 174.522 166.456, 176.530 164 C 178.221 161.932, 178.963 155.887, 177.799 153.664 C 176.201 150.612, 177.722 150.609, 179.458 153.662 C 180.970 156.320, 181.032 156.341, 180.420 154 C 180.062 152.625, 178.715 150.093, 177.427 148.373 C 176.140 146.654, 175.367 144.966, 175.710 144.623 C 176.053 144.281, 175.752 144, 175.042 144 C 174.077 144, 173.965 144.823, 174.598 147.250 C 175.971 152.516, 175.449 162.666, 173.664 165.390 C 172.786 166.730, 170.748 168.116, 169.134 168.471 C 165.902 169.180, 157.158 167.210, 152.490 164.720 L 149.500 163.126 153 163.363 C 154.925 163.494, 157.940 164.365, 159.700 165.300 C 166.035 168.665, 171.794 166.435, 173.390 160 C 173.987 157.596, 173.967 157.584, 172.878 159.692 C 172.256 160.897, 171.127 162.121, 170.370 162.412 C 169.335 162.808, 169.404 162.313, 170.645 160.420 C 172.107 158.188, 172.145 157.248, 170.976 152.200 C 170.251 149.065, 169.621 145.188, 169.578 143.584 C 169.485 140.096, 167.831 139.257, 165.900 141.717 M 215.005 142.780 C 213.143 143.726, 211.407 145.167, 211.149 145.982 C 210.811 147.047, 211.195 146.948, 212.510 145.633 C 214.284 143.859, 214.382 143.882, 215.693 146.383 C 216.884 148.656, 217.634 148.950, 222.001 148.851 C 224.727 148.790, 226.729 148.371, 226.451 147.920 C 226.172 147.469, 226.840 146.621, 227.935 146.035 C 230.259 144.791, 229.644 141.816, 227.253 142.733 C 226.370 143.072, 225.933 142.918, 226.263 142.384 C 227.315 140.682, 218.529 140.991, 215.005 142.780 M 144.967 146.121 C 143.668 150.948, 144.923 155.086, 148.351 157.274 C 150.834 158.858, 160.009 158.604, 161.048 156.922 C 161.420 156.321, 162.123 155.930, 162.612 156.053 C 164.142 156.440, 165.867 151.632, 165.279 148.620 C 164.727 145.792, 164.690 145.819, 163.243 150.120 C 162.432 152.529, 161.258 154.831, 160.634 155.235 C 158.289 156.754, 152.332 156.025, 150.494 153.994 C 147.733 150.943, 147.313 152.611, 150.051 155.754 L 152.444 158.500 149.548 155.804 C 146.952 153.386, 146.677 152.536, 146.878 147.554 C 147.002 144.499, 146.872 142, 146.590 142 C 146.308 142, 145.578 143.854, 144.967 146.121 M 236.393 143.582 C 236.727 144.452, 237 145.966, 237 146.947 C 237 148.933, 240.927 154.406, 241.757 153.577 C 242.047 153.286, 241.852 152.475, 241.323 151.774 C 240.793 151.073, 239.757 148.588, 239.020 146.250 C 238.283 143.912, 237.254 142, 236.733 142 C 236.212 142, 236.059 142.712, 236.393 143.582 M 171.232 146 C 171.232 147.925, 171.438 148.713, 171.689 147.750 C 171.941 146.787, 171.941 145.213, 171.689 144.250 C 171.438 143.287, 171.232 144.075, 171.232 146 M 153.611 145.429 C 153.948 146.307, 153.611 147.781, 152.862 148.705 C 151.705 150.131, 151.712 150.256, 152.905 149.537 C 153.838 148.975, 154.079 149.064, 153.622 149.802 C 152.448 151.702, 150.177 149.993, 150.459 147.421 C 150.674 145.461, 150.459 145.204, 149.363 146.113 C 147.493 147.666, 147.639 148.510, 150.250 151.247 C 151.488 152.544, 152.390 153.397, 152.256 153.142 C 152.122 152.888, 152.921 152.043, 154.031 151.266 C 156.213 149.737, 156.310 144.937, 154.173 144.224 C 153.453 143.984, 153.236 144.451, 153.611 145.429 M 241 144.722 C 241 145.756, 247.521 152, 248.601 152 C 249.956 152, 253 149.815, 253 148.842 C 253 148.108, 252.534 148.142, 251.564 148.947 C 249.924 150.308, 247.096 149.204, 243.250 145.701 C 242.012 144.574, 241 144.133, 241 144.722 M 221.469 146.050 C 220.551 147.536, 221.281 148.062, 222.886 147.071 C 223.745 146.539, 223.848 146.024, 223.176 145.609 C 222.605 145.256, 221.837 145.455, 221.469 146.050 M 138.116 149.382 C 138.001 151.250, 141.557 157.925, 143.308 159.127 C 143.810 159.473, 145.017 159.547, 145.989 159.293 C 147.616 158.867, 147.587 158.652, 145.628 156.601 C 144.458 155.374, 143.223 154.502, 142.884 154.662 C 141.956 155.100, 139.273 151.774, 138.719 149.500 C 138.274 147.670, 138.222 147.660, 138.116 149.382 M 266.771 151.418 C 266.499 152.838, 266.665 154, 267.139 154 C 267.612 154, 268 153.550, 268 153 C 268 152.450, 268.563 152.006, 269.250 152.012 C 270.694 152.027, 275 158.292, 275 160.379 C 275 161.564, 276.982 163, 278.617 163 C 279.145 163, 283 154.225, 283 153.024 C 283 152.578, 280.413 151.731, 277.250 151.141 C 274.087 150.551, 270.547 149.791, 269.382 149.452 C 267.678 148.956, 267.168 149.340, 266.771 151.418 M 256.086 154.382 L 253.672 157.500 256.533 154.780 C 258.106 153.284, 259.193 151.881, 258.947 151.662 C 258.701 151.443, 257.414 152.667, 256.086 154.382 M 278.500 155 C 278.840 155.550, 278.740 156, 278.277 156 C 277.815 156, 277.343 157.125, 277.229 158.500 C 276.994 161.344, 278.508 161.900, 279.270 159.250 C 279.547 158.287, 280.097 156.713, 280.494 155.750 C 281.010 154.495, 280.742 154, 279.548 154 C 278.632 154, 278.160 154.450, 278.500 155 M 232.638 156.500 C 232.322 157.325, 232.499 158, 233.031 158 C 233.564 158, 234 157.325, 234 156.500 C 234 155.675, 233.823 155, 233.607 155 C 233.391 155, 232.955 155.675, 232.638 156.500 M 165.872 158.750 C 164.629 160.336, 164.664 160.371, 166.250 159.128 C 167.916 157.821, 168.445 157, 167.622 157 C 167.415 157, 166.627 157.787, 165.872 158.750 M 236.534 158.836 C 237.481 162.214, 242.051 172, 242.682 172 C 243.736 172, 242.023 167.366, 238.979 161.981 C 237.274 158.966, 236.174 157.551, 236.534 158.836 M 199 159.500 C 199.685 160.325, 200.695 161, 201.245 161 C 201.803 161, 201.694 160.337, 201 159.500 C 200.315 158.675, 199.305 158, 198.755 158 C 198.197 158, 198.306 158.663, 199 159.500 M 166.559 160.532 C 165.491 161.339, 165.099 162, 165.686 162 C 166.274 162, 167.315 161.325, 168 160.500 C 169.557 158.624, 169.067 158.634, 166.559 160.532 M 205 160 C 203.718 160.828, 203.754 160.972, 205.250 160.985 C 206.213 160.993, 207 160.550, 207 160 C 207 158.780, 206.887 158.780, 205 160 M 254.500 160.918 L 248.500 161.500 248.307 171.250 C 248.135 179.954, 248.800 182.750, 250.420 180.129 C 251.297 178.710, 256.816 177.980, 259.359 178.946 C 261.582 179.792, 261.778 179.547, 262.790 174.671 C 263.380 171.827, 264.146 167.363, 264.493 164.750 C 265.205 159.382, 266.242 159.779, 254.500 160.918 M 182.123 162.500 C 182.040 163.600, 181.741 165.625, 181.458 167 L 180.944 169.500 182.015 167.047 C 182.604 165.698, 182.903 163.673, 182.679 162.547 C 182.283 160.553, 182.268 160.552, 182.123 162.500 M 250.667 163.667 C 249.676 164.657, 249.859 170, 250.883 170 C 251.369 170, 252.011 170.933, 252.309 172.074 C 252.725 173.666, 253.507 174.072, 255.676 173.824 C 257.935 173.565, 258.500 173, 258.500 171 C 258.500 168.897, 258.024 168.494, 255.500 168.463 C 252.884 168.431, 252.514 168.079, 252.613 165.713 C 252.723 163.067, 252.013 162.320, 250.667 163.667 M 260.886 163.750 C 260.154 168.567, 260.271 170, 261.398 170 C 262.167 170, 262.728 168.606, 262.808 166.500 C 262.880 164.575, 262.503 163, 261.970 163 C 261.436 163, 260.949 163.338, 260.886 163.750 M 194.319 165.952 C 192.598 166.999, 190.866 167.551, 190.470 167.178 C 189.338 166.110, 191.128 171.255, 192.755 173.743 C 194.829 176.917, 201.045 178.638, 204.806 177.080 C 208 175.758, 212.888 170, 210.818 170 C 210.134 170, 208.658 168.922, 207.538 167.604 C 204.670 164.233, 198.429 163.453, 194.319 165.952 M 121.813 166.683 C 122.534 166.972, 123.397 166.936, 123.729 166.604 C 124.061 166.272, 123.471 166.036, 122.417 166.079 C 121.252 166.127, 121.015 166.364, 121.813 166.683 M 271.681 167.887 C 271.952 168.925, 271.663 170.090, 271.039 170.476 C 270.195 170.997, 270.204 171.541, 271.074 172.589 C 272.780 174.645, 273.925 174.328, 275 171.500 C 275.821 169.340, 278 167.935, 278 169.566 C 278 172.187, 272.157 179, 269.908 179 C 267.395 179, 268.151 181.541, 271.696 185.007 L 274.774 188.017 275.473 184.258 C 275.857 182.191, 277.033 178.041, 278.086 175.035 C 279.139 172.029, 280 169.287, 280 168.943 C 280 168.402, 273.247 166, 271.728 166 C 271.430 166, 271.409 166.849, 271.681 167.887 M 177.205 169.043 C 176.535 170.117, 175.652 170.943, 175.243 170.879 C 172.753 170.490, 169 171.149, 169 171.975 C 169 173.506, 175.272 171.967, 177.444 169.903 C 178.514 168.887, 179.172 167.839, 178.907 167.573 C 178.641 167.308, 177.876 167.969, 177.205 169.043 M 235.651 168.468 C 235.341 169.275, 235.424 170.144, 235.836 170.399 C 236.248 170.653, 236.650 169.993, 236.730 168.931 C 236.903 166.634, 236.432 166.432, 235.651 168.468 M 117.735 168.598 C 117.022 169.312, 118.086 177.384, 119.024 178.377 C 119.480 178.859, 119.704 177.396, 119.522 175.127 C 119.339 172.857, 119.597 171, 120.095 171 C 120.593 171, 121.052 171.563, 121.115 172.250 C 121.179 172.938, 121.335 173.950, 121.463 174.500 C 121.591 175.050, 121.764 176.095, 121.848 176.821 C 121.964 177.832, 122.370 177.773, 123.572 176.571 C 124.541 175.602, 126.028 175.220, 127.443 175.575 C 129.439 176.076, 129.704 175.813, 129.459 173.576 C 129.274 171.891, 129.664 171, 130.588 171 C 131.365 171, 132.032 171.787, 132.070 172.750 C 132.130 174.238, 132.263 174.201, 132.957 172.500 C 133.406 171.400, 133.487 170.220, 133.136 169.877 C 132.354 169.112, 118.382 167.952, 117.735 168.598 M 196 169.839 C 196 171.457, 200.800 172.881, 203.660 172.112 C 206.465 171.357, 206.473 171.333, 204.316 170.174 C 201.804 168.824, 196 168.591, 196 169.839 M 219.100 171.295 C 217.835 173.402, 217.857 173.423, 219.579 171.774 C 220.570 170.824, 221.166 169.832, 220.903 169.569 C 220.640 169.306, 219.829 170.083, 219.100 171.295 M 228.526 171.950 C 227.687 173.573, 227 175.248, 227 175.673 C 227 176.695, 229.495 172.976, 230.302 170.750 C 231.312 167.966, 230.196 168.720, 228.526 171.950 M 288.196 171.750 C 287.512 173.262, 286.037 176.236, 284.918 178.358 C 283.798 180.480, 283.101 182.434, 283.368 182.701 C 283.634 182.968, 284.614 181.682, 285.544 179.843 C 286.475 178.004, 288.289 175.093, 289.575 173.373 C 291.664 170.581, 291.836 169, 290.053 169 C 289.715 169, 288.879 170.238, 288.196 171.750 M 158.804 173.263 C 159.452 174.045, 159.741 174.926, 159.445 175.222 C 159.149 175.518, 160.106 176.061, 161.571 176.429 C 165.362 177.380, 165.270 176.833, 161.192 174.171 C 159.230 172.891, 158.155 172.482, 158.804 173.263 M 201.813 174.683 C 202.534 174.972, 203.397 174.936, 203.729 174.604 C 204.061 174.272, 203.471 174.036, 202.417 174.079 C 201.252 174.127, 201.015 174.364, 201.813 174.683 M 223.667 174.667 C 222.837 175.496, 222.795 180.303, 223.600 182.400 C 224.070 183.625, 224.630 183.733, 226.186 182.901 C 227.278 182.316, 228.433 182.099, 228.752 182.419 C 229.072 182.739, 228.782 183, 228.108 183 C 227.434 183, 227.157 183.445, 227.493 183.989 C 227.856 184.577, 227.405 184.709, 226.378 184.315 C 225.005 183.788, 224.799 184.033, 225.369 185.520 C 226.050 187.295, 225.977 187.291, 223.898 185.444 C 221.714 183.504, 221.711 183.504, 222.848 185.672 C 223.475 186.867, 225.176 188.780, 226.629 189.922 C 228.081 191.065, 228.724 192, 228.058 192 C 227.391 192, 225.531 190.685, 223.923 189.077 C 220.785 185.939, 220.372 185.957, 222.086 189.160 C 224.762 194.161, 236.783 196.376, 240.028 192.466 C 241.101 191.173, 240.891 191.176, 238.379 192.486 C 236.795 193.312, 234.825 193.954, 234 193.912 C 233.175 193.871, 233.963 193.197, 235.750 192.416 C 239.028 190.982, 240.059 189.775, 237.750 190.075 C 233.062 190.683, 232.828 189.736, 237.115 187.503 C 241.483 185.227, 241.766 184.824, 242.415 179.933 C 242.791 177.091, 242.852 174.519, 242.550 174.217 C 242.247 173.914, 242 174.842, 242 176.278 C 242 179.843, 238.230 183.716, 234 184.498 L 230.500 185.145 233.750 183.087 C 237.047 180.999, 238.370 179.134, 235.358 180.820 C 232.811 182.245, 230.149 181.148, 230.733 178.914 C 231.022 177.807, 230.723 177, 230.023 177 C 229.357 177, 228.560 177.967, 228.251 179.148 C 227.704 181.238, 227.650 181.245, 226.220 179.398 C 224.810 177.578, 224.772 177.592, 225.282 179.751 C 225.604 181.116, 225.419 181.759, 224.811 181.383 C 224.260 181.043, 223.986 179.242, 224.204 177.382 C 224.634 173.693, 224.635 173.698, 223.667 174.667 M 235 174.718 C 235 175.333, 234.727 176.548, 234.393 177.418 C 234.059 178.290, 234.297 179, 234.924 179 C 236.605 179, 237.442 176.042, 236.133 174.733 C 235.306 173.906, 235 173.903, 235 174.718 M 140 176.378 C 140 176.585, 140.685 177.324, 141.523 178.019 C 142.796 179.076, 142.943 179.014, 142.416 177.641 C 141.878 176.240, 140 175.257, 140 176.378 M 148.646 181.699 C 147.795 184.340, 146.792 188.237, 146.417 190.359 L 145.736 194.219 148.264 192.563 C 149.654 191.652, 151.037 189.966, 151.338 188.817 C 151.787 187.099, 152.414 186.833, 154.855 187.321 C 156.831 187.716, 158.228 187.430, 159.027 186.467 C 159.778 185.563, 161.124 185.244, 162.614 185.618 C 167.177 186.763, 164.958 184.408, 158.250 180.985 C 154.537 179.090, 151.206 177.396, 150.847 177.219 C 150.488 177.043, 149.498 179.059, 148.646 181.699 M 131 181.499 C 129.625 182.285, 126.340 183.663, 123.699 184.561 C 120.882 185.520, 119.101 186.671, 119.389 187.347 C 119.659 187.981, 121.088 192.222, 122.565 196.771 C 124.719 203.409, 125.471 204.748, 126.374 203.554 C 126.993 202.735, 129.300 201.325, 131.500 200.420 C 136.415 198.399, 136.965 197.588, 136.985 192.344 C 136.998 188.770, 136.737 188.256, 135.127 188.677 C 133.728 189.043, 132.982 188.387, 132.179 186.083 C 131.316 183.609, 131.377 183, 132.485 183 C 133.244 183, 134.162 183.934, 134.524 185.075 C 135.502 188.157, 136.110 186.800, 135.382 183.160 C 134.669 179.593, 134.469 179.517, 131 181.499 M 149.926 181.281 C 149.885 181.952, 149.663 183.512, 149.432 184.750 C 148.828 187.991, 150.365 187.520, 151.670 184.064 C 152.554 181.722, 152.497 181.021, 151.389 180.596 C 150.625 180.303, 149.967 180.611, 149.926 181.281 M 294.612 181.424 C 295.192 182.941, 295.001 183.214, 293.706 182.717 C 292.803 182.371, 291.791 182.529, 291.458 183.068 C 291.124 183.608, 291.447 183.926, 292.176 183.775 C 293.983 183.400, 293.304 187.158, 291.284 188.718 C 290.416 189.388, 289.327 189.702, 288.864 189.416 C 288.401 189.130, 288.319 189.668, 288.681 190.612 C 289.063 191.606, 288.935 192.078, 288.378 191.733 C 287.848 191.406, 287.354 191.949, 287.279 192.941 C 287.163 194.488, 288.123 194.240, 294.072 191.188 C 297.882 189.233, 301 187.354, 301 187.013 C 301 186.672, 299.397 184.842, 297.439 182.946 C 295.082 180.665, 294.126 180.150, 294.612 181.424 M 185 186.148 C 185 199.001, 179.356 205.528, 164.871 209.424 C 159.744 210.803, 159.659 210.878, 163 211.084 C 166.287 211.287, 166.226 211.337, 162 211.900 C 156.650 212.613, 156.086 214.574, 160.500 217.114 C 162.754 218.410, 173.074 219.855, 202 222.924 C 223.175 225.170, 240.988 227.006, 241.585 227.004 C 242.182 227.002, 243.353 224.550, 244.186 221.555 L 245.702 216.110 242.851 216.680 L 240 217.250 240 210.125 L 240 203 234.934 203 C 224.757 203, 217.769 196.014, 217.847 185.917 L 217.885 181.101 213.225 184.658 C 207.657 188.908, 205.029 190, 200.369 190 C 196.022 190, 193.537 188.755, 188.750 184.179 L 185 180.594 185 186.148 M 109.762 183.073 C 108.807 183.630, 107.559 184.956, 106.990 186.019 C 106.073 187.732, 106.205 187.860, 108.144 187.142 C 109.348 186.697, 110.693 185.358, 111.134 184.166 C 112.048 181.695, 112.082 181.722, 109.762 183.073 M 166.756 182.687 C 167.447 182.953, 167.758 183.582, 167.447 184.085 C 166.598 185.459, 167.601 185.185, 168.827 183.709 C 169.644 182.724, 169.377 182.393, 167.699 182.311 C 166.490 182.252, 166.065 182.421, 166.756 182.687 M 173.872 186.750 C 172.629 188.336, 172.664 188.371, 174.250 187.128 C 175.916 185.821, 176.445 185, 175.622 185 C 175.415 185, 174.627 185.787, 173.872 186.750 M 234 186.500 C 232.625 187.286, 231.976 187.945, 232.559 187.965 C 233.141 187.984, 234.491 187.339, 235.559 186.532 C 238.028 184.664, 237.239 184.648, 234 186.500 M 121.707 186.627 C 120.881 187.452, 123.770 193, 125.026 193 C 125.562 193, 126 193.627, 126 194.393 C 126 195.159, 126.757 196.077, 127.683 196.432 C 129.920 197.290, 133.290 193.920, 132.432 191.683 C 131.683 189.731, 128.931 189.469, 127.213 191.187 C 126.297 192.103, 125.773 191.646, 124.915 189.187 C 123.827 186.064, 122.960 185.373, 121.707 186.627 M 261.200 187.200 C 259.613 188.787, 259.624 193.292, 261.214 192.762 C 262.077 192.474, 263.299 186, 262.490 186 C 262.440 186, 261.860 186.540, 261.200 187.200 M 295.250 187.277 C 294.012 187.843, 293 188.687, 293 189.153 C 293 190.316, 294.075 190.165, 296.885 188.607 C 299.800 186.991, 298.388 185.842, 295.250 187.277 M 247 191.582 C 247 195.710, 247.155 195.987, 248.934 195.035 C 249.998 194.466, 252.023 194, 253.434 194 C 256.395 194, 257.023 191.241, 254.250 190.418 C 253.287 190.132, 251.262 189.267, 249.750 188.495 L 247 187.093 247 191.582 M 153.066 191.604 C 141.072 197.604, 138.608 202.725, 137.480 224 C 137.145 230.325, 136.431 239.261, 135.894 243.859 C 134.780 253.387, 135.673 257.492, 139.460 260.244 C 141.388 261.645, 152.727 263.149, 197.180 267.901 C 247.943 273.328, 252.761 273.693, 255.673 272.330 C 260.184 270.219, 261.529 266.314, 262.924 251.283 C 264.048 239.178, 264.005 237.817, 262.410 235.118 C 261.453 233.497, 259.659 231.710, 258.423 231.147 C 257.188 230.584, 236.225 228.031, 211.839 225.472 C 187.452 222.914, 165.877 220.411, 163.894 219.911 C 158.183 218.469, 151.439 212.716, 149.496 207.628 C 147.908 203.470, 147.910 202.993, 149.523 199.592 C 151.172 196.118, 153.781 193.434, 159.041 189.802 C 162.995 187.073, 160.799 187.735, 153.066 191.604 M 257.250 189.824 C 256.269 190.447, 256.316 191.035, 257.468 192.559 C 258.874 194.418, 258.938 194.384, 258.968 191.750 C 259.003 188.700, 259.010 188.707, 257.250 189.824 M 157.260 192.927 C 155.027 194.544, 153.025 196.235, 152.811 196.684 C 152.597 197.133, 153.677 198.794, 155.211 200.376 C 157.076 202.299, 158 202.755, 158 201.753 C 158 200.929, 158.938 198.135, 160.084 195.544 C 161.230 192.953, 161.976 190.643, 161.743 190.410 C 161.510 190.177, 159.492 191.309, 157.260 192.927 M 102.700 199.118 C 100.611 201.932, 99.062 204.395, 99.258 204.591 C 99.455 204.788, 102.514 206.270, 106.058 207.884 C 110.347 209.838, 112.627 210.432, 112.880 209.660 C 113.090 209.022, 113.849 207.820, 114.569 206.990 C 115.714 205.666, 115.938 200.450, 114.884 199.639 C 111.341 196.912, 107.221 194, 106.906 194.001 C 106.683 194.002, 104.790 196.304, 102.700 199.118 M 263.524 194.807 C 260.237 194.975, 257.312 195.438, 257.024 195.834 C 256.736 196.231, 255.375 197.110, 254 197.788 C 251.861 198.842, 252.722 198.969, 259.953 198.664 L 268.407 198.307 272.453 202.271 L 276.500 206.234 272.145 202.682 C 268.292 199.538, 267.486 199.253, 265.145 200.206 C 261.587 201.654, 253.796 201.993, 252.262 200.765 C 251.395 200.072, 250.838 200.259, 250.405 201.387 C 249.410 203.979, 247.901 203.241, 248.589 200.500 C 248.948 199.071, 248.785 198, 248.208 198 C 247.262 198, 244.787 209.067, 245.554 209.870 C 245.748 210.074, 247.037 209.957, 248.418 209.610 C 250.053 209.200, 250.738 208.482, 250.382 207.552 C 250.021 206.613, 251.215 205.421, 253.877 204.063 C 259.366 201.263, 259.857 201.465, 256.157 205 C 253.194 207.832, 253.144 207.998, 255.259 207.967 C 256.492 207.949, 259.842 207.125, 262.705 206.136 C 265.567 205.147, 267.660 204.740, 267.357 205.232 C 267.053 205.724, 267.636 207.075, 268.652 208.235 C 269.668 209.395, 269.867 209.971, 269.092 209.516 C 268.009 208.878, 267.815 209.184, 268.249 210.845 C 268.560 212.032, 268.405 212.751, 267.907 212.442 C 267.408 212.134, 267 211.196, 267 210.358 C 267 209.519, 266.663 209.006, 266.250 209.218 C 260.239 212.298, 254.979 214.327, 251.950 214.734 C 249.248 215.096, 247.910 215.903, 247.114 217.650 C 245.568 221.041, 244.569 227.995, 245.622 228.023 C 246.105 228.036, 249.073 225.223, 252.217 221.773 C 259.004 214.325, 259.860 214.562, 253.562 222.145 L 249.124 227.489 254.286 228.652 C 259.296 229.780, 259.544 229.730, 262.724 226.937 C 264.526 225.355, 269.263 221.853, 273.250 219.155 C 277.238 216.457, 281.366 213.284, 282.425 212.103 C 284.337 209.970, 284.330 209.935, 281.366 206.728 C 279.725 204.953, 277.153 201.819, 275.650 199.763 C 272.160 194.989, 270.800 194.433, 263.524 194.807 M 106.651 195.756 C 106.349 196.244, 107.022 197.430, 108.145 198.392 C 110.076 200.045, 110.091 200.213, 108.432 201.426 C 107.373 202.200, 106.926 203.364, 107.306 204.355 C 108.097 206.415, 110.360 206.476, 112.016 204.481 C 113.043 203.243, 112.973 202.628, 111.636 201.150 C 110.734 200.153, 110.224 199.109, 110.504 198.829 C 110.784 198.550, 110.154 197.545, 109.105 196.595 C 108.057 195.646, 106.952 195.269, 106.651 195.756 M 192.071 201.068 C 191.984 202.984, 194.994 213.339, 195.493 212.840 C 195.689 212.644, 195.016 209.562, 193.996 205.992 C 192.977 202.421, 192.110 200.206, 192.071 201.068 M 102 203.893 C 102 205.002, 105.076 206.257, 105.864 205.469 C 106.182 205.151, 105.780 204.473, 104.971 203.961 C 103.101 202.778, 102 202.753, 102 203.893 M 282.717 203.616 C 282.013 204.320, 284.131 208, 285.241 208 C 285.658 208, 286 207.380, 286 206.622 C 286 204.984, 283.572 202.761, 282.717 203.616 M 152 210 C 152 210.550, 152.423 211, 152.941 211 C 153.459 211, 154.160 210.550, 154.500 210 C 154.840 209.450, 154.416 209, 153.559 209 C 152.702 209, 152 209.450, 152 210 M 125.657 214.185 C 123.626 216.558, 120.573 219.999, 118.873 221.831 L 115.782 225.163 118.641 228.195 C 120.213 229.862, 124.425 233.207, 128 235.628 L 134.500 240.029 135.132 237.265 C 136.922 229.427, 135.550 224.850, 132.365 228.035 C 131.651 228.749, 131.377 228.414, 131.485 226.956 C 131.571 225.792, 132.229 224.476, 132.948 224.032 C 133.711 223.560, 133.926 222.690, 133.464 221.942 C 132.900 221.029, 133.150 220.844, 134.336 221.299 C 135.653 221.804, 136 221.331, 136 219.028 C 136 215.326, 134.510 214.407, 131.706 216.380 C 130.493 217.233, 128.150 218.888, 126.500 220.056 C 124.810 221.253, 125.441 220.369, 127.945 218.031 C 131.352 214.851, 132.930 214.016, 134.695 214.460 C 135.963 214.778, 137 214.635, 137 214.141 C 137 212.802, 134.814 211.242, 131.919 210.516 C 129.756 209.973, 128.765 210.554, 125.657 214.185 M 117.217 216.293 C 113.347 223.122, 113.830 225.402, 118.114 220.523 C 120.418 217.899, 121.058 216.304, 120.817 213.792 L 120.500 210.500 117.217 216.293 M 228.832 212.502 C 228.556 212.777, 224.409 213.731, 219.616 214.620 C 214.824 215.509, 211.105 216.438, 211.352 216.685 C 212.188 217.521, 228.103 214.645, 229.808 213.350 C 230.738 212.642, 231.012 212.049, 230.417 212.032 C 229.821 212.014, 229.108 212.226, 228.832 212.502 M 174.500 213.974 C 176.410 214.820, 182.785 215.391, 181.917 214.639 C 181.688 214.441, 179.475 214.011, 177 213.683 C 173.995 213.286, 173.165 213.383, 174.500 213.974 M 185 216 C 188.419 217.095, 191.048 217.095, 188.500 216 C 187.400 215.527, 185.600 215.154, 184.500 215.170 C 182.892 215.194, 182.990 215.356, 185 216 M 198.250 219.689 C 199.213 219.941, 200.787 219.941, 201.750 219.689 C 202.713 219.438, 201.925 219.232, 200 219.232 C 198.075 219.232, 197.287 219.438, 198.250 219.689 M 270.946 222.859 C 268.501 224.432, 265.452 226.861, 264.172 228.257 C 261.903 230.730, 261.887 230.881, 263.545 234.086 C 264.963 236.829, 265.131 238.945, 264.556 246.782 C 264.176 251.954, 263.605 256.932, 263.286 257.843 C 262.894 258.962, 263.037 259.176, 263.728 258.500 C 265.569 256.700, 276.892 220, 275.607 220 C 275.489 220, 273.391 221.287, 270.946 222.859 M 146.933 229.750 C 146.895 230.162, 146.679 232.075, 146.452 234 C 146.098 237.007, 146.201 237.224, 147.185 235.544 C 148.321 233.603, 148.335 233.603, 149.094 235.544 C 149.752 237.226, 149.869 237.126, 149.930 234.832 C 149.968 233.364, 150.273 231.452, 150.607 230.582 C 151.042 229.448, 150.617 229, 149.107 229 C 147.948 229, 146.970 229.338, 146.933 229.750 M 148.079 231.583 C 148.127 232.748, 148.364 232.985, 148.683 232.188 C 148.972 231.466, 148.936 230.603, 148.604 230.271 C 148.272 229.939, 148.036 230.529, 148.079 231.583 M 153.350 233.994 C 153.506 238.143, 154.347 239.143, 155.392 236.421 C 156.112 234.544, 155.121 230, 153.991 230 C 153.556 230, 153.267 231.797, 153.350 233.994 M 156.079 231.583 C 156.127 232.748, 156.364 232.985, 156.683 232.188 C 156.972 231.466, 156.936 230.603, 156.604 230.271 C 156.272 229.939, 156.036 230.529, 156.079 231.583 M 158.501 231.417 C 158.225 232.288, 157.767 233.732, 157.483 234.627 C 157.198 235.521, 157.474 236.867, 158.096 237.616 C 159.277 239.039, 161 238.604, 161 236.882 C 161 236.332, 160.550 236.160, 160 236.500 C 159.429 236.853, 159 235.975, 159 234.452 C 159 232.431, 159.383 231.933, 160.584 232.394 C 161.557 232.767, 162.015 232.544, 161.771 231.813 C 161.144 229.932, 159.050 229.678, 158.501 231.417 M 163.142 235.220 C 162.854 240.105, 163.811 239.772, 164.982 234.579 C 165.561 232.015, 165.449 231, 164.590 231 C 163.887 231, 163.288 232.745, 163.142 235.220 M 167.098 234.149 C 165.706 238.143, 165.709 239.298, 167.112 238.431 C 167.723 238.053, 168.616 238.364, 169.096 239.122 C 169.665 240.020, 169.975 238.846, 169.985 235.750 C 170.002 230.292, 168.695 229.567, 167.098 234.149 M 171.675 233.405 C 171.304 234.372, 171.029 236.364, 171.063 237.832 L 171.127 240.500 172.199 238 L 173.271 235.500 174.036 238 L 174.801 240.500 174.900 237.832 C 174.955 236.364, 175.273 234.452, 175.607 233.582 C 175.941 232.712, 175.716 232, 175.107 232 C 174.498 232, 173.968 232.787, 173.930 233.750 C 173.868 235.281, 173.765 235.258, 173.105 233.573 C 172.404 231.785, 172.301 231.773, 171.675 233.405 M 176.430 234.421 C 175.574 237.834, 176.268 240.500, 178.014 240.500 C 179.047 240.500, 179.594 239.206, 179.807 236.250 C 180.046 232.958, 179.768 232, 178.577 232 C 177.730 232, 176.765 233.089, 176.430 234.421 M 177.822 235.500 C 177.177 238.496, 177.489 239.844, 178.575 238.758 C 178.892 238.442, 178.997 236.904, 178.809 235.341 L 178.467 232.500 177.822 235.500 M 181 236.989 C 181 240.723, 181.175 240.965, 183.750 240.773 C 185.262 240.660, 187.075 239.878, 187.777 239.034 C 188.896 237.691, 189.020 237.744, 188.777 239.464 C 188.612 240.634, 189.162 241.564, 190.138 241.766 C 191.299 242.005, 192.091 240.995, 192.855 238.302 L 193.933 234.500 193.667 238.250 C 193.521 240.313, 193.761 242, 194.201 242 C 194.640 242, 195 240.200, 195 238 C 195 233.259, 192.402 232.349, 191.432 236.750 C 190.370 241.565, 190.160 241.603, 190.047 237 C 189.947 232.950, 189.798 232.682, 188.555 234.322 C 187.219 236.084, 187.159 236.084, 186.703 234.322 C 186.444 233.320, 186.180 234.262, 186.116 236.417 C 186.052 238.571, 185.706 240.040, 185.347 239.681 C 184.989 239.322, 184.733 237.672, 184.781 236.014 C 184.847 233.672, 184.435 233, 182.933 233 C 181.345 233, 181 233.713, 181 236.989 M 182.500 235 C 182.160 235.550, 182.359 236, 182.941 236 C 183.523 236, 184 235.550, 184 235 C 184 234.450, 183.802 234, 183.559 234 C 183.316 234, 182.840 234.450, 182.500 235 M 196.998 236.505 C 195.871 239.469, 195.660 242.673, 196.658 241.675 C 197.020 241.313, 197.920 241.519, 198.658 242.131 C 199.743 243.032, 200 242.467, 200 239.181 C 200 234.305, 198.383 232.863, 196.998 236.505 M 203.459 236.067 C 203.096 236.653, 203.014 237.348, 203.276 237.610 C 203.538 237.872, 204.019 237.392, 204.345 236.543 C 205.021 234.781, 204.445 234.471, 203.459 236.067 M 182 238.559 C 182 239.416, 182.457 239.835, 183.016 239.490 C 183.575 239.144, 183.774 238.443, 183.457 237.931 C 182.600 236.544, 182 236.802, 182 238.559 M 213.564 242.707 C 213.022 244.132, 213.136 244.247, 214.124 243.267 C 214.808 242.588, 215.115 241.781, 214.807 241.474 C 214.499 241.166, 213.940 241.721, 213.564 242.707 M 148.577 245.148 C 148.169 246.605, 148.039 248.855, 148.290 250.148 L 148.746 252.500 149.567 250 L 150.387 247.500 151.046 250 C 151.653 252.307, 151.763 252.206, 152.472 248.703 C 153.279 244.714, 152.482 242.601, 151.047 244.924 C 150.385 245.995, 150.107 245.881, 149.761 244.395 C 149.394 242.818, 149.195 242.945, 148.577 245.148 M 155.667 244.667 C 155.300 245.033, 155.035 246.946, 155.077 248.917 L 155.154 252.500 156.472 248.500 L 157.790 244.500 158.037 249 L 158.284 253.500 158.937 249.500 C 159.296 247.300, 159.430 245.162, 159.236 244.750 C 158.797 243.820, 156.565 243.768, 155.667 244.667 M 160.667 245.667 C 160.300 246.033, 160 247.803, 160 249.600 C 160 252.556, 160.275 252.858, 162.898 252.784 C 165.208 252.718, 166.015 252.072, 166.872 249.601 L 167.948 246.500 167.641 249.794 C 167.472 251.606, 167.708 253.320, 168.167 253.603 C 168.625 253.886, 169 252.066, 169 249.559 C 169 243.821, 166.645 243.319, 165.203 248.750 L 164.207 252.500 164.103 248.750 C 164.006 245.229, 162.477 243.857, 160.667 245.667 M 161.741 247.332 C 160.581 250.198, 160.790 252.610, 162.085 251.315 C 162.681 250.719, 163.015 249.166, 162.826 247.865 C 162.523 245.783, 162.393 245.719, 161.741 247.332 M 170.500 250 C 170.500 254.750, 171.877 254.723, 173.605 249.940 C 174.289 248.048, 174.882 247.236, 174.924 248.136 C 175.034 250.492, 177.579 255.088, 178.348 254.318 C 178.707 253.960, 178.948 252.054, 178.884 250.083 C 178.820 248.113, 178.562 247.287, 178.311 248.250 C 177.720 250.510, 175.819 250.543, 176.206 248.286 C 176.607 245.947, 173.298 245.387, 172.700 247.693 C 172.270 249.352, 172.222 249.356, 172.116 247.750 C 171.881 244.207, 170.500 246.130, 170.500 250 M 180.151 251 C 180.072 255.450, 180.088 255.472, 181.598 253 C 182.993 250.716, 183.086 250.689, 182.673 252.685 C 182.410 253.956, 182.789 255.089, 183.578 255.392 C 185.087 255.970, 185.796 255.118, 187.092 251.172 C 187.876 248.786, 187.939 248.901, 187.685 252.250 C 187.304 257.286, 188.688 257.072, 189.169 252.020 C 189.435 249.238, 189.123 247.877, 188.131 247.497 C 186.357 246.816, 186.384 246.784, 185.180 251 L 184.180 254.500 184.058 250.500 C 183.948 246.875, 183.807 246.671, 182.555 248.322 C 181.219 250.084, 181.159 250.084, 180.703 248.322 C 180.444 247.320, 180.196 248.525, 180.151 251 M 190.641 250.209 C 189.566 254.221, 189.921 255.571, 192.048 255.571 C 193.774 255.571, 194.048 255.028, 193.798 252.113 C 193.449 248.066, 191.526 246.906, 190.641 250.209 M 197.146 250.500 C 197.051 251.600, 196.693 253.625, 196.350 255 C 195.871 256.925, 196.006 257.242, 196.937 256.377 C 197.610 255.752, 197.963 253.757, 197.733 251.877 C 197.506 250.020, 197.242 249.400, 197.146 250.500 M 199.116 253.250 C 199.180 255.588, 199.430 256.751, 199.673 255.835 C 200.388 253.135, 202.995 252.705, 203.032 255.281 C 203.063 257.447, 203.098 257.454, 204.532 255.559 C 205.956 253.675, 206 253.688, 206 255.976 C 206 259.303, 206.620 258.198, 207.390 253.500 C 207.998 249.786, 207.936 249.639, 206.523 251.441 C 205.044 253.326, 204.998 253.312, 204.930 250.941 C 204.865 248.683, 204.795 248.650, 204 250.500 C 203.265 252.210, 203.130 252.246, 203.070 250.750 C 203.028 249.690, 202.211 249, 201 249 C 199.296 249, 199.017 249.628, 199.116 253.250 M 200.667 250.667 C 200.300 251.033, 200 251.798, 200 252.367 C 200 252.993, 200.466 252.934, 201.183 252.217 C 201.834 251.566, 202.134 250.801, 201.850 250.517 C 201.566 250.232, 201.033 250.300, 200.667 250.667 M 208.618 252.298 C 207.526 256.369, 207.922 258, 210 258 C 211.561 258, 212.031 257.286, 212.142 254.750 C 212.279 251.620, 212.310 251.648, 213 255.500 C 213.512 258.361, 213.775 258.788, 213.921 257 L 214.127 254.500 215.232 257 L 216.337 259.500 217.037 256 L 217.737 252.500 217.868 255.750 C 217.965 258.135, 218.466 258.996, 219.750 258.985 C 221.248 258.972, 221.284 258.828, 220 257.985 C 218.742 257.159, 218.722 256.857, 219.878 256.112 C 220.650 255.614, 220.924 254.686, 220.500 254 C 220.077 253.316, 220.352 252.366, 221.122 251.846 C 222.036 251.228, 221.236 251.096, 218.750 251.452 C 216.688 251.747, 214.999 251.654, 214.998 251.245 C 214.997 250.835, 213.694 250.409, 212.102 250.298 C 209.874 250.143, 209.072 250.603, 208.618 252.298 M 210.232 254 C 210.232 255.925, 210.438 256.712, 210.689 255.750 C 210.941 254.787, 210.941 253.213, 210.689 252.250 C 210.438 251.287, 210.232 252.075, 210.232 254 M 225.070 253.668 C 225.032 255.411, 224.733 257.661, 224.406 258.668 C 223.909 260.198, 223.992 260.253, 224.906 259 C 225.878 257.667, 226.121 257.667, 227.087 259 C 227.953 260.195, 228.065 260.010, 227.638 258.088 C 227.344 256.762, 227.545 254.849, 228.087 253.838 C 228.747 252.604, 228.730 252, 228.035 252 C 227.466 252, 226.968 252.563, 226.930 253.250 C 226.891 253.938, 226.473 253.600, 226 252.500 C 225.274 250.810, 225.130 250.991, 225.070 253.668 M 229.513 252.979 C 229.180 253.518, 229.378 254.838, 229.954 255.914 C 231.270 258.374, 231.287 259.295, 230 258.500 C 229.450 258.160, 229 258.332, 229 258.882 C 229 260.442, 230.451 260.958, 232.048 259.965 C 233.239 259.223, 233.275 258.699, 232.250 257.044 C 230.752 254.628, 230.512 251.697, 232 254 C 232.828 255.282, 232.972 255.246, 232.985 253.750 C 233.001 251.888, 230.527 251.338, 229.513 252.979 M 235.630 255.250 C 235.299 256.488, 235.028 258.400, 235.029 259.500 C 235.030 261.156, 235.197 261.242, 236 260 C 236.750 258.839, 236.973 258.807, 236.985 259.859 C 236.996 260.822, 238.021 261.100, 240.500 260.810 C 242.425 260.585, 244 260.761, 244 261.201 C 244 261.640, 244.900 262, 246 262 C 247.100 262, 248.007 261.438, 248.015 260.750 C 248.026 259.917, 248.354 260, 249 261 C 249.759 262.175, 249.973 261.922, 249.985 259.832 C 249.993 258.364, 250.267 256.339, 250.594 255.332 C 251.091 253.802, 251.008 253.747, 250.094 255 C 249.122 256.333, 248.880 256.333, 247.919 255 C 247.065 253.815, 246.951 254.026, 247.378 256.008 C 247.674 257.388, 247.549 259.112, 247.099 259.840 C 246.558 260.715, 246.061 259.784, 245.629 257.081 C 244.813 251.981, 243.330 251.832, 242.323 256.750 L 241.555 260.500 240.957 256.500 C 240.375 252.605, 240.330 252.566, 239.243 255 C 238.153 257.441, 238.125 257.447, 238.063 255.250 C 238.029 254.012, 237.602 253, 237.117 253 C 236.631 253, 235.962 254.012, 235.630 255.250 M 136.599 271.005 C 138.097 273.758, 139.530 275.803, 139.783 275.550 C 140.301 275.033, 135.205 266, 134.395 266 C 134.109 266, 135.101 268.252, 136.599 271.005 M 167 266.349 C 167 267.335, 172.902 282.007, 176.212 289.250 C 179.493 296.431, 180.232 296.861, 185.902 294.884 C 190.244 293.371, 190.830 294.342, 186.778 296.339 C 184.975 297.227, 184.203 297.965, 185.062 297.977 C 185.921 297.990, 188.590 297.051, 190.992 295.890 C 196.077 293.433, 203.863 293.661, 206.839 296.354 C 209.002 298.312, 214.139 298.739, 212.200 296.800 C 211.540 296.140, 211 294.960, 211 294.178 C 211 293.017, 211.280 292.988, 212.524 294.020 C 213.362 294.716, 214.340 294.993, 214.696 294.637 C 215.340 293.994, 222.693 276.969, 223.655 273.894 C 224.211 272.118, 219.848 271.003, 212.500 271.044 C 208.152 271.068, 204 273.719, 204 276.469 C 204 277.376, 203.546 277.838, 202.992 277.495 C 202.437 277.152, 201.529 277.913, 200.973 279.186 C 200.118 281.147, 200.044 280.956, 200.492 277.935 L 201.021 274.371 193.761 271.272 C 189.279 269.359, 183.905 267.936, 179.721 267.555 C 175.992 267.216, 171.605 266.671, 169.971 266.344 C 168.337 266.017, 167 266.020, 167 266.349 M 252.654 275.264 C 251.174 276.346, 250.966 278.007, 251.212 286.780 L 251.500 297.031 254.176 286.766 C 255.671 281.032, 256.285 277.273, 255.566 278.250 C 253.496 281.065, 252.813 280.263, 254.500 277 C 256.148 273.813, 255.487 273.192, 252.654 275.264" stroke="none" fill="#3467df" fill-rule="evenodd"/>
</svg>