<svg xmlns="http://www.w3.org/2000/svg" width="400" height="300" viewBox="0 0 400 300" version="1.1">
	<rect x="0" y="0" width="100%" height="100%" fill="#bfbfbf" />
	<path d="M 0 16.967 L 0 33.934 11.250 34.217 L 22.500 34.500 22.802 39.750 L 23.105 45 11.552 45 L 0 45 -0 66.969 L -0 88.938 12.250 89.219 L 24.500 89.500 24.802 94.750 L 25.105 100 12.552 100 L 0 100 0 122 L 0 144 23 144 L 46 144 46 149.500 L 46 155 23 155 L 0 155 0 163.500 L 0 172 45.500 172 L 91 172 91 177 C 91 180.292, 90.573 182.026, 89.750 182.077 C 83.057 182.487, 75.176 182.600, 40.250 182.786 L 0 183 0 205 L 0 227 11.552 227 L 23.105 227 22.802 232.250 L 22.500 237.500 11.250 237.783 L -0 238.066 -0 269.035 L -0 300.005 200.250 299.752 L 400.500 299.500 400.634 149.750 L 400.767 0 200.384 0 L 0 0 0 16.967 M 0.409 17.500 C 0.408 26.850, 0.558 30.810, 0.743 26.299 C 0.928 21.789, 0.929 14.139, 0.745 9.299 C 0.562 4.460, 0.410 8.150, 0.409 17.500 M 0.428 67 C 0.428 79.375, 0.571 84.438, 0.747 78.250 C 0.922 72.063, 0.922 61.938, 0.747 55.750 C 0.571 49.563, 0.428 54.625, 0.428 67 M 272.917 61.991 C 272.871 62.546, 272.833 64.575, 272.833 66.500 C 272.833 68.425, 272.871 70.454, 272.917 71.009 C 272.972 71.677, 291.477 71.930, 327.750 71.759 L 382.500 71.500 382.500 66.500 L 382.500 61.500 327.750 61.241 C 291.477 61.070, 272.972 61.323, 272.917 61.991 M 72 67 L 72 72 93 72 C 104.550 72, 114 71.798, 114 71.550 C 114 71.303, 112.618 69.053, 110.929 66.550 L 107.858 62 89.929 62 L 72 62 72 67 M 208.918 66.986 L 210.500 72.003 236.500 71.751 L 262.500 71.500 262.500 67 L 262.500 62.500 234.918 62.234 L 207.337 61.969 208.918 66.986 M 139 80.774 C 137.625 80.960, 135.150 81.533, 133.500 82.049 C 130.548 82.971, 130.505 83.081, 130.839 88.993 L 131.178 95 145.389 95 C 159.657 95, 162.460 95.637, 161.315 98.622 C 160.905 99.691, 162.035 100, 166.362 100 C 171.063 100, 171.841 99.749, 171.323 98.399 C 170.256 95.620, 173.114 95.031, 187.750 95.015 L 202 95 202 90.165 L 202 85.331 194.096 85.788 C 186.308 86.239, 186.150 86.201, 183.346 83.171 L 180.500 80.097 172 83.027 C 162.305 86.370, 159 86.727, 159 84.433 C 159 83.295, 158.424 83.048, 156.896 83.533 C 153.924 84.476, 143.587 85.847, 143.067 85.367 C 142.828 85.147, 143.166 84.434, 143.817 83.783 C 144.468 83.132, 145 82.292, 145 81.917 C 145 80.954, 141.957 80.375, 139 80.774 M 35.402 90.395 C 35.108 91.162, 35.009 93.524, 35.183 95.645 L 35.500 99.500 78.260 99.761 L 121.020 100.021 120.427 103.761 C 119.954 106.739, 120.460 108.691, 122.917 113.352 C 124.612 116.570, 126 119.811, 126 120.554 C 126 122.769, 128.238 127, 129.411 127.001 C 130.140 127.002, 130.422 123.689, 130.266 116.982 C 130.031 106.931, 128.887 102.811, 125.566 100.055 C 124.705 99.340, 123.994 97.573, 123.986 96.128 C 123.979 94.682, 123.701 92.487, 123.370 91.250 L 122.767 89 79.352 89 C 43.138 89, 35.848 89.231, 35.402 90.395 M 208.713 89.750 C 208.491 90.162, 207.721 92.750, 207.002 95.500 C 206.284 98.250, 205.139 101.175, 204.459 102 C 203.779 102.825, 202.874 105.075, 202.448 107 C 201.400 111.732, 201.852 124.256, 203.116 125.499 C 204.388 126.749, 207 123.481, 207 120.638 C 207 119.549, 208.391 115.802, 210.092 112.312 C 212.731 106.893, 213.031 105.529, 212.144 102.983 L 211.104 100 246.552 100 L 282 100 282 94.500 L 282 89 245.559 89 C 225.516 89, 208.936 89.338, 208.713 89.750 M 342 94 C 342 95.100, 342.450 96, 343 96 C 343.550 96, 344 95.100, 344 94 C 344 92.900, 343.550 92, 343 92 C 342.450 92, 342 92.900, 342 94 M 345.079 94.583 C 345.127 95.748, 345.364 95.985, 345.683 95.188 C 345.972 94.466, 345.936 93.603, 345.604 93.271 C 345.272 92.939, 345.036 93.529, 345.079 94.583 M 0.428 122 C 0.428 134.375, 0.571 139.438, 0.747 133.250 C 0.922 127.063, 0.922 116.938, 0.747 110.750 C 0.571 104.563, 0.428 109.625, 0.428 122 M 133 104.404 C 133 109.504, 134.101 112.958, 136.488 115.345 C 138.779 117.636, 147.354 117.476, 152.715 115.043 C 157.339 112.943, 158.347 110.844, 157.820 104.405 L 157.500 100.500 145.250 100.219 L 133 99.938 133 104.404 M 175.202 106.148 C 175.588 114.102, 178.012 116.215, 187.444 116.816 C 193.216 117.183, 194.115 116.976, 196.317 114.774 C 198.792 112.299, 200.904 103.272, 199.528 101.046 C 199.137 100.412, 194.159 100, 186.893 100 L 174.905 100 175.202 106.148 M 163.390 103.004 C 161.784 103.634, 161.121 105.034, 160.612 108.865 C 159.843 114.664, 157.257 117.315, 150.627 119.100 C 144.937 120.633, 136.547 119.792, 133.849 117.419 L 131.667 115.500 133.513 118.689 C 137.799 126.092, 150.677 129.595, 170.402 128.724 C 184.674 128.093, 191.577 126.207, 196.456 121.606 C 200.602 117.696, 201.312 114.823, 197.365 117.927 C 192.386 121.844, 179.986 120.154, 174.264 114.778 C 172.598 113.213, 172 111.524, 172 108.385 C 172 106.038, 171.662 103.929, 171.250 103.697 C 169.313 102.611, 165.295 102.256, 163.390 103.004 M 144.667 107.667 C 143.179 109.155, 144.184 110, 147.441 110 C 149.334 110, 151.131 109.597, 151.435 109.105 C 152.438 107.483, 146.180 106.153, 144.667 107.667 M 179.990 108.043 C 178.671 108.890, 178.673 109.113, 180 109.985 C 182.176 111.413, 184.573 111.219, 186 109.500 C 186.685 108.675, 186.852 107.967, 186.372 107.926 C 185.893 107.885, 184.595 107.679, 183.490 107.469 C 182.384 107.258, 180.809 107.516, 179.990 108.043 M 273.663 117.739 C 273.199 118.492, 272.703 124.338, 272.899 126.750 C 272.978 127.729, 282.431 128, 316.552 128 L 360.105 128 359.802 122.750 L 359.500 117.500 316.816 117.239 C 293.339 117.096, 273.920 117.321, 273.663 117.739 M 155.206 135.906 C 154.077 138.847, 158.802 141, 166.388 141 C 173.806 141, 178 139.354, 178 136.443 C 178 134.716, 178.898 134.851, 166.123 134.657 C 158.022 134.534, 155.627 134.808, 155.206 135.906 M 56.402 145.395 C 56.108 146.162, 56.009 148.524, 56.183 150.645 L 56.500 154.500 74.203 154.773 C 91.733 155.043, 91.917 155.024, 93.073 152.773 C 93.715 151.523, 95.624 149.037, 97.316 147.250 L 100.392 144 78.665 144 C 61.002 144, 56.837 144.261, 56.402 145.395 M 235.684 147.250 C 237.376 149.037, 239.288 151.527, 239.933 152.783 C 241.059 154.975, 241.536 155.055, 251.803 154.783 L 262.500 154.500 262.828 151.629 C 263.009 150.050, 262.887 147.688, 262.559 146.379 C 261.964 144.009, 261.908 144, 247.285 144 L 232.608 144 235.684 147.250 M 272.882 145.238 C 272.749 146.664, 272.768 153.099, 272.908 154.262 C 272.959 154.682, 289.538 154.907, 309.750 154.762 L 346.500 154.500 346.500 149.500 L 346.500 144.500 309.750 144.238 C 280.736 144.031, 272.975 144.241, 272.882 145.238 M 152.968 154.856 C 152.951 156.310, 152.276 158.374, 151.468 159.441 C 150.495 160.728, 150.005 163.762, 150.015 168.441 C 150.035 177.377, 150.851 178.852, 153.949 175.554 C 156.120 173.243, 156.446 173.179, 159.084 174.543 C 160.633 175.345, 163.745 176, 166 176 C 168.255 176, 171.367 175.345, 172.916 174.543 C 175.554 173.179, 175.880 173.243, 178.051 175.554 C 179.777 177.391, 180.573 177.699, 181.169 176.761 C 182.555 174.578, 182.086 162.689, 180.494 159.636 C 179.672 158.060, 179 155.952, 179 154.951 C 179 153.288, 178.241 153.176, 170.250 153.662 C 165.438 153.955, 159.588 153.749, 157.250 153.204 C 153.076 152.230, 152.999 152.260, 152.968 154.856 M 0.355 163.500 C 0.352 168.450, 0.521 170.601, 0.731 168.280 C 0.940 165.959, 0.943 161.909, 0.736 159.280 C 0.530 156.651, 0.358 158.550, 0.355 163.500 M 351 165.057 C 348.167 165.900, 348.345 166.078, 352.308 166.367 C 354.775 166.546, 356.939 168.279, 356.985 170.111 C 356.993 170.448, 355.960 170.524, 354.689 170.281 C 353.418 170.038, 351.863 170.460, 351.233 171.219 C 349.757 172.998, 348.694 180.199, 349.715 181.500 C 350.201 182.119, 356.692 182.371, 366.750 182.162 L 383 181.824 383 176.912 L 383 172 371.219 172 L 359.438 172 358.345 169.102 C 357.005 165.552, 354.316 164.071, 351 165.057 M 305 171.897 L 292.500 172.500 292.185 176.901 C 291.988 179.650, 292.340 181.592, 293.121 182.075 C 293.907 182.561, 288.120 185.847, 277.535 190.924 L 260.699 199 251.782 199 C 242.074 199, 242.468 198.685, 244.704 204.645 C 244.944 205.284, 241.564 207.534, 237.067 209.729 L 229 213.668 229 211.034 C 229 209.585, 228.460 207.860, 227.800 207.200 C 226.893 206.293, 211.783 206, 165.922 206 C 114.840 206, 105.059 206.224, 104.071 207.414 C 103.189 208.477, 103.097 216.751, 103.699 240.664 L 104.500 272.500 152 272.734 C 178.125 272.863, 220.855 272.638, 246.956 272.234 L 294.412 271.500 298.837 264 C 316.448 234.147, 325.995 217.650, 325.967 217.119 C 325.901 215.888, 322.152 212, 321.031 212 C 320.399 212, 320.168 211.537, 320.518 210.970 C 321.637 209.160, 304.484 190.613, 302.657 191.658 C 302.021 192.023, 301.822 191.964, 302.215 191.529 C 302.608 191.093, 301.371 188.915, 299.465 186.688 C 295.976 182.612, 294.934 178.997, 297.250 179.003 C 297.938 179.005, 304.650 185.867, 312.166 194.253 C 319.683 202.639, 326.839 210.568, 328.070 211.873 L 330.306 214.245 332.155 211.873 C 335.288 207.852, 339.147 199.325, 339.700 195.200 C 340.068 192.456, 339.708 190.484, 338.503 188.645 C 337.376 186.924, 337.005 185.118, 337.430 183.422 C 338.439 179.402, 337.241 177.225, 332.481 174.436 C 327.354 171.431, 322.998 171.029, 305 171.897 M 340.452 182.433 C 338.243 185.804, 339.970 189, 344 189 C 348.030 189, 349.757 185.804, 347.548 182.433 C 346.671 181.095, 345.075 180, 344 180 C 342.925 180, 341.329 181.095, 340.452 182.433 M 0.428 205 C 0.428 217.375, 0.571 222.438, 0.747 216.250 C 0.922 210.063, 0.922 199.938, 0.747 193.750 C 0.571 187.563, 0.428 192.625, 0.428 205 M 348.909 189.609 C 347.482 191.330, 347.767 191.719, 358.899 203.231 C 365.587 210.146, 367.625 211.726, 368.704 210.830 C 369.454 210.209, 369.939 209.347, 369.783 208.915 C 369.627 208.484, 365.127 203.651, 359.782 198.175 C 351.860 190.058, 349.851 188.475, 348.909 189.609 M 77.185 199.864 C 76.335 200.403, 75.982 202.255, 76.185 205.099 C 76.492 209.387, 76.595 209.508, 80.204 209.808 C 83.738 210.101, 84.022 209.889, 86.409 205.179 C 87.785 202.465, 88.630 199.964, 88.288 199.622 C 87.372 198.705, 78.714 198.895, 77.185 199.864 M 370 213.500 C 370 214.325, 370.675 215, 371.500 215 C 372.325 215, 373 214.325, 373 213.500 C 373 212.675, 372.325 212, 371.500 212 C 370.675 212, 370 212.675, 370 213.500 M 365.212 220.250 C 364.010 222.588, 361.018 227.875, 358.563 232 C 353.655 240.249, 353.282 241.510, 355.498 242.361 C 357.175 243.004, 357.313 242.812, 365.380 228.602 C 369.718 220.961, 370.743 218.396, 369.877 217.352 C 368.164 215.287, 367.578 215.651, 365.212 220.250 M 228.850 233.750 C 228.718 239.387, 228.586 245.463, 228.556 247.250 C 228.502 250.373, 228.637 250.486, 232 250.150 C 233.925 249.957, 236.733 249.282, 238.240 248.650 L 240.980 247.500 237.195 239.500 C 235.114 235.100, 232.438 229.700, 231.249 227.500 L 229.088 223.500 228.850 233.750 M 364.466 240.428 C 363.371 243.047, 362.363 244, 360.687 244 C 358.725 244, 358.400 244.515, 358.400 247.629 C 358.400 254.016, 351.342 257.342, 347 253 C 345.900 251.900, 345 249.863, 345 248.474 C 345 245.955, 344.992 245.953, 341.750 247.588 C 335.145 250.921, 330.534 256.741, 328.947 263.750 L 328.211 267 351.605 267 C 373.228 267, 374.998 266.867, 374.978 265.250 C 374.945 262.621, 371.652 255.906, 368.655 252.356 C 365.292 248.373, 365.263 245.657, 368.566 244.152 C 371.960 242.605, 371.722 237.673, 368.229 237.178 C 366.437 236.923, 365.644 237.608, 364.466 240.428 M 0.445 269 C 0.445 286.325, 0.582 293.413, 0.748 284.750 C 0.915 276.087, 0.915 261.913, 0.748 253.250 C 0.582 244.588, 0.445 251.675, 0.445 269 M 366.345 240.543 C 366.019 241.392, 366.023 242.356, 366.352 242.686 C 367.217 243.550, 370.083 240.944, 369.430 239.887 C 368.576 238.506, 366.998 238.842, 366.345 240.543 M 349.223 244.557 C 346.310 246.597, 346.399 249.560, 349.433 251.548 C 351.325 252.788, 352.325 252.896, 353.933 252.036 C 356.668 250.572, 356.753 245.473, 354.066 244.035 C 351.634 242.734, 351.860 242.710, 349.223 244.557 M 360.460 246.595 C 362.658 248.201, 364 248.399, 364 247.117 C 364 246.631, 362.771 245.998, 361.269 245.711 C 358.715 245.223, 358.662 245.280, 360.460 246.595" stroke="none" fill="#3467df" fill-rule="evenodd"/>
</svg>