<svg xmlns="http://www.w3.org/2000/svg" width="32" height="16" viewBox="0 0 32 16" version="1.1">
	<rect x="0" y="0" width="100%" height="100%" fill="#bfbfbf" />
	<path d="M 4.813 0.683 C 5.534 0.972, 6.397 0.936, 6.729 0.604 C 7.061 0.272, 6.471 0.036, 5.417 0.079 C 4.252 0.127, 4.015 0.364, 4.813 0.683 M 0.079 5.583 C 0.127 6.748, 0.364 6.985, 0.683 6.188 C 0.972 5.466, 0.936 4.603, 0.604 4.271 C 0.272 3.939, 0.036 4.529, 0.079 5.583 M 10.079 5.583 C 10.127 6.748, 10.364 6.985, 10.683 6.188 C 10.972 5.466, 10.936 4.603, 10.604 4.271 C 10.272 3.939, 10.036 4.529, 10.079 5.583 M 8.500 9 C 8.160 9.550, 8.359 10, 8.941 10 C 9.523 10, 10 9.550, 10 9 C 10 8.450, 9.802 8, 9.559 8 C 9.316 8, 8.840 8.450, 8.500 9 M 4.813 10.683 C 5.534 10.972, 6.397 10.936, 6.729 10.604 C 7.061 10.272, 6.471 10.036, 5.417 10.079 C 4.252 10.127, 4.015 10.364, 4.813 10.683 M 10.636 10.779 C 10.320 11.291, 11.125 12.709, 12.425 13.930 C 13.725 15.151, 15.048 15.732, 15.364 15.221 C 15.680 14.709, 14.875 13.291, 13.575 12.070 C 12.275 10.849, 10.952 10.268, 10.636 10.779" stroke="none" fill="blue" fill-rule="evenodd"/>
</svg>